<?xml version="1.0" encoding="utf-8"?>
<!-- Generator: Adobe Illustrator 19.1.0, SVG Export Plug-In . SVG Version: 6.00 Build 0)  -->
<svg version="1.1" id="Capa_1" xmlns="http://www.w3.org/2000/svg" xmlns:xlink="http://www.w3.org/1999/xlink" x="0px" y="0px"
	 viewBox="0 0 323.7 332.5" style="enable-background:new 0 0 323.7 332.5;" xml:space="preserve">
<style type="text/css">
	.st0{fill:#333333;}
	.st1{fill:#FFFFFF;}
	.st2{fill:#990000;}
	.st3{fill:#E00707;}
	.st4{fill:#CC0000;}
</style>
<g>
	<path class="st0" d="M9.2,147.3c-7.8-12.7-13.5-21.8-4.8-31.2c5-5.4,12.5-10.5,22.2-14.9c0.7-0.3,1.5-0.7,2.2-1
		c25.4-11,57.1-12.9,82.2-8.8c1.5-2.9,3.9-5.2,6.9-6.6c0,0,25.3-11.7,25.3-11.7c2.9-1.3,6-1.5,8.9-0.9C165.7,49.6,188.6,26,214.4,14
		c0.8-0.4,1.6-0.7,2.4-1.1c8.7-3.8,16.6-5.9,23.4-6.1c12.8-0.5,16.1,9.7,20.6,23.9c1.3,4,5.9,18,11.5,30.2
		c4.9,10.6,11.3,22,15.4,28.5c7.5,12.1,13.4,21.7,4.7,31.1c-4.9,5.3-9.7,9.2-19.6,13.8c-0.8,0.4-1.6,0.7-2.5,1.1l0,0
		c-5.9,2.6-13.2,5.3-18.8,7l-0.9,0.3c-1.4,0.4-2.8,0.8-4.2,1.2c-0.8,0.2-1.6,0.4-2.4,0.6c21.9,15.2,51.9,39.9,65.6,56.4
		c8.5,10.2,12.1,18.2,11.3,25.1c-1.2,10.7-29.9,63.5-50.6,72.5c0,0,0,0,0,0c-1,0.4-1.9,0.8-2.9,1c-1.2,0.3-2.2,0.5-3.2,0.5
		c-22.3,0.7-45-37.3-62.4-70.6c-12.1-23.2-24.1-49.9-33.6-72.8c-1.3,0.6-2.7,1.3-4.1,1.9c10.7,21.4,23.1,48,33,73.2
		c26.2,66.9,19.8,85.4,12.5,93.5c-0.7,0.8-1.5,1.5-2.6,2.2c-1.1,0.7-2.3,1.4-3.6,2c-20,8.7-76.2-2.7-86.3-9.4
		c-5.7-3.8-9.4-11.5-11.6-24.3c-3.7-21.1-2.5-51.4-1.5-67.6c0.3-5.5,0.8-12.3,1.5-19.2c-0.5,0.3-1,0.7-1.4,1c-1.5,1-3,2-4.6,3
		c-6.2,4-11.9,7.1-17.4,9.6c-0.8,0.4-1.6,0.7-2.4,1.1c-8.7,3.8-16.6,5.8-23.3,6.1c-12.8,0.6-16.1-9.6-20.6-23.8
		c-1.3-4-5.9-17.9-11.6-30.3C19.5,165.1,13.1,153.7,9.2,147.3z"/>
	<path class="st1" d="M11.9,140.5C4,127.8-1.6,118.7,7.1,109.3c5-5.4,12.5-10.5,22.2-14.9c0.7-0.3,1.5-0.7,2.2-1
		c25.4-11,57-12.9,82.2-8.8c1.5-2.9,3.9-5.2,6.9-6.6c0,0,25.3-11.7,25.3-11.7c2.9-1.3,6-1.5,8.9-0.9c13.5-22.7,36.4-46.3,62.3-58.3
		c0.8-0.4,1.6-0.7,2.4-1.1c8.7-3.8,16.6-5.9,23.4-6.1c12.8-0.5,16.1,9.7,20.6,23.9c1.3,4,5.9,18,11.5,30.2
		c4.9,10.6,11.3,22,15.4,28.5c7.5,12.1,13.4,21.7,4.7,31.1c-4.9,5.3-9.7,9.2-19.6,13.8c-0.8,0.4-1.6,0.7-2.5,1.1l0,0
		c-5.9,2.6-13.2,5.3-18.8,7l-0.9,0.3c-1.4,0.4-2.8,0.8-4.2,1.2c-0.8,0.2-1.6,0.4-2.4,0.6c21.9,15.2,51.9,39.9,65.6,56.4
		c8.5,10.2,12.1,18.2,11.3,25.1c-1.2,10.7-29.9,63.5-50.6,72.5c0,0,0,0,0,0c-1,0.4-1.9,0.7-2.9,1c-1.2,0.3-2.2,0.5-3.2,0.5
		c-22.3,0.7-45-37.3-62.4-70.6c-12.1-23.2-24.1-49.9-33.6-72.8c-1.3,0.6-2.7,1.2-4.1,1.9c10.7,21.4,23.1,48,33,73.2
		c26.2,66.9,19.8,85.4,12.5,93.5c-0.7,0.8-1.5,1.5-2.6,2.2c-1.1,0.7-2.3,1.4-3.6,2c-20,8.7-76.2-2.7-86.3-9.4
		c-5.7-3.8-9.4-11.5-11.6-24.3c-3.7-21.1-2.5-51.4-1.5-67.6c0.3-5.5,0.9-12.3,1.5-19.2c-0.5,0.3-1,0.7-1.4,1c-1.5,1-3,2-4.6,3
		c-6.2,4-11.9,7.1-17.4,9.6c-0.8,0.4-1.6,0.7-2.4,1.1c-8.7,3.8-16.6,5.8-23.3,6.1c-12.8,0.6-16.1-9.6-20.6-23.8
		c-1.3-4-5.9-17.9-11.6-30.3C22.2,158.2,15.8,146.9,11.9,140.5z"/>
	<g>
		<g>
			<g>
				<g>
					<path class="st2" d="M124.7,306c7.7,5.2,66.2,17.1,80.2,7.5c0.7-0.5,1-0.8,1-0.8c20.7-22.4-38.3-142.8-59.4-181.5
						c-2.9,14.3-13.7,32.1-25.4,48C117,184.6,106.9,294,124.7,306z"/>
				</g>
				<g>
					<path class="st2" d="M315,218.2c-1.1,9.3-30.7,61.8-47.1,66.2c-0.9,0.2-1.2,0.2-1.2,0.2c-30.4,1.2-82.3-122.5-98-163.6
						c12.7,7.1,33.3,10.5,53,11.8C228.5,133.3,317.5,196.8,315,218.2z"/>
				</g>
			</g>
			<path class="st3" d="M151.4,95.7c5.1-24.7,34.1-64.3,69.3-80.6c8.6-4,16.2-6.1,22.5-6.4c5.6-0.2,7.3,3.2,12,17.9
				c2.4,7.5,6.9,20.2,11.9,31.1c5.1,11,11.7,22.7,15.9,29.4c8.1,13.1,9.6,16.6,5.8,20.7c-4.3,4.6-8.3,7.8-16.9,11.8
				c-5.4,2.5-13.9,5.8-20.1,7.7c-1.6,0.5-3.3,1-5,1.5c-1.7,0.5-3.5,0.9-5.2,1.3c-31.1,7.6-57.5,4-75-4.4c-0.6-0.3-1.2-0.5-1.8-0.8
				c-0.4-0.3-2.4-4.1-3-4.7c-0.8-0.9-1.6-2.1-2.5-3.4C155.3,110.1,150.7,99,151.4,95.7z"/>
			<path class="st3" d="M138.9,101.4c-22.1-12.2-70.7-15.5-106,0.8c-8.6,4-15.2,8.3-19.5,13c-3.8,4.1-2.3,7.6,5.8,20.8
				c4.1,6.7,10.7,18.4,15.8,29.4c5.1,11,9.5,23.7,12,31.2c4.7,14.6,6.4,18,12,17.8c6.3-0.3,13.9-2.4,22.5-6.4
				c5.4-2.5,10.9-5.6,16.4-9.1c1.5-0.9,2.9-1.8,4.3-2.8c1.5-1,2.9-2,4.4-3.1c26-18.7,40.2-41.5,45.2-60.3c0.2-0.6,0.4-1.3,0.5-1.9
				c0.1-0.5-1.4-4.6-1.5-5.4c-0.2-1.1-0.5-2.5-1-4.1C147.4,113.8,141.8,103.1,138.9,101.4z"/>
			<path class="st4" d="M144.8,145.6c1.4,3.1,5,4.4,8.1,3l25-11.5c3.1-1.4,4.4-5,3-8.1l-23.7-51.7c-1.4-3.1-5-4.4-8.1-3l-25,11.6
				c-3.1,1.4-4.4,5.1-3,8.1L144.8,145.6z"/>
		</g>
	</g>
</g>
</svg>
