<?xml version="1.0" encoding="utf-8"?>
<!-- Generator: Adobe Illustrator 19.1.0, SVG Export Plug-In . SVG Version: 6.00 Build 0)  -->
<svg version="1.1" id="Capa_1" xmlns="http://www.w3.org/2000/svg" xmlns:xlink="http://www.w3.org/1999/xlink" x="0px" y="0px"
	 viewBox="0 0 907.3 789.8" style="enable-background:new 0 0 907.3 789.8;" xml:space="preserve">
<style type="text/css">
	.st0{fill:#166BB2;}
	.st1{fill:#FFFFFF;}
	.st2{fill:#C1272D;}
</style>
<g>
	<g>
		<path class="st0" d="M2.6,261.3c-8.5-53,3.7-106.7,34.1-151c0,0,0,0,0,0C53.7,85.6,75.2,65.3,100.7,50
			c13.4-8.1,27.7-14.6,42.4-19.4c16.2-5.3,33-8.6,50.1-9.8l0,0C246.8,17,301,34.6,342,69c0,0,0,0,0,0c17.6,14.8,32.5,32.2,44.4,51.9
			l16.6,27.5c0,0,0,0,0,0l54.2,90.1l47.5,78.9c0,0,0,0,0,0l55,91.4l47.5,78.9c0,0,0,0,0,0l55,91.4l47.5,78.9l0,0l0,0l9,15
			c21.9,36.4,10.1,83.8-26.3,105.7c-5,3-10.3,5.4-15.8,7.2c-34.3,11.2-71.3-2.5-89.9-33.4l-2.3-3.8c0,0,0,0,0-0.1c0,0,0,0,0,0
			L537,669.8c0,0,0,0,0,0l-55-91.4l-47.5-78.9l-55-91.4c0,0,0,0,0,0L332,329.2l-54.3-90.1l0,0l0,0l-23.3-38.7
			c-5.6-9.2-13.6-16.5-23.4-21c-4.5-2.1-9.3-3.6-14.3-4.4l0,0c0,0,0,0-0.1,0c-8.6-1.4-17.5-0.7-25.6,1.9c-3.8,1.2-7.5,2.9-10.9,5
			c-9.3,5.6-16.7,13.8-21.2,23.7c-1.8,3.9-3.1,8.3-4,12.8c-2.4,13.1,0,26.5,6.7,37.8c10,16.6,13.3,36.2,9.4,55.2c0,0,0,0,0,0
			c0,0,0,0,0,0c-4.4,21-17.4,39.4-35.7,50.4c-5,3-10.3,5.4-15.8,7.2c-21.3,7-44.5,4.3-63.7-7.3c-10.7-6.4-19.7-15.5-26.2-26.2
			C16,312.7,6.9,287.7,2.6,261.3z"/>
		<path class="st0" d="M904.7,261.3c8.5-53-3.7-106.7-34.1-151c0,0,0,0,0,0c-16.9-24.6-38.4-44.8-63.9-60.2
			c-13.4-8.1-27.7-14.6-42.4-19.4c-16.2-5.3-33-8.6-50.1-9.8l0,0C660.5,17,606.3,34.6,565.3,69c0,0,0,0,0,0
			c-17.6,14.8-32.5,32.2-44.4,51.9l-16.6,27.5c0,0,0,0,0,0l-54.2,90.1l-47.5,78.9c0,0,0,0,0,0l-55,91.4l-47.5,78.9c0,0,0,0,0,0
			l-55,91.4L197.6,658l0,0l0,0l-9,15c-21.9,36.4-10.1,83.8,26.3,105.7c5,3,10.3,5.4,15.8,7.2c34.3,11.2,71.3-2.5,89.9-33.4l2.3-3.8
			c0,0,0,0,0-0.1c0,0,0,0,0,0l47.5-78.9c0,0,0,0,0,0l55-91.4l47.5-78.9l55-91.4c0,0,0,0,0,0l47.5-78.9l54.3-90.1l0,0l0,0l23.3-38.7
			c5.6-9.2,13.6-16.5,23.4-21c4.5-2.1,9.3-3.6,14.3-4.4l0,0c0,0,0,0,0.1,0c8.6-1.4,17.5-0.7,25.6,1.9c3.8,1.2,7.5,2.9,10.9,5
			c9.3,5.6,16.7,13.8,21.2,23.7c1.8,3.9,3.1,8.3,4,12.8c2.4,13.1,0,26.5-6.7,37.8c-10,16.6-13.3,36.2-9.4,55.2c0,0,0,0,0,0
			c0,0,0,0,0,0c4.4,21,17.4,39.4,35.7,50.4c5,3,10.3,5.4,15.8,7.2c21.3,7,44.5,4.3,63.7-7.3c10.7-6.4,19.7-15.5,26.2-26.2
			C891.3,312.7,900.4,287.7,904.7,261.3z"/>
		<path class="st1" d="M894.4,241c8.5-53-3.7-106.7-34.1-151c0,0,0,0,0,0c-16.9-24.6-38.4-44.8-63.9-60.2
			c-13.4-8.1-27.7-14.6-42.4-19.4c-16.2-5.3-33-8.6-50.1-9.8l0,0C650.2-3.3,596,14.3,555,48.8c0,0,0,0,0,0
			c-17.6,14.8-32.5,32.2-44.4,51.9l-16.6,27.5c0,0,0,0,0,0l-54.2,90.1l-47.5,78.9c0,0,0,0,0,0l-55,91.4l-47.5,78.9c0,0,0,0,0,0
			l-55,91.4l-47.5,78.9l0,0l0,0l-9,15c-21.9,36.4-10.1,83.8,26.3,105.7c5,3,10.3,5.4,15.8,7.2c34.3,11.2,71.3-2.5,89.9-33.4l2.3-3.8
			c0,0,0,0,0-0.1c0,0,0,0,0,0l47.5-78.9c0,0,0,0,0,0l55-91.4l47.5-78.9l55-91.4c0,0,0,0,0,0l47.5-78.9l54.2-90.1l0,0l0,0l23.3-38.7
			c5.6-9.2,13.6-16.5,23.4-21c4.5-2.1,9.3-3.6,14.3-4.4l0,0c0,0,0,0,0.1,0c8.6-1.4,17.5-0.7,25.6,1.9c3.8,1.2,7.5,2.9,10.9,5
			c9.3,5.6,16.7,13.8,21.2,23.7c1.8,3.9,3.1,8.3,4,12.8c2.4,13.1,0,26.5-6.7,37.8c-10,16.6-13.3,36.2-9.4,55.2c0,0,0,0,0,0
			c0,0,0,0,0,0c4.4,21,17.4,39.4,35.7,50.4c5,3,10.3,5.4,15.8,7.2c21.3,7,44.5,4.3,63.7-7.3c10.7-6.4,19.8-15.5,26.2-26.2
			C881,292.4,890.2,267.4,894.4,241z"/>
		<g>
			<g>
				<g>
					<g>
						<path class="st1" d="M762.4,174.2l75.8-69c26.3,38.3,37.1,85.6,29.8,131.6l-99.6-43.6C767.1,186.6,765.2,180.2,762.4,174.2z"
							/>
						<path class="st1" d="M775.4,318.6c-12.5-7.5-20.5-19.7-23.2-32.9l75.1,32.8C811.8,327.9,791.9,328.6,775.4,318.6z"/>
						<polygon class="st1" points="337.1,635.7 257.8,572.7 312.8,481.3 392.1,544.3 						"/>
						<polygon class="st1" points="439.6,465.4 360.3,402.4 415.3,311 494.6,374 						"/>
						<path class="st1" d="M654.6,134.8l-82.4-65.5c36.2-30.4,83-45.3,129.7-42.1l-26,101C668.6,129.4,661.4,131.6,654.6,134.8z"/>
						<polygon class="st1" points="596.3,205 542.1,295.1 462.8,232.1 517,142 						"/>
						<path class="st1" d="M287.3,718.4c-14.3,23.8-45.2,31.4-68.9,17.1c-23.7-14.3-31.4-45.2-17.1-68.9l9-15l79.3,63L287.3,718.4z"
							/>
						<polygon class="st2" points="494.6,374 415.3,311 462.8,232.1 542.1,295.1 						"/>
						<polygon class="st2" points="392.1,544.3 312.8,481.3 360.3,402.4 439.6,465.4 						"/>
						<polygon class="st2" points="289.6,714.6 210.3,651.6 257.8,572.7 337.1,635.7 						"/>
						<path class="st2" d="M533.6,114.5c10.6-17.6,23.7-32.7,38.6-45.2l82.4,65.5c-14.1,6.6-26.4,17.2-35,31.5L596.3,205L517,142
							L533.6,114.5z"/>
						<path class="st2" d="M768.4,193.2l99.6,43.6c-3.6,22.3-11.3,44.3-23.6,64.8c-4.4,7.3-10.3,13-17.1,17.1l-75.1-32.8
							c-2.5-11.9-0.7-24.8,6.1-36C768.9,232.1,771.9,212,768.4,193.2z"/>
						<path class="st2" d="M730.7,138.7c-17.1-10.3-36.4-13.4-54.7-10.4l26-101c27.6,1.9,55.2,10.2,80.5,25.4
							c22.8,13.7,41.5,31.8,55.7,52.5l-75.8,69C755.8,159.9,745.1,147.4,730.7,138.7z"/>
					</g>
				</g>
			</g>
		</g>
	</g>
	<g>
		<path class="st1" d="M12.9,241c-8.5-53,3.7-106.7,34.1-151c0,0,0,0,0,0C64,65.3,85.5,45.1,111,29.7c13.4-8.1,27.7-14.6,42.4-19.4
			c16.2-5.3,33-8.6,50.1-9.8l0,0c53.5-3.8,107.8,13.8,148.8,48.3c0,0,0,0,0,0c17.6,14.8,32.5,32.2,44.4,51.9l16.6,27.5c0,0,0,0,0,0
			l54.2,90.1l47.5,78.9c0,0,0,0,0,0l55,91.4l47.5,78.9c0,0,0,0,0,0l55,91.4l47.5,78.9l0,0l0,0l9,15c21.9,36.4,10.1,83.8-26.3,105.7
			c-5,3-10.3,5.4-15.8,7.2c-34.3,11.2-71.3-2.5-89.9-33.4l-2.3-3.8c0,0,0,0,0-0.1c0,0,0,0,0,0l-47.5-78.9c0,0,0,0,0,0l-55-91.4
			l-47.5-78.9l-55-91.4c0,0,0,0,0,0l-47.5-78.9L288,218.8l0,0l0,0l-23.3-38.7c-5.6-9.2-13.6-16.5-23.4-21c-4.5-2.1-9.3-3.6-14.3-4.4
			l0,0c0,0,0,0-0.1,0c-8.6-1.4-17.5-0.7-25.6,1.9c-3.8,1.2-7.5,2.9-10.9,5c-9.3,5.6-16.7,13.8-21.2,23.7c-1.8,3.9-3.1,8.3-4,12.8
			c-2.4,13.1,0,26.5,6.7,37.8c10,16.6,13.3,36.2,9.4,55.2c0,0,0,0,0,0c0,0,0,0,0,0c-4.4,21-17.4,39.4-35.7,50.4
			c-5,3-10.3,5.4-15.8,7.2c-21.3,7-44.5,4.3-63.7-7.3C55.5,335.1,46.5,326,40,315.3C26.3,292.4,17.1,267.4,12.9,241z"/>
		<g>
			<g>
				<g>
					<g>
						<path class="st1" d="M144.9,174.2l-75.8-69C42.8,143.4,32,190.7,39.3,236.8l99.6-43.6C140.1,186.6,142.1,180.2,144.9,174.2z"
							/>
						<path class="st1" d="M131.9,318.6c12.5-7.5,20.5-19.7,23.2-32.9L80,318.6C95.5,327.9,115.4,328.6,131.9,318.6z"/>
						<polygon class="st1" points="570.2,635.7 649.5,572.7 594.5,481.3 515.2,544.3 						"/>
						<polygon class="st1" points="467.7,465.4 547,402.4 492,311 412.7,374 						"/>
						<path class="st1" d="M252.7,134.8L335,69.3c-36.2-30.4-83-45.3-129.7-42.1l26,101C238.7,129.4,245.8,131.6,252.7,134.8z"/>
						<polygon class="st1" points="311,205 365.2,295.1 444.5,232.1 390.2,142 						"/>
						<path class="st1" d="M620,718.4c14.3,23.8,45.2,31.4,68.9,17.1c23.7-14.3,31.4-45.2,17.1-68.9l-9-15l-79.3,63L620,718.4z"/>
						<polygon class="st2" points="412.7,374 492,311 444.5,232.1 365.2,295.1 						"/>
						<polygon class="st2" points="515.2,544.3 594.5,481.3 547,402.4 467.7,465.4 						"/>
						<polygon class="st2" points="617.7,714.6 697,651.6 649.5,572.7 570.2,635.7 						"/>
						<path class="st2" d="M373.7,114.5C363.1,96.9,350,81.8,335,69.3l-82.4,65.5c14.1,6.6,26.4,17.2,35,31.5L311,205l79.3-63
							L373.7,114.5z"/>
						<path class="st2" d="M138.9,193.2l-99.6,43.6C42.9,259,50.7,281,63,301.5c4.4,7.3,10.3,13,17.1,17.1l75.1-32.8
							c2.5-11.9,0.7-24.8-6.1-36C138.4,232.1,135.4,212,138.9,193.2z"/>
						<path class="st2" d="M176.6,138.7c17.1-10.3,36.4-13.4,54.7-10.4l-26-101c-27.6,1.9-55.2,10.2-80.5,25.4
							C102,66.4,83.3,84.5,69.1,105.1l75.8,69C151.4,159.9,162.2,147.4,176.6,138.7z"/>
					</g>
				</g>
			</g>
		</g>
	</g>
</g>
</svg>
