<?xml version="1.0" encoding="utf-8"?>
<!-- Generator: Adobe Illustrator 16.0.0, SVG Export Plug-In . SVG Version: 6.00 Build 0)  -->
<!DOCTYPE svg PUBLIC "-//W3C//DTD SVG 1.1//EN" "http://www.w3.org/Graphics/SVG/1.1/DTD/svg11.dtd">
<svg version="1.1" id="Capa_1" xmlns="http://www.w3.org/2000/svg" xmlns:xlink="http://www.w3.org/1999/xlink" x="0px" y="0px"
	 width="449.707px" height="70.947px" viewBox="0 0 449.707 70.947" enable-background="new 0 0 449.707 70.947"
	 xml:space="preserve">
<g>
	<polygon fill="#009EE2" points="7.599,67.761 7.599,68.497 0,68.497 0,61.153 1.016,61.153 1.016,67.761 	"/>
	<path fill="#009EE2" d="M14.697,68.495v-0.607c-0.313,0.479-0.763,0.607-1.351,0.649c-0.539,0.033-1.073,0.033-1.612,0.033H10.97
		c-1.257,0-2.559-0.12-2.559-1.541c0-1.111,0.401-1.492,1.661-1.59c0.563-0.058,1.14-0.058,1.703-0.058c0.55,0,1.1,0.009,1.65,0.042
		c0.607,0.042,0.905,0.144,1.273,0.572v-0.548c0-0.457-0.027-1.021-0.475-1.277c-0.386-0.235-1.463-0.239-2.089-0.239
		c-0.559,0-1.135,0-1.699,0.062c-0.632,0.076-0.812,0.353-0.812,0.879H8.679c0-1.145,0.545-1.462,1.77-1.563
		c0.452-0.042,0.914-0.063,1.363-0.063c0.836,0,1.723,0,2.535,0.187c1.069,0.253,1.22,0.978,1.22,1.838v3.225H14.697z M10.724,67.87
		l1.029,0.018c0.619,0,1.632,0,2.235-0.143c0.452-0.11,0.709-0.372,0.709-0.789c0-0.311-0.162-0.597-0.492-0.728
		c-0.359-0.142-1.047-0.175-1.646-0.175c-0.297,0-0.574,0.009-0.77,0.009c-0.579,0-1.43,0-1.964,0.177
		c-0.397,0.129-0.479,0.451-0.479,0.79C9.346,67.79,10.014,67.856,10.724,67.87"/>
	<g>
		<path fill="#009EE2" d="M100.973,31.513c0,2.916-0.285,5.574-3.14,7.581c-3.494,2.459-11.118,2.508-15.484,2.508
			c-11.524,0-19.212-0.448-19.212-12.502c0-7.481,2.681-10.892,11.528-11.597c3.202-0.249,6.345-0.353,9.549-0.353
			c9.14,0,16.528,0.152,16.528,9.692H90.618c-0.182-0.905-0.348-1.757-1.229-2.359c-1.274-0.806-3.894-0.856-5.816-0.856h-1.634
			c-2.204,0-5.349,0.051-7.101,1.206c-1.454,1.003-1.51,3.016-1.51,4.471c0,5.774,3.492,5.823,9.193,5.823
			c1.81,0,6.229-0.1,7.448-1.304c0.705-0.656,0.763-1.455,0.763-2.311H100.973z"/>
		<rect x="104.06" y="7.615" fill="#009EE2" width="10.067" height="33.485"/>
		<path fill="#009EE2" d="M130.72,11.577l-13.848,3.364l-1.461-3.364l13.04-5.521L130.72,11.577z M128.1,41.101h-10.065V17.653
			H128.1V41.101z"/>
		<path fill="#009EE2" d="M141.957,17.653v4.82c1.862-4.67,6.581-5.321,11.697-5.321c10.311,0,15.205,1.96,15.205,11.65v12.3
			h-10.134v-12.3c0-4.368-1.98-4.923-6.987-4.923h-1.169c-5.173,0-8.612,0.501-8.612,6.176v0.552v10.495h-10.069V17.653H141.957z"/>
		<path fill="#009EE2" d="M182.764,13.937H172.69V7.612h10.074V13.937z M182.764,41.101H172.69V17.653h10.074V41.101z"/>
		<path fill="#009EE2" d="M223.747,31.513c0,2.916-0.288,5.574-3.146,7.581c-3.49,2.459-11.12,2.508-15.479,2.508
			c-11.524,0-19.208-0.448-19.208-12.502c0-7.481,2.677-10.892,11.529-11.597c3.192-0.249,6.344-0.353,9.543-0.353
			c9.141,0,16.533,0.152,16.533,9.692h-10.133c-0.178-0.905-0.355-1.757-1.225-2.359c-1.277-0.806-3.898-0.856-5.816-0.856h-1.63
			c-2.213,0-5.364,0.051-7.104,1.206c-1.459,1.003-1.517,3.016-1.517,4.471c0,5.774,3.49,5.823,9.195,5.823
			c1.814,0,6.233-0.1,7.448-1.304c0.706-0.656,0.768-1.455,0.768-2.311H223.747z"/>
		<path fill="#009EE2" d="M227.235,24.283c0.12-5.927,6.289-6.834,11.938-6.932c3.49-0.148,7.05-0.199,10.528-0.199
			c6.875,0,13.102,1.005,13.102,8.138v15.811h-10.132v-3.814c-1.741,4.267-7.675,4.318-12.105,4.318h-1.862
			c-7.156,0-12.626-0.453-12.626-7.933c0-5.073,3.375-7.284,9.021-7.479c2.031-0.152,4.133-0.152,6.164-0.152h2.974
			c3.202,0,6.402,0.102,8.436,2.51v-2.562c0-2.913-1.452-3.365-4.597-3.563c-1.568-0.053-3.136-0.102-4.657-0.102l-3.313,0.102
			c-1.57,0-2.794,0.302-2.854,1.858H227.235z M241.262,36.085h1.694c2.326,0,4.712-0.054,6.985-0.355
			c1.801-0.25,2.623-0.902,2.729-2.459c0-2.113-2.557-2.359-4.478-2.359c-1.92-0.051-3.843-0.102-5.765-0.102
			c-2.036,0-6.404,0-6.404,2.561C236.025,35.832,238.881,36.085,241.262,36.085"/>
		<rect x="266.653" y="7.615" fill="#1D70B7" width="10.063" height="33.485"/>
		<path fill="#1D70B7" d="M285.749,18.358c3.544-1.157,9.194-1.157,13.088-1.157c3.494,0,7.047,0.051,10.537,0.351
			c7.513,0.758,9.726,3.815,9.726,10.146V28.7c0,8.44-0.119,11.753-11.991,12.706c-3.673,0.195-7.394,0.195-11.062,0.195
			c-10.364,0-15.89-0.8-15.89-11.043v-1.405C280.157,24.833,280.267,20.114,285.749,18.358 M291.798,34.173
			c1.454,0.954,5.127,1.003,7.216,1.003h1.104c2.155,0,5.823-0.049,7.34-1.003c1.34-0.854,1.455-2.561,1.455-4.018v-1.754
			c0-1.309-0.115-2.81-1.397-3.617c-1.982-1.157-5.827-1.157-8.16-1.157c-2.089,0-5.929,0.103-7.557,1.258
			c-1.459,1.056-1.459,3.164-1.459,4.621C290.339,30.86,290.512,33.269,291.798,34.173"/>
		<path fill="#1D70B7" d="M341.97,46.924c-2.506,4.574-5.708,4.825-11.238,4.825c-1.277,0-2.501-0.103-3.778-0.2v-5.925
			c0.754,0.049,1.455,0.049,2.213,0.049c4.076,0,4.825-1.656,6.227-4.57h-4.133l-12.458-23.449h11.172l7.978,17.273l8.79-17.273
			h11.172L341.97,46.924z"/>
		<path fill="#1D70B7" d="M363.612,18.358c3.558-1.157,9.207-1.157,13.102-1.157c3.494,0,7.047,0.051,10.537,0.351
			c7.513,0.758,9.717,3.815,9.717,10.146V28.7c0,8.44-0.115,11.753-11.983,12.706c-3.672,0.195-7.393,0.195-11.064,0.195
			c-10.364,0-15.891-0.8-15.891-11.043v-1.405C358.029,24.833,358.149,20.114,363.612,18.358 M369.67,34.173
			c1.455,0.954,5.127,1.003,7.216,1.003h1.108c2.155,0,5.823-0.049,7.326-1.003c1.349-0.854,1.464-2.561,1.464-4.018v-1.754
			c0-1.309-0.115-2.81-1.397-3.617c-1.973-1.157-5.813-1.157-8.146-1.157c-2.098,0-5.938,0.103-7.57,1.258
			c-1.455,1.056-1.455,3.164-1.455,4.621C368.215,30.86,368.389,33.269,369.67,34.173"/>
		<rect x="399.77" y="7.615" fill="#1D70B7" width="10.067" height="33.485"/>
		<path fill="#1D70B7" d="M414.139,24.283c0.124-5.927,6.293-6.834,11.943-6.932c3.49-0.148,7.042-0.199,10.537-0.199
			c6.865,0,13.087,1.005,13.087,8.138v15.811h-10.129v-3.814c-1.738,4.267-7.673,4.318-12.107,4.318h-1.854
			c-7.167,0-12.635-0.453-12.635-7.933c0-5.073,3.37-7.284,9.024-7.479c2.04-0.152,4.134-0.152,6.174-0.152h2.967
			c3.193,0,6.404,0.102,8.431,2.51v-2.562c0-2.913-1.441-3.365-4.586-3.563c-1.579-0.053-3.148-0.102-4.665-0.102l-3.317,0.102
			c-1.57,0-2.794,0.302-2.86,1.858H414.139z M428.18,36.085h1.686c2.332,0,4.705-0.054,6.98-0.355
			c1.805-0.25,2.621-0.902,2.731-2.459c0-2.113-2.555-2.359-4.479-2.359c-1.911-0.051-3.84-0.102-5.766-0.102
			c-2.035,0-6.399,0-6.399,2.561C422.933,35.832,425.79,36.085,428.18,36.085"/>
		<path fill="#009EE2" d="M20.928,63.321v0.827c0.381-0.873,1.459-0.902,2.379-0.902h0.184c1.144,0,2.472,0,2.962,1.089
			c0.514-1.068,1.689-1.089,2.843-1.089c1.86,0,3.233,0.193,3.233,2.136v3.115h-0.874v-3.115c0-1.335-0.9-1.45-2.244-1.45h-0.306
			c-1.175,0-2.386,0.098-2.386,1.45v3.115h-0.874v-3.115c0-1.408-1.06-1.45-2.377-1.45c-1.39,0-2.541,0.073-2.541,1.614v2.951
			h-0.887v-5.176H20.928z"/>
		<path fill="#009EE2" d="M34.725,66.038c0.029,0.847,0.144,1.552,1.24,1.752c0.539,0.098,1.124,0.098,1.678,0.098h0.475
			c0.585,0,1.284-0.018,1.721-0.182c0.391-0.156,0.541-0.399,0.577-0.764h0.917c-0.004,1.566-1.944,1.628-3.326,1.628
			c-2.443,0-4.151,0-4.151-2.652c0-2.164,0.833-2.685,3.211-2.685c0.213,0,0.41,0.013,0.601,0.013
			c2.306,0.082,3.684,0.096,3.684,2.532l-0.019,0.26H34.725z M40.051,64.321c-0.435-0.363-1.348-0.39-2.018-0.39h-0.696
			c-0.705,0-1.686,0.018-2.178,0.381c-0.341,0.265-0.381,0.694-0.406,1.069h5.688C40.428,65.007,40.402,64.601,40.051,64.321"/>
		<path fill="#009EE2" d="M43.542,63.319v5.176c0,1.148-0.19,1.836-1.693,1.836l-0.246-0.009v-0.637l0.189,0.014
			c0.823,0,0.875-0.446,0.875-0.982v-0.222v-5.176H43.542z M43.542,62.054h-0.873v-0.97h0.873V62.054z"/>
		<path fill="#009EE2" d="M46.925,63.319c0.57-0.053,1.167-0.063,1.739-0.063c2.341,0,3.909,0.063,3.909,2.551
			c0,2.625-1.146,2.763-3.928,2.763c-2.358,0-3.782-0.138-3.782-2.607C44.864,64.544,45.114,63.528,46.925,63.319 M48.329,67.898
			l0.336-0.009c1.658-0.068,2.984,0.111,2.984-1.736c0-0.949-0.036-1.982-1.335-2.148c-0.677-0.069-1.357-0.069-2.026-0.069
			c-1.75,0-2.484,0.155-2.484,1.976C45.803,67.635,46.504,67.898,48.329,67.898"/>
		<path fill="#009EE2" d="M54.787,63.321v0.912c0.339-0.905,1.396-0.987,2.339-0.987c1.961,0,3.007,0.118,3.007,2.108l-0.009,0.247
			h-0.864c0-1.256-0.288-1.67-1.812-1.67h-0.3c-1.51,0-2.361,0.19-2.361,1.67v2.896h-0.874v-5.176H54.787z"/>
		<path fill="#009EE2" d="M69.055,63.321v0.663h-4.062v2.483c0,1.167,0.363,1.42,1.665,1.42c0.974,0,1.754-0.066,1.754-1.087
			l-0.018-0.585h0.812c0,1.742-0.111,2.354-2.452,2.354c-1.52,0-2.631-0.12-2.631-1.738v-0.364v-2.483h-1.423v-0.663h1.423v-1.164
			h0.87v1.164H69.055z"/>
		<path fill="#009EE2" d="M70.927,66.038c0.026,0.847,0.14,1.552,1.241,1.752c0.542,0.098,1.127,0.098,1.677,0.098h0.475
			c0.585,0,1.288-0.018,1.726-0.182c0.381-0.156,0.532-0.399,0.571-0.764h0.923c-0.009,1.566-1.947,1.628-3.335,1.628
			c-2.435,0-4.146,0-4.146-2.652c0-2.164,0.843-2.685,3.211-2.685c0.213,0,0.412,0.013,0.599,0.013
			c2.306,0.082,3.686,0.096,3.686,2.532l-0.014,0.26H70.927z M76.258,64.321c-0.443-0.363-1.354-0.39-2.027-0.39h-0.688
			c-0.714,0-1.681,0.018-2.173,0.381c-0.354,0.265-0.393,0.694-0.417,1.069h5.688C76.632,65.007,76.604,64.601,76.258,64.321"/>
		<path fill="#009EE2" d="M86.125,66.646c-0.035,1.586-1.157,1.863-2.747,1.907c-0.326,0.007-0.652,0.007-0.979,0.007
			c-2.271,0-3.667-0.284-3.667-2.605c0-0.541,0.006-1.293,0.337-1.752c0.594-0.85,1.782-0.969,2.82-0.969l0.523,0.013
			c1.663,0.033,3.626-0.089,3.626,1.881h-0.912c-0.013-0.419-0.126-0.768-0.576-0.979c-0.448-0.213-1.41-0.22-1.987-0.22h-0.15
			c-0.572,0-1.408,0-1.947,0.183c-0.313,0.122-0.563,0.344-0.663,0.641c-0.14,0.384-0.14,0.815-0.14,1.211
			c0,0.852,0.076,1.651,1.244,1.807c0.597,0.087,1.191,0.111,1.799,0.111c0.496,0,1.024-0.011,1.508-0.111
			c0.7-0.144,0.971-0.512,1.002-1.124H86.125z"/>
		<path fill="#009EE2" d="M88.252,63.321v1.066c0.423-1.112,1.621-1.142,2.761-1.142h0.115c0.889,0,1.922,0.011,2.647,0.517
			c0.594,0.415,0.641,1,0.641,1.619v3.115h-0.88v-3.04c0-1.419-1.045-1.525-2.408-1.525c-1.406,0-2.876,0.026-2.876,1.647v2.918
			h-0.874v-5.176H88.252z"/>
		<path fill="#009EE2" d="M97.798,63.319c0.581-0.053,1.166-0.063,1.733-0.063c2.359,0,3.919,0.063,3.919,2.551
			c0,2.625-1.153,2.763-3.932,2.763c-2.359,0-3.783-0.138-3.783-2.607C95.736,64.544,95.984,63.528,97.798,63.319 M99.198,67.898
			l0.334-0.009c1.668-0.068,2.987,0.111,2.987-1.736c0-0.949-0.031-1.982-1.337-2.148c-0.663-0.069-1.349-0.069-2.014-0.069
			c-1.761,0-2.501,0.155-2.501,1.976C96.667,67.635,97.375,67.898,99.198,67.898"/>
		<rect x="104.783" y="61.084" fill="#009EE2" width="0.881" height="7.411"/>
		<path fill="#009EE2" d="M109.045,63.319c0.572-0.053,1.164-0.063,1.736-0.063c2.348,0,3.909,0.063,3.909,2.551
			c0,2.625-1.151,2.763-3.925,2.763c-2.359,0-3.781-0.138-3.781-2.607C106.985,64.544,107.231,63.528,109.045,63.319
			 M110.442,67.898l0.34-0.009c1.66-0.068,2.982,0.111,2.982-1.736c0-0.949-0.033-1.982-1.331-2.148
			c-0.674-0.069-1.353-0.069-2.022-0.069c-1.751,0-2.485,0.155-2.485,1.976C107.925,67.635,108.624,67.898,110.442,67.898"/>
		<path fill="#009EE2" d="M123.469,63.324v5.424c0,2.049-1.714,2.159-3.59,2.159h-0.728c-1.663,0-3.011-0.098-3.146-1.857h0.854
			c0.15,0.744,0.416,0.997,1.268,1.1c0.52,0.064,1.024,0.075,1.535,0.075c0.678,0,1.765-0.011,2.308-0.267
			c0.513-0.228,0.619-0.744,0.619-1.21v-1.101c-0.412,0.816-1.206,0.872-2.136,0.905c-0.494,0.004-0.995,0.031-1.49,0.031
			c-2.168,0-3.102-0.581-3.102-2.565c0-1.661,0.346-2.593,2.408-2.741c0.559-0.011,1.113-0.021,1.676-0.021
			c0.984,0,2.242,0.01,2.644,0.979v-0.911H123.469z M118.048,67.845c0.332,0.043,0.678,0.043,1.024,0.043h0.407
			c0.523,0,1.378,0,1.876-0.098c0.945-0.222,1.233-0.771,1.233-1.584c0-1.529-0.075-2.18-2.009-2.248
			c-0.563-0.007-1.122-0.031-1.686-0.031c-1.717,0-2.094,0.475-2.094,1.991v0.122C116.801,66.854,116.917,67.714,118.048,67.845"/>
		<path fill="#009EE2" d="M126.816,61.431l0.323,0.908l-3.272,0.473l-0.19-0.473L126.816,61.431z M125.844,68.495h-0.88v-5.176h0.88
			V68.495z"/>
		<path fill="#009EE2" d="M133.379,68.495v-0.607c-0.311,0.479-0.768,0.607-1.349,0.649c-0.545,0.033-1.079,0.033-1.614,0.033h-0.77
			c-1.255,0-2.557-0.12-2.557-1.541c0-1.111,0.404-1.492,1.659-1.59c0.559-0.058,1.135-0.058,1.698-0.058
			c0.559,0,1.104,0.009,1.652,0.042c0.614,0.042,0.911,0.144,1.279,0.572v-0.548c0-0.457-0.029-1.021-0.475-1.277
			c-0.395-0.235-1.47-0.239-2.084-0.239c-0.568,0-1.145,0-1.703,0.062c-0.639,0.076-0.816,0.353-0.816,0.879h-0.953
			c0-1.145,0.55-1.462,1.782-1.563c0.453-0.042,0.903-0.063,1.359-0.063c0.834,0,1.719,0,2.537,0.187
			c1.08,0.253,1.227,0.978,1.227,1.838v3.225H133.379z M129.406,67.87l1.02,0.018c0.626,0,1.637,0,2.242-0.143
			c0.445-0.11,0.712-0.372,0.712-0.789c0-0.311-0.164-0.597-0.492-0.728c-0.359-0.142-1.049-0.175-1.652-0.175
			c-0.295,0-0.567,0.009-0.77,0.009c-0.581,0-1.433,0-1.965,0.177c-0.403,0.129-0.477,0.451-0.477,0.79
			C128.024,67.79,128.69,67.856,129.406,67.87"/>
		<path fill="#009EE2" d="M140.608,63.319c0.581-0.053,1.162-0.063,1.738-0.063c2.351,0,3.916,0.063,3.916,2.551
			c0,2.625-1.152,2.763-3.925,2.763c-2.363,0-3.787-0.138-3.787-2.607C138.55,64.544,138.798,63.528,140.608,63.319 M142.005,67.898
			l0.341-0.009c1.668-0.068,2.985,0.111,2.985-1.736c0-0.949-0.026-1.982-1.34-2.148c-0.672-0.069-1.335-0.069-2.018-0.069
			c-1.754,0-2.488,0.155-2.488,1.976C139.486,67.635,140.187,67.898,142.005,67.898"/>
		<path fill="#009EE2" d="M155.031,61.084v7.413h-0.878v-0.791c-0.391,0.824-1.424,0.878-2.291,0.878
			c-0.281,0-0.552-0.014-0.813-0.014c-2.397,0-3.615-0.15-3.615-2.592c0-2.174,0.75-2.722,3.136-2.722h0.688
			c0.628,0,1.614,0.01,2.089,0.176c0.391,0.14,0.625,0.405,0.808,0.728v-3.076H155.031z M150.125,67.856
			c0.382,0.024,0.74,0.031,1.117,0.031c1.943,0,2.9-0.066,2.9-1.961c0-1.006-0.11-1.725-1.428-1.902
			c-0.555-0.066-1.135-0.089-1.705-0.089c-1.918,0-2.644,0.08-2.644,2.063C148.367,67.231,148.622,67.799,150.125,67.856"/>
		<path fill="#009EE2" d="M158.418,63.319c0.572-0.053,1.16-0.063,1.734-0.063c2.354,0,3.916,0.063,3.916,2.551
			c0,2.625-1.145,2.763-3.925,2.763c-2.361,0-3.783-0.138-3.783-2.607C156.361,64.544,156.6,63.528,158.418,63.319 M159.816,67.898
			l0.337-0.009c1.668-0.068,2.989,0.111,2.989-1.736c0-0.949-0.036-1.982-1.335-2.148c-0.674-0.069-1.353-0.069-2.024-0.069
			c-1.754,0-2.488,0.155-2.488,1.976C157.294,67.635,157.998,67.898,159.816,67.898"/>
		<path fill="#009EE2" d="M166.278,63.321v1.066c0.426-1.112,1.623-1.142,2.76-1.142h0.118c0.887,0,1.92,0.011,2.647,0.517
			c0.594,0.415,0.634,1,0.634,1.619v3.115h-0.873v-3.04c0-1.419-1.045-1.525-2.408-1.525c-1.401,0-2.878,0.026-2.878,1.647v2.918
			h-0.87v-5.176H166.278z"/>
		<path fill="#009EE2" d="M179.138,63.321v0.663h-4.062v2.483c0,1.167,0.363,1.42,1.658,1.42c0.98,0,1.756-0.066,1.756-1.087
			l-0.013-0.585h0.805c0,1.742-0.104,2.354-2.443,2.354c-1.523,0-2.637-0.12-2.637-1.738v-0.364v-2.483h-1.433v-0.663h1.433v-1.164
			h0.874v1.164H179.138z"/>
		<path fill="#009EE2" d="M182.19,63.319c0.576-0.053,1.162-0.063,1.736-0.063c2.351,0,3.909,0.063,3.909,2.551
			c0,2.625-1.151,2.763-3.925,2.763c-2.361,0-3.783-0.138-3.783-2.607C180.127,64.544,180.375,63.528,182.19,63.319 M183.583,67.898
			l0.344-0.009c1.66-0.068,2.986,0.111,2.986-1.736c0-0.949-0.044-1.982-1.344-2.148c-0.674-0.069-1.348-0.069-2.021-0.069
			c-1.748,0-2.479,0.155-2.479,1.976C181.068,67.635,181.762,67.898,183.583,67.898"/>
		<rect x="189.174" y="61.084" fill="#009EE2" width="0.874" height="7.411"/>
		<path fill="#009EE2" d="M193.432,63.319c0.576-0.053,1.164-0.063,1.741-0.063c2.348,0,3.913,0.063,3.913,2.551
			c0,2.625-1.155,2.765-3.922,2.765c-2.366,0-3.79-0.14-3.79-2.609C191.375,64.544,191.627,63.528,193.432,63.319 M194.838,67.898
			l0.335-0.009c1.665-0.068,2.986,0.113,2.986-1.736c0-0.949-0.035-1.982-1.335-2.148c-0.679-0.069-1.361-0.069-2.031-0.069
			c-1.752,0-2.479,0.155-2.479,1.976C192.315,67.635,193.011,67.898,194.838,67.898 M196.639,61.431l0.318,0.908l-3.277,0.473
			l-0.177-0.473L196.639,61.431z"/>
		<path fill="#009EE2" d="M207.854,63.324v5.424c0,2.049-1.714,2.159-3.583,2.159h-0.728c-1.66,0-3.011-0.098-3.148-1.857h0.852
			c0.15,0.744,0.421,0.997,1.272,1.1c0.511,0.064,1.024,0.075,1.535,0.075c0.672,0,1.765-0.011,2.302-0.267
			c0.514-0.228,0.627-0.744,0.627-1.21v-1.101c-0.414,0.816-1.213,0.872-2.14,0.905c-0.499,0.004-0.998,0.031-1.499,0.031
			c-2.162,0-3.082-0.581-3.082-2.565c0-1.661,0.332-2.593,2.391-2.741c0.571-0.011,1.117-0.021,1.672-0.021
			c0.993,0,2.255,0.01,2.658,0.979v-0.911H207.854z M202.43,67.845c0.342,0.043,0.688,0.043,1.029,0.043h0.412
			c0.52,0,1.371,0,1.867-0.098c0.951-0.222,1.244-0.771,1.244-1.584c0-1.529-0.082-2.18-2.009-2.248
			c-0.567-0.007-1.129-0.031-1.692-0.031c-1.709,0-2.084,0.475-2.084,1.991v0.122C201.198,66.854,201.304,67.714,202.43,67.845"/>
		<path fill="#009EE2" d="M210.232,62.054h-0.878v-0.97h0.878V62.054z M210.232,68.495h-0.878v-5.176h0.878V68.495z"/>
		<path fill="#009EE2" d="M218.963,66.646c-0.039,1.586-1.168,1.863-2.744,1.907c-0.329,0.007-0.657,0.007-0.98,0.007
			c-2.275,0-3.672-0.284-3.672-2.605c0-0.541,0.013-1.293,0.334-1.752c0.602-0.85,1.794-0.969,2.828-0.969l0.522,0.013
			c1.663,0.033,3.628-0.089,3.628,1.881h-0.916c-0.011-0.419-0.121-0.768-0.574-0.979c-0.447-0.213-1.405-0.22-1.982-0.22h-0.155
			c-0.574,0-1.41,0-1.946,0.183c-0.315,0.122-0.568,0.344-0.67,0.641c-0.133,0.384-0.133,0.815-0.133,1.211
			c0,0.852,0.075,1.651,1.237,1.807c0.599,0.087,1.202,0.111,1.801,0.111c0.501,0,1.03-0.011,1.517-0.111
			c0.696-0.144,0.971-0.512,0.991-1.124H218.963z"/>
		<path fill="#009EE2" d="M226.246,68.495v-0.607c-0.313,0.479-0.758,0.607-1.348,0.649c-0.537,0.033-1.069,0.033-1.612,0.033
			h-0.763c-1.26,0-2.563-0.12-2.563-1.541c0-1.111,0.401-1.492,1.67-1.59c0.555-0.058,1.131-0.058,1.698-0.058
			c0.55,0,1.091,0.009,1.647,0.042c0.61,0.042,0.907,0.144,1.271,0.572v-0.548c0-0.457-0.021-1.021-0.47-1.277
			c-0.386-0.235-1.464-0.239-2.089-0.239c-0.563,0-1.136,0-1.698,0.062c-0.639,0.076-0.81,0.353-0.81,0.879h-0.954
			c0-1.145,0.548-1.462,1.772-1.563c0.456-0.042,0.913-0.063,1.363-0.063c0.841,0,1.726,0,2.542,0.187
			c1.07,0.253,1.222,0.978,1.222,1.838v3.225H226.246z M222.272,67.87l1.029,0.018c0.627,0,1.637,0,2.232-0.143
			c0.457-0.11,0.712-0.372,0.712-0.789c0-0.311-0.152-0.597-0.479-0.728c-0.364-0.142-1.058-0.175-1.649-0.175
			c-0.307,0-0.584,0.009-0.776,0.009c-0.581,0-1.429,0-1.967,0.177c-0.401,0.129-0.475,0.451-0.475,0.79
			C220.9,67.79,221.565,67.856,222.272,67.87"/>
		<path fill="#009EE2" d="M236.894,63.321h1.029l-3.256,5.608c-0.696,1.166-1.155,2.018-2.845,2.018l-0.447-0.009v-0.625
			l0.248,0.007c1.398,0,1.728-0.934,2.271-1.879h-0.335l-3.3-5.12h1.012l2.958,4.579L236.894,63.321z"/>
		<path fill="#009EE2" d="M242.021,63.321v0.827c0.382-0.873,1.459-0.902,2.382-0.902h0.194c1.134,0,2.466,0,2.958,1.089
			c0.515-1.068,1.69-1.089,2.839-1.089c1.86,0,3.237,0.193,3.237,2.136v3.115h-0.878v-3.115c0-1.335-0.896-1.45-2.249-1.45h-0.297
			c-1.18,0-2.391,0.098-2.391,1.45v3.115h-0.875v-3.115c0-1.408-1.063-1.45-2.373-1.45c-1.391,0-2.548,0.073-2.548,1.614v2.951
			h-0.872v-5.176H242.021z"/>
		<path fill="#009EE2" d="M255.833,66.04c0.02,0.848,0.131,1.55,1.239,1.75c0.532,0.1,1.118,0.1,1.672,0.1h0.475
			c0.583,0,1.277-0.02,1.723-0.187c0.382-0.155,0.537-0.396,0.579-0.761h0.916c-0.011,1.566-1.949,1.63-3.337,1.63
			c-2.439,0-4.149,0-4.149-2.654c0-2.166,0.841-2.688,3.213-2.688c0.213,0,0.413,0.016,0.602,0.016
			c2.313,0.082,3.688,0.098,3.688,2.53l-0.016,0.264H255.833z M261.153,64.319c-0.437-0.363-1.351-0.391-2.022-0.391h-0.696
			c-0.705,0-1.681,0.022-2.168,0.382c-0.351,0.269-0.386,0.698-0.413,1.071h5.682C261.526,65.009,261.508,64.599,261.153,64.319
			 M260.116,61.431l0.325,0.908l-3.274,0.473l-0.195-0.473L260.116,61.431z"/>
		<path fill="#009EE2" d="M271.229,61.084v7.413h-0.878v-0.791c-0.399,0.824-1.433,0.878-2.302,0.878
			c-0.279,0-0.546-0.014-0.813-0.014c-2.396,0-3.606-0.15-3.606-2.592c0-2.174,0.746-2.722,3.129-2.722h0.696
			c0.621,0,1.614,0.01,2.085,0.176c0.386,0.14,0.621,0.405,0.812,0.728v-3.076H271.229z M266.329,67.856
			c0.368,0.024,0.731,0.031,1.108,0.031c1.938,0,2.9-0.066,2.9-1.961c0-1.006-0.115-1.725-1.428-1.902
			c-0.559-0.066-1.14-0.089-1.707-0.089c-1.916,0-2.628,0.08-2.628,2.063C264.575,67.231,264.812,67.799,266.329,67.856"/>
		<path fill="#009EE2" d="M273.602,62.054h-0.879v-0.97h0.879V62.054z M273.602,68.495h-0.879v-5.176h0.879V68.495z"/>
		<path fill="#009EE2" d="M282.334,66.646c-0.04,1.586-1.171,1.863-2.75,1.907c-0.333,0.007-0.643,0.007-0.98,0.007
			c-2.279,0-3.672-0.284-3.672-2.605c0-0.541,0.018-1.293,0.337-1.752c0.604-0.85,1.787-0.969,2.825-0.969l0.523,0.013
			c1.672,0.033,3.628-0.089,3.628,1.881h-0.909c-0.014-0.419-0.124-0.768-0.577-0.979c-0.452-0.213-1.41-0.22-1.986-0.22h-0.155
			c-0.572,0-1.406,0-1.947,0.183c-0.311,0.122-0.563,0.344-0.66,0.641c-0.138,0.384-0.138,0.815-0.138,1.211
			c0,0.852,0.075,1.651,1.241,1.807c0.595,0.087,1.193,0.111,1.788,0.111c0.505,0,1.037-0.011,1.517-0.111
			c0.705-0.144,0.976-0.512,1.002-1.124H282.334z"/>
		<path fill="#009EE2" d="M289.621,68.495v-0.607c-0.311,0.479-0.763,0.607-1.349,0.649c-0.541,0.033-1.077,0.033-1.614,0.033
			h-0.767c-1.26,0-2.555-0.12-2.555-1.541c0-1.111,0.399-1.492,1.658-1.59c0.563-0.058,1.131-0.058,1.699-0.058
			c0.545,0,1.095,0.009,1.649,0.042c0.616,0.042,0.918,0.144,1.277,0.572v-0.548c0-0.457-0.022-1.021-0.475-1.277
			c-0.39-0.235-1.464-0.239-2.093-0.239c-0.56,0-1.136,0-1.694,0.062c-0.644,0.076-0.816,0.353-0.816,0.879h-0.949
			c0-1.145,0.55-1.462,1.774-1.563c0.457-0.042,0.918-0.063,1.366-0.063c0.833,0,1.725,0,2.532,0.187
			c1.073,0.253,1.229,0.978,1.229,1.838v3.225H289.621z M285.647,67.87l1.024,0.018c0.621,0,1.632,0,2.235-0.143
			c0.452-0.11,0.714-0.372,0.714-0.789c0-0.311-0.164-0.597-0.487-0.728c-0.364-0.142-1.052-0.175-1.646-0.175
			c-0.302,0-0.577,0.009-0.785,0.009c-0.577,0-1.419,0-1.956,0.177c-0.403,0.129-0.47,0.451-0.47,0.79
			C284.277,67.79,284.928,67.856,285.647,67.87"/>
		<path fill="#009EE2" d="M301.005,68.495v-0.607c-0.315,0.479-0.763,0.607-1.349,0.649c-0.541,0.033-1.073,0.033-1.614,0.033
			h-0.768c-1.255,0-2.554-0.12-2.554-1.541c0-1.111,0.398-1.492,1.658-1.59c0.559-0.058,1.14-0.058,1.703-0.058
			c0.545,0,1.1,0.009,1.646,0.042c0.611,0.042,0.913,0.144,1.277,0.572v-0.548c0-0.457-0.027-1.021-0.475-1.277
			c-0.391-0.235-1.464-0.239-2.089-0.239c-0.559,0-1.14,0-1.703,0.062c-0.635,0.076-0.816,0.353-0.816,0.879h-0.944
			c0-1.145,0.555-1.462,1.778-1.563c0.452-0.042,0.904-0.063,1.361-0.063c0.843,0,1.721,0,2.532,0.187
			c1.078,0.253,1.225,0.978,1.225,1.838v3.225H301.005z M297.022,67.87l1.029,0.018c0.63,0,1.637,0,2.244-0.143
			c0.443-0.11,0.71-0.372,0.71-0.789c0-0.311-0.16-0.597-0.488-0.728c-0.363-0.142-1.047-0.175-1.649-0.175
			c-0.302,0-0.577,0.009-0.768,0.009c-0.581,0-1.437,0-1.978,0.177c-0.391,0.129-0.471,0.451-0.471,0.79
			C295.652,67.79,296.317,67.856,297.022,67.87"/>
		<rect x="303.369" y="61.084" fill="#009EE2" width="0.883" height="7.411"/>
		<path fill="#009EE2" d="M314.797,64.763c-0.058-0.614-0.239-0.716-0.958-0.791c-0.572-0.043-1.162-0.043-1.725-0.043
			c-0.555,0-1.104,0.007-1.637,0.076c-0.532,0.064-0.984,0.197-0.984,0.703c0,0.674,0.452,0.771,1.113,0.771l1.517,0.035h1.641
			c1.272,0,2.133,0.23,2.133,1.497c0,1.527-1.188,1.45-2.523,1.541c-0.55,0.007-1.082,0.018-1.636,0.018
			c-0.639,0-1.42-0.011-1.974-0.108c-1.003-0.187-1.273-0.647-1.273-1.483l0.01-0.231h0.887l0.009,0.12
			c0,0.736,0.341,0.914,1.122,0.976c0.514,0.027,1.028,0.045,1.539,0.045c0.683,0,1.356,0,2.021-0.066
			c0.546-0.063,0.883-0.195,0.883-0.69c0-0.78-0.443-0.948-1.286-0.948l-1.588-0.007h-1.512c-1.162,0-2.014-0.193-2.014-1.38
			c0-1.077,0.789-1.419,1.885-1.49c0.555-0.028,1.113-0.06,1.668-0.06c0.625,0,1.259,0,1.88,0.051
			c1.202,0.08,1.632,0.422,1.681,1.466H314.797z"/>
		<path fill="#009EE2" d="M317.835,66.038c0.018,0.847,0.138,1.552,1.233,1.752c0.545,0.098,1.126,0.098,1.676,0.098h0.475
			c0.59,0,1.291-0.018,1.729-0.182c0.386-0.156,0.528-0.399,0.572-0.764h0.927c-0.014,1.566-1.947,1.628-3.335,1.628
			c-2.435,0-4.155,0-4.155-2.652c0-2.164,0.847-2.685,3.215-2.685c0.204,0,0.413,0.013,0.599,0.013
			c2.319,0.082,3.682,0.096,3.682,2.532l-0.005,0.26H317.835z M323.157,64.321c-0.438-0.363-1.348-0.39-2.026-0.39h-0.688
			c-0.705,0-1.685,0.018-2.169,0.381c-0.346,0.265-0.39,0.694-0.421,1.069h5.694C323.534,65.007,323.507,64.601,323.157,64.321"/>
		<path fill="#009EE2" d="M326.669,63.321v0.912c0.342-0.905,1.401-0.987,2.337-0.987c1.961,0,3.017,0.118,3.017,2.108l-0.019,0.247
			h-0.859c0-1.256-0.284-1.67-1.81-1.67h-0.307c-1.508,0-2.359,0.19-2.359,1.67v2.896h-0.873v-5.176H326.669z"/>
		<polygon fill="#009EE2" points="338.918,63.321 339.908,63.321 336.489,68.497 335.344,68.497 331.996,63.321 332.981,63.321 
			335.917,67.881 		"/>
		<path fill="#009EE2" d="M340.157,62.054h0.869v-0.97h-0.869V62.054z M340.157,68.495h0.869v-5.176h-0.869V68.495z"/>
		<path fill="#009EE2" d="M349.766,66.646c-0.044,1.586-1.157,1.863-2.744,1.907c-0.338,0.007-0.652,0.007-0.985,0.007
			c-2.274,0-3.663-0.284-3.663-2.605c0-0.541,0.005-1.293,0.337-1.752c0.59-0.85,1.783-0.969,2.812-0.969l0.528,0.013
			c1.667,0.033,3.632-0.089,3.632,1.881h-0.918c-0.004-0.419-0.129-0.768-0.581-0.979c-0.447-0.213-1.401-0.22-1.982-0.22h-0.15
			c-0.572,0-1.41,0-1.947,0.183c-0.311,0.122-0.567,0.344-0.656,0.641c-0.146,0.384-0.146,0.815-0.146,1.211
			c0,0.852,0.08,1.651,1.237,1.807c0.604,0.087,1.207,0.111,1.801,0.111c0.497,0,1.029-0.011,1.513-0.111
			c0.7-0.144,0.976-0.512,1.002-1.124H349.766z"/>
		<path fill="#009EE2" d="M351.886,62.054h-0.869v-0.97h0.869V62.054z M351.886,68.495h-0.869v-5.176h0.869V68.495z"/>
		<path fill="#009EE2" d="M355.275,63.319c0.581-0.053,1.162-0.063,1.738-0.063c2.346,0,3.907,0.063,3.907,2.551
			c0,2.625-1.136,2.763-3.916,2.763c-2.363,0-3.792-0.138-3.792-2.607C353.212,64.544,353.469,63.528,355.275,63.319
			 M356.671,67.898l0.342-0.009c1.659-0.068,2.98,0.111,2.98-1.736c0-0.949-0.031-1.982-1.331-2.148
			c-0.678-0.069-1.348-0.069-2.031-0.069c-1.747,0-2.479,0.155-2.479,1.976C354.153,67.635,354.849,67.898,356.671,67.898"/>
		<path fill="#009EE2" d="M372.664,61.084v7.413h-0.864v-0.791c-0.395,0.824-1.428,0.878-2.307,0.878
			c-0.271,0-0.545-0.014-0.803-0.014c-2.403,0-3.614-0.15-3.614-2.592c0-2.174,0.754-2.722,3.136-2.722h0.683
			c0.626,0,1.61,0.01,2.094,0.176c0.381,0.14,0.621,0.405,0.812,0.728v-3.076H372.664z M367.768,67.856
			c0.386,0.024,0.745,0.031,1.108,0.031c1.942,0,2.905-0.066,2.905-1.961c0-1.006-0.111-1.725-1.42-1.902
			c-0.563-0.066-1.14-0.089-1.711-0.089c-1.916,0-2.635,0.08-2.635,2.063C366.016,67.231,366.26,67.799,367.768,67.856"/>
		<path fill="#009EE2" d="M374.859,66.038c0.031,0.847,0.146,1.552,1.247,1.752c0.531,0.098,1.121,0.098,1.681,0.098h0.466
			c0.594,0,1.29-0.018,1.725-0.182c0.391-0.156,0.546-0.399,0.586-0.764h0.918c-0.014,1.566-1.952,1.628-3.34,1.628
			c-2.431,0-4.146,0-4.146-2.652c0-2.164,0.838-2.685,3.211-2.685c0.213,0,0.412,0.013,0.603,0.013
			c2.311,0.082,3.682,0.096,3.682,2.532l-0.009,0.26H374.859z M380.199,64.321c-0.448-0.363-1.353-0.39-2.035-0.39h-0.684
			c-0.709,0-1.685,0.018-2.177,0.381c-0.342,0.265-0.382,0.694-0.413,1.069h5.686C380.572,65.007,380.544,64.601,380.199,64.321"/>
		<path fill="#009EE2" d="M390.998,63.321v0.663h-4.049v2.483c0,1.167,0.351,1.42,1.659,1.42c0.967,0,1.751-0.066,1.751-1.087
			l-0.018-0.585h0.808c0,1.742-0.106,2.354-2.444,2.354c-1.521,0-2.639-0.12-2.639-1.738v-0.364v-2.483h-1.428v-0.663h1.428v-1.164
			h0.883v1.164H390.998z"/>
		<path fill="#009EE2" d="M398.125,68.495v-0.998c-0.438,0.989-1.641,1.073-2.696,1.073c-1.725,0-3.481-0.108-3.481-2.044v-0.165
			v-3.04h0.874v2.832c0,1.628,0.824,1.734,2.466,1.734c1.539,0,2.838-0.071,2.838-1.734v-2.832h0.874v5.174H398.125z"/>
		<path fill="#009EE2" d="M404.338,61.084v3.087c0.395-0.871,1.494-0.914,2.395-0.914h0.665c2.466,0,3.677,0.207,3.677,2.661
			c0,2.468-1.153,2.654-3.668,2.654c-0.234,0-0.492,0.012-0.763,0.012c-0.976,0-1.782-0.078-2.306-0.892v0.805h-0.883v-7.413
			H404.338z M405.163,67.692c0.528,0.195,1.699,0.195,2.284,0.195c0.519,0,1.517,0,1.974-0.187c0.679-0.26,0.719-0.954,0.719-1.539
			v-0.22c0-0.894-0.018-1.805-1.256-1.949c-0.487-0.055-0.984-0.055-1.477-0.055c-0.59,0-1.171,0.013-1.747,0.072
			c-1.304,0.149-1.313,1.005-1.313,1.974C404.347,66.632,404.387,67.384,405.163,67.692"/>
		<path fill="#009EE2" d="M413.097,66.038c0.021,0.847,0.142,1.552,1.232,1.752c0.537,0.098,1.127,0.098,1.677,0.098h0.479
			c0.586,0,1.282-0.018,1.726-0.182c0.381-0.156,0.532-0.399,0.572-0.764h0.927c-0.018,1.566-1.951,1.628-3.335,1.628
			c-2.435,0-4.151,0-4.151-2.652c0-2.164,0.829-2.685,3.211-2.685c0.213,0,0.408,0.013,0.604,0.013
			c2.306,0.082,3.681,0.096,3.681,2.532l-0.009,0.26H413.097z M418.415,64.321c-0.431-0.363-1.344-0.39-2.018-0.39h-0.692
			c-0.71,0-1.681,0.018-2.164,0.381c-0.359,0.265-0.391,0.694-0.422,1.069h5.682C418.795,65.007,418.774,64.601,418.415,64.321"/>
		<rect x="421.062" y="61.084" fill="#009EE2" width="0.869" height="7.411"/>
		<rect x="423.426" y="61.084" fill="#009EE2" width="0.873" height="7.411"/>
		<path fill="#009EE2" d="M426.508,66.038c0.026,0.847,0.128,1.552,1.237,1.752c0.536,0.098,1.122,0.098,1.676,0.098h0.471
			c0.585,0,1.281-0.018,1.721-0.182c0.386-0.156,0.541-0.399,0.576-0.764h0.923c-0.009,1.566-1.942,1.628-3.331,1.628
			c-2.435,0-4.142,0-4.142-2.652c0-2.164,0.824-2.685,3.211-2.685l0.59,0.013c2.319,0.082,3.689,0.096,3.689,2.532l-0.018,0.26
			H426.508z M431.83,64.321c-0.443-0.363-1.353-0.39-2.022-0.39h-0.688c-0.709,0-1.698,0.018-2.177,0.381
			c-0.351,0.265-0.386,0.694-0.408,1.069h5.681C432.203,65.007,432.18,64.601,431.83,64.321"/>
		<polygon fill="#009EE2" points="440.513,64.06 435.152,67.839 440.513,67.839 440.513,68.495 433.887,68.495 433.887,67.712 
			439.276,63.954 434.145,63.954 434.145,63.288 440.513,63.288 		"/>
		<path fill="#009EE2" d="M447.454,68.495v-0.607c-0.306,0.479-0.754,0.607-1.344,0.649c-0.527,0.033-1.077,0.033-1.609,0.033
			h-0.771c-1.251,0-2.56-0.12-2.56-1.541c0-1.111,0.408-1.492,1.663-1.59c0.568-0.058,1.145-0.058,1.699-0.058
			c0.554,0,1.104,0.009,1.649,0.042c0.621,0.042,0.913,0.144,1.272,0.572v-0.548c0-0.457-0.018-1.021-0.465-1.277
			c-0.391-0.235-1.459-0.239-2.089-0.239c-0.568,0-1.136,0-1.694,0.062c-0.647,0.076-0.82,0.353-0.82,0.879h-0.945
			c0-1.145,0.551-1.462,1.779-1.563c0.443-0.042,0.899-0.063,1.356-0.063c0.834,0,1.726,0,2.537,0.187
			c1.068,0.253,1.229,0.978,1.229,1.838v3.225H447.454z M443.485,67.87l1.024,0.018c0.625,0,1.641,0,2.248-0.143
			c0.444-0.11,0.696-0.372,0.696-0.789c0-0.311-0.15-0.597-0.475-0.728c-0.367-0.142-1.055-0.175-1.653-0.175
			c-0.298,0-0.577,0.009-0.781,0.009c-0.567,0-1.423,0-1.955,0.177c-0.404,0.129-0.479,0.451-0.479,0.79
			C442.11,67.79,442.775,67.856,443.485,67.87"/>
		<path fill="#009EE2" d="M47.764,19.829c0-4.562-4.198-8.258-9.385-8.258c-5.175,0-9.371,3.696-9.371,8.258
			c0,4.561,4.196,8.264,9.371,8.264C43.566,28.093,47.764,24.39,47.764,19.829"/>
		<path fill="#1D70B7" d="M41.59,39.056c-3.06,0-5.856-0.194-8.364-0.571c-2.51-0.377-4.792-0.974-6.838-1.778
			c-2.049-0.806-3.938-1.865-5.655-3.181c-1.539-1.201-2.847-2.536-3.932-4.026c-1.093-1.488-1.907-3.076-2.448-4.766
			c-0.539-1.683-0.814-3.475-0.814-5.373c0-3.077,0.683-5.834,2.049-8.267c1.362-2.438,3.317-4.523,5.85-6.251
			c2.548-1.736,5.521-3.049,8.937-3.955c1.41-0.377,2.869-0.67,4.359-0.888H8.413C3.88,0,0.2,3.359,0.2,7.504v35.122
			c0,4.145,3.681,7.504,8.213,7.504H49.95c4.533,0,8.209-3.359,8.209-7.504v-7.197c-1.676,0.931-3.654,1.712-5.938,2.353
			C49.188,38.63,45.637,39.056,41.59,39.056"/>
	</g>
</g>
</svg>
