<?xml version="1.0" encoding="utf-8"?>
<!-- Generator: Adobe Illustrator 16.0.0, SVG Export Plug-In . SVG Version: 6.00 Build 0)  -->
<!DOCTYPE svg PUBLIC "-//W3C//DTD SVG 1.1//EN" "http://www.w3.org/Graphics/SVG/1.1/DTD/svg11.dtd">
<svg version="1.1" id="Layer_1" xmlns="http://www.w3.org/2000/svg" xmlns:xlink="http://www.w3.org/1999/xlink" x="0px" y="0px"
	 width="442.33px" height="112.469px" viewBox="0 0 442.33 112.469" enable-background="new 0 0 442.33 112.469"
	 xml:space="preserve">
<path fill-rule="evenodd" clip-rule="evenodd" fill="#FFFFFF" d="M384.578,74.038c0.097-21.367,6.774-36.676,18.398-48.196
	c6.914-6.829,15.432,2.177,7.476,7.434C404.01,37.5,386.652,47.219,384.578,74.038 M382.618,74.131
	c-1.681-18.431-3.493-33.88,3.535-46.895c4.185-7.701,11.658-1.825,7.484,3.218C388.264,36.947,381.008,51.105,382.618,74.131z
	 M387.424,74.096c3.071-16.629,10.388-27.614,21.067-34.974c6.337-4.348,11.65,3.271,4.771,6.827
	C407.854,48.755,392.788,53.479,387.424,74.096z M402.119,19.172c0,2.229-1.804,4.021-4.035,4.002
	c-2.216-0.002-4.01-1.801-4.019-4.03c0-2.207,1.803-4.011,4.011-3.991C400.315,15.153,402.119,16.958,402.119,19.172z
	 M422.628,21.25c0,2.233-1.786,4.017-3.991,3.998c-2.223-0.002-4.026-1.803-4.026-4.013c0-2.214,1.804-4.002,4-4.002
	C420.833,17.24,422.628,19.039,422.628,21.25z M426.802,37.613c0,2.233-1.795,4.021-4.009,4.004c-2.205,0-4.008-1.803-4.008-4.026
	c-0.009-2.209,1.794-3.998,4-3.998C424.999,33.609,426.802,35.408,426.802,37.613z M373.401,17.623
	c10.853-17.494,33.812-22.858,51.283-12.026c17.495,10.854,22.889,33.82,12.063,51.288c-8.396,13.528-24.027,19.802-38.787,16.939
	c12.834,1.588,26.007-4.187,33.28-15.886c9.897-16.017,4.979-37.091-11.054-47.021c-16.002-9.926-37.096-4.995-47.004,11.02
	c-3.817,6.145-5.453,13.042-5.097,19.785C367.117,33.62,368.789,25.124,373.401,17.623z M158.698,68.925l2.461-1.48
	c1.758,3.206,3.783,4.82,6.057,4.82c0.991,0,1.9-0.219,2.775-0.677c0.857-0.456,1.496-1.066,1.96-1.838
	c0.43-0.763,0.692-1.573,0.692-2.435c0-0.979-0.359-1.935-1.006-2.874c-0.946-1.301-2.573-2.858-5.017-4.679
	c-2.424-1.849-3.94-3.16-4.533-4c-1.051-1.365-1.542-2.854-1.542-4.46c0-1.251,0.299-2.418,0.912-3.458
	c0.593-1.047,1.444-1.881,2.553-2.476c1.096-0.604,2.304-0.894,3.606-0.894c1.367,0,2.654,0.335,3.854,1.019
	c1.188,0.682,2.467,1.937,3.781,3.731l-2.373,1.812c-1.085-1.44-2.031-2.388-2.792-2.863c-0.789-0.458-1.61-0.692-2.547-0.692
	c-1.148,0-2.137,0.363-2.852,1.077c-0.772,0.715-1.131,1.582-1.131,2.628l0.376,1.839l1.453,1.95
	c0.396,0.366,1.638,1.339,3.774,2.928c2.536,1.859,4.26,3.51,5.18,4.961c0.972,1.45,1.419,2.925,1.419,4.387
	c0,2.105-0.806,3.937-2.39,5.511c-1.61,1.558-3.57,2.338-5.863,2.338c-1.789,0-3.398-0.469-4.826-1.405
	C161.23,72.731,159.917,71.147,158.698,68.925z M181.118,52.794h2.773v10.059c0,2.475,0.122,4.161,0.402,5.084
	c0.402,1.315,1.173,2.368,2.285,3.131c1.12,0.764,2.461,1.146,4.002,1.146c1.573,0,2.87-0.382,3.946-1.115
	c1.096-0.754,1.84-1.741,2.257-2.951c0.273-0.831,0.413-2.59,0.413-5.294V52.794h2.82v10.577c0,2.981-0.325,5.229-1.025,6.736
	c-0.698,1.508-1.741,2.68-3.125,3.535c-1.408,0.852-3.177,1.276-5.271,1.276c-2.1,0-3.86-0.425-5.277-1.276
	c-1.41-0.855-2.476-2.042-3.159-3.565c-0.709-1.537-1.041-3.843-1.041-6.897V52.794z M206.254,52.794h2.757v3.955
	c1.103-1.5,2.355-2.644,3.79-3.392c1.41-0.752,3.002-1.12,4.761-1.12c3.082,0,5.683,1.105,7.871,3.312
	c2.188,2.214,3.282,4.858,3.282,7.965c0,3.182-1.077,5.866-3.248,8.086c-2.153,2.223-4.752,3.318-7.826,3.318
	c-1.715,0-3.282-0.353-4.735-1.065c-1.436-0.716-2.721-1.788-3.895-3.203v11.618h-2.757V52.794z M217.345,54.911
	c-2.39,0-4.438,0.836-6.067,2.515c-1.636,1.677-2.459,3.762-2.459,6.248c0,1.653,0.387,3.11,1.105,4.419
	c0.727,1.31,1.784,2.343,3.151,3.095c1.356,0.776,2.801,1.161,4.305,1.161c1.488,0,2.891-0.399,4.193-1.161
	c1.312-0.775,2.371-1.848,3.134-3.231c0.787-1.378,1.191-2.838,1.191-4.345c0-1.552-0.404-2.991-1.174-4.356
	c-0.78-1.387-1.82-2.433-3.117-3.198C220.305,55.294,218.886,54.911,217.345,54.911z M252.076,67.182l2.364,1.228
	c-0.78,1.515-1.673,2.738-2.67,3.662c-0.997,0.931-2.136,1.638-3.387,2.111c-1.277,0.496-2.689,0.736-4.28,0.736
	c-3.52,0-6.269-1.158-8.264-3.462c-1.978-2.296-2.977-4.92-2.977-7.811c0-2.741,0.843-5.185,2.529-7.332
	c2.128-2.714,4.989-4.077,8.569-4.077c3.667,0,6.618,1.389,8.806,4.179c1.584,1.964,2.365,4.414,2.389,7.37h-19.474
	c0.061,2.491,0.857,4.545,2.434,6.164c1.541,1.604,3.447,2.398,5.724,2.398c1.111,0,2.179-0.185,3.213-0.574
	c1.058-0.391,1.933-0.892,2.667-1.528C250.455,69.617,251.235,68.585,252.076,67.182z M252.076,61.387
	c-0.351-1.491-0.901-2.665-1.602-3.546c-0.735-0.89-1.655-1.608-2.828-2.141c-1.172-0.54-2.389-0.815-3.667-0.815
	c-2.126,0-3.963,0.686-5.47,2.044c-1.131,0.985-1.97,2.474-2.55,4.458H252.076z M259.28,52.794h2.835v3.138
	c0.841-1.242,1.734-2.16,2.67-2.775c0.929-0.604,1.908-0.92,2.914-0.92c0.755,0,1.595,0.243,2.461,0.746l-1.438,2.321l-1.468-0.359
	c-0.92,0-1.813,0.359-2.672,1.122c-0.864,0.766-1.505,1.954-1.969,3.538c-0.331,1.253-0.488,3.735-0.488,7.476v7.295h-2.846V52.794z
	 M283.377,55.141l-1.793,1.844c-1.489-1.429-2.944-2.147-4.361-2.147c-0.894,0-1.681,0.284-2.327,0.884l-0.972,2.085l0.804,1.998
	c0.546,0.656,1.666,1.413,3.354,2.285c2.074,1.064,3.467,2.096,4.219,3.096c0.735,0.999,1.113,2.13,1.113,3.376
	c0,1.782-0.632,3.27-1.894,4.514c-1.233,1.229-2.781,1.844-4.655,1.844c-1.244,0-2.443-0.274-3.57-0.804
	c-1.139-0.544-2.065-1.3-2.812-2.248l1.743-1.988c1.436,1.6,2.932,2.386,4.517,2.386c1.121,0,2.067-0.346,2.828-1.077
	c0.778-0.704,1.18-1.529,1.18-2.503l-0.77-2.106c-0.518-0.619-1.698-1.385-3.501-2.307c-1.943-1.004-3.282-2.003-3.982-2.977
	c-0.701-0.974-1.051-2.092-1.051-3.355c0-1.625,0.561-2.994,1.672-4.08c1.128-1.085,2.538-1.623,4.247-1.623
	C279.351,52.237,281.371,53.215,283.377,55.141z M309.82,52.794v21.582h-2.722V70.65c-1.165,1.421-2.461,2.496-3.914,3.203
	c-1.452,0.713-3.028,1.065-4.752,1.065c-3.057,0-5.674-1.096-7.843-3.318c-2.153-2.22-3.239-4.904-3.239-8.086
	c0-3.107,1.086-5.751,3.28-7.965c2.182-2.207,4.8-3.312,7.862-3.312c1.775,0,3.396,0.368,4.814,1.12
	c1.442,0.748,2.712,1.892,3.791,3.392v-3.955H309.82z M298.721,54.911c-1.541,0-2.96,0.383-4.262,1.146
	c-1.305,0.765-2.348,1.812-3.119,3.198c-0.786,1.365-1.163,2.805-1.163,4.356c0,1.507,0.402,2.967,1.183,4.345
	c0.77,1.384,1.812,2.456,3.134,3.231c1.305,0.762,2.721,1.161,4.219,1.161c1.514,0,2.94-0.385,4.316-1.161
	c1.356-0.752,2.396-1.785,3.123-3.095c0.734-1.309,1.111-2.766,1.111-4.419c0-2.486-0.821-4.571-2.468-6.248
	C303.159,55.748,301.119,54.911,298.721,54.911z M315.649,44.442h2.794v29.934h-2.777L315.649,44.442z M323.825,52.794h2.801
	l0.008,10.059c0,2.475,0.121,4.161,0.385,5.084c0.411,1.315,1.181,2.368,2.294,3.131c1.122,0.764,2.45,1.146,4.011,1.146
	c1.547,0,2.867-0.382,3.954-1.115c1.077-0.754,1.829-1.741,2.24-2.951c0.272-0.831,0.404-2.59,0.404-5.294V52.794h2.826v10.577
	c0,2.981-0.334,5.229-1.023,6.736c-0.709,1.508-1.743,2.68-3.145,3.535c-1.399,0.852-3.159,1.276-5.257,1.276
	c-2.122,0-3.86-0.425-5.288-1.276c-1.393-0.855-2.452-2.042-3.15-3.565c-0.692-1.537-1.06-3.843-1.06-6.897V52.794z M370.441,44.442
	l0.009,29.934h-2.74V70.65c-1.146,1.421-2.467,2.496-3.912,3.203c-1.427,0.713-3.02,1.065-4.75,1.065
	c-3.032,0-5.646-1.096-7.818-3.318c-2.162-2.22-3.257-4.904-3.257-8.086c0-3.107,1.095-5.751,3.273-7.965
	c2.19-2.207,4.814-3.312,7.889-3.312c1.767,0,3.378,0.368,4.804,1.12c1.436,0.773,2.697,1.897,3.771,3.398V44.442H370.441z
	 M359.362,54.911c-1.55,0-2.985,0.383-4.273,1.146c-1.313,0.765-2.345,1.812-3.125,3.198c-0.761,1.365-1.154,2.805-1.154,4.356
	c0,1.507,0.402,2.967,1.174,4.345c0.778,1.384,1.81,2.456,3.143,3.231c1.296,0.762,2.704,1.161,4.217,1.161
	c1.505,0,2.942-0.385,4.315-1.161c1.349-0.752,2.399-1.785,3.135-3.095c0.717-1.309,1.085-2.766,1.085-4.419
	c0-2.486-0.807-4.571-2.468-6.248C363.772,55.748,361.759,54.911,359.362,54.911z M0,52.113h4.49l5.777,16.331l5.9-16.331h4.481
	l-8.305,23.006H8.15L0,52.113z M28.21,52.113v23.006h-4.35V52.113H28.21z M54.382,55.868l-3.089,3.058
	c-1.954-2.074-4.238-3.107-6.817-3.107c-2.278,0-4.187,0.758-5.7,2.252c-1.533,1.503-2.302,3.339-2.302,5.469
	c0,2.229,0.806,4.099,2.381,5.647c1.601,1.548,3.536,2.311,5.872,2.311c1.522,0,2.803-0.324,3.843-0.947
	c1.025-0.645,1.872-1.634,2.495-2.973h-6.644v-4.116h11.555c0.032,2.973-0.492,4.87-1.524,6.688c-1.042,1.788-2.39,3.172-4.062,4.12
	c-1.646,0.943-3.606,1.416-5.838,1.416c-2.375,0-4.518-0.514-6.39-1.554c-1.866-1.036-3.353-2.516-4.456-4.422
	c-1.096-1.942-1.629-4.013-1.629-6.22c0-3.05,1.025-5.688,3.029-7.94c2.39-2.688,5.489-4.011,9.332-4.011
	c1.995,0,3.869,0.351,5.61,1.103C51.521,53.267,52.964,54.353,54.382,55.868z M64.098,52.113v23.006h-4.357V52.113H64.098z
	 M69,52.113h4.376v18.831h6.39v4.176H69V52.113z M90.119,52.113h4.447l8.86,23.006h-4.578l-1.794-4.754h-9.393l-1.89,4.754h-4.535
	L90.119,52.113z M92.361,58.199l-3.072,7.901h6.134L92.361,58.199z M106.811,52.113h5.173c3.362,0,5.846,0.404,7.484,1.229
	c1.611,0.84,2.959,2.199,3.991,4.053c1.051,1.866,1.586,4.039,1.586,6.538c0,1.763-0.29,3.4-0.885,4.891
	c-0.57,1.493-1.393,2.714-2.442,3.692c-1.014,0.974-2.145,1.659-3.353,2.028c-1.199,0.374-3.316,0.574-6.285,0.574h-5.27V52.113z
	 M111.172,56.338V70.84h2.029c1.986,0,3.458-0.219,4.324-0.675c0.911-0.473,1.655-1.24,2.242-2.321
	c0.595-1.092,0.847-2.42,0.847-4.017c0-2.436-0.673-4.336-2.046-5.673c-1.219-1.214-3.205-1.816-5.909-1.816H111.172z
	 M140.091,51.539c3.265,0,6.037,1.163,8.376,3.525c2.338,2.352,3.501,5.231,3.501,8.623c0,3.354-1.126,6.192-3.424,8.503
	c-2.3,2.35-5.12,3.495-8.401,3.495c-3.465,0-6.345-1.19-8.612-3.576c-2.285-2.384-3.405-5.228-3.405-8.497
	c0-2.202,0.524-4.231,1.575-6.082c1.058-1.836,2.521-3.306,4.385-4.38C135.949,52.061,137.955,51.539,140.091,51.539z
	 M140.038,55.818c-2.117,0-3.939,0.758-5.365,2.229c-1.453,1.485-2.162,3.362-2.162,5.64c0,2.548,0.902,4.562,2.721,6.038
	c1.427,1.158,3.056,1.732,4.876,1.732c2.091,0,3.86-0.755,5.296-2.251c1.453-1.495,2.188-3.351,2.188-5.549
	c0-2.188-0.735-4.052-2.205-5.555C143.935,56.581,142.14,55.818,140.038,55.818z M60.491,88.299h1.691v7.336h2.502v1.627h-4.193
	V88.299z M66.732,87.022h1.962l-2.225,2.396h-1.208L66.732,87.022z M65.647,90.636h1.646v6.626h-1.646V90.636z M68.798,90.636h1.672
	l1.971-0.175l1.67,0.69l0.579,1.734v4.376h-1.655V94.36l-0.112-1.582l-1.874-0.458l-0.579,2.274v2.667h-1.672V90.636z
	 M82.962,94.423h-5.367l1.917,1.551l1.604-0.646l1.374,0.646l-1.253,1.107l-1.724,0.363c-1.042,0-1.9-0.338-2.547-0.988
	c-0.638-0.651-0.989-1.49-0.989-2.466c0-1.022,0.351-1.854,0.989-2.521c0.647-0.665,1.468-1.009,2.45-1.009
	c1.066,0,1.909,0.333,2.564,1.009c0.647,0.666,0.982,1.547,0.982,2.635V94.423z M81.29,93.124l-1.778-1.244l-1.225,0.392
	L81.29,93.124z M89.176,90.636h1.681v6.626h-1.681l-2.022,0.183c-0.875,0-1.595-0.338-2.222-1.004
	c-0.639-0.677-0.955-1.491-0.955-2.465c0-1.04,0.316-1.881,0.909-2.536c0.612-0.651,1.356-0.979,2.233-0.979l2.057,0.893V90.636z
	 M87.441,91.994l-1.269,0.532l-0.526,1.414l0.526,1.419l1.269,0.569l1.287-0.559l0.542-1.43l-0.542-1.42L87.441,91.994z
	 M100.931,88.066h1.672v9.195h-1.672l-2.048,0.183c-0.841,0-1.593-0.338-2.216-1.004c-0.61-0.677-0.926-1.491-0.926-2.465
	c0-1.04,0.299-1.881,0.894-2.536c0.604-0.651,1.328-0.979,2.194-0.979l2.103,0.893V88.066z M99.187,91.994l-1.276,0.532
	l-0.516,1.414l0.516,1.419l1.276,0.569l1.296-0.559l0.526-1.43l-0.526-1.42L99.187,91.994z M110.927,94.423h-5.348l1.898,1.551
	l1.621-0.646l1.399,0.646l-1.277,1.107l-1.743,0.363c-1.015,0-1.864-0.338-2.539-0.988c-0.647-0.651-0.955-1.49-0.955-2.466
	c0-1.022,0.308-1.854,0.955-2.521c0.675-0.665,1.489-1.009,2.467-1.009c1.06,0,1.892,0.333,2.566,1.009
	c0.647,0.666,0.954,1.547,0.954,2.635V94.423z M109.272,93.124l-1.794-1.244l-1.208,0.392L109.272,93.124z M118.71,88.299h1.722
	l3.449,8.963h-1.777l-0.69-1.84h-3.678l-0.718,1.84h-1.794L118.71,88.299z M119.591,90.681l-1.225,3.071h2.39L119.591,90.681z
	 M125.237,88.174h1.672v2.462l0.955,1.433l-0.955,5.193h-1.672v-5.193l-0.858-1.433L125.237,88.174z M135.408,94.423h-5.358
	l1.9,1.551l1.61-0.646l1.412,0.646l-1.262,1.107l-1.741,0.363c-1.025,0-1.883-0.338-2.547-0.988
	c-0.649-0.651-0.982-1.49-0.982-2.466c0-1.022,0.333-1.854,0.982-2.521c0.664-0.665,1.487-1.009,2.476-1.009
	c1.034,0,1.883,0.333,2.547,1.009c0.657,0.666,0.979,1.547,0.979,2.635L135.408,94.423z M133.762,93.124l-1.792-1.244l-1.225,0.392
	L133.762,93.124z M136.775,90.636h1.67l1.935-0.175l1.672,0.69l0.593,1.734v4.376h-1.652V94.36l-0.105-1.582l-1.872-0.458
	l-0.57,2.274v2.667h-1.67V90.636z M150.769,91.973l-1.391,0.754l-1.664-0.707l-1.524,0.546l-0.55,1.438l0.533,1.383l1.47,0.543
	l1.734-0.769l1.32,0.892c-0.744,0.922-1.724,1.393-3.018,1.393c-1.174,0-2.093-0.359-2.766-1.033
	c-0.639-0.703-0.98-1.512-0.98-2.436l0.481-1.771l1.348-1.276l1.935-0.467l1.777,0.394L150.769,91.973z M152.906,87.903l0.769,1.831
	l-1.504-0.002l-0.02-1.518L152.906,87.903z M152.074,90.636h1.672v6.626h-1.672V90.636z M158.358,90.461l1.778,0.467l1.287,1.276
	l0.462,1.736l-0.482,1.752l-1.251,1.281l-1.794,0.471c-0.954,0-1.741-0.338-2.45-1.015c-0.658-0.686-0.982-1.5-0.982-2.47
	c0-1.04,0.378-1.915,1.131-2.598C156.738,90.769,157.509,90.461,158.358,90.461z M158.376,92.034l-1.277,0.531l-0.518,1.395
	l0.518,1.385l1.277,0.537l1.304-0.537l0.516-1.385l-0.499-1.395L158.376,92.034z M158.683,87.022h1.952l-2.24,2.396L158.683,87.022z
	 M163.252,90.636h1.67l1.971-0.175l1.67,0.69l0.572,1.734v4.376h-1.655V94.36l-0.105-1.582l-1.892-0.458l-0.561,2.274v2.667h-1.67
	V90.636z M179.13,90.636h1.67v6.626h-1.67l-2.04,0.183c-0.849,0-1.618-0.338-2.225-1.004c-0.63-0.677-0.926-1.491-0.926-2.465
	c0-1.04,0.296-1.881,0.901-2.536c0.595-0.651,1.347-0.979,2.188-0.979l2.102,0.893V90.636z M177.397,91.994l-1.307,0.532
	l-0.497,1.414l0.516,1.419l1.288,0.569l1.285-0.559l0.507-1.43l-0.507-1.42L177.397,91.994z M183.979,88.066v9.195h-1.67v-9.195
	H183.979z M189.09,88.299h1.706v5.791l0.579,1.558l1.524-0.013l0.567-1.752v-5.584h1.707v5.335c0,0.907-0.06,1.545-0.148,1.892
	l-1.575,1.734l-1.296,0.232l-1.696-0.458c-1.253-1.578-1.367-2.337-1.367-3.4V88.299z M201.021,91.566l-2.153,0.406l0.612,1.27
	l1.313,0.979l-0.299,2.631l-1.715,0.593c-0.989,0-1.758-0.399-2.336-1.147l1.724-0.578l1.228,0.066l-1.103-1.389
	c-1.062-0.553-1.595-1.214-1.595-2.04l0.595-1.337l1.559-0.559l1.216,0.297L201.021,91.566z M202.465,90.636h1.672v3.187
	l0.131,1.305l1.812,0.565l0.533-1.81v-3.247h1.681v2.809c0,1.15-0.105,1.941-0.279,2.366l-0.991,1.208l-1.644,0.426l-1.775-0.485
	l-0.948-1.369c-0.14-0.396-0.191-1.142-0.191-2.192V90.636z M214.858,90.636h1.664v6.626h-1.664l-2.038,0.183
	c-0.859,0-1.595-0.338-2.233-1.004c-0.604-0.677-0.926-1.491-0.926-2.465c0-1.04,0.296-1.881,0.892-2.536
	c0.612-0.651,1.336-0.979,2.213-0.979l2.091,0.893V90.636z M213.091,91.994l-1.279,0.532l-0.499,1.414l0.524,1.419l1.268,0.569
	l1.305-0.559l0.526-1.43l-0.526-1.42L213.091,91.994z M217.826,90.636h1.417l1.472-0.175l0.148,1.619
	c-1.296,0.645-1.393,1.255-1.393,2.184l0.019,2.998h-1.664V90.636z M222.85,87.903l0.752,1.831l-1.496-0.002v-1.518L222.85,87.903z
	 M222.02,90.636h1.661v6.626h-1.661V90.636z M228.302,90.461l1.777,0.467l1.306,1.276l0.453,1.736l-0.471,1.752l-1.288,1.281
	l-1.758,0.471c-0.963,0-1.76-0.338-2.424-1.015c-0.692-0.686-1.025-1.5-1.025-2.47c0-1.04,0.367-1.915,1.128-2.598
	C226.675,90.769,227.444,90.461,228.302,90.461z M228.339,92.034l-1.288,0.531l-0.509,1.395l0.509,1.385l1.288,0.537l1.296-0.537
	l0.496-1.385l-0.496-1.395L228.339,92.034z M239.455,88.069l1.462,0.737l-1.576,3.047l1.952,0.819
	c0.533,0.535,0.786,1.21,0.786,2.016l-0.806,1.993l-1.986,0.811c-0.814,0-1.487-0.284-2.031-0.858l-0.814-1.921l0.709-2.122
	L239.455,88.069z M239.244,93.487l-0.771,2.057l1.621,0.007v-1.734L239.244,93.487z M244.917,88.299h4.228v1.578h-2.942
	l-0.365,1.635c1.391-0.092,2.071,0.186,2.615,0.76c0.533,0.545,0.789,1.244,0.789,2.114c0,0.875-0.297,1.597-0.857,2.203
	c-0.624,0.596-1.348,0.903-2.199,0.903l-1.96-0.656l-1.094-1.799h1.786l1.304,0.845l1.374-1.459l-1.269-1.406l-2.486,0.256
	L244.917,88.299z M253.327,88.069l1.689,0.489l1.094,1.462c0.236,0.675,0.396,1.593,0.396,2.758c0,1.197-0.168,2.121-0.421,2.776
	l-1.032,1.464l-1.689,0.474l-1.698-0.474l-1.076-1.425c-0.271-0.645-0.394-1.545-0.394-2.729c0-1.629,0.26-2.835,0.75-3.57
	C251.506,88.479,252.304,88.069,253.327,88.069z M253.363,89.702l-1.287,1.226c-0.114,0.451-0.168,1.106-0.168,1.973
	c0,1.127,0.131,1.911,0.404,2.337l2.039,0.034c0.288-0.492,0.438-1.312,0.438-2.47c0-1.188-0.131-1.997-0.395-2.439L253.363,89.702z
	 M260.304,88.069l1.698,0.489l1.104,1.462c0.234,0.675,0.374,1.593,0.374,2.758c0,1.197-0.14,2.121-0.392,2.776l-1.042,1.464
	l-1.691,0.474l-1.698-0.474l-1.066-1.425c-0.264-0.645-0.401-1.545-0.401-2.729c0-1.629,0.254-2.835,0.761-3.57
	C258.518,88.479,259.298,88.069,260.304,88.069z M260.355,89.702l-1.277,1.226c-0.113,0.451-0.176,1.106-0.176,1.973
	c0,1.127,0.142,1.911,0.413,2.337l2.03,0.034c0.288-0.492,0.437-1.312,0.437-2.47c0-1.188-0.131-1.997-0.41-2.439L260.355,89.702z
	 M269.163,92.394l1.266,2.345l-0.382,1.43l-2.713,1.324l-1.718-0.325l-1.416-2.429l0.303-1.294l0.325-1.908l0.124-2.242l2.362-1.225
	l1.408,0.333l1.271,2.186L269.163,92.394z M267.334,93.312l-1.464,1.27l1.436,1.279l1.453-1.253L267.334,93.312z M267.255,89.729
	l-0.667,1.691h1.437l-0.018-1.425L267.255,89.729z M271.577,88.299h5.883l-4.043,9.193l-1.444-0.699l3.368-6.899h-3.764V88.299z
	 M281.292,88.069l1.7,0.489l1.101,1.462c0.256,0.675,0.387,1.593,0.387,2.758c0,1.197-0.131,2.121-0.402,2.776l-1.06,1.464
	l-1.661,0.474l-1.707-0.474l-1.087-1.425c-0.261-0.645-0.385-1.545-0.385-2.729c0-1.629,0.271-2.835,0.763-3.57
	C279.499,88.479,280.294,88.069,281.292,88.069z M281.356,89.702l-1.271,1.226c-0.131,0.451-0.183,1.106-0.183,1.973
	c0,1.127,0.138,1.911,0.402,2.337l2.028,0.034c0.291-0.492,0.447-1.312,0.447-2.47c0-1.188-0.131-1.997-0.402-2.439L281.356,89.702z
	 M292.496,93.183v1.556h-3.088v-1.556H292.496z M298.091,97.262v-8.963h1.401c0.813,0,1.425,0.052,1.804,0.152l1.266,0.796
	l0.492,1.371l-0.929,1.709l1.183,0.963l0.401,1.352l-0.401,1.384l-2.713,1.236H298.091z M299.798,89.926v1.892l1.285-0.267
	l0.02-1.387L299.798,89.926z M299.798,93.326v2.309l1.846-0.256l-0.054-1.711l-1.45-0.342H299.798z M308.271,90.461l1.751,0.467
	l1.297,1.276l0.471,1.736l-0.471,1.752l-1.262,1.281l-1.786,0.471c-0.946,0-1.77-0.338-2.434-1.015
	c-0.666-0.686-0.997-1.5-0.997-2.47c0-1.04,0.368-1.915,1.129-2.598C306.633,90.769,307.404,90.461,308.271,90.461z M308.279,92.034
	l-1.271,0.531l-0.522,1.395l0.522,1.385l1.271,0.537l1.302-0.537l0.519-1.385l-0.492-1.395L308.279,92.034z M318.054,90.636h1.655
	v5.676c0,1.133-0.217,1.937-0.682,2.48c-0.604,0.714-1.532,1.07-2.731,1.07l-1.636-0.256l-1.786-1.844h1.829l1.532,0.555
	l1.655-0.735l-1.838-0.32c-0.885,0-1.654-0.303-2.259-0.965c-0.623-0.63-0.92-1.444-0.92-2.438c0-1.036,0.308-1.887,0.954-2.536
	c0.596-0.565,1.303-0.862,2.128-0.862l2.098,0.901V90.636z M316.315,92.02l-1.29,0.542l-0.514,1.298l0.524,1.371l1.313,0.518
	l1.285-0.511l0.49-1.354l-0.49-1.341L316.315,92.02z M324.515,90.461l1.759,0.467l1.296,1.276l0.447,1.736l-0.447,1.752
	l-1.276,1.281l-1.768,0.471c-0.963,0-1.771-0.338-2.452-1.015c-0.682-0.686-1.006-1.5-1.006-2.47c0-1.04,0.376-1.915,1.147-2.598
	C322.879,90.769,323.64,90.461,324.515,90.461z M324.534,92.034l-1.296,0.531l-0.501,1.395l0.501,1.385l1.287,0.537l1.303-0.537
	l0.508-1.385l-0.508-1.395L324.534,92.034z M329.592,88.174h1.655v2.462l0.997,1.433l-0.997,5.193h-1.655v-5.193l-0.849-1.433
	L329.592,88.174z M338.021,90.636h1.679v6.626h-1.679l-2.048,0.183c-0.858,0-1.574-0.338-2.206-1.004
	c-0.621-0.677-0.945-1.491-0.945-2.465c0-1.04,0.306-1.881,0.911-2.536c0.612-0.651,1.331-0.979,2.186-0.979l2.103,0.893V90.636z
	 M336.28,91.994l-1.287,0.532l-0.51,1.414l0.526,1.419l1.271,0.569l1.303-0.559l0.516-1.43l-0.516-1.42L336.28,91.994z
	 M336.745,87.022h1.966l-2.222,2.396h-1.197L336.745,87.022z M342.17,95.579l1.19,0.6l-1.496,2.563L342.17,95.579z M348.577,88.299
	h2.024c1.283,0,2.254,0.155,2.896,0.492l1.549,1.563c0.428,0.73,0.621,1.586,0.621,2.547l-0.358,1.911l-0.935,1.44l-1.316,0.793
	c-0.464,0.154-1.285,0.217-2.441,0.217h-2.039V88.299z M350.258,89.943v5.65l2.495-0.265l1.199-2.465
	c0-0.943-0.281-1.691-0.806-2.214c-0.49-0.478-1.242-0.707-2.302-0.707H350.258z M357.915,95.579l1.2,0.6l-1.514,2.563
	L357.915,95.579z M369.052,89.877l-1.21,1.133c-0.805-0.848-1.723-1.281-2.739-1.281c-0.857,0-1.593,0.281-2.179,0.87
	c-0.596,0.591-0.886,1.312-0.886,2.167l0.404,1.595l2.678,1.472l1.376-0.277l1.346-1.014l1.155,1.223l-1.88,1.343l-2.006,0.386
	c-1.399,0-2.558-0.456-3.43-1.324c-0.886-0.896-1.351-2.022-1.351-3.402c0-0.896,0.222-1.689,0.624-2.387l1.732-1.661
	c0.763-0.419,1.584-0.648,2.433-0.648l2.153,0.475L369.052,89.877z M371.265,95.525l0.673,1.627h-1.347v-1.348L371.265,95.525z
	 M101.842,103.282h1.687v7.353h2.496v1.623h-4.183V103.282z M108.075,102.016h1.967l-2.248,2.396L108.075,102.016z M106.961,105.612
	h1.662v6.646h-1.662V105.612z M110.147,105.612h1.672l1.979-0.159l1.662,0.691l0.569,1.729v4.385h-1.644v-2.91l-0.123-1.578
	l-1.868-0.466l-0.576,2.3v2.654h-1.672V105.612z M124.311,109.41h-5.384l1.9,1.563l1.601-0.671l1.436,0.671l-1.271,1.103
	l-1.741,0.353c-1.034,0-1.874-0.322-2.558-0.982c-0.627-0.662-0.961-1.473-0.961-2.482c0-0.998,0.333-1.838,0.961-2.509
	c0.684-0.666,1.489-1.001,2.461-1.001c1.06,0,1.926,0.335,2.564,1.001c0.667,0.66,0.991,1.557,0.991,2.642V109.41z M122.63,108.111
	l-1.803-1.242l-1.219,0.387L122.63,108.111z M130.531,105.612h1.674v6.646h-1.674l-2.038,0.17c-0.849,0-1.584-0.34-2.225-0.995
	c-0.636-0.671-0.918-1.49-0.918-2.483c0-1.026,0.282-1.865,0.875-2.512c0.623-0.656,1.367-0.984,2.214-0.984l2.091,0.892V105.612z
	 M128.773,106.981l-1.259,0.537l-0.519,1.405l0.536,1.434l1.242,0.544l1.313-0.544l0.516-1.44l-0.516-1.398L128.773,106.981z
	 M145.86,104.763l-1.217,1.167c-0.746-0.784-1.646-1.194-2.644-1.194c-0.886,0-1.638,0.303-2.233,0.877
	c-0.586,0.58-0.883,1.298-0.883,2.143c0,0.864,0.297,1.593,0.929,2.188c0.604,0.601,1.374,0.907,2.274,0.907l1.49-0.374
	l-1.604-1.158v-1.605h4.501l-0.595,2.59l-1.586,1.612c-0.63,0.38-1.399,0.555-2.274,0.555c-0.903,0-1.743-0.194-2.487-0.604
	l-1.724-1.724c-0.419-0.75-0.638-1.541-0.638-2.412c0-1.182,0.401-2.205,1.156-3.09c0.943-1.056,2.16-1.569,3.647-1.569l2.197,0.437
	L145.86,104.763z M147.47,105.612h1.453l1.464-0.159l0.146,1.609c-1.305,0.641-1.391,1.262-1.391,2.188l0.017,3.007h-1.689V105.612z
	 M156.757,105.612h1.689v6.646h-1.689l-2.04,0.17c-0.841,0-1.584-0.34-2.223-0.995c-0.612-0.671-0.922-1.49-0.922-2.483
	c0-1.026,0.29-1.865,0.905-2.512c0.593-0.656,1.339-0.984,2.203-0.984l2.076,0.892V105.612z M155.017,106.981l-1.29,0.537
	l-0.507,1.405l0.526,1.434l1.271,0.544l1.302-0.544l0.49-1.44l-0.49-1.398L155.017,106.981z M160.31,103.184H162v2.429l0.982,1.433
	L162,112.258h-1.689v-5.213l-0.857-1.433L160.31,103.184z M163.846,105.612h1.689v3.202l0.123,1.296l1.823,0.574l0.542-1.814v-3.258
	h1.672v2.824c0,1.167-0.114,1.947-0.28,2.381l-1.008,1.195l-1.645,0.415l-1.786-0.488l-0.92-1.362
	c-0.14-0.411-0.21-1.122-0.21-2.201V105.612z M172.013,102.897l0.75,1.838l-1.511-0.009v-1.522L172.013,102.897z M171.182,105.612
	h1.661v6.646h-1.661V105.612z M174.552,103.184h1.67v2.429l0.982,1.433l-0.982,5.213h-1.67v-5.213l-0.858-1.433L174.552,103.184z
	 M182.981,105.612h1.681v6.646h-1.681l-2.033,0.17c-0.847,0-1.591-0.34-2.231-0.995c-0.627-0.671-0.937-1.49-0.937-2.483
	c0-1.026,0.309-1.865,0.921-2.512c0.593-0.656,1.346-0.984,2.186-0.984l2.094,0.892V105.612z M181.247,106.981l-1.277,0.537
	l-0.518,1.405l0.518,1.434l1.277,0.544l1.296-0.544l0.507-1.44l-0.507-1.398L181.247,106.981z M190.019,103.282h1.637l3.858,5.91
	v-5.91h1.681v8.976h-1.627l-3.86-5.892v5.892h-1.689V103.282z M203.961,105.612h1.681v6.646h-1.681l-2.029,0.17
	c-0.86,0-1.595-0.34-2.208-0.995c-0.632-0.671-0.946-1.49-0.946-2.483c0-1.026,0.299-1.865,0.911-2.512
	c0.613-0.656,1.331-0.984,2.188-0.984l2.083,0.892V105.612z M202.22,106.981l-1.271,0.537l-0.524,1.405l0.542,1.434l1.253,0.544
	l1.33-0.544l0.49-1.44l-0.49-1.398L202.22,106.981z M213.818,106.971l-1.367,0.758l-1.67-0.722l-1.524,0.555l-0.559,1.423
	l0.542,1.389l1.461,0.528l1.75-0.761l1.307,0.894c-0.72,0.938-1.726,1.394-3.014,1.394c-1.171,0-2.084-0.349-2.749-1.034
	c-0.655-0.684-1.006-1.518-1.006-2.431l0.507-1.767l1.322-1.277l1.945-0.466l1.775,0.389L213.818,106.971z M215.961,102.897
	l0.771,1.838l-1.507-0.009l-0.017-1.522L215.961,102.897z M215.157,105.612h1.645v6.646h-1.645V105.612z M221.441,105.453
	l1.767,0.473l1.271,1.271l0.49,1.736l-0.49,1.758l-1.251,1.281l-1.786,0.456c-0.948,0-1.769-0.349-2.442-1.025
	c-0.675-0.671-1.016-1.489-1.016-2.453c0-1.051,0.404-1.908,1.156-2.59C219.804,105.76,220.575,105.453,221.441,105.453z
	 M221.459,107.026l-1.279,0.535l-0.524,1.371l0.524,1.419l1.279,0.535l1.278-0.549l0.522-1.405l-0.507-1.378L221.459,107.026z
	 M226.316,105.612h1.672l1.969-0.159l1.664,0.691l0.578,1.729v4.385h-1.646v-2.91l-0.097-1.578l-1.898-0.466l-0.569,2.3v2.654
	h-1.672V105.612z M238.692,105.612h1.689v6.646h-1.689l-2.029,0.17c-0.859,0-1.604-0.34-2.216-0.995
	c-0.612-0.671-0.943-1.49-0.943-2.483c0-1.026,0.313-1.865,0.926-2.512c0.587-0.656,1.313-0.984,2.18-0.984l2.083,0.892V105.612z
	 M236.951,106.981l-1.288,0.537l-0.498,1.405l0.518,1.434l1.285,0.544l1.277-0.544l0.526-1.44l-0.526-1.398L236.951,106.981z
	 M243.534,103.069v9.188h-1.646v-9.188H243.534z M251.175,103.069l1.707,0.487l1.094,1.466c0.254,0.66,0.394,1.582,0.394,2.747
	c0,1.193-0.157,2.106-0.41,2.773l-1.052,1.47l-1.678,0.456l-1.711-0.463l-1.066-1.429c-0.271-0.635-0.401-1.53-0.401-2.704
	c0-1.666,0.271-2.835,0.769-3.594C249.39,103.476,250.176,103.069,251.175,103.069z M251.229,104.686l-1.271,1.215
	c-0.148,0.459-0.193,1.126-0.193,1.996c0,1.133,0.156,1.908,0.41,2.337l2.04,0.027c0.29-0.492,0.446-1.312,0.446-2.476
	c0-1.163-0.131-1.974-0.393-2.434L251.229,104.686z M256.759,103.282h2.557v8.976h-1.698v-7.377h-1.847L256.759,103.282z
	 M267.035,107.4l1.26,2.311l-0.374,1.45l-2.715,1.308l-1.743-0.318l-1.401-2.439l0.318-1.274l0.313-1.902l0.123-2.255l2.37-1.21
	l1.401,0.313l1.279,2.208L267.035,107.4z M265.206,108.299l-1.47,1.264l1.434,1.287l1.455-1.242L265.206,108.299z M265.127,104.727
	l-0.675,1.685l1.427,0.007l-0.009-1.425L265.127,104.727z M272.175,103.069l1.678,0.487l1.095,1.466
	c0.271,0.66,0.394,1.582,0.394,2.747c0,1.193-0.123,2.106-0.394,2.773l-1.06,1.47l-1.673,0.456l-1.706-0.463l-1.084-1.429
	c-0.247-0.635-0.384-1.53-0.384-2.704c0-1.666,0.253-2.835,0.777-3.594C270.378,103.476,271.166,103.069,272.175,103.069z
	 M272.215,104.686l-1.276,1.215c-0.12,0.459-0.165,1.126-0.165,1.996c0,1.133,0.122,1.908,0.393,2.337l2.031,0.027
	c0.314-0.492,0.464-1.312,0.464-2.476c0-1.163-0.149-1.974-0.421-2.434L272.215,104.686z M279.16,103.069l1.695,0.487l1.111,1.466
	c0.256,0.66,0.367,1.582,0.367,2.747c0,1.193-0.111,2.106-0.393,2.773l-1.05,1.47l-1.672,0.456l-1.706-0.463l-1.095-1.429
	c-0.245-0.635-0.369-1.53-0.369-2.704c0-1.666,0.238-2.835,0.761-3.594C277.365,103.476,278.16,103.069,279.16,103.069z
	 M279.22,104.686l-1.278,1.215c-0.121,0.459-0.175,1.126-0.175,1.996c0,1.133,0.138,1.908,0.394,2.337l2.049,0.027
	c0.287-0.492,0.427-1.312,0.427-2.476c0-1.163-0.122-1.974-0.376-2.434L279.22,104.686z M286.16,103.069l1.689,0.487l1.094,1.466
	c0.263,0.66,0.396,1.582,0.396,2.747c0,1.193-0.133,2.106-0.396,2.773l-1.068,1.47l-1.661,0.456l-1.709-0.463l-1.076-1.429
	c-0.263-0.635-0.394-1.53-0.394-2.704c0-1.666,0.272-2.835,0.761-3.594C284.365,103.476,285.154,103.069,286.16,103.069z
	 M286.214,104.686l-1.279,1.215c-0.122,0.459-0.176,1.126-0.176,1.996c0,1.133,0.122,1.908,0.396,2.337l2.037,0.027
	c0.29-0.492,0.456-1.312,0.456-2.476c0-1.163-0.148-1.974-0.41-2.434L286.214,104.686z M293.058,112.469l-1.444-0.714l1.558-3.044
	l-1.935-0.814c-0.532-0.546-0.803-1.229-0.803-2.042l0.82-1.976l1.979-0.81l2.021,0.838l0.806,1.935l-0.684,2.113L293.058,112.469z
	 M293.268,107.08l1.12-1.19l-1.12-1.219l-1.156,1.214L293.268,107.08z M298.731,103.282h2.564v8.976h-1.7v-7.377h-1.847
	L298.731,103.282z M307.15,103.069l1.689,0.487l1.094,1.466c0.271,0.66,0.402,1.582,0.402,2.747c0,1.193-0.131,2.106-0.402,2.773
	l-1.06,1.47l-1.663,0.456l-1.707-0.463l-1.085-1.429c-0.254-0.635-0.402-1.53-0.402-2.704c0-1.666,0.263-2.835,0.778-3.594
	C305.355,103.476,306.151,103.069,307.15,103.069z M307.211,104.686l-1.285,1.215c-0.123,0.459-0.177,1.126-0.177,1.996
	c0,1.133,0.123,1.908,0.402,2.337l2.042,0.027c0.279-0.492,0.436-1.312,0.436-2.476c0-1.163-0.131-1.974-0.404-2.434
	L307.211,104.686z M313.04,105.5h-1.636l0.698-1.593c0.561-0.555,1.236-0.838,2.067-0.838l1.847,0.698l0.754,1.666l-1.278,1.87
	l1.294,0.859l0.438,1.44l-0.875,2.031c-0.606,0.561-1.365,0.834-2.259,0.834c-0.895,0-1.602-0.263-2.145-0.785
	c-0.542-0.522-0.85-1.24-0.901-2.151h1.689l1.436,1.369l1.391-1.31l-2.057-1.467v-1.458l1.365-0.598l-0.753-1.369L313.04,105.5z
	 M323.011,107.4l1.261,2.311l-0.378,1.45l-2.721,1.308l-1.715-0.318l-1.419-2.439l0.305-1.274l0.316-1.902l0.14-2.255l2.373-1.21
	l1.382,0.313l1.271,2.208L323.011,107.4z M321.173,108.299l-1.464,1.264l1.444,1.287l1.438-1.242L321.173,108.299z M321.11,104.727
	l-0.7,1.685l1.436,0.007v-1.425L321.11,104.727z M327.036,105.5h-1.627l0.692-1.593c0.55-0.555,1.24-0.838,2.071-0.838l1.832,0.698
	l0.761,1.666l-1.288,1.87l1.288,0.859l0.455,1.44l-0.886,2.031c-0.604,0.561-1.348,0.834-2.273,0.834
	c-0.866,0-1.566-0.263-2.108-0.785c-0.555-0.522-0.86-1.24-0.903-2.151h1.679l1.428,1.369l1.393-1.31l-2.065-1.467v-1.458
	l1.382-0.598l-0.744-1.369L327.036,105.5z"/>
</svg>
