<?xml version="1.0" encoding="utf-8"?>
<!-- Generator: Adobe Illustrator 19.1.0, SVG Export Plug-In . SVG Version: 6.00 Build 0)  -->
<svg version="1.1" id="Layer_1" xmlns="http://www.w3.org/2000/svg" xmlns:xlink="http://www.w3.org/1999/xlink" x="0px" y="0px"
	 viewBox="0 0 442.3 112.5" style="enable-background:new 0 0 442.3 112.5;" xml:space="preserve">
<style type="text/css">
	.st0{fill-rule:evenodd;clip-rule:evenodd;fill:#037542;}
	.st1{fill-rule:evenodd;clip-rule:evenodd;}
	.st2{fill-rule:evenodd;clip-rule:evenodd;fill:#00733F;}
	.st3{fill-rule:evenodd;clip-rule:evenodd;fill:#38B349;}
</style>
<path class="st0" d="M384.6,74c0.1-21.4,6.8-36.7,18.4-48.2c6.9-6.8,15.4,2.2,7.5,7.4C404,37.5,386.7,47.2,384.6,74 M382.6,74.1
	c-1.7-18.4-3.5-33.9,3.5-46.9c4.2-7.7,11.7-1.8,7.5,3.2C388.3,36.9,381,51.1,382.6,74.1z M387.4,74.1c3.1-16.6,10.4-27.6,21.1-35
	c6.3-4.3,11.7,3.3,4.8,6.8C407.9,48.8,392.8,53.5,387.4,74.1z M402.1,19.2c0,2.2-1.8,4-4,4c-2.2,0-4-1.8-4-4c0-2.2,1.8-4,4-4
	C400.3,15.2,402.1,17,402.1,19.2z M422.6,21.3c0,2.2-1.8,4-4,4c-2.2,0-4-1.8-4-4c0-2.2,1.8-4,4-4C420.8,17.2,422.6,19,422.6,21.3z
	 M426.8,37.6c0,2.2-1.8,4-4,4c-2.2,0-4-1.8-4-4c0-2.2,1.8-4,4-4C425,33.6,426.8,35.4,426.8,37.6z M371.3,95.5l0.7,1.6h-1.3v-1.3
	L371.3,95.5z"/>
<polygon class="st1" points="0,52.1 4.5,52.1 10.3,68.4 16.2,52.1 20.6,52.1 12.3,75.1 8.1,75.1 "/>
<rect x="23.9" y="52.1" class="st1" width="4.4" height="23"/>
<path class="st1" d="M54.4,55.9l-3.1,3.1c-2-2.1-4.2-3.1-6.8-3.1c-2.3,0-4.2,0.8-5.7,2.3c-1.5,1.5-2.3,3.3-2.3,5.5
	c0,2.2,0.8,4.1,2.4,5.6c1.6,1.5,3.5,2.3,5.9,2.3c1.5,0,2.8-0.3,3.8-0.9c1-0.6,1.9-1.6,2.5-3h-6.6v-4.1H56c0,3-0.5,4.9-1.5,6.7
	c-1,1.8-2.4,3.2-4.1,4.1c-1.6,0.9-3.6,1.4-5.8,1.4c-2.4,0-4.5-0.5-6.4-1.6c-1.9-1-3.4-2.5-4.5-4.4c-1.1-1.9-1.6-4-1.6-6.2
	c0-3,1-5.7,3-7.9c2.4-2.7,5.5-4,9.3-4c2,0,3.9,0.4,5.6,1.1C51.5,53.3,53,54.4,54.4,55.9z"/>
<rect x="59.7" y="52.1" class="st1" width="4.4" height="23"/>
<polygon class="st1" points="69,52.1 73.4,52.1 73.4,70.9 79.8,70.9 79.8,75.1 69,75.1 "/>
<path class="st1" d="M94.6,52.1h-4.4l-8.9,23h4.5l1.9-4.8h9.4l1.8,4.8h4.6L94.6,52.1z M89.3,66.1l3.1-7.9l3.1,7.9H89.3z"/>
<path class="st1" d="M123.5,57.4c-1-1.9-2.4-3.2-4-4.1c-1.6-0.8-4.1-1.2-7.5-1.2h-5.2v23h5.3c3,0,5.1-0.2,6.3-0.6
	c1.2-0.4,2.3-1.1,3.4-2c1-1,1.9-2.2,2.4-3.7c0.6-1.5,0.9-3.1,0.9-4.9C125,61.4,124.5,59.3,123.5,57.4z M119.8,67.8
	c-0.6,1.1-1.3,1.8-2.2,2.3c-0.9,0.5-2.3,0.7-4.3,0.7h-2V56.3h1.5c2.7,0,4.7,0.6,5.9,1.8c1.4,1.3,2,3.2,2,5.7
	C120.6,65.4,120.4,66.8,119.8,67.8z"/>
<path class="st1" d="M148.5,55.1c-2.3-2.4-5.1-3.5-8.4-3.5c-2.1,0-4.1,0.5-6,1.6c-1.9,1.1-3.3,2.5-4.4,4.4c-1.1,1.9-1.6,3.9-1.6,6.1
	c0,3.3,1.1,6.1,3.4,8.5c2.3,2.4,5.1,3.6,8.6,3.6c3.3,0,6.1-1.1,8.4-3.5c2.3-2.3,3.4-5.1,3.4-8.5C152,60.3,150.8,57.4,148.5,55.1z
	 M145.4,69.2c-1.4,1.5-3.2,2.3-5.3,2.3c-1.8,0-3.4-0.6-4.9-1.7c-1.8-1.5-2.7-3.5-2.7-6c0-2.3,0.7-4.2,2.2-5.6
	c1.4-1.5,3.2-2.2,5.4-2.2c2.1,0,3.9,0.8,5.3,2.3c1.5,1.5,2.2,3.4,2.2,5.6C147.6,65.9,146.9,67.7,145.4,69.2z"/>
<polygon class="st1" points="60.5,88.3 62.2,88.3 62.2,95.6 64.7,95.6 64.7,97.3 60.5,97.3 "/>
<polygon class="st1" points="66.7,87 68.7,87 66.5,89.4 65.3,89.4 "/>
<rect x="65.6" y="90.6" class="st1" width="1.6" height="6.6"/>
<polygon class="st1" points="68.8,90.6 70.5,90.6 72.4,90.5 74.1,91.2 74.7,92.9 74.7,97.3 73,97.3 73,94.4 72.9,92.8 71,92.3 
	70.5,94.6 70.5,97.3 68.8,97.3 "/>
<path class="st1" d="M83,94.1c0-1.1-0.3-2-1-2.6c-0.7-0.7-1.5-1-2.6-1c-1,0-1.8,0.3-2.5,1c-0.6,0.7-1,1.5-1,2.5c0,1,0.4,1.8,1,2.5
	c0.6,0.7,1.5,1,2.5,1l1.7-0.4l1.3-1.1l-1.4-0.6L79.5,96l-1.9-1.6H83V94.1z M78.3,92.3l1.2-0.4l1.8,1.2L78.3,92.3z"/>
<path class="st1" d="M89.2,90.6v0.7l-2.1-0.9c-0.9,0-1.6,0.3-2.2,1C84.3,92.1,84,92.9,84,94c0,1,0.3,1.8,1,2.5c0.6,0.7,1.3,1,2.2,1
	l2-0.2h1.7v-6.6H89.2z M88.7,95.4l-1.3,0.6l-1.3-0.6l-0.5-1.4l0.5-1.4l1.3-0.5l1.3,0.5l0.5,1.4L88.7,95.4z"/>
<path class="st1" d="M100.9,88.1v3.3l-2.1-0.9c-0.9,0-1.6,0.3-2.2,1c-0.6,0.7-0.9,1.5-0.9,2.5c0,1,0.3,1.8,0.9,2.5
	c0.6,0.7,1.4,1,2.2,1l2-0.2h1.7v-9.2H100.9z M100.5,95.4l-1.3,0.6l-1.3-0.6l-0.5-1.4l0.5-1.4l1.3-0.5l1.3,0.5l0.5,1.4L100.5,95.4z"
	/>
<path class="st1" d="M110.9,94.1c0-1.1-0.3-2-1-2.6c-0.7-0.7-1.5-1-2.6-1c-1,0-1.8,0.3-2.5,1c-0.6,0.7-1,1.5-1,2.5
	c0,1,0.3,1.8,1,2.5c0.7,0.7,1.5,1,2.5,1l1.7-0.4l1.3-1.1l-1.4-0.6l-1.6,0.6l-1.9-1.6h5.3V94.1z M106.3,92.3l1.2-0.4l1.8,1.2
	L106.3,92.3z"/>
<path class="st1" d="M120.4,88.3h-1.7l-3.5,9h1.8l0.7-1.8h3.7l0.7,1.8h1.8L120.4,88.3z M118.4,93.8l1.2-3.1l1.2,3.1H118.4z"/>
<polygon class="st1" points="125.2,88.2 126.9,88.2 126.9,90.6 127.9,92.1 126.9,97.3 125.2,97.3 125.2,92.1 124.4,90.6 "/>
<path class="st1" d="M135.4,94.1c0-1.1-0.3-2-1-2.6c-0.7-0.7-1.5-1-2.5-1c-1,0-1.8,0.3-2.5,1c-0.6,0.7-1,1.5-1,2.5
	c0,1,0.3,1.8,1,2.5c0.7,0.7,1.5,1,2.5,1l1.7-0.4L135,96l-1.4-0.6l-1.6,0.6l-1.9-1.6h5.4L135.4,94.1z M130.7,92.3l1.2-0.4l1.8,1.2
	L130.7,92.3z"/>
<polygon class="st1" points="136.8,90.6 138.4,90.6 140.4,90.5 142.1,91.2 142.6,92.9 142.6,97.3 141,97.3 141,94.4 140.9,92.8 
	139,92.3 138.4,94.6 138.4,97.3 136.8,97.3 "/>
<path class="st1" d="M150.8,92l-1.4,0.8l-1.7-0.7l-1.5,0.5l-0.6,1.4l0.5,1.4l1.5,0.5l1.7-0.8l1.3,0.9c-0.7,0.9-1.7,1.4-3,1.4
	c-1.2,0-2.1-0.4-2.8-1c-0.6-0.7-1-1.5-1-2.4l0.5-1.8l1.3-1.3l1.9-0.5l1.8,0.4L150.8,92z"/>
<polygon class="st1" points="152.9,87.9 153.7,89.7 152.2,89.7 152.2,88.2 "/>
<rect x="152.1" y="90.6" class="st1" width="1.7" height="6.6"/>
<path class="st1" d="M161.4,92.2l-1.3-1.3l-1.8-0.5c-0.8,0-1.6,0.3-2.3,0.9c-0.8,0.7-1.1,1.6-1.1,2.6c0,1,0.3,1.8,1,2.5
	c0.7,0.7,1.5,1,2.5,1l1.8-0.5l1.3-1.3l0.5-1.8L161.4,92.2z M159.7,95.3l-1.3,0.5l-1.3-0.5l-0.5-1.4l0.5-1.4l1.3-0.5l1.3,0.5l0.5,1.4
	L159.7,95.3z"/>
<polygon class="st1" points="158.7,87 160.6,87 158.4,89.4 "/>
<polygon class="st1" points="163.3,90.6 164.9,90.6 166.9,90.5 168.6,91.2 169.1,92.9 169.1,97.3 167.5,97.3 167.5,94.4 167.4,92.8 
	165.5,92.3 164.9,94.6 164.9,97.3 163.3,97.3 "/>
<path class="st1" d="M179.1,90.6v0.7l-2.1-0.9c-0.8,0-1.6,0.3-2.2,1c-0.6,0.7-0.9,1.5-0.9,2.5c0,1,0.3,1.8,0.9,2.5
	c0.6,0.7,1.4,1,2.2,1l2-0.2h1.7v-6.6H179.1z M178.7,95.4l-1.3,0.6l-1.3-0.6l-0.5-1.4l0.5-1.4l1.3-0.5l1.3,0.5l0.5,1.4L178.7,95.4z"
	/>
<rect x="182.3" y="88.1" class="st1" width="1.7" height="9.2"/>
<path class="st1" d="M189.1,88.3h1.7v5.8l0.6,1.6l1.5,0l0.6-1.8v-5.6h1.7v5.3c0,0.9-0.1,1.5-0.1,1.9l-1.6,1.7l-1.3,0.2l-1.7-0.5
	c-1.3-1.6-1.4-2.3-1.4-3.4V88.3z"/>
<path class="st1" d="M201,91.6l-2.2,0.4l0.6,1.3l1.3,1l-0.3,2.6l-1.7,0.6c-1,0-1.8-0.4-2.3-1.1l1.7-0.6l1.2,0.1l-1.1-1.4
	c-1.1-0.6-1.6-1.2-1.6-2l0.6-1.3l1.6-0.6l1.2,0.3L201,91.6z"/>
<path class="st1" d="M202.5,90.6h1.7v3.2l0.1,1.3l1.8,0.6l0.5-1.8v-3.2h1.7v2.8c0,1.2-0.1,1.9-0.3,2.4l-1,1.2l-1.6,0.4l-1.8-0.5
	l-0.9-1.4c-0.1-0.4-0.2-1.1-0.2-2.2V90.6z"/>
<path class="st1" d="M214.9,90.6v0.7l-2.1-0.9c-0.9,0-1.6,0.3-2.2,1c-0.6,0.7-0.9,1.5-0.9,2.5c0,1,0.3,1.8,0.9,2.5
	c0.6,0.7,1.4,1,2.2,1l2-0.2h1.7v-6.6H214.9z M214.4,95.4l-1.3,0.6l-1.3-0.6l-0.5-1.4l0.5-1.4l1.3-0.5l1.3,0.5l0.5,1.4L214.4,95.4z"
	/>
<path class="st1" d="M217.8,90.6h1.4l1.5-0.2l0.1,1.6c-1.3,0.6-1.4,1.3-1.4,2.2l0,3h-1.7V90.6z"/>
<polygon class="st1" points="222.8,87.9 223.6,89.7 222.1,89.7 222.1,88.2 "/>
<rect x="222" y="90.6" class="st1" width="1.7" height="6.6"/>
<path class="st1" d="M231.4,92.2l-1.3-1.3l-1.8-0.5c-0.9,0-1.6,0.3-2.3,0.9c-0.8,0.7-1.1,1.6-1.1,2.6c0,1,0.3,1.8,1,2.5
	c0.7,0.7,1.5,1,2.4,1l1.8-0.5l1.3-1.3l0.5-1.8L231.4,92.2z M229.6,95.3l-1.3,0.5l-1.3-0.5l-0.5-1.4l0.5-1.4l1.3-0.5l1.3,0.5l0.5,1.4
	L229.6,95.3z"/>
<path class="st1" d="M241.3,92.7l-2-0.8l1.6-3l-1.5-0.7l-2.3,4.5l-0.7,2.1l0.8,1.9c0.5,0.6,1.2,0.9,2,0.9l2-0.8l0.8-2
	C242.1,93.9,241.8,93.2,241.3,92.7z M240.1,95.6l-1.6,0l0.8-2.1l0.8,0.3V95.6z"/>
<path class="st1" d="M244.9,88.3h4.2v1.6h-2.9l-0.4,1.6c1.4-0.1,2.1,0.2,2.6,0.8c0.5,0.5,0.8,1.2,0.8,2.1c0,0.9-0.3,1.6-0.9,2.2
	c-0.6,0.6-1.3,0.9-2.2,0.9l-2-0.7l-1.1-1.8h1.8l1.3,0.8l1.4-1.5l-1.3-1.4l-2.5,0.3L244.9,88.3z"/>
<path class="st1" d="M256.1,90l-1.1-1.5l-1.7-0.5c-1,0-1.8,0.4-2.4,1.2c-0.5,0.7-0.8,1.9-0.8,3.6c0,1.2,0.1,2.1,0.4,2.7l1.1,1.4
	l1.7,0.5l1.7-0.5l1-1.5c0.3-0.7,0.4-1.6,0.4-2.8C256.5,91.6,256.3,90.7,256.1,90z M254.4,95.3l-2,0c-0.3-0.4-0.4-1.2-0.4-2.3
	c0-0.9,0.1-1.5,0.2-2l1.3-1.2l1,0.7c0.3,0.4,0.4,1.3,0.4,2.4C254.8,94,254.6,94.8,254.4,95.3z"/>
<path class="st1" d="M263.1,90l-1.1-1.5l-1.7-0.5c-1,0-1.8,0.4-2.4,1.2c-0.5,0.7-0.8,1.9-0.8,3.6c0,1.2,0.1,2.1,0.4,2.7l1.1,1.4
	l1.7,0.5L262,97l1-1.5c0.3-0.7,0.4-1.6,0.4-2.8C263.5,91.6,263.3,90.7,263.1,90z M261.3,95.3l-2,0c-0.3-0.4-0.4-1.2-0.4-2.3
	c0-0.9,0.1-1.5,0.2-2l1.3-1.2l1,0.7c0.3,0.4,0.4,1.3,0.4,2.4C261.8,94,261.6,94.8,261.3,95.3z"/>
<path class="st1" d="M269.2,92.4l0.8-1.8l-1.3-2.2l-1.4-0.3l-2.4,1.2l-0.1,2.2l-0.3,1.9l-0.3,1.3l1.4,2.4l1.7,0.3l2.7-1.3l0.4-1.4
	L269.2,92.4z M267.3,89.7L268,90l0,1.4h-1.4L267.3,89.7z M267.3,95.9l-1.4-1.3l1.5-1.3l1.4,1.3L267.3,95.9z"/>
<polygon class="st1" points="271.6,88.3 277.5,88.3 273.4,97.5 272,96.8 275.3,89.9 271.6,89.9 "/>
<path class="st1" d="M284.1,90l-1.1-1.5l-1.7-0.5c-1,0-1.8,0.4-2.4,1.2c-0.5,0.7-0.8,1.9-0.8,3.6c0,1.2,0.1,2.1,0.4,2.7l1.1,1.4
	l1.7,0.5L283,97l1.1-1.5c0.3-0.7,0.4-1.6,0.4-2.8C284.5,91.6,284.3,90.7,284.1,90z M282.3,95.3l-2,0c-0.3-0.4-0.4-1.2-0.4-2.3
	c0-0.9,0.1-1.5,0.2-2l1.3-1.2l1,0.7c0.3,0.4,0.4,1.3,0.4,2.4C282.8,94,282.6,94.8,282.3,95.3z"/>
<rect x="289.4" y="93.2" class="st1" width="3.1" height="1.6"/>
<path class="st1" d="M303.3,93.3l-1.2-1l0.9-1.7l-0.5-1.4l-1.3-0.8c-0.4-0.1-1-0.2-1.8-0.2h-1.4v9h2.5l2.7-1.2l0.4-1.4L303.3,93.3z
	 M299.8,89.9l1.3,0.2l0,1.4l-1.3,0.3V89.9z M299.8,95.6v-2.3h0.3l1.5,0.3l0.1,1.7L299.8,95.6z"/>
<path class="st1" d="M311.3,92.2l-1.3-1.3l-1.8-0.5c-0.9,0-1.6,0.3-2.3,0.9c-0.8,0.7-1.1,1.6-1.1,2.6c0,1,0.3,1.8,1,2.5
	c0.7,0.7,1.5,1,2.4,1l1.8-0.5l1.3-1.3l0.5-1.8L311.3,92.2z M309.6,95.3l-1.3,0.5l-1.3-0.5l-0.5-1.4l0.5-1.4l1.3-0.5l1.3,0.5l0.5,1.4
	L309.6,95.3z"/>
<path class="st1" d="M318.1,90.6v0.7l-2.1-0.9c-0.8,0-1.5,0.3-2.1,0.9c-0.6,0.6-1,1.5-1,2.5c0,1,0.3,1.8,0.9,2.4
	c0.6,0.7,1.4,1,2.3,1l1.8,0.3l-1.7,0.7l-1.5-0.6h-1.8l1.8,1.8l1.6,0.3c1.2,0,2.1-0.4,2.7-1.1c0.5-0.5,0.7-1.3,0.7-2.5v-5.7H318.1z
	 M317.6,95.2l-1.3,0.5l-1.3-0.5l-0.5-1.4l0.5-1.3l1.3-0.5l1.3,0.5l0.5,1.3L317.6,95.2z"/>
<path class="st1" d="M327.6,92.2l-1.3-1.3l-1.8-0.5c-0.9,0-1.6,0.3-2.3,0.9c-0.8,0.7-1.1,1.6-1.1,2.6c0,1,0.3,1.8,1,2.5
	c0.7,0.7,1.5,1,2.5,1l1.8-0.5l1.3-1.3l0.4-1.8L327.6,92.2z M325.8,95.3l-1.3,0.5l-1.3-0.5l-0.5-1.4l0.5-1.4l1.3-0.5l1.3,0.5l0.5,1.4
	L325.8,95.3z"/>
<polygon class="st1" points="329.6,88.2 331.2,88.2 331.2,90.6 332.2,92.1 331.2,97.3 329.6,97.3 329.6,92.1 328.7,90.6 "/>
<path class="st1" d="M338,90.6v0.7l-2.1-0.9c-0.9,0-1.6,0.3-2.2,1c-0.6,0.7-0.9,1.5-0.9,2.5c0,1,0.3,1.8,0.9,2.5
	c0.6,0.7,1.3,1,2.2,1l2-0.2h1.7v-6.6H338z M337.6,95.4l-1.3,0.6l-1.3-0.6l-0.5-1.4l0.5-1.4l1.3-0.5l1.3,0.5l0.5,1.4L337.6,95.4z"/>
<polygon class="st1" points="336.7,87 338.7,87 336.5,89.4 335.3,89.4 "/>
<polygon class="st1" points="342.2,95.6 343.4,96.2 341.9,98.7 "/>
<path class="st1" d="M355,90.4l-1.5-1.6c-0.6-0.3-1.6-0.5-2.9-0.5h-2v9h2c1.2,0,2-0.1,2.4-0.2l1.3-0.8l0.9-1.4l0.4-1.9
	C355.7,91.9,355.5,91.1,355,90.4z M352.8,95.3l-2.5,0.3v-5.7h0.6c1.1,0,1.8,0.2,2.3,0.7c0.5,0.5,0.8,1.3,0.8,2.2L352.8,95.3z"/>
<polygon class="st1" points="357.9,95.6 359.1,96.2 357.6,98.7 "/>
<path class="st1" d="M369.1,89.9l-1.2,1.1c-0.8-0.8-1.7-1.3-2.7-1.3c-0.9,0-1.6,0.3-2.2,0.9c-0.6,0.6-0.9,1.3-0.9,2.2l0.4,1.6
	l2.7,1.5l1.4-0.3l1.3-1l1.2,1.2l-1.9,1.3l-2,0.4c-1.4,0-2.6-0.5-3.4-1.3c-0.9-0.9-1.4-2-1.4-3.4c0-0.9,0.2-1.7,0.6-2.4l1.7-1.7
	c0.8-0.4,1.6-0.6,2.4-0.6l2.2,0.5L369.1,89.9z"/>
<polygon class="st1" points="101.8,103.3 103.5,103.3 103.5,110.6 106,110.6 106,112.3 101.8,112.3 "/>
<polygon class="st1" points="108.1,102 110,102 107.8,104.4 "/>
<rect x="107" y="105.6" class="st1" width="1.7" height="6.6"/>
<polygon class="st1" points="110.1,105.6 111.8,105.6 113.8,105.5 115.5,106.1 116,107.9 116,112.3 114.4,112.3 114.4,109.3 
	114.3,107.8 112.4,107.3 111.8,109.6 111.8,112.3 110.1,112.3 "/>
<path class="st1" d="M124.3,109.1c0-1.1-0.3-2-1-2.6c-0.6-0.7-1.5-1-2.6-1c-1,0-1.8,0.3-2.5,1c-0.6,0.7-1,1.5-1,2.5
	c0,1,0.3,1.8,1,2.5c0.7,0.7,1.5,1,2.6,1l1.7-0.4l1.3-1.1l-1.4-0.7l-1.6,0.7l-1.9-1.6h5.4V109.1z M119.6,107.3l1.2-0.4l1.8,1.2
	L119.6,107.3z"/>
<path class="st1" d="M130.5,105.6v0.7l-2.1-0.9c-0.8,0-1.6,0.3-2.2,1c-0.6,0.6-0.9,1.5-0.9,2.5c0,1,0.3,1.8,0.9,2.5
	c0.6,0.7,1.4,1,2.2,1l2-0.2h1.7v-6.6H130.5z M130.1,110.4l-1.3,0.5l-1.2-0.5l-0.5-1.4l0.5-1.4l1.3-0.5l1.3,0.5l0.5,1.4L130.1,110.4z
	"/>
<path class="st1" d="M145.9,104.8l-1.2,1.2c-0.7-0.8-1.6-1.2-2.6-1.2c-0.9,0-1.6,0.3-2.2,0.9c-0.6,0.6-0.9,1.3-0.9,2.1
	c0,0.9,0.3,1.6,0.9,2.2c0.6,0.6,1.4,0.9,2.3,0.9l1.5-0.4l-1.6-1.2v-1.6h4.5l-0.6,2.6l-1.6,1.6c-0.6,0.4-1.4,0.6-2.3,0.6
	c-0.9,0-1.7-0.2-2.5-0.6l-1.7-1.7c-0.4-0.8-0.6-1.5-0.6-2.4c0-1.2,0.4-2.2,1.2-3.1c0.9-1.1,2.2-1.6,3.6-1.6l2.2,0.4L145.9,104.8z"/>
<path class="st1" d="M147.5,105.6h1.5l1.5-0.2l0.1,1.6c-1.3,0.6-1.4,1.3-1.4,2.2l0,3h-1.7V105.6z"/>
<path class="st1" d="M156.8,105.6v0.7l-2.1-0.9c-0.9,0-1.6,0.3-2.2,1c-0.6,0.6-0.9,1.5-0.9,2.5c0,1,0.3,1.8,0.9,2.5
	c0.6,0.7,1.4,1,2.2,1l2-0.2h1.7v-6.6H156.8z M156.3,110.4l-1.3,0.5l-1.3-0.5l-0.5-1.4l0.5-1.4l1.3-0.5l1.3,0.5l0.5,1.4L156.3,110.4z
	"/>
<polygon class="st1" points="160.3,103.2 162,103.2 162,105.6 163,107 162,112.3 160.3,112.3 160.3,107 159.5,105.6 "/>
<path class="st1" d="M163.8,105.6h1.7v3.2l0.1,1.3l1.8,0.6l0.5-1.8v-3.3h1.7v2.8c0,1.2-0.1,1.9-0.3,2.4l-1,1.2l-1.6,0.4l-1.8-0.5
	l-0.9-1.4c-0.1-0.4-0.2-1.1-0.2-2.2V105.6z"/>
<polygon class="st1" points="172,102.9 172.8,104.7 171.3,104.7 171.3,103.2 "/>
<rect x="171.2" y="105.6" class="st1" width="1.7" height="6.6"/>
<polygon class="st1" points="174.6,103.2 176.2,103.2 176.2,105.6 177.2,107 176.2,112.3 174.6,112.3 174.6,107 173.7,105.6 "/>
<path class="st1" d="M183,105.6v0.7l-2.1-0.9c-0.8,0-1.6,0.3-2.2,1c-0.6,0.6-0.9,1.5-0.9,2.5c0,1,0.3,1.8,0.9,2.5
	c0.6,0.7,1.4,1,2.2,1l2-0.2h1.7v-6.6H183z M182.5,110.4l-1.3,0.5l-1.3-0.5l-0.5-1.4l0.5-1.4l1.3-0.5l1.3,0.5l0.5,1.4L182.5,110.4z"
	/>
<polygon class="st1" points="190,103.3 191.7,103.3 195.5,109.2 195.5,103.3 197.2,103.3 197.2,112.3 195.6,112.3 191.7,106.4 
	191.7,112.3 190,112.3 "/>
<path class="st1" d="M204,105.6v0.7l-2.1-0.9c-0.9,0-1.6,0.3-2.2,1c-0.6,0.6-0.9,1.5-0.9,2.5c0,1,0.3,1.8,0.9,2.5
	c0.6,0.7,1.3,1,2.2,1l2-0.2h1.7v-6.6H204z M203.6,110.4l-1.3,0.5l-1.3-0.5l-0.5-1.4l0.5-1.4l1.3-0.5l1.3,0.5l0.5,1.4L203.6,110.4z"
	/>
<path class="st1" d="M213.8,107l-1.4,0.8l-1.7-0.7l-1.5,0.6l-0.6,1.4l0.5,1.4l1.5,0.5l1.7-0.8l1.3,0.9c-0.7,0.9-1.7,1.4-3,1.4
	c-1.2,0-2.1-0.3-2.7-1c-0.7-0.7-1-1.5-1-2.4l0.5-1.8l1.3-1.3l1.9-0.5l1.8,0.4L213.8,107z"/>
<polygon class="st1" points="216,102.9 216.7,104.7 215.2,104.7 215.2,103.2 "/>
<rect x="215.2" y="105.6" class="st1" width="1.6" height="6.6"/>
<path class="st1" d="M224.5,107.2l-1.3-1.3l-1.8-0.5c-0.9,0-1.6,0.3-2.3,0.9c-0.8,0.7-1.2,1.5-1.2,2.6c0,1,0.3,1.8,1,2.5
	c0.7,0.7,1.5,1,2.4,1l1.8-0.5l1.3-1.3l0.5-1.8L224.5,107.2z M222.7,110.3l-1.3,0.5l-1.3-0.5l-0.5-1.4l0.5-1.4l1.3-0.5l1.3,0.5
	l0.5,1.4L222.7,110.3z"/>
<polygon class="st1" points="226.3,105.6 228,105.6 230,105.5 231.6,106.1 232.2,107.9 232.2,112.3 230.6,112.3 230.6,109.3 
	230.5,107.8 228.6,107.3 228,109.6 228,112.3 226.3,112.3 "/>
<path class="st1" d="M238.7,105.6v0.7l-2.1-0.9c-0.9,0-1.6,0.3-2.2,1c-0.6,0.6-0.9,1.5-0.9,2.5c0,1,0.3,1.8,0.9,2.5
	c0.6,0.7,1.4,1,2.2,1l2-0.2h1.7v-6.6H238.7z M238.2,110.4l-1.3,0.5l-1.3-0.5l-0.5-1.4l0.5-1.4l1.3-0.5l1.3,0.5l0.5,1.4L238.2,110.4z
	"/>
<rect x="241.9" y="103.1" class="st1" width="1.6" height="9.2"/>
<path class="st1" d="M254,105l-1.1-1.5l-1.7-0.5c-1,0-1.8,0.4-2.4,1.2c-0.5,0.8-0.8,1.9-0.8,3.6c0,1.2,0.1,2.1,0.4,2.7l1.1,1.4
	l1.7,0.5l1.7-0.5l1.1-1.5c0.3-0.7,0.4-1.6,0.4-2.8C254.4,106.6,254.2,105.7,254,105z M252.2,110.3l-2,0c-0.3-0.4-0.4-1.2-0.4-2.3
	c0-0.9,0-1.5,0.2-2l1.3-1.2l1,0.7c0.3,0.5,0.4,1.3,0.4,2.4C252.7,108.9,252.5,109.8,252.2,110.3z"/>
<polygon class="st1" points="256.8,103.3 259.3,103.3 259.3,112.3 257.6,112.3 257.6,104.9 255.8,104.9 "/>
<path class="st1" d="M267,107.4l0.8-1.8l-1.3-2.2l-1.4-0.3l-2.4,1.2l-0.1,2.3l-0.3,1.9l-0.3,1.3l1.4,2.4l1.7,0.3l2.7-1.3l0.4-1.5
	L267,107.4z M265.1,104.7l0.7,0.3l0,1.4l-1.4,0L265.1,104.7z M265.2,110.8l-1.4-1.3l1.5-1.3l1.4,1.3L265.2,110.8z"/>
<path class="st1" d="M274.9,105l-1.1-1.5l-1.7-0.5c-1,0-1.8,0.4-2.4,1.2c-0.5,0.8-0.8,1.9-0.8,3.6c0,1.2,0.1,2.1,0.4,2.7l1.1,1.4
	l1.7,0.5l1.7-0.5l1.1-1.5c0.3-0.7,0.4-1.6,0.4-2.8C275.3,106.6,275.2,105.7,274.9,105z M273.2,110.3l-2,0c-0.3-0.4-0.4-1.2-0.4-2.3
	c0-0.9,0-1.5,0.2-2l1.3-1.2l1,0.7c0.3,0.5,0.4,1.3,0.4,2.4C273.7,108.9,273.5,109.8,273.2,110.3z"/>
<path class="st1" d="M282,105l-1.1-1.5l-1.7-0.5c-1,0-1.8,0.4-2.3,1.2c-0.5,0.8-0.8,1.9-0.8,3.6c0,1.2,0.1,2.1,0.4,2.7l1.1,1.4
	l1.7,0.5l1.7-0.5l1-1.5c0.3-0.7,0.4-1.6,0.4-2.8C282.3,106.6,282.2,105.7,282,105z M280.2,110.3l-2,0c-0.3-0.4-0.4-1.2-0.4-2.3
	c0-0.9,0.1-1.5,0.2-2l1.3-1.2l1,0.7c0.3,0.5,0.4,1.3,0.4,2.4C280.6,108.9,280.5,109.8,280.2,110.3z"/>
<path class="st1" d="M288.9,105l-1.1-1.5l-1.7-0.5c-1,0-1.8,0.4-2.4,1.2c-0.5,0.8-0.8,1.9-0.8,3.6c0,1.2,0.1,2.1,0.4,2.7l1.1,1.4
	l1.7,0.5l1.7-0.5l1.1-1.5c0.3-0.7,0.4-1.6,0.4-2.8C289.3,106.6,289.2,105.7,288.9,105z M287.2,110.3l-2,0c-0.3-0.4-0.4-1.2-0.4-2.3
	c0-0.9,0.1-1.5,0.2-2l1.3-1.2l1,0.7c0.3,0.5,0.4,1.3,0.4,2.4C287.6,108.9,287.5,109.8,287.2,110.3z"/>
<path class="st1" d="M295.3,103.9l-2-0.8l-2,0.8l-0.8,2c0,0.8,0.3,1.5,0.8,2l1.9,0.8l-1.6,3l1.4,0.7l2.3-4.5l0.7-2.1L295.3,103.9z
	 M293.3,107.1l-1.2-1.2l1.2-1.2l1.1,1.2L293.3,107.1z"/>
<polygon class="st1" points="298.7,103.3 301.3,103.3 301.3,112.3 299.6,112.3 299.6,104.9 297.7,104.9 "/>
<path class="st1" d="M309.9,105l-1.1-1.5l-1.7-0.5c-1,0-1.8,0.4-2.4,1.2c-0.5,0.8-0.8,1.9-0.8,3.6c0,1.2,0.1,2.1,0.4,2.7l1.1,1.4
	l1.7,0.5l1.7-0.5l1.1-1.5c0.3-0.7,0.4-1.6,0.4-2.8C310.3,106.6,310.2,105.7,309.9,105z M308.2,110.3l-2,0c-0.3-0.4-0.4-1.2-0.4-2.3
	c0-0.9,0.1-1.5,0.2-2l1.3-1.2l1,0.7c0.3,0.5,0.4,1.3,0.4,2.4C308.6,108.9,308.5,109.8,308.2,110.3z"/>
<path class="st1" d="M313,105.5h-1.6l0.7-1.6c0.6-0.6,1.2-0.8,2.1-0.8l1.8,0.7l0.8,1.7l-1.3,1.9l1.3,0.9l0.4,1.4l-0.9,2
	c-0.6,0.6-1.4,0.8-2.3,0.8c-0.9,0-1.6-0.3-2.1-0.8c-0.5-0.5-0.8-1.2-0.9-2.2h1.7l1.4,1.4l1.4-1.3l-2.1-1.5v-1.5l1.4-0.6l-0.8-1.4
	L313,105.5z"/>
<path class="st1" d="M323,107.4l0.8-1.8l-1.3-2.2l-1.4-0.3l-2.4,1.2l-0.1,2.3l-0.3,1.9l-0.3,1.3l1.4,2.4l1.7,0.3l2.7-1.3l0.4-1.5
	L323,107.4z M321.1,104.7l0.7,0.3v1.4l-1.4,0L321.1,104.7z M321.2,110.8l-1.4-1.3l1.5-1.3l1.4,1.3L321.2,110.8z"/>
<path class="st1" d="M327,105.5h-1.6l0.7-1.6c0.5-0.6,1.2-0.8,2.1-0.8l1.8,0.7l0.8,1.7l-1.3,1.9l1.3,0.9l0.5,1.4l-0.9,2
	c-0.6,0.6-1.3,0.8-2.3,0.8c-0.9,0-1.6-0.3-2.1-0.8c-0.6-0.5-0.9-1.2-0.9-2.2h1.7l1.4,1.4l1.4-1.3l-2.1-1.5v-1.5l1.4-0.6l-0.7-1.4
	L327,105.5z"/>
<g>
	<g>
		<path class="st2" d="M158.7,68.9l2.5-1.5c1.8,3.2,3.8,4.8,6.1,4.8c1,0,1.9-0.2,2.8-0.7c0.9-0.5,1.5-1.1,2-1.8
			c0.4-0.8,0.7-1.6,0.7-2.4c0-1-0.4-1.9-1-2.9c-0.9-1.3-2.6-2.9-5-4.7c-2.4-1.8-3.9-3.2-4.5-4c-1.1-1.4-1.5-2.9-1.5-4.5
			c0-1.3,0.3-2.4,0.9-3.5c0.6-1,1.4-1.9,2.6-2.5c1.1-0.6,2.3-0.9,3.6-0.9c1.4,0,2.7,0.3,3.9,1c1.2,0.7,2.5,1.9,3.8,3.7l-2.4,1.8
			c-1.1-1.4-2-2.4-2.8-2.9c-0.8-0.5-1.6-0.7-2.5-0.7c-1.1,0-2.1,0.4-2.9,1.1c-0.8,0.7-1.1,1.6-1.1,2.6l0.4,1.8l1.5,1.9
			c0.4,0.4,1.6,1.3,3.8,2.9c2.5,1.9,4.3,3.5,5.2,5c1,1.5,1.4,2.9,1.4,4.4c0,2.1-0.8,3.9-2.4,5.5c-1.6,1.6-3.6,2.3-5.9,2.3
			c-1.8,0-3.4-0.5-4.8-1.4C161.2,72.7,159.9,71.1,158.7,68.9z"/>
		<path class="st2" d="M181.1,52.8h2.8v10.1c0,2.5,0.1,4.2,0.4,5.1c0.4,1.3,1.2,2.4,2.3,3.1c1.1,0.8,2.5,1.1,4,1.1
			c1.6,0,2.9-0.4,3.9-1.1c1.1-0.8,1.8-1.7,2.3-3c0.3-0.8,0.4-2.6,0.4-5.3V52.8h2.8v10.6c0,3-0.3,5.2-1,6.7c-0.7,1.5-1.7,2.7-3.1,3.5
			c-1.4,0.9-3.2,1.3-5.3,1.3c-2.1,0-3.9-0.4-5.3-1.3c-1.4-0.9-2.5-2-3.2-3.6c-0.7-1.5-1-3.8-1-6.9V52.8z"/>
		<path class="st2" d="M225.4,55.5c-2.2-2.2-4.8-3.3-7.9-3.3c-1.8,0-3.4,0.4-4.8,1.1c-1.4,0.7-2.7,1.9-3.8,3.4v-4h-2.8v29.5h2.8
			V70.7c1.2,1.4,2.5,2.5,3.9,3.2c1.5,0.7,3,1.1,4.7,1.1c3.1,0,5.7-1.1,7.8-3.3c2.2-2.2,3.2-4.9,3.2-8.1
			C228.7,60.4,227.6,57.8,225.4,55.5z M224.7,68c-0.8,1.4-1.8,2.5-3.1,3.2c-1.3,0.8-2.7,1.2-4.2,1.2c-1.5,0-2.9-0.4-4.3-1.2
			c-1.4-0.8-2.4-1.8-3.2-3.1c-0.7-1.3-1.1-2.8-1.1-4.4c0-2.5,0.8-4.6,2.5-6.2c1.6-1.7,3.7-2.5,6.1-2.5c1.5,0,3,0.4,4.3,1.1
			c1.3,0.8,2.3,1.8,3.1,3.2c0.8,1.4,1.2,2.8,1.2,4.4C225.9,65.1,225.5,66.6,224.7,68z"/>
		<path class="st2" d="M249.7,70.2c-0.7,0.6-1.6,1.1-2.7,1.5c-1,0.4-2.1,0.6-3.2,0.6c-2.3,0-4.2-0.8-5.7-2.4
			c-1.6-1.6-2.4-3.7-2.4-6.2h19.5c0-3-0.8-5.4-2.4-7.4c-2.2-2.8-5.1-4.2-8.8-4.2c-3.6,0-6.4,1.4-8.6,4.1c-1.7,2.1-2.5,4.6-2.5,7.3
			c0,2.9,1,5.5,3,7.8c2,2.3,4.7,3.5,8.3,3.5c1.6,0,3-0.2,4.3-0.7c1.3-0.5,2.4-1.2,3.4-2.1c1-0.9,1.9-2.1,2.7-3.7l-2.4-1.2
			C251.2,68.6,250.5,69.6,249.7,70.2z M238.5,56.9c1.5-1.4,3.3-2,5.5-2c1.3,0,2.5,0.3,3.7,0.8c1.2,0.5,2.1,1.3,2.8,2.1
			c0.7,0.9,1.3,2.1,1.6,3.5H236C236.5,59.4,237.4,57.9,238.5,56.9z"/>
		<path class="st2" d="M259.3,52.8h2.8v3.1c0.8-1.2,1.7-2.2,2.7-2.8c0.9-0.6,1.9-0.9,2.9-0.9c0.8,0,1.6,0.2,2.5,0.7l-1.4,2.3
			l-1.5-0.4c-0.9,0-1.8,0.4-2.7,1.1c-0.9,0.8-1.5,2-2,3.5c-0.3,1.3-0.5,3.7-0.5,7.5v7.3h-2.8V52.8z"/>
		<path class="st2" d="M283.4,55.1l-1.8,1.8c-1.5-1.4-2.9-2.1-4.4-2.1c-0.9,0-1.7,0.3-2.3,0.9l-1,2.1l0.8,2c0.5,0.7,1.7,1.4,3.4,2.3
			c2.1,1.1,3.5,2.1,4.2,3.1c0.7,1,1.1,2.1,1.1,3.4c0,1.8-0.6,3.3-1.9,4.5c-1.2,1.2-2.8,1.8-4.7,1.8c-1.2,0-2.4-0.3-3.6-0.8
			c-1.1-0.5-2.1-1.3-2.8-2.2l1.7-2c1.4,1.6,2.9,2.4,4.5,2.4c1.1,0,2.1-0.3,2.8-1.1c0.8-0.7,1.2-1.5,1.2-2.5l-0.8-2.1
			c-0.5-0.6-1.7-1.4-3.5-2.3c-1.9-1-3.3-2-4-3c-0.7-1-1.1-2.1-1.1-3.4c0-1.6,0.6-3,1.7-4.1c1.1-1.1,2.5-1.6,4.2-1.6
			C279.4,52.2,281.4,53.2,283.4,55.1z"/>
		<path class="st2" d="M307.1,52.8v4c-1.1-1.5-2.3-2.6-3.8-3.4c-1.4-0.8-3-1.1-4.8-1.1c-3.1,0-5.7,1.1-7.9,3.3
			c-2.2,2.2-3.3,4.9-3.3,8c0,3.2,1.1,5.9,3.2,8.1c2.2,2.2,4.8,3.3,7.8,3.3c1.7,0,3.3-0.4,4.8-1.1c1.5-0.7,2.7-1.8,3.9-3.2v3.7h2.7
			V52.8H307.1z M306.2,68.1c-0.7,1.3-1.8,2.3-3.1,3.1c-1.4,0.8-2.8,1.2-4.3,1.2c-1.5,0-2.9-0.4-4.2-1.2c-1.3-0.8-2.4-1.8-3.1-3.2
			c-0.8-1.4-1.2-2.8-1.2-4.3c0-1.6,0.4-3,1.2-4.4c0.8-1.4,1.8-2.4,3.1-3.2c1.3-0.8,2.7-1.1,4.3-1.1c2.4,0,4.4,0.8,6.1,2.5
			c1.6,1.7,2.5,3.8,2.5,6.2C307.3,65.3,306.9,66.8,306.2,68.1z"/>
		<polygon class="st2" points="315.6,44.4 318.4,44.4 318.4,74.4 315.7,74.4 		"/>
		<path class="st2" d="M323.8,52.8h2.8l0,10.1c0,2.5,0.1,4.2,0.4,5.1c0.4,1.3,1.2,2.4,2.3,3.1c1.1,0.8,2.5,1.1,4,1.1
			c1.5,0,2.9-0.4,4-1.1c1.1-0.8,1.8-1.7,2.2-3c0.3-0.8,0.4-2.6,0.4-5.3V52.8h2.8v10.6c0,3-0.3,5.2-1,6.7c-0.7,1.5-1.7,2.7-3.1,3.5
			c-1.4,0.9-3.2,1.3-5.3,1.3c-2.1,0-3.9-0.4-5.3-1.3c-1.4-0.9-2.5-2-3.2-3.6c-0.7-1.5-1.1-3.8-1.1-6.9V52.8z"/>
		<path class="st2" d="M370.5,74.4l0-29.9h-2.7v12.3c-1.1-1.5-2.3-2.6-3.8-3.4c-1.4-0.8-3-1.1-4.8-1.1c-3.1,0-5.7,1.1-7.9,3.3
			c-2.2,2.2-3.3,4.9-3.3,8c0,3.2,1.1,5.9,3.3,8.1c2.2,2.2,4.8,3.3,7.8,3.3c1.7,0,3.3-0.4,4.8-1.1c1.4-0.7,2.8-1.8,3.9-3.2v3.7H370.5
			z M366.8,68.1c-0.7,1.3-1.8,2.3-3.1,3.1c-1.4,0.8-2.8,1.2-4.3,1.2c-1.5,0-2.9-0.4-4.2-1.2c-1.3-0.8-2.4-1.8-3.1-3.2
			c-0.8-1.4-1.2-2.8-1.2-4.3c0-1.6,0.4-3,1.2-4.4c0.8-1.4,1.8-2.4,3.1-3.2c1.3-0.8,2.7-1.1,4.3-1.1c2.4,0,4.4,0.8,6,2.5
			c1.7,1.7,2.5,3.8,2.5,6.2C367.9,65.3,367.5,66.8,366.8,68.1z"/>
	</g>
</g>
<path class="st3" d="M373.4,17.6c10.9-17.5,33.8-22.9,51.3-12c17.5,10.9,22.9,33.8,12.1,51.3c-8.4,13.5-24,19.8-38.8,16.9
	c12.8,1.6,26-4.2,33.3-15.9c9.9-16,5-37.1-11.1-47c-16-9.9-37.1-5-47,11c-3.8,6.1-5.5,13-5.1,19.8C367.1,33.6,368.8,25.1,373.4,17.6
	z"/>
</svg>
