<?xml version="1.0" encoding="utf-8"?>
<!-- Generator: Adobe Illustrator 19.1.0, SVG Export Plug-In . SVG Version: 6.00 Build 0)  -->
<svg version="1.1" id="Layer_1" xmlns="http://www.w3.org/2000/svg" xmlns:xlink="http://www.w3.org/1999/xlink" x="0px" y="0px"
	 viewBox="-261 385.2 72.3 70.7" style="enable-background:new -261 385.2 72.3 70.7;" xml:space="preserve">
<style type="text/css">
	.st0{fill:#7C7B7B;}
	.st1{fill:#F3912D;}
	.st2{fill:#FFFFFF;}
</style>
<g>
	<path class="st0" d="M-215.7,453c-1.7-0.5-2-2-1.9-3.6h2.5c0,1.1,0,2.1,1.4,2.1c0.8,0,1.2-0.5,1.2-1.3c0-2.1-4.9-2.2-4.9-5.7
		c0-1.8,0.9-3.3,3.9-3.3c2.4,0,3.6,1.1,3.4,3.5h-2.4c0-0.9-0.1-1.8-1.1-1.8c-0.8,0-1.3,0.4-1.3,1.2c0,2.2,4.9,2,4.9,5.7
		c0,2-1,2.9-2.2,3.2"/>
	<path class="st0" d="M-204.1,444.9c0-1.1-0.2-2-1.5-2c-1.5,0-1.5,2.1-1.5,4.3c0,3.7,0.4,4.3,1.8,4.3c0.4,0,0.9-0.1,1.2-0.2v-2.6
		h-1.3v-1.8h3.8v5.9c-0.3,0.1-0.7,0.1-1.1,0.2h-4.2c-2.3-0.6-2.6-2.4-2.6-6c0-3,0.1-6,4.2-6c2.4,0,3.9,1.3,3.8,3.8"/>
	<path class="st0" d="M-197,441.1c2.1,0,3.3,0.8,3.5,2.7v0.8h-2.4c0-0.9-0.2-1.8-1.2-1.8c-0.8,0-1.3,0.4-1.3,1.2
		c0,2.1,4.2,2,4.9,4.9v1.7c-0.3,1.4-1.1,2-2.1,2.3h-3.4c-1.7-0.5-2-2-1.9-3.6h2.5c0,1.1,0.1,2.1,1.4,2.1c0.8,0,1.2-0.5,1.2-1.3
		c0-2.1-4.9-2.2-4.9-5.7C-200.8,442.6-200,441.1-197,441.1"/>
	<polyline class="st1" points="-224.3,453 -188.7,453 -188.7,453.5 -224.3,453.5 -224.3,453 	"/>
	<rect x="-193.5" y="438.9" class="st1" width="0.5" height="16.9"/>
	<path class="st1" d="M-233,422.1v-8.7l5.8,5.8l13.1-13.1c0,0,0,0,0,0c0,0,0,0,0,0c-3.4-3.3-8-5.4-13.1-5.4
		c-10.3,0-18.7,8.4-18.7,18.7c0,10.3,8.4,18.7,18.7,18.7c10.3,0,18.7-8.4,18.7-18.7c0-2.9-0.7-5.7-1.9-8.2l-16.8,16.8"/>
	<polyline class="st1" points="-261,421.6 -254.3,421 -254.2,422.3 -260.9,422.9 	"/>
	<path class="st1" d="M-260.5,425.9c-0.3-1.7,0.6-2.2,1.7-2.3l0.3,1.3c-0.6,0.1-1.2,0.3-1,1c0.1,0.5,0.4,0.6,0.9,0.5
		c1.2-0.2,0.7-3,2.6-3.4c1-0.2,1.9,0.1,2.3,1.7c0.3,1.3-0.2,2.1-1.6,2.3l-0.3-1.3c0.5-0.1,1-0.3,0.9-0.8c-0.1-0.4-0.4-0.6-0.8-0.6
		c-1.2,0.3-0.6,2.9-2.6,3.4C-259.9,428.1-260.3,426.9-260.5,425.9"/>
	<path class="st1" d="M-258.9,431.4c0.8,2.1,2.4,1.5,4,0.9c1.7-0.6,3.2-1.2,2.4-3.3c-0.8-2.1-2.4-1.5-4-0.9
		C-258.2,428.7-259.8,429.3-258.9,431.4 M-258,431c-0.3-0.7,0.4-1.1,2-1.7c1.6-0.6,2.3-0.8,2.6-0.1c0.3,0.7-0.4,1.1-2,1.7
		C-257,431.6-257.7,431.7-258,431z"/>
	<path class="st1" d="M-255.5,435.1c-1,0.6-1,1.4-0.4,2.3c1,1.6,2.4,0.7,3.8-0.2c1.5-1,2.8-1.8,1.8-3.4c-0.8-1.2-1.8-1-2.9-0.3
		c-0.7,0.5-1.3,1.2-0.8,2.1c0.2,0.3,0.5,0.6,0.9,0.7c-1.3,0.8-1.7,1.2-2,0.6c-0.1-0.2-0.1-0.3,0-0.4s0.2-0.2,0.3-0.3 M-252.3,434.5
		c0.3-0.2,1-0.6,1.3-0.1c0.3,0.5-0.3,0.9-0.6,1.1c-0.3,0.2-1,0.6-1.3,0.1C-253.3,435.1-252.7,434.7-252.3,434.5z"/>
	<path class="st1" d="M-248.2,436.8c-1-1.2-1.8-0.9-3.7,0.7c-1.6,1.3-2.5,2.2-1.4,3.5c1.1,1.3,2.2,0.6,3.7-0.7
		C-247.6,438.7-247.2,438-248.2,436.8 M-248.9,437.4c0.4,0.4,0.1,0.7-1.5,1.9c-1.5,1.3-1.8,1.5-2.2,1.1c-0.3-0.4,0-0.7,1.5-1.9
		C-249.5,437.2-249.2,437-248.9,437.4z"/>
	<path class="st1" d="M-245.6,439.4c-1.2-1.1-1.9-0.6-3.6,1.2c-1.4,1.5-2.2,2.5-0.9,3.7c1.3,1.2,2.2,0.3,3.6-1.2
		C-244.9,441.3-244.5,440.5-245.6,439.4 M-246.3,440.1c0.4,0.4,0.1,0.7-1.2,2.1c-1.3,1.4-1.6,1.7-2,1.4c-0.4-0.3-0.1-0.7,1.2-2.1
		C-246.9,440-246.7,439.7-246.3,440.1z"/>
	<path class="st1" d="M-244.7,441.7c0.5,0,1.1,0.1,1.6-0.1l1,0.7l-3.7,5.3l-1.1-0.8l2.8-4.1c-0.4,0-0.9,0-1.3,0"/>
	<path class="st2" d="M-226.9,387.2h-0.4v1.1h0.4c0.3,0,0.4-0.3,0.4-0.6C-226.4,387.3-226.6,387.2-226.9,387.2z"/>
	<g>
		<path class="st0" d="M-227,385.2c-18.8,0-34,14.6-34,33.4c0,0,6.7,0,6.7,0c0-15,12.2-26.6,27.2-26.6c15,0,27.2,12.2,27.2,27.2v17
			h6.8v-17C-193,400.4-208.2,385.2-227,385.2z M-251,403.5c-0.6,0.9-1.2,0.7-1.8,0.3l0.5-0.7c0.3,0.2,0.6,0.4,0.9,0
			c0.2-0.2,0.1-0.5-0.1-0.6c-0.6-0.4-1.6,1-2.6,0.3c-0.5-0.4-0.8-0.9-0.2-1.7c0.5-0.7,1-0.8,1.7-0.3l-0.5,0.7
			c-0.3-0.2-0.5-0.3-0.7,0c-0.2,0.2-0.1,0.5,0.1,0.6c0.6,0.4,1.5-1,2.6-0.3C-250.3,402.2-250.6,402.9-251,403.5z M-249.3,401.1
			l-1.1-0.9l-2.7-0.9l0.6-0.7l1.7,0.6l-0.9-1.6l0.6-0.7l1.3,2.6l1.1,0.9L-249.3,401.1z M-246.7,398.5c-0.8,0.7-1.3,0.4-1.8-0.1
			l0.6-0.6c0.3,0.3,0.5,0.5,0.8,0.2c0.2-0.2,0.2-0.4,0-0.6c-0.5-0.5-1.8,0.6-2.6-0.3c-0.4-0.5-0.6-1,0.2-1.7
			c0.6-0.6,1.2-0.6,1.7,0.1l-0.6,0.6c-0.2-0.2-0.5-0.4-0.7-0.2c-0.2,0.2-0.2,0.4,0,0.6c0.5,0.6,1.7-0.7,2.6,0.3
			C-245.8,397.4-246.3,398-246.7,398.5z M-244.6,396.6l-2-2.7l-0.8,0.6l-0.4-0.5l2.2-1.6l0.4,0.5l-0.8,0.6l2,2.7L-244.6,396.6z
			 M-242.7,395.2l-2.1-3.5l1.9-1.1l0.3,0.5l-1.2,0.7l0.5,0.9l1.1-0.6l0.3,0.5l-1.1,0.6l0.6,1l1.2-0.7l0.3,0.5L-242.7,395.2z
			 M-237.3,392.5l-1.2-2.9l0,0l0.5,3.2l-0.7,0.3l-1.9-2.6h0l1.2,2.9l-0.8,0.3l-1.6-3.7l1.3-0.5l1.7,2.3h0l-0.5-2.8l1.2-0.5l1.6,3.7
			L-237.3,392.5z M-233,391.3c-1.4,0.3-1.6-0.7-1.8-1.8c-0.2-1.1-0.4-2,0.9-2.3c0.8-0.2,1.3,0.2,1.4,1.1l-0.8,0.2
			c-0.1-0.5-0.3-0.7-0.5-0.7c-0.5,0.1-0.4,0.6-0.2,1.6c0.2,1,0.4,1.4,0.8,1.3c0.4-0.1,0.3-0.6,0.2-0.9l0.8-0.2
			C-231.9,390.7-232.2,391.1-233,391.3z M-231.1,390.9l-0.4-4l2.2-0.2l0.1,0.6l-1.4,0.1l0.1,1l1.3-0.1l0.1,0.6l-1.3,0.1l0.1,1.2
			l1.4-0.1l0.1,0.6L-231.1,390.9z M-226.4,390.6c-0.1-0.3-0.1-0.5-0.1-0.8c0-0.5,0.1-0.9-0.6-0.9h-0.2l0,1.7l-0.9,0l0-4.1l1.6,0
			c0.6,0,0.9,0.4,0.9,1.1c0,0.5-0.2,0.9-0.8,1v0c0.2,0,0.7,0.1,0.7,0.8c0,0.3,0,1,0.1,1.2L-226.4,390.6z M-222,387.6l-0.9-0.1
			l-0.4,3.4l-0.8-0.1l0.4-3.4l-0.9-0.1l0.1-0.7l2.7,0.3L-222,387.6z M-221,391.3l-0.8-0.2l0.8-4l0.8,0.2L-221,391.3z M-218.8,390
			l-0.5,1.7l-0.8-0.2l1.1-3.9l2,0.6l-0.2,0.6l-1.2-0.3l-0.3,1l1.2,0.3l-0.2,0.6L-218.8,390z M-217.6,392.2l1.4-3.8l0.8,0.3l-1.4,3.8
			L-217.6,392.2z M-214.7,393.5c-1.3-0.6-0.8-1.5-0.4-2.5c0.5-1,0.9-1.9,2.2-1.3c0.8,0.4,0.9,1,0.5,1.7l-0.8-0.4
			c0.2-0.5,0.2-0.7,0-0.8c-0.4-0.2-0.7,0.2-1.1,1.1c-0.4,0.9-0.6,1.4-0.2,1.6c0.4,0.2,0.6-0.3,0.7-0.6l0.8,0.4
			C-213.4,393.7-214,393.8-214.7,393.5z M-211.1,395.4l0.3-0.9l-1-0.6l-0.7,0.6l-0.7-0.4l3.1-2.8l0.9,0.6l-1.2,4L-211.1,395.4z
			 M-209.7,396.5l2.1-2.7l-0.7-0.6l0.4-0.5l2.2,1.7l-0.4,0.5l-0.7-0.6l-2.1,2.7L-209.7,396.5z M-207.9,398l2.8-3l0.6,0.6l-2.8,3
			L-207.9,398z M-205.8,400.2c-0.9-1-0.2-1.7,0.6-2.4c0.8-0.7,1.6-1.4,2.5-0.4c0.9,1,0.2,1.7-0.6,2.4
			C-204.1,400.6-204.8,401.3-205.8,400.2z M-202.6,404.4l-0.6-0.9l1.8-2.6l0,0l-2.5,1.7l-0.4-0.7l3.3-2.3l0.7,0.9l-1.7,2.5v0
			l2.3-1.6l0.4,0.7L-202.6,404.4z"/>
		<path class="st2" d="M-203.1,397.8c-0.3-0.4-0.7-0.1-1.5,0.6c-0.8,0.7-1.1,1-0.7,1.4c0.3,0.4,0.7,0.1,1.5-0.6
			C-203.1,398.5-202.8,398.2-203.1,397.8z"/>
		<polygon class="st2" points="-210.1,392.2 -211.4,393.5 -210.7,393.9 -210.1,392.2 		"/>
	</g>
</g>
</svg>
