<?xml version="1.0" encoding="utf-8"?>
<!-- Generator: Adobe Illustrator 16.0.0, SVG Export Plug-In . SVG Version: 6.00 Build 0)  -->
<!DOCTYPE svg PUBLIC "-//W3C//DTD SVG 1.1//EN" "http://www.w3.org/Graphics/SVG/1.1/DTD/svg11.dtd">
<svg version="1.1" id="Layer_1" xmlns="http://www.w3.org/2000/svg" xmlns:xlink="http://www.w3.org/1999/xlink" x="0px" y="0px"
	 width="72.329px" height="70.675px" viewBox="0 0 72.329 70.675" enable-background="new 0 0 72.329 70.675" xml:space="preserve">
<g>
	<path fill="#FFFFFF" d="M45.329,67.791c-1.705-0.526-2.049-1.99-1.942-3.611h2.461c0,1.119,0.045,2.057,1.396,2.057
		c0.826,0,1.23-0.535,1.23-1.33c0-2.105-4.938-2.24-4.938-5.727c0-1.831,0.879-3.295,3.864-3.295c2.392,0,3.586,1.07,3.418,3.521
		H48.43c0-0.878-0.15-1.765-1.143-1.765c-0.791,0-1.267,0.436-1.267,1.246c0,2.225,4.946,2.031,4.946,5.711
		c0,2.031-1.002,2.867-2.223,3.193"/>
	<path fill="#FFFFFF" d="M56.944,59.681c0.018-1.088-0.168-2.041-1.469-2.041c-1.527,0-1.527,2.059-1.527,4.332
		c0,3.662,0.359,4.313,1.756,4.313c0.414,0,0.854-0.092,1.223-0.226v-2.601H55.59V61.66h3.795v5.938
		c-0.264,0.06-0.676,0.125-1.143,0.19h-4.199c-2.275-0.567-2.582-2.373-2.582-5.953c0-2.951,0.147-5.953,4.164-5.953
		c2.405,0,3.899,1.348,3.76,3.798"/>
	<path fill="#FFFFFF" d="M64.024,55.884c2.145-0.008,3.313,0.837,3.48,2.718v0.804h-2.392c0-0.854-0.211-1.766-1.202-1.766
		c-0.8,0-1.273,0.436-1.273,1.246c0,2.057,4.227,2.049,4.867,4.941v1.696c-0.264,1.371-1.125,1.99-2.135,2.267h-3.429
		c-1.694-0.526-2.037-1.99-1.933-3.611h2.451c0,1.119,0.054,2.057,1.396,2.057c0.834,0,1.238-0.535,1.238-1.33
		c0-2.105-4.945-2.24-4.945-5.727C60.151,57.348,61.028,55.893,64.024,55.884"/>
	<polyline fill="#FFFFFF" points="36.692,67.783 72.329,67.783 72.329,68.259 36.692,68.259 36.692,67.783 	"/>
	<rect x="67.487" y="53.728" fill="#FFFFFF" width="0.475" height="16.947"/>
	<path fill="#FFFFFF" d="M28.002,36.871v-8.703l5.799,5.794l13.143-13.144c-0.008-0.008-0.025-0.017-0.035-0.025
		c0-0.008,0-0.008-0.008-0.008c-3.365-3.328-7.996-5.376-13.1-5.376c-10.315,0-18.671,8.361-18.671,18.678
		c0,10.31,8.355,18.67,18.671,18.67c10.315,0,18.67-8.36,18.67-18.67c0-2.942-0.676-5.719-1.889-8.193L33.801,42.675"/>
	<polyline fill="#FFFFFF" points="0,36.335 6.651,35.743 6.766,37.105 0.123,37.699 	"/>
	<path fill="#FFFFFF" d="M0.466,40.66c-0.334-1.664,0.597-2.184,1.739-2.342l0.281,1.346c-0.633,0.127-1.151,0.26-1.002,0.996
		c0.097,0.45,0.439,0.618,0.888,0.526c1.178-0.243,0.694-2.961,2.645-3.354c1.02-0.209,1.934,0.102,2.267,1.739
		c0.272,1.304-0.193,2.073-1.581,2.267L5.43,40.535c0.492-0.102,0.976-0.285,0.861-0.828c-0.088-0.436-0.387-0.646-0.835-0.553
		c-1.239,0.26-0.58,2.936-2.636,3.354C1.125,42.85,0.677,41.679,0.466,40.66"/>
	<path fill="#FFFFFF" d="M2.056,46.162c0.809,2.105,2.398,1.496,4.024,0.869c1.651-0.628,3.225-1.23,2.416-3.337
		s-2.381-1.505-4.024-0.878C2.838,43.443,1.247,44.046,2.056,46.162 M2.987,45.802c-0.272-0.721,0.378-1.079,1.977-1.689
		c1.6-0.609,2.328-0.785,2.601-0.066c0.272,0.728-0.378,1.078-1.977,1.688C3.989,46.353,3.26,46.521,2.987,45.802z"/>
	<path fill="#FFFFFF" d="M5.526,49.848c-1.046,0.636-1.028,1.37-0.439,2.3c0.984,1.563,2.434,0.678,3.778-0.176
		c1.528-0.971,2.82-1.771,1.818-3.361c-0.764-1.203-1.836-0.97-2.899-0.293c-0.729,0.46-1.282,1.246-0.765,2.064
		c0.22,0.344,0.519,0.578,0.923,0.662c-1.291,0.817-1.704,1.162-2.038,0.627c-0.105-0.159-0.097-0.301-0.035-0.428
		c0.062-0.125,0.193-0.234,0.334-0.316 M8.681,49.253c0.343-0.209,0.976-0.609,1.265-0.142c0.29,0.459-0.298,0.853-0.641,1.07
		c-0.334,0.217-0.984,0.594-1.274,0.133C7.74,49.856,8.347,49.472,8.681,49.253z"/>
	<path fill="#FFFFFF" d="M12.846,51.58c-1.002-1.197-1.802-0.879-3.699,0.709c-1.556,1.297-2.469,2.232-1.38,3.537
		c1.099,1.305,2.179,0.568,3.734-0.728C13.39,53.509,13.847,52.774,12.846,51.58 M12.125,52.181
		c0.352,0.418,0.062,0.669-1.459,1.947c-1.502,1.254-1.845,1.479-2.17,1.096c-0.325-0.393-0.035-0.693,1.459-1.947
		C11.475,52.005,11.773,51.763,12.125,52.181z"/>
	<path fill="#FFFFFF" d="M15.358,54.205c-1.151-1.055-1.907-0.627-3.576,1.188c-1.362,1.496-2.152,2.541-0.896,3.695
		c1.257,1.152,2.231,0.274,3.594-1.221C16.148,56.052,16.509,55.257,15.358,54.205 M14.726,54.897
		c0.396,0.368,0.149,0.661-1.195,2.124c-1.317,1.438-1.634,1.714-2.012,1.371c-0.369-0.344-0.123-0.686,1.195-2.124
		C14.058,54.806,14.321,54.531,14.726,54.897z"/>
	<path fill="#FFFFFF" d="M16.289,56.47c0.519,0.042,1.055,0.051,1.573-0.117l0.993,0.693l-3.69,5.293l-1.125-0.785l2.847-4.072
		c-0.431,0.042-0.869,0.025-1.291-0.018"/>
	<path fill="#FFFFFF" d="M68.004,51.052V34.037C68.004,15.233,52.77,0,33.977,0C15.174,0,0.009,14.59,0.009,33.385
		c0,0.025,6.739,0.025,6.739,0c0-15.033,12.186-26.579,27.229-26.579c15.031,0,27.227,12.19,27.227,27.231v17.015"/>
	<path fill="#FFFFFF" d="M10.043,18.243c-0.589,0.87-1.204,0.694-1.767,0.268l0.475-0.71c0.325,0.217,0.606,0.385,0.861,0
		c0.158-0.243,0.088-0.46-0.141-0.619c-0.606-0.401-1.6,0.995-2.601,0.318c-0.527-0.351-0.782-0.886-0.202-1.748
		c0.456-0.686,1.001-0.819,1.669-0.301L7.88,16.137c-0.255-0.167-0.536-0.301-0.729-0.017c-0.157,0.234-0.122,0.452,0.114,0.61
		c0.642,0.426,1.538-1.028,2.593-0.317C10.736,16.998,10.402,17.708,10.043,18.243"/>
	<polyline fill="#FFFFFF" points="10.657,14.941 7.951,14.029 8.558,13.327 10.253,13.971 9.366,12.374 9.929,11.713 11.211,14.297 
		12.283,15.208 11.729,15.852 	"/>
	<path fill="#FFFFFF" d="M14.26,13.252c-0.765,0.719-1.336,0.401-1.783-0.142l0.623-0.577c0.264,0.275,0.501,0.51,0.844,0.184
		c0.211-0.192,0.185-0.426,0-0.627c-0.501-0.535-1.783,0.602-2.609-0.276c-0.431-0.468-0.554-1.045,0.202-1.748
		c0.606-0.568,1.16-0.577,1.695,0.083l-0.605,0.56c-0.202-0.217-0.457-0.409-0.703-0.175c-0.202,0.184-0.22,0.41-0.026,0.61
		c0.527,0.568,1.73-0.652,2.601,0.284C15.218,12.19,14.734,12.809,14.26,13.252"/>
	<polyline fill="#FFFFFF" points="15.358,7.057 15.763,7.592 15.007,8.16 17.027,10.869 16.351,11.379 14.321,8.67 13.565,9.239 
		13.161,8.695 	"/>
	<polyline fill="#FFFFFF" points="18.258,10 16.175,6.521 18.082,5.384 18.398,5.919 17.229,6.622 17.739,7.475 18.82,6.831 
		19.145,7.366 18.064,8.01 18.671,9.03 19.883,8.302 20.199,8.837 	"/>
	<polyline fill="#FFFFFF" points="20.771,8.486 19.18,4.757 20.437,4.222 22.105,6.505 22.114,6.505 21.658,3.704 22.87,3.186 
		24.461,6.915 23.705,7.24 22.475,4.356 22.466,4.364 22.976,7.55 22.229,7.868 20.313,5.284 20.305,5.284 21.535,8.16 	"/>
	<path fill="#FFFFFF" d="M26.209,4.322c-0.229-1.053-0.439-2.048,0.932-2.349c0.844-0.176,1.282,0.217,1.432,1.079l-0.808,0.167
		c-0.114-0.526-0.255-0.702-0.501-0.652c-0.466,0.101-0.431,0.552-0.22,1.572c0.22,1.02,0.378,1.446,0.843,1.346
		c0.387-0.083,0.264-0.577,0.211-0.895l0.817-0.175c0.229,1.062-0.123,1.497-0.905,1.664C26.64,6.371,26.429,5.359,26.209,4.322"/>
	<polyline fill="#FFFFFF" points="29.891,5.66 29.478,1.63 31.683,1.404 31.753,2.023 30.392,2.157 30.488,3.152 31.744,3.026 
		31.806,3.646 30.55,3.779 30.673,4.958 32.078,4.808 32.14,5.435 	"/>
	<path fill="#FFFFFF" d="M33.73,3.721h0.219c0.65,0.008,0.606,0.418,0.598,0.903c0,0.259-0.026,0.535,0.088,0.786l0.835,0.009
		c-0.079-0.176-0.088-0.937-0.088-1.196c0.009-0.728-0.545-0.778-0.729-0.803V3.411c0.554-0.092,0.756-0.477,0.756-0.995
		c0.009-0.686-0.36-1.062-0.94-1.062l-1.572-0.017l-0.026,4.055L33.724,5.4 M33.739,1.973h0.377c0.272,0,0.439,0.15,0.431,0.535
		c0,0.259-0.097,0.593-0.439,0.593H33.74V1.973H33.739z"/>
	<polyline fill="#FFFFFF" points="39.045,1.722 38.967,2.391 38.026,2.282 37.639,5.644 36.797,5.543 37.182,2.19 36.243,2.082 
		36.322,1.413 	"/>
	<polyline fill="#FFFFFF" points="39.151,5.877 39.952,1.906 40.786,2.073 39.987,6.045 	"/>
	<polyline fill="#FFFFFF" points="40.856,6.237 41.963,2.341 43.993,2.91 43.825,3.512 42.614,3.169 42.333,4.172 43.491,4.498 
		43.315,5.1 42.157,4.766 41.682,6.471 	"/>
	<polyline fill="#FFFFFF" points="43.448,7.031 44.854,3.227 45.653,3.52 44.247,7.324 	"/>
	<path fill="#FFFFFF" d="M45.926,5.794c0.455-0.97,0.895-1.898,2.16-1.296c0.783,0.376,0.896,0.953,0.492,1.723l-0.757-0.352
		c0.238-0.485,0.238-0.71,0.011-0.819c-0.439-0.209-0.687,0.176-1.125,1.112c-0.449,0.936-0.59,1.371-0.15,1.58
		c0.352,0.167,0.555-0.301,0.703-0.585l0.756,0.36c-0.465,0.978-1.002,1.112-1.723,0.769C45.03,7.684,45.469,6.755,45.926,5.794"/>
	<path fill="#FFFFFF" d="M50.907,7.023l-0.008-0.008l-1.266,1.279l0.686,0.426 M47.77,8.921l3.119-2.834l0.949,0.602l-1.23,4.014
		l-0.756-0.477l0.291-0.878l-0.984-0.619l-0.676,0.636L47.77,8.921z"/>
	<polyline fill="#FFFFFF" points="55.186,9.172 54.774,9.699 54.026,9.113 51.934,11.772 51.268,11.254 53.358,8.586 52.612,8.01 
		53.034,7.475 	"/>
	<polyline fill="#FFFFFF" points="53.104,12.767 55.862,9.791 56.477,10.376 53.719,13.344 	"/>
	<path fill="#FFFFFF" d="M55.239,15.016c0.932,1.045,1.705,0.351,2.496-0.359c0.799-0.711,1.563-1.396,0.631-2.441
		c-0.939-1.037-1.703-0.36-2.504,0.359C55.071,13.277,54.307,13.971,55.239,15.016 M55.696,14.606
		c-0.326-0.351-0.027-0.702,0.746-1.396c0.773-0.686,1.152-0.944,1.469-0.585c0.314,0.359,0.025,0.702-0.748,1.396
		C56.39,14.715,56.012,14.966,55.696,14.606z"/>
	<polyline fill="#FFFFFF" points="56.733,16.655 60.081,14.364 60.731,15.309 59.026,17.784 59.026,17.792 61.344,16.212 
		61.793,16.864 58.446,19.155 57.813,18.235 59.641,15.643 59.631,15.635 57.18,17.307 	"/>
</g>
</svg>
