<?xml version="1.0" encoding="utf-8"?>
<!-- Generator: Adobe Illustrator 19.1.0, SVG Export Plug-In . SVG Version: 6.00 Build 0)  -->
<svg version="1.1" id="Capa_1" xmlns="http://www.w3.org/2000/svg" xmlns:xlink="http://www.w3.org/1999/xlink" x="0px" y="0px"
	 viewBox="0 0 388.8 410" style="enable-background:new 0 0 388.8 410;" xml:space="preserve">
<style type="text/css">
	.st0{fill:#FFFFFF;}
	.st1{fill:#00A0D8;}
	.st2{fill:#E41918;}
	.st3{fill:none;}
	.st4{fill:#B51918;}
	.st5{fill:#F4E8E1;}
	.st6{fill:#F9F5F4;}
</style>
<g>
	<g>
		<g>
			<path class="st0" d="M329.5,329.2C447.4,105,308.4,23.8,215.5,10.4C122.2-3.1,85.7,88.5,71.7,95.9
				c-22.6,11.9-16.5,37.9-16.5,37.9c-15.3,0.2-20.3,7.4-21.3,15.3c-10.5,1.9-19.7,9.2-23.3,20.1c-5.3,15.7,3.2,32.8,19,38
				l215.8,72.1c15.7,5.3,32.8-3.2,38-19c4.6-13.9-1.4-28.8-13.7-35.7c-3.3-8.5-9.8-15.2-9.8-15.2c21.8-7,4-47.7,4-47.7
				c15.5,36.9,32.2,19.9,32.2,19.9c21.8,39.1,17.8,121.8,19.1,143.5c-14.3-0.7-28,8.1-32.7,22.4c-5.8,17.2,3.5,35.9,20.8,41.7
				c17.2,5.8,35.9-3.5,41.7-20.8C350.1,353.1,343.3,336.7,329.5,329.2z"/>
			<path class="st1" d="M202.2,10L202.2,10c-28.3,0-54.4,9.5-77.6,28.2C105.4,53.6,91.7,72.5,82.7,85c-3.8,5.2-8.5,11.7-10.3,13
				c-11.8,6.2-19.2,16.6-21.3,29.9c-0.5,2.9-0.6,5.6-0.6,8c-11.6,2.7-16.7,9.8-19,15.8C20,155.6,10.9,164.6,7,176.3
				c-3.3,9.9-2.6,20.5,2.1,29.8c4.7,9.3,12.7,16.3,22.6,19.6l215.8,72.1c4,1.3,8.2,2,12.4,2c16.8,0,31.7-10.7,37-26.7
				c5.6-16.7-0.8-35-15.1-44.7c-1.2-2.6-2.6-4.9-3.9-6.9c1.6-1.8,2.9-3.8,4-6.1c1.7-3.7,2.5-7.8,2.7-12c2.2,0.7,4.5,1.1,6.9,1.1
				c2,0,3.8-0.3,5.5-0.7c13,31.5,13.5,84.3,13.8,113.7c0,3.4,0.1,6.5,0.1,9.3c-14.7,2.8-27.1,13.3-32,27.9
				c-7.3,21.9,4.5,45.7,26.5,53.1c4.3,1.4,8.8,2.2,13.3,2.2c18.1,0,34-11.5,39.8-28.6c5.5-16.4,0.3-34.1-12.4-45
				c24-47.2,38-90.9,41.7-129.9c3.4-36.7-2.2-69.8-16.7-98.2c-14.4-28.1-37-51.3-67.2-68.7c-30.9-17.8-61.7-25.1-82.1-28
				C215.2,10.5,208.6,10,202.2,10L202.2,10C202.2,10,202.2,10,202.2,10L202.2,10C202.2,10,202.2,10,202.2,10L202.2,10z"/>
			<path class="st0" d="M197.2,0L197.2,0c-28.3,0-54.4,9.5-77.6,28.2C100.4,43.6,86.7,62.5,77.7,75c-3.8,5.2-8.5,11.7-10.3,13
				c-11.8,6.2-19.2,16.6-21.3,29.9c-0.5,2.9-0.6,5.6-0.6,8c-11.6,2.7-16.7,9.8-19,15.8C15,145.6,5.9,154.6,2,166.3
				c-3.3,9.9-2.6,20.5,2.1,29.8c4.7,9.3,12.7,16.3,22.6,19.6l215.8,72.1c4,1.3,8.2,2,12.4,2c16.8,0,31.7-10.7,37-26.7
				c5.6-16.7-0.8-35-15.1-44.7c-1.2-2.6-2.6-4.9-3.9-6.9c1.6-1.8,2.9-3.8,4-6.1c1.7-3.7,2.5-7.8,2.7-12c2.2,0.7,4.5,1.1,6.9,1.1
				c2,0,3.8-0.3,5.5-0.7c13,31.5,13.5,84.3,13.8,113.7c0,3.4,0.1,6.5,0.1,9.3c-14.7,2.8-27.1,13.3-32,27.9
				c-7.3,21.9,4.5,45.7,26.5,53.1c4.3,1.4,8.8,2.2,13.3,2.2c18.1,0,34-11.5,39.8-28.6c5.5-16.4,0.3-34.1-12.4-45
				c24-47.2,38-90.9,41.7-129.9c3.4-36.7-2.2-69.8-16.7-98.2c-14.4-28.1-37-51.3-67.2-68.7c-30.9-17.8-61.7-25.1-82.1-28
				C210.2,0.5,203.6,0,197.2,0L197.2,0C197.2,0,197.2,0,197.2,0L197.2,0C197.2,0,197.2,0,197.2,0L197.2,0z"/>
		</g>
		<path class="st2" d="M37.1,167.9c0,0-15-33.8,18.1-34.2c0,0-6.2-26.1,16.5-37.9c14-7.3,50.6-99,143.9-85.5
			c93.3,13.5,233.2,95.4,112.4,321.9c0,0-11.1,14.2-12.6-6.1c-1.5-20.2,3-104.8-19.2-144.5c0,0-16.7,17-32.2-19.9
			c0,0,17.8,40.7-4,47.7c0,0,9.5,9.9,11.3,20.8c2,12.4-4.5,25.5-20.4,15.6C250.8,245.9,178.2,183.6,37.1,167.9z"/>
		<path class="st3" d="M215.5,10.4C122.2-3.1,85.7,88.5,71.7,95.9c-22.6,11.9-16.5,37.9-16.5,37.9c-33.2,0.3-18.1,34.2-18.1,34.2
			c141.1,15.7,213.8,77.9,213.8,77.9c10.7-14.9-15.3-36.3-35.4-49.8c-1-0.6-1.3-1.9-0.8-2.9c0.5-1,1.7-1.5,2.8-1.1
			c23,8.1,38.5,11.9,48.9,13.4c11.1-12.5-2.4-43.6-2.4-43.6c15.5,36.9,32.2,19.9,32.2,19.9c22.1,39.7,17.7,124.3,19.2,144.5
			c1.5,20.3,12.6,6.1,12.6,6.1C448.8,105.7,308.9,23.8,215.5,10.4z"/>
		<g>
			<path class="st3" d="M259.9,209.4c21.8-7,4-47.7,4-47.7c15.5,36.9,32.2,19.9,32.2,19.9c8.5,15.2,13,36.9,15.5,59.2
				c4.3-8.4,7.3-13.9,7.3-13.9s3.3,87.1,28.1,65.9C432,96.1,303.2,23,215.5,10.4C122.2-3.1,85.7,88.5,71.7,95.9
				c-22.6,11.9-16.5,37.9-16.5,37.9c-33.2,0.3-18.1,34.2-18.1,34.2c141.1,15.7,213.8,77.9,213.8,77.9c15.9,9.9,22.4-3.3,20.4-15.6
				C269.4,219.3,259.9,209.4,259.9,209.4z"/>
			<path class="st4" d="M323,264.5c-4.7-44.5-17.1-91.6-23.5-114.2c-0.3-0.9-1.2-1.5-2.1-1.5c-1,0.1-1.7,0.9-1.8,1.8
				c-0.9,9.6-3.4,16.1-3.4,16.1c-4.8,16-18.8,0.8-30.4-16c-0.5-0.8-1.6-1-2.4-0.6c-0.8,0.4-1.2,1.4-0.9,2.3c0.2,0.5,0.3,0.8,0.3,0.8
				c15.4,40.6-2.6,47.7-21,44c-6.1-1.2-13.3-3.2-21.1-5.8c-1.1-0.4-2.3,0.1-2.8,1.2c-0.5,1-0.2,2.3,0.8,2.9
				c20.2,13.5,47.3,35.3,36.5,50.3c13.9,8.6,21-0.3,21-11v0c0-0.7-0.3-1.5-0.4-2.3c-0.1-0.8-0.3-1.6-0.4-2.3
				c-1.8-10.9-11.4-20.8-11.4-20.8c0.7-0.2,1.3-0.5,1.9-0.8c0.1,0,0.1-0.1,0.2-0.1c0.5-0.3,1-0.5,1.5-0.8c0,0,0.1-0.1,0.1-0.1
				c15.8-10.3,0.3-45.9,0.3-45.9c15.5,36.9,32.2,19.9,32.2,19.9c8.5,15.2,13,36.9,15.5,59.2l0,0c0.2,2.1,0.5,4.2,0.7,6.4
				c0,0.3,0,0.5,0.1,0.8c2.8,29.7,2.2,59.1,2.7,73.5c0,0.1,0,0.2,0,0.3c0,0.8,0.1,1.5,0.1,2.2c0,0.1,0,0.3,0,0.4
				c0,0.7,0.1,1.3,0.1,1.9c1.5,20.3,12.6,6.1,12.6,6.1c7.3-13.7,13.6-26.8,19.1-39.5C333.9,304,325.2,285.2,323,264.5z"/>
		</g>
		<path class="st4" d="M189.3,59.8"/>
		<circle class="st5" cx="313.7" cy="358" r="32.9"/>
		<path class="st6" d="M300.8,353.8c9.3-8.4,20.4-12.1,32.1-13c1.7-0.1,3.2-1.3,3.7-2.9c0.5-1.6,0.1-3.4-1.2-4.5
			c-3.2-2.8-6.9-5-11.2-6.5c-17.2-5.8-35.9,3.5-41.7,20.8c-2.3,7-2.2,14.3,0,20.8c0.6,1.7,2.1,2.9,3.9,2.9c1.8,0,3.4-1,4.1-2.7
			C292.6,363.2,296,358.1,300.8,353.8z"/>
		<path class="st4" d="M88.7,153.9c0.7,0,1.4-0.5,1.6-1.3c0.2-0.7-0.1-1.5-0.7-1.9c-24.2-16.4-19.3-35.5,5.5-30.5
			c0.7,0.1,1.4-0.2,1.8-0.8c0.4-0.6,0.3-1.4-0.1-2C75.1,88.8,113,55,125.6,34.9c-30,24-45.8,56.7-53.9,61
			c-22.6,11.9-16.5,37.9-16.5,37.9c-33.2,0.3-18.1,34.2-18.1,34.2c5.2,0.6,10.3,1.2,15.3,1.9C61.5,156.8,79.3,154.3,88.7,153.9z"/>
		<path class="st5" d="M283.3,260.3c-5.3,15.7-22.3,24.2-38,19L29.5,207.1c-15.7-5.3-24.2-22.3-19-38c5.3-15.7,22.3-24.2,38-19
			l215.8,72.1C280.1,227.5,288.6,244.6,283.3,260.3z"/>
		<path class="st6" d="M61.1,172.8c28,5.1,49.8,23.8,75.3,35c24,10.5,51.5,22,78.1,21.8c10.8-0.1,21.1-2.7,31.2-5.6
			c1.7-0.5,2.9-2,3-3.8c0-1.8-1.1-3.4-2.8-4l-197.4-66c-15.7-5.3-32.8,3.2-38,19c-1.1,3.3-1.6,6.7-1.5,10.1c0.1,2.6,1.5,4.9,3.8,6.1
			c2.3,1.2,5,1,7.2-0.5C32.2,176.4,44.4,169.7,61.1,172.8z"/>
	</g>
</g>
</svg>
