<?xml version="1.0" encoding="utf-8"?>
<!-- Generator: Adobe Illustrator 16.0.0, SVG Export Plug-In . SVG Version: 6.00 Build 0)  -->
<!DOCTYPE svg PUBLIC "-//W3C//DTD SVG 1.1//EN" "http://www.w3.org/Graphics/SVG/1.1/DTD/svg11.dtd">
<svg version="1.1" id="Capa_1" xmlns="http://www.w3.org/2000/svg" xmlns:xlink="http://www.w3.org/1999/xlink" x="0px" y="0px"
	 width="414.937px" height="414.057px" viewBox="0 0 414.937 414.057" enable-background="new 0 0 414.937 414.057"
	 xml:space="preserve">
<g>
	<path fill="#36A9E0" d="M159.138,256.013c37.217,36.944,80.295,72.235,97.208,55.194c24.215-24.392,39.119-45.613,92.854-2.76
		c53.733,42.873,12.695,71.727-10.757,95.362c-27.064,27.269-128.433,1.911-228.909-97.804
		C9.062,206.271-17.07,105.101,10.014,77.818c23.46-23.637,52.006-64.879,95.254-11.458c43.269,53.394,22.161,68.462-2.054,92.861
		C86.31,176.255,121.915,219.062,159.138,256.013z M213.104,79.764c0,0-11.227-1.754-19.087,6.113
		c-8.092,8.092-8.445,22.032,0.082,30.552c5.039,5.039,12.145,6.113,12.145,6.113c13.853,2.598,34.728,6.997,56.944,29.206
		c22.209,22.208,26.607,43.084,29.205,56.943c0,0,1.074,7.106,6.113,12.146c8.521,8.521,22.46,8.174,30.552,0.082
		c7.861-7.86,6.113-19.087,6.113-19.087c-4.398-28.057-17.999-57.365-41.351-80.716C270.462,97.764,241.152,84.169,213.104,79.764z
		 M318.415,96.519c40.719,40.719,58.079,86.932,52.428,124.379c0,0-1.972,11.858,5.773,19.604
		c8.718,8.718,22.535,8.215,30.694,0.062c5.243-5.243,6.386-13.776,6.386-13.776c4.672-32.361-1.203-97.464-64.647-160.901
		C285.605,2.448,220.509-3.427,188.147,1.237c0,0-8.527,1.136-13.777,6.385c-8.16,8.16-8.656,21.978,0.061,30.695
		c7.746,7.746,19.604,5.773,19.604,5.773C231.484,38.439,277.695,55.801,318.415,96.519z"/>
</g>
</svg>
