<?xml version="1.0" encoding="utf-8"?>
<!-- Generator: Adobe Illustrator 16.0.0, SVG Export Plug-In . SVG Version: 6.00 Build 0)  -->
<!DOCTYPE svg PUBLIC "-//W3C//DTD SVG 1.1//EN" "http://www.w3.org/Graphics/SVG/1.1/DTD/svg11.dtd">
<svg version="1.1" id="Capa_1" xmlns="http://www.w3.org/2000/svg" xmlns:xlink="http://www.w3.org/1999/xlink" x="0px" y="0px"
	 width="556.066px" height="321.194px" viewBox="0 0 556.066 321.194" enable-background="new 0 0 556.066 321.194"
	 xml:space="preserve">
<g>
	<g>
		<path fill="#FFFFFF" d="M144.337,136.777c0,9.912-1.851,18.998-5.546,27.258c-3.699,8.259-8.695,15.339-14.986,21.239
			c-6.295,5.9-13.651,10.502-22.066,13.806c-8.418,3.305-17.346,4.956-26.786,4.956c-13.533,0-26.236-2.44-38.114-7.316
			c-11.88-4.874-22.773-13.293-32.686-25.251l25.016-25.252c1.729,2.205,3.813,4.602,6.254,7.198
			c2.437,2.596,5.269,4.997,8.496,7.198c3.223,2.206,6.844,4.052,10.856,5.545c4.012,1.497,8.533,2.242,13.57,2.242
			c5.664,0,10.816-0.825,15.458-2.478c4.639-1.652,8.651-3.895,12.036-6.727c3.381-2.832,6.018-6.213,7.906-10.147
			c1.888-3.931,2.832-8.179,2.832-12.744c0-5.034-1.103-9.518-3.304-13.452c-2.205-3.931-5.155-7.275-8.85-10.03
			c-3.698-2.75-7.987-4.837-12.862-6.253c-4.879-1.417-9.993-2.124-15.34-2.124c-6.136,0-11.84,0.789-17.109,2.36
			c-5.273,1.575-10.661,4.407-16.166,8.496l-18.408-18.88l9.204-84.723l105.963,0.236v32.095H52.298L48.05,79.665
			c3.931-1.888,8.455-3.263,13.57-4.13c5.11-0.862,9.949-1.298,14.514-1.298c9.912,0,19.035,1.575,27.375,4.72
			c8.338,3.149,15.536,7.516,21.594,13.098c6.055,5.587,10.775,12.194,14.16,19.824
			C142.645,119.512,144.337,127.809,144.337,136.777z"/>
		<path fill="#FFFFFF" d="M328.884,108.221c0,11.645-1.811,23.208-5.428,34.691c-3.621,11.487-8.891,21.752-15.813,30.798
			c-6.926,9.049-15.38,16.364-25.37,21.947c-9.993,5.583-21.28,8.378-33.865,8.378c-12.589,0-23.836-2.795-33.748-8.378
			c-9.912-5.583-18.331-12.898-25.252-21.947c-6.925-9.046-12.235-19.312-15.93-30.798c-3.699-11.483-5.546-23.047-5.546-34.691
			c0-12.114,1.729-24.149,5.192-36.108c3.459-11.955,8.533-22.733,15.222-32.332c6.685-9.595,15.063-17.345,25.134-23.246
			c10.067-5.899,21.712-8.85,34.928-8.85s24.817,2.99,34.81,8.968c9.989,5.981,18.367,13.769,25.134,23.364
			c6.763,9.599,11.878,20.377,15.34,32.332C327.151,84.308,328.884,96.266,328.884,108.221z M290.652,108.221
			c0-6.608-0.671-13.843-2.005-21.712c-1.34-7.865-3.658-15.181-6.963-21.948c-3.304-6.763-7.669-12.427-13.098-16.992
			c-5.428-4.562-12.154-6.844-20.178-6.844c-7.71,0-14.241,2.323-19.588,6.962c-5.351,4.643-9.717,10.384-13.098,17.228
			c-3.385,6.844-5.823,14.2-7.316,22.066c-1.498,7.869-2.242,14.949-2.242,21.24c0,6.607,0.786,13.57,2.36,20.886
			c1.571,7.316,4.049,14.123,7.434,20.414c3.381,6.295,7.748,11.487,13.098,15.576c5.347,4.093,11.8,6.137,19.352,6.137
			c7.552,0,14.001-2.044,19.352-6.137c5.347-4.089,9.712-9.241,13.098-15.458c3.381-6.213,5.86-13.017,7.434-20.414
			C289.863,121.832,290.652,114.829,290.652,108.221z"/>
		<g>
			<linearGradient id="SVGID_1_" gradientUnits="userSpaceOnUse" x1="426.3745" y1="316.4482" x2="426.3745" y2="3.5215">
				<stop  offset="0" style="stop-color:#FFBC00"/>
				<stop  offset="0.0245" style="stop-color:#FFBD03"/>
				<stop  offset="0.2775" style="stop-color:#FFC521"/>
				<stop  offset="0.5273" style="stop-color:#FFCA36"/>
				<stop  offset="0.7707" style="stop-color:#FFCE43"/>
				<stop  offset="1" style="stop-color:#FFCF47"/>
			</linearGradient>
			<path fill="url(#SVGID_1_)" d="M446.282,50.72c0,6.453-1.262,12.549-3.776,18.29c-2.519,5.745-5.899,10.738-10.147,14.986
				c-4.247,4.248-9.245,7.633-14.986,10.148c-5.744,2.518-11.841,3.775-18.289,3.775c-6.454,0-12.549-1.257-18.29-3.775
				c-5.746-2.516-10.738-5.9-14.986-10.148s-7.633-9.241-10.148-14.986c-2.519-5.741-3.775-11.837-3.775-18.29
				c0-6.449,1.257-12.544,3.775-18.29c2.516-5.742,5.9-10.738,10.148-14.986s9.24-7.63,14.986-10.148
				c5.741-2.515,11.836-3.776,18.29-3.776c6.448,0,12.545,1.261,18.289,3.776c5.741,2.518,10.739,5.9,14.986,10.148
				c4.248,4.248,7.629,9.244,10.147,14.986C445.02,38.176,446.282,44.271,446.282,50.72z M528.75,7.297L332.88,316.448h-33.557
				L495.193,7.297H528.75z M417.962,50.72c0-5.192-1.852-9.635-5.546-13.333c-3.699-3.695-8.143-5.546-13.334-5.546
				c-5.192,0-9.64,1.851-13.334,5.546c-3.699,3.698-5.546,8.142-5.546,13.333s1.847,9.639,5.546,13.334
				c3.694,3.699,8.142,5.546,13.334,5.546c5.191,0,9.635-1.847,13.334-5.546C416.111,60.359,417.962,55.912,417.962,50.72z
				 M553.425,153.144c0,6.453-1.262,12.549-3.777,18.29c-2.519,5.744-5.899,10.737-10.147,14.985s-9.244,7.634-14.985,10.147
				c-5.745,2.516-11.841,3.777-18.289,3.777c-6.609,0-12.786-1.262-18.527-3.777c-5.744-2.514-10.737-5.899-14.984-10.147
				c-4.248-4.248-7.594-9.241-10.031-14.985c-2.44-5.741-3.657-11.837-3.657-18.29c0-6.608,1.217-12.781,3.657-18.526
				c2.438-5.741,5.783-10.738,10.031-14.986c4.247-4.248,9.24-7.589,14.984-10.03c5.741-2.438,11.918-3.658,18.527-3.658
				c6.448,0,12.544,1.22,18.289,3.658c5.741,2.441,10.737,5.782,14.985,10.03c4.248,4.248,7.629,9.245,10.147,14.986
				C552.164,140.363,553.425,146.536,553.425,153.144z M525.105,153.144c0-5.192-1.851-9.635-5.546-13.333
				c-3.698-3.695-8.142-5.546-13.333-5.546c-5.192,0-9.64,1.852-13.334,5.546c-3.7,3.698-5.546,8.142-5.546,13.333
				s1.846,9.639,5.546,13.334c3.694,3.698,8.142,5.547,13.334,5.547c5.191,0,9.635-1.849,13.333-5.547
				C523.254,162.782,525.105,158.335,525.105,153.144z"/>
		</g>
		<path fill="none" d="M54.775,166.158c4.012,1.497,8.533,2.242,13.57,2.242c5.664,0,10.816-0.825,15.458-2.478
			c4.639-1.652,8.651-3.895,12.036-6.727c3.381-2.832,6.018-6.213,7.906-10.147c1.888-3.931,2.832-8.179,2.832-12.744
			c0-5.034-1.103-9.518-3.304-13.452c-1.312-2.338-2.893-4.465-4.733-6.387l-47.926,47.926
			C51.957,165.021,53.332,165.621,54.775,166.158z"/>
		<path fill="none" d="M52.298,44.029L48.05,79.665c3.931-1.888,8.455-3.263,13.57-4.13c5.11-0.862,9.949-1.298,14.514-1.298
			c1.571,0,3.116,0.054,4.648,0.133l30.341-30.341H52.298z"/>
		<linearGradient id="SVGID_2_" gradientUnits="userSpaceOnUse" x1="48.7578" y1="75.7813" x2="48.7578" y2="11.6982">
			<stop  offset="0" style="stop-color:#CFE1E5;stop-opacity:0"/>
			<stop  offset="0.8458" style="stop-color:#CFE1E5;stop-opacity:0.8587"/>
			<stop  offset="0.985" style="stop-color:#CFE1E5"/>
		</linearGradient>
		<polygon fill="url(#SVGID_2_)" points="23.742,11.698 16.78,75.781 80.736,11.825 		"/>
		<linearGradient id="SVGID_3_" gradientUnits="userSpaceOnUse" x1="85.9648" y1="116.4658" x2="85.9648" y2="74.3706">
			<stop  offset="0" style="stop-color:#CFE1E5;stop-opacity:0"/>
			<stop  offset="0.8458" style="stop-color:#CFE1E5;stop-opacity:0.8587"/>
			<stop  offset="0.985" style="stop-color:#CFE1E5"/>
		</linearGradient>
		<path fill="url(#SVGID_3_)" d="M66.221,104.445c5.347,0,10.461,0.708,15.34,2.124c4.875,1.416,9.164,3.503,12.862,6.253
			c1.497,1.116,2.865,2.333,4.117,3.643l25.416-25.416c-5.817-5.097-12.624-9.138-20.447-12.093
			c-7.018-2.646-14.598-4.167-22.728-4.586l-32.807,32.807c0.379-0.126,0.759-0.26,1.138-0.373
			C54.381,105.234,60.085,104.445,66.221,104.445z"/>
		<linearGradient id="SVGID_4_" gradientUnits="userSpaceOnUse" x1="120.4136" y1="44.0293" x2="120.4136" y2="25.4468">
			<stop  offset="0" style="stop-color:#CFE1E5;stop-opacity:0"/>
			<stop  offset="0.8559" style="stop-color:#CFE1E5;stop-opacity:0.8689"/>
			<stop  offset="0.985" style="stop-color:#CFE1E5"/>
		</linearGradient>
		<polygon fill="url(#SVGID_4_)" points="129.705,44.029 129.705,25.447 111.122,44.029 		"/>
		<linearGradient id="SVGID_5_" gradientUnits="userSpaceOnUse" x1="27.3838" y1="190.2842" x2="27.3838" y2="146.2173">
			<stop  offset="0" style="stop-color:#CFE1E5;stop-opacity:0"/>
			<stop  offset="0.8788" style="stop-color:#CFE1E5;stop-opacity:0.8922"/>
			<stop  offset="0.985" style="stop-color:#CFE1E5"/>
		</linearGradient>
		<path fill="url(#SVGID_5_)" d="M43.919,160.613c-3.227-2.202-6.059-4.602-8.496-7.198c-2.441-2.596-4.524-4.993-6.254-7.198
			L4.154,171.469c6.44,7.771,13.298,14.035,20.568,18.815l25.892-25.893C48.227,163.272,45.982,162.023,43.919,160.613z"/>
		<linearGradient id="SVGID_6_" gradientUnits="userSpaceOnUse" x1="73.709" y1="207.1172" x2="73.709" y2="8.6118">
			<stop  offset="0" style="stop-color:#9DC0C7"/>
			<stop  offset="0.2174" style="stop-color:#A1C2C9"/>
			<stop  offset="0.4156" style="stop-color:#ACC9CF"/>
			<stop  offset="0.6064" style="stop-color:#BED5DA"/>
			<stop  offset="0.7925" style="stop-color:#D8E6E9"/>
			<stop  offset="0.9737" style="stop-color:#FAFBFC"/>
			<stop  offset="1" style="stop-color:#FFFFFF"/>
		</linearGradient>
		<path fill="url(#SVGID_6_)" d="M74.953,207.117c-13.865,0-27.082-2.539-39.284-7.547c-12.292-5.044-23.694-13.837-33.888-26.136
			L0,171.285l29.439-29.717l2.155,2.748c1.66,2.116,3.703,4.467,6.074,6.988c2.277,2.426,4.964,4.701,7.988,6.764
			c2.998,2.051,6.426,3.801,10.195,5.204c3.643,1.359,7.846,2.048,12.495,2.048c5.284,0,10.137-0.773,14.425-2.299
			c4.271-1.521,8.004-3.603,11.092-6.187c3.028-2.537,5.419-5.604,7.104-9.117c1.679-3.495,2.529-7.333,2.529-11.411
			c0-4.475-0.98-8.495-2.912-11.948c-1.981-3.533-4.675-6.583-8.002-9.064c-3.387-2.519-7.385-4.459-11.88-5.766
			c-4.575-1.328-9.448-2.001-14.48-2.001c-5.802,0-11.263,0.751-16.229,2.231c-4.9,1.463-10.018,4.161-15.209,8.017l-2.163,1.606
			L11.318,97.532l9.66-88.921L132.786,8.86v38.25H55.033l-3.306,27.734c2.896-0.995,6.033-1.78,9.378-2.346
			c5.273-0.89,10.329-1.341,15.028-1.341c10.232,0,19.809,1.654,28.462,4.918c8.671,3.275,16.272,7.889,22.595,13.715
			c6.339,5.849,11.348,12.86,14.888,20.84c3.543,7.997,5.339,16.793,5.339,26.147c0,10.296-1.956,19.89-5.814,28.516
			c-3.849,8.595-9.128,16.073-15.69,22.229c-6.551,6.14-14.305,10.994-23.047,14.427C94.126,205.378,84.735,207.117,74.953,207.117z
			 M8.333,171.629c9.066,10.4,19.04,17.877,29.676,22.24c11.456,4.702,23.885,7.087,36.944,7.087c9.008,0,17.641-1.596,25.66-4.743
			c8.012-3.146,15.106-7.583,21.085-13.187c5.963-5.592,10.768-12.406,14.281-20.251c3.502-7.827,5.277-16.575,5.277-25.999
			c0-8.488-1.618-16.445-4.811-23.65c-3.196-7.205-7.716-13.533-13.432-18.808c-5.737-5.287-12.667-9.486-20.593-12.48
			c-7.956-3-16.8-4.521-26.287-4.521c-4.356,0-9.067,0.422-14.001,1.255c-4.81,0.815-9.1,2.117-12.749,3.87l-5.057,2.428
			l5.236-43.921h77.062V15.008L26.505,14.785l-8.748,80.526l15.548,15.947c5.033-3.46,10.043-5.946,14.925-7.404
			c5.54-1.651,11.593-2.489,17.991-2.489c5.614,0,11.064,0.756,16.199,2.246c5.204,1.512,9.861,3.78,13.842,6.74
			c4.028,3.003,7.29,6.702,9.698,10.995c2.454,4.386,3.698,9.418,3.698,14.959c0,5.009-1.055,9.745-3.136,14.078
			c-2.067,4.309-4.996,8.07-8.704,11.175c-3.652,3.055-8.019,5.5-12.981,7.267c-4.955,1.764-10.502,2.656-16.492,2.656
			c-5.387,0-10.314-0.819-14.647-2.436c-4.235-1.577-8.111-3.559-11.519-5.89c-3.39-2.313-6.42-4.882-9.002-7.632
			c-1.539-1.637-2.952-3.212-4.226-4.709L8.333,171.629z"/>
		<path fill="#FFFFFF" d="M206.165,108.221c0-6.291,0.745-13.371,2.242-21.24c0.236-1.244,0.504-2.47,0.788-3.688l-39.282,39.282
			l-1.186-1.185c0.869,7.205,2.452,14.38,4.752,21.522c0.39,1.213,0.808,2.406,1.234,3.591l31.71-31.71
			C206.257,112.567,206.165,110.373,206.165,108.221z"/>
		<linearGradient id="SVGID_7_" gradientUnits="userSpaceOnUse" x1="264.604" y1="204.0361" x2="264.604" y2="64.6216">
			<stop  offset="0" style="stop-color:#CFE1E5;stop-opacity:0"/>
			<stop  offset="0.8587" style="stop-color:#CFE1E5;stop-opacity:0.8587"/>
			<stop  offset="1" style="stop-color:#CFE1E5"/>
		</linearGradient>
		<path fill="url(#SVGID_7_)" d="M328.884,108.221c0-11.955-1.733-23.914-5.192-35.872c-0.764-2.637-1.621-5.206-2.546-7.728
			l-31.203,31.203c0.468,4.351,0.709,8.487,0.709,12.397c0,6.607-0.789,13.61-2.359,21.004c-1.574,7.396-4.053,14.2-7.434,20.414
			c-3.385,6.217-7.751,11.369-13.098,15.458c-5.351,4.093-11.8,6.137-19.352,6.137c-7.552,0-14.005-2.044-19.352-6.137
			c-1.579-1.206-3.061-2.521-4.467-3.919l-24.266,24.266c4.373,3.877,9.145,7.29,14.338,10.215
			c9.912,5.583,21.158,8.378,33.748,8.378c1.004,0,1.997-0.023,2.985-0.06l75.66-75.66
			C328.259,121.645,328.884,114.947,328.884,108.221z"/>
		<path fill="#FFFFFF" d="M268.586,47.57c0.916,0.77,1.79,1.583,2.646,2.416l24.297-24.297c-3.794-3.359-7.885-6.385-12.311-9.035
			c-1.562-0.934-3.168-1.787-4.809-2.575l-26.78,26.779C258.248,41.398,263.902,43.633,268.586,47.57z"/>
		<linearGradient id="SVGID_8_" gradientUnits="userSpaceOnUse" x1="223.1714" y1="122.5752" x2="223.1714" y2="7.7075">
			<stop  offset="0" style="stop-color:#CFE1E5;stop-opacity:0"/>
			<stop  offset="0.8587" style="stop-color:#CFE1E5;stop-opacity:0.8587"/>
			<stop  offset="1" style="stop-color:#CFE1E5"/>
		</linearGradient>
		<path fill="url(#SVGID_8_)" d="M209.195,83.293c1.509-6.486,3.678-12.616,6.528-18.377c3.381-6.844,7.747-12.585,13.098-17.228
			c5.347-4.639,11.877-6.962,19.588-6.962c1.099,0,2.171,0.047,3.221,0.132l26.78-26.779c-8.455-4.063-17.954-6.188-28.501-6.371
			l-80.344,80.344c-1.074,6.699-1.631,13.422-1.631,20.169c0,4.401,0.266,8.791,0.794,13.169l1.186,1.185L209.195,83.293z"/>
		<linearGradient id="SVGID_9_" gradientUnits="userSpaceOnUse" x1="248.4087" y1="207.1172" x2="248.4087" y2="4.6055">
			<stop  offset="0" style="stop-color:#9DC0C7"/>
			<stop  offset="0.1737" style="stop-color:#A3C4CA"/>
			<stop  offset="0.3959" style="stop-color:#B2CED3"/>
			<stop  offset="0.6444" style="stop-color:#CDDFE2"/>
			<stop  offset="0.9103" style="stop-color:#F1F6F7"/>
			<stop  offset="1" style="stop-color:#FFFFFF"/>
		</linearGradient>
		<path fill="url(#SVGID_9_)" d="M248.409,207.117c-13.06,0-24.922-2.952-35.26-8.774c-10.233-5.765-19.044-13.422-26.187-22.76
			c-7.106-9.284-12.629-19.958-16.416-31.727c-3.778-11.729-5.694-23.719-5.694-35.635c0-12.351,1.788-24.788,5.313-36.965
			c3.537-12.224,8.803-23.407,15.653-33.236c6.913-9.921,15.696-18.044,26.104-24.143c10.499-6.152,22.774-9.272,36.485-9.272
			c13.714,0,25.958,3.165,36.392,9.405c10.314,6.176,19.085,14.329,26.07,24.232c6.93,9.837,12.239,21.023,15.78,33.25
			c3.525,12.191,5.313,24.548,5.313,36.729c0,11.901-1.874,23.884-5.57,35.617c-3.713,11.778-9.198,22.459-16.303,31.745
			c-7.151,9.344-16.005,17.003-26.314,22.765C273.361,204.167,261.462,207.117,248.409,207.117z M248.409,10.767
			c-12.602,0-23.829,2.835-33.371,8.427c-9.633,5.645-17.763,13.164-24.164,22.349c-6.464,9.277-11.44,19.85-14.79,31.427
			c-3.365,11.621-5.07,23.481-5.07,35.252c0,11.274,1.816,22.628,5.397,33.747c3.57,11.098,8.766,21.147,15.444,29.87
			c6.634,8.674,14.815,15.784,24.317,21.136c9.403,5.297,20.249,7.982,32.236,7.982c11.988,0,22.877-2.688,32.363-7.987
			c9.571-5.349,17.789-12.458,24.426-21.131c6.668-8.715,11.823-18.758,15.32-29.852c3.508-11.133,5.285-22.493,5.285-33.765
			c0-11.602-1.706-23.383-5.071-35.016c-3.35-11.567-8.362-22.137-14.898-31.413c-6.485-9.195-14.626-16.764-24.197-22.495
			C272.173,13.637,260.994,10.767,248.409,10.767z M248.409,174.313c-8.214,0-15.355-2.277-21.225-6.771
			c-5.674-4.337-10.364-9.911-13.939-16.564c-3.505-6.514-6.107-13.656-7.732-21.225c-1.611-7.489-2.429-14.734-2.429-21.533
			c0-6.467,0.773-13.808,2.296-21.816c1.54-8.108,4.09-15.798,7.581-22.855c3.546-7.177,8.203-13.297,13.84-18.189
			c5.901-5.12,13.171-7.715,21.607-7.715c8.729,0,16.186,2.545,22.16,7.566c5.734,4.822,10.405,10.877,13.883,17.998
			c3.417,6.997,5.85,14.662,7.231,22.783c1.36,8.017,2.05,15.496,2.05,22.229c0,6.782-0.816,14.063-2.428,21.644
			c-1.629,7.651-4.232,14.799-7.74,21.246c-3.578,6.569-8.265,12.097-13.933,16.433
			C263.759,172.036,256.619,174.313,248.409,174.313z M248.409,43.806c-7.007,0-12.754,2.031-17.569,6.208
			c-5.016,4.353-9.172,9.825-12.354,16.266c-3.243,6.558-5.616,13.716-7.051,21.276c-1.452,7.631-2.188,14.583-2.188,20.665
			c0,6.364,0.771,13.173,2.291,20.238c1.503,7.003,3.904,13.597,7.135,19.602c3.158,5.879,7.281,10.786,12.256,14.589
			c4.838,3.703,10.556,5.503,17.481,5.503c6.922,0,12.64-1.8,17.48-5.503c4.977-3.807,9.103-8.68,12.264-14.484
			c3.224-5.924,5.622-12.513,7.126-19.582c1.521-7.16,2.293-14.011,2.293-20.363c0-6.389-0.66-13.521-1.963-21.197
			c-1.282-7.54-3.534-14.644-6.692-21.111c-3.1-6.342-7.242-11.721-12.313-15.986C261.703,45.809,255.75,43.806,248.409,43.806z"/>
		<g>
			<linearGradient id="SVGID_10_" gradientUnits="userSpaceOnUse" x1="398.2026" y1="73.1211" x2="398.2026" y2="28.3198">
				<stop  offset="0" style="stop-color:#CC7E00"/>
				<stop  offset="1" style="stop-color:#FFBC00"/>
			</linearGradient>
			<path fill="url(#SVGID_10_)" d="M398.202,73.121c6.136,0,11.46-2.213,15.823-6.577c4.364-4.364,6.578-9.688,6.578-15.824
				c0-6.131-2.214-11.455-6.579-15.824c-4.367-4.364-9.691-6.576-15.822-6.576c-6.135,0-11.46,2.213-15.822,6.577
				c-4.365,4.364-6.578,9.688-6.578,15.823c0,6.139,2.213,11.463,6.576,15.822C386.738,70.908,392.062,73.121,398.202,73.121z
				 M398.202,35.361c4.197,0,7.846,1.52,10.843,4.513c2.997,3,4.517,6.649,4.517,10.846c0,4.2-1.52,7.849-4.515,10.844
				c-2.996,2.996-6.645,4.515-10.845,4.515c-4.203,0-7.852-1.519-10.846-4.516c-2.995-2.993-4.513-6.641-4.513-10.843
				c0-4.199,1.518-7.848,4.515-10.844C390.353,36.88,394.002,35.361,398.202,35.361z"/>
			<linearGradient id="SVGID_11_" gradientUnits="userSpaceOnUse" x1="505.3452" y1="175.5449" x2="505.3452" y2="130.7437">
				<stop  offset="0" style="stop-color:#CC7E00"/>
				<stop  offset="1" style="stop-color:#FFBC00"/>
			</linearGradient>
			<path fill="url(#SVGID_11_)" d="M505.345,130.743c-6.137,0-11.46,2.213-15.823,6.577c-4.364,4.363-6.577,9.688-6.577,15.823
				c0,6.14,2.213,11.464,6.576,15.822c4.36,4.365,9.685,6.579,15.824,6.579c6.136,0,11.459-2.214,15.823-6.577
				c4.364-4.364,6.577-9.688,6.577-15.824c0-6.131-2.213-11.455-6.579-15.824C516.8,132.956,511.476,130.743,505.345,130.743z
				 M505.345,168.503c-4.203,0-7.852-1.52-10.846-4.516c-2.995-2.992-4.513-6.64-4.513-10.844c0-4.2,1.518-7.848,4.515-10.844
				c2.995-2.996,6.645-4.515,10.844-4.515c4.196,0,7.846,1.52,10.843,4.513c2.997,3,4.517,6.649,4.517,10.846
				c0,4.2-1.52,7.849-4.515,10.844C513.193,166.983,509.544,168.503,505.345,168.503z"/>
			<linearGradient id="SVGID_12_" gradientUnits="userSpaceOnUse" x1="505.3452" y1="203.8643" x2="505.3452" y2="102.4238">
				<stop  offset="0" style="stop-color:#CC7E00"/>
				<stop  offset="1" style="stop-color:#FFBC00"/>
			</linearGradient>
			<path fill="url(#SVGID_12_)" d="M551.994,133.203c-2.687-6.122-6.348-11.525-10.884-16.06c-4.544-4.545-9.96-8.172-16.1-10.781
				c-6.157-2.613-12.774-3.938-19.665-3.938c-7.052,0-13.748,1.325-19.902,3.938c-6.136,2.607-11.552,6.234-16.099,10.781
				c-4.551,4.55-8.178,9.966-10.781,16.099c-2.613,6.149-3.938,12.846-3.938,19.903c0,6.904,1.325,13.521,3.938,19.664
				c2.601,6.131,6.229,11.548,10.781,16.102c4.546,4.546,9.95,8.208,16.063,10.883c6.168,2.702,12.876,4.072,19.938,4.072
				c6.901,0,13.53-1.37,19.702-4.072c6.115-2.679,11.52-6.34,16.063-10.883c4.54-4.539,8.2-9.943,10.884-16.063
				c2.702-6.168,4.072-12.797,4.072-19.702C556.066,146.085,554.696,139.377,551.994,133.203z M505.345,196.823
				c-6.084,0-11.842-1.172-17.114-3.481c-5.307-2.323-9.986-5.489-13.908-9.412c-3.911-3.911-7.032-8.577-9.279-13.874
				c-2.24-5.271-3.377-10.961-3.377-16.912c0-6.104,1.137-11.875,3.378-17.15c2.249-5.296,5.371-9.964,9.278-13.872
				c3.904-3.905,8.572-7.027,13.872-9.278c5.279-2.242,11.049-3.378,17.15-3.378c5.939,0,11.631,1.137,16.912,3.377
				c5.302,2.254,9.97,5.376,13.873,9.279c3.915,3.915,7.081,8.595,9.412,13.908c2.311,5.275,3.481,11.033,3.481,17.114
				c0,5.927-1.171,11.605-3.48,16.876c-2.328,5.313-5.496,9.993-9.412,13.91c-3.921,3.921-8.601,7.088-13.909,9.412
				C516.948,195.651,511.27,196.823,505.345,196.823z"/>
			<linearGradient id="SVGID_13_" gradientUnits="userSpaceOnUse" x1="398.2026" y1="101.4409" x2="398.2026" y2="0">
				<stop  offset="0" style="stop-color:#CC7E00"/>
				<stop  offset="1" style="stop-color:#FFBC00"/>
			</linearGradient>
			<path fill="url(#SVGID_13_)" d="M362.437,86.485c4.545,4.545,9.948,8.208,16.061,10.884c6.161,2.702,12.791,4.072,19.704,4.072
				c6.91,0,13.539-1.37,19.702-4.071c6.116-2.68,11.521-6.342,16.063-10.884c4.54-4.539,8.201-9.943,10.885-16.063
				c2.701-6.168,4.071-12.797,4.071-19.703c0-6.9-1.37-13.53-4.072-19.704c-2.686-6.121-6.348-11.525-10.883-16.061
				c-4.536-4.537-9.939-8.198-16.063-10.884C411.732,1.37,405.103,0,398.202,0c-6.905,0-13.534,1.37-19.703,4.072
				c-6.118,2.682-11.522,6.343-16.062,10.883c-4.544,4.542-8.205,9.947-10.884,16.062c-2.701,6.164-4.071,12.793-4.071,19.703
				c0,6.915,1.37,13.544,4.07,19.702C354.229,76.536,357.891,81.94,362.437,86.485z M398.202,7.042
				c5.925,0,11.604,1.171,16.876,3.48c5.315,2.332,9.997,5.499,13.909,9.413c3.916,3.916,7.083,8.595,9.414,13.909
				c2.31,5.275,3.479,10.954,3.479,16.877c0,5.927-1.17,11.605-3.479,16.876c-2.329,5.312-5.496,9.992-9.414,13.91
				c-3.919,3.919-8.599,7.087-13.908,9.413c-5.269,2.309-10.947,3.479-16.877,3.479c-5.935,0-11.612-1.17-16.878-3.48
				c-5.306-2.322-9.985-5.49-13.908-9.412c-3.923-3.923-7.09-8.603-9.413-13.911c-2.309-5.263-3.479-10.941-3.479-16.875
				c0-5.931,1.171-11.609,3.48-16.877c2.324-5.309,5.491-9.988,9.412-13.909c3.917-3.917,8.598-7.084,13.909-9.413
				C386.596,8.212,392.275,7.042,398.202,7.042z"/>
			<linearGradient id="SVGID_14_" gradientUnits="userSpaceOnUse" x1="413.1567" y1="319.9688" x2="413.1567" y2="3.7764">
				<stop  offset="0" style="stop-color:#CC7E00"/>
				<stop  offset="1" style="stop-color:#FFBC00"/>
			</linearGradient>
			<path fill="url(#SVGID_14_)" d="M492.375,3.776L292.044,319.969h41.894L534.269,3.776H492.375z M304.842,312.928L496.25,10.818
				h25.221l-191.408,302.11H304.842z"/>
		</g>
	</g>
	<g>
		<g>
			<polygon fill="#36A9E0" points="345.905,223.497 1.373,223.497 1.373,321.194 284.006,321.194 			"/>
			<polygon fill="#36A9E0" points="405.169,223.497 343.271,321.194 555.906,321.194 555.906,223.497 			"/>
		</g>
		<linearGradient id="SVGID_15_" gradientUnits="userSpaceOnUse" x1="127.0669" y1="272.3457" x2="304.8647" y2="272.3457">
			<stop  offset="0" style="stop-color:#36A9E0"/>
			<stop  offset="1" style="stop-color:#36A9E0;stop-opacity:0"/>
		</linearGradient>
		<polygon fill="url(#SVGID_15_)" points="127.067,321.194 207.167,321.194 304.865,223.497 224.765,223.497 		"/>
		<linearGradient id="SVGID_16_" gradientUnits="userSpaceOnUse" x1="390.4312" y1="272.3457" x2="538.1206" y2="272.3457">
			<stop  offset="0" style="stop-color:#36A9E0"/>
			<stop  offset="1" style="stop-color:#36A9E0;stop-opacity:0"/>
		</linearGradient>
		<polygon fill="url(#SVGID_16_)" points="390.431,321.194 440.422,321.194 538.121,223.497 488.129,223.497 		"/>
		<linearGradient id="SVGID_17_" gradientUnits="userSpaceOnUse" x1="30.4199" y1="272.3457" x2="177.5239" y2="272.3457">
			<stop  offset="0" style="stop-color:#36A9E0"/>
			<stop  offset="1" style="stop-color:#36A9E0;stop-opacity:0"/>
		</linearGradient>
		<polygon fill="url(#SVGID_17_)" points="30.42,321.194 79.826,321.194 177.524,223.497 128.118,223.497 		"/>
	</g>
	<g>
		
			<image overflow="visible" opacity="0.75" width="2311" height="319" xlink:href="27C9987C.png"  transform="matrix(0.24 0 0 0.24 7.707 236.1514)">
		</image>
		<g>
			<g>
				<path fill="#FFFFFF" d="M22.484,293.229v-42.917h-7.777v-7.16h22.137c6.117,0,10.828,0.315,14.134,0.947
					c3.305,0.631,6.508,2.058,9.607,4.279s5.576,5.273,7.428,9.155c1.851,3.882,2.777,8.306,2.777,13.27
					c0,5.651-0.891,10.562-2.674,14.73c-1.784,4.17-4.122,7.283-7.016,9.341c-2.895,2.058-6.337,3.491-10.328,4.3
					c-3.992,0.81-9.073,1.214-15.245,1.214h-20.82v-7.159H22.484z M31.125,293.229h4.526c5.047,0,9.045-0.315,11.995-0.946
					c2.949-0.631,5.438-1.708,7.468-3.23c2.03-1.522,3.676-3.82,4.938-6.893c1.261-3.072,1.893-6.692,1.893-10.863
					c0-4.964-1.036-9.175-3.106-12.631c-2.072-3.457-4.718-5.713-7.941-6.77c-3.224-1.056-8.182-1.584-14.875-1.584h-4.896V293.229z
					"/>
				<path fill="#FFFFFF" d="M120.25,282.447H86.756c0.494,3.677,1.948,6.652,4.361,8.93s5.5,3.415,9.258,3.415
					c5.458,0,9.779-2.194,12.962-6.584l6.912,3.045c-2.249,3.484-5.17,6.069-8.764,7.756c-3.593,1.688-7.352,2.531-11.274,2.531
					c-6.089,0-11.295-1.899-15.615-5.699c-4.32-3.799-6.48-8.922-6.48-15.369c0-6.116,2.104-11.15,6.316-15.1
					c4.21-3.951,9.046-5.926,14.505-5.926c5.349,0,10.197,1.928,14.545,5.781C117.828,269.082,120.085,274.822,120.25,282.447z
					 M112.185,276.77c-0.548-2.798-2.002-5.329-4.361-7.592c-2.359-2.263-5.253-3.395-8.682-3.395c-3.128,0-5.802,1.021-8.024,3.065
					s-3.579,4.685-4.073,7.921H112.185z"/>
				<path fill="#FFFFFF" d="M153.292,293.229v-42.917h-7.777v-7.16h22.137c6.117,0,10.829,0.315,14.134,0.947
					c3.305,0.631,6.508,2.058,9.608,4.279s5.576,5.273,7.427,9.155s2.777,8.306,2.777,13.27c0,5.651-0.892,10.562-2.674,14.73
					c-1.784,4.17-4.122,7.283-7.016,9.341c-2.895,2.058-6.337,3.491-10.328,4.3c-3.992,0.81-9.073,1.214-15.245,1.214h-20.82v-7.159
					H153.292z M161.932,293.229h4.526c5.047,0,9.045-0.315,11.994-0.946s5.438-1.708,7.468-3.23c2.03-1.522,3.676-3.82,4.938-6.893
					c1.261-3.072,1.893-6.692,1.893-10.863c0-4.964-1.036-9.175-3.106-12.631c-2.072-3.457-4.718-5.713-7.942-6.77
					c-3.223-1.056-8.182-1.584-14.875-1.584h-4.896V293.229z"/>
				<path fill="#FFFFFF" d="M251.057,282.447h-33.494c0.494,3.677,1.947,6.652,4.361,8.93s5.5,3.415,9.258,3.415
					c5.458,0,9.779-2.194,12.961-6.584l6.913,3.045c-2.25,3.484-5.171,6.069-8.765,7.756c-3.594,1.688-7.352,2.531-11.274,2.531
					c-6.09,0-11.294-1.899-15.616-5.699c-4.32-3.799-6.48-8.922-6.48-15.369c0-6.116,2.105-11.15,6.316-15.1
					c4.21-3.951,9.045-5.926,14.504-5.926c5.349,0,10.197,1.928,14.545,5.781C248.635,269.082,250.892,274.822,251.057,282.447z
					 M242.992,276.77c-0.549-2.798-2.002-5.329-4.362-7.592c-2.359-2.263-5.253-3.395-8.682-3.395c-3.127,0-5.801,1.021-8.024,3.065
					c-2.222,2.044-3.58,4.685-4.073,7.921H242.992z"/>
				<path fill="#FFFFFF" d="M257.641,300.388v-13.66h6.995v1.315c0.247,1.866,1.255,3.402,3.024,4.609s3.861,1.811,6.274,1.811
					c2.524,0,4.541-0.438,6.049-1.317c1.508-0.877,2.263-2.098,2.263-3.661c0-1.509-0.624-2.619-1.872-3.334
					c-1.249-0.712-3.725-1.369-7.428-1.969c-5.488-0.926-9.404-2.426-11.748-4.499c-2.345-2.072-3.517-4.755-3.517-8.05
					c0-3.321,1.276-6.1,3.827-8.337c2.551-2.237,5.911-3.355,10.082-3.355c3.758,0,6.995,0.773,9.711,2.32v-1.703h6.954v13.207
					h-6.954v-2.427c-2.113-3.265-5.185-4.896-9.217-4.896c-2.057,0-3.751,0.446-5.082,1.337c-1.331,0.892-1.995,2.078-1.995,3.56
					c0,1.509,0.61,2.545,1.831,3.106c1.22,0.563,3.848,1.158,7.88,1.786c3.868,0.601,6.79,1.307,8.766,2.115
					c1.974,0.81,3.613,2.154,4.915,4.034c1.303,1.88,1.954,4.067,1.954,6.564c0,3.705-1.419,6.647-4.258,8.829
					c-2.84,2.182-6.522,3.272-11.048,3.272c-4.252,0-7.722-0.965-10.41-2.896v2.238H257.641z"/>
				<path fill="#FFFFFF" d="M333.516,260.558v15.06h-6.994c-0.358-2.88-1.53-5.088-3.52-6.625c-1.989-1.536-4.3-2.305-6.934-2.305
					c-3.51,0-6.364,1.242-8.558,3.725c-2.195,2.482-3.292,5.74-3.292,9.772c0,3.759,1.042,7.07,3.127,9.938
					c2.085,2.866,5.103,4.3,9.053,4.3c5.486,0,9.464-2.606,11.933-7.818l6.46,3.045c-3.566,7.928-9.807,11.892-18.723,11.892
					c-6.309,0-11.274-2.153-14.895-6.46s-5.432-9.271-5.432-14.896c0-6.008,1.976-10.966,5.925-14.875
					c3.951-3.909,8.503-5.863,13.661-5.863c4.416,0,8.147,1.303,11.193,3.909v-2.798H333.516z"/>
				<path fill="#FFFFFF" d="M383.304,293.434v6.954h-14.688v-4.566c-4.582,3.482-8.971,5.225-13.167,5.225
					c-2.662,0-4.864-0.582-6.605-1.748s-2.9-2.675-3.477-4.526c-0.575-1.852-0.864-4.835-0.864-8.95v-18.31h-5.638v-6.954h13.456
					v24.277c0,2.935,0.082,4.91,0.246,5.924c0.165,1.016,0.645,1.853,1.44,2.511s1.797,0.987,3.004,0.987
					c3.621,0,7.488-1.729,11.604-5.185v-21.561h-7.037v-6.954h14.854v32.876H383.304z"/>
				<path fill="#FFFFFF" d="M429.307,282.447h-33.495c0.495,3.677,1.948,6.652,4.363,8.93c2.413,2.277,5.499,3.415,9.258,3.415
					c5.459,0,9.779-2.194,12.961-6.584l6.913,3.045c-2.25,3.484-5.172,6.069-8.765,7.756c-3.593,1.688-7.352,2.531-11.274,2.531
					c-6.089,0-11.295-1.899-15.615-5.699c-4.32-3.799-6.48-8.922-6.48-15.369c0-6.116,2.104-11.15,6.315-15.1
					c4.211-3.951,9.047-5.926,14.505-5.926c5.351,0,10.198,1.928,14.546,5.781C426.886,269.082,429.142,274.822,429.307,282.447z
					 M421.243,276.77c-0.549-2.798-2.003-5.329-4.362-7.592s-5.253-3.395-8.682-3.395c-3.128,0-5.802,1.021-8.023,3.065
					c-2.223,2.044-3.581,4.685-4.074,7.921H421.243z"/>
				<path fill="#FFFFFF" d="M449.51,260.558v4.814c5.021-3.621,9.602-5.432,13.743-5.432c2.579,0,4.712,0.61,6.398,1.831
					s2.791,2.715,3.313,4.485c0.52,1.769,0.781,4.354,0.781,7.756v19.421h6.707v6.954h-14.525v-26.046
					c0-3.018-0.452-4.985-1.357-5.904s-2.017-1.379-3.333-1.379c-3.456,0-7.366,1.687-11.728,5.062v21.313h6.872v6.954h-21.685
					v-6.954h6.995v-25.922h-6.995v-6.954H449.51z"/>
				<path fill="#FFFFFF" d="M483.292,267.512v-6.954h5.185v-6.132l7.817-7.159v13.291h7.366v6.954h-7.366v19.339
					c0,3.101,0.172,5.014,0.516,5.74c0.342,0.727,1.199,1.091,2.57,1.091c1.454,0,2.881-0.274,4.28-0.823v7.117
					c-2.003,0.714-4.006,1.07-6.008,1.07c-2.387,0-4.321-0.528-5.801-1.584c-1.482-1.056-2.416-2.379-2.799-3.971
					c-0.385-1.591-0.576-4.334-0.576-8.229v-19.75H483.292z"/>
				<path fill="#FFFFFF" d="M509.38,280.472c0-6.144,2.028-11.185,6.089-15.12c4.06-3.937,9.012-5.905,14.854-5.905
					c5.733,0,10.657,1.941,14.773,5.822c4.113,3.882,6.172,8.949,6.172,15.203c0,6.256-2.052,11.331-6.151,15.226
					c-4.103,3.896-9.032,5.843-14.794,5.843c-5.924,0-10.897-1.975-14.915-5.926C511.388,291.665,509.38,286.617,509.38,280.472z
					 M517.65,280.451c0,3.933,1.228,7.153,3.683,9.666s5.452,3.77,8.99,3.77c3.594,0,6.605-1.27,9.033-3.811
					c2.427-2.539,3.641-5.748,3.641-9.625c0-3.903-1.234-7.118-3.703-9.645s-5.458-3.789-8.971-3.789
					c-3.675,0-6.706,1.291-9.093,3.871C518.843,273.47,517.65,276.658,517.65,280.451z"/>
			</g>
		</g>
	</g>
</g>
</svg>
