<?xml version="1.0" encoding="utf-8"?>
<!-- Generator: Adobe Illustrator 19.1.0, SVG Export Plug-In . SVG Version: 6.00 Build 0)  -->
<svg version="1.1" id="Capa_1" xmlns="http://www.w3.org/2000/svg" xmlns:xlink="http://www.w3.org/1999/xlink" x="0px" y="0px"
	 viewBox="0 0 1551.6 664.1" style="enable-background:new 0 0 1551.6 664.1;" xml:space="preserve">
<style type="text/css">
	.st0{fill:url(#SVGID_1_);}
	.st1{fill:url(#SVGID_2_);}
	.st2{fill:url(#SVGID_3_);}
	.st3{fill:url(#SVGID_4_);}
	.st4{fill:url(#SVGID_5_);}
	.st5{fill:url(#SVGID_6_);}
	.st6{fill:url(#SVGID_7_);}
	.st7{fill:url(#SVGID_8_);}
	.st8{fill:url(#SVGID_9_);}
	.st9{fill:url(#SVGID_10_);}
	.st10{fill:url(#SVGID_11_);}
	.st11{fill:url(#SVGID_12_);}
	.st12{fill:url(#SVGID_13_);}
	.st13{fill:url(#SVGID_14_);}
	.st14{fill:url(#SVGID_15_);}
	.st15{fill:url(#SVGID_16_);}
	.st16{fill:url(#SVGID_17_);}
	.st17{fill:url(#SVGID_18_);}
	.st18{fill:url(#SVGID_19_);}
	.st19{fill:url(#SVGID_20_);}
	.st20{fill:url(#SVGID_21_);}
	.st21{fill:url(#SVGID_22_);}
	.st22{fill:url(#SVGID_23_);}
	.st23{fill:url(#SVGID_24_);}
	.st24{fill:url(#SVGID_25_);}
	.st25{fill:url(#SVGID_26_);}
	.st26{fill:url(#SVGID_27_);}
	.st27{fill:#3AA9E0;}
	.st28{fill:url(#SVGID_28_);}
	.st29{fill:url(#SVGID_29_);}
	.st30{fill:url(#SVGID_30_);}
	.st31{fill:url(#SVGID_31_);}
	.st32{fill:url(#SVGID_32_);}
	.st33{fill:url(#SVGID_33_);}
	.st34{fill:url(#SVGID_34_);}
	.st35{fill:#FFFFFF;}
</style>
<g>
	<g>
		<linearGradient id="SVGID_1_" gradientUnits="userSpaceOnUse" x1="10.7334" y1="493.4054" x2="343.2426" y2="493.4054">
			<stop  offset="0" style="stop-color:#3165AF"/>
			<stop  offset="0.214" style="stop-color:#285EA9"/>
			<stop  offset="0.6184" style="stop-color:#1C56A3"/>
			<stop  offset="1" style="stop-color:#1853A1"/>
		</linearGradient>
		<path class="st0" d="M327.2,590.7c-6.3,4.7-13,9-20.1,12.9c-7.1,4-14.4,7.3-21.8,9.9c-7.5,2.6-14.6,4-21.3,4c-2.1,0-4.1-0.2-6-0.7
			c-1.9-0.4-3.6-1.2-5.3-2.3c-1.7-1.1-3.4-2.6-5-4.6c-1.6-2-3.3-4.5-5-7.4c9.8-2.6,18.9-6.3,27.3-11c8.4-4.7,15.6-10.1,21.7-16.2
			c6.1-6,11.4-13.3,16-21.8c4.6-8.5,6.8-16.1,6.8-22.9c0-6.4-1.1-12.2-3.4-17.3c-2.2-5.2-5.4-9.6-9.4-13.2c-4-3.6-8.7-6.5-14.1-8.5
			c-5.4-2-11.2-3-17.5-3c-7.7,0-14.7,1.4-21,4.1c-6.3,2.7-12,6.4-17.1,11c-5.1,4.6-9.5,9.9-13.3,16c-3.8,6-7,12.4-9.5,19
			c-2.5,6.7-4.9,14.3-7.3,22.9c-2.3,8.6-3.5,16-3.5,22.2c0,3.3,0.2,6.6,0.5,9.9c-3.1,2.5-6.1,4.8-9.1,6.9c-2.7,1.9-5.5,3.8-8.3,5.7
			c-2.9,1.9-5.7,3.5-8.5,5c-2.8,1.5-5.5,2.6-8,3.5c-2.5,0.9-4.9,1.3-7,1.3c-2.2,0-4-0.7-5.5-2c-1.5-1.4-2.7-3.2-3.5-5.5
			c-0.9-2.3-1.5-5-1.9-7.9c-0.4-3-0.6-6.1-0.6-9.4c0-2.6,0.2-5.3,0.5-8.1c0.4-2.8,0.8-5.5,1.3-8.2c0.5-2.7,1.1-5.1,1.7-7.4
			c0.6-2.3,1.2-4.2,1.8-5.8c2.7-7.3,8.9-21.1,18.8-41.4c6.4-13.3,11.9-26.7,16.5-40.3c4.5-13.6,9.2-27.3,13.8-41.2
			c4.7-13.9,7.1-28.9,7.5-45c0.1-4.2,0.1-8.4,0.1-12.4c0-6.4-0.5-12.6-1.5-18.7c-1-6-2.7-11.3-5-15.9c-2.3-4.6-5.3-8.2-9-11
			c-3.7-2.8-8.2-4.1-13.5-4.1c-7.2,0-14.2,2.2-21,6.7c-6.8,4.4-13.2,10.6-19.2,18.5c-6,7.9-11.5,17.2-16.5,28
			c-5,10.8-9.1,22.6-12.3,35.4c-3.2,12.8-6.2,24.8-8.9,35.9c-2.8,11.1-4.3,24-4.6,38.6c-8.5,0.8-16.6,2.8-24.1,6
			c-7.5,3.2-14.9,7.9-22,14.2c-7.1,6.3-12.9,13.2-17.2,20.9c-4.3,7.6-8.3,15-11.8,22c-3.5,7-6.2,14.3-8.1,21.7
			c-1.9,7.5-2.8,14.9-2.8,22.2c0,6.8,0.9,13.5,2.6,19.9c1.7,6.4,4.4,12.1,7.9,17.2c3.5,5,8,9.1,13.3,12.1c5.3,3,11.7,4.6,19,4.6
			c5.2,0,10.3-0.9,15.5-2.6c5.1-1.7,10.2-4,15.2-6.9c5-2.9,9.9-6.2,14.5-10.1c4.7-3.9,9.1-8,13.3-12.3c2.8,6.9,6,12.5,9.7,16.6
			c3.7,4.2,7.5,7.4,11.2,9.6c3.7,2.2,7.2,3.7,10.4,4.4c3.2,0.7,5.5,1.1,7.2,1.1c2.7,0,5.7-0.5,9-1.5c3.3-1,6.7-2.3,10.2-3.9
			c3.5-1.6,7-3.5,10.6-5.5c3.6-2.1,7-4.2,10.3-6.4c5.8-3.8,11.7-8.1,17.6-12.7c1.7,3.1,3.7,6,5.8,8.7c5.2,6.6,11.8,11.8,19.7,15.7
			c7.9,3.9,17.1,5.8,27.5,5.8c6.7,0,13.7,0.1,20-2.3c41.4-16,61.9-75.5,61.9-75.5C338.9,581.6,333.5,586,327.2,590.7z M91.3,601.9
			c-1.4,2-2.8,3.9-4.5,5.8c-1.6,1.8-3.3,3.5-5.1,4.9c-1.8,1.4-3.7,2.6-5.7,3.5c-2,0.9-4,1.3-6,1.3c-3.9,0-7.1-0.4-9.6-1.3
			c-2.5-0.9-4.4-2-5.7-3.4c-1.3-1.4-2.3-3-2.8-4.7c-0.5-1.8-0.8-3.5-0.8-5.3c0-5.7,1-12,3-19c2-7,5-15.4,8.9-25.2
			c3.9-9.7,8.7-17.6,14.5-23.5c5.8-5.9,12.4-10.7,19.8-14.4c0.1-0.1,0.2,1,0.3,3.4c0.1,2.4,0.2,5.4,0.3,9.2
			c0.1,3.7,0.1,7.9,0.3,12.4c0.1,4.5,0.2,10.3,0.3,17.4c0.1,7.1,0.3,12.4,0.5,15.8c0.2,3.5,0.5,6,0.9,7.6
			C97.3,592.2,94.5,597.3,91.3,601.9z M138.3,529.6v-1.7c0-1.7,0-4.2,0-7.3c0-3.2,0.1-6.9,0.2-11.2c0.1-4.3,0.3-9,0.6-14.2
			c0.3-5.2,0.7-10.6,1.2-16.1c0.2-2.7,0.7-7.3,1.3-13.8c0.6-6.5,1.4-13.8,2.4-21.9c1-8.1,2.5-16.3,4.7-24.8
			c2.1-8.4,4.1-16.2,5.9-23.4c1.8-7.2,4.2-13.1,7.2-17.6c3-4.6,6.3-6.8,9.9-6.8c2.1,0,3.6,1.2,4.7,3.5c1.1,2.4,1.6,6.6,1.6,12.6
			c0,4.6-0.4,10.9-1,18.7c-0.6,6-1.6,12.3-3.1,18.9c-1.5,6.6-3.2,13.3-5.3,20.1c-2.1,6.8-4.2,13.6-6.4,20.5
			c-2.1,6.9-4.3,13.5-6.5,19.8C150.3,499.7,144.6,514.6,138.3,529.6z M239.1,566.2c0.2-3.4,1.3-7.7,3.1-13c1.9-5.3,3.5-9.7,4.9-13.3
			c1.4-3.6,3.3-6.8,5.6-9.6c2.3-2.8,5.2-5.1,8.6-6.8c3.4-1.8,7.6-2.6,12.4-2.6c2.7,0,5,1.6,6.9,4.8c1.9,3.2,2.8,7.3,2.8,12.2
			c0,3.5-2,8-5.9,13.4c-3.9,5.4-8,9.7-12.1,12.9c-4.1,3.2-8.6,5.8-13.4,7.8c-4.8,2-9.2,3-13.3,3
			C238.8,572.5,238.9,569.6,239.1,566.2z"/>
		<linearGradient id="SVGID_2_" gradientUnits="userSpaceOnUse" x1="412.9345" y1="504.6147" x2="1551.6053" y2="504.6147">
			<stop  offset="0" style="stop-color:#3165AF"/>
			<stop  offset="0.214" style="stop-color:#285EA9"/>
			<stop  offset="0.6184" style="stop-color:#1C56A3"/>
			<stop  offset="1" style="stop-color:#1853A1"/>
		</linearGradient>
		<path class="st1" d="M1512.4,508c-7-7-16.9-10-26.2-13.3c-9.3-3.3-19.3-5-30-5c-12.5,0-23.7,2.3-33.7,6.8
			c-10,4.6-18.5,10.8-25.4,18.7c-6.9,7.9-12.2,17.3-15.9,28c-3.7,10.7-5.6,23.5-5.6,38.3c0,4.3,0.2,8.5,0.7,12.8
			c-0.4,0.3-0.9,0.6-1.3,1c-4.6,3.2-9.2,6.2-13.8,8.8c-4.7,2.7-9.1,5-13.3,7c-4.2,2-8.1,3.5-11.6,4.6c-3.5,1.1-6.5,1.7-8.9,1.7
			c-3.8,0-7.3-0.6-10.4-1.8c-3.1-1.2-5.7-3.1-7.9-5.7c-2.1-2.6-3.8-6-4.9-10.2c-1.1-4.2-1.7-9.3-1.7-15.3c0-2.4,0-4.9,0.1-7.8
			c0.1-2.8,0.1-5.7,0.3-8.8c0.1-3,0.2-6.1,0.3-9.2c0.1-3.1,0.2-6.1,0.3-9c0.3-6.7,0.7-13.6,1.2-20.6c2.8-3.5,5.9-7.4,9.2-11.7
			c3.3-4.3,6.6-8.7,9.9-13.2h64.8c2.7,0,5.2-1.3,7.4-4c2.2-2.6,3.4-6.1,3.4-10.3c0-3.6-0.5-6.6-1.5-9c-1-2.4-2.6-3.6-4.9-3.8
			c-1.9-0.1-4.3-0.2-7.2-0.3c-2.9-0.1-6.1-0.2-9.4-0.3c-3.4-0.1-6.9-0.2-10.5-0.3c-3.6-0.1-6.9-0.2-10-0.3c-3.1-0.1-5.8-0.2-8.2-0.5
			c-2.4-0.2-4.1-0.2-5.1,0.2c4-6.3,7.9-12.6,11.5-19c3.7-6.4,6.8-12.7,9.5-18.9c2.7-6.2,4.8-12.3,6.4-18.3c1.6-6,2.4-11.7,2.4-17.1
			c0-6.5-0.8-12.8-2.3-18.8c-1.5-6-3.7-11.3-6.5-15.7c-2.8-4.5-6.2-8.1-10.2-10.8c-4-2.7-8.4-4-13.2-4c-7.5,0-14.7,3.3-21.5,10
			c-6.8,6.7-13.2,15.5-18.9,26.6c-5.8,11-11,23.6-15.7,37.8c-4.7,14.2-8.5,28.8-11.5,44c-1.1,0.2-3.2,0.3-6.2,0.3
			c-3-0.1-6.4-0.1-10.2-0.3c-3.8-0.1-7.7-0.1-11.9-0.1c-4.1,0.1-7.9,0.3-11.4,0.8c-3.4,0.5-6.3,1.2-8.5,2.1
			c-2.2,0.9-3.3,2.3-3.3,4.1c0,1.1,0.1,2.5,0.2,4c0.1,1.6,0.5,3.1,1.2,4.5c0.7,1.4,1.8,2.7,3.2,3.8c1.5,1.1,3.6,1.8,6.3,2.2
			c6.1,0.8,10.8,1.4,14,1.9c3.2,0.5,5.9,1,8,1.4c2.1,0.4,4.1,0.9,5.9,1.3c1.9,0.4,4.5,0.9,7.9,1.4c-1,7.5-1.8,15.1-2.3,22.8
			c-0.6,7.6-0.8,14.8-0.8,21.6c0,17.2,1.1,32.7,3.2,46.5c-5.9,3.9-11.3,7.4-16.2,10.5c-7.2,4.6-11,6.9-11.3,6.7
			c-0.2-0.1-2.8,1.7-7.8,5.6c-1,1-3.4,2.2-7.1,3.5c-2.5,1-4.4,1.5-5.7,1.5c-3.7,0-6.4-2.2-8.2-6.7c-1.7-4.5-2.6-10.2-2.6-17.2
			c0-4.2,0.3-8.7,0.8-13.7c0.5-4.9,1.2-9.9,1.9-15c0.8-5.1,1.7-10.8,2.6-17.2c1-6.4,1.8-11.6,2.6-15.7c0.8-4,1.4-7.5,1.9-10.5
			c0.5-2.9,0.8-5,0.8-6.2c0-8.3-1.7-14.8-5-19.6c-3.3-4.7-7.8-7.1-13.4-7.1c-5.6,0-10.7,1.1-15.3,3.4c-4.6,2.2-8.7,6.4-12.3,12.5
			c-0.8,1.3-2,3.4-3.5,6.2c-1.6,2.8-3.3,6-5.2,9.7c-1.9,3.7-4,7.5-6.2,11.5c-2.2,4-4.2,8.6-6.2,13.7c-1.9,5.2-3.6,9.1-5.1,11.9
			c-1.5,2.8-2.5,4.7-3.2,6h-3.4c0-0.8,0.2-2.3,0.5-4.6c0.3-2.3,0.8-5.8,1.3-10.5c0.5-4.7,1-8.8,1.6-12.5c0.6-3.7,1.1-7.2,1.6-10.6
			c0.5-3.4,0.9-6.6,1.3-9.4c0.3-2.9,0.5-5.1,0.5-6.8c0-6.2-1.2-11.1-3.5-14.8c-2.4-3.7-6.6-5.6-12.6-5.6c-6.1,0-10.9,1.7-14.4,5.2
			c-3.5,3.5-5.9,7.8-7.2,13c-1.6,6.6-3.2,14.6-4.9,23.9c-1.7,9.3-3.2,19.8-4.6,31.4c-0.9,8.2-1.8,15.9-2.5,23.1
			c-2.1,1.7-4.4,3.5-6.8,5.3c-6.3,4.7-13,9-20.1,12.9c-7.1,4-14.4,7.3-21.8,9.9c-7.5,2.6-14.6,4-21.3,4c-2.1,0-4.1-0.2-6-0.7
			c-1.9-0.4-3.6-1.2-5.3-2.3c-1.7-1.1-3.4-2.6-5-4.6c-1.6-2-3.3-4.5-5-7.4c9.8-2.6,18.9-6.3,27.3-11c8.4-4.7,15.6-10.1,21.7-16.2
			c6.1-6,11.4-13.3,16-21.8c4.6-8.5,6.8-16.1,6.8-22.9c0-6.4-1.1-12.2-3.4-17.3c-2.2-5.2-5.4-9.6-9.4-13.2c-4-3.6-8.7-6.5-14.1-8.5
			c-5.4-2-11.2-3-17.5-3c-7.7,0-14.7,1.4-21,4.1c-6.3,2.7-12,6.4-17.1,11c-5.1,4.6-9.5,9.9-13.3,16c-3.8,6-7,12.4-9.5,19
			c-2.5,6.7-4.9,14.3-7.3,22.9c-2.3,8.6-3.5,16-3.5,22.2c0,5.9,0.5,11.6,1.5,17.1c-1.6,1.5-3.3,3-5,4.4c-2.6,2.1-5.2,3.9-7.9,5.5
			c-2.7,1.6-5.3,2.9-7.9,3.9c-2.6,1-5.1,1.5-7.4,1.5c-2.2,0-4.2-1.9-5.7-5.8c-1.6-3.9-2.4-8.8-2.4-15c0-7.8,0.4-15.2,1.2-22.2
			c0.8-7,2-14.7,3.5-23.2c1.6-8.5,2.8-16.3,3.5-23.3c0.8-7,1.2-14.5,1.2-22.3c0-5.1-1.8-9-5.5-11.8c-3.7-2.8-8.1-4.2-13.4-4.2
			c-4.7,0-8.7,1.6-12,4.7c-3.3,3.1-6.5,6.9-9.8,11.5c-3.4,4.7-7,10-10.9,16.2c-3.9,6.1-7.5,12-11,17.5c-3.4,5.6-6.6,11.1-9.5,16.8
			c-2.9,5.6-4.5,8.6-4.7,8.9l-1.9-2c0-0.2,0.1-0.7,0.2-1.4c0.3-2.2,0.7-3.8,1-4.9c2-7,3.4-12.4,4.2-16.2c1-4.3,1.9-7.9,2.7-10.9
			c0.7-2.6,1.3-6.5,2-11.6c0.6-4,0.8-8.2,0.8-12.6c0-5.1-1.7-9-5.1-11.8c-3.4-2.8-7.4-4.2-12.1-4.2c-5.1,0-9.4,1.5-13.1,4.6
			c-3.7,3.1-7.1,6.9-10.4,11.6c-3.4,4.7-6.9,10-10.6,16.1c-3.7,6.1-7.2,11.9-10.4,17.4c-3.2,5.6-6.2,11.2-8.9,16.8
			c-2.8,5.7-4.2,8.7-4.5,9l-1.9-2c1.7-9.5,3.3-18.1,4.9-25.9c0.1-0.2,0.6-3.2,1.3-8.8c0.4-2.9,0.8-5.8,1-8.7c0.3-2.8,0.6-5.5,0.8-8
			c0.2-2.5,0.3-4.7,0.3-6.6c0-3.5-0.1-6.3-0.3-8.3c-0.2-2-0.9-3.6-2.1-4.7c-1.2-1.1-3-1.8-5.4-2c-2.4-0.3-5.8-0.4-10-0.4
			c-2.8,0-5.1,0.2-6.9,0.6c-1.8,0.4-3.3,1.2-4.6,2.4c-1.3,1.2-2.4,2.9-3.5,5c-1,2.2-2.1,5-3.2,8.7c-1.1,3.5-2.4,8.1-3.7,13.6
			c-1.3,5.6-2.7,11.7-4,18.4c-1.3,6.7-2.8,14.5-4.6,23.5c-1.7,9-3.1,17-4,24c-0.7,5.1-1.2,10-1.7,14.8c-2.3,1.7-4.7,3.3-7.2,4.9
			c-4.2,2.6-8.2,5-12.2,7.1c-4,2.1-7.8,3.8-11.3,5c-3.5,1.2-6.5,1.9-9,1.9c-1.9,0-3.4-0.5-4.4-1.6c-1-1.1-1.8-2.6-2.3-4.6
			c-0.5-2-0.8-4.3-0.9-6.9c-0.1-2.6-0.1-5.6-0.1-8.7c0-2,0.4-5.1,1.2-9.4c0.8-4.3,1.7-9.3,2.8-15.1c1.1-5.7,2.4-13,4.1-21.8
			c1.6-8.8,3-16.3,4.2-22.4c1.2-6.2,1.8-11.9,2-17.1c0.2-5.2,0.3-9.4,0.3-12.4c0-3.1-1.6-5.7-4.9-7.8c-3.3-2-7.7-3-13.2-3
			c-4.9,0-9.3,0.9-13.1,2.8s-6,4.1-6.6,6.8l-18.6,91.9c-0.9,4.7-2.3,8.8-4.1,12.4c-1.8,3.7-3.9,6.6-6.3,8.9
			c-2.3,2.5-4.7,4.4-7.3,5.8c-2.6,1.3-5.1,2-7.6,2c-1.7,0-3.2-0.5-4.4-1.4c-1.2-0.9-2.3-2.1-3-3.7c-0.8-1.5-1.4-3.2-1.8-5.1
			s-0.6-3.9-0.6-6c0-0.1,0.3-1.8,0.9-5c0.6-3.2,1.3-7.5,2.3-12.7c0.9-5.2,2.2-12.2,3.8-20.9c1.6-8.7,3-16.6,4.3-23.7
			c1.3-7.1,2.5-14.1,3.8-21.1c1.3-7,2.4-14.3,3.4-21.9c0-2.4-1.3-4.5-3.9-6.1c-2.6-1.6-6.9-2.6-12.8-2.9c-3.6,0.1-6.8,1.1-9.7,2.9
			c-2.9,1.8-5.4,4.1-7.5,6.9c-2.1,2.8-4,6-5.6,9.4c-1.6,3.5-2.9,6.9-4,10.3c-1.1,3.4-1.9,6.5-2.4,9.4c-0.5,2.9-0.9,5.1-1.3,6.8
			c-2.9,22.7-6.1,39.8-9.4,51.3c-0.3,1.2-0.6,2.4-0.9,3.7c-2.5,3.1-5.1,6-7.6,8.7c-2.4,2.6-4.9,5-7.5,7.4c-2.6,2.4-5.3,4.5-7.9,6.4
			c-2.6,1.9-5.3,3.4-7.8,4.6c-2.6,1.2-5.1,1.8-7.4,1.8c-3.1,0-5.2-1.5-6.2-4.4c-1-2.9-1.4-6.9-1.4-12.1c0-6,0.9-13.4,2.8-22.2
			c1.9-8.8,3.5-16.6,5-23.5c1.4-6.9,2.7-13.6,3.9-20.1c1.1-6.5,1.7-12.5,1.7-17.9c0-3.5-0.3-6.3-0.9-8.3c-0.6-2-1.5-3.6-2.6-4.8
			c-1.1-1.1-2.4-1.9-3.9-2.2c-1.5-0.3-3.1-0.5-4.7-0.5c-1.2,0-2.5,0-3.8,0.1c-1.3,0.1-2.6,0.1-3.8,0.1c-1.5,0-2.9-0.1-4.3-0.3
			c-1.4-0.2-2.8-0.5-4.2-1.1c-1.4-0.6-2.5-1.5-3.4-2.7c-0.9-1.2-1.8-2.5-2.8-3.8c-1-1.3-2.2-2.5-3.6-3.5c-1.5-1-3.5-1.5-6.1-1.5
			c-7.8,0-15.5,1.7-23,5c-7.5,3.3-14.7,7.8-21.5,13.4c-6.8,5.6-13,12.1-18.7,19.7c-5.7,7.5-11.1,16.4-16,26.7
			c-5,10.3-8.6,19.9-11,28.7c-2.4,8.8-3.6,17.5-3.6,25.9c0,7.5,1.2,14.2,3.5,20.2c2.4,6,5.5,11,9.4,15.1c3.9,4.1,8.5,7.3,13.6,9.5
			c5.1,2.2,10.4,3.3,15.8,3.3c5.1,0,10.2-0.8,15.3-2.5c5.1-1.7,10-3.8,14.7-6.4c4.7-2.6,9-5.5,13-8.8c4-3.2,7.3-6.4,10-9.5
			c3.6,9,7.9,15.9,12.9,20.6c5,4.7,11.2,7.1,18.7,7.1c6.2,0,12.4-1.5,18.5-4.6c6.2-3.1,12-6.8,17.4-11.3c2.4-2,4.7-4,6.9-6.1
			c0.2,0.6,0.3,1.2,0.5,1.8c1.5,4.8,3.4,8.6,6,11.5c2.5,2.9,5.4,5,8.6,6.2c3.2,1.2,6.7,1.9,10.4,1.9c4.5,0,9.1-0.9,13.9-2.7
			c4.8-1.8,9.5-4.4,14.2-7.6c4.7-3.2,9.3-7,13.8-11.4c4.5-4.4,8.8-9.2,12.8-14.4c1.1,5.1,2.4,9.7,3.9,13.9c1.5,4.2,3.3,7.7,5.5,10.7
			c2.2,3,4.7,5.3,7.7,7c3,1.7,6.6,2.5,10.8,2.5c4.1,0,8.6-0.6,13.4-1.7c4.8-1.2,9.8-2.7,14.8-4.7c5.1-1.9,10.1-4.2,15.1-6.7
			c4.2-2.2,8.2-4.4,12.1-6.7c0,0,0,0,0,0c0.5,4.1,1.5,7.7,3,11s3.7,5.8,6.5,7.7c2.8,1.9,6.5,2.9,11.1,2.9c3.6,0,6.9-0.8,9.9-2.4
			c3-1.6,5.6-4.6,7.8-9.1c7.8-15.2,14.1-28,19-38.4c4.9-10.5,8.9-19,12.1-25.5c3.1-6.6,5.6-11.5,7.3-14.9c1.7-3.4,3.3-5.9,4.6-7.6
			h2.5c-1.8,10.4-3.3,20.1-4.6,29.1c-0.6,3.8-1.1,7.7-1.7,11.6c-0.6,3.9-1.1,7.6-1.5,11.1c-0.5,3.5-0.8,6.6-1,9.3
			c-0.2,2.7-0.3,4.8-0.3,6.3c0,3.4,0.2,6.9,0.6,10.5c0.4,3.6,1.2,6.9,2.4,9.9c1.2,3,2.8,5.5,5,7.4c2.1,1.9,5,2.9,8.6,2.9
			c4.7,0,8.9-0.8,12.5-2.4c3.6-1.6,6.9-4.8,9.8-9.5l34.2-86.6h2.5c-0.9,8.2-1.6,16.2-2.1,24.2c-0.5,8-0.8,15.6-0.8,22.7
			c0,7.4,0.4,14.2,1.1,20.5c0.7,6.3,1.9,11.7,3.6,16.4c1.7,4.6,3.9,8.2,6.7,10.8c2.8,2.6,6.2,3.9,10.2,3.9c8.2,0,15.6-1.1,22.1-3.2
			c6.5-2.1,12.5-4.9,18-8.2c5.4-3.3,10.6-7,15.5-11.1c1.4-1.2,2.8-2.3,4.2-3.4c1,1.5,2.1,3,3.2,4.4c5.2,6.6,11.8,11.8,19.7,15.7
			c7.9,3.9,17.1,5.8,27.5,5.8c6.7,0,13.4-0.8,20-2.3c6.6-1.6,12.9-3.6,19-6.2c6.1-2.6,12-5.6,17.5-8.9c5.1-3.1,9.8-6.2,14.3-9.3
			c0.1,1.6,0.3,3.2,0.4,4.7c0.5,4.2,1.5,8,3,11.3c1.5,3.3,3.7,6,6.5,7.9c2.8,2,6.5,3,11.1,3c3.7,0,7-0.8,9.8-2.5
			c2.7-1.6,5.2-4.7,7.6-9.4l44.2-87.7h2.7c-1.3,9-2.5,17.4-3.4,25.2c-0.9,7.8-1.3,15.1-1.3,21.8c0,17.2,2.1,30.3,6.3,39.2
			c4.2,8.9,9.4,13.4,15.6,13.4c6.2,0,12.1-0.9,17.7-2.7c2.1-0.6,7.6-2.8,16.4-6.7c3.6-1.6,12.5-6.2,26.8-13.8
			c9.9-5.3,15.2-8.2,15.8-8.8l1.2-0.9c0.4,1,0.8,1.9,1.2,2.9c4.4,9.7,9.8,17.2,16.3,22.3c6.5,5.2,14,7.8,22.5,7.8
			c4.2,0,8.8-0.8,13.9-2.4c5.1-1.6,11-3.9,17.6-7.1c6.6-3.1,14.1-7.1,22.5-11.8c4.5-2.5,9.4-5.3,14.6-8.3c1.1,2.1,2.2,4.1,3.5,6.1
			c4.5,7,10.3,12.6,17.3,16.9c7,4.3,15.5,6.5,25.4,6.5c6.9,0,13.3-1.2,19.4-3.5c6.1-2.4,11.7-5.6,16.8-9.6c5.1-4,9.7-8.8,13.7-14.3
			c4-5.5,7.4-11.4,10.1-17.7c2.8-6.3,4.9-12.8,6.3-19.6c1.5-6.7,2.2-13.4,2.2-20.1c0-9.1-0.8-17.3-2.4-24.5
			c-1.6-7.2-4.1-14.1-7.3-20.6l1.3-1.9c4,2.7,8.9,6,14.5,10c5.6,4,11.3,8.8,17.1,14.6c5.8,5.7,11.3,11,16.4,15.7
			c5.2,4.7,9.3,9.1,12.3,13.1C1551.6,576.8,1540.8,536.3,1512.4,508z M1311.2,444.6c2.4-9.6,5-18.4,7.8-26.4
			c2.8-8,5.6-14.5,8.6-19.7c3-5.1,6-7.7,8.9-7.7c2.1,0,3.8,0.4,5,1.3c1.2,0.9,2.1,2,2.6,3.4c0.6,1.3,0.9,2.8,1.1,4.3
			s0.3,2.9,0.3,4.1c0,3.6-1,8.1-2.9,13.7c-1.9,5.6-4.3,11.5-7.3,17.9c-2.9,6.4-6.2,12.9-9.9,19.5c-3.7,6.6-7.2,12.7-10.6,18.4
			c-1.8-0.2-3.6-0.3-5.2-0.4c-1.7-0.1-3.4-0.3-5.1-0.4C1306.5,463.5,1308.8,454.2,1311.2,444.6z M498.3,575.3
			c-0.5,3.6-1.4,8.1-3,13.6c-1.5,5.4-3.5,10.7-6,15.8c-2.5,5.1-5.4,9.4-8.8,13.1c-3.4,3.6-7.1,5.4-11.3,5.4c-2.6,0-4.7-0.7-6.4-2
			c-1.7-1.3-3-3.1-4.1-5.2c-1-2.1-1.7-4.6-2.1-7.3c-0.4-2.7-0.6-5.5-0.6-8.4c0-4.9,0.6-10.1,1.9-15.7c1.3-5.6,3.5-12,6.7-19.4
			c3.1-7.4,6.3-13.5,9.6-18.6c3.3-5,6.8-9.5,10.7-13.4c3.9-3.9,8-7,12.4-9.3c4.4-2.3,8.9-3.4,13.5-3.4L498.3,575.3z M1003.1,566.2
			c0.2-3.4,1.3-7.7,3.1-13c1.9-5.3,3.5-9.7,4.9-13.3c1.4-3.6,3.3-6.8,5.6-9.6c2.3-2.8,5.2-5.1,8.6-6.8c3.4-1.8,7.6-2.6,12.4-2.6
			c2.7,0,5,1.6,6.9,4.8c1.9,3.2,2.8,7.3,2.8,12.2c0,3.5-2,8-5.9,13.4c-3.9,5.4-8,9.7-12.1,12.9c-4.1,3.2-8.6,5.8-13.4,7.8
			c-4.8,2-9.2,3-13.3,3C1002.8,572.5,1002.9,569.6,1003.1,566.2z M1464.9,581c-1.6,8.4-3.8,15.5-6.5,21.4
			c-2.7,5.9-5.8,10.8-9.4,14.7c-3.6,3.9-7.3,5.8-11.1,5.8c-4.4,0-8.1-0.9-11.3-2.8c-3.1-1.9-5.7-4.3-7.6-7.4
			c-1.9-3.1-3.3-6.7-4.2-10.9c-0.9-4.2-1.3-8.6-1.3-13.3c0-9.3,0.9-17.7,2.7-25.1c1.8-7.4,4.3-14.2,7.4-20.3
			c3.1-6.1,6.8-11.2,11-15.1c4.2-3.9,8.5-5.9,13.1-5.9c3.5,0,6.5,1,8.9,2.9c2.5,1.9,4.5,4.5,6.1,7.8c1.6,3.3,2.8,7.1,3.5,11.5
			c0.8,4.4,1.2,9.2,1.2,14.4C1467.3,565.2,1466.5,572.6,1464.9,581z"/>
	</g>
	<g>
		<linearGradient id="SVGID_3_" gradientUnits="userSpaceOnUse" x1="360.186" y1="51.2011" x2="394.1406" y2="51.2011">
			<stop  offset="0" style="stop-color:#FFFFFF"/>
			<stop  offset="0.214" style="stop-color:#F7F7F7"/>
			<stop  offset="0.6184" style="stop-color:#ECECEC"/>
			<stop  offset="1" style="stop-color:#E9E8E8"/>
		</linearGradient>
		<path class="st2" d="M360.2,13.5h34V32c0,11.8-1.5,22-4.4,30.5c-2.9,8.5-7.8,17.3-14.8,26.4l-13.2-10.3c3.3-4.8,5.8-9,7.3-12.6
			c1.6-3.5,3.1-8.2,4.6-14h-13.6V13.5z"/>
		<linearGradient id="SVGID_4_" gradientUnits="userSpaceOnUse" x1="930.7783" y1="188.8486" x2="973.0869" y2="188.8486">
			<stop  offset="0" style="stop-color:#FFFFFF"/>
			<stop  offset="0.214" style="stop-color:#F7F7F7"/>
			<stop  offset="0.6184" style="stop-color:#ECECEC"/>
			<stop  offset="1" style="stop-color:#E9E8E8"/>
		</linearGradient>
		<path class="st3" d="M951.9,167.8c5.8,0,10.8,2,15,6.1c4.1,4.1,6.2,9.1,6.2,14.9c0,5.8-2.1,10.8-6.2,15c-4.1,4.1-9.1,6.2-15,6.2
			c-5.8,0-10.8-2.1-15-6.2c-4.1-4.1-6.2-9.1-6.2-15c0-5.8,2.1-10.8,6.2-14.9C941.1,169.8,946.1,167.8,951.9,167.8z"/>
	</g>
	<g>
		<g>
			<linearGradient id="SVGID_5_" gradientUnits="userSpaceOnUse" x1="305.8896" y1="460.6064" x2="305.8896" y2="310.2763">
				<stop  offset="0" style="stop-color:#808081"/>
				<stop  offset="0.2861" style="stop-color:#848585"/>
				<stop  offset="0.5896" style="stop-color:#939393"/>
				<stop  offset="0.9003" style="stop-color:#ADADAD"/>
				<stop  offset="0.98" style="stop-color:#B6B6B5"/>
			</linearGradient>
			<path class="st4" d="M310.7,460.4h-9.9l-31.8-132.9v133.2h-8.8V310.3h14.2L306,443.2l31.4-132.9h14.2v150.3h-9.4V327L310.7,460.4
				z"/>
			<linearGradient id="SVGID_6_" gradientUnits="userSpaceOnUse" x1="413.3755" y1="460.6064" x2="413.3755" y2="310.0605">
				<stop  offset="0" style="stop-color:#808081"/>
				<stop  offset="0.2861" style="stop-color:#848585"/>
				<stop  offset="0.5896" style="stop-color:#939393"/>
				<stop  offset="0.9003" style="stop-color:#ADADAD"/>
				<stop  offset="0.98" style="stop-color:#B6B6B5"/>
			</linearGradient>
			<path class="st5" d="M389.5,427.3l-7.5,33.3h-9l32.9-150.5h14.4l33.5,150.5h-9.9l-7.5-33.3H389.5z M391,418.7h43.8l-22.1-97.3
				L391,418.7z"/>
			<linearGradient id="SVGID_7_" gradientUnits="userSpaceOnUse" x1="520.8613" y1="460.6064" x2="520.8613" y2="310.2763">
				<stop  offset="0" style="stop-color:#808081"/>
				<stop  offset="0.2861" style="stop-color:#848585"/>
				<stop  offset="0.5896" style="stop-color:#939393"/>
				<stop  offset="0.9003" style="stop-color:#ADADAD"/>
				<stop  offset="0.98" style="stop-color:#B6B6B5"/>
			</linearGradient>
			<path class="st6" d="M525.7,460.4h-9.9L484,327.5v133.2h-8.8V310.3h14.2L521,443.2l31.4-132.9h14.2v150.3H557V327L525.7,460.4z"
				/>
			<linearGradient id="SVGID_8_" gradientUnits="userSpaceOnUse" x1="622.5488" y1="461.8955" x2="622.5488" y2="308.9873">
				<stop  offset="0" style="stop-color:#808081"/>
				<stop  offset="0.2861" style="stop-color:#848585"/>
				<stop  offset="0.5896" style="stop-color:#939393"/>
				<stop  offset="0.9003" style="stop-color:#ADADAD"/>
				<stop  offset="0.98" style="stop-color:#B6B6B5"/>
			</linearGradient>
			<path class="st7" d="M589.5,347c0-21.9,10.1-38,32.9-38c23.2,0,33.3,16.1,33.3,38v76.9c0,21.9-10.1,38-33.3,38
				c-22.8,0-32.9-16.1-32.9-38V347z M599.4,424.5c0,16.3,6.4,28.3,23,28.3c16.8,0,23.4-12,23.4-28.3v-78.2
				c0-16.3-6.7-28.3-23.4-28.3c-16.5,0-23,12-23,28.3V424.5z"/>
			<linearGradient id="SVGID_9_" gradientUnits="userSpaceOnUse" x1="710.0629" y1="460.6064" x2="710.0629" y2="310.2763">
				<stop  offset="0" style="stop-color:#808081"/>
				<stop  offset="0.2861" style="stop-color:#848585"/>
				<stop  offset="0.5896" style="stop-color:#939393"/>
				<stop  offset="0.9003" style="stop-color:#ADADAD"/>
				<stop  offset="0.98" style="stop-color:#B6B6B5"/>
			</linearGradient>
			<path class="st8" d="M709.5,310.3c23.2,0,32.2,14.6,32.2,36.5v16.3c0,23.8-11,35.7-34.8,35.7h-18.7v61.8h-9.9V310.3H709.5z
				 M706.9,389.7c17.4,0,24.9-7.7,24.9-26v-17.6c0-16.3-5.6-26.8-22.3-26.8h-21.3v70.4H706.9z"/>
			<linearGradient id="SVGID_10_" gradientUnits="userSpaceOnUse" x1="791.5644" y1="460.6064" x2="791.5644" y2="310.2763">
				<stop  offset="0" style="stop-color:#808081"/>
				<stop  offset="0.2861" style="stop-color:#848585"/>
				<stop  offset="0.5896" style="stop-color:#939393"/>
				<stop  offset="0.9003" style="stop-color:#ADADAD"/>
				<stop  offset="0.98" style="stop-color:#B6B6B5"/>
			</linearGradient>
			<path class="st9" d="M763,460.6V310.3h9.9v141.3h47.2v9H763z"/>
			<linearGradient id="SVGID_11_" gradientUnits="userSpaceOnUse" x1="879.6147" y1="460.6064" x2="879.6147" y2="310.0605">
				<stop  offset="0" style="stop-color:#808081"/>
				<stop  offset="0.2861" style="stop-color:#848585"/>
				<stop  offset="0.5896" style="stop-color:#939393"/>
				<stop  offset="0.9003" style="stop-color:#ADADAD"/>
				<stop  offset="0.98" style="stop-color:#B6B6B5"/>
			</linearGradient>
			<path class="st10" d="M855.8,427.3l-7.5,33.3h-9l32.9-150.5h14.4L920,460.6h-9.9l-7.5-33.3H855.8z M857.3,418.7h43.8L879,321.4
				L857.3,418.7z"/>
			<linearGradient id="SVGID_12_" gradientUnits="userSpaceOnUse" x1="972.604" y1="461.8955" x2="972.604" y2="308.9873">
				<stop  offset="0" style="stop-color:#808081"/>
				<stop  offset="0.2861" style="stop-color:#848585"/>
				<stop  offset="0.5896" style="stop-color:#939393"/>
				<stop  offset="0.9003" style="stop-color:#ADADAD"/>
				<stop  offset="0.98" style="stop-color:#B6B6B5"/>
			</linearGradient>
			<path class="st11" d="M1004.8,346.6v3.2h-9.4v-3.9c0-15.9-6-27.9-22.3-27.9c-16.3,0-22.3,11.8-22.3,27.7
				c0,36.5,54.3,37.2,54.3,78.6c0,21.7-9.4,37.6-32.4,37.6s-32.4-15.9-32.4-37.6v-7.7h9.4v8.4c0,16.1,6.2,27.7,22.8,27.7
				c16.5,0,22.8-11.6,22.8-27.7c0-36.1-54.3-36.7-54.3-78.6c0-22.5,9.9-37.2,32-37.4C995.6,309,1004.8,324.9,1004.8,346.6z"/>
			<linearGradient id="SVGID_13_" gradientUnits="userSpaceOnUse" x1="1057.7559" y1="460.6064" x2="1057.7559" y2="310.2763">
				<stop  offset="0" style="stop-color:#808081"/>
				<stop  offset="0.2861" style="stop-color:#848585"/>
				<stop  offset="0.5896" style="stop-color:#939393"/>
				<stop  offset="0.9003" style="stop-color:#ADADAD"/>
				<stop  offset="0.98" style="stop-color:#B6B6B5"/>
			</linearGradient>
			<path class="st12" d="M1052.7,460.6V319.3h-30.5v-9h71.1v9h-30.7v141.3H1052.7z"/>
			<linearGradient id="SVGID_14_" gradientUnits="userSpaceOnUse" x1="1116.9224" y1="460.6064" x2="1116.9224" y2="310.2763">
				<stop  offset="0" style="stop-color:#808081"/>
				<stop  offset="0.2861" style="stop-color:#848585"/>
				<stop  offset="0.5896" style="stop-color:#939393"/>
				<stop  offset="0.9003" style="stop-color:#ADADAD"/>
				<stop  offset="0.98" style="stop-color:#B6B6B5"/>
			</linearGradient>
			<path class="st13" d="M1121.9,310.3v150.3h-9.9V310.3H1121.9z"/>
			<linearGradient id="SVGID_15_" gradientUnits="userSpaceOnUse" x1="1183.7109" y1="460.6064" x2="1183.7109" y2="310.0605">
				<stop  offset="0" style="stop-color:#808081"/>
				<stop  offset="0.2861" style="stop-color:#848585"/>
				<stop  offset="0.5896" style="stop-color:#939393"/>
				<stop  offset="0.9003" style="stop-color:#ADADAD"/>
				<stop  offset="0.98" style="stop-color:#B6B6B5"/>
			</linearGradient>
			<path class="st14" d="M1159.9,427.3l-7.5,33.3h-9l32.9-150.5h14.4l33.5,150.5h-9.9l-7.5-33.3H1159.9z M1161.4,418.7h43.8
				l-22.1-97.3L1161.4,418.7z"/>
		</g>
	</g>
	<g>
		<g>
			<linearGradient id="SVGID_16_" gradientUnits="userSpaceOnUse" x1="255.2534" y1="389.4413" x2="346.5259" y2="389.4413">
				<stop  offset="0" style="stop-color:#FFFFFF"/>
				<stop  offset="0.214" style="stop-color:#F7F7F7"/>
				<stop  offset="0.6184" style="stop-color:#ECECEC"/>
				<stop  offset="1" style="stop-color:#E9E8E8"/>
			</linearGradient>
			<path class="st15" d="M305.7,464.4h-9.9l-31.8-132.9v133.2h-8.8V314.3h14.2L301,447.2l31.4-132.9h14.2v150.3h-9.4V331
				L305.7,464.4z"/>
			<linearGradient id="SVGID_17_" gradientUnits="userSpaceOnUse" x1="368.0005" y1="389.3334" x2="448.7505" y2="389.3334">
				<stop  offset="0" style="stop-color:#FFFFFF"/>
				<stop  offset="0.214" style="stop-color:#F7F7F7"/>
				<stop  offset="0.6184" style="stop-color:#ECECEC"/>
				<stop  offset="1" style="stop-color:#E9E8E8"/>
			</linearGradient>
			<path class="st16" d="M384.5,431.3l-7.5,33.3h-9l32.9-150.5h14.4l33.5,150.5h-9.9l-7.5-33.3H384.5z M386,422.7h43.8l-22.1-97.3
				L386,422.7z"/>
			<linearGradient id="SVGID_18_" gradientUnits="userSpaceOnUse" x1="470.2251" y1="389.4413" x2="561.4975" y2="389.4413">
				<stop  offset="0" style="stop-color:#FFFFFF"/>
				<stop  offset="0.214" style="stop-color:#F7F7F7"/>
				<stop  offset="0.6184" style="stop-color:#ECECEC"/>
				<stop  offset="1" style="stop-color:#E9E8E8"/>
			</linearGradient>
			<path class="st17" d="M520.7,464.4h-9.9L479,331.5v133.2h-8.8V314.3h14.2L516,447.2l31.4-132.9h14.2v150.3H552V331L520.7,464.4z"
				/>
			<linearGradient id="SVGID_19_" gradientUnits="userSpaceOnUse" x1="584.476" y1="389.4414" x2="650.6216" y2="389.4414">
				<stop  offset="0" style="stop-color:#FFFFFF"/>
				<stop  offset="0.214" style="stop-color:#F7F7F7"/>
				<stop  offset="0.6184" style="stop-color:#ECECEC"/>
				<stop  offset="1" style="stop-color:#E9E8E8"/>
			</linearGradient>
			<path class="st18" d="M584.5,351c0-21.9,10.1-38,32.9-38c23.2,0,33.3,16.1,33.3,38v76.9c0,21.9-10.1,38-33.3,38
				c-22.8,0-32.9-16.1-32.9-38V351z M594.4,428.5c0,16.3,6.4,28.3,23,28.3c16.8,0,23.4-12,23.4-28.3v-78.2
				c0-16.3-6.7-28.3-23.4-28.3c-16.5,0-23,12-23,28.3V428.5z"/>
			<linearGradient id="SVGID_20_" gradientUnits="userSpaceOnUse" x1="673.3862" y1="389.4413" x2="736.7397" y2="389.4413">
				<stop  offset="0" style="stop-color:#FFFFFF"/>
				<stop  offset="0.214" style="stop-color:#F7F7F7"/>
				<stop  offset="0.6184" style="stop-color:#ECECEC"/>
				<stop  offset="1" style="stop-color:#E9E8E8"/>
			</linearGradient>
			<path class="st19" d="M704.5,314.3c23.2,0,32.2,14.6,32.2,36.5v16.3c0,23.8-11,35.7-34.8,35.7h-18.7v61.8h-9.9V314.3H704.5z
				 M701.9,393.7c17.4,0,24.9-7.7,24.9-26v-17.6c0-16.3-5.6-26.8-22.3-26.8h-21.3v70.4H701.9z"/>
			<linearGradient id="SVGID_21_" gradientUnits="userSpaceOnUse" x1="758.0014" y1="389.4413" x2="815.1274" y2="389.4413">
				<stop  offset="0" style="stop-color:#FFFFFF"/>
				<stop  offset="0.214" style="stop-color:#F7F7F7"/>
				<stop  offset="0.6184" style="stop-color:#ECECEC"/>
				<stop  offset="1" style="stop-color:#E9E8E8"/>
			</linearGradient>
			<path class="st20" d="M758,464.6V314.3h9.9v141.3h47.2v9H758z"/>
			<linearGradient id="SVGID_22_" gradientUnits="userSpaceOnUse" x1="834.2397" y1="389.3334" x2="914.9897" y2="389.3334">
				<stop  offset="0" style="stop-color:#FFFFFF"/>
				<stop  offset="0.214" style="stop-color:#F7F7F7"/>
				<stop  offset="0.6184" style="stop-color:#ECECEC"/>
				<stop  offset="1" style="stop-color:#E9E8E8"/>
			</linearGradient>
			<path class="st21" d="M850.8,431.3l-7.5,33.3h-9l32.9-150.5h14.4L915,464.6h-9.9l-7.5-33.3H850.8z M852.3,422.7h43.8L874,325.4
				L852.3,422.7z"/>
			<linearGradient id="SVGID_23_" gradientUnits="userSpaceOnUse" x1="935.1753" y1="389.4414" x2="1000.0327" y2="389.4414">
				<stop  offset="0" style="stop-color:#FFFFFF"/>
				<stop  offset="0.214" style="stop-color:#F7F7F7"/>
				<stop  offset="0.6184" style="stop-color:#ECECEC"/>
				<stop  offset="1" style="stop-color:#E9E8E8"/>
			</linearGradient>
			<path class="st22" d="M999.8,350.6v3.2h-9.4v-3.9c0-15.9-6-27.9-22.3-27.9c-16.3,0-22.3,11.8-22.3,27.7
				c0,36.5,54.3,37.2,54.3,78.6c0,21.7-9.4,37.6-32.4,37.6s-32.4-15.9-32.4-37.6v-7.7h9.4v8.4c0,16.1,6.2,27.7,22.8,27.7
				c16.5,0,22.8-11.6,22.8-27.7c0-36.1-54.3-36.7-54.3-78.6c0-22.5,9.9-37.2,32-37.4C990.6,313,999.8,328.9,999.8,350.6z"/>
			<linearGradient id="SVGID_24_" gradientUnits="userSpaceOnUse" x1="1017.2134" y1="389.4413" x2="1088.2983" y2="389.4413">
				<stop  offset="0" style="stop-color:#FFFFFF"/>
				<stop  offset="0.214" style="stop-color:#F7F7F7"/>
				<stop  offset="0.6184" style="stop-color:#ECECEC"/>
				<stop  offset="1" style="stop-color:#E9E8E8"/>
			</linearGradient>
			<path class="st23" d="M1047.7,464.6V323.3h-30.5v-9h71.1v9h-30.7v141.3H1047.7z"/>
			<linearGradient id="SVGID_25_" gradientUnits="userSpaceOnUse" x1="1106.9829" y1="389.4413" x2="1116.8618" y2="389.4413">
				<stop  offset="0" style="stop-color:#FFFFFF"/>
				<stop  offset="0.214" style="stop-color:#F7F7F7"/>
				<stop  offset="0.6184" style="stop-color:#ECECEC"/>
				<stop  offset="1" style="stop-color:#E9E8E8"/>
			</linearGradient>
			<path class="st24" d="M1116.9,314.3v150.3h-9.9V314.3H1116.9z"/>
			<linearGradient id="SVGID_26_" gradientUnits="userSpaceOnUse" x1="1138.3364" y1="389.3334" x2="1219.0854" y2="389.3334">
				<stop  offset="0" style="stop-color:#FFFFFF"/>
				<stop  offset="0.214" style="stop-color:#F7F7F7"/>
				<stop  offset="0.6184" style="stop-color:#ECECEC"/>
				<stop  offset="1" style="stop-color:#E9E8E8"/>
			</linearGradient>
			<path class="st25" d="M1154.9,431.3l-7.5,33.3h-9l32.9-150.5h14.4l33.5,150.5h-9.9l-7.5-33.3H1154.9z M1156.4,422.7h43.8
				l-22.1-97.3L1156.4,422.7z"/>
		</g>
	</g>
	<g>
		<g>
			<linearGradient id="SVGID_27_" gradientUnits="userSpaceOnUse" x1="545.0744" y1="248.2592" x2="1541.6053" y2="248.2592">
				<stop  offset="0" style="stop-color:#3165AF"/>
				<stop  offset="0.214" style="stop-color:#285EA9"/>
				<stop  offset="0.6184" style="stop-color:#1C56A3"/>
				<stop  offset="1" style="stop-color:#1853A1"/>
			</linearGradient>
			<polygon class="st26" points="550,243.8 545.1,252.8 1541.6,252.8 1541.6,243.8 			"/>
		</g>
		<g>
			<polygon class="st27" points="538.3,250.8 533.4,259.8 1529.9,259.8 1529.9,250.8 			"/>
		</g>
	</g>
	<linearGradient id="SVGID_28_" gradientUnits="userSpaceOnUse" x1="190.1352" y1="115.0678" x2="331.208" y2="115.0678">
		<stop  offset="0" style="stop-color:#FFFFFF"/>
		<stop  offset="0.214" style="stop-color:#F7F7F7"/>
		<stop  offset="0.6184" style="stop-color:#ECECEC"/>
		<stop  offset="1" style="stop-color:#E9E8E8"/>
	</linearGradient>
	<path class="st28" d="M313.6,141.1V13.5H276l-85.8,127.6V176h86.5v40.7h36.9V176h17.7v-34.9H313.6z M276.6,141.1h-45.3l45.3-66.4
		V141.1z M307.3,22.1l-0.4,9c-0.2,3-0.3,6-0.6,9c-0.2-3-0.4-6-0.6-9l-0.4-7.9l-5.9,0.2c-2.3,0.1-4.6,0.1-6.8,0.2l-6.8,0.2l-5.8,0.1
		c-1.8,3-3.5,5.9-5.3,8.8l-5.9,9.6l-6,9.6c-2,3.2-4,6.3-6,9.5c-2,3.2-4,6.3-6.1,9.5c-2.1,3.1-4.1,6.3-6.2,9.4
		c-2.1,3.1-4.2,6.2-6.3,9.3c-1.1,1.6-2.2,3.1-3.2,4.6c-1.1,1.5-2.2,3.1-3.3,4.6c0.9-1.7,1.7-3.3,2.6-5c0.9-1.7,1.8-3.3,2.7-5
		c1.8-3.3,3.6-6.6,5.5-9.8c1.8-3.3,3.7-6.5,5.6-9.8c1.9-3.3,3.8-6.5,5.7-9.7c1.9-3.2,3.8-6.5,5.8-9.7l5.9-9.6l6-9.6
		c2-3.2,4-6.4,6-9.5l0.6-0.9l1,0l6.8,0.1l6.8,0.2c2.3,0.1,4.6,0.1,6.8,0.2l6.8,0.3l1.1,0L307.3,22.1z"/>
	<linearGradient id="SVGID_29_" gradientUnits="userSpaceOnUse" x1="411.3193" y1="140.5615" x2="572.7246" y2="140.5615">
		<stop  offset="0" style="stop-color:#FFFFFF"/>
		<stop  offset="0.214" style="stop-color:#F7F7F7"/>
		<stop  offset="0.6184" style="stop-color:#ECECEC"/>
		<stop  offset="1" style="stop-color:#E9E8E8"/>
	</linearGradient>
	<path class="st29" d="M549.6,29.7c-15.4-16.1-34.8-24.2-58-24.2c-22.2,0-41.1,7.8-56.7,23.3c-15.7,15.5-23.5,34.6-23.5,57
		c0,23.2,7.6,42.6,22.9,58.2c15.3,15.6,33.9,23.4,55.7,23.4L444.9,255l41.6,20.7l66.1-129.6c8.6-16.7,14.1-29,16.5-36.9
		c2.4-8,3.6-15.9,3.6-23.8C572.7,64.3,565,45.8,549.6,29.7z M449.5,34.5c-0.6,0.6-1.3,1.2-1.9,1.9l-1.9,2.1c-0.6,0.6-1.2,1.4-1.8,2
		c-1.2,1.4-2.3,2.8-3.4,4.2c-1.1,1.5-2.1,2.9-3.1,4.5c-1,1.5-1.9,3-2.8,4.5c-0.8,1.6-1.7,3.1-2.4,4.6c-1.5,3.1-2.7,6.2-3.8,9.1
		c-1,3-1.9,5.9-2.5,8.6c-0.3,1.3-0.6,2.6-0.9,3.9c-0.3,1.2-0.5,2.4-0.7,3.5c-0.2,1.1-0.3,2.2-0.5,3.1c-0.1,1-0.2,1.9-0.3,2.7
		c-0.2,1.6-0.3,2.9-0.4,3.8c-0.1,0.9-0.1,1.3-0.1,1.3s0-0.5-0.1-1.3c0-0.9-0.2-2.2-0.2-3.8c0-0.8,0-1.7,0-2.7c0-1,0.1-2.1,0.1-3.2
		c0-1.2,0.2-2.4,0.3-3.7c0.1-1.3,0.3-2.6,0.5-4c0.4-2.8,1.1-5.8,1.9-9c0.9-3.1,2-6.5,3.5-9.7c1.4-3.3,3.1-6.6,5.2-9.8
		c1-1.6,2.1-3.2,3.2-4.7c1.2-1.5,2.3-3.1,3.6-4.5c0.6-0.7,1.2-1.4,1.9-2.2l1.9-2c0.6-0.7,1.4-1.3,2-2c0.7-0.7,1.4-1.3,2.1-1.9
		c2.8-2.6,5.9-4.7,8.9-6.6c3-2,6.2-3.5,9.2-4.8c3-1.3,6-2.2,8.8-2.8c1.4-0.4,2.7-0.6,4-0.8c1.3-0.2,2.5-0.3,3.7-0.5
		c1.2-0.1,2.2-0.2,3.2-0.2c1-0.1,1.9,0,2.7-0.1c1.6-0.1,2.9,0.1,3.8,0.1c0.9,0.1,1.3,0.1,1.3,0.1s-0.5,0.1-1.3,0.1
		c-0.9,0.1-2.2,0.2-3.8,0.5c-1.6,0.2-3.6,0.6-5.8,1c-1.1,0.3-2.3,0.5-3.5,0.9c-1.2,0.4-2.5,0.7-3.8,1.1c-1.3,0.5-2.7,0.9-4,1.5
		c-1.4,0.5-2.8,1.2-4.2,1.9c-2.8,1.4-5.7,3-8.5,5c-2.8,1.9-5.6,4.1-8.2,6.6C450.8,33.3,450.2,33.9,449.5,34.5z M515.5,111.1
		c-6.2,6.6-13.8,9.9-22.9,9.9c-9.6,0-17.5-3.3-23.9-9.9c-6.4-6.6-9.5-14.9-9.5-24.8c0-10,3.3-18.3,9.8-25c6.5-6.7,14.3-10,23.4-10
		c8.6,0,16.2,3.4,22.6,10.1c6.5,6.7,9.7,15.1,9.7,25.1C524.8,96.3,521.7,104.5,515.5,111.1z"/>
	<linearGradient id="SVGID_30_" gradientUnits="userSpaceOnUse" x1="595.2915" y1="117.5605" x2="734.478" y2="117.5605">
		<stop  offset="0" style="stop-color:#FFFFFF"/>
		<stop  offset="0.214" style="stop-color:#F7F7F7"/>
		<stop  offset="0.6184" style="stop-color:#ECECEC"/>
		<stop  offset="1" style="stop-color:#E9E8E8"/>
	</linearGradient>
	<path class="st30" d="M725.9,56.7c-5.7-14.6-13.8-25.4-24.3-32.5c-10.5-7.1-22.9-10.6-37.4-10.6c-22.3,0-39.7,9-52.1,26.9
		c-11.2,16.3-16.8,42.7-16.8,79.1c0,26.1,2.9,46.1,8.6,60.2c5.7,14.1,13.7,24.6,23.8,31.5c10.1,6.9,22.7,10.4,37.6,10.4
		c14.9,0,27.3-3.4,37.1-10.3c9.8-6.9,17.6-17.6,23.4-32.3c5.8-14.6,8.7-35.1,8.7-61.4C734.5,91.6,731.6,71.3,725.9,56.7z M686.9,173
		c-5.4,9.1-12.6,13.6-21.8,13.6c-9.5,0-17.2-4.8-23.2-14.3c-6-9.6-8.9-26.9-8.9-51.9c0-19.2,1.3-33.8,3.9-43.8
		c2.6-10,6.4-17,11.3-21.1c4.9-4.1,10.6-6.1,16.9-6.1c9.3,0,16.9,4.9,22.8,14.8c5.9,9.9,8.8,27.8,8.8,53.9
		C696.8,143.7,693.5,162,686.9,173z M694.8,30.9c-1.1-0.6-2.4-1.2-3.9-2c-0.8-0.3-1.6-0.6-2.5-1c-0.4-0.2-0.9-0.4-1.3-0.5
		c-0.5-0.2-0.9-0.3-1.4-0.5c-1-0.3-2-0.7-3-0.9c-1.1-0.3-2.2-0.5-3.3-0.8c-2.3-0.4-4.7-0.8-7.2-0.9c-0.6,0-1.2-0.1-1.9-0.1
		c-0.7,0-1.3,0-2,0c-0.7,0-1.3,0-2,0c-0.6,0-1.3,0-1.9,0.1c-2.7,0.1-5.3,0.4-7.9,0.9c-2.6,0.5-5.2,1.2-7.7,2.1c-2.5,0.9-4.8,2-7,3.2
		c-1.1,0.7-2.1,1.3-3.1,2c-1,0.7-2,1.3-2.9,2.1c-1.8,1.4-3.5,2.9-5,4.3c-0.7,0.7-1.4,1.4-2.1,2.1c-0.6,0.7-1.2,1.3-1.8,2
		c-1.1,1.3-2,2.4-2.8,3.3c-1.5,1.9-2.4,3-2.4,3s0.6-1.3,1.7-3.5c0.6-1.1,1.3-2.4,2.3-3.8c0.5-0.7,1-1.5,1.5-2.3
		c0.6-0.8,1.2-1.6,1.9-2.4c1.4-1.6,2.9-3.4,4.7-5c0.9-0.9,1.9-1.6,2.9-2.5c1-0.8,2.1-1.5,3.3-2.3c2.3-1.4,4.8-2.8,7.5-3.8
		c2.6-1.1,5.5-1.8,8.3-2.4c2.9-0.5,5.7-0.8,8.6-0.8l1.1,0l0.5,0l0.3,0h0.2l0.1,0c0.7,0,1.4,0.1,2,0.1c0.7,0,1.3,0.1,2,0.1
		c0.7,0,1.4,0.2,2,0.2c2.7,0.3,5.3,0.9,7.6,1.6c1.2,0.4,2.3,0.8,3.4,1.1c1.1,0.4,2.1,0.9,3.1,1.3c0.5,0.2,1,0.4,1.4,0.7
		c0.4,0.3,0.9,0.5,1.3,0.7c0.8,0.5,1.6,0.9,2.4,1.4c1.4,1,2.6,1.9,3.6,2.6c1.9,1.6,2.9,2.6,2.9,2.6S696.9,32.1,694.8,30.9z"/>
	<linearGradient id="SVGID_31_" gradientUnits="userSpaceOnUse" x1="758.1172" y1="117.5605" x2="897.3037" y2="117.5605">
		<stop  offset="0" style="stop-color:#FFFFFF"/>
		<stop  offset="0.214" style="stop-color:#F7F7F7"/>
		<stop  offset="0.6184" style="stop-color:#ECECEC"/>
		<stop  offset="1" style="stop-color:#E9E8E8"/>
	</linearGradient>
	<path class="st31" d="M888.7,56.7C883,42.1,875,31.2,864.5,24.1C854,17,841.6,13.5,827.1,13.5c-22.3,0-39.7,9-52.1,26.9
		c-11.2,16.3-16.8,42.7-16.8,79.1c0,26.1,2.9,46.1,8.6,60.2c5.7,14.1,13.7,24.6,23.8,31.5c10.1,6.9,22.7,10.4,37.6,10.4
		c14.9,0,27.3-3.4,37.1-10.3c9.8-6.9,17.6-17.6,23.4-32.3c5.8-14.6,8.7-35.1,8.7-61.4C897.3,91.6,894.5,71.3,888.7,56.7z
		 M790.7,38.7c-0.7,0.7-1.4,1.4-2.1,2.1c-0.6,0.7-1.2,1.3-1.8,2c-1.1,1.3-2,2.4-2.8,3.3c-1.5,1.9-2.4,3-2.4,3s0.6-1.3,1.7-3.5
		c0.6-1.1,1.3-2.4,2.3-3.8c0.5-0.7,1-1.5,1.5-2.3c0.6-0.8,1.2-1.6,1.9-2.4c1.4-1.6,2.9-3.4,4.7-5c0.9-0.9,1.9-1.6,2.9-2.5
		c1-0.8,2.1-1.5,3.3-2.3c2.3-1.4,4.8-2.8,7.5-3.8c2.6-1.1,5.5-1.8,8.3-2.4c2.9-0.5,5.7-0.8,8.6-0.8l1.1,0l0.5,0l0.3,0h0.2l0.1,0
		c0.7,0,1.4,0.1,2,0.1c0.7,0,1.3,0.1,2,0.1c0.7,0,1.4,0.2,2,0.2c2.7,0.3,5.3,0.9,7.6,1.6c1.2,0.4,2.3,0.8,3.4,1.1
		c1.1,0.4,2.1,0.9,3.1,1.3c0.5,0.2,1,0.4,1.4,0.7c0.4,0.3,0.9,0.5,1.3,0.7c0.8,0.5,1.6,0.9,2.4,1.4c1.4,1,2.6,1.9,3.6,2.6
		c1.9,1.6,2.9,2.6,2.9,2.6s-1.2-0.7-3.3-1.9c-1.1-0.6-2.4-1.2-3.9-2c-0.8-0.3-1.6-0.6-2.5-1c-0.4-0.2-0.9-0.4-1.3-0.5
		c-0.5-0.2-0.9-0.3-1.4-0.5c-1-0.3-2-0.7-3-0.9c-1.1-0.3-2.2-0.5-3.3-0.8c-2.3-0.4-4.7-0.8-7.2-0.9c-0.6,0-1.2-0.1-1.9-0.1
		c-0.7,0-1.3,0-2,0c-0.7,0-1.3,0-2,0c-0.6,0-1.3,0-1.9,0.1c-2.7,0.1-5.3,0.4-7.9,0.9c-2.6,0.5-5.2,1.2-7.7,2.1c-2.5,0.9-4.8,2-7,3.2
		c-1.1,0.7-2.1,1.3-3.1,2c-1,0.7-2,1.3-2.9,2.1C793.9,35.8,792.2,37.3,790.7,38.7z M849.8,173c-5.4,9.1-12.6,13.6-21.8,13.6
		c-9.5,0-17.2-4.8-23.2-14.3c-6-9.6-8.9-26.9-8.9-51.9c0-19.2,1.3-33.8,3.9-43.8c2.6-10,6.4-17,11.3-21.1c4.9-4.1,10.6-6.1,16.9-6.1
		c9.3,0,16.9,4.9,22.8,14.8c5.9,9.9,8.8,27.8,8.8,53.9C859.6,143.7,856.3,162,849.8,173z"/>
	<linearGradient id="SVGID_32_" gradientUnits="userSpaceOnUse" x1="1006.4272" y1="117.5605" x2="1145.6136" y2="117.5605">
		<stop  offset="0" style="stop-color:#FFFFFF"/>
		<stop  offset="0.214" style="stop-color:#F7F7F7"/>
		<stop  offset="0.6184" style="stop-color:#ECECEC"/>
		<stop  offset="1" style="stop-color:#E9E8E8"/>
	</linearGradient>
	<path class="st32" d="M1137.1,56.7c-5.7-14.6-13.8-25.4-24.3-32.5c-10.5-7.1-22.9-10.6-37.4-10.6c-22.3,0-39.7,9-52.1,26.9
		c-11.2,16.3-16.8,42.7-16.8,79.1c0,26.1,2.9,46.1,8.6,60.2c5.7,14.1,13.7,24.6,23.8,31.5c10.1,6.9,22.7,10.4,37.6,10.4
		c14.9,0,27.3-3.4,37.1-10.3c9.8-6.9,17.6-17.6,23.4-32.3c5.8-14.6,8.7-35.1,8.7-61.4C1145.6,91.6,1142.8,71.3,1137.1,56.7z
		 M1098.1,173c-5.4,9.1-12.6,13.6-21.8,13.6c-9.5,0-17.2-4.8-23.2-14.3c-6-9.6-8.9-26.9-8.9-51.9c0-19.2,1.3-33.8,3.9-43.8
		c2.6-10,6.4-17,11.3-21.1c4.9-4.1,10.6-6.1,16.9-6.1c9.3,0,16.9,4.9,22.8,14.8c5.9,9.9,8.8,27.8,8.8,53.9
		C1107.9,143.7,1104.6,162,1098.1,173z M1106.8,30.9c-1.1-0.6-2.4-1.2-3.9-2c-0.8-0.3-1.6-0.6-2.5-1c-0.4-0.2-0.9-0.4-1.3-0.5
		c-0.5-0.2-0.9-0.3-1.4-0.5c-1-0.3-2-0.7-3-0.9c-1.1-0.3-2.2-0.5-3.3-0.8c-2.3-0.4-4.7-0.8-7.2-0.9c-0.6,0-1.2-0.1-1.9-0.1
		c-0.7,0-1.3,0-2,0c-0.7,0-1.3,0-2,0c-0.6,0-1.3,0-1.9,0.1c-2.7,0.1-5.3,0.4-7.9,0.9c-2.6,0.5-5.2,1.2-7.7,2.1c-2.5,0.9-4.8,2-7,3.2
		c-1.1,0.7-2.1,1.3-3.1,2c-1,0.7-2,1.3-2.9,2.1c-1.8,1.4-3.5,2.9-5,4.3c-0.7,0.7-1.4,1.4-2.1,2.1c-0.6,0.7-1.2,1.3-1.8,2
		c-1.1,1.3-2,2.4-2.8,3.3c-1.5,1.9-2.4,3-2.4,3s0.6-1.3,1.7-3.5c0.6-1.1,1.3-2.4,2.3-3.8c0.5-0.7,1-1.5,1.5-2.3
		c0.6-0.8,1.2-1.6,1.9-2.4c1.4-1.6,2.9-3.4,4.7-5c0.9-0.9,1.9-1.6,2.9-2.5c1-0.8,2.1-1.5,3.3-2.3c2.3-1.4,4.8-2.8,7.5-3.8
		c2.6-1.1,5.5-1.8,8.3-2.4c2.9-0.5,5.7-0.8,8.6-0.8l1.1,0l0.5,0l0.3,0h0.2l0.1,0c0.7,0,1.4,0.1,2,0.1c0.7,0,1.3,0.1,2,0.1
		c0.7,0,1.4,0.2,2,0.2c2.7,0.3,5.3,0.9,7.6,1.6c1.2,0.4,2.3,0.8,3.4,1.1c1.1,0.4,2.1,0.9,3.1,1.3c0.5,0.2,1,0.4,1.4,0.7
		c0.4,0.3,0.9,0.5,1.3,0.7c0.8,0.5,1.6,0.9,2.4,1.4c1.4,1,2.6,1.9,3.6,2.6c1.9,1.6,2.9,2.6,2.9,2.6S1108.9,32.1,1106.8,30.9z"/>
	<linearGradient id="SVGID_33_" gradientUnits="userSpaceOnUse" x1="1169.2524" y1="117.5605" x2="1308.4388" y2="117.5605">
		<stop  offset="0" style="stop-color:#FFFFFF"/>
		<stop  offset="0.214" style="stop-color:#F7F7F7"/>
		<stop  offset="0.6184" style="stop-color:#ECECEC"/>
		<stop  offset="1" style="stop-color:#E9E8E8"/>
	</linearGradient>
	<path class="st33" d="M1299.9,56.7c-5.7-14.6-13.8-25.4-24.3-32.5c-10.5-7.1-22.9-10.6-37.4-10.6c-22.3,0-39.7,9-52.1,26.9
		c-11.2,16.3-16.8,42.7-16.8,79.1c0,26.1,2.9,46.1,8.6,60.2c5.7,14.1,13.7,24.6,23.8,31.5c10.1,6.9,22.7,10.4,37.6,10.4
		c14.9,0,27.3-3.4,37.1-10.3c9.8-6.9,17.6-17.6,23.4-32.3c5.8-14.6,8.7-35.1,8.7-61.4C1308.4,91.6,1305.6,71.3,1299.9,56.7z
		 M1260.9,173c-5.4,9.1-12.6,13.6-21.8,13.6c-9.5,0-17.2-4.8-23.2-14.3c-6-9.6-8.9-26.9-8.9-51.9c0-19.2,1.3-33.8,3.9-43.8
		c2.6-10,6.4-17,11.3-21.1c4.9-4.1,10.6-6.1,16.9-6.1c9.3,0,16.9,4.9,22.8,14.8c5.9,9.9,8.8,27.8,8.8,53.9
		C1270.7,143.7,1267.4,162,1260.9,173z M1269.5,30.9c-1.1-0.6-2.4-1.2-3.9-2c-0.8-0.3-1.6-0.6-2.5-1c-0.4-0.2-0.9-0.4-1.3-0.5
		c-0.5-0.2-0.9-0.3-1.4-0.5c-1-0.3-2-0.7-3-0.9c-1.1-0.3-2.2-0.5-3.3-0.8c-2.3-0.4-4.7-0.8-7.2-0.9c-0.6,0-1.2-0.1-1.9-0.1
		c-0.7,0-1.3,0-2,0c-0.7,0-1.3,0-2,0c-0.6,0-1.3,0-1.9,0.1c-2.7,0.1-5.3,0.4-7.9,0.9c-2.6,0.5-5.2,1.2-7.7,2.1c-2.5,0.9-4.8,2-7,3.2
		c-1.1,0.7-2.1,1.3-3.1,2c-1,0.7-2,1.3-2.9,2.1c-1.8,1.4-3.5,2.9-5,4.3c-0.7,0.7-1.4,1.4-2.1,2.1c-0.6,0.7-1.2,1.3-1.8,2
		c-1.1,1.3-2,2.4-2.8,3.3c-1.5,1.9-2.4,3-2.4,3s0.6-1.3,1.7-3.5c0.6-1.1,1.3-2.4,2.3-3.8c0.5-0.7,1-1.5,1.5-2.3
		c0.6-0.8,1.2-1.6,1.9-2.4c1.4-1.6,2.9-3.4,4.7-5c0.9-0.9,1.9-1.6,2.9-2.5c1-0.8,2.1-1.5,3.3-2.3c2.3-1.4,4.8-2.8,7.5-3.8
		c2.6-1.1,5.5-1.8,8.3-2.4c2.9-0.5,5.7-0.8,8.6-0.8l1.1,0l0.5,0l0.3,0h0.2l0.1,0c0.7,0,1.4,0.1,2,0.1c0.7,0,1.3,0.1,2,0.1
		c0.7,0,1.4,0.2,2,0.2c2.7,0.3,5.3,0.9,7.6,1.6c1.2,0.4,2.3,0.8,3.4,1.1c1.1,0.4,2.1,0.9,3.1,1.3c0.5,0.2,1,0.4,1.4,0.7
		c0.4,0.3,0.9,0.5,1.3,0.7c0.8,0.5,1.6,0.9,2.4,1.4c1.4,1,2.6,1.9,3.6,2.6c1.9,1.6,2.9,2.6,2.9,2.6S1271.6,32.1,1269.5,30.9z"/>
	<linearGradient id="SVGID_34_" gradientUnits="userSpaceOnUse" x1="1332.0781" y1="117.5605" x2="1471.2646" y2="117.5605">
		<stop  offset="0" style="stop-color:#FFFFFF"/>
		<stop  offset="0.214" style="stop-color:#F7F7F7"/>
		<stop  offset="0.6184" style="stop-color:#ECECEC"/>
		<stop  offset="1" style="stop-color:#E9E8E8"/>
	</linearGradient>
	<path class="st34" d="M1462.7,56.7c-5.7-14.6-13.8-25.4-24.3-32.5c-10.5-7.1-22.9-10.6-37.4-10.6c-22.3,0-39.7,9-52.1,26.9
		c-11.2,16.3-16.8,42.7-16.8,79.1c0,26.1,2.9,46.1,8.6,60.2c5.7,14.1,13.7,24.6,23.8,31.5c10.1,6.9,22.7,10.4,37.6,10.4
		c14.9,0,27.3-3.4,37.1-10.3c9.8-6.9,17.6-17.6,23.4-32.3c5.8-14.6,8.7-35.1,8.7-61.4C1471.3,91.6,1468.4,71.3,1462.7,56.7z
		 M1362.7,38.7c-0.7,0.7-1.4,1.4-2.1,2.1c-0.6,0.7-1.2,1.3-1.8,2c-1.1,1.3-2,2.4-2.8,3.3c-1.5,1.9-2.4,3-2.4,3s0.6-1.3,1.7-3.5
		c0.6-1.1,1.3-2.4,2.3-3.8c0.5-0.7,1-1.5,1.5-2.3c0.6-0.8,1.2-1.6,1.9-2.4c1.4-1.6,2.9-3.4,4.7-5c0.9-0.9,1.9-1.6,2.9-2.5
		c1-0.8,2.1-1.5,3.3-2.3c2.3-1.4,4.8-2.8,7.5-3.8c2.6-1.1,5.5-1.8,8.3-2.4c2.9-0.5,5.7-0.8,8.6-0.8l1.1,0l0.5,0l0.3,0h0.2l0.1,0
		c0.7,0,1.4,0.1,2,0.1c0.7,0,1.3,0.1,2,0.1c0.7,0,1.4,0.2,2,0.2c2.7,0.3,5.3,0.9,7.6,1.6c1.2,0.4,2.3,0.8,3.4,1.1
		c1.1,0.4,2.1,0.9,3.1,1.3c0.5,0.2,1,0.4,1.4,0.7c0.4,0.3,0.9,0.5,1.3,0.7c0.8,0.5,1.6,0.9,2.4,1.4c1.4,1,2.6,1.9,3.6,2.6
		c1.9,1.6,2.9,2.6,2.9,2.6s-1.2-0.7-3.3-1.9c-1.1-0.6-2.4-1.2-3.9-2c-0.8-0.3-1.6-0.6-2.5-1c-0.4-0.2-0.9-0.4-1.3-0.5
		c-0.5-0.2-0.9-0.3-1.4-0.5c-1-0.3-2-0.7-3-0.9c-1.1-0.3-2.2-0.5-3.3-0.8c-2.3-0.4-4.7-0.8-7.2-0.9c-0.6,0-1.2-0.1-1.9-0.1
		c-0.7,0-1.3,0-2,0c-0.7,0-1.3,0-2,0c-0.6,0-1.3,0-1.9,0.1c-2.7,0.1-5.3,0.4-7.9,0.9c-2.6,0.5-5.2,1.2-7.7,2.1c-2.5,0.9-4.8,2-7,3.2
		c-1.1,0.7-2.1,1.3-3.1,2c-1,0.7-2,1.3-2.9,2.1C1365.9,35.8,1364.2,37.3,1362.7,38.7z M1423.7,173c-5.4,9.1-12.6,13.6-21.8,13.6
		c-9.5,0-17.2-4.8-23.2-14.3c-6-9.6-8.9-26.9-8.9-51.9c0-19.2,1.3-33.8,3.9-43.8c2.6-10,6.4-17,11.3-21.1c4.9-4.1,10.6-6.1,16.9-6.1
		c9.3,0,16.9,4.9,22.8,14.8c5.9,9.9,8.8,27.8,8.8,53.9C1433.5,143.7,1430.3,162,1423.7,173z"/>
	<path class="st35" d="M132.3,133.5c-4-8.2-9.6-15.2-17-21c-7.4-5.8-21-12.9-41-21.2C63.1,86.8,55.7,82.5,52,78.4
		c-3.8-4-5.7-8-5.7-12c0-4.8,2.1-9,6.4-12.6c4.3-3.6,9.8-5.5,16.6-5.5c11.6,0,23.3,6.1,35.2,18.3l26-25.3
		c-8.3-8.4-15.4-14.3-21.5-17.8c-6.1-3.5-13.5-6.3-22.2-8.4V0H61.6v13.5C46.5,14.2,34,19.4,24.1,29C14.2,38.7,9.3,50.3,9.3,63.9
		c0,8.2,1.9,15.9,5.6,23.1c3.7,7.2,9.4,13.7,16.9,19.5c7.5,5.8,22,13.6,43.4,23.5c10.5,4.9,17.6,9.6,21.3,14.3
		c3.6,4.7,5.4,10.1,5.4,16.3c0,7.4-2.8,13.8-8.4,19.2c-5.6,5.4-12.3,8.2-20.1,8.2c-15.4,0-31.3-8.8-47.7-26.3L0,188
		c9.7,10.4,20.2,18.8,31.5,25.1c8.3,4.6,18.3,7.5,30,8.9v35.2h25.3v-36c12.5-2.6,22.1-6.4,28.7-11.5c6.6-5,12.1-11.9,16.3-20.5
		c4.2-8.6,6.3-18,6.3-28.2C138.2,150.9,136.3,141.7,132.3,133.5z M42.7,26.9l-0.8,0.4l-0.7,0.5c-0.5,0.3-1,0.6-1.5,0.9
		c-1,0.6-2,1.2-3,2c-1,0.7-1.9,1.4-2.9,2.1c-0.9,0.8-1.9,1.7-2.8,2.5l-0.7,0.6l-0.2,0.2l0,0l0,0l-0.1,0.1l-0.3,0.3l-1.3,1.3
		c-0.8,0.9-1.7,1.7-2.4,2.7c-0.7,1-1.5,1.9-2.2,2.8c-0.6,1-1.3,2-1.9,2.9c-0.7,0.9-1.2,2-1.7,2.9c-0.3,0.5-0.5,1-0.8,1.4
		c-0.3,0.5-0.5,0.9-0.7,1.4c-0.8,2-1.6,3.8-2.1,5.6c-0.3,0.9-0.5,1.7-0.8,2.5c-0.2,0.8-0.3,1.6-0.5,2.3c-0.2,0.7-0.3,1.4-0.4,2.1
		c-0.1,0.6-0.2,1.3-0.2,1.8c-0.3,2.2-0.5,3.4-0.5,3.4c0,0-0.1-1.3-0.1-3.5c0-0.6-0.1-1.2,0-1.8c0.1-0.7,0.1-1.4,0.2-2.2
		c0.1-0.8,0.1-1.6,0.2-2.5c0.2-0.9,0.3-1.8,0.5-2.7c0.2-0.9,0.3-1.9,0.7-2.9c0.3-1,0.7-2,1-3.1c0.2-0.5,0.4-1,0.6-1.6
		c0.2-0.5,0.5-1,0.7-1.6c0.5-1.1,1-2.2,1.6-3.2c0.6-1,1.2-2.1,1.9-3.2c0.7-1,1.5-2,2.3-3c0.7-1,1.7-1.9,2.5-2.9l1.3-1.4l0.3-0.4
		l0.1-0.1l0.1-0.1l0.2-0.2l0.7-0.6c0.9-0.8,1.9-1.7,2.8-2.5C33,29.8,34,29,35,28.3c0.5-0.4,1-0.8,1.6-1.1c0.5-0.3,1.1-0.6,1.6-0.9
		c0.5-0.3,1.1-0.6,1.6-0.9l0.8-0.5l0.8-0.4c1.1-0.5,2.2-1,3.3-1.4c0.5-0.2,1.1-0.4,1.6-0.6c0.5-0.2,1.1-0.3,1.6-0.5
		c0.5-0.2,1-0.3,1.6-0.5c0.5-0.2,1-0.3,1.5-0.4c1-0.2,2-0.4,2.9-0.6c1.9-0.5,3.6-0.5,5.2-0.7c0.8-0.1,1.5-0.2,2.2-0.2
		c0.7,0,1.3,0,1.8,0c2.2,0,3.5,0,3.5,0s-1.2,0.2-3.4,0.6c-0.5,0.1-1.1,0.2-1.8,0.3c-0.6,0.1-1.3,0.3-2.1,0.5
		c-0.7,0.2-1.5,0.4-2.4,0.6c-0.8,0.2-1.7,0.4-2.6,0.7c-0.9,0.3-1.8,0.6-2.8,0.9c-1,0.3-1.9,0.7-2.9,1.1c-0.5,0.2-1,0.4-1.5,0.6
		c-0.5,0.2-1,0.4-1.5,0.7C44.7,25.9,43.7,26.4,42.7,26.9z"/>
	<g>
		<path class="st27" d="M317.2,598.7c-6.3,4.7-13,9-20.1,12.9c-7.1,4-14.4,7.3-21.8,9.9c-7.5,2.6-14.6,4-21.3,4
			c-2.1,0-4.1-0.2-6-0.7c-1.9-0.4-3.6-1.2-5.3-2.3c-1.7-1.1-3.4-2.6-5-4.6c-1.6-2-3.3-4.5-5-7.4c9.8-2.6,18.9-6.3,27.3-11
			c8.4-4.7,15.6-10.1,21.7-16.2c6.1-6,11.4-13.3,16-21.8c4.6-8.5,6.8-16.1,6.8-22.9c0-6.4-1.1-12.2-3.4-17.3
			c-2.2-5.2-5.4-9.6-9.4-13.2c-4-3.6-8.7-6.5-14.1-8.5c-5.4-2-11.2-3-17.5-3c-7.7,0-14.7,1.4-21,4.1c-6.3,2.7-12,6.4-17.1,11
			c-5.1,4.6-9.5,9.9-13.3,16c-3.8,6-7,12.4-9.5,19c-2.5,6.7-4.9,14.3-7.3,22.9c-2.3,8.6-3.5,16-3.5,22.2c0,3.3,0.2,6.6,0.5,9.9
			c-3.1,2.5-6.1,4.8-9.1,6.9c-2.7,1.9-5.5,3.8-8.3,5.7c-2.9,1.9-5.7,3.5-8.5,5c-2.8,1.5-5.5,2.6-8,3.5c-2.5,0.9-4.9,1.3-7,1.3
			c-2.2,0-4-0.7-5.5-2c-1.5-1.4-2.7-3.2-3.5-5.5c-0.9-2.3-1.5-5-1.9-7.9c-0.4-3-0.6-6.1-0.6-9.4c0-2.6,0.2-5.3,0.5-8.1
			c0.4-2.8,0.8-5.5,1.3-8.2c0.5-2.7,1.1-5.1,1.7-7.4c0.6-2.3,1.2-4.2,1.8-5.8c2.7-7.3,8.9-21.1,18.8-41.4
			c6.4-13.3,11.9-26.7,16.5-40.3c4.5-13.6,9.2-27.3,13.8-41.2c4.7-13.9,7.1-28.9,7.5-45c0.1-4.2,0.1-8.4,0.1-12.4
			c0-6.4-0.5-12.6-1.5-18.7c-1-6-2.7-11.3-5-15.9c-2.3-4.6-5.3-8.2-9-11c-3.7-2.8-8.2-4.1-13.5-4.1c-7.2,0-14.2,2.2-21,6.7
			c-6.8,4.4-13.2,10.6-19.2,18.5c-6,7.9-11.5,17.2-16.5,28c-5,10.8-9.1,22.6-12.3,35.4c-3.2,12.8-6.2,24.8-8.9,35.9
			c-2.8,11.1-4.3,24-4.6,38.6c-8.5,0.8-16.6,2.8-24.1,6c-7.5,3.2-14.9,7.9-22,14.2c-7.1,6.3-12.9,13.2-17.2,20.9
			c-4.3,7.6-8.3,15-11.8,22c-3.5,7-6.2,14.3-8.1,21.7c-1.9,7.5-2.8,14.9-2.8,22.2c0,6.8,0.9,13.5,2.6,19.9
			c1.7,6.4,4.4,12.1,7.9,17.2c3.5,5,8,9.1,13.3,12.1c5.3,3,11.7,4.6,19,4.6c5.2,0,10.3-0.9,15.5-2.6c5.1-1.7,10.2-4,15.2-6.9
			c5-2.9,9.9-6.2,14.5-10.1c4.7-3.9,9.1-8,13.3-12.3c2.8,6.9,6,12.5,9.7,16.6c3.7,4.2,7.5,7.4,11.2,9.6c3.7,2.2,7.2,3.7,10.4,4.4
			c3.2,0.7,5.5,1.1,7.2,1.1c2.7,0,5.7-0.5,9-1.5c3.3-1,6.7-2.3,10.2-3.9c3.5-1.6,7-3.5,10.6-5.5c3.6-2.1,7-4.2,10.3-6.4
			c5.8-3.8,11.7-8.1,17.6-12.7c1.7,3.1,3.7,6,5.8,8.7c5.2,6.6,11.8,11.8,19.7,15.7c7.9,3.9,17.1,5.8,27.5,5.8c6.7,0,13.7,0.1,20-2.3
			c41.4-16,61.9-75.5,61.9-75.5C328.9,589.6,323.5,594,317.2,598.7z M81.3,609.9c-1.4,2-2.8,3.9-4.5,5.8c-1.6,1.8-3.3,3.5-5.1,4.9
			c-1.8,1.4-3.7,2.6-5.7,3.5c-2,0.9-4,1.3-6,1.3c-3.9,0-7.1-0.4-9.6-1.3c-2.5-0.9-4.4-2-5.7-3.4c-1.3-1.4-2.3-3-2.8-4.7
			c-0.5-1.8-0.8-3.5-0.8-5.3c0-5.7,1-12,3-19c2-7,5-15.4,8.9-25.2c3.9-9.7,8.7-17.6,14.5-23.5c5.8-5.9,12.4-10.7,19.8-14.4
			c0.1-0.1,0.2,1,0.3,3.4c0.1,2.4,0.2,5.4,0.3,9.2c0.1,3.7,0.1,7.9,0.3,12.4c0.1,4.5,0.2,10.3,0.3,17.4c0.1,7.1,0.3,12.4,0.5,15.8
			c0.2,3.5,0.5,6,0.9,7.6C87.3,600.2,84.5,605.3,81.3,609.9z M128.3,537.6v-1.7c0-1.7,0-4.2,0-7.3c0-3.2,0.1-6.9,0.2-11.2
			c0.1-4.3,0.3-9,0.6-14.2c0.3-5.2,0.7-10.6,1.2-16.1c0.2-2.7,0.7-7.3,1.3-13.8c0.6-6.5,1.4-13.8,2.4-21.9c1-8.1,2.5-16.3,4.7-24.8
			c2.1-8.4,4.1-16.2,5.9-23.4c1.8-7.2,4.2-13.1,7.2-17.6c3-4.6,6.3-6.8,9.9-6.8c2.1,0,3.6,1.2,4.7,3.5c1.1,2.4,1.6,6.6,1.6,12.6
			c0,4.6-0.4,10.9-1,18.7c-0.6,6-1.6,12.3-3.1,18.9c-1.5,6.6-3.2,13.3-5.3,20.1c-2.1,6.8-4.2,13.6-6.4,20.5
			c-2.1,6.9-4.3,13.5-6.5,19.8C140.3,507.7,134.6,522.6,128.3,537.6z M229.1,574.2c0.2-3.4,1.3-7.7,3.1-13c1.9-5.3,3.5-9.7,4.9-13.3
			c1.4-3.6,3.3-6.8,5.6-9.6c2.3-2.8,5.2-5.1,8.6-6.8c3.4-1.8,7.6-2.6,12.4-2.6c2.7,0,5,1.6,6.9,4.8c1.9,3.2,2.8,7.3,2.8,12.2
			c0,3.5-2,8-5.9,13.4c-3.9,5.4-8,9.7-12.1,12.9c-4.1,3.2-8.6,5.8-13.4,7.8c-4.8,2-9.2,3-13.3,3
			C228.8,580.5,228.9,577.6,229.1,574.2z"/>
		<path class="st27" d="M1502.4,516c-7-7-16.9-10-26.2-13.3c-9.3-3.3-19.3-5-30-5c-12.5,0-23.7,2.3-33.7,6.8
			c-10,4.6-18.5,10.8-25.4,18.7c-6.9,7.9-12.2,17.3-15.9,28c-3.7,10.7-5.6,23.5-5.6,38.3c0,4.3,0.2,8.5,0.7,12.8
			c-0.4,0.3-0.9,0.6-1.3,1c-4.6,3.2-9.2,6.2-13.8,8.8c-4.7,2.7-9.1,5-13.3,7c-4.2,2-8.1,3.5-11.6,4.6c-3.5,1.1-6.5,1.7-8.9,1.7
			c-3.8,0-7.3-0.6-10.4-1.8c-3.1-1.2-5.7-3.1-7.9-5.7c-2.1-2.6-3.8-6-4.9-10.2c-1.1-4.2-1.7-9.3-1.7-15.3c0-2.4,0-4.9,0.1-7.8
			c0.1-2.8,0.1-5.7,0.3-8.8c0.1-3,0.2-6.1,0.3-9.2c0.1-3.1,0.2-6.1,0.3-9c0.3-6.7,0.7-13.6,1.2-20.6c2.8-3.5,5.9-7.4,9.2-11.7
			c3.3-4.3,6.6-8.7,9.9-13.2h64.8c2.7,0,5.2-1.3,7.4-4c2.2-2.6,3.4-6.1,3.4-10.3c0-3.6-0.5-6.6-1.5-9c-1-2.4-2.6-3.6-4.9-3.8
			c-1.9-0.1-4.3-0.2-7.2-0.3c-2.9-0.1-6.1-0.2-9.4-0.3c-3.4-0.1-6.9-0.2-10.5-0.3c-3.6-0.1-6.9-0.2-10-0.3c-3.1-0.1-5.8-0.2-8.2-0.5
			c-2.4-0.2-4.1-0.2-5.1,0.2c4-6.3,7.9-12.6,11.5-19c3.7-6.4,6.8-12.7,9.5-18.9c2.7-6.2,4.8-12.3,6.4-18.3c1.6-6,2.4-11.7,2.4-17.1
			c0-6.5-0.8-12.8-2.3-18.8c-1.5-6-3.7-11.3-6.5-15.7c-2.8-4.5-6.2-8.1-10.2-10.8c-4-2.7-8.4-4-13.2-4c-7.5,0-14.7,3.3-21.5,10
			c-6.8,6.7-13.2,15.5-18.9,26.6c-5.8,11-11,23.6-15.7,37.8c-4.7,14.2-8.5,28.8-11.5,44c-1.1,0.2-3.2,0.3-6.2,0.3
			c-3-0.1-6.4-0.1-10.2-0.3c-3.8-0.1-7.7-0.1-11.9-0.1c-4.1,0.1-7.9,0.3-11.4,0.8c-3.4,0.5-6.3,1.2-8.5,2.1
			c-2.2,0.9-3.3,2.3-3.3,4.1c0,1.1,0.1,2.5,0.2,4c0.1,1.6,0.5,3.1,1.2,4.5c0.7,1.4,1.8,2.7,3.2,3.8c1.5,1.1,3.6,1.8,6.3,2.2
			c6.1,0.8,10.8,1.4,14,1.9c3.2,0.5,5.9,1,8,1.4c2.1,0.4,4.1,0.9,5.9,1.3c1.9,0.4,4.5,0.9,7.9,1.4c-1,7.5-1.8,15.1-2.3,22.8
			c-0.6,7.6-0.8,14.8-0.8,21.6c0,17.2,1.1,32.7,3.2,46.5c-5.9,3.9-11.3,7.4-16.2,10.5c-7.2,4.6-11,6.9-11.3,6.7
			c-0.2-0.1-2.8,1.7-7.8,5.6c-1,1-3.4,2.2-7.1,3.5c-2.5,1-4.4,1.5-5.7,1.5c-3.7,0-6.4-2.2-8.2-6.7c-1.7-4.5-2.6-10.2-2.6-17.2
			c0-4.2,0.3-8.7,0.8-13.7c0.5-4.9,1.2-9.9,1.9-15c0.8-5.1,1.7-10.8,2.6-17.2c1-6.4,1.8-11.6,2.6-15.7c0.8-4,1.4-7.5,1.9-10.5
			c0.5-2.9,0.8-5,0.8-6.2c0-8.3-1.7-14.8-5-19.6c-3.3-4.7-7.8-7.1-13.4-7.1c-5.6,0-10.7,1.1-15.3,3.4c-4.6,2.2-8.7,6.4-12.3,12.5
			c-0.8,1.3-2,3.4-3.5,6.2c-1.6,2.8-3.3,6-5.2,9.7c-1.9,3.7-4,7.5-6.2,11.5c-2.2,4-4.2,8.6-6.2,13.7c-1.9,5.2-3.6,9.1-5.1,11.9
			c-1.5,2.8-2.5,4.7-3.2,6h-3.4c0-0.8,0.2-2.3,0.5-4.6c0.3-2.3,0.8-5.8,1.3-10.5c0.5-4.7,1-8.8,1.6-12.5c0.6-3.7,1.1-7.2,1.6-10.6
			c0.5-3.4,0.9-6.6,1.3-9.4c0.3-2.9,0.5-5.1,0.5-6.8c0-6.2-1.2-11.1-3.5-14.8c-2.4-3.7-6.6-5.6-12.6-5.6c-6.1,0-10.9,1.7-14.4,5.2
			c-3.5,3.5-5.9,7.8-7.2,13c-1.6,6.6-3.2,14.6-4.9,23.9c-1.7,9.3-3.2,19.8-4.6,31.4c-0.9,8.2-1.8,15.9-2.5,23.1
			c-2.1,1.7-4.4,3.5-6.8,5.3c-6.3,4.7-13,9-20.1,12.9c-7.1,4-14.4,7.3-21.8,9.9c-7.5,2.6-14.6,4-21.3,4c-2.1,0-4.1-0.2-6-0.7
			c-1.9-0.4-3.6-1.2-5.3-2.3c-1.7-1.1-3.4-2.6-5-4.6c-1.6-2-3.3-4.5-5-7.4c9.8-2.6,18.9-6.3,27.3-11c8.4-4.7,15.6-10.1,21.7-16.2
			c6.1-6,11.4-13.3,16-21.8c4.6-8.5,6.8-16.1,6.8-22.9c0-6.4-1.1-12.2-3.4-17.3c-2.2-5.2-5.4-9.6-9.4-13.2c-4-3.6-8.7-6.5-14.1-8.5
			c-5.4-2-11.2-3-17.5-3c-7.7,0-14.7,1.4-21,4.1c-6.3,2.7-12,6.4-17.1,11c-5.1,4.6-9.5,9.9-13.3,16c-3.8,6-7,12.4-9.5,19
			c-2.5,6.7-4.9,14.3-7.3,22.9c-2.3,8.6-3.5,16-3.5,22.2c0,5.9,0.5,11.6,1.5,17.1c-1.6,1.5-3.3,3-5,4.4c-2.6,2.1-5.2,3.9-7.9,5.5
			c-2.7,1.6-5.3,2.9-7.9,3.9c-2.6,1-5.1,1.5-7.4,1.5c-2.2,0-4.2-1.9-5.7-5.8c-1.6-3.9-2.4-8.8-2.4-15c0-7.8,0.4-15.2,1.2-22.2
			c0.8-7,2-14.7,3.5-23.2c1.6-8.5,2.8-16.3,3.5-23.3c0.8-7,1.2-14.5,1.2-22.3c0-5.1-1.8-9-5.5-11.8c-3.7-2.8-8.1-4.2-13.4-4.2
			c-4.7,0-8.7,1.6-12,4.7c-3.3,3.1-6.5,6.9-9.8,11.5c-3.4,4.7-7,10-10.9,16.2c-3.9,6.1-7.5,12-11,17.5c-3.4,5.6-6.6,11.1-9.5,16.8
			c-2.9,5.6-4.5,8.6-4.7,8.9l-1.9-2c0-0.2,0.1-0.7,0.2-1.4c0.3-2.2,0.7-3.8,1-4.9c2-7,3.4-12.4,4.2-16.2c1-4.3,1.9-7.9,2.7-10.9
			c0.7-2.6,1.3-6.5,2-11.6c0.6-4,0.8-8.2,0.8-12.6c0-5.1-1.7-9-5.1-11.8c-3.4-2.8-7.4-4.2-12.1-4.2c-5.1,0-9.4,1.5-13.1,4.6
			c-3.7,3.1-7.1,6.9-10.4,11.6c-3.4,4.7-6.9,10-10.6,16.1c-3.7,6.1-7.2,11.9-10.4,17.4c-3.2,5.6-6.2,11.2-8.9,16.8
			c-2.8,5.7-4.2,8.7-4.5,9l-1.9-2c1.7-9.5,3.3-18.1,4.9-25.9c0.1-0.2,0.6-3.2,1.3-8.8c0.4-2.9,0.8-5.8,1-8.7c0.3-2.8,0.6-5.5,0.8-8
			c0.2-2.5,0.3-4.7,0.3-6.6c0-3.5-0.1-6.3-0.3-8.3c-0.2-2-0.9-3.6-2.1-4.7c-1.2-1.1-3-1.8-5.4-2c-2.4-0.3-5.8-0.4-10-0.4
			c-2.8,0-5.1,0.2-6.9,0.6c-1.8,0.4-3.3,1.2-4.6,2.4c-1.3,1.2-2.4,2.9-3.5,5c-1,2.2-2.1,5-3.2,8.7c-1.1,3.5-2.4,8.1-3.7,13.6
			c-1.3,5.6-2.7,11.7-4,18.4c-1.3,6.7-2.8,14.5-4.6,23.5c-1.7,9-3.1,17-4,24c-0.7,5.1-1.2,10-1.7,14.8c-2.3,1.7-4.7,3.3-7.2,4.9
			c-4.2,2.6-8.2,5-12.2,7.1c-4,2.1-7.8,3.8-11.3,5c-3.5,1.2-6.5,1.9-9,1.9c-1.9,0-3.4-0.5-4.4-1.6c-1-1.1-1.8-2.6-2.3-4.6
			c-0.5-2-0.8-4.3-0.9-6.9c-0.1-2.6-0.1-5.6-0.1-8.7c0-2,0.4-5.1,1.2-9.4c0.8-4.3,1.7-9.3,2.8-15.1c1.1-5.7,2.4-13,4.1-21.8
			c1.6-8.8,3-16.3,4.2-22.4c1.2-6.2,1.8-11.9,2-17.1c0.2-5.2,0.3-9.4,0.3-12.4c0-3.1-1.6-5.7-4.9-7.8c-3.3-2-7.7-3-13.2-3
			c-4.9,0-9.3,0.9-13.1,2.8s-6,4.1-6.6,6.8l-18.6,91.9c-0.9,4.7-2.3,8.8-4.1,12.4c-1.8,3.7-3.9,6.6-6.3,8.9
			c-2.3,2.5-4.7,4.4-7.3,5.8c-2.6,1.3-5.1,2-7.6,2c-1.7,0-3.2-0.5-4.4-1.4c-1.2-0.9-2.3-2.1-3-3.7c-0.8-1.5-1.4-3.2-1.8-5.1
			s-0.6-3.9-0.6-6c0-0.1,0.3-1.8,0.9-5c0.6-3.2,1.3-7.5,2.3-12.7c0.9-5.2,2.2-12.2,3.8-20.9c1.6-8.7,3-16.6,4.3-23.7
			c1.3-7.1,2.5-14.1,3.8-21.1c1.3-7,2.4-14.3,3.4-21.9c0-2.4-1.3-4.5-3.9-6.1c-2.6-1.6-6.9-2.6-12.8-2.9c-3.6,0.1-6.8,1.1-9.7,2.9
			c-2.9,1.8-5.4,4.1-7.5,6.9c-2.1,2.8-4,6-5.6,9.4c-1.6,3.5-2.9,6.9-4,10.3c-1.1,3.4-1.9,6.5-2.4,9.4c-0.5,2.9-0.9,5.1-1.3,6.8
			c-2.9,22.7-6.1,39.8-9.4,51.3c-0.3,1.2-0.6,2.4-0.9,3.7c-2.5,3.1-5.1,6-7.6,8.7c-2.4,2.6-4.9,5-7.5,7.4c-2.6,2.4-5.3,4.5-7.9,6.4
			c-2.6,1.9-5.3,3.4-7.8,4.6c-2.6,1.2-5.1,1.8-7.4,1.8c-3.1,0-5.2-1.5-6.2-4.4c-1-2.9-1.4-6.9-1.4-12.1c0-6,0.9-13.4,2.8-22.2
			c1.9-8.8,3.5-16.6,5-23.5c1.4-6.9,2.7-13.6,3.9-20.1c1.1-6.5,1.7-12.5,1.7-17.9c0-3.5-0.3-6.3-0.9-8.3c-0.6-2-1.5-3.6-2.6-4.8
			c-1.1-1.1-2.4-1.9-3.9-2.2c-1.5-0.3-3.1-0.5-4.7-0.5c-1.2,0-2.5,0-3.8,0.1c-1.3,0.1-2.6,0.1-3.8,0.1c-1.5,0-2.9-0.1-4.3-0.3
			c-1.4-0.2-2.8-0.5-4.2-1.1c-1.4-0.6-2.5-1.5-3.4-2.7c-0.9-1.2-1.8-2.5-2.8-3.8c-1-1.3-2.2-2.5-3.6-3.5c-1.5-1-3.5-1.5-6.1-1.5
			c-7.8,0-15.5,1.7-23,5c-7.5,3.3-14.7,7.8-21.5,13.4c-6.8,5.6-13,12.1-18.7,19.7c-5.7,7.5-11.1,16.4-16,26.7
			c-5,10.3-8.6,19.9-11,28.7c-2.4,8.8-3.6,17.5-3.6,25.9c0,7.5,1.2,14.2,3.5,20.2c2.4,6,5.5,11,9.4,15.1c3.9,4.1,8.5,7.3,13.6,9.5
			c5.1,2.2,10.4,3.3,15.8,3.3c5.1,0,10.2-0.8,15.3-2.5c5.1-1.7,10-3.8,14.7-6.4c4.7-2.6,9-5.5,13-8.8c4-3.2,7.3-6.4,10-9.5
			c3.6,9,7.9,15.9,12.9,20.6c5,4.7,11.2,7.1,18.7,7.1c6.2,0,12.4-1.5,18.5-4.6c6.2-3.1,12-6.8,17.4-11.3c2.4-2,4.7-4,6.9-6.1
			c0.2,0.6,0.3,1.2,0.5,1.8c1.5,4.8,3.4,8.6,6,11.5c2.5,2.9,5.4,5,8.6,6.2c3.2,1.2,6.7,1.9,10.4,1.9c4.5,0,9.1-0.9,13.9-2.7
			c4.8-1.8,9.5-4.4,14.2-7.6c4.7-3.2,9.3-7,13.8-11.4c4.5-4.4,8.8-9.2,12.8-14.4c1.1,5.1,2.4,9.7,3.9,13.9c1.5,4.2,3.3,7.7,5.5,10.7
			c2.2,3,4.7,5.3,7.7,7c3,1.7,6.6,2.5,10.8,2.5c4.1,0,8.6-0.6,13.4-1.7c4.8-1.2,9.8-2.7,14.8-4.7c5.1-1.9,10.1-4.2,15.1-6.7
			c4.2-2.2,8.2-4.4,12.1-6.7c0,0,0,0,0,0c0.5,4.1,1.5,7.7,3,11s3.7,5.8,6.5,7.7c2.8,1.9,6.5,2.9,11.1,2.9c3.6,0,6.9-0.8,9.9-2.4
			c3-1.6,5.6-4.6,7.8-9.1c7.8-15.2,14.1-28,19-38.4c4.9-10.5,8.9-19,12.1-25.5c3.1-6.6,5.6-11.5,7.3-14.9c1.7-3.4,3.3-5.9,4.6-7.6
			h2.5c-1.8,10.4-3.3,20.1-4.6,29.1c-0.6,3.8-1.1,7.7-1.7,11.6c-0.6,3.9-1.1,7.6-1.5,11.1c-0.5,3.5-0.8,6.6-1,9.3
			c-0.2,2.7-0.3,4.8-0.3,6.3c0,3.4,0.2,6.9,0.6,10.5c0.4,3.6,1.2,6.9,2.4,9.9c1.2,3,2.8,5.5,5,7.4c2.1,1.9,5,2.9,8.6,2.9
			c4.7,0,8.9-0.8,12.5-2.4c3.6-1.6,6.9-4.8,9.8-9.5l34.2-86.6h2.5c-0.9,8.2-1.6,16.2-2.1,24.2c-0.5,8-0.8,15.6-0.8,22.7
			c0,7.4,0.4,14.2,1.1,20.5c0.7,6.3,1.9,11.7,3.6,16.4c1.7,4.6,3.9,8.2,6.7,10.8c2.8,2.6,6.2,3.9,10.2,3.9c8.2,0,15.6-1.1,22.1-3.2
			c6.5-2.1,12.5-4.9,18-8.2c5.4-3.3,10.6-7,15.5-11.1c1.4-1.2,2.8-2.3,4.2-3.4c1,1.5,2.1,3,3.2,4.4c5.2,6.6,11.8,11.8,19.7,15.7
			c7.9,3.9,17.1,5.8,27.5,5.8c6.7,0,13.4-0.8,20-2.3c6.6-1.6,12.9-3.6,19-6.2c6.1-2.6,12-5.6,17.5-8.9c5.1-3.1,9.8-6.2,14.3-9.3
			c0.1,1.6,0.3,3.2,0.4,4.7c0.5,4.2,1.5,8,3,11.3c1.5,3.3,3.7,6,6.5,7.9c2.8,2,6.5,3,11.1,3c3.7,0,7-0.8,9.8-2.5
			c2.7-1.6,5.2-4.7,7.6-9.4l44.2-87.7h2.7c-1.3,9-2.5,17.4-3.4,25.2c-0.9,7.8-1.3,15.1-1.3,21.8c0,17.2,2.1,30.3,6.3,39.2
			c4.2,8.9,9.4,13.4,15.6,13.4c6.2,0,12.1-0.9,17.7-2.7c2.1-0.6,7.6-2.8,16.4-6.7c3.6-1.6,12.5-6.2,26.8-13.8
			c9.9-5.3,15.2-8.2,15.8-8.8l1.2-0.9c0.4,1,0.8,1.9,1.2,2.9c4.4,9.7,9.8,17.2,16.3,22.3c6.5,5.2,14,7.8,22.5,7.8
			c4.2,0,8.8-0.8,13.9-2.4c5.1-1.6,11-3.9,17.6-7.1c6.6-3.1,14.1-7.1,22.5-11.8c4.5-2.5,9.4-5.3,14.6-8.3c1.1,2.1,2.2,4.1,3.5,6.1
			c4.5,7,10.3,12.6,17.3,16.9c7,4.3,15.5,6.5,25.4,6.5c6.9,0,13.3-1.2,19.4-3.5c6.1-2.4,11.7-5.6,16.8-9.6c5.1-4,9.7-8.8,13.7-14.3
			c4-5.5,7.4-11.4,10.1-17.7c2.8-6.3,4.9-12.8,6.3-19.6c1.5-6.7,2.2-13.4,2.2-20.1c0-9.1-0.8-17.3-2.4-24.5
			c-1.6-7.2-4.1-14.1-7.3-20.6l1.3-1.9c4,2.7,8.9,6,14.5,10c5.6,4,11.3,8.8,17.1,14.6c5.8,5.7,11.3,11,16.4,15.7
			c5.2,4.7,9.3,9.1,12.3,13.1C1541.6,584.8,1530.8,544.3,1502.4,516z M1301.2,452.6c2.4-9.6,5-18.4,7.8-26.4
			c2.8-8,5.6-14.5,8.6-19.7c3-5.1,6-7.7,8.9-7.7c2.1,0,3.8,0.4,5,1.3c1.2,0.9,2.1,2,2.6,3.4c0.6,1.3,0.9,2.8,1.1,4.3
			s0.3,2.9,0.3,4.1c0,3.6-1,8.1-2.9,13.7c-1.9,5.6-4.3,11.5-7.3,17.9c-2.9,6.4-6.2,12.9-9.9,19.5c-3.7,6.6-7.2,12.7-10.6,18.4
			c-1.8-0.2-3.6-0.3-5.2-0.4c-1.7-0.1-3.4-0.3-5.1-0.4C1296.5,471.5,1298.8,462.2,1301.2,452.6z M488.3,583.3
			c-0.5,3.6-1.4,8.1-3,13.6c-1.5,5.4-3.5,10.7-6,15.8c-2.5,5.1-5.4,9.4-8.8,13.1c-3.4,3.6-7.1,5.4-11.3,5.4c-2.6,0-4.7-0.7-6.4-2
			c-1.7-1.3-3-3.1-4.1-5.2c-1-2.1-1.7-4.6-2.1-7.3c-0.4-2.7-0.6-5.5-0.6-8.4c0-4.9,0.6-10.1,1.9-15.7c1.3-5.6,3.5-12,6.7-19.4
			c3.1-7.4,6.3-13.5,9.6-18.6c3.3-5,6.8-9.5,10.7-13.4c3.9-3.9,8-7,12.4-9.3c4.4-2.3,8.9-3.4,13.5-3.4L488.3,583.3z M993.1,574.2
			c0.2-3.4,1.3-7.7,3.1-13c1.9-5.3,3.5-9.7,4.9-13.3c1.4-3.6,3.3-6.8,5.6-9.6c2.3-2.8,5.2-5.1,8.6-6.8c3.4-1.8,7.6-2.6,12.4-2.6
			c2.7,0,5,1.6,6.9,4.8c1.9,3.2,2.8,7.3,2.8,12.2c0,3.5-2,8-5.9,13.4c-3.9,5.4-8,9.7-12.1,12.9c-4.1,3.2-8.6,5.8-13.4,7.8
			c-4.8,2-9.2,3-13.3,3C992.8,580.5,992.9,577.6,993.1,574.2z M1454.9,589c-1.6,8.4-3.8,15.5-6.5,21.4c-2.7,5.9-5.8,10.8-9.4,14.7
			c-3.6,3.9-7.3,5.8-11.1,5.8c-4.4,0-8.1-0.9-11.3-2.8c-3.1-1.9-5.7-4.3-7.6-7.4c-1.9-3.1-3.3-6.7-4.2-10.9
			c-0.9-4.2-1.3-8.6-1.3-13.3c0-9.3,0.9-17.7,2.7-25.1c1.8-7.4,4.3-14.2,7.4-20.3c3.1-6.1,6.8-11.2,11-15.1
			c4.2-3.9,8.5-5.9,13.1-5.9c3.5,0,6.5,1,8.9,2.9c2.5,1.9,4.5,4.5,6.1,7.8c1.6,3.3,2.8,7.1,3.5,11.5c0.8,4.4,1.2,9.2,1.2,14.4
			C1457.3,573.2,1456.5,580.6,1454.9,589z"/>
	</g>
</g>
</svg>
