<?xml version="1.0" encoding="utf-8"?>
<!-- Generator: Adobe Illustrator 16.0.0, SVG Export Plug-In . SVG Version: 6.00 Build 0)  -->
<!DOCTYPE svg PUBLIC "-//W3C//DTD SVG 1.1//EN" "http://www.w3.org/Graphics/SVG/1.1/DTD/svg11.dtd">
<svg version="1.1" id="Capa_1" xmlns="http://www.w3.org/2000/svg" xmlns:xlink="http://www.w3.org/1999/xlink" x="0px" y="0px"
	 width="551.289px" height="376.935px" viewBox="-7 0.819 551.289 376.935" enable-background="new -7 0.819 551.289 376.935"
	 xml:space="preserve">
<g>
	<path fill="#727272" d="M514.638,330.657c0,0,0.087-0.063,0.268-0.158c0.179-0.093,0.449-0.234,0.82-0.33
		c0.368-0.113,0.838-0.183,1.385-0.188c0.27,0.026,0.57,0.015,0.872,0.082c0.297,0.079,0.617,0.163,0.94,0.275
		c0.305,0.155,0.621,0.321,0.948,0.491c0.31,0.194,0.585,0.458,0.893,0.697c0.326,0.232,0.557,0.552,0.829,0.854
		c0.254,0.312,0.563,0.608,0.757,0.976c0.427,0.711,0.938,1.423,1.239,2.233c0.358,0.791,0.712,1.596,0.949,2.435
		c0.247,0.836,0.544,1.661,0.695,2.502c0.189,0.832,0.34,1.658,0.503,2.452c0.121,0.8,0.199,1.579,0.285,2.314
		c0.08,0.738,0.178,1.431,0.199,2.078c0.06,1.289,0.055,2.367,0.076,3.118c0.01,0.752-0.002,1.181-0.002,1.181
		s-0.096-0.421-0.235-1.159c-0.127-0.741-0.344-1.791-0.539-3.054c-0.098-0.633-0.273-1.304-0.403-2.022
		c-0.141-0.717-0.289-1.472-0.441-2.253c-0.19-0.77-0.407-1.56-0.592-2.37c-0.159-0.817-0.463-1.601-0.711-2.403
		c-0.216-0.815-0.539-1.582-0.862-2.332c-0.283-0.776-0.697-1.452-1.064-2.133c-0.163-0.359-0.434-0.618-0.635-0.928
		c-0.221-0.29-0.41-0.608-0.677-0.827c-0.252-0.232-0.482-0.486-0.732-0.689c-0.269-0.183-0.527-0.357-0.776-0.525
		c-0.269-0.132-0.541-0.225-0.792-0.343c-0.257-0.103-0.519-0.132-0.761-0.196c-0.49-0.076-0.938-0.084-1.299-0.033
		C515.044,330.485,514.638,330.657,514.638,330.657z"/>
	<g>
		<path fill="#36A9E0" d="M-7,260.103c0,0,0.4-0.415,1.225-1.171c0.828-0.751,2.067-1.865,3.788-3.189
			c3.432-2.647,8.638-6.406,15.799-10.334c7.136-3.968,16.194-8.145,26.991-11.924c10.795-3.768,23.338-7.063,37.253-9.426
			c13.914-2.354,29.192-3.753,45.357-3.935c16.164-0.177,33.208,0.816,50.656,3.051c8.732,1.063,17.557,2.494,26.428,4.203
			c8.876,1.683,17.81,3.621,26.732,5.871c8.914,2.271,17.866,4.671,26.746,7.417c4.432,1.386,8.875,2.775,13.287,4.257
			c4.341,1.447,8.689,2.896,13.036,4.344c17.128,5.831,34.394,11.423,51.322,16.679c4.242,1.293,8.467,2.557,12.677,3.774
			c4.199,1.249,8.382,2.458,12.542,3.618c8.32,2.32,16.564,4.374,24.651,6.266c16.19,3.675,31.878,6.326,46.544,6.77
			c14.666,0.511,28.208-1.46,40.22-5.72c12.043-4.184,22.572-10.386,31.737-16.323c9.163-5.983,16.977-11.758,23.459-16.45
			c6.452-4.745,11.615-8.409,15.091-10.948c1.736-1.271,3.104-2.207,4.013-2.854c0.913-0.64,1.383-0.97,1.383-0.97
			s-1.515,1.729-4.354,4.978c-2.887,3.194-7.025,7.978-12.525,13.856c-5.495,5.891-12.239,12.993-20.685,20.655
			c-8.465,7.588-18.756,15.893-31.989,22.468c-6.592,3.271-13.895,6.004-21.655,7.985c-7.766,1.996-15.97,3.118-24.343,3.664
			c-16.771,0.957-34.12-0.678-51.524-3.606c-8.723-1.414-17.461-3.264-26.229-5.287c-4.381-1.019-8.775-2.075-13.173-3.183
			c-4.387-1.143-8.777-2.331-13.175-3.547c-17.608-4.824-35.134-10.456-52.649-16.271c-4.31-1.478-8.62-2.956-12.924-4.433
			c-4.229-1.462-8.48-2.83-12.722-4.199c-8.504-2.657-16.965-5.322-25.437-7.671c-8.479-2.315-16.907-4.527-25.275-6.515
			c-8.372-1.979-16.686-3.697-24.883-5.262c-16.408-3.041-32.393-5.229-47.624-6.406c-15.229-1.198-29.697-1.431-43.033-0.814
			c-13.338,0.594-25.544,2.034-36.274,3.98c-10.73,1.95-19.983,4.396-27.492,6.842c-7.497,2.475-13.305,4.832-17.143,6.708
			C-5.036,258.89-7,260.103-7,260.103z"/>
		<polygon fill="#36A9E0" points="455.066,10.035 443.523,15.966 469.613,15.966 381.763,237.607 392.109,228.159 478.111,10.035 		
			"/>
		<polygon fill="#FFFFFF" points="441.159,19.647 355.157,237.77 378.202,237.77 464.205,19.647 		"/>
		<g>
			<g>
				<path fill="#FFFFFF" d="M384.43,97.096V52.652c0-16.22-12.443-25.521-34.138-25.521s-34.138,9.301-34.138,25.521v44.443
					c0,16.219,12.443,25.521,34.138,25.521S384.43,113.315,384.43,97.096z M361.109,97.9c0,8.85-6.173,9.873-10.816,9.873
					c-5.036,0-10.816-1.122-10.816-9.873V52.048c0-10.074,7.58-10.074,10.816-10.074c4.644,0,10.816,1.044,10.816,10.074V97.9z"/>
			</g>
			<g>
				<path fill="#36A9E0" d="M343.157,52.048V97.9c0,4.745,1.667,6.191,7.136,6.191c5.055,0,6.897-1.318,7.114-5.326
					c-0.191,0.004-0.384,0.009-0.57,0.009c-5.035,0-10.817-1.122-10.817-9.873V46.188C344.243,46.882,343.157,48.461,343.157,52.048
					z"/>
				<path fill="#36A9E0" d="M356.836,18.133c-12.958,0-22.611,3.321-28.289,9.45c5.854-2.694,13.171-4.133,21.745-4.133
					c23.682,0,37.818,10.917,37.818,29.202v44.443c0,1.101-0.054,2.174-0.155,3.222c1.984-3.464,3.02-7.554,3.02-12.22V43.654
					C390.975,27.435,378.532,18.133,356.836,18.133z"/>
			</g>
		</g>
		<g>
			<g>
				<path fill="#36A9E0" d="M463.882,167.867v45.851c0,4.745,1.668,6.192,7.137,6.192c5.055,0,6.897-1.318,7.113-5.327
					c-0.189,0.005-0.383,0.01-0.568,0.01c-5.037,0-10.818-1.122-10.818-9.873v-42.714C464.968,162.7,463.882,164.28,463.882,167.867
					z"/>
				<path fill="#36A9E0" d="M477.564,133.951c-12.958,0-22.613,3.321-28.29,9.45c5.854-2.694,13.171-4.133,21.745-4.133
					c23.681,0,37.818,10.917,37.818,29.203v44.441c0,1.103-0.054,2.177-0.155,3.224c1.983-3.466,3.019-7.555,3.019-12.221v-44.443
					C511.701,143.253,499.257,133.951,477.564,133.951z"/>
			</g>
			<path fill="#FFFFFF" d="M505.157,212.913v-44.441c0-16.22-12.443-25.521-34.138-25.521s-34.138,9.302-34.138,25.521v44.441
				c0,16.22,12.443,25.523,34.138,25.523S505.157,229.132,505.157,212.913z M481.837,213.718c0,8.851-6.175,9.874-10.818,9.874
				c-5.036,0-10.818-1.122-10.818-9.874v-45.851c0-10.074,7.581-10.074,10.818-10.074c4.644,0,10.818,1.044,10.818,10.074V213.718z"
				/>
		</g>
		<g>
			<path fill="#FFFFFF" d="M24.494,244.56c0,0,1.04-0.42,3.022-1.127c1.988-0.687,4.902-1.714,8.679-2.802
				c3.774-1.092,8.376-2.371,13.713-3.602c2.659-0.66,5.518-1.228,8.521-1.887c3.019-0.572,6.189-1.206,9.521-1.723
				c6.648-1.146,13.902-2.063,21.59-2.881c3.851-0.342,7.803-0.758,11.858-0.979c2.026-0.124,4.073-0.295,6.144-0.365
				c2.071-0.07,4.162-0.142,6.271-0.213c2.108-0.095,4.236-0.101,6.378-0.111c2.143-0.013,4.302-0.026,6.474-0.039
				c2.171,0.047,4.355,0.093,6.551,0.14c2.196,0.043,4.402,0.101,6.614,0.244c4.425,0.236,8.888,0.447,13.354,0.878
				c2.234,0.195,4.475,0.361,6.713,0.582l6.707,0.771c8.943,1.057,17.831,2.539,26.535,4.201c4.36,0.79,8.631,1.848,12.875,2.765
				c2.127,0.44,4.206,1.026,6.283,1.553c2.074,0.536,4.133,1.069,6.175,1.598c8.137,2.228,15.946,4.591,23.237,7.163
				c1.829,0.623,3.633,1.237,5.41,1.842c1.756,0.665,3.485,1.318,5.185,1.962c3.391,1.312,6.695,2.503,9.813,3.783
				c3.103,1.315,6.077,2.575,8.905,3.774c1.407,0.614,2.79,1.187,4.112,1.791c1.313,0.624,2.59,1.23,3.826,1.817
				c2.472,1.175,4.785,2.273,6.924,3.29c1.067,0.514,2.101,0.982,3.068,1.473c0.963,0.501,1.881,0.979,2.752,1.434
				c6.946,3.661,10.916,5.753,10.916,5.753s-4.063-1.901-11.171-5.228c-0.886-0.42-1.818-0.862-2.798-1.326
				c-0.983-0.452-2.034-0.882-3.117-1.354c-2.171-0.933-4.519-1.941-7.026-3.02c-1.254-0.539-2.548-1.095-3.88-1.667
				c-1.34-0.553-2.739-1.07-4.164-1.63c-2.847-1.123-5.84-2.304-8.963-3.535c-3.133-1.203-6.451-2.313-9.854-3.541
				c-1.706-0.601-3.44-1.212-5.202-1.832c-1.781-0.562-3.59-1.131-5.423-1.709c-3.672-1.134-7.41-2.409-11.317-3.425
				c-1.942-0.544-3.906-1.094-5.888-1.648c-1.979-0.566-3.976-1.14-6.018-1.612c-2.034-0.501-4.085-1.006-6.151-1.515
				c-2.068-0.498-4.139-1.056-6.256-1.468c-2.109-0.443-4.231-0.891-6.364-1.34c-2.132-0.452-4.267-0.944-6.438-1.304
				c-8.645-1.616-17.47-3.049-26.345-4.068l-6.651-0.792c-2.22-0.228-4.442-0.4-6.658-0.603c-4.429-0.445-8.856-0.671-13.246-0.923
				c-2.194-0.154-4.383-0.211-6.562-0.273c-2.178-0.072-4.346-0.145-6.5-0.216c-2.155-0.013-4.297-0.024-6.424-0.037
				c-2.127-0.014-4.24-0.033-6.333,0.036c-2.094,0.047-4.171,0.093-6.228,0.139c-2.057,0.055-4.092,0.177-6.107,0.251
				c-4.033,0.129-7.966,0.452-11.801,0.704c-7.656,0.639-14.891,1.385-21.528,2.373c-6.643,0.948-12.711,1.979-18.064,3.032
				c-5.36,1.026-9.99,2.13-13.794,3.077c-3.799,0.963-6.767,1.796-8.782,2.395C25.554,244.193,24.494,244.56,24.494,244.56z"/>
		</g>
		<g>
			<g>
				<path fill="#FFFFFF" d="M193.94,269.209c-25.192,0-41.892,18.283-41.892,44.482c0,20.299,11.516,30.951,11.949,31.239
					c0.719,0.575,1.439,0.721,2.16,0.721c3.31,0,6.91-4.752,6.91-8.493c0-1.44-0.576-2.449-2.159-2.016
					c-0.576-0.434-7.63-8.493-7.63-22.313c0-15.259,6.333-32.534,30.23-32.534c19.146,0,27.352,15.979,27.352,35.412
					c0,28.792-12.812,50.962-23.753,50.962c-5.758,0-8.061-4.175-8.061-12.093v-56.575c0-3.455-3.312-6.334-8.062-6.334
					c-2.015,0-3.743,1.007-3.743,2.447c0,1.009,0.576,1.872,0.576,4.606v55.137c0,15.259,4.895,23.896,18.426,23.896
					c15.835,0,36.133-22.313,36.133-63.198C232.376,291.38,220.715,269.209,193.94,269.209z M220.823,290.504
					c-0.478-0.691-1.165-1.458-1.896-2.359c-0.709-0.922-1.631-1.853-2.577-2.898c-0.456-0.541-1.029-1.006-1.572-1.53
					c-0.545-0.522-1.095-1.069-1.73-1.553c-1.208-1.033-2.574-1.992-4.018-2.89c-0.734-0.43-1.466-0.892-2.271-1.23
					c-0.394-0.185-0.789-0.369-1.186-0.556l-1.233-0.47c-1.649-0.632-3.396-1.057-5.167-1.335c-1.772-0.293-3.583-0.376-5.369-0.319
					c-1.783,0.113-3.561,0.218-5.259,0.568c-1.7,0.316-3.346,0.696-4.889,1.154c-1.544,0.451-2.989,0.959-4.324,1.443
					c-2.65,1.02-4.834,2.015-6.351,2.754c-1.513,0.743-2.371,1.213-2.371,1.213s0.662-0.722,1.974-1.824
					c1.313-1.095,3.275-2.581,5.85-4.045c1.293-0.717,2.713-1.486,4.302-2.119c1.576-0.661,3.281-1.296,5.117-1.733
					c1.822-0.479,3.767-0.816,5.767-0.958c2.003-0.109,4.062-0.061,6.104,0.229c2.03,0.335,4.049,0.841,5.916,1.646
					c0.467,0.198,0.932,0.395,1.395,0.592c0.439,0.242,0.876,0.483,1.311,0.724c0.885,0.45,1.678,1.021,2.468,1.56
					c1.571,1.091,2.938,2.336,4.117,3.597c0.62,0.604,1.161,1.241,1.655,1.882c0.49,0.643,1.007,1.225,1.398,1.862
					c0.836,1.231,1.578,2.365,2.108,3.446c0.574,1.052,1.049,1.975,1.36,2.777c0.666,1.577,1,2.488,1,2.488
					S221.832,291.855,220.823,290.504z"/>
				<path fill="#FFFFFF" d="M537.216,353.292c-0.723,4.699-3.494,8.675-8.676,8.675c-0.844,0-1.567,0-2.409-0.239
					c1.204-4.098,1.686-8.556,1.686-13.016c0-11.688-4.577-20.243-10.241-20.243c-6.508,0-9.76,6.506-9.76,14.099
					c0,8.676,3.012,16.63,8.675,21.449c-1.567,2.771-3.736,4.579-7.11,4.579c-4.699,0-8.676-5.062-8.676-15.184
					c0-11.931,3.615-16.388,5.544-19.28c3.132-2.05,0.724-8.437-2.411-8.437c-2.65,0-12.289,10.725-12.289,28.44
					c0,12.05,5.421,22.412,17.593,22.412c6.868,0,11.446-3.494,14.459-8.676c1.809,0.602,3.735,0.844,5.904,0.844
					c8.194,0,13.135-5.423,14.58-11.93C545.652,350.038,537.699,350.519,537.216,353.292z M503.375,326.894
					c0.394,0.022,0.863,0.101,1.34,0.303c0.23,0.114,0.485,0.218,0.7,0.397l0.327,0.269l0.285,0.321
					c0.2,0.211,0.293,0.491,0.438,0.73c0.098,0.259,0.16,0.527,0.218,0.776c0.026,0.257,0.034,0.506,0.043,0.736
					c-0.015,0.228-0.053,0.443-0.084,0.638c-0.038,0.393-0.204,0.689-0.271,0.903c-0.084,0.211-0.141,0.325-0.141,0.325
					s-0.02-0.132-0.037-0.354c-0.033-0.223-0.001-0.534-0.07-0.894c-0.026-0.18-0.048-0.374-0.071-0.575
					c-0.051-0.194-0.107-0.394-0.147-0.602c-0.069-0.199-0.163-0.391-0.237-0.592c-0.122-0.173-0.19-0.386-0.35-0.532l-0.199-0.249
					l-0.242-0.214c-0.158-0.141-0.34-0.259-0.516-0.373c-0.188-0.097-0.363-0.211-0.553-0.285c-0.18-0.089-0.363-0.151-0.532-0.221
					c-0.683-0.24-1.193-0.359-1.193-0.359S502.58,326.854,503.375,326.894z M518.78,356.185c-2.771-3.616-4.579-8.678-4.579-14.099
					c0-3.736,0.723-5.666,2.048-5.666c2.531,0,2.894,6.027,2.894,14.222C519.142,352.449,519.022,354.255,518.78,356.185z
					 M542.789,356.142c-0.034,0.323-0.171,0.57-0.227,0.747c-0.07,0.176-0.116,0.271-0.116,0.271s-0.016-0.11-0.031-0.295
					c-0.028-0.185,0-0.443-0.058-0.743c-0.024-0.148-0.041-0.31-0.061-0.475c-0.043-0.16-0.088-0.328-0.122-0.501
					c-0.058-0.163-0.135-0.323-0.196-0.491c-0.101-0.144-0.158-0.318-0.29-0.44l-0.165-0.206l-0.2-0.178
					c-0.131-0.117-0.283-0.216-0.429-0.312c-0.157-0.077-0.303-0.175-0.458-0.235c-0.149-0.074-0.302-0.124-0.442-0.182
					c-0.565-0.199-0.989-0.3-0.989-0.3s0.413-0.155,1.073-0.122c0.326,0.017,0.714,0.084,1.112,0.249
					c0.189,0.096,0.402,0.183,0.58,0.331l0.271,0.223l0.237,0.267c0.165,0.175,0.242,0.407,0.361,0.605
					c0.082,0.214,0.135,0.437,0.183,0.646c0.021,0.213,0.028,0.419,0.036,0.608C542.845,355.801,542.813,355.979,542.789,356.142z"
					/>
			</g>
			<path fill="#FFFFFF" d="M57.454,267c-25.706,0-42.745,18.654-42.745,45.388c0,20.711,11.75,31.582,12.192,31.874
				c0.734,0.587,1.468,0.735,2.203,0.735c3.377,0,7.05-4.848,7.05-8.665c0-1.47-0.588-2.498-2.203-2.057
				c-0.587-0.441-7.786-8.666-7.786-22.768c0-15.572,6.463-33.197,30.847-33.197c19.536,0,27.909,16.305,27.909,36.134
				c0,29.376-13.073,51.997-24.237,51.997c-5.875,0-8.226-4.259-8.226-12.337v-57.728c0-3.525-3.378-6.464-8.226-6.464
				c-2.056,0-3.819,1.029-3.819,2.498c0,1.029,0.588,1.909,0.588,4.701v56.259c0,15.57,4.994,24.382,18.801,24.382
				c16.158,0,36.869-22.767,36.869-64.483C96.672,289.622,84.774,267,57.454,267z M85.14,288.357
				c-0.506-0.691-1.233-1.458-2.008-2.359c-0.751-0.921-1.728-1.853-2.729-2.898c-0.483-0.54-1.09-1.006-1.665-1.53
				c-0.577-0.522-1.16-1.068-1.832-1.553c-1.28-1.033-2.726-1.992-4.256-2.89c-0.778-0.43-1.552-0.892-2.405-1.23
				c-0.417-0.185-0.835-0.369-1.256-0.556l-1.307-0.47c-1.747-0.632-3.597-1.057-5.473-1.335c-1.876-0.292-3.794-0.376-5.686-0.318
				c-1.889,0.112-3.772,0.217-5.57,0.567c-1.8,0.316-3.544,0.696-5.177,1.154c-1.636,0.451-3.167,0.96-4.581,1.443
				c-2.807,1.021-5.12,2.015-6.726,2.754c-1.603,0.743-2.511,1.213-2.511,1.213s0.701-0.722,2.09-1.824
				c1.391-1.095,3.468-2.581,6.196-4.045c1.369-0.717,2.874-1.486,4.557-2.118c1.668-0.662,3.475-1.297,5.419-1.734
				c1.93-0.479,3.99-0.816,6.109-0.957c2.122-0.11,4.302-0.062,6.465,0.228c2.151,0.335,4.289,0.841,6.266,1.646
				c0.494,0.198,0.987,0.396,1.477,0.592c0.465,0.242,0.929,0.484,1.389,0.724c0.937,0.45,1.777,1.021,2.614,1.561
				c1.665,1.09,3.112,2.335,4.361,3.596c0.656,0.605,1.23,1.241,1.753,1.883c0.518,0.642,1.066,1.225,1.48,1.861
				c0.886,1.232,1.671,2.365,2.232,3.446c0.608,1.053,1.111,1.975,1.44,2.778c0.705,1.576,1.06,2.487,1.06,2.487
				S86.209,289.708,85.14,288.357z"/>
			<g>
				<path fill="#FFFFFF" d="M110.511,335.052c-0.03,0.007-0.015,0.005,0.003,0C110.515,335.052,110.51,335.05,110.511,335.052z"/>
				<path fill="#FFFFFF" d="M139.45,353.413c-1.446,7.35-5.302,15.184-14.701,15.184c-6.266,0-9.52-3.374-11.206-7.472
					c11.688-3.494,17.834-14.1,17.834-23.017c0-7.229-4.097-12.17-10.845-12.17c-9.279,0-18.437,11.448-18.437,26.75
					c0,15.065,10.362,23.86,21.328,23.86c17.713,0,22.534-14.581,23.377-21.931C147.283,350.4,140.535,347.989,139.45,353.413z
					 M110.771,335.067c-0.03,0.043-0.067,0.089-0.114,0.144c-0.032,0.024-0.034,0.06-0.145,0.089
					c-0.004,0.031-0.166-0.067-0.147-0.13l0.002-0.062c0.007-0.053,0.012-0.056,0.019-0.084c0.051-0.176,0.127-0.329,0.22-0.506
					c0.369-0.705,0.989-1.649,1.907-2.648c0.457-0.503,0.982-1.025,1.599-1.52c0.616-0.491,1.296-0.999,2.09-1.399
					c0.785-0.407,1.658-0.781,2.62-0.976c0.959-0.203,2.001-0.232,3.021-0.043c1.013,0.206,1.99,0.608,2.798,1.179
					c0.825,0.552,1.482,1.249,2.042,1.939c1.11,1.401,1.769,2.878,2.203,4.153c0.445,1.274,0.654,2.37,0.781,3.135
					c0.112,0.771,0.145,1.215,0.145,1.215s-0.221-0.384-0.606-1.055c-0.382-0.664-0.918-1.61-1.591-2.689
					c-0.685-1.07-1.515-2.278-2.553-3.333c-1.039-1.05-2.301-1.879-3.68-2.136c-1.375-0.275-2.887,0.013-4.266,0.563
					c-1.382,0.552-2.63,1.313-3.678,2.021c-1.037,0.721-1.888,1.385-2.444,1.886c-0.06,0.058-0.1,0.099-0.154,0.151
					C110.818,334.995,110.802,335.021,110.771,335.067z M111.976,352.329c-0.241-5.062,1.566-18.316,7.471-18.316
					c1.566,0,2.53,1.567,2.53,4.218c0,7.23-3.856,13.495-9.881,16.268C112.096,353.774,111.976,353.05,111.976,352.329z"/>
			</g>
			<path fill="#FFFFFF" d="M273.925,353.413c-1.444,7.35-5.301,15.184-14.7,15.184c-6.266,0-9.52-3.374-11.207-7.472
				c11.688-3.494,17.834-14.1,17.834-23.017c0-7.229-4.097-12.17-10.845-12.17c-9.279,0-18.437,11.448-18.437,26.75
				c0,15.065,10.362,23.86,21.329,23.86c17.712,0,22.533-14.581,23.376-21.931C281.76,350.4,275.011,347.989,273.925,353.413z
				 M244.382,335.165c-0.022,0.036-0.039,0.061-0.069,0.105c-0.03,0.046-0.067,0.092-0.114,0.145
				c-0.032,0.023-0.034,0.062-0.145,0.088c-0.004,0.034-0.166-0.066-0.147-0.127l0.002-0.063c0.007-0.052,0.013-0.057,0.02-0.086
				c0.051-0.172,0.127-0.326,0.22-0.506c0.369-0.704,0.989-1.646,1.907-2.647c0.456-0.501,0.982-1.026,1.599-1.52
				c0.616-0.491,1.296-1,2.091-1.397c0.785-0.41,1.658-0.781,2.62-0.978c0.958-0.204,2.001-0.23,3.02-0.043
				c1.012,0.206,1.99,0.61,2.798,1.179c0.825,0.551,1.482,1.249,2.042,1.938c1.11,1.402,1.769,2.879,2.203,4.153
				c0.445,1.275,0.654,2.373,0.781,3.138c0.112,0.769,0.145,1.212,0.145,1.212s-0.221-0.383-0.606-1.052
				c-0.382-0.666-0.918-1.61-1.591-2.691c-0.685-1.068-1.515-2.279-2.554-3.331s-2.301-1.881-3.68-2.136
				c-1.375-0.275-2.887,0.013-4.266,0.562c-1.382,0.551-2.63,1.315-3.678,2.02c-1.037,0.722-1.888,1.388-2.445,1.889
				C244.476,335.072,244.436,335.115,244.382,335.165z M246.453,352.329c-0.241-5.062,1.566-18.316,7.471-18.316
				c1.566,0,2.53,1.567,2.53,4.218c0,7.23-3.855,13.495-9.881,16.268C246.573,353.774,246.453,353.05,246.453,352.329z"/>
			<path fill="#FFFFFF" d="M427.802,353.413c-1.445,7.35-5.301,15.184-14.7,15.184c-6.266,0-9.519-3.374-11.206-7.472
				c11.688-3.494,17.834-14.1,17.834-23.017c0-7.229-4.097-12.17-10.846-12.17c-9.278,0-18.437,11.448-18.437,26.75
				c0,15.065,10.362,23.86,21.329,23.86c17.713,0,22.533-14.581,23.377-21.931C435.636,350.4,428.888,347.989,427.802,353.413z
				 M399.191,334.961c-0.022,0.033-0.039,0.06-0.067,0.105c-0.031,0.043-0.067,0.089-0.115,0.144
				c-0.031,0.024-0.034,0.06-0.144,0.089c-0.005,0.031-0.166-0.067-0.147-0.13l0.002-0.062c0.007-0.053,0.014-0.056,0.02-0.084
				c0.052-0.176,0.127-0.329,0.22-0.506c0.368-0.705,0.989-1.649,1.907-2.648c0.456-0.503,0.982-1.025,1.599-1.52
				c0.615-0.491,1.296-0.999,2.091-1.399c0.784-0.407,1.657-0.781,2.62-0.976c0.959-0.203,2.001-0.232,3.02-0.043
				c1.013,0.206,1.99,0.608,2.8,1.179c0.824,0.552,1.48,1.249,2.042,1.939c1.109,1.401,1.769,2.878,2.202,4.153
				c0.445,1.274,0.654,2.37,0.781,3.135c0.112,0.771,0.145,1.215,0.145,1.215s-0.22-0.384-0.606-1.055
				c-0.382-0.664-0.919-1.61-1.591-2.689c-0.685-1.07-1.516-2.278-2.554-3.333c-1.039-1.05-2.301-1.879-3.68-2.136
				c-1.376-0.275-2.887,0.013-4.266,0.563c-1.382,0.552-2.631,1.313-3.678,2.021c-1.038,0.721-1.889,1.385-2.444,1.886
				C399.287,334.868,399.246,334.909,399.191,334.961z M400.329,352.329c-0.239-5.062,1.567-18.316,7.473-18.316
				c1.564,0,2.529,1.567,2.529,4.218c0,7.23-3.856,13.495-9.881,16.268C400.45,353.774,400.329,353.05,400.329,352.329z"/>
			<path fill="#FFFFFF" d="M348.154,353.413c-1.446,7.35-5.785,15.184-15.184,15.184c-7.109,0-12.29-5.303-12.29-14.822
				c0-10.844,4.216-19.762,8.675-19.762c4.098,0,4.338,4.457,4.94,6.507c-0.723,4.218,7.591,1.807,7.591-2.771
				c0-4.218-3.132-11.811-11.446-11.811c-11.447,0-19.641,13.979-19.641,27.836c0,14.822,10.12,22.774,20.845,22.774
				c17.715,0,23.017-14.581,23.859-21.931C355.986,350.4,349.238,347.989,348.154,353.413z M316.704,340.557
				c-0.536,0.727-0.843,1.144-0.843,1.144s0.209-0.475,0.645-1.273c0.445-0.785,1.068-1.929,1.967-3.204
				c0.448-0.64,0.949-1.32,1.508-2.022c0.565-0.697,1.165-1.436,1.869-2.126c0.692-0.699,1.443-1.401,2.286-2.024
				c0.827-0.645,1.767-1.188,2.757-1.645c0.996-0.44,2.108-0.686,3.213-0.704c1.117-0.051,2.199,0.323,3.117,0.793
				c0.454,0.259,0.897,0.516,1.255,0.858c0.394,0.302,0.716,0.654,1.019,1.001c0.325,0.334,0.583,0.695,0.828,1.048
				c0.25,0.35,0.494,0.683,0.677,1.035c0.194,0.343,0.378,0.671,0.556,0.982c0.156,0.321,0.28,0.638,0.41,0.928
				c0.261,0.58,0.47,1.091,0.607,1.524c0.296,0.86,0.447,1.352,0.447,1.352s-0.242-0.455-0.667-1.256
				c-0.191-0.405-0.464-0.88-0.793-1.409c-0.307-0.544-0.704-1.122-1.139-1.742c-0.201-0.324-0.46-0.621-0.724-0.928
				c-0.256-0.316-0.524-0.635-0.849-0.913c-0.304-0.297-0.62-0.592-0.991-0.827c-0.346-0.275-0.728-0.491-1.127-0.689
				c-0.803-0.372-1.691-0.618-2.614-0.57c-0.918,0.03-1.858,0.239-2.744,0.645c-0.885,0.396-1.752,0.874-2.536,1.469
				c-0.79,0.58-1.548,1.193-2.235,1.848c-1.383,1.294-2.612,2.601-3.581,3.791C318.048,338.83,317.234,339.827,316.704,340.557z"/>
			<path fill="#FFFFFF" d="M314.535,352.329c-1.084,0-1.927,0.964-2.77,3.252c-1.327,3.856-4.219,7.473-9.883,8.676
				c0.362-1.325,0.604-2.891,0.604-4.338c0-11.445-7.351-15.786-13.014-25.786c0.12-0.724,2.891-4.7,2.891-8.194
				c0-3.254-1.445-5.423-4.338-5.423c-3.252,0-10.243,5.423-10.243,9.521c0,2.046,0.724,3.855,1.93,5.663
				c-2.169,6.387-4.7,13.255-5.905,18.556c-0.964,4.099,5.663,7.473,6.988,2.411c1.567-5.785,2.772-9.881,4.699-14.58
				c4.218,4.338,8.677,9.398,8.677,16.988c0,3.013-1.325,5.785-2.65,7.353c-6.026,0-16.99-6.99-19.401-6.99
				c-2.65,0-5.904,6.387,0,12.05c2.411,2.291,8.194,5.062,13.256,5.062c4.94,0,8.917-1.807,11.81-4.338
				c7.47-0.481,12.41-2.771,16.146-5.783c2.772-2.291,5.543-6.87,5.543-9.279C318.873,355.461,316.584,352.329,314.535,352.329z
				 M288.579,323.584c-0.343-0.107-0.786-0.064-1.234,0.067c-0.913,0.244-1.816,0.813-2.642,1.328
				c-0.821,0.541-1.571,1.1-2.219,1.579c-1.293,0.987-2.154,1.644-2.154,1.644s0.569-0.946,1.682-2.161
				c0.554-0.609,1.242-1.287,2.062-1.937c0.828-0.638,1.767-1.277,2.94-1.635c0.585-0.153,1.266-0.237,1.939-0.01
				c0.678,0.221,1.187,0.796,1.416,1.328c0.267,0.537,0.354,1.071,0.418,1.563c0.043,0.489,0.057,0.949,0.021,1.366
				c-0.043,0.834-0.168,1.512-0.278,1.979c-0.115,0.467-0.18,0.733-0.18,0.733s-0.022-0.273-0.063-0.75
				c-0.028-0.475-0.084-1.15-0.183-1.935c-0.042-0.396-0.134-0.81-0.22-1.238c-0.112-0.42-0.258-0.849-0.47-1.208
				C289.215,323.914,288.909,323.7,288.579,323.584z"/>
			<path fill="#FFFFFF" d="M474.558,351.967c-1.205,0-2.41,1.083-2.892,3.613c-1.086,5.304-3.255,13.016-8.074,13.016
				c-3.134,0-3.134-4.46-3.134-5.543v-24.945c0-5.543-1.928-12.17-10.002-12.17c-5.903,0-10.242,5.182-13.494,11.931v-5.424
				c0-2.893-2.531-5.301-6.508-5.301c-1.688,0-3.134,0.843-3.134,2.049c0,0.844,0.481,1.564,0.481,3.855v38.199
				c0,4.457,3.375,5.301,5.785,5.301c3.494,0,3.375-2.893,3.375-5.182v-17.593c0.844-9.519,8.313-19.882,11.808-19.882
				c2.291,0,2.53,3.133,2.53,6.869v24.461c0,6.145,3.736,11.326,10.123,11.326c10.362,0,15.182-10.845,17.231-18.799
				c0.119-0.481,0.119-0.721,0.119-0.843C478.774,354.618,476.486,351.967,474.558,351.967z M458.244,335.731
				c-0.3-0.748-0.807-1.788-1.472-2.973c-0.314-0.605-0.742-1.2-1.166-1.838c-0.242-0.292-0.49-0.592-0.744-0.898
				c-0.295-0.259-0.559-0.565-0.872-0.813c-0.623-0.506-1.352-0.86-2.121-1.06c-0.782-0.167-1.613-0.093-2.418,0.14
				c-1.63,0.453-3.099,1.553-4.371,2.634c-1.269,1.114-2.361,2.278-3.265,3.312c-0.896,1.038-1.637,1.925-2.121,2.569
				c-0.491,0.643-0.771,1.009-0.771,1.009s0.185-0.427,0.573-1.139c0.398-0.707,0.963-1.725,1.766-2.871
				c0.796-1.15,1.818-2.437,3.09-3.674c1.277-1.215,2.822-2.439,4.762-3.02c0.963-0.269,2.02-0.348,3.02-0.115
				c0.993,0.252,1.857,0.779,2.556,1.391c0.349,0.307,0.642,0.654,0.938,0.978c0.251,0.354,0.496,0.702,0.735,1.04
				c0.41,0.71,0.787,1.383,1.04,2.042c0.302,0.638,0.491,1.253,0.662,1.798c0.184,0.536,0.309,1.014,0.404,1.409
				c0.197,0.788,0.29,1.241,0.29,1.241S458.56,336.471,458.244,335.731z"/>
			<path fill="#FFFFFF" d="M394.425,351.967c-1.205,0-2.41,1.083-2.892,3.613c-1.086,5.304-3.255,13.016-8.074,13.016
				c-3.132,0-3.132-4.46-3.132-5.543v-30.608c0-2.893-2.531-5.301-6.508-5.301c-1.688,0-3.856,0.481-3.856,1.325
				s1.204,1.083,1.204,4.579v19.4c-1.445,8.436-5.061,16.268-9.881,16.268c-3.494,0-5.543-3.494-5.543-10.001
				c0-10.123,1.326-15.424,3.495-24.341c0.481-1.81,3.978-6.629-1.928-6.629c-6.387,0-5.543,2.41-6.387,4.46
				c0,0-4.338,14.338-4.338,27.111c0,10.482,4.699,17.352,12.773,17.352c5.301,0,9.157-3.614,12.05-8.676
				c0.844,4.819,4.457,8.556,9.881,8.556c10.362,0,15.063-10.845,17.231-18.799c0.121-0.481,0.121-0.721,0.121-0.843
				C398.643,354.618,396.353,351.967,394.425,351.967z M354.5,329.633c-1.004,0.063-1.675,0.104-1.675,0.104
				s0.551-0.438,1.535-0.791c0.243-0.096,0.519-0.17,0.813-0.239c0.298-0.058,0.618-0.125,0.962-0.132
				c0.344-0.01,0.711-0.013,1.091,0.086c0.188,0.021,0.38,0.11,0.568,0.194c0.194,0.076,0.384,0.16,0.549,0.316
				c0.369,0.259,0.577,0.651,0.777,1.03c0.096,0.381,0.208,0.793,0.17,1.139c-0.03,0.348-0.031,0.699-0.13,0.987
				c-0.084,0.295-0.18,0.567-0.269,0.814c-0.07,0.254-0.218,0.45-0.313,0.64c-0.1,0.185-0.2,0.341-0.277,0.47
				c-0.161,0.255-0.263,0.394-0.263,0.394s0.006-0.178,0.033-0.477c0.016-0.146,0.036-0.324,0.059-0.527
				c0.017-0.202,0.078-0.422,0.076-0.667c0.009-0.241,0.019-0.501,0.045-0.769c0.034-0.271-0.047-0.532-0.04-0.806
				c0.007-0.282-0.149-0.493-0.188-0.745c-0.134-0.188-0.23-0.4-0.436-0.516c-0.07-0.091-0.186-0.144-0.3-0.191
				c-0.113-0.053-0.217-0.122-0.359-0.142c-0.257-0.071-0.532-0.132-0.815-0.153C355.549,329.605,354.989,329.61,354.5,329.633z
				 M378.64,333.554c-0.021,0.305-0.048,0.478-0.048,0.478s-0.078-0.163-0.194-0.443c-0.135-0.273-0.222-0.688-0.458-1.124
				c-0.11-0.221-0.218-0.46-0.328-0.71c-0.148-0.229-0.305-0.465-0.44-0.717c-0.171-0.228-0.372-0.438-0.549-0.666
				c-0.229-0.172-0.405-0.419-0.672-0.541l-0.359-0.24l-0.398-0.175c-0.263-0.115-0.548-0.194-0.821-0.269
				c-0.282-0.045-0.556-0.124-0.829-0.142c-0.271-0.038-0.532-0.043-0.777-0.064c-0.979-0.026-1.688,0.029-1.688,0.029
				s0.565-0.448,1.606-0.724c0.52-0.135,1.155-0.226,1.854-0.166c0.343,0.053,0.717,0.084,1.066,0.226l0.532,0.211l0.501,0.297
				c0.344,0.189,0.58,0.511,0.864,0.763c0.233,0.292,0.425,0.613,0.603,0.912c0.142,0.319,0.254,0.636,0.359,0.931
				c0.076,0.302,0.115,0.592,0.156,0.857C378.729,332.799,378.64,333.25,378.64,333.554z"/>
			<path fill="#FFFFFF" d="M504.441,316.54c-8.193,0.361-16.629,0.481-23.979,0.481v-17.5c-1.009,0.539-2.031,1.071-3.077,1.589
				c-1.985,0.985-4.017,1.91-6.081,2.785v13.006c-6.507-0.12-10.846-0.361-10.846-0.361c-3.494,0-1.325,8.073,2.531,8.073
				c0,0,3.012,0.24,8.314,0.24v38.32c0,9.519,4.578,13.375,11.086,13.375c10.364,0,15.184-10.845,17.232-18.799
				c0.12-0.481,0.12-0.721,0.12-0.843c0-2.289-2.289-4.939-4.218-4.939c-1.206,0-2.41,1.083-2.893,3.613
				c-1.083,5.304-3.252,13.016-8.073,13.016c-2.529,0-4.097-1.687-4.097-5.543v-38.2c6.387,0,13.496,0,23.136-0.24
				C506.73,324.493,507.816,312.925,504.441,316.54z M468.249,318.538c-0.867,0.127-2.021,0.189-3.171,0.153
				c-1.149-0.04-2.298-0.182-3.156-0.366c-0.856-0.175-1.426-0.398-1.426-0.398s0.583-0.187,1.45-0.302
				c0.868-0.127,2.022-0.191,3.173-0.158c1.15,0.043,2.296,0.183,3.154,0.367c0.857,0.175,1.426,0.399,1.426,0.399
				S469.118,318.42,468.249,318.538z M503.088,318.252c-0.636,0.144-1.522,0.252-2.604,0.386c-2.157,0.245-5.035,0.412-7.915,0.47
				c-2.879,0.048-5.76-0.017-7.919-0.148c-1.081-0.058-1.982-0.16-2.611-0.206c-0.63-0.06-0.991-0.11-0.991-0.11
				s0.359-0.058,0.989-0.127c0.629-0.06,1.527-0.178,2.604-0.259c2.156-0.18,5.031-0.318,7.905-0.374
				c2.876-0.05,5.752-0.017,7.907,0.051c1.072,0.005,1.99,0.117,2.602,0.084c0.625-0.003,0.999,0.012,0.999,0.012
				S503.715,318.121,503.088,318.252z"/>
		</g>
	</g>
	<g>
		<path fill="#FFFFFF" d="M202.236,218.342c5.17,0.979,10.274,2.039,15.286,3.157c-4.592-6.537-5.917-15.435-5.917-23.505V65.486
			c0-22.204,8.969-33.463,26.657-33.463c17.689,0,26.658,11.259,26.658,33.463v132.509c0,17.156-5.497,27.675-16.32,31.473
			c2.806,0.807,5.485,1.602,8.09,2.407l0.142,0.043c4.371,1.368,8.892,2.782,13.357,4.282l13.014,4.336
			c0.979,0.333,1.983,0.666,2.969,0.999c8.366-11.132,12.816-26.419,12.816-45.33V66.918c0-42.006-22.135-66.099-60.727-66.099
			c-38.365,0-60.369,24.093-60.369,66.099v129.287c0,6.578,0.535,12.718,1.582,18.4
			C186.718,215.581,194.348,216.823,202.236,218.342z"/>
		<g>
			<path fill="#FFFFFF" d="M73.731,65.844c0-15.429,4.563-33.821,26.299-33.821c18.188,0,26.3,11.204,26.3,36.328
				c0,32.86-19.155,53.47-39.435,75.29c-20.13,21.659-40.869,43.988-44.779,79.695c10.756-3.49,22.302-6.296,34.399-8.35
				c0.086-0.015,0.175-0.026,0.261-0.041c4.853-19.757,20.02-36.392,35.928-53.823c22.356-24.495,47.694-52.258,47.694-93.846
				c0-42.855-21.185-66.458-59.652-66.458c-19.628,0-34.762,6.264-44.981,18.616c-9.498,11.48-14.313,27.697-14.313,48.2v23.481
				h32.279V65.844z"/>
			<path fill="#FFFFFF" d="M122.058,249.513c-14.462-1.142-28.684-1.409-41.899-0.799c-12.204,0.544-23.993,1.836-35.058,3.842
				c-1.233,0.226-2.434,0.481-3.649,0.723v6.875h116.082v-6.306C145.172,251.838,133.27,250.377,122.058,249.513z"/>
		</g>
	</g>
</g>
</svg>
