<?xml version="1.0" encoding="utf-8"?>
<!-- Generator: Adobe Illustrator 19.1.0, SVG Export Plug-In . SVG Version: 6.00 Build 0)  -->
<svg version="1.1" id="Capa_7" xmlns="http://www.w3.org/2000/svg" xmlns:xlink="http://www.w3.org/1999/xlink" x="0px" y="0px"
	 viewBox="0 0 1393.6 1101.7" style="enable-background:new 0 0 1393.6 1101.7;" xml:space="preserve">
<style type="text/css">
	.st0{fill:#1B92C1;}
	.st1{fill:#006D8E;}
	.st2{fill:#36A9E0;}
	.st3{fill:url(#SVGID_1_);}
	.st4{fill:url(#SVGID_2_);}
	.st5{fill:url(#SVGID_3_);}
	.st6{fill:#FFFFFF;}
	.st7{fill:url(#SVGID_4_);}
	.st8{opacity:0.2;fill:url(#SVGID_5_);}
	.st9{fill:#B29000;}
	.st10{fill:#FFCE00;}
</style>
<g>
	<g>
		<g>
			<path class="st0" d="M844.2,363.6c0,0,140.8,17.6,321.1-15.4c-48.4,37.4-83.6,68.2-83.6,68.2s57.2,28.6,79.2,39.6
				c-110,24.2-249.3,7.3-322.6-2.9C848.6,416.4,844.2,363.6,844.2,363.6z"/>
			<path class="st1" d="M834.7,359.9v93.2c0,0,101.8-0.6,149.9-31.1C900.6,349.7,894,384.1,834.7,359.9z"/>
			<path class="st0" d="M447.5,363.6c0,0-140.8,17.6-321.1-15.4c48.4,37.4,83.6,68.2,83.6,68.2S152.8,445,130.9,456
				c110,24.2,249.3,7.3,322.6-2.9C443.2,416.4,447.5,363.6,447.5,363.6z"/>
			<path class="st1" d="M453.4,353.3v99.8c0,0-101.8-0.6-149.9-31.1C387.4,349.7,394,377.5,453.4,353.3z"/>
			<g>
				<path class="st2" d="M481.1,274.6c-1.9,0.2-3.8,1.1-5.8,2.7c-2,1.6-3.9,3.6-5.8,6.1c-1.9,2.5-3.7,5.5-5.3,8.8
					c-1.6,3.3-2.9,6.8-3.8,10.6c-2,7.5-2.3,13.7-1.1,18.7c1.2,5,3.7,7.3,7.4,7c2.1-0.1,4.2-1.1,6.4-3c2.2-1.9,4.3-4.3,6.3-7.3
					l0.7-2.6c0.8-3.7,1.8-8.9,3.2-15.5c1.3-6.6,2.7-13.6,4.1-21C486,275.9,483.8,274.4,481.1,274.6z"/>
				<path class="st2" d="M543.7,276.1c-2-2.3-2.6-4.7-1.7-7.2l-1.2,0.1c-2,0.4-4.1,1.5-6.2,3.3c-2.1,1.7-4,3.9-5.6,6.4
					c-1.7,2.5-3.1,5.4-4.4,8.6c-1.3,3.2-2.2,6.5-2.8,9.8c-0.6,3.4-0.7,6.4-0.4,9.3c0.3,2.8,0.9,5.2,2,7.1c1,1.9,2.4,3.3,4,4.1
					c1.7,0.8,3.5,1,5.5,0.6c2-0.6,4.1-1.7,6.2-3.5c2.1-1.7,4-3.9,5.7-6.4c1.7-2.5,3.2-5.4,4.4-8.5c1.2-3.1,2.1-6.4,2.7-9.7
					c0.3-1.5,0.5-3.1,0.5-4.6c0-1.5,0-3-0.1-4.3C548.6,280,545.7,278.3,543.7,276.1z"/>
				<path class="st2" d="M435.3,294.1c-3.8-0.7-6.8-2.1-9-4.2c-2.3-2-3.1-4.4-2.4-7l-1.2,0.2c-2,0.6-3.9,1.9-5.8,3.9
					c-1.9,1.9-3.5,4.3-5,7c-1.4,2.7-2.6,5.7-3.5,9c-1,3.3-1.5,6.7-1.8,10.1c-0.2,3.4-0.1,6.5,0.5,9.3c0.6,2.8,1.5,5.1,2.7,6.9
					c1.2,1.8,2.7,3.1,4.4,3.7c1.7,0.7,3.6,0.7,5.6,0.1c2-0.8,3.9-2.1,5.8-4.1c1.9-1.9,3.6-4.3,5.1-7c1.5-2.7,2.7-5.7,3.6-8.9
					c0.9-3.2,1.5-6.6,1.7-10c0.1-1.6,0.1-3.1,0-4.6C435.7,296.9,435.6,295.4,435.3,294.1z"/>
				<path class="st2" d="M372.8,250.5c-6.3-0.5-12.1,0.1-17.3,1.9c-5.2,1.7-9.6,4-13.3,6.9c-3.7,2.9-6.6,6.1-8.7,9.6
					c-2.1,3.5-3.3,6.9-3.6,10c-0.3,3.1,0.4,5.8,2,8.1c1.7,2.3,4.5,3.5,8.3,3.8c4.8,0.4,9.5-0.6,14.2-3.1c4.7-2.5,9.2-5.5,13.4-9.2
					c4.2-3.7,8-7.5,11.3-11.4c3.3-3.9,5.9-7.1,7.9-9.7c0.4-1.1,0.9-2.1,1.4-3.1c0.5-1,1-1.9,1.6-2.9c-2.7-0.1-5.5-0.1-8.3-0.3
					C379,250.9,376,250.8,372.8,250.5z"/>
				<path class="st2" d="M985.1,325.3c-1.3-0.2-2.5-0.5-3.9-0.9c-2.2-0.6-4.2-1.4-6.1-2.4c-0.5,1.4-1,2.9-1.5,4.3
					c-0.5,1.4-1.2,2.9-1.9,4.4c-2.1,4.3-4.7,8.4-7.9,12.1c-3.2,3.7-6.5,7-10.1,9.7c-3.6,2.7-7.2,4.9-10.9,6.5
					c-3.7,1.6-7.2,2.3-10.6,2.3c-3.4-0.1-6.1-0.9-8.2-2.5c-2.1-1.6-3.6-3.8-4.3-6.7c-0.8-2.9-0.8-6.2-0.2-9.9
					c0.1-0.4,0.2-0.8,0.2-1.2c-3,2.6-6.2,4.9-9.6,6.9c-3.4,2-6.8,3.6-10.3,4.6c-3.5,1-6.5,1.3-9.1,0.8c-3.4-0.6-5.3-2.1-5.7-4.5
					s0-5.1,1.3-8.1c-4.2,3-8.3,5.2-12.3,6.7c-4,1.4-7.5,1.9-10.6,1.3c-2.8-0.5-4.9-1.9-6.2-4c-1.3-2.1-1.9-4.8-1.9-7.9
					c0-1.8,0.3-3.8,0.8-5.9c-2.5,2.2-5.1,4.3-8,6.1c-3.3,2.1-6.7,3.8-10.2,4.9c-3.5,1.1-6.5,1.5-9.1,1.1c-2.7-0.4-4.5-1.4-5.3-3
					c-0.8-1.6-1-3.5-0.7-5.6c0.3-1.8,0.9-3.8,1.7-5.8c-1.7,1.4-3.5,2.8-5.4,4c-3.3,2.2-6.7,4-10,5.2c-3.3,1.3-6.3,1.7-8.9,1.4
					c-2.7-0.3-4.5-1.3-5.4-2.8c-0.8-1.6-1.1-3.4-0.9-5.6c0.3-2.2,0.9-4.5,2-7c1.1-2.5,2.2-4.9,3.3-7.1c0.6-1.2,1.2-2.4,1.8-3.5
					c0.6-1.2,1.2-2.4,1.8-3.7c-2.8,3.7-5.7,7.2-8.8,10.5c-3,3.3-6,6.2-9,8.6c-2.9,2.4-5.7,4.3-8.4,5.5c-2.7,1.3-5,1.8-7.1,1.5
					c-3-0.4-4.4-2.8-4.1-7.2c0.1-2.2,0.6-4.7,1.4-7.4c-1.9,1.8-4,3.5-6.1,5.1c-3.2,2.3-6.5,4.2-9.8,5.5c-3.4,1.3-6.4,1.9-9,1.7
					c-2.7-0.3-4.5-1.1-5.4-2.7c-0.8-1.5-1.1-3.4-0.9-5.6c0.2-1.8,0.6-3.8,1.4-5.9c-1.9,1.8-3.8,3.4-5.9,4.9
					c-3.1,2.2-6.5,3.9-10.2,5.2c-3.7,1.2-7.5,1.7-11.5,1.4c-3-0.2-5.8-1-8.4-2.4c-2.6-1.4-4.8-3.4-6.6-5.9c-1.8-2.5-2.9-5.6-3.5-9.1
					c-0.1-0.7-0.2-1.4-0.2-2.1c-0.3,0.4-0.6,0.8-0.9,1.1c-2.6,3-5.3,5.8-8.4,8.4c-3,2.5-6.2,4.6-9.4,6.2c-3.3,1.6-6.2,2.3-8.8,2.3
					c-3.4-0.1-5.4-1.5-6-4.2c-0.6-2.7-0.4-6,0.5-10c0.9-4,2.4-8.3,4.3-12.9c2-4.6,3.8-8.9,5.4-12.9c1.6-4,2.7-7.3,3.3-9.9
					c0.6-2.7,0.2-4-1.4-4.1c-1.2,0-3.2,1.3-5.8,4c-2.6,2.7-5.4,6.2-8.4,10.4c-3,4.3-6,9.1-8.9,14.4c-2.9,5.3-5.4,10.5-7.5,15.5
					l-0.9,1.8l0,0.2l-1.1,2.5c-0.7,1.5-1.9,2.6-3.5,3.2c-1.6,0.7-3.2,1-4.8,0.9c-1.6,0-2.8-0.4-3.8-1.1c-0.9-0.7-1.1-1.8-0.3-3.3
					c0.4-1,1.2-2.9,2.3-5.8c0.2-0.5,0.4-1,0.5-1.4c-1.1,1.2-2.3,2.4-3.5,3.5c-2.9,2.6-6,4.8-9.2,6.5c-3.2,1.7-6.1,2.5-8.8,2.6
					c-2.8,0-4.7-0.7-5.7-2.1c-1-1.4-1.6-3.3-1.6-5.5c0-2.2,0.3-4.6,1.1-7.2c0.7-2.6,1.5-5.1,2.3-7.5c1.5-4.3,2.9-8.6,4.3-12.9
					c1.4-4.3,2.7-8.3,3.9-11.9c1.2-3.7,2.3-6.9,3.2-9.7c0.9-2.8,1.7-5,2.4-6.5c0.7-1.5,1.8-2.6,3.5-3.3c1.6-0.7,3.2-1.1,4.7-1.1
					c1.5,0,2.7,0.4,3.6,1.1c0.9,0.7,1.1,1.8,0.5,3.2c-0.5,1.5-1.4,4.1-2.7,7.7c-1.3,3.6-2.6,7.5-4,11.6c-1.4,4.1-2.7,8.2-4,12
					c-1.3,3.9-2.2,6.7-2.7,8.5c-0.5,1.8-1,3.5-1.4,5.1c-0.4,1.6-0.7,2.9-0.8,4c-0.1,1.1,0.1,2,0.5,2.7c0.5,0.7,1.4,1,2.6,1
					c2.5,0,5.4-1.7,8.8-5c3.1-3,5.9-6.6,8.4-10.9c0.9-2.4,1.8-4.8,2.8-7.4c1.7-4.5,3.3-8.8,4.7-12.9c1.5-4.1,2.8-7.7,3.9-10.8
					s1.9-5.2,2.3-6.5c0.4-1.4,1.4-2.3,2.9-2.8c1.5-0.5,2.9-0.7,4.5-0.5c1.5,0.2,2.8,0.6,3.9,1.3c1.1,0.7,1.4,1.6,1,2.7l-10.1,27.5
					c2.6-4.1,5.2-8,8-11.7c2.8-3.7,5.6-7,8.4-9.9c2.8-2.9,5.5-5.2,8.1-6.8c2.6-1.7,5-2.5,7.2-2.4c3.7,0.1,5.8,1.5,6.2,4.4
					c0.4,2.8,0,6.3-1.4,10.5c-1.3,4.2-3.2,8.7-5.5,13.5c-2.3,4.8-4.4,9.3-6.1,13.5c-1.8,4.2-2.8,7.7-3.2,10.5
					c-0.4,2.8,0.6,4.3,3.1,4.3c2.6,0.1,5.6-1.5,9.1-4.7c3.3-3.1,6.3-6.8,9.1-11.3c0.1-0.5,0.2-1,0.3-1.4c1.1-4.2,2.8-8.4,5-12.5
					c2.3-4.1,4.8-7.9,7.8-11.3c2.9-3.4,6.1-6.3,9.7-8.6c3.5-2.3,7.2-3.7,10.9-4.2c4.6-0.5,8.1,0.5,10.7,3c2.5,2.5,3.9,5.7,4.3,9.6
					c0.3,3.9-0.6,7.9-2.6,12.1c-2.1,4.2-5.3,7.7-9.8,10.5c-1.7,1.1-3.7,1.8-5.9,1.9c-2.2,0.1-4.2,0-6-0.4c-1.8-0.4-3.1-1-3.9-1.8
					c-0.8-0.8-0.7-1.6,0.5-2.4c3.9-3.1,7.3-6.2,10.1-9.5c2.8-3.3,4.9-6.3,6.3-9c1.3-2.7,1.8-5,1.5-6.8c-0.4-1.8-1.9-2.8-4.5-3
					c-1.9-0.1-3.9,0.4-6,1.6c-2.1,1.2-4.1,2.9-6,5.1c-1.9,2.2-3.7,5-5.3,8.3c-1.6,3.3-2.7,7-3.4,11.1c-0.6,3.5-0.8,6.9-0.3,10.1
					c0.4,3.2,1.4,6,2.9,8.4c1.5,2.4,3.5,4.2,6,5.3c2.5,1.2,5.5,1.6,9.1,1.1c4.6-0.7,8.6-2.4,11.9-5.2c3-2.6,5.6-5.3,7.8-8.3
					c0.8-1.9,1.8-4.1,2.9-6.5c2-4.6,4.2-9.5,6.6-14.9c2.4-5.3,4.7-10.8,7.1-16.4c2.4-5.6,4.6-10.7,6.6-15.5c2-4.7,3.8-8.8,5.4-12.2
					c1.6-3.4,2.6-5.5,3.1-6.5c0.8-1.4,2.1-2.4,3.8-3c1.7-0.5,3.3-0.7,4.8-0.6c1.5,0.1,2.7,0.6,3.5,1.5c0.8,0.8,0.9,1.9,0.2,3.2
					c-0.5,0.9-1.6,3.2-3.2,7c-1.7,3.7-3.7,8.2-6,13.3c-2.3,5.2-4.8,10.7-7.3,16.6c-2.6,5.9-5,11.5-7.3,16.8c-2.3,5.3-4.3,9.8-6,13.8
					c-1.7,3.9-2.8,6.5-3.2,7.7c-0.7,1.7-1.4,3.4-2,4.9c-0.6,1.5-1.1,2.8-1.3,3.9c-0.2,1.1-0.2,2,0.3,2.7c0.4,0.7,1.2,1.2,2.5,1.3
					c2.6,0.2,5.7-1.1,9.4-4.1c3.4-2.7,6.5-6.1,9.5-10.2c2.7-5.4,6.1-11,10.3-16.9c5-7.1,10.9-13.5,17.6-19.2c1.6-1.3,3-1.8,4.4-1.3
					c1.4,0.5,1.4,1.3,0,2.5c-3.6,3.3-7.1,7.3-10.5,11.9c-3.4,4.6-6.3,9.2-8.6,13.7c-2.3,4.5-3.8,8.5-4.6,12
					c-0.8,3.5-0.3,5.7,1.4,6.6c1.6,0.9,3.6,0.5,6.3-1.1c2.6-1.6,5.4-4,8.4-7.1c2.9-3.1,6-6.8,9.1-11.1c3.1-4.3,6-8.7,8.6-13.2
					c0.9-1.8,1.7-3.4,2.5-4.8c0.7-1.4,1.3-2.5,1.9-3.4c0.9-1.4,2.2-2.4,3.9-2.9c1.7-0.5,3.3-0.6,4.8-0.4c1.5,0.2,2.7,0.7,3.4,1.6
					c0.8,0.9,0.8,1.9,0.1,3.2c-0.7,1.4-2,3.9-3.7,7.2c-1.7,3.4-3.6,7.1-5.5,11c-1.9,3.9-3.8,7.7-5.6,11.4c-1.8,3.7-3,6.4-3.8,8.1
					c-0.8,1.7-1.5,3.3-2.1,4.8c-0.6,1.5-1,2.8-1.3,3.9c-0.3,1.1-0.2,2,0.2,2.7c0.4,0.7,1.2,1.2,2.4,1.3c2.5,0.3,5.6-1,9.4-3.8
					c3.6-2.7,7.1-6.2,10.2-10.4c1.3-2.4,2.5-4.8,3.8-7.2c2.1-4,4-7.7,5.8-11.1c1.8-3.4,3.4-6.4,4.7-9.1c1.4-2.6,2.5-4.7,3.4-6.1
					c0.9-1.4,2.2-2.3,4-2.7c1.7-0.4,3.4-0.5,4.9-0.3c1.5,0.2,2.6,0.8,3.4,1.7c0.8,0.9,0.8,2,0,3.2c-0.8,1.4-2.1,3.8-3.9,7.1
					c-1.8,3.3-3.8,6.9-5.8,10.8c-2.1,3.9-4,7.6-5.9,11.2c-1.9,3.6-3.2,6.3-4,7.9c-0.8,1.7-1.6,3.3-2.2,4.8c-0.6,1.5-1.1,2.8-1.4,3.9
					c-0.3,1.1-0.3,2,0.1,2.7c0.4,0.8,1.2,1.2,2.4,1.4c2.5,0.4,5.6-0.8,9.5-3.5c3.6-2.5,7-5.7,10.2-9.6c1.2-2.2,2.5-4.5,4.1-6.8
					c2.9-4.2,6.1-8.1,9.7-11.6c3.6-3.5,7.3-6.5,11-9c3.7-2.5,7.4-4.3,10.9-5.4c3.5-1.2,6.7-1.5,9.5-1c3.2,0.6,5.6,2.5,7.1,5.7
					c2.2-4.1,4.3-8.1,6.4-11.9c2.1-3.9,4.1-7.4,5.8-10.6c1.8-3.2,3.3-5.8,4.4-8c1.2-2.2,2-3.6,2.6-4.4c1-1.4,2.3-2.2,4.1-2.6
					c1.8-0.4,3.4-0.4,4.9-0.1c1.5,0.3,2.6,0.9,3.4,1.8c0.8,0.9,0.8,2,0,3.3c-0.6,0.9-1.9,3.1-4,6.6c-2.1,3.5-4.5,7.8-7.2,12.7
					c-2.7,5-5.7,10.3-8.8,15.9c-3.1,5.7-6.1,11-8.9,16c-2.8,5-5.2,9.4-7.3,13.2c-2.1,3.7-3.4,6.2-3.9,7.4c-0.9,1.7-1.7,3.2-2.4,4.7
					c-0.8,1.5-1.3,2.7-1.5,3.8c-0.3,1.1-0.3,2,0,2.7c0.3,0.8,1,1.2,2.2,1.5c2.6,0.5,5.8-0.6,9.7-3.2c3.8-2.6,7.4-5.9,10.9-9.9
					c0.2-0.4,0.4-0.8,0.6-1.3c2.1-4.3,4.7-8.4,7.9-12.1c3.2-3.7,6.5-7,10.1-9.7c3.6-2.7,7.2-4.9,10.9-6.6c3.7-1.6,7.2-2.4,10.6-2.4
					c4.8,0.1,8.3,1.8,10.5,5.1c2.2,3.3,3,7.6,2.4,12.8c1.5,1,3.1,1.9,4.8,2.6c1.7,0.6,3.4,1.1,5,1.5c9.2-37.7,26.1-70.2,42.4-89.3
					c-401.7-123.1-753.5,0-753.5,0c40.3,80.6,38.9,139.3,29.3,190.6c319.6-108.5,630.4-11.7,680.2,0
					C976.5,389.9,978.2,356,985.1,325.3z M855.8,266.5c0.3-2,1.3-3.7,2.9-4.9c1.6-1.2,3.5-1.7,5.5-1.3c2.2,0.3,3.9,1.3,5.1,3
					c1.2,1.6,1.7,3.5,1.3,5.5c-0.3,2-1.3,3.7-3,5c-1.7,1.3-3.6,1.7-5.8,1.4c-2-0.3-3.7-1.3-4.9-3C856,270.4,855.5,268.5,855.8,266.5
					z M622.3,243.6c1.4-1.5,3.2-2.2,5.2-2.2c2.2,0,4,0.7,5.5,2.1c1.5,1.4,2.2,3.2,2.2,5.2s-0.7,3.9-2.1,5.4
					c-1.4,1.5-3.2,2.3-5.5,2.3c-2.1,0-3.8-0.7-5.3-2.2c-1.5-1.5-2.2-3.3-2.2-5.3C620.2,246.8,620.9,245.1,622.3,243.6z M389.9,289.4
					c-1.7,7.9-3.6,16-5.8,24.2c-2.2,8.2-4.9,15.8-8.1,22.7c-3.2,6.9-6.9,12.8-11.1,17.8c-4.2,5-9.1,8.1-14.7,9.4
					c-3.9,0.9-7.3,1-10.3,0.3c-3-0.7-5.4-1.9-7.3-3.5c-1.9-1.6-3.2-3.6-4.1-5.9c-0.8-2.3-1.2-4.6-1.1-6.9c0.1-2.2,0.8-4.3,2.1-6.1
					c1.3-1.9,3-3.2,5.2-4c2.5-0.9,4.5-0.8,6,0.3c1.5,1.1,2.6,2.4,3.3,4c0.7,1.6,0.9,3.2,0.8,4.8c-0.1,1.6-0.6,2.5-1.6,2.7
					c-1.9,0.4-3,1.4-3.5,2.7c-0.5,1.4-0.4,2.7,0.2,4.1c0.6,1.3,1.7,2.4,3.2,3.3c1.5,0.8,3.5,1,5.7,0.4c2.8-0.7,5.3-2.5,7.5-5.6
					c2.2-3.1,4.2-7,5.9-11.7c1.8-4.7,3.4-10.1,5-16.2c1.5-6,3.1-12.3,4.7-18.8c1.6-6.5,3.2-13.1,4.9-19.6c1.7-6.6,3.5-12.8,5.5-18.8
					c-2.6,3.3-5.6,6.7-9,10.3c-3.4,3.6-7.2,6.8-11.3,9.7c-4.1,2.9-8.6,5.2-13.3,6.9c-4.8,1.7-9.7,2.4-14.7,2
					c-5.3-0.4-9.5-2.1-12.5-5c-3-2.9-4.8-6.4-5.4-10.5c-0.6-4.1,0.2-8.5,2.2-13.2c2-4.7,5.4-8.8,10.1-12.5
					c4.7-3.7,10.8-6.6,18.3-8.7c7.5-2.1,16.5-2.8,27-2.1c4.2,0.3,8,0.3,11.4,0.2c3.4-0.2,6.4-0.4,9.1-0.8c2-2.7,4.3-5,6.7-6.8
					c2.4-1.8,5.1-2.9,8.1-3.5c5.8-1.1,9.8-0.9,11.8,0.6c2.1,1.5,2.8,3.2,2.1,5.2c-1,2.8-3.7,5-7.9,6.6c-4.2,1.6-9.7,2.7-16.6,3.2
					c-1.3,4.1-2.6,9.6-4,16.4C393.1,274.1,391.6,281.5,389.9,289.4z M579.1,277c-0.7,1.3-1.9,2.4-3.4,3.3c-1.5,0.9-3.3,1.5-5.2,2
					c-2,0.4-4.1,0.7-6.4,0.7c-2.3,0-4.5-0.1-6.6-0.5c0,1.5-0.1,3-0.2,4.6c-0.1,1.5-0.3,3.1-0.6,4.8c-0.7,4.8-2.1,9.4-4,13.9
					c-1.9,4.5-4.2,8.6-6.8,12.2c-2.6,3.7-5.5,6.8-8.5,9.3c-3.1,2.6-6.2,4.3-9.4,5.3c-3.2,0.9-6.1,0.9-8.6,0
					c-2.5-0.9-4.5-2.6-6.1-5.1c-1.6-2.5-2.6-5.6-3.1-9.4c0-0.3-0.1-0.7-0.1-1c-2,3.3-4.3,6.3-6.8,9.2c-2.6,3-5.4,5.5-8.4,7.5
					c-3,2-5.8,3.2-8.4,3.5c-3.4,0.4-5.7-0.4-6.8-2.6c-1.1-2.2-1.5-4.8-1.2-8.1c-3.1,4.1-6.3,7.5-9.7,10.1c-3.4,2.6-6.6,4.1-9.8,4.4
					c-2.9,0.4-5.2-0.3-7.1-1.9c-1.9-1.6-3.3-4-4.2-7c-0.9-3-1.3-6.6-1-10.8c0.2-4.2,1.1-8.7,2.6-13.6c1.5-4.9,3.4-9.6,5.7-14
					c0.2-0.4,0.4-0.8,0.6-1.1c-0.6,0.3-1.3,0.5-2,0.8c-1.9,0.6-4,1.1-6.3,1.3c-2.3,0.3-4.5,0.3-6.6,0.1c0.1,1.5,0.2,3,0.3,4.6
					c0.1,1.5,0,3.1-0.1,4.8c-0.3,4.8-1.1,9.5-2.6,14.2c-1.5,4.7-3.3,9-5.6,12.8c-2.2,3.9-4.8,7.3-7.5,10.1c-2.8,2.9-5.7,4.9-8.9,6.2
					c-3.1,1.3-6,1.5-8.6,0.9c-2.6-0.7-4.8-2.2-6.6-4.5c-1.8-2.3-3.1-5.4-4-9c-0.9-3.7-1.1-8-0.7-12.8c0.3-4.8,1.1-9.5,2.6-14.2
					c1.5-4.7,3.3-8.9,5.6-12.8c2.2-3.9,4.8-7.3,7.5-10.2c2.8-2.9,5.7-5,8.9-6.3c4.4-1.8,8.3-1.5,11.7,0.7c3.3,2.2,5.7,5.8,7.2,10.9
					c1.7,0.4,3.6,0.6,5.4,0.5c1.9-0.1,3.7-0.3,5.4-0.6c1.7-0.4,3.3-0.9,4.8-1.6c1.4-0.7,2.4-1.5,2.9-2.6c1-2,2-2.8,2.9-2.3
					c0,0,0,0,0,0c0.4-0.6,0.9-1.2,1.3-1.7c2.8-3.5,5.7-6.3,8.7-8.5c3-2.2,5.9-3.4,8.8-3.8c3.3-0.4,6.1,0.7,8.5,3.3
					c0.8-4.5,1.7-9,2.5-13.3c0.8-4.3,1.6-8.3,2.4-11.9c0.7-3.6,1.3-6.5,1.8-9c0.5-2.4,0.8-4.1,1.2-4.9c0.5-1.6,1.5-2.8,3.1-3.7
					c1.6-0.9,3.1-1.4,4.6-1.6c1.5-0.2,2.8,0,3.8,0.7c1,0.6,1.4,1.7,1,3.1c-0.3,1-0.9,3.5-1.8,7.5c-0.9,4-1.9,8.8-3,14.3
					c-1.1,5.6-2.3,11.5-3.6,17.8c-1.3,6.3-2.5,12.3-3.6,17.9c-1.1,5.6-2.1,10.5-2.9,14.7c-0.9,4.2-1.4,6.9-1.5,8.2
					c-0.3,1.8-0.6,3.6-0.9,5.2c-0.3,1.6-0.4,3-0.3,4.1c0.1,1.1,0.4,2,0.8,2.6c0.5,0.6,1.4,0.9,2.6,0.7c2.6-0.3,5.4-2.3,8.3-6
					c2.8-3.5,5.2-7.6,7.3-12.4c0.1-0.6,0.2-1.1,0.3-1.7c0.7-4.8,2.1-9.4,4-13.9c1.9-4.5,4.2-8.6,6.8-12.2c2.6-3.7,5.5-6.8,8.5-9.5
					c3-2.6,6.2-4.4,9.4-5.4c4.6-1.3,8.4-0.7,11.5,1.8c3.1,2.5,5.1,6.4,6.1,11.6c1.7,0.6,3.5,0.9,5.4,1c1.9,0.1,3.7,0.1,5.5-0.1
					c1.8-0.2,3.4-0.6,4.9-1.1c1.5-0.5,2.5-1.3,3.1-2.3c1.2-1.9,2.3-2.6,3.2-2C580.1,273.7,580,275,579.1,277z"/>
				<path class="st2" d="M963.1,304.2c-2.1-0.2-4.4,0.3-6.9,1.3c-2.5,1.1-4.9,2.6-7.3,4.5c-2.3,1.9-4.6,4.3-6.7,7
					c-2.2,2.7-4,5.6-5.5,8.6c-1.5,3-2.6,6-3.1,8.7c-0.6,2.8-0.6,5.2-0.2,7.4c0.4,2.1,1.3,3.9,2.7,5.1c1.3,1.3,3,2,5.1,2.2
					c2.1,0,4.4-0.5,6.9-1.5c2.5-1.1,4.9-2.6,7.4-4.5c2.4-1.9,4.7-4.2,6.7-6.9c2.1-2.6,3.9-5.5,5.4-8.5c0.7-1.4,1.3-2.8,1.8-4.3
					c0.5-1.4,0.8-2.8,1.2-4.2c-3.2-2.1-5.4-4.6-6.7-7.3c-1.3-2.8-1.1-5.2,0.5-7.4L963.1,304.2z"/>
				<path class="st2" d="M904.7,292c-1.9-0.4-4-0.1-6.4,0.8c-2.3,0.9-4.8,2.3-7.4,4.1c-2.6,1.8-5.1,4.1-7.7,6.8
					c-2.5,2.7-4.8,5.7-6.8,8.9c-4.1,6.5-6.4,12.3-6.7,17.5c-0.3,5.1,1.3,8.1,5,8.9c2,0.5,4.3,0.2,7-0.9c2.7-1.1,5.4-2.8,8.2-5.1
					l1.5-2.2c1.9-3.3,4.4-7.9,7.7-13.8c3.3-5.9,6.7-12.2,10.3-18.8C908.9,294.7,907.4,292.7,904.7,292z"/>
				<linearGradient id="SVGID_1_" gradientUnits="userSpaceOnUse" x1="274.9621" y1="316.2722" x2="418.8283" y2="316.2722">
					<stop  offset="0" style="stop-color:#0885B7;stop-opacity:0"/>
					<stop  offset="1" style="stop-color:#0885B7"/>
				</linearGradient>
				<path class="st3" d="M418.8,392c-1-14.7-3.2-29.2-6.2-43.3c-1.8,0.3-3.4,0.3-5-0.1c-2.6-0.7-4.8-2.2-6.6-4.5
					c-1.8-2.3-3.1-5.4-4-9c-0.9-3.7-1.1-8-0.7-12.8c0.3-4.8,1.1-9.5,2.6-14.2c0.4-1.3,0.9-2.6,1.4-3.9c-2.7-8.1-5.7-16-8.7-23.6
					c-0.6,2.9-1.2,5.9-1.9,9c-1.7,7.9-3.6,16-5.8,24.2c-2.2,8.2-4.9,15.8-8.1,22.7c-3.2,6.9-6.9,12.8-11.1,17.8
					c-4.2,5-9.1,8.1-14.7,9.4c-3.9,0.9-7.3,1-10.3,0.3c-3-0.7-5.4-1.9-7.3-3.5c-1.9-1.6-3.2-3.6-4.1-5.9c-0.8-2.3-1.2-4.6-1.1-6.9
					c0.1-2.2,0.8-4.3,2.1-6.1c1.3-1.9,3-3.2,5.2-4c2.5-0.9,4.5-0.8,6,0.3c1.5,1.1,2.6,2.4,3.3,4c0.7,1.6,0.9,3.2,0.8,4.8
					c-0.1,1.6-0.7,2.5-1.6,2.7c-1.9,0.4-3,1.4-3.5,2.7c-0.5,1.4-0.4,2.7,0.2,4.1c0.6,1.3,1.7,2.4,3.2,3.3c1.5,0.8,3.5,1,5.7,0.4
					c2.8-0.7,5.3-2.5,7.5-5.6c2.2-3.1,4.2-7,5.9-11.7c1.8-4.7,3.4-10.1,5-16.2c1.5-6,3.1-12.3,4.7-18.8c1.6-6.5,3.2-13.1,4.9-19.6
					c1.7-6.6,3.5-12.8,5.5-18.8c-2.6,3.3-5.6,6.7-9,10.3s-7.2,6.8-11.3,9.7c-4.1,2.9-8.6,5.2-13.3,6.9c-4.8,1.7-9.7,2.4-14.7,2
					c-5.3-0.4-9.5-2.1-12.5-5c-3-2.9-4.8-6.4-5.4-10.5c-0.6-4.1,0.2-8.5,2.2-13.2c2-4.7,5.4-8.8,10.1-12.5
					c4.7-3.7,10.8-6.6,18.3-8.7c7.5-2.1,16.5-2.8,27-2.1c1,0.1,2,0.1,3,0.2c-6.8-14-13.5-26.3-19.4-36.4
					c-52.4,11.8-82.3,22.3-82.3,22.3c40.3,80.6,38.9,139.3,29.3,190.6C342.7,409.6,381.1,399.6,418.8,392z"/>
			</g>
			<g>
				<linearGradient id="SVGID_2_" gradientUnits="userSpaceOnUse" x1="897.0309" y1="274.2753" x2="1028.5092" y2="274.2753">
					<stop  offset="0" style="stop-color:#0885B7"/>
					<stop  offset="1" style="stop-color:#0885B7;stop-opacity:0"/>
				</linearGradient>
				<path class="st4" d="M897,287.5c3.1-0.9,5.9-1.1,8.4-0.6c3.2,0.6,5.6,2.5,7.1,5.7c2.2-4.1,4.3-8.1,6.4-11.9
					c2.1-3.9,4.1-7.4,5.8-10.6c1.8-3.2,3.3-5.8,4.4-8c1.2-2.2,2-3.6,2.6-4.4c1-1.4,2.3-2.2,4.1-2.6c1.8-0.4,3.4-0.4,4.9-0.1
					c1.5,0.3,2.6,0.9,3.4,1.8c0.8,0.9,0.8,2,0,3.3c-0.6,0.9-1.9,3.1-4,6.6c-2.1,3.5-4.5,7.8-7.2,12.7c-2.7,5-5.7,10.3-8.8,15.9
					c-3.1,5.7-6.1,11-8.9,16c-2.8,5-5.2,9.4-7.3,13.2c-2.1,3.7-3.4,6.2-3.9,7.4c-0.9,1.7-1.7,3.2-2.4,4.7c-0.8,1.5-1.3,2.7-1.5,3.8
					c-0.3,1.1-0.3,2,0,2.7c0.3,0.8,1,1.2,2.2,1.5c2.6,0.5,5.8-0.6,9.7-3.2c3.8-2.6,7.4-5.9,10.9-9.9c0.2-0.4,0.4-0.8,0.6-1.3
					c2.1-4.3,4.7-8.4,7.9-12.1c3.2-3.7,6.5-7,10.1-9.7c3.6-2.7,7.2-4.9,10.9-6.6c3.7-1.6,7.2-2.4,10.6-2.4c4.8,0.1,8.3,1.8,10.5,5.1
					c2.2,3.3,3,7.6,2.4,12.8c1.5,1,3.1,1.9,4.8,2.6c1.7,0.6,3.4,1.1,5,1.5c9.2-37.7,26.1-70.2,42.4-89.3
					c-37.4-11.5-74.3-20.8-110.5-28.3C911.4,225.8,903.4,255.4,897,287.5z"/>
				<linearGradient id="SVGID_3_" gradientUnits="userSpaceOnUse" x1="885.6534" y1="372.3435" x2="985.1451" y2="372.3435">
					<stop  offset="0" style="stop-color:#0885B7"/>
					<stop  offset="1" style="stop-color:#0885B7;stop-opacity:0"/>
				</linearGradient>
				<path class="st5" d="M981.3,324.4c-2.2-0.6-4.2-1.4-6.1-2.4c-0.5,1.4-1,2.9-1.5,4.3c-0.5,1.4-1.2,2.9-1.9,4.4
					c-2.1,4.3-4.7,8.4-7.9,12.1c-3.2,3.7-6.5,7-10.1,9.7c-3.6,2.7-7.2,4.9-10.9,6.5c-3.7,1.6-7.2,2.3-10.6,2.3
					c-3.4-0.1-6.1-0.9-8.2-2.5c-2.1-1.6-3.6-3.8-4.3-6.7c-0.8-2.9-0.8-6.2-0.2-9.9c0.1-0.4,0.2-0.8,0.2-1.2c-3,2.6-6.2,4.9-9.6,6.9
					c-3.4,2-6.8,3.6-10.3,4.6c-3.5,1-6.5,1.3-9.1,0.8c-1.4-0.3-2.5-0.7-3.4-1.2c-1.4,15.9-2.1,31.7-1.6,46.9
					c49.9,10.3,84.7,20.4,98.7,23.7c-8-32.8-6.3-66.7,0.6-97.4C983.9,325.1,982.6,324.8,981.3,324.4z"/>
			</g>
			<g>
				<path class="st6" d="M343.7,356.2c2.8-0.7,5.3-2.5,7.5-5.6c2.2-3.1,4.2-7,5.9-11.7c1.8-4.7,3.4-10.1,5-16.2
					c1.5-6,3.1-12.3,4.7-18.8c1.6-6.5,3.2-13.1,4.9-19.6c1.7-6.6,3.5-12.8,5.5-18.8c-2.6,3.3-5.6,6.7-9,10.3s-7.2,6.8-11.3,9.7
					c-4.1,2.9-8.6,5.2-13.3,6.9c-4.8,1.7-9.7,2.4-14.7,2c-5.3-0.4-9.5-2.1-12.5-5c-3-2.9-4.8-6.4-5.4-10.5
					c-0.6-4.1,0.2-8.5,2.2-13.2c2-4.7,5.4-8.8,10.1-12.5c4.7-3.7,10.8-6.6,18.3-8.7c7.5-2.1,16.5-2.8,27-2.1c4.2,0.3,8,0.3,11.4,0.2
					c3.4-0.2,6.4-0.4,9.1-0.8c2-2.7,4.3-5,6.7-6.8c2.4-1.8,5.1-2.9,8.1-3.5c5.8-1.1,9.8-0.9,11.8,0.6c2.1,1.5,2.8,3.2,2.1,5.2
					c-1,2.8-3.7,5-7.9,6.6c-4.2,1.6-9.7,2.7-16.6,3.2c-1.3,4.1-2.6,9.6-4,16.4c-1.4,6.8-2.9,14.2-4.5,22.1c-1.7,7.9-3.6,16-5.8,24.2
					c-2.2,8.2-4.9,15.8-8.1,22.7c-3.2,6.9-6.9,12.8-11.1,17.8c-4.2,5-9.1,8.1-14.7,9.4c-3.9,0.9-7.3,1-10.3,0.3
					c-3-0.7-5.4-1.9-7.3-3.5c-1.9-1.6-3.2-3.6-4.1-5.9c-0.8-2.3-1.2-4.6-1.1-6.9c0.1-2.2,0.8-4.3,2.1-6.1c1.3-1.9,3-3.2,5.2-4
					c2.5-0.9,4.5-0.8,6,0.3c1.5,1.1,2.6,2.4,3.3,4c0.7,1.6,0.9,3.2,0.8,4.8c-0.1,1.6-0.6,2.5-1.6,2.7c-1.9,0.4-3,1.4-3.5,2.7
					c-0.5,1.4-0.4,2.7,0.2,4.1c0.6,1.3,1.7,2.4,3.2,3.3C339.5,356.6,341.4,356.7,343.7,356.2z M335.2,287.1
					c4.8,0.4,9.5-0.6,14.2-3.1c4.7-2.5,9.2-5.5,13.4-9.2c4.2-3.7,8-7.5,11.3-11.4c3.3-3.9,5.9-7.1,7.9-9.7c0.4-1.1,0.9-2.1,1.4-3.1
					c0.5-1,1-1.9,1.6-2.9c-2.7-0.1-5.5-0.1-8.3-0.3c-2.9-0.1-5.9-0.3-9-0.5c-6.3-0.5-12.1,0.1-17.3,1.9c-5.2,1.7-9.6,4-13.3,6.9
					c-3.7,2.9-6.6,6.1-8.7,9.6c-2.1,3.5-3.3,6.9-3.6,10c-0.3,3.1,0.4,5.8,2,8.1C328.5,285.6,331.3,286.8,335.2,287.1z"/>
				<path class="st6" d="M453.3,282.1c1-2,2-2.8,2.9-2.3c0.9,0.5,1,1.7,0.3,3.8c-0.6,1.4-1.6,2.6-3,3.6c-1.4,1-3.1,1.8-5,2.5
					c-1.9,0.6-4,1.1-6.3,1.3c-2.3,0.3-4.5,0.3-6.6,0.1c0.1,1.5,0.2,3,0.3,4.6c0.1,1.5,0,3.1-0.1,4.8c-0.3,4.8-1.1,9.5-2.6,14.2
					c-1.5,4.7-3.3,9-5.6,12.8c-2.2,3.9-4.8,7.3-7.5,10.1c-2.8,2.9-5.7,4.9-8.9,6.2c-3.1,1.3-6,1.5-8.6,0.9c-2.6-0.7-4.8-2.2-6.6-4.5
					c-1.8-2.3-3.1-5.4-4-9c-0.9-3.7-1.1-8-0.7-12.8c0.3-4.8,1.1-9.5,2.6-14.2c1.5-4.7,3.3-8.9,5.6-12.8c2.2-3.9,4.8-7.3,7.5-10.2
					c2.8-2.9,5.7-5,8.9-6.3c4.4-1.8,8.3-1.5,11.7,0.7c3.3,2.2,5.7,5.8,7.2,10.9c1.7,0.4,3.6,0.6,5.4,0.5c1.9-0.1,3.7-0.3,5.4-0.6
					c1.7-0.4,3.3-0.9,4.8-1.6C451.8,284.1,452.8,283.2,453.3,282.1z M430.7,299.3c0.1-1.6,0.1-3.1,0-4.6c-0.1-1.5-0.3-3-0.6-4.3
					c-3.8-0.7-6.8-2.1-9-4.2c-2.3-2-3.1-4.4-2.4-7l-1.2,0.2c-2,0.6-3.9,1.9-5.8,3.9c-1.9,1.9-3.5,4.3-5,7c-1.4,2.7-2.6,5.7-3.5,9
					c-1,3.3-1.5,6.7-1.8,10.1c-0.2,3.4-0.1,6.5,0.5,9.3c0.6,2.8,1.5,5.1,2.7,6.9c1.2,1.8,2.7,3.1,4.4,3.7c1.7,0.7,3.6,0.7,5.6,0.1
					c2-0.8,3.9-2.1,5.8-4.1c1.9-1.9,3.6-4.3,5.1-7c1.5-2.7,2.7-5.7,3.6-8.9C429.9,306,430.5,302.7,430.7,299.3z"/>
				<path class="st6" d="M475.1,265.8c3.3-0.4,6.1,0.7,8.5,3.3c0.8-4.5,1.7-9,2.5-13.3c0.8-4.3,1.6-8.3,2.4-11.9
					c0.7-3.6,1.3-6.5,1.8-9c0.5-2.4,0.8-4.1,1.2-4.9c0.5-1.6,1.5-2.8,3.1-3.7c1.6-0.9,3.1-1.4,4.6-1.6c1.5-0.2,2.8,0,3.8,0.7
					c1,0.6,1.4,1.7,1,3.1c-0.3,1-0.9,3.5-1.8,7.5c-0.9,4-1.9,8.8-3,14.3c-1.1,5.6-2.3,11.5-3.6,17.8c-1.3,6.3-2.5,12.3-3.6,17.9
					c-1.1,5.6-2.1,10.5-2.9,14.7c-0.9,4.2-1.4,6.9-1.5,8.2c-0.3,1.8-0.6,3.6-0.9,5.2c-0.3,1.6-0.4,3-0.3,4.1c0.1,1.1,0.4,2,0.8,2.6
					c0.5,0.6,1.4,0.9,2.6,0.7c2.6-0.3,5.4-2.3,8.3-6c2.9-3.7,5.5-8.1,7.6-13.2c1.2-2.5,2.4-3.6,3.4-3.2c1.1,0.4,1.2,1.8,0.4,4.4
					c-0.9,2.9-2.4,6-4.4,9.4c-2.1,3.4-4.4,6.6-7,9.5c-2.6,3-5.4,5.5-8.4,7.5c-3,2-5.8,3.2-8.4,3.5c-3.4,0.4-5.7-0.4-6.8-2.6
					c-1.1-2.2-1.5-4.8-1.2-8.1c-3.1,4.1-6.3,7.5-9.7,10.1c-3.4,2.6-6.6,4.1-9.8,4.4c-2.9,0.4-5.2-0.3-7.1-1.9c-1.9-1.6-3.3-4-4.2-7
					c-0.9-3-1.3-6.6-1-10.8c0.2-4.2,1.1-8.7,2.6-13.6c1.5-4.9,3.4-9.6,5.7-14c2.4-4.5,4.9-8.4,7.8-11.9c2.8-3.5,5.7-6.3,8.7-8.5
					C469.3,267.5,472.2,266.2,475.1,265.8z M475,311.9c0.8-3.7,1.8-8.9,3.2-15.5c1.3-6.6,2.7-13.6,4.1-21c-1.5-3.1-3.6-4.6-6.4-4.4
					c-1.9,0.2-3.8,1.1-5.8,2.7c-2,1.6-3.9,3.6-5.8,6.1c-1.9,2.5-3.7,5.5-5.3,8.8c-1.6,3.3-2.9,6.8-3.8,10.6
					c-2,7.5-2.3,13.7-1.1,18.7c1.2,5,3.7,7.3,7.4,7c2.1-0.1,4.2-1.1,6.4-3c2.2-1.9,4.3-4.3,6.3-7.3L475,311.9z"/>
				<path class="st6" d="M570.9,271.5c1.2-1.9,2.3-2.6,3.2-2c0.9,0.6,0.8,1.8-0.1,3.8c-0.7,1.3-1.9,2.4-3.4,3.3
					c-1.5,0.9-3.3,1.5-5.2,2c-2,0.4-4.1,0.7-6.4,0.7c-2.3,0-4.5-0.1-6.6-0.5c0,1.5-0.1,3-0.2,4.6c-0.1,1.5-0.3,3.1-0.6,4.8
					c-0.7,4.8-2.1,9.4-4,13.9c-1.9,4.5-4.2,8.6-6.8,12.2c-2.6,3.7-5.5,6.8-8.5,9.3c-3.1,2.6-6.2,4.3-9.4,5.3c-3.2,0.9-6.1,0.9-8.6,0
					c-2.5-0.9-4.5-2.6-6.1-5.1c-1.6-2.5-2.6-5.6-3.1-9.4c-0.5-3.8-0.3-8,0.6-12.8c0.7-4.8,2.1-9.4,4-13.9c1.9-4.5,4.2-8.6,6.8-12.2
					c2.6-3.7,5.5-6.8,8.5-9.5c3-2.6,6.2-4.4,9.4-5.4c4.6-1.3,8.4-0.7,11.5,1.8c3.1,2.5,5.1,6.4,6.1,11.6c1.7,0.6,3.5,0.9,5.4,1
					c1.9,0.1,3.7,0.1,5.5-0.1c1.8-0.2,3.4-0.6,4.9-1.1C569.2,273.3,570.3,272.5,570.9,271.5z M546.8,286.4c0.3-1.5,0.5-3.1,0.5-4.6
					c0-1.5,0-3-0.1-4.3c-3.7-1.1-6.5-2.8-8.6-5c-2-2.3-2.6-4.7-1.7-7.2l-1.2,0.1c-2,0.4-4.1,1.5-6.2,3.3c-2.1,1.7-4,3.9-5.6,6.4
					c-1.7,2.5-3.1,5.4-4.4,8.6c-1.3,3.2-2.2,6.5-2.8,9.8c-0.6,3.4-0.7,6.4-0.4,9.3c0.3,2.8,0.9,5.2,2,7.1c1,1.9,2.4,3.3,4,4.1
					c1.7,0.8,3.5,1,5.5,0.6c2-0.6,4.1-1.7,6.2-3.5c2.1-1.7,4-3.9,5.7-6.4c1.7-2.5,3.2-5.4,4.4-8.5
					C545.3,293,546.2,289.8,546.8,286.4z"/>
				<path class="st6" d="M597.1,302.8c1.5-4.3,2.9-8.6,4.3-12.9c1.4-4.3,2.7-8.3,3.9-11.9c1.2-3.7,2.3-6.9,3.2-9.7
					c0.9-2.8,1.7-5,2.4-6.5c0.7-1.5,1.8-2.6,3.5-3.3c1.6-0.7,3.2-1.1,4.7-1.1c1.5,0,2.7,0.4,3.6,1.1c0.9,0.7,1.1,1.8,0.5,3.2
					c-0.5,1.5-1.4,4.1-2.7,7.7c-1.3,3.6-2.6,7.5-4,11.6c-1.4,4.1-2.7,8.2-4,12c-1.3,3.9-2.2,6.7-2.7,8.5c-0.5,1.8-1,3.5-1.4,5.1
					c-0.4,1.6-0.7,2.9-0.8,4c-0.1,1.1,0.1,2,0.5,2.7c0.5,0.7,1.4,1,2.6,1c2.5,0,5.4-1.7,8.8-5c3.4-3.3,6.5-7.4,9.2-12.3
					c1.4-2.4,2.5-3.3,3.6-2.8c1,0.5,1,2-0.1,4.4c-1.2,2.8-3,5.7-5.4,8.8c-2.4,3.1-5,6-8,8.7c-2.9,2.6-6,4.8-9.2,6.5
					c-3.2,1.7-6.1,2.5-8.8,2.6c-2.8,0-4.7-0.7-5.7-2.1c-1-1.4-1.6-3.3-1.6-5.5c0-2.2,0.3-4.6,1.1-7.2
					C595.5,307.7,596.3,305.2,597.1,302.8z M630.2,245.1c0,2.1-0.7,3.9-2.1,5.4c-1.4,1.5-3.2,2.3-5.5,2.3c-2.1,0-3.8-0.7-5.3-2.2
					c-1.5-1.5-2.2-3.3-2.2-5.3c0-2.1,0.7-3.8,2.1-5.3c1.4-1.5,3.2-2.2,5.2-2.2c2.2,0,4,0.7,5.5,2.1
					C629.4,241.3,630.2,243,630.2,245.1z"/>
				<path class="st6" d="M643.8,289c2.6-4.1,5.2-8,8-11.7c2.8-3.7,5.6-7,8.4-9.9c2.8-2.9,5.5-5.2,8.1-6.8c2.6-1.7,5-2.5,7.2-2.4
					c3.7,0.1,5.8,1.5,6.2,4.4c0.4,2.8,0,6.3-1.4,10.5c-1.3,4.2-3.2,8.7-5.5,13.5c-2.3,4.8-4.4,9.3-6.1,13.5
					c-1.8,4.2-2.8,7.7-3.2,10.5c-0.4,2.8,0.6,4.3,3.1,4.3c2.6,0.1,5.6-1.5,9.1-4.7c3.4-3.2,6.6-7.2,9.5-12c1.6-2.3,2.9-3.2,3.9-2.7
					c1,0.5,1,2-0.2,4.4c-1.3,2.7-3.2,5.6-5.8,8.6c-2.6,3-5.3,5.8-8.4,8.4c-3,2.5-6.2,4.6-9.4,6.2c-3.3,1.6-6.2,2.3-8.8,2.3
					c-3.4-0.1-5.4-1.5-6-4.2c-0.6-2.7-0.4-6,0.5-10c0.9-4,2.4-8.3,4.3-12.9c2-4.6,3.8-8.9,5.4-12.9c1.6-4,2.7-7.3,3.3-9.9
					c0.6-2.7,0.2-4-1.4-4.1c-1.2,0-3.2,1.3-5.8,4c-2.6,2.7-5.4,6.2-8.4,10.4c-3,4.3-6,9.1-8.9,14.4c-2.9,5.3-5.4,10.5-7.5,15.5
					l-0.9,1.8l0,0.2l-1.1,2.5c-0.7,1.5-1.9,2.6-3.5,3.2c-1.6,0.7-3.2,1-4.8,0.9c-1.6,0-2.8-0.4-3.8-1.1c-0.9-0.7-1.1-1.8-0.3-3.3
					c0.4-1,1.2-2.9,2.3-5.8c1.1-2.9,2.4-6.4,4-10.3c1.5-4,3.2-8.2,4.8-12.7c1.7-4.5,3.3-8.8,4.7-12.9c1.5-4.1,2.8-7.7,3.9-10.8
					c1.1-3.1,1.9-5.2,2.3-6.5c0.4-1.4,1.4-2.3,2.9-2.8c1.5-0.5,2.9-0.7,4.5-0.5c1.5,0.2,2.8,0.6,3.9,1.3c1.1,0.7,1.4,1.6,1,2.7
					L643.8,289z"/>
				<path class="st6" d="M738.4,301.4c0.9-1.2,1.7-2,2.5-2.3c0.8-0.4,1.4-0.4,1.9-0.2c0.5,0.2,0.7,0.8,0.6,1.6
					c-0.1,0.8-0.5,1.8-1.2,2.8c-2.1,3.2-4.5,6.2-7.2,9.2c-2.7,2.9-5.6,5.5-8.7,7.7c-3.1,2.2-6.5,3.9-10.2,5.2
					c-3.7,1.2-7.5,1.7-11.5,1.4c-3-0.2-5.8-1-8.4-2.4c-2.6-1.4-4.8-3.4-6.6-5.9c-1.8-2.5-2.9-5.6-3.5-9.1c-0.5-3.6-0.2-7.6,0.9-12.1
					c1.1-4.2,2.8-8.4,5-12.5c2.3-4.1,4.8-7.9,7.8-11.3c2.9-3.4,6.1-6.3,9.7-8.6c3.5-2.3,7.2-3.7,10.9-4.2c4.6-0.5,8.1,0.5,10.7,3
					c2.5,2.5,3.9,5.7,4.3,9.6c0.3,3.9-0.6,7.9-2.6,12.1c-2.1,4.2-5.3,7.7-9.8,10.5c-1.7,1.1-3.7,1.8-5.9,1.9c-2.2,0.1-4.2,0-6-0.4
					c-1.8-0.4-3.1-1-3.9-1.8c-0.8-0.8-0.7-1.6,0.5-2.4c3.9-3.1,7.3-6.2,10.1-9.5c2.8-3.3,4.9-6.3,6.3-9c1.3-2.7,1.8-5,1.5-6.8
					c-0.4-1.8-1.9-2.8-4.5-3c-1.9-0.1-3.9,0.4-6,1.6c-2.1,1.2-4.1,2.9-6,5.1c-1.9,2.2-3.7,5-5.3,8.3c-1.6,3.3-2.7,7-3.4,11.1
					c-0.6,3.5-0.8,6.9-0.3,10.1c0.4,3.2,1.4,6,2.9,8.4c1.5,2.4,3.5,4.2,6,5.3c2.5,1.2,5.5,1.6,9.1,1.1c4.6-0.7,8.6-2.4,11.9-5.2
					C733.3,307.8,736.1,304.7,738.4,301.4z"/>
				<path class="st6" d="M735.7,306.9c1.2-2.8,2.8-6.5,4.9-11.1c2-4.6,4.2-9.5,6.6-14.9c2.4-5.3,4.7-10.8,7.1-16.4
					c2.4-5.6,4.6-10.7,6.6-15.5c2-4.7,3.8-8.8,5.4-12.2c1.6-3.4,2.6-5.5,3.1-6.5c0.8-1.4,2.1-2.4,3.8-3c1.7-0.5,3.3-0.7,4.8-0.6
					c1.5,0.1,2.7,0.6,3.5,1.5c0.8,0.8,0.9,1.9,0.2,3.2c-0.5,0.9-1.6,3.2-3.2,7c-1.7,3.7-3.7,8.2-6,13.3c-2.3,5.2-4.8,10.7-7.3,16.6
					c-2.6,5.9-5,11.5-7.3,16.8c-2.3,5.3-4.3,9.8-6,13.8c-1.7,3.9-2.8,6.5-3.2,7.7c-0.7,1.7-1.4,3.4-2,4.9c-0.6,1.5-1.1,2.8-1.3,3.9
					c-0.2,1.1-0.2,2,0.3,2.7c0.4,0.7,1.2,1.2,2.5,1.3c2.6,0.2,5.7-1.1,9.4-4.1c3.7-3,7.1-6.7,10.3-11.3c1.7-2.2,3.1-3,4.1-2.4
					c1,0.6,0.8,2-0.5,4.4c-1.5,2.6-3.6,5.4-6.4,8.2c-2.8,2.9-5.7,5.5-8.9,7.8c-3.2,2.3-6.5,4.2-9.8,5.5c-3.4,1.3-6.4,1.9-9,1.7
					c-2.7-0.3-4.5-1.1-5.4-2.7c-0.8-1.5-1.1-3.4-0.9-5.6c0.2-2.2,0.8-4.6,1.8-7.1C733.6,311.6,734.6,309.2,735.7,306.9z"/>
				<path class="st6" d="M794.4,313c0.6-1.2,1.2-2.4,1.8-3.5c0.6-1.2,1.2-2.4,1.8-3.7c-2.8,3.7-5.7,7.2-8.8,10.5c-3,3.3-6,6.2-9,8.6
					c-2.9,2.4-5.7,4.3-8.4,5.5c-2.7,1.3-5,1.8-7.1,1.5c-3-0.4-4.4-2.8-4.1-7.2c0.3-4.4,1.8-9.8,4.7-16.1s6.8-13,11.8-20.1
					c5-7.1,10.9-13.5,17.6-19.2c1.6-1.3,3-1.8,4.4-1.3c1.4,0.5,1.4,1.3,0,2.5c-3.6,3.3-7.1,7.3-10.5,11.9c-3.4,4.6-6.3,9.2-8.6,13.7
					c-2.3,4.5-3.8,8.5-4.6,12c-0.8,3.5-0.3,5.7,1.4,6.6c1.6,0.9,3.6,0.5,6.3-1.1c2.6-1.6,5.4-4,8.4-7.1c2.9-3.1,6-6.8,9.1-11.1
					c3.1-4.3,6-8.7,8.6-13.2c0.9-1.8,1.7-3.4,2.5-4.8c0.7-1.4,1.3-2.5,1.9-3.4c0.9-1.4,2.2-2.4,3.9-2.9c1.7-0.5,3.3-0.6,4.8-0.4
					c1.5,0.2,2.7,0.7,3.4,1.6c0.8,0.9,0.8,1.9,0.1,3.2c-0.7,1.4-2,3.9-3.7,7.2c-1.7,3.4-3.6,7.1-5.5,11c-1.9,3.9-3.8,7.7-5.6,11.4
					c-1.8,3.7-3,6.4-3.8,8.1c-0.8,1.7-1.5,3.3-2.1,4.8c-0.6,1.5-1,2.8-1.3,3.9c-0.3,1.1-0.2,2,0.2,2.7c0.4,0.7,1.2,1.2,2.4,1.3
					c2.5,0.3,5.6-1,9.4-3.8c3.8-2.9,7.4-6.5,10.7-11c1.7-2.2,3-2.9,3.9-2.3c1,0.6,0.7,2.1-0.6,4.4c-1.6,2.6-3.7,5.3-6.5,8
					c-2.8,2.8-5.8,5.3-9.1,7.5c-3.3,2.2-6.7,4-10,5.2c-3.3,1.3-6.3,1.7-8.9,1.4c-2.7-0.3-4.5-1.3-5.4-2.8c-0.8-1.6-1.1-3.4-0.9-5.6
					c0.3-2.2,0.9-4.5,2-7C792.2,317.5,793.3,315.2,794.4,313z"/>
				<path class="st6" d="M823.6,316.7c2.1-4,4.3-8,6.3-12c2.1-4,4-7.7,5.8-11.1c1.8-3.4,3.4-6.4,4.7-9.1c1.4-2.6,2.5-4.7,3.4-6.1
					c0.9-1.4,2.2-2.3,4-2.7c1.7-0.4,3.4-0.5,4.9-0.3c1.5,0.2,2.6,0.8,3.4,1.7c0.8,0.9,0.8,2,0,3.2c-0.8,1.4-2.1,3.8-3.9,7.1
					c-1.8,3.3-3.8,6.9-5.8,10.8c-2.1,3.9-4,7.6-5.9,11.2c-1.9,3.6-3.2,6.3-4,7.9c-0.8,1.7-1.6,3.3-2.2,4.8c-0.6,1.5-1.1,2.8-1.4,3.9
					c-0.3,1.1-0.3,2,0.1,2.7c0.4,0.8,1.2,1.2,2.4,1.4c2.5,0.4,5.6-0.8,9.5-3.5c3.9-2.7,7.6-6.3,11-10.6c1.7-2.1,3-2.8,4-2.2
					c0.9,0.6,0.7,2.1-0.8,4.4c-1.6,2.5-3.9,5.1-6.7,7.8c-2.9,2.7-5.9,5.1-9.3,7.2c-3.3,2.1-6.7,3.8-10.2,4.9
					c-3.5,1.1-6.5,1.5-9.1,1.1c-2.7-0.4-4.5-1.4-5.3-3c-0.8-1.6-1-3.5-0.7-5.6c0.3-2.2,1.1-4.5,2.2-7
					C821.3,321.2,822.4,318.9,823.6,316.7z M865.6,265.1c-0.3,2-1.3,3.7-3,5c-1.7,1.3-3.6,1.7-5.8,1.4c-2-0.3-3.7-1.3-4.9-3
					c-1.2-1.7-1.6-3.6-1.3-5.6c0.3-2,1.3-3.7,2.9-4.9c1.6-1.2,3.5-1.7,5.5-1.3c2.2,0.3,3.9,1.3,5.1,3
					C865.5,261.2,865.9,263,865.6,265.1z"/>
				<path class="st6" d="M900.3,283.3c3.2,0.6,5.6,2.5,7.1,5.7c2.2-4.1,4.3-8.1,6.4-11.9c2.1-3.9,4.1-7.4,5.8-10.6
					c1.8-3.2,3.3-5.8,4.4-8c1.2-2.2,2-3.6,2.6-4.4c1-1.4,2.3-2.2,4.1-2.6c1.8-0.4,3.4-0.4,4.9-0.1c1.5,0.3,2.6,0.9,3.4,1.8
					c0.8,0.9,0.8,2,0,3.3c-0.6,0.9-1.9,3.1-4,6.6c-2.1,3.5-4.5,7.8-7.2,12.7c-2.7,5-5.7,10.3-8.8,15.9c-3.1,5.7-6.1,11-8.9,16
					c-2.8,5-5.2,9.4-7.3,13.2c-2.1,3.7-3.4,6.2-3.9,7.4c-0.9,1.7-1.7,3.2-2.4,4.7c-0.8,1.5-1.3,2.7-1.5,3.8c-0.3,1.1-0.3,2,0,2.7
					c0.3,0.8,1,1.2,2.2,1.5c2.6,0.5,5.8-0.6,9.7-3.2c3.9-2.6,7.7-6.1,11.3-10.3c1.9-2,3.3-2.7,4.3-2c0.9,0.7,0.6,2.1-0.9,4.3
					c-1.7,2.5-4.1,5-7.1,7.6c-3,2.6-6.2,4.9-9.6,6.9c-3.4,2-6.8,3.6-10.3,4.6c-3.5,1-6.5,1.3-9.1,0.8c-3.4-0.6-5.3-2.1-5.7-4.5
					c-0.4-2.4,0-5.1,1.3-8.1c-4.2,3-8.3,5.2-12.3,6.7c-4,1.4-7.5,1.9-10.6,1.3c-2.8-0.5-4.9-1.9-6.2-4c-1.3-2.1-1.9-4.8-1.9-7.9
					c0-3.1,0.8-6.7,2.3-10.6c1.5-3.9,3.7-8,6.6-12.2c2.9-4.2,6.1-8.1,9.7-11.6c3.6-3.5,7.3-6.5,11-9c3.7-2.5,7.4-4.3,10.9-5.4
					C894.3,283.1,897.4,282.7,900.3,283.3z M886.3,327.1c1.9-3.3,4.4-7.9,7.7-13.8c3.3-5.9,6.7-12.2,10.3-18.8
					c-0.5-3.5-2.1-5.5-4.7-6.1c-1.9-0.4-4-0.1-6.4,0.8c-2.3,0.9-4.8,2.3-7.4,4.1c-2.6,1.8-5.1,4.1-7.7,6.8c-2.5,2.7-4.8,5.7-6.8,8.9
					c-4.1,6.5-6.4,12.3-6.7,17.5c-0.3,5.1,1.3,8.1,5,8.9c2,0.5,4.3,0.2,7-0.9c2.7-1.1,5.4-2.8,8.2-5.1L886.3,327.1z"/>
				<path class="st6" d="M989.8,316.8c1.7-1.4,2.9-1.8,3.6-1c0.7,0.8,0.3,2-1.2,3.6c-1.1,1-2.5,1.7-4.2,2.1
					c-1.7,0.4-3.6,0.5-5.6,0.3c-2-0.2-4.1-0.6-6.3-1.2c-2.2-0.6-4.2-1.4-6.1-2.4c-0.5,1.4-1,2.9-1.5,4.3c-0.5,1.4-1.2,2.9-1.9,4.4
					c-2.1,4.3-4.7,8.4-7.9,12.1c-3.2,3.7-6.5,7-10.1,9.7c-3.6,2.7-7.2,4.9-10.9,6.5c-3.7,1.6-7.2,2.3-10.6,2.3
					c-3.4-0.1-6.1-0.9-8.2-2.5c-2.1-1.6-3.6-3.8-4.3-6.7c-0.8-2.9-0.8-6.2-0.2-9.9c0.6-3.7,2.1-7.8,4.3-12.1
					c2.1-4.3,4.7-8.4,7.9-12.1c3.2-3.7,6.5-7,10.1-9.7c3.6-2.7,7.2-4.9,10.9-6.6c3.7-1.6,7.2-2.4,10.6-2.4c4.8,0.1,8.3,1.8,10.5,5.1
					c2.2,3.3,3,7.6,2.4,12.8c1.5,1,3.1,1.9,4.8,2.6c1.8,0.7,3.5,1.2,5.3,1.5c1.8,0.3,3.4,0.4,5,0.4
					C987.7,318.1,989,317.6,989.8,316.8z M962.4,324c0.7-1.4,1.3-2.8,1.8-4.3c0.5-1.4,0.8-2.8,1.2-4.2c-3.2-2.1-5.4-4.6-6.7-7.3
					c-1.3-2.8-1.1-5.2,0.5-7.4l-1.2-0.3c-2.1-0.2-4.4,0.3-6.9,1.3c-2.5,1.1-4.9,2.6-7.3,4.5c-2.3,1.9-4.6,4.3-6.7,7
					c-2.2,2.7-4,5.6-5.5,8.6c-1.5,3-2.6,6-3.1,8.7c-0.6,2.8-0.6,5.2-0.2,7.4c0.4,2.1,1.3,3.9,2.7,5.1c1.3,1.3,3,2,5.1,2.2
					c2.1,0,4.4-0.5,6.9-1.5c2.5-1.1,4.9-2.6,7.4-4.5c2.4-1.9,4.7-4.2,6.7-6.9C959.1,329.9,960.9,327.1,962.4,324z"/>
			</g>
		</g>
		<g>
			<linearGradient id="SVGID_4_" gradientUnits="userSpaceOnUse" x1="670.5441" y1="295.862" x2="688.6934" y2="295.862">
				<stop  offset="0" style="stop-color:#FFFFFF;stop-opacity:0"/>
				<stop  offset="1" style="stop-color:#FFFFFF"/>
			</linearGradient>
			<path class="st7" d="M680,290.2c-2.3,4.8-4.4,9.3-6.1,13.5c-1.8,4.2-2.8,7.7-3.2,10.5c-0.4,2.8,0.6,4.3,3.1,4.3
				c2.6,0.1,5.6-1.5,9.1-4.7c2.1-1.9,4-4.1,5.9-6.6c-1-11.1-1.8-22.5-2.3-33.8c-0.2,1.1-0.5,2.2-0.9,3.4
				C684.1,280.8,682.3,285.3,680,290.2z"/>
			<linearGradient id="SVGID_5_" gradientUnits="userSpaceOnUse" x1="542.9473" y1="275.6919" x2="697.0909" y2="275.6919">
				<stop  offset="0" style="stop-color:#FFFFFF;stop-opacity:0"/>
				<stop  offset="1" style="stop-color:#FFFFFF"/>
			</linearGradient>
			<path class="st8" d="M542.9,181.9c4.4,25.9,8.9,56.7,11.7,88.5c1.1,2,2,4.4,2.5,7.2c1.7,0.6,3.5,0.9,5.4,1
				c1.9,0.1,3.7,0.1,5.5-0.1c1.8-0.2,3.4-0.6,4.9-1.1c1.5-0.5,2.5-1.3,3.1-2.3c1.2-1.9,2.3-2.6,3.2-2c0.9,0.6,0.8,1.8-0.1,3.8
				c-0.7,1.3-1.9,2.4-3.4,3.3c-1.5,0.9-3.3,1.5-5.2,2c-2,0.4-4.1,0.7-6.4,0.7c-2.3,0-4.5-0.1-6.6-0.5c0,1.5-0.1,3-0.2,4.6
				c-0.1,1.5-0.3,3.1-0.6,4.8c-0.1,0.6-0.2,1.1-0.3,1.6c1.8,27.7,2,55.5-0.2,80.6c49.5-3.1,96.8-2.8,140.8-0.2
				c-2.8-17.8-5.7-38.6-7.8-60.6c-2.3,2.6-4.8,5.1-7.4,7.3c-3,2.5-6.2,4.6-9.4,6.2c-3.3,1.6-6.2,2.3-8.8,2.3c-3.4-0.1-5.4-1.5-6-4.2
				c-0.6-2.7-0.4-6,0.5-10c0.9-4,2.4-8.3,4.3-12.9c2-4.6,3.8-8.9,5.4-12.9c1.6-4,2.7-7.3,3.3-9.9c0.6-2.7,0.2-4-1.4-4.1
				c-1.2,0-3.2,1.3-5.8,4c-2.6,2.7-5.4,6.2-8.4,10.4c-3,4.3-6,9.1-8.9,14.4c-2.9,5.3-5.4,10.5-7.5,15.5l-0.9,1.8l0,0.2l-1.1,2.5
				c-0.7,1.5-1.9,2.6-3.5,3.2c-1.6,0.7-3.2,1-4.8,0.9c-1.6,0-2.8-0.4-3.8-1.1c-0.9-0.7-1.1-1.8-0.3-3.3c0.4-1,1.2-2.9,2.3-5.8
				c0.2-0.5,0.4-1,0.5-1.4c-1.1,1.2-2.3,2.4-3.5,3.5c-2.9,2.6-6,4.8-9.2,6.5c-3.2,1.7-6.1,2.5-8.8,2.6c-2.8,0-4.7-0.7-5.7-2.1
				c-1-1.4-1.6-3.3-1.6-5.5c0-2.2,0.3-4.6,1.1-7.2c0.7-2.6,1.5-5.1,2.3-7.5c1.5-4.3,2.9-8.6,4.3-12.9c1.4-4.3,2.7-8.3,3.9-11.9
				c1.2-3.7,2.3-6.9,3.2-9.7c0.9-2.8,1.7-5,2.4-6.5c0.7-1.5,1.8-2.6,3.5-3.3c1.6-0.7,3.2-1.1,4.7-1.1c1.5,0,2.7,0.4,3.6,1.1
				c0.9,0.7,1.1,1.8,0.5,3.2c-0.5,1.5-1.4,4.1-2.7,7.7c-1.3,3.6-2.6,7.5-4,11.6c-1.4,4.1-2.7,8.2-4,12c-1.3,3.9-2.2,6.7-2.7,8.5
				c-0.5,1.8-1,3.5-1.4,5.1c-0.4,1.6-0.7,2.9-0.8,4c-0.1,1.1,0.1,2,0.5,2.7c0.5,0.7,1.4,1,2.6,1c2.5,0,5.4-1.7,8.8-5
				c3.1-3,5.9-6.6,8.4-10.9c0.9-2.4,1.8-4.8,2.8-7.4c1.7-4.5,3.3-8.8,4.7-12.9c1.5-4.1,2.8-7.7,3.9-10.8c1.1-3.1,1.9-5.2,2.3-6.5
				c0.4-1.4,1.4-2.3,2.9-2.8c1.5-0.5,2.9-0.7,4.5-0.5c1.5,0.2,2.8,0.6,3.9,1.3c1.1,0.7,1.4,1.6,1,2.7l-10.1,27.5
				c2.6-4.1,5.2-8,8-11.7c2.8-3.7,5.6-7,8.4-9.9c2.8-2.9,5.5-5.2,8.1-6.8c2.6-1.7,5-2.5,7.2-2.4c2.6,0.1,4.4,0.8,5.4,2.3
				c-0.9-30.3,0.4-60.5,5.8-86.2C638.5,176.4,588.5,178.2,542.9,181.9z M633.2,254.1c-1.4,1.5-3.3,2.3-5.5,2.3
				c-2.1,0-3.8-0.7-5.3-2.2c-1.5-1.5-2.2-3.3-2.2-5.3c0-2.1,0.7-3.8,2.1-5.3c1.4-1.5,3.2-2.2,5.2-2.2c2.2,0,4,0.7,5.5,2.1
				c1.5,1.4,2.2,3.2,2.2,5.2S634.6,252.6,633.2,254.1z"/>
		</g>
	</g>
	<g>
		<g>
			<g>
				<path class="st2" d="M96.6,8.4c22.4,0,32,13.3,32,34.9v17.1c0,22.6-10.6,34.5-33.2,34.5H81.3v56.3H65.4V8.4H96.6z M95.4,80.6
					c11.8,0,17.5-5.5,17.5-19.2v-19c0-13.1-4.7-19.6-16.3-19.6H81.3v57.7H95.4z"/>
				<path class="st2" d="M173.5,8.4c22.4,0,31.8,11.4,31.8,32.6v11.6c0,15.7-5.5,25.5-17.7,29.4c13.1,3.9,17.9,14.5,17.9,29.8V134
					c0,6.3,0.2,12.2,2.9,17.1h-16.1c-1.8-4.1-2.7-7.7-2.7-17.3v-22.4c0-16.1-7.5-21.2-20.8-21.2h-11.2v61h-15.9V8.4H173.5z
					 M169.4,75.7c12.6,0,20.2-4.1,20.2-19.6V42.5c0-12.8-4.7-19.6-16.5-19.6h-15.5v52.8H169.4z"/>
				<path class="st2" d="M272.8,71.6v14.3h-34.9v50.8h42.8v14.5H222V8.4h58.7v14.5h-42.8v48.7H272.8z"/>
				<path class="st2" d="M358.4,42.9v12.8h-15.1V42.1c0-12.8-5.1-20.6-16.7-20.6c-11.4,0-16.7,7.7-16.7,20.6v75.5
					c0,12.8,5.3,20.6,16.7,20.6c11.6,0,16.7-7.7,16.7-20.6V99h15.1v17.7c0,21.6-10.2,35.9-32.2,35.9c-21.8,0-32-14.3-32-35.9V42.9
					c0-21.6,10.2-35.9,32-35.9C348.2,7,358.4,21.3,358.4,42.9z"/>
				<path class="st2" d="M388.8,8.4v142.7h-15.9V8.4H388.8z"/>
				<path class="st2" d="M403.9,42.9c0-21.8,10.8-35.9,32.6-35.9c22,0,32.8,14.1,32.8,35.9v73.8c0,21.6-10.8,35.9-32.8,35.9
					c-21.8,0-32.6-14.3-32.6-35.9V42.9z M419.6,117.5c0,13.1,5.5,20.6,16.9,20.6c11.6,0,16.9-7.5,16.9-20.6V42.1
					c0-12.8-5.3-20.6-16.9-20.6c-11.4,0-16.9,7.7-16.9,20.6V117.5z"/>
				<path class="st2" d="M546.2,42.7v3.9h-15.1v-4.7c0-12.8-4.9-20.4-16.3-20.4s-16.3,7.5-16.3,20.2c0,32,47.9,35.1,47.9,75.2
					c0,21.6-10.4,35.7-32.2,35.7c-21.8,0-32-14.1-32-35.7v-8.2h14.9v9c0,12.8,5.3,20.4,16.7,20.4c11.4,0,16.7-7.5,16.7-20.4
					c0-31.8-47.7-34.9-47.7-75c0-22,10.2-35.7,31.6-35.7C536,7,546.2,21.1,546.2,42.7z"/>
				<path class="st2" d="M642.7,71.6v14.3h-34.9v50.8h42.8v14.5h-58.7V8.4h58.7v14.5h-42.8v48.7H642.7z"/>
				<path class="st2" d="M727.1,42.7v3.9H712v-4.7c0-12.8-4.9-20.4-16.3-20.4c-11.4,0-16.3,7.5-16.3,20.2c0,32,47.9,35.1,47.9,75.2
					c0,21.6-10.4,35.7-32.2,35.7c-21.8,0-32-14.1-32-35.7v-8.2H678v9c0,12.8,5.3,20.4,16.7,20.4s16.7-7.5,16.7-20.4
					c0-31.8-47.7-34.9-47.7-75c0-22,10.2-35.7,31.6-35.7C716.9,7,727.1,21.1,727.1,42.7z"/>
				<path class="st2" d="M772.4,8.4c22.4,0,32,13.3,32,34.9v17.1c0,22.6-10.6,34.5-33.2,34.5h-14.1v56.3h-15.9V8.4H772.4z
					 M771.1,80.6c11.8,0,17.5-5.5,17.5-19.2v-19c0-13.1-4.7-19.6-16.3-19.6h-15.3v57.7H771.1z"/>
				<path class="st2" d="M867.6,71.6v14.3h-34.9v50.8h42.8v14.5h-58.7V8.4h58.7v14.5h-42.8v48.7H867.6z"/>
				<path class="st2" d="M953.2,42.9v12.8h-15.1V42.1c0-12.8-5.1-20.6-16.7-20.6c-11.4,0-16.7,7.7-16.7,20.6v75.5
					c0,12.8,5.3,20.6,16.7,20.6c11.6,0,16.7-7.7,16.7-20.6V99h15.1v17.7c0,21.6-10.2,35.9-32.2,35.9c-21.8,0-32-14.3-32-35.9V42.9
					C889,21.3,899.2,7,921,7C943,7,953.2,21.3,953.2,42.9z"/>
				<path class="st2" d="M983.6,8.4v142.7h-15.9V8.4H983.6z"/>
				<path class="st2" d="M1016.1,122.4l-5.5,28.8h-14.7l27.3-142.7h23l27.3,142.7h-15.9l-5.5-28.8H1016.1z M1018.1,108.8h31.8
					l-16.1-82.4L1018.1,108.8z"/>
				<path class="st2" d="M1086,151.2V8.4h15.9v128.3h40.8v14.5H1086z"/>
				<path class="st2" d="M1205.5,71.6v14.3h-34.9v50.8h42.8v14.5h-58.7V8.4h58.7v14.5h-42.8v48.7H1205.5z"/>
				<path class="st2" d="M1289.9,42.7v3.9h-15.1v-4.7c0-12.8-4.9-20.4-16.3-20.4s-16.3,7.5-16.3,20.2c0,32,47.9,35.1,47.9,75.2
					c0,21.6-10.4,35.7-32.2,35.7c-21.8,0-32-14.1-32-35.7v-8.2h14.9v9c0,12.8,5.3,20.4,16.7,20.4c11.4,0,16.7-7.5,16.7-20.4
					c0-31.8-47.7-34.9-47.7-75c0-22,10.2-35.7,31.6-35.7C1279.7,7,1289.9,21.1,1289.9,42.7z"/>
			</g>
		</g>
		<g>
			<path class="st6" d="M88.6,1.4c22.4,0,32,13.3,32,34.9v17.1c0,22.6-10.6,34.5-33.2,34.5H73.3v56.3H57.4V1.4H88.6z M87.4,73.6
				c11.8,0,17.5-5.5,17.5-19.2v-19c0-13.1-4.7-19.6-16.3-19.6H73.3v57.7H87.4z"/>
			<path class="st6" d="M165.5,1.4c22.4,0,31.8,11.4,31.8,32.6v11.6c0,15.7-5.5,25.5-17.7,29.4c13.1,3.9,17.9,14.5,17.9,29.8V127
				c0,6.3,0.2,12.2,2.9,17.1h-16.1c-1.8-4.1-2.7-7.7-2.7-17.3v-22.4c0-16.1-7.5-21.2-20.8-21.2h-11.2v61h-15.9V1.4H165.5z
				 M161.4,68.7c12.6,0,20.2-4.1,20.2-19.6V35.5c0-12.8-4.7-19.6-16.5-19.6h-15.5v52.8H161.4z"/>
			<path class="st6" d="M264.8,64.6v14.3h-34.9v50.8h42.8v14.5H214V1.4h58.7v14.5h-42.8v48.7H264.8z"/>
			<path class="st6" d="M350.4,35.9v12.8h-15.1V35.1c0-12.8-5.1-20.6-16.7-20.6c-11.4,0-16.7,7.7-16.7,20.6v75.5
				c0,12.8,5.3,20.6,16.7,20.6c11.6,0,16.7-7.7,16.7-20.6V92h15.1v17.7c0,21.6-10.2,35.9-32.2,35.9c-21.8,0-32-14.3-32-35.9V35.9
				c0-21.6,10.2-35.9,32-35.9C340.2,0,350.4,14.3,350.4,35.9z"/>
			<path class="st6" d="M380.8,1.4v142.7h-15.9V1.4H380.8z"/>
			<path class="st6" d="M395.9,35.9c0-21.8,10.8-35.9,32.6-35.9c22,0,32.8,14.1,32.8,35.9v73.8c0,21.6-10.8,35.9-32.8,35.9
				c-21.8,0-32.6-14.3-32.6-35.9V35.9z M411.6,110.5c0,13.1,5.5,20.6,16.9,20.6c11.6,0,16.9-7.5,16.9-20.6V35.1
				c0-12.8-5.3-20.6-16.9-20.6c-11.4,0-16.9,7.7-16.9,20.6V110.5z"/>
			<path class="st6" d="M538.2,35.7v3.9h-15.1v-4.7c0-12.8-4.9-20.4-16.3-20.4s-16.3,7.5-16.3,20.2c0,32,47.9,35.1,47.9,75.2
				c0,21.6-10.4,35.7-32.2,35.7c-21.8,0-32-14.1-32-35.7v-8.2h14.9v9c0,12.8,5.3,20.4,16.7,20.4c11.4,0,16.7-7.5,16.7-20.4
				c0-31.8-47.7-34.9-47.7-75c0-22,10.2-35.7,31.6-35.7C528,0,538.2,14.1,538.2,35.7z"/>
			<path class="st6" d="M634.7,64.6v14.3h-34.9v50.8h42.8v14.5h-58.7V1.4h58.7v14.5h-42.8v48.7H634.7z"/>
			<path class="st6" d="M719.1,35.7v3.9H704v-4.7c0-12.8-4.9-20.4-16.3-20.4c-11.4,0-16.3,7.5-16.3,20.2c0,32,47.9,35.1,47.9,75.2
				c0,21.6-10.4,35.7-32.2,35.7c-21.8,0-32-14.1-32-35.7v-8.2H670v9c0,12.8,5.3,20.4,16.7,20.4s16.7-7.5,16.7-20.4
				c0-31.8-47.7-34.9-47.7-75c0-22,10.2-35.7,31.6-35.7C708.9,0,719.1,14.1,719.1,35.7z"/>
			<path class="st6" d="M764.4,1.4c22.4,0,32,13.3,32,34.9v17.1c0,22.6-10.6,34.5-33.2,34.5h-14.1v56.3h-15.9V1.4H764.4z
				 M763.1,73.6c11.8,0,17.5-5.5,17.5-19.2v-19c0-13.1-4.7-19.6-16.3-19.6h-15.3v57.7H763.1z"/>
			<path class="st6" d="M859.6,64.6v14.3h-34.9v50.8h42.8v14.5h-58.7V1.4h58.7v14.5h-42.8v48.7H859.6z"/>
			<path class="st6" d="M945.2,35.9v12.8h-15.1V35.1c0-12.8-5.1-20.6-16.7-20.6c-11.4,0-16.7,7.7-16.7,20.6v75.5
				c0,12.8,5.3,20.6,16.7,20.6c11.6,0,16.7-7.7,16.7-20.6V92h15.1v17.7c0,21.6-10.2,35.9-32.2,35.9c-21.8,0-32-14.3-32-35.9V35.9
				C881,14.3,891.2,0,913,0C935,0,945.2,14.3,945.2,35.9z"/>
			<path class="st6" d="M975.6,1.4v142.7h-15.9V1.4H975.6z"/>
			<path class="st6" d="M1008.1,115.4l-5.5,28.8h-14.7l27.3-142.7h23l27.3,142.7h-15.9l-5.5-28.8H1008.1z M1010.1,101.8h31.8
				l-16.1-82.4L1010.1,101.8z"/>
			<path class="st6" d="M1078,144.2V1.4h15.9v128.3h40.8v14.5H1078z"/>
			<path class="st6" d="M1197.5,64.6v14.3h-34.9v50.8h42.8v14.5h-58.7V1.4h58.7v14.5h-42.8v48.7H1197.5z"/>
			<path class="st6" d="M1281.9,35.7v3.9h-15.1v-4.7c0-12.8-4.9-20.4-16.3-20.4s-16.3,7.5-16.3,20.2c0,32,47.9,35.1,47.9,75.2
				c0,21.6-10.4,35.7-32.2,35.7c-21.8,0-32-14.1-32-35.7v-8.2h14.9v9c0,12.8,5.3,20.4,16.7,20.4c11.4,0,16.7-7.5,16.7-20.4
				c0-31.8-47.7-34.9-47.7-75c0-22,10.2-35.7,31.6-35.7C1271.7,0,1281.9,14.1,1281.9,35.7z"/>
		</g>
	</g>
	<g>
		<g>
			<g>
				<g>
					<path class="st2" d="M225.7,623.2c-7.7-3.8-14.4-11.2-14.4-24.6V456.3c0-37.4-20.8-50.9-40.6-50.9c-6.1,0-17.9,1.3-25.9,13.1
						c-9.9-11.8-24-13.1-29.4-13.1c-19.2,0-39.7,13.4-39.7,50.9V590c0,21.1-4.5,28.8-9,30.4c-4.5,1.6-8.6-0.3-8.6,2.6
						c0,5.8,3.2,15.4,15,15.4c17.9,0,27.5-15.4,27.5-43.5V453.1c0-24.3,11.2-24.3,15.4-24.3c4.8,0,15,0,15,24.3v179.1
						c0,6.1,3.8,6.1,8,6.1c8,0,18.6-4.5,18.6-7.7c0-0.6-1-1.6-1.6-1.6V456.3c0-27.5,10.6-27.5,15.4-27.5c4.2,0,15,0,15,24.3v148.1
						c0,25.3,10.6,36.8,20.8,37.1C218,638.6,230.8,626.4,225.7,623.2z"/>
					<path class="st2" d="M1122.3,475.4c11.2,0,19.5-9,19.5-19.5c0-11.2-8.3-19.5-19.5-19.5c-10.6,0-19.2,8.3-19.2,19.5
						C1103.1,466.5,1111.7,475.4,1122.3,475.4z"/>
					<path class="st2" d="M1280.3,573c-3.2,0-6.4,2.9-7.7,9.6c-2.9,14.1-8.6,34.5-21.4,34.5c-7.7,0-10.9-7.7-10.9-14.7v-52.8
						c0-7.7-6.7-14.1-17.3-14.1c-4.5,0-8.3,2.2-8.3,5.4c0,2.2,1.3,4.2,1.3,10.2v49.3c-3.5,9-9.3,16.6-17.9,16.6
						c-11.2,0-18.2-9.6-18.2-26.2c0-46.1,28.5-66.9,52.8-66.9c3.2,0,6.4,0.6,9.3,0.6c3.2,0,4.2-1.9,4.2-7.4
						c0-8.3-6.1-13.4-14.7-13.4c-39,0-76.1,32.6-76.1,86c0,2.5,0.1,5,0.3,7.4c-3.5,10.4-8.9,19.8-17.6,19.8
						c-8.3,0-8.3-11.8-8.3-14.7v-81.2c0-7.7-6.7-14.1-17.3-14.1c-4.5,0-8.3,2.2-8.3,5.4c0,2.2,1.3,4.2,1.3,10.2v55.5
						c-0.5,1.2-1,2.6-1.3,4.3c-2.9,14.1-8.6,34.5-21.4,34.5c-6.7,0-10.9-4.5-10.9-14.7V501c17,0,35.8,0,61.4-0.6
						c8.3-0.3,11.2-31,2.2-21.4c-21.7,1-44.1,1.3-63.7,1.3v-56c0-7.7-6.7-14.1-17.3-14.1c-4.5,0-10.2,1.3-10.2,3.5
						c0,2.2,3.2,2.9,3.2,12.2v54.1c-17.3-0.3-28.8-1-28.8-1c-9.3,0-3.5,21.4,6.7,21.4c0,0,8,0.6,22.1,0.6v77.8
						c-0.5,1.1-1.1,2.3-1.6,3.7c-3.5,10.2-11.2,19.8-26.2,23c1-3.5,1.6-7.7,1.6-11.5c0-30.4-19.5-41.9-34.5-68.5
						c0.3-1.9,7.7-12.5,7.7-21.7c0-8.6-3.8-14.4-11.5-14.4c-8.6,0-27.2,14.4-27.2,25.3c0,5.4,1.9,10.2,5.1,15
						c-5.8,17-12.5,35.2-15.7,49.3c0,0,0,0,0,0c-0.4,1-0.7,2.2-0.9,3.5c-0.7,3.2-1.5,6.8-2.5,10.4c-0.4-0.1-0.7-0.1-1-0.1
						c-5.1,0-11,8.8-8,19.3c-2.7,3.1-6,5-9.9,5c-7.7,0-10.9-7.7-10.9-14.7v-52.8c0-7.7-6.7-14.1-17.3-14.1c-4.5,0-8.3,2.2-8.3,5.4
						c0,2.2,1.3,4.2,1.3,10.2v49.3c-3.5,9-9.3,16.6-17.9,16.6c-11.2,0-18.2-9.6-18.2-26.2c0-46.1,28.5-66.9,52.8-66.9
						c3.2,0,6.4,0.6,9.3,0.6c3.2,0,4.2-1.9,4.2-7.4c0-8.3-6.1-13.4-14.7-13.4c-39,0-76.1,32.6-76.1,86c0,2.2,0.1,4.3,0.3,6.4
						c-5.1,10.8-13.6,20.8-23.9,20.8c-11.8,0-17-9.3-17-22.1v-18.6c4.2-3.8,33.3-68.5,33.3-115.5c0-17.9-0.3-51.5-28.5-51.5
						c-16,0-29.1,17-29.1,40.9v132.1c-7.4,15-12.2,23.4-33.3,24.3c4.8-11.5,8.3-28.8,8.3-46.7c0-31.7-12.2-56.3-37.1-56.3
						c-13.4,0-22.4,7.4-29.1,17c-0.3-7.4-7-13.8-17.3-13.8c-4.5,0-10.2,1.3-10.2,3.5c0,2.2,3.2,2.9,3.2,12.2v53.7
						c-1.9,12.5-9.3,23-23,23c-2.2,0-4.2,0-6.4-0.6c3.2-10.9,4.5-22.7,4.5-34.5c0-31-12.2-53.7-27.2-53.7
						c-17.3,0-25.9,17.3-25.9,37.4c0,23,8,44.1,23,56.9c-4.2,7.4-9.9,12.2-18.9,12.2c-12.5,0-23-13.4-23-40.3
						c0-31.7,9.6-43.5,14.7-51.2c8.3-5.4,1.9-22.4-6.4-22.4c-7,0-32.6,28.5-32.6,75.5c0,4.3,0.3,8.6,0.8,12.7
						c-3.4,12.5-9.1,25.7-19.4,25.7c-8.3,0-8.3-11.8-8.3-14.7v-66.2c0-14.7-4.8-32.3-25.6-32.3c-14.4,0-25.6,13.1-33.6,30.1
						c-0.6-14.4-6.1-30.1-25.3-30.1c-14.4,0-25.6,13.4-33.9,30.7v-13.4c0-7.7-6.7-14.1-17.3-14.1c-4.5,0-8.3,2.2-8.3,5.4
						c0,2.2,1.3,4.2,1.3,10.2v55.5c-0.5,1.2-1,2.6-1.3,4.3c-2.9,14.1-8.6,34.5-21.4,34.5c-7.7,0-10.9-7.7-10.9-14.7v-52.8
						c0-7.7-6.7-14.1-17.3-14.1c-4.5,0-8.3,2.2-8.3,5.4c0,2.2,1.3,4.2,1.3,10.2v49.3c-3.5,9-9.3,16.6-17.9,16.6
						c-11.2,0-18.2-9.6-18.2-26.2c0-46.1,28.5-66.9,52.8-66.9c3.2,0,6.4,0.6,9.3,0.6c3.2,0,4.2-1.9,4.2-7.4
						c0-8.3-6.1-13.4-14.7-13.4c-39,0-76.1,32.6-76.1,86c0,27.2,13.1,48.3,38.1,48.3c12.2,0,21.1-5.8,27.5-13.1
						c4.8,7.7,13.4,13.1,24.6,13.1c12.2,0,21.4-5.6,28.5-13.7c0.2,11.5,9,13.7,15.3,13.7c9.3,0,9-7.7,9-13.8v-46.7
						c1.9-25.3,20.2-52.8,28.8-52.8c5.4,0,6.1,8.3,6.1,18.2v80.9c0,11.8,9,14.1,15.4,14.1c9.3,0,9-7.7,9-13.8v-46.7
						c1.9-25.3,20.2-52.8,28.8-52.8c5.4,0,6.1,8.3,6.1,18.2v64.9c0,16.3,9.9,30.1,26.9,30.1c15.5,0,26.2-9.1,33.6-20.8
						c7.5,12.6,19.8,20.8,37.4,20.8c18.2,0,30.4-9.3,38.4-23c4.8,1.6,9.9,2.2,15.7,2.2c8,0,14.8-2,20.5-5.3v218.3
						c0,4.8,1,8.6,7.4,8.6c6.4,0,17-2.2,17-14.1V636.7c2.6,2.9,7.7,4.8,15.4,4.8c11.2,0,23.7-5.4,32.3-14.7c20.4,0,35.6-6,45.8-13.8
						c4.8,15.6,16.8,25.3,35.4,25.3c14.6,0,25.8-8.1,34.1-18.4c6.3,11.3,16.7,18.4,31.2,18.4c12.2,0,21.1-5.8,27.5-13.1
						c4.8,7.7,13.4,13.1,24.6,13.1c10.9,0,19.5-4.5,26.2-11.3c7.4,5.5,20.7,11.3,32.6,11.3c13.1,0,23.7-4.8,31.3-11.5
						c18.6-1.2,31.4-6.7,41.1-13.9c2.9,18,13.9,25.5,28.7,25.5c13.6,0,23.6-7.1,30.9-16.7c3.9,9.8,12.4,16.7,24.4,16.7
						c13.6,0,23.6-7.1,30.8-16.8c6.3,10.3,16.5,16.8,30.3,16.8c12.2,0,21.1-5.8,27.5-13.1c4.8,7.7,13.4,13.1,24.6,13.1
						c27.5,0,40.3-28.8,45.7-49.9c0.3-1.3,0.3-1.9,0.3-2.2C1291.5,580,1285.4,573,1280.3,573z M786.1,443.5c0-5.1,1.3-12.8,4.8-12.8
						c5.1,0,8.6,9.6,8.6,30.7c0,17.6-6.7,59.8-13.4,73.2V443.5z M597.4,584.2c-7.4-9.6-12.2-23-12.2-37.4c0-9.9,1.9-15,5.4-15
						c6.7,0,7.7,16,7.7,37.7C598.3,574.3,598,579.1,597.4,584.2z M700.7,610.1c-14.7,1.3-25.6,4.5-30.1,11.2v-69.1
						c3.5-15.7,11.8-26.9,21.1-26.9c10.9,0,20.2,10.6,20.2,40C711.9,577.2,708.4,598.9,700.7,610.1z M992.1,611.4
						c-9,0-22.2-5.9-33.1-11c1.5-4.1,2.7-8.2,3.7-12c0.1-0.2,0.1-0.4,0.1-0.6c0.3-0.7,0.6-1.4,0.8-2.3c4.2-15.4,7.4-26.2,12.5-38.7
						c11.2,11.5,23,24.9,23,45.1C999.1,599.9,995.6,607.2,992.1,611.4z"/>
				</g>
				<g>
					<path class="st6" d="M216.8,614.3c-7.7-3.8-14.4-11.2-14.4-24.6V447.3c0-37.4-20.8-50.9-40.6-50.9c-6.1,0-17.9,1.3-25.9,13.1
						c-9.9-11.8-24-13.1-29.4-13.1c-19.2,0-39.7,13.4-39.7,50.9V581c0,21.1-4.5,28.8-9,30.4c-4.5,1.6-8.6-0.3-8.6,2.6
						c0,5.8,3.2,15.4,15,15.4c17.9,0,27.5-15.4,27.5-43.5V444.1c0-24.3,11.2-24.3,15.4-24.3c4.8,0,15,0,15,24.3v179.1
						c0,6.1,3.8,6.1,8,6.1c8,0,18.6-4.5,18.6-7.7c0-0.6-1-1.6-1.6-1.6V447.3c0-27.5,10.6-27.5,15.4-27.5c4.2,0,15,0,15,24.3v148.1
						c0,25.3,10.6,36.8,20.8,37.1C209.1,629.6,221.9,617.5,216.8,614.3z"/>
					<path class="st6" d="M1113.3,466.5c11.2,0,19.5-9,19.5-19.5c0-11.2-8.3-19.5-19.5-19.5c-10.6,0-19.2,8.3-19.2,19.5
						C1094.1,457.6,1102.8,466.5,1113.3,466.5z"/>
					<path class="st6" d="M1271.3,564.1c-3.2,0-6.4,2.9-7.7,9.6c-2.9,14.1-8.6,34.5-21.4,34.5c-7.7,0-10.9-7.7-10.9-14.7v-52.8
						c0-7.7-6.7-14.1-17.3-14.1c-4.5,0-8.3,2.2-8.3,5.4c0,2.2,1.3,4.2,1.3,10.2v49.3c-3.5,9-9.3,16.6-17.9,16.6
						c-11.2,0-18.2-9.6-18.2-26.2c0-46.1,28.5-66.9,52.8-66.9c3.2,0,6.4,0.6,9.3,0.6c3.2,0,4.2-1.9,4.2-7.4
						c0-8.3-6.1-13.4-14.7-13.4c-39,0-76.1,32.6-76.1,86c0,2.5,0.1,5,0.3,7.4c-3.5,10.4-8.9,19.8-17.6,19.8
						c-8.3,0-8.3-11.8-8.3-14.7v-81.2c0-7.7-6.7-14.1-17.3-14.1c-4.5,0-8.3,2.2-8.3,5.4c0,2.2,1.3,4.2,1.3,10.2v55.5
						c-0.5,1.2-1,2.6-1.3,4.3c-2.9,14.1-8.6,34.5-21.4,34.5c-6.7,0-10.9-4.5-10.9-14.7V492.1c17,0,35.8,0,61.4-0.6
						c8.3-0.3,11.2-31,2.2-21.4c-21.7,1-44.1,1.3-63.7,1.3v-56c0-7.7-6.7-14.1-17.3-14.1c-4.5,0-10.2,1.3-10.2,3.5
						c0,2.2,3.2,2.9,3.2,12.2V471c-17.3-0.3-28.8-1-28.8-1c-9.3,0-3.5,21.4,6.7,21.4c0,0,8,0.6,22.1,0.6v77.8
						c-0.5,1.1-1.1,2.3-1.6,3.7c-3.5,10.2-11.2,19.8-26.2,23c1-3.5,1.6-7.7,1.6-11.5c0-30.4-19.5-41.9-34.5-68.5
						c0.3-1.9,7.7-12.5,7.7-21.7c0-8.6-3.8-14.4-11.5-14.4c-8.6,0-27.2,14.4-27.2,25.3c0,5.4,1.9,10.2,5.1,15
						c-5.8,17-12.5,35.2-15.7,49.3c0,0,0,0,0,0c-0.4,1-0.7,2.2-0.9,3.5c-0.7,3.2-1.5,6.8-2.5,10.4c-0.4-0.1-0.7-0.1-1-0.1
						c-5.1,0-11,8.8-8,19.3c-2.7,3.1-6,5-9.9,5c-7.7,0-10.9-7.7-10.9-14.7v-52.8c0-7.7-6.7-14.1-17.3-14.1c-4.5,0-8.3,2.2-8.3,5.4
						c0,2.2,1.3,4.2,1.3,10.2v49.3c-3.5,9-9.3,16.6-17.9,16.6c-11.2,0-18.2-9.6-18.2-26.2c0-46.1,28.5-66.9,52.8-66.9
						c3.2,0,6.4,0.6,9.3,0.6c3.2,0,4.2-1.9,4.2-7.4c0-8.3-6.1-13.4-14.7-13.4c-39,0-76.1,32.6-76.1,86c0,2.2,0.1,4.3,0.3,6.4
						c-5.1,10.8-13.6,20.8-23.9,20.8c-11.8,0-17-9.3-17-22.1v-18.6c4.2-3.8,33.3-68.5,33.3-115.5c0-17.9-0.3-51.5-28.5-51.5
						c-16,0-29.1,17-29.1,40.9v132.1c-7.4,15-12.2,23.4-33.3,24.3c4.8-11.5,8.3-28.8,8.3-46.7c0-31.7-12.2-56.3-37.1-56.3
						c-13.4,0-22.4,7.4-29.1,17c-0.3-7.4-7-13.8-17.3-13.8c-4.5,0-10.2,1.3-10.2,3.5c0,2.2,3.2,2.9,3.2,12.2v53.7
						c-1.9,12.5-9.3,23-23,23c-2.2,0-4.2,0-6.4-0.6c3.2-10.9,4.5-22.7,4.5-34.5c0-31-12.2-53.7-27.2-53.7
						c-17.3,0-25.9,17.3-25.9,37.4c0,23,8,44.1,23,56.9c-4.2,7.4-9.9,12.2-18.9,12.2c-12.5,0-23-13.4-23-40.3
						c0-31.7,9.6-43.5,14.7-51.2c8.3-5.4,1.9-22.4-6.4-22.4c-7,0-32.6,28.5-32.6,75.5c0,4.3,0.3,8.6,0.8,12.7
						c-3.4,12.5-9.1,25.7-19.4,25.7c-8.3,0-8.3-11.8-8.3-14.7v-66.2c0-14.7-4.8-32.3-25.6-32.3c-14.4,0-25.6,13.1-33.6,30.1
						c-0.6-14.4-6.1-30.1-25.3-30.1c-14.4,0-25.6,13.4-33.9,30.7v-13.4c0-7.7-6.7-14.1-17.3-14.1c-4.5,0-8.3,2.2-8.3,5.4
						c0,2.2,1.3,4.2,1.3,10.2v55.5c-0.5,1.2-1,2.6-1.3,4.3c-2.9,14.1-8.6,34.5-21.4,34.5c-7.7,0-10.9-7.7-10.9-14.7v-52.8
						c0-7.7-6.7-14.1-17.3-14.1c-4.5,0-8.3,2.2-8.3,5.4c0,2.2,1.3,4.2,1.3,10.2v49.3c-3.5,9-9.3,16.6-17.9,16.6
						c-11.2,0-18.2-9.6-18.2-26.2c0-46.1,28.5-66.9,52.8-66.9c3.2,0,6.4,0.6,9.3,0.6c3.2,0,4.2-1.9,4.2-7.4
						c0-8.3-6.1-13.4-14.7-13.4c-39,0-76.1,32.6-76.1,86c0,27.2,13.1,48.3,38.1,48.3c12.2,0,21.1-5.8,27.5-13.1
						c4.8,7.7,13.4,13.1,24.6,13.1c12.2,0,21.4-5.6,28.5-13.7c0.2,11.5,9,13.7,15.3,13.7c9.3,0,9-7.7,9-13.8v-46.7
						c1.9-25.3,20.2-52.8,28.8-52.8c5.4,0,6.1,8.3,6.1,18.2v80.9c0,11.8,9,14.1,15.4,14.1c9.3,0,9-7.7,9-13.8v-46.7
						c1.9-25.3,20.2-52.8,28.8-52.8c5.4,0,6.1,8.3,6.1,18.2v64.9c0,16.3,9.9,30.1,26.9,30.1c15.5,0,26.2-9.1,33.6-20.8
						c7.5,12.6,19.8,20.8,37.4,20.8c18.2,0,30.4-9.3,38.4-23c4.8,1.6,9.9,2.2,15.7,2.2c8,0,14.8-2,20.5-5.3v218.3
						c0,4.8,1,8.6,7.4,8.6c6.4,0,17-2.2,17-14.1V627.7c2.6,2.9,7.7,4.8,15.4,4.8c11.2,0,23.7-5.4,32.3-14.7c20.4,0,35.6-6,45.8-13.8
						c4.8,15.6,16.8,25.3,35.4,25.3c14.6,0,25.8-8.1,34.1-18.4c6.3,11.3,16.7,18.4,31.2,18.4c12.2,0,21.1-5.8,27.5-13.1
						c4.8,7.7,13.4,13.1,24.6,13.1c10.9,0,19.5-4.5,26.2-11.3c7.4,5.5,20.7,11.3,32.6,11.3c13.1,0,23.7-4.8,31.3-11.5
						c18.6-1.2,31.4-6.7,41.1-13.9c2.9,18,13.9,25.5,28.7,25.5c13.6,0,23.6-7.1,30.9-16.7c3.9,9.8,12.4,16.7,24.4,16.7
						c13.6,0,23.6-7.1,30.8-16.8c6.3,10.3,16.5,16.8,30.3,16.8c12.2,0,21.1-5.8,27.5-13.1c4.8,7.7,13.4,13.1,24.6,13.1
						c27.5,0,40.3-28.8,45.7-49.9c0.3-1.3,0.3-1.9,0.3-2.2C1282.5,571.1,1276.5,564.1,1271.3,564.1z M777.2,434.5
						c0-5.1,1.3-12.8,4.8-12.8c5.1,0,8.6,9.6,8.6,30.7c0,17.6-6.7,59.8-13.4,73.2V434.5z M588.4,575.3c-7.4-9.6-12.2-23-12.2-37.4
						c0-9.9,1.9-15,5.4-15c6.7,0,7.7,16,7.7,37.7C589.4,565.4,589.1,570.2,588.4,575.3z M691.8,601.2c-14.7,1.3-25.6,4.5-30.1,11.2
						v-69.1c3.5-15.7,11.8-26.9,21.1-26.9c10.9,0,20.2,10.6,20.2,40C703,568.2,699.4,590,691.8,601.2z M983.1,602.5
						c-9,0-22.2-5.9-33.1-11c1.5-4.1,2.7-8.2,3.7-12c0.1-0.2,0.1-0.4,0.1-0.6c0.3-0.7,0.6-1.4,0.8-2.3c4.2-15.4,7.4-26.2,12.5-38.7
						c11.2,11.5,23,24.9,23,45.1C990.2,590.9,986.7,598.3,983.1,602.5z"/>
				</g>
			</g>
		</g>
	</g>
	<g>
		<g>
			<path class="st9" d="M67.3,1067.4c-23.2-2.2-35.4-14.7-35.4-16.6c0-7.4,8.1-18.8,13.3-18.8c4.4,0,8.5,9.2,22.1,11.4v-54.2
				c-24.3-13.6-53.5-29.9-53.5-68.6c0-29.9,24-61.2,53.5-75.9v-29.1c0-1.1-1.8-2.9-1.8-4.8c0-2.9,3.7-4.1,10.7-4.1
				c7,0,11.4,2.2,11.4,9.2v21.4c4.4-0.7,8.8-1.5,13.6-1.5c24.7,0,39.8,16.2,39.8,40.9c0,22.5-13.6,45-27.6,45
				c-6.3,0-12.5-5.2-14.4-10.7c-1.8-5.2,1.1-7.7,3.3-7.7c8.8,0,11.4-12.5,11.4-24.7c0-10-4.1-15.9-15.5-15.9c-3.3,0-7,0.7-10.7,1.8
				v105.8c18.8,11.4,36.9,24.7,36.9,50.1c0,21.4-16.6,39.1-36.9,45v29.5c0,4.8-2.2,6.6-7.4,6.6c-7,0-12.9-3.3-12.9-10.7V1067.4z
				 M67.3,958.3v-82.9c-14,10.7-25.4,26.9-25.4,45.3C41.8,938,52.9,948.7,67.3,958.3z M87.6,1002.2v39.1
				c7.7-3.7,11.1-11.1,11.1-19.5C98.6,1014,94.2,1007.7,87.6,1002.2z"/>
			<path class="st9" d="M267.4,1009.5v67.5c0,6.3-4.8,8.5-10.3,8.5c-8.5,0-17.7-5.2-17.7-10.7v-66h-13.3c-17,0-43.5,1.1-56,1.1
				c-8.5,0-16.6-10.3-16.6-16.2c0-4.8,2.9-6.6,5.5-9.2c19.9-50.9,21.4-108.4,21.4-132.3c0-5.5-1.8-12.9-1.8-13.6
				c0-2.9,3.7-4.4,10-4.4c8.1,0,20.3,3.7,20.3,21.7c0,30.6-5.5,87.7-21,126.8c13.3-0.4,30.2-0.7,44.2-0.7h7.4v-143
				c0-10.7-3.7-11.4-3.7-14s6.6-4.1,11.8-4.1c12.2,0,19.9,7.4,19.9,16.2v145.2h9.6c5.9,0,5.9-5.2,9.2-5.2s4.1,5.9,4.1,10.7
				c0,11.4-4.1,21.7-14.4,21.7H267.4z"/>
			<path class="st9" d="M344.1,848.1c0,13.6-18.4,40.5-27.6,40.5c-6.3,0-10.7-7-10.7-11.4c0-1.8,1.1-1.8,2.6-2.6
				c2.6-0.7,8.1-7,13.3-14c-7.7-1.8-13.6-8.5-13.6-16.6c0-10,8.5-17.7,18.1-17.7S344.1,833.3,344.1,848.1z"/>
			<path class="st9" d="M460.6,993.3c-13.3,15.1-25.8,17.3-35,17.3c-39.4,0-55.7-43.9-55.7-88.5c0-96.2,48.3-101.4,57.9-101.4
				c61.2,0,63.4,96.6,63.4,129.4c0,34.3,0,139-64.1,139c-27.3,0-48.3-26.9-48.3-42c0-5.9,12.5-11.8,20.6-11.8c3.3,0,5.9,0.7,5.9,2.9
				c0,11.8,9.2,24,21.7,24C442.9,1062.2,456.2,1044.9,460.6,993.3z M462.1,935.4c-2.2-68.9-18.8-87.7-34.3-87.7
				c-12.5,0-29.9,16.6-29.9,74.5c0,32.8,9.6,61.9,29.9,61.9C444.7,984.1,458,968.2,462.1,935.4z"/>
			<path class="st9" d="M518.1,955c0-33.5,0-134.2,67.5-134.2c60.1,0,67.1,76.3,67.1,134.2c0,111.3-36.5,134.2-67.1,134.2
				C540.6,1089.2,518.1,1043.8,518.1,955z M546.9,955c0,39.8,4.4,106.9,38.7,106.9c24.3,0,38.3-40.5,38.3-106.9
				c0-106.2-29.1-106.9-38.3-106.9C559.4,848.1,546.9,884.2,546.9,955z"/>
			<path class="st9" d="M678.5,955c0-33.5,0-134.2,67.5-134.2c60.1,0,67.1,76.3,67.1,134.2c0,111.3-36.5,134.2-67.1,134.2
				C700.9,1089.2,678.5,1043.8,678.5,955z M707.2,955c0,39.8,4.4,106.9,38.7,106.9c24.3,0,38.3-40.5,38.3-106.9
				c0-106.2-29.1-106.9-38.3-106.9C719.7,848.1,707.2,884.2,707.2,955z"/>
			<path class="st9" d="M896.3,1069.6c0,9.2-8.1,17.3-18.1,17.3c-9.6,0-17.7-8.1-17.7-17.3c0-10,8.1-17.7,17.7-17.7
				C888.2,1051.9,896.3,1059.7,896.3,1069.6z"/>
			<path class="st9" d="M938.3,955c0-33.5,0-134.2,67.5-134.2c60.1,0,67.1,76.3,67.1,134.2c0,111.3-36.5,134.2-67.1,134.2
				C960.8,1089.2,938.3,1043.8,938.3,955z M967.1,955c0,39.8,4.4,106.9,38.7,106.9c24.3,0,38.3-40.5,38.3-106.9
				c0-106.2-29.1-106.9-38.3-106.9C979.6,848.1,967.1,884.2,967.1,955z"/>
			<path class="st9" d="M1098.7,955c0-33.5,0-134.2,67.5-134.2c60.1,0,67.1,76.3,67.1,134.2c0,111.3-36.5,134.2-67.1,134.2
				C1121.2,1089.2,1098.7,1043.8,1098.7,955z M1127.4,955c0,39.8,4.4,106.9,38.7,106.9c24.3,0,38.3-40.5,38.3-106.9
				c0-106.2-29.1-106.9-38.3-106.9C1140,848.1,1127.4,884.2,1127.4,955z"/>
			<path class="st9" d="M1259,955c0-33.5,0-134.2,67.5-134.2c60.1,0,67.1,76.3,67.1,134.2c0,111.3-36.5,134.2-67.1,134.2
				C1281.5,1089.2,1259,1043.8,1259,955z M1287.8,955c0,39.8,4.4,106.9,38.7,106.9c24.3,0,38.3-40.5,38.3-106.9
				c0-106.2-29.1-106.9-38.3-106.9C1300.3,848.1,1287.8,884.2,1287.8,955z"/>
		</g>
		<g>
			<path class="st10" d="M53.5,1054.7c-23.2-2.2-35.4-14.7-35.4-16.6c0-7.4,8.1-18.8,13.3-18.8c4.4,0,8.5,9.2,22.1,11.4v-54.2
				C29.1,962.9,0,946.7,0,908c0-29.9,24-61.2,53.5-75.9V803c0-1.1-1.8-2.9-1.8-4.8c0-2.9,3.7-4.1,10.7-4.1s11.4,2.2,11.4,9.2v21.4
				c4.4-0.7,8.8-1.5,13.6-1.5c24.7,0,39.8,16.2,39.8,40.9c0,22.5-13.6,45-27.6,45c-6.3,0-12.5-5.2-14.4-10.7
				c-1.8-5.2,1.1-7.7,3.3-7.7c8.8,0,11.4-12.5,11.4-24.7c0-10-4.1-15.9-15.5-15.9c-3.3,0-7,0.7-10.7,1.8v105.8
				c18.8,11.4,36.9,24.7,36.9,50.1c0,21.4-16.6,39.1-36.9,45v29.5c0,4.8-2.2,6.6-7.4,6.6c-7,0-12.9-3.3-12.9-10.7V1054.7z
				 M53.5,945.6v-82.9C39.4,873.4,28,889.6,28,908C28,925.3,39.1,936,53.5,945.6z M73.7,989.5v39.1c7.7-3.7,11.1-11.1,11.1-19.5
				C84.8,1001.3,80.4,995,73.7,989.5z"/>
			<path class="st10" d="M253.6,996.9v67.5c0,6.3-4.8,8.5-10.3,8.5c-8.5,0-17.7-5.2-17.7-10.7v-66h-13.3c-17,0-43.5,1.1-56,1.1
				c-8.5,0-16.6-10.3-16.6-16.2c0-4.8,2.9-6.6,5.5-9.2c19.9-50.9,21.4-108.4,21.4-132.3c0-5.5-1.8-12.9-1.8-13.6
				c0-2.9,3.7-4.4,10-4.4c8.1,0,20.3,3.7,20.3,21.7c0,30.6-5.5,87.7-21,126.8c13.3-0.4,30.2-0.7,44.2-0.7h7.4v-143
				c0-10.7-3.7-11.4-3.7-14c0-2.6,6.6-4.1,11.8-4.1c12.2,0,19.9,7.4,19.9,16.2v145.2h9.6c5.9,0,5.9-5.2,9.2-5.2s4.1,5.9,4.1,10.7
				c0,11.4-4.1,21.7-14.4,21.7H253.6z"/>
			<path class="st10" d="M330.3,835.4c0,13.6-18.4,40.5-27.6,40.5c-6.3,0-10.7-7-10.7-11.4c0-1.8,1.1-1.8,2.6-2.6
				c2.6-0.7,8.1-7,13.3-14c-7.7-1.8-13.6-8.5-13.6-16.6c0-10,8.5-17.7,18.1-17.7S330.3,820.7,330.3,835.4z"/>
			<path class="st10" d="M446.8,980.6c-13.3,15.1-25.8,17.3-35,17.3c-39.4,0-55.7-43.9-55.7-88.5c0-96.2,48.3-101.4,57.9-101.4
				c61.2,0,63.4,96.6,63.4,129.4c0,34.3,0,139-64.1,139c-27.3,0-48.3-26.9-48.3-42c0-5.9,12.5-11.8,20.6-11.8c3.3,0,5.9,0.7,5.9,2.9
				c0,11.8,9.2,24,21.7,24C429.1,1049.6,442.3,1032.2,446.8,980.6z M448.2,922.8C446,853.8,429.4,835,414,835
				c-12.5,0-29.9,16.6-29.9,74.5c0,32.8,9.6,61.9,29.9,61.9C430.9,971.4,444.2,955.6,448.2,922.8z"/>
			<path class="st10" d="M504.3,942.3c0-33.5,0-134.2,67.5-134.2c60.1,0,67.1,76.3,67.1,134.2c0,111.3-36.5,134.2-67.1,134.2
				C526.8,1076.5,504.3,1031.1,504.3,942.3z M533,942.3c0,39.8,4.4,106.9,38.7,106.9c24.3,0,38.3-40.5,38.3-106.9
				c0-106.2-29.1-106.9-38.3-106.9C545.6,835.4,533,871.5,533,942.3z"/>
			<path class="st10" d="M664.6,942.3c0-33.5,0-134.2,67.5-134.2c60.1,0,67.1,76.3,67.1,134.2c0,111.3-36.5,134.2-67.1,134.2
				C687.1,1076.5,664.6,1031.1,664.6,942.3z M693.4,942.3c0,39.8,4.4,106.9,38.7,106.9c24.3,0,38.3-40.5,38.3-106.9
				c0-106.2-29.1-106.9-38.3-106.9C705.9,835.4,693.4,871.5,693.4,942.3z"/>
			<path class="st10" d="M882.5,1056.9c0,9.2-8.1,17.3-18.1,17.3c-9.6,0-17.7-8.1-17.7-17.3c0-10,8.1-17.7,17.7-17.7
				C874.4,1039.3,882.5,1047,882.5,1056.9z"/>
			<path class="st10" d="M924.5,942.3c0-33.5,0-134.2,67.5-134.2c60.1,0,67.1,76.3,67.1,134.2c0,111.3-36.5,134.2-67.1,134.2
				C947,1076.5,924.5,1031.1,924.5,942.3z M953.3,942.3c0,39.8,4.4,106.9,38.7,106.9c24.3,0,38.3-40.5,38.3-106.9
				c0-106.2-29.1-106.9-38.3-106.9C965.8,835.4,953.3,871.5,953.3,942.3z"/>
			<path class="st10" d="M1084.9,942.3c0-33.5,0-134.2,67.5-134.2c60.1,0,67.1,76.3,67.1,134.2c0,111.3-36.5,134.2-67.1,134.2
				C1107.3,1076.5,1084.9,1031.1,1084.9,942.3z M1113.6,942.3c0,39.8,4.4,106.9,38.7,106.9c24.3,0,38.3-40.5,38.3-106.9
				c0-106.2-29.1-106.9-38.3-106.9C1126.1,835.4,1113.6,871.5,1113.6,942.3z"/>
			<path class="st10" d="M1245.2,942.3c0-33.5,0-134.2,67.5-134.2c60.1,0,67.1,76.3,67.1,134.2c0,111.3-36.5,134.2-67.1,134.2
				C1267.7,1076.5,1245.2,1031.1,1245.2,942.3z M1274,942.3c0,39.8,4.4,106.9,38.7,106.9c24.3,0,38.3-40.5,38.3-106.9
				c0-106.2-29.1-106.9-38.3-106.9C1286.5,835.4,1274,871.5,1274,942.3z"/>
		</g>
	</g>
	<g>
		<path class="st6" d="M739.1,707.4c0-24,14.6-37.9,31.7-40.3v-35.4c0-4.5-1.6-4.9-1.6-6c0-1.1,2.8-1.7,5-1.7c5.2,0,8.5,3.1,8.5,6.9
			v84.2c0,3.4,1.6,7.2,5.3,7.2c6.3,0,9.1-10,10.5-16.9c0.6-3.3,2.2-4.7,3.8-4.7c2.5,0,5.5,3.4,5.5,6.4c0,0.2,0,0.5-0.2,1.1
			c-2.7,10.3-8.9,24.5-22.4,24.5c-5.3,0-9.6-2.5-11.9-6.1c-3.4,3.4-8,6.1-14,6.1C747.1,732.6,739.1,723.9,739.1,707.4z M770.8,716.2
			v-38.7c-10.2,1.9-19.6,9.2-19.6,28.8c0,11.3,5,16,10.5,16C765.8,722.3,768.7,719.6,770.8,716.2z"/>
		<path class="st6" d="M812,712.6c2.2,5.3,6.4,9.7,14.6,9.7c12.2,0,17.2-10.2,19.1-19.7c1.4-7.1,10.2-3.9,9.6,1.6
			c-1.1,9.6-7.4,28.5-30.4,28.5c-14.3,0-27.7-11.4-27.7-31c0-19.9,11.9-34.8,24-34.8c8.8,0,14.1,6.4,14.1,15.8
			C835.2,694.2,827.2,708,812,712.6z M810.1,704c7.8-3.6,12.9-11.8,12.9-21.2c0-3.4-1.3-5.5-3.3-5.5c-7.7,0-10,17.2-9.7,23.8
			C810,702.1,810.1,703,810.1,704z"/>
		<path class="st6" d="M935,705.4c0.6-3.3,2.2-4.7,3.8-4.7c2.5,0,5.5,3.4,5.5,6.4c0,0.2,0,0.5-0.2,1.1c-2.7,10.3-8.9,24.5-22.4,24.5
			c-5.5,0-9.7-2.7-12.1-6.4c-3.1,3.6-7.5,6.4-13.5,6.4c-12.2,0-18.7-10.3-18.7-23.7c0-26.2,18.2-42.2,37.3-42.2
			c4.2,0,7.2,2.5,7.2,6.6c0,2.7-0.5,3.6-2,3.6c-1.4,0-3-0.3-4.5-0.3c-11.9,0-25.9,10.2-25.9,32.8c0,8.2,3.4,12.9,8.9,12.9
			c4.2,0,7.1-3.8,8.8-8.1V690c0-3-0.6-3.9-0.6-5c0-1.6,1.9-2.7,4.1-2.7c5.2,0,8.5,3.1,8.5,6.9v25.9c0,3.4,1.6,7.2,5.3,7.2
			C930.8,722.3,933.6,712.3,935,705.4z"/>
		<path class="st6" d="M965.9,721.5c-3.8,6.6-8.8,11.3-15.7,11.3c-10.5,0-16.6-8.9-16.6-22.6c0-16.6,5.6-35.3,5.6-35.3
			c1.1-2.7,0-5.8,8.3-5.8c7.7,0,3.1,6.3,2.5,8.6c-2.8,11.6-4.5,18.5-4.5,31.7c0,8.5,2.7,13,7.2,13c6.3,0,11-10.2,12.9-21.2v-25.2
			c0-4.5-1.6-4.9-1.6-6c0-1.1,2.8-1.7,5-1.7c5.2,0,8.5,3.1,8.5,6.9v39.8c0,1.4,0,7.2,4.1,7.2c6.3,0,9.1-10,10.5-16.9
			c0.6-3.3,2.2-4.7,3.8-4.7c2.5,0,5.5,3.4,5.5,6.4c0,0.2,0,0.5-0.2,1.1c-2.8,10.3-8.9,24.5-22.4,24.5
			C971.7,732.6,967,727.8,965.9,721.5z"/>
		<path class="st6" d="M1063.9,732.6c-8.3,0-13.2-6.7-13.2-14.7v-31.8c0-4.9-0.3-8.9-3-8.9c-4.2,0-13.2,13.5-14.1,25.9v22.9
			c0,3,0.2,6.7-4.4,6.7c-3.1,0-7.5-1.1-7.5-6.9v-39.7c0-4.9-0.3-8.9-3-8.9c-4.2,0-13.2,13.5-14.1,25.9v22.9c0,3,0.2,6.7-4.4,6.7
			c-3.1,0-7.5-1.1-7.5-6.9v-49.7c0-3-0.6-3.9-0.6-5c0-1.6,1.9-2.7,4.1-2.7c5.2,0,8.5,3.1,8.5,6.9v6.6c4.1-8.5,9.6-15,16.6-15
			c9.4,0,12.1,7.7,12.4,14.7c3.9-8.3,9.4-14.7,16.5-14.7c10.2,0,12.5,8.6,12.5,15.8v32.4c0,1.4,0,7.2,4.1,7.2
			c6.3,0,9.1-10,10.5-16.9c0.6-3.3,2.2-4.7,3.8-4.7c2.5,0,5.5,3.4,5.5,6.4c0,0.2,0,0.5-0.2,1.1
			C1083.5,718.5,1077.4,732.6,1063.9,732.6z"/>
		<path class="st6" d="M1090.7,712.6c2.2,5.3,6.4,9.7,14.6,9.7c12.2,0,17.2-10.2,19.1-19.7c1.4-7.1,10.2-3.9,9.6,1.6
			c-1.1,9.6-7.4,28.5-30.4,28.5c-14.3,0-27.7-11.4-27.7-31c0-19.9,11.9-34.8,24-34.8c8.8,0,14.1,6.4,14.1,15.8
			C1113.9,694.2,1105.9,708,1090.7,712.6z M1088.8,704c7.8-3.6,12.9-11.8,12.9-21.2c0-3.4-1.3-5.5-3.3-5.5c-7.7,0-10,17.2-9.7,23.8
			C1088.6,702.1,1088.8,703,1088.8,704z"/>
		<path class="st6" d="M1124.4,676.1c0-3-0.6-3.9-0.6-5c0-1.6,1.9-2.7,4.1-2.7c5.2,0,8.5,3.1,8.5,6.9v7.1
			c4.2-8.8,9.9-15.5,17.6-15.5c10.5,0,13,8.6,13,15.8v32.4c0,1.4,0,7.2,4.1,7.2c6.3,0,9.1-10,10.5-16.9c0.6-3.3,2.2-4.7,3.8-4.7
			c2.5,0,5.5,3.4,5.5,6.4c0,0.2,0,0.5-0.2,1.1c-2.7,10.3-8.9,24.5-22.4,24.5c-8.3,0-13.2-6.7-13.2-14.7v-31.8c0-4.9-0.3-8.9-3.3-8.9
			c-4.5,0-14.3,13.5-15.4,25.9v22.9c0,3,0.2,6.7-4.4,6.7c-3.1,0-7.5-1.1-7.5-6.9V676.1z"/>
		<path class="st6" d="M1181,655.1v-26.5c0-4.5-1.6-4.9-1.6-6s2.8-1.7,5-1.7c5.2,0,8.5,3.1,8.5,6.9v27.4c9.6,0,20.5-0.2,31.2-0.6
			c4.4-4.7,3,10.3-1.1,10.5c-12.5,0.3-21.8,0.3-30.1,0.3v49.7c0,5,2,7.2,5.3,7.2c6.3,0,9.1-10,10.5-16.9c0.6-3.3,2.2-4.7,3.8-4.7
			c2.5,0,5.5,3.4,5.5,6.4c0,0.2,0,0.5-0.2,1.1c-2.7,10.3-8.9,24.5-22.4,24.5c-8.5,0-14.4-5-14.4-17.4v-49.8
			c-6.9,0-10.8-0.3-10.8-0.3c-5,0-7.8-10.5-3.3-10.5C1166.9,654.6,1172.5,654.9,1181,655.1z"/>
		<path class="st6" d="M1275.6,706.9c-1.9,8.5-8.3,15.5-19,15.5c-2.8,0-5.3-0.3-7.7-1.1c-3.9,6.7-9.9,11.3-18.8,11.3
			c-15.8,0-22.9-13.5-22.9-29.2c0-23,12.5-37,16-37c4.1,0,7.2,8.3,3.1,11c-2.5,3.8-7.2,9.6-7.2,25.1c0,13.2,5.2,19.7,11.3,19.7
			c4.4,0,7.2-2.4,9.2-6c-7.4-6.3-11.3-16.6-11.3-27.9c0-9.9,4.2-18.3,12.7-18.3c7.4,0,13.3,11.1,13.3,26.3c0,5.8-0.6,11.6-2.2,16.9
			c1.1,0.3,2,0.3,3.1,0.3c6.7,0,10.3-5.2,11.3-11.3C1267.3,698.8,1277.7,698.2,1275.6,706.9z M1242.7,706.2c0.3-2.5,0.5-4.9,0.5-7.2
			c0-10.7-0.5-18.5-3.8-18.5c-1.7,0-2.7,2.5-2.7,7.4C1236.8,694.9,1239.1,701.5,1242.7,706.2z"/>
	</g>
</g>
</svg>
