<?xml version="1.0" encoding="utf-8"?>
<!-- Generator: Adobe Illustrator 16.0.0, SVG Export Plug-In . SVG Version: 6.00 Build 0)  -->
<!DOCTYPE svg PUBLIC "-//W3C//DTD SVG 1.1//EN" "http://www.w3.org/Graphics/SVG/1.1/DTD/svg11.dtd">
<svg version="1.1" id="Capa_1" xmlns="http://www.w3.org/2000/svg" xmlns:xlink="http://www.w3.org/1999/xlink" x="0px" y="0px"
	 width="523.459px" height="312.982px" viewBox="0 0 523.459 312.982" enable-background="new 0 0 523.459 312.982"
	 xml:space="preserve">
<g>
	<g>
		<g>
			<path fill="#2FAC66" d="M19.07,66.154h7.385v9.101c5.294,0.321,11.263,3.051,17.907,8.19l-7.284,10.011
				c-4.418-3.283-7.959-5.193-10.623-5.728v17.681c6.441,1.855,11.221,4.674,14.34,8.456c3.119,3.782,4.679,8.134,4.679,13.058
				c0,5.28-1.627,9.74-4.881,13.379c-3.255,3.64-7.934,5.993-14.037,7.064v16.167h-7.385v-16.488
				c-4.654-0.464-8.304-1.32-10.951-2.57c-2.648-1.249-5.387-3.159-8.22-5.728l6.525-10.225c4.889,3.498,9.071,5.55,12.545,6.156
				v-16.649c-7.217-3.105-12.056-6.335-14.518-9.69c-2.462-3.354-3.692-7.441-3.692-12.259c0-4.639,1.568-9.163,4.704-13.57
				s7.638-6.933,13.506-7.575V66.154z M18.969,102.887V87.193c-1.518,0.286-2.774,1.169-3.769,2.651
				c-0.995,1.482-1.492,2.973-1.492,4.473C13.708,97.996,15.461,100.852,18.969,102.887z M26.658,120.33l-0.102,0.107v14.99
				c3.912-0.75,5.868-3.051,5.868-6.906C32.424,124.881,30.502,122.15,26.658,120.33z"/>
			<path fill="#2FAC66" d="M310.736,138.612c0-2.362,0.792-4.384,2.378-6.067c1.584-1.683,3.489-2.524,5.715-2.524
				c2.227,0,4.131,0.841,5.717,2.524c1.585,1.683,2.377,3.706,2.377,6.067c0,2.327-0.792,4.333-2.377,6.015
				c-1.586,1.682-3.49,2.524-5.717,2.524c-2.226,0-4.131-0.842-5.715-2.524C311.528,142.944,310.736,140.939,310.736,138.612z"/>
			<path fill="#2FAC66" d="M66.591,78.092h20.992v68.202H73.419V90.512h-9.307L66.591,78.092z"/>
			<polygon fill="#FFFFFF" points="74.738,73.586 74.337,75.6 90.842,75.6 90.842,141.789 93.76,141.789 93.76,73.586 			"/>
			<path fill="#2FAC66" d="M133.879,77.985h51.09l-41.136,70.443l-11.471-7.648l29.297-50.375h-27.78V77.985z"/>
			<polygon fill="#FFFFFF" points="141.26,74.054 141.26,75.876 188.791,75.876 149.418,143.3 151.214,144.498 192.35,74.054 			"/>
			<path fill="#2FAC66" d="M103,93.242l7.082-16.007h15.833l-13.86,16.007H103z"/>
			<polygon fill="#FFFFFF" points="117.463,73.688 116.868,75.62 129.628,75.62 117.379,89.695 119.436,89.695 133.296,73.688 			
				"/>
			<path fill="#2FAC66" d="M229.05,110.292c6.305,4.322,9.459,10.001,9.459,17.037c0,5.893-1.99,10.67-5.969,14.33
				c-3.979,3.661-9.173,5.492-15.58,5.492c-6.542,0-11.836-1.812-15.883-5.437c-4.047-3.625-6.07-8.349-6.07-14.171
				c0-7.178,3.169-12.893,9.509-17.144c-2.698-2.46-4.671-4.867-5.918-7.221c-1.248-2.354-1.872-5.045-1.872-8.077
				c0-4.921,1.745-9.183,5.235-12.785c3.49-3.602,8.388-5.403,14.695-5.403c6.137,0,11.035,1.623,14.694,4.868
				c3.659,3.246,5.488,7.56,5.488,12.944C236.839,100.968,234.242,106.156,229.05,110.292z M224.8,125.255
				c0-2.391-0.792-4.434-2.377-6.13c-1.585-1.694-3.507-2.542-5.766-2.542c-2.159,0-4.014,0.883-5.564,2.65
				c-1.551,1.767-2.327,3.881-2.327,6.344c0,2.248,0.8,4.256,2.402,6.022c1.602,1.767,3.431,2.65,5.489,2.65
				c2.259,0,4.181-0.874,5.766-2.623C224.008,129.877,224.8,127.754,224.8,125.255z M223.688,97.043c0-2.212-0.649-4.06-1.947-5.541
				c-1.299-1.481-2.926-2.222-4.881-2.222c-1.922,0-3.524,0.688-4.806,2.061c-1.282,1.374-1.922,3.061-1.922,5.059
				c0,2.07,0.64,3.811,1.922,5.22c1.281,1.41,2.883,2.115,4.806,2.115c1.753,0,3.33-0.687,4.729-2.061
				C222.987,100.3,223.688,98.756,223.688,97.043z"/>
			<path fill="#FFFFFF" d="M212.772,120.179c-1.278,1.455-1.898,3.157-1.898,5.206c0,1.822,0.64,3.413,1.956,4.864
				c1.271,1.402,2.648,2.083,4.21,2.083c1.696,0,3.117-0.623,4.338-1.898c-1.305-0.383-2.503-1.176-3.596-2.382
				c-1.602-1.767-2.403-3.774-2.403-6.022c0-1.39,0.248-2.67,0.743-3.838C214.861,118.4,213.758,119.056,212.772,120.179z"/>
			<path fill="#FFFFFF" d="M213.698,92.327c-0.981,1.052-1.458,2.322-1.458,3.882c0,1.641,0.482,2.969,1.473,4.059
				c0.948,1.043,2.103,1.55,3.529,1.55c1.295,0,2.447-0.513,3.521-1.567c0.151-0.149,0.291-0.299,0.42-0.451
				c-0.944-0.345-1.783-0.92-2.516-1.727c-1.282-1.41-1.922-3.149-1.922-5.22c0-0.719,0.084-1.396,0.25-2.034
				C215.673,90.874,214.593,91.368,213.698,92.327z"/>
			<path fill="#FFFFFF" d="M236.047,106.554c5.192-4.136,7.79-9.325,7.79-15.565c0-5.385-1.83-9.699-5.488-12.945
				c-3.659-3.245-8.557-4.868-14.694-4.868c-3.634,0-6.798,0.602-9.497,1.798c1.049-0.111,2.138-0.167,3.266-0.167
				c6.543,0,11.872,1.784,15.839,5.303c4.027,3.572,6.069,8.361,6.069,14.235c0,6.049-2.272,11.24-6.759,15.461
				c5.595,4.477,8.428,10.233,8.428,17.141c0,5.102-1.411,9.485-4.199,13.076c0.967-0.618,1.881-1.314,2.736-2.101
				c3.979-3.66,5.969-8.437,5.969-14.33C245.506,116.555,242.353,110.876,236.047,106.554z"/>
			<path fill="#2FAC66" d="M274.951,77.021c7.655,0,13.759,3.105,18.312,9.314c4.553,6.21,6.829,14.508,6.829,24.894
				c0,12.135-2.529,21.138-7.588,27.008c-5.059,5.871-10.909,8.807-17.553,8.807c-7.587,0-13.733-3.132-18.438-9.396
				c-4.705-6.264-7.057-14.499-7.057-24.706c0-10.849,2.302-19.548,6.905-26.098c4.603-6.549,10.665-9.823,18.185-9.823H274.951z
				 M286.535,112.514c0-6.923-1.046-12.366-3.137-16.328c-2.091-3.962-4.906-5.942-8.447-5.942c-3.71,0-6.626,1.98-8.751,5.942
				c-2.125,3.961-3.187,9.476-3.187,16.542c0,6.424,1.079,11.563,3.237,15.417c2.158,3.854,4.99,5.782,8.498,5.782
				c3.574,0,6.432-1.927,8.574-5.782C285.464,124.292,286.535,119.081,286.535,112.514z"/>
			<g>
				<path fill="#FFFFFF" d="M272.801,92.177c-2.078,0.621-3.781,2.199-5.165,4.78c-1.986,3.704-2.993,9.01-2.993,15.772
					c0,6.112,1.019,11.032,3.029,14.622c1.864,3.33,4.179,4.948,7.077,4.948c1.814,0,3.395-0.61,4.771-1.845
					c-2.842-0.471-5.188-2.358-7.039-5.663c-2.158-3.854-3.237-8.994-3.237-15.418c0-7.066,1.063-12.581,3.187-16.542
					C272.552,92.606,272.675,92.389,272.801,92.177z"/>
				<path fill="#FFFFFF" d="M299.493,82.98c-4.553-6.209-10.656-9.314-18.311-9.314h-0.405c-3.286,0-6.294,0.625-9.023,1.876
					c0.91-0.099,1.841-0.15,2.793-0.15h0.404c8.167,0,14.771,3.358,19.626,9.98c4.74,6.466,7.144,15.166,7.144,25.857
					c0,12.48-2.686,21.924-7.982,28.071c-0.186,0.216-0.373,0.427-0.562,0.635c1.948-1.331,3.801-3.015,5.558-5.054
					c5.059-5.87,7.588-14.873,7.588-27.008C306.322,97.488,304.046,89.191,299.493,82.98z"/>
			</g>
			<path fill="#2FAC66" d="M367.549,77.021c7.654,0,13.759,3.105,18.312,9.314c4.552,6.21,6.828,14.508,6.828,24.894
				c0,12.135-2.529,21.138-7.587,27.008c-5.059,5.871-10.91,8.807-17.553,8.807c-7.588,0-13.733-3.132-18.438-9.396
				c-4.705-6.264-7.057-14.499-7.057-24.706c0-10.849,2.302-19.548,6.904-26.098c4.604-6.549,10.665-9.823,18.185-9.823H367.549z
				 M379.133,112.514c0-6.923-1.046-12.366-3.137-16.328c-2.092-3.962-4.906-5.942-8.447-5.942c-3.71,0-6.627,1.98-8.751,5.942
				c-2.125,3.961-3.187,9.476-3.187,16.542c0,6.424,1.078,11.563,3.237,15.417c2.157,3.854,4.99,5.782,8.498,5.782
				c3.574,0,6.432-1.927,8.573-5.782S379.133,119.081,379.133,112.514z"/>
			<g>
				<path fill="#FFFFFF" d="M365.397,92.177c-2.078,0.621-3.78,2.199-5.164,4.78c-1.986,3.704-2.993,9.01-2.993,15.772
					c0,6.112,1.02,11.032,3.029,14.622c1.864,3.33,4.179,4.948,7.077,4.948c1.814,0,3.394-0.61,4.771-1.845
					c-2.843-0.471-5.189-2.358-7.039-5.663c-2.158-3.854-3.237-8.994-3.237-15.418c0-7.066,1.063-12.581,3.187-16.542
					C365.149,92.606,365.272,92.389,365.397,92.177z"/>
				<path fill="#FFFFFF" d="M392.091,82.98c-4.553-6.209-10.656-9.314-18.312-9.314h-0.404c-3.286,0-6.294,0.625-9.023,1.876
					c0.91-0.099,1.841-0.15,2.792-0.15h0.405c8.167,0,14.771,3.358,19.625,9.98c4.741,6.466,7.145,15.166,7.145,25.857
					c0,12.48-2.686,21.924-7.982,28.071c-0.187,0.216-0.373,0.427-0.562,0.635c1.948-1.331,3.801-3.015,5.558-5.054
					c5.059-5.87,7.588-14.873,7.588-27.008C398.92,97.488,396.644,89.191,392.091,82.98z"/>
			</g>
			<path fill="#2FAC66" d="M430.239,77.021c7.654,0,13.759,3.105,18.311,9.314c4.553,6.21,6.829,14.508,6.829,24.894
				c0,12.135-2.529,21.138-7.587,27.008c-5.059,5.871-10.91,8.807-17.553,8.807c-7.588,0-13.734-3.132-18.438-9.396
				s-7.056-14.499-7.056-24.706c0-10.849,2.301-19.548,6.904-26.098c4.604-6.549,10.664-9.823,18.185-9.823H430.239z
				 M441.822,112.514c0-6.923-1.045-12.366-3.136-16.328c-2.092-3.962-4.906-5.942-8.447-5.942c-3.71,0-6.627,1.98-8.751,5.942
				c-2.125,3.961-3.188,9.476-3.188,16.542c0,6.424,1.079,11.563,3.237,15.417s4.991,5.782,8.499,5.782
				c3.573,0,6.432-1.927,8.573-5.782S441.822,119.081,441.822,112.514z"/>
			<g>
				<path fill="#FFFFFF" d="M428.088,92.177c-2.078,0.621-3.78,2.199-5.164,4.78c-1.986,3.704-2.993,9.01-2.993,15.772
					c0,6.112,1.02,11.032,3.029,14.622c1.864,3.33,4.179,4.948,7.077,4.948c1.814,0,3.394-0.61,4.771-1.845
					c-2.843-0.471-5.189-2.358-7.039-5.663c-2.159-3.854-3.237-8.994-3.237-15.418c0-7.066,1.062-12.581,3.187-16.542
					C427.839,92.606,427.963,92.389,428.088,92.177z"/>
				<path fill="#FFFFFF" d="M454.781,82.98c-4.553-6.209-10.657-9.314-18.312-9.314h-0.404c-3.287,0-6.294,0.625-9.023,1.876
					c0.91-0.099,1.841-0.15,2.792-0.15h0.405c8.167,0,14.77,3.358,19.625,9.98c4.74,6.466,7.145,15.166,7.145,25.857
					c0,12.48-2.686,21.924-7.982,28.071c-0.187,0.216-0.373,0.427-0.562,0.635c1.948-1.331,3.801-3.015,5.558-5.054
					c5.059-5.87,7.588-14.873,7.588-27.008C461.61,97.488,459.334,89.191,454.781,82.98z"/>
			</g>
			<path fill="#2FAC66" d="M491.971,77.021c7.654,0,13.759,3.105,18.312,9.314c4.553,6.21,6.828,14.508,6.828,24.894
				c0,12.135-2.528,21.138-7.587,27.008c-5.059,5.871-10.91,8.807-17.553,8.807c-7.588,0-13.733-3.132-18.438-9.396
				c-4.705-6.264-7.057-14.499-7.057-24.706c0-10.849,2.302-19.548,6.904-26.098c4.604-6.549,10.665-9.823,18.185-9.823H491.971z
				 M503.555,112.514c0-6.923-1.046-12.366-3.137-16.328c-2.091-3.962-4.906-5.942-8.447-5.942c-3.71,0-6.627,1.98-8.751,5.942
				c-2.125,3.961-3.187,9.476-3.187,16.542c0,6.424,1.078,11.563,3.237,15.417c2.157,3.854,4.99,5.782,8.498,5.782
				c3.574,0,6.432-1.927,8.574-5.782C502.483,124.292,503.555,119.081,503.555,112.514z"/>
			<g>
				<path fill="#FFFFFF" d="M489.82,92.177c-2.079,0.621-3.781,2.199-5.165,4.78c-1.986,3.704-2.993,9.01-2.993,15.772
					c0,6.112,1.02,11.032,3.03,14.622c1.863,3.33,4.178,4.948,7.076,4.948c1.814,0,3.395-0.61,4.771-1.845
					c-2.842-0.471-5.189-2.358-7.039-5.663c-2.158-3.854-3.237-8.994-3.237-15.418c0-7.066,1.063-12.581,3.187-16.542
					C489.571,92.606,489.694,92.389,489.82,92.177z"/>
				<path fill="#FFFFFF" d="M516.513,82.98c-4.553-6.209-10.656-9.314-18.312-9.314h-0.404c-3.286,0-6.294,0.625-9.023,1.876
					c0.91-0.099,1.841-0.15,2.792-0.15h0.405c8.167,0,14.771,3.358,19.625,9.98c4.741,6.466,7.145,15.166,7.145,25.857
					c0,12.48-2.686,21.924-7.982,28.071c-0.187,0.216-0.373,0.427-0.562,0.635c1.948-1.331,3.801-3.015,5.558-5.054
					c5.059-5.87,7.588-14.873,7.588-27.008C523.342,97.488,521.065,89.191,516.513,82.98z"/>
			</g>
			<path fill="#FFFFFF" d="M330.776,129.189c-1.585-1.683-3.49-2.524-5.716-2.524c-1.883,0-3.535,0.604-4.96,1.809
				c2.149,0.276,4.04,1.264,5.631,2.953c1.872,1.988,2.821,4.405,2.821,7.185c0,1.763-0.394,3.382-1.169,4.842
				c1.259-0.391,2.39-1.118,3.393-2.182c1.585-1.683,2.378-3.688,2.378-6.015C333.154,132.895,332.361,130.872,330.776,129.189z"/>
			<path fill="#FFFFFF" d="M10.57,128.592c2.3,1.456,4.408,2.532,6.296,3.209v-3.939c-1.31-0.776-2.678-1.672-4.109-2.696
				L10.57,128.592z"/>
			<path fill="#FFFFFF" d="M28.66,63.949v9.337c5.184,0.841,10.916,3.669,17.051,8.415l1.693,1.31l-4.789,6.582
				c0.229,0.166,0.459,0.334,0.693,0.508l7.284-10.011c-6.644-5.139-12.612-7.87-17.906-8.19v-9.101h-7.385v1.151H28.66z"/>
			<path fill="#FFFFFF" d="M15.913,94.317c0,1.317,0.28,2.479,0.852,3.507v-6.33C16.192,92.461,15.913,93.389,15.913,94.317z"/>
			<path fill="#FFFFFF" d="M47.027,110.509c-3.12-3.781-7.9-6.601-14.34-8.456v-8.98c-1.484-0.967-2.83-1.728-4.026-2.274v12.98
				c6.061,1.977,10.713,4.896,13.836,8.683c3.439,4.17,5.183,9.035,5.183,14.46c0,4.78-1.24,9.005-3.687,12.601
				c1.04-0.773,1.985-1.63,2.832-2.578c3.254-3.638,4.881-8.099,4.881-13.379C51.706,118.643,50.146,114.291,47.027,110.509z"/>
			<path fill="#FFFFFF" d="M28.761,124.492v7.702c1-0.788,1.458-1.967,1.458-3.672C30.22,126.94,29.74,125.609,28.761,124.492z"/>
		</g>
		<path fill="#C1C1C1" d="M28.761,149.17v11.006h4.026v-12.188C31.519,148.455,30.176,148.85,28.761,149.17z"/>
	</g>
	<text transform="matrix(1 0 0 1 325.252 239.3008)" fill="#FFFFFF" font-family="'ProximaNovaSExCn-Regular'" font-size="24.9006">de parpados superiores</text>
	<g>
		<g>
			<path fill="#FFFFFF" d="M217.925,15.953c19.463-8.232,40.133-12.406,61.438-12.406c21.304,0,41.975,4.174,61.438,12.406
				c18.795,7.95,35.673,19.329,50.165,33.821c0.146,0.146,0.292,0.295,0.438,0.442h6.392c-1.464-1.589-2.962-3.154-4.498-4.69
				c-14.272-14.272-30.895-25.479-49.404-33.308C324.725,4.11,304.368,0,283.388,0c-20.981,0-41.337,4.11-60.504,12.217
				c-12.299,5.202-23.763,11.897-34.26,19.99C197.754,25.78,207.546,20.342,217.925,15.953z"/>
		</g>
		<g>
			<path fill="#2FAC66" d="M182.277,56.158c25.542-23.586,59.66-38.016,97.085-38.016s71.543,14.43,97.085,38.016h17.321
				c-1.464-1.589-2.962-3.154-4.498-4.69c-14.272-14.272-30.895-25.479-49.404-33.308c-19.167-8.107-39.523-12.217-60.504-12.217
				c-20.981,0-41.337,4.11-60.504,12.217c-18.51,7.829-35.132,19.036-49.405,33.308c-1.536,1.536-3.034,3.101-4.498,4.69H182.277z"
				/>
		</g>
	</g>
	<g>
		<path fill="#2FAC66" d="M378.461,262.767c-25.543,23.587-59.66,38.017-97.086,38.017c-37.425,0-71.543-14.43-97.085-38.017
			h-17.321c1.464,1.59,2.962,3.154,4.498,4.69c14.273,14.272,30.895,25.479,49.405,33.309c19.167,8.106,39.523,12.217,60.504,12.217
			c20.98,0,41.337-4.11,60.504-12.217c18.51-7.829,35.132-19.036,49.404-33.309c1.536-1.536,3.034-3.101,4.498-4.69H378.461z"/>
	</g>
	<g>
		<path fill="#FFFFFF" d="M396.06,261.138c1.207-1.229,2.393-2.476,3.556-3.738h-17.321c-1.379,1.273-2.784,2.519-4.213,3.738
			H396.06z"/>
		<path fill="#FFFFFF" d="M184.927,261.138l0.468,0.433c26.246,24.235,60.333,37.583,95.98,37.583
			c34.584,0,67.698-12.563,93.609-35.444c-24.577,19.824-55.814,31.706-89.775,31.706c-37.426,0-71.543-14.43-97.086-38.016h-17.321
			c1.163,1.263,2.349,2.509,3.556,3.738H184.927z"/>
	</g>
	<g>
		<path fill="#9E9E9E" d="M97.036,181.799c2.733,0.684,4.979,2.213,6.704,4.524c1.79,2.343,2.701,5.012,2.701,8.006
			c0,3.548-1.204,6.606-3.645,9.146c-2.441,2.506-5.337,3.742-8.755,3.742H73.863v-6.899h2.474v-32.969h-2.474v-6.932h17.64v0.098
			c3.027,0.228,5.565,1.432,7.648,3.645c2.115,2.246,3.157,4.882,3.157,7.909c0,1.984-0.488,3.872-1.464,5.598
			C99.9,179.358,98.63,180.726,97.036,181.799z M95.018,173.598c0-1.725-0.586-3.222-1.757-4.426
			c-1.172-1.205-2.604-1.823-4.264-1.823h-5.012v12.465h5.012c1.66,0,3.092-0.618,4.264-1.822
			C94.432,176.787,95.018,175.322,95.018,173.598z M83.985,200.317h8.527c1.595-0.293,2.896-1.041,3.938-2.278
			c1.074-1.269,1.595-2.701,1.595-4.36c0-1.855-0.651-3.45-1.953-4.784c-1.301-1.335-2.864-1.986-4.687-1.986h-7.42V200.317z"/>
		<path fill="#9E9E9E" d="M111.825,161.653h11.586v38.989h4.101v6.542h-15.687v-6.542h4.101v-32.415h-4.101V161.653z"/>
		<path fill="#9E9E9E" d="M149.949,201.262c2.669,0,5.045-0.814,7.095-2.409h9.569c-1.595,2.962-3.873,5.338-6.802,7.128
			c-3.026,1.79-6.314,2.701-9.861,2.701c-5.175,0-9.601-1.758-13.278-5.338c-3.678-3.547-5.5-7.843-5.5-12.888
			c0-5.044,1.823-9.34,5.5-12.888c3.678-3.58,8.104-5.37,13.278-5.37c3.775,0,7.225,1.009,10.382,3.06
			c3.059,1.985,5.37,4.589,6.802,7.843c0.944,2.181,1.465,4.654,1.627,7.355l-29.259,4.198c0.879,1.985,2.246,3.58,4.101,4.784
			C145.523,200.643,147.639,201.262,149.949,201.262z M149.949,179.651c-2.506,0-4.751,0.716-6.737,2.115
			c-1.953,1.399-3.287,3.189-4.036,5.37l20.016-2.896c-1.042-1.399-2.376-2.539-3.971-3.353
			C153.562,180.074,151.804,179.651,149.949,179.651z"/>
		<path fill="#9E9E9E" d="M187.422,168.064c-1.79,0.261-2.864,0.456-3.189,0.618c-0.846,0.392-1.27,1.205-1.27,2.474v0.944h4.426
			v6.411h-4.426v22.131h2.539v6.444H173.2v-6.444h2.539v-22.131h-2.506v-6.411h2.506v-0.488c0-3.157,1.139-5.663,3.417-7.551
			c2.148-1.79,4.915-2.701,8.267-2.799V168.064z"/>
		<path fill="#9E9E9E" d="M230.201,180.009h-2.539v20.731h2.539v6.379h-9.796v-2.733c-3.254,2.506-6.933,3.71-11.065,3.71
			c-4.979,0-9.243-1.692-12.791-5.175s-5.305-7.681-5.305-12.595s1.758-9.113,5.305-12.596c3.547-3.481,7.811-5.207,12.791-5.207
			c4.133,0,7.811,1.237,11.065,3.743v-2.702h9.796V180.009z M209.339,200.871c3.027,0,5.598-1.042,7.746-3.092
			c2.116-2.051,3.189-4.557,3.189-7.453s-1.074-5.402-3.189-7.453c-2.148-2.051-4.719-3.092-7.746-3.092s-5.598,1.041-7.713,3.092
			c-2.148,2.051-3.222,4.557-3.222,7.453s1.074,5.402,3.222,7.453C203.742,199.829,206.313,200.871,209.339,200.871z"/>
		<path fill="#9E9E9E" d="M246.975,173.695v4.816c1.139-1.725,2.571-3.124,4.231-4.165c1.725-1.042,3.45-1.563,5.174-1.53
			c1.855,0.032,3.515,0.684,4.947,1.985c1.595,1.465,2.799,3.58,3.612,6.411c-2.213,0.749-4.524,1.595-6.964,2.507
			c-0.716-2.019-1.692-3.255-2.929-3.678c-1.074-0.391-2.213-0.195-3.482,0.618c-1.106,0.716-2.116,1.757-2.994,3.092
			c-0.846,1.302-1.367,2.506-1.497,3.646l-0.098,0.78v12.921l2.571-0.098v6.086h-12.335v-6.086h2.539v-20.992h-3.84v-6.313h3.84
			H246.975z"/>
		<path fill="#9E9E9E" d="M268.436,190.326c0-5.012,1.823-9.275,5.468-12.823c3.646-3.547,8.039-5.337,13.214-5.337
			c5.142,0,9.535,1.79,13.181,5.337c3.646,3.548,5.468,7.812,5.468,12.823s-1.822,9.275-5.468,12.823
			c-3.646,3.547-8.039,5.305-13.181,5.305c-5.175,0-9.568-1.758-13.214-5.305C270.258,199.602,268.436,195.338,268.436,190.326z
			 M275.823,190.326c0,2.962,1.106,5.5,3.32,7.615c2.181,2.083,4.849,3.125,7.974,3.125c3.092,0,5.761-1.042,7.94-3.125
			c2.214-2.115,3.32-4.653,3.32-7.615s-1.106-5.5-3.32-7.615c-2.18-2.116-4.849-3.157-7.94-3.157c-3.125,0-5.793,1.041-7.974,3.157
			C276.93,184.826,275.823,187.364,275.823,190.326z"/>
		<path fill="#9E9E9E" d="M348.674,190.294c0,4.849-1.758,8.982-5.305,12.432c-3.516,3.418-7.779,5.11-12.759,5.11
			c-4.101,0-7.777-1.204-11.065-3.646v13.571h-9.764v-6.347h2.571v-31.406h-2.571v-6.313h9.764v2.701
			c3.288-2.44,6.965-3.678,11.065-3.678c4.979,0,9.243,1.725,12.759,5.143C346.916,181.311,348.674,185.444,348.674,190.294z
			 M341.514,190.294c0-2.864-1.074-5.306-3.189-7.355c-2.115-2.051-4.687-3.06-7.714-3.06c-3.026,0-5.598,1.009-7.713,3.06
			c-2.115,2.05-3.189,4.491-3.189,7.355c0,2.863,1.074,5.305,3.189,7.354c2.115,2.051,4.687,3.06,7.713,3.06
			c3.027,0,5.599-1.009,7.714-3.06C340.439,195.599,341.514,193.157,341.514,190.294z"/>
		<path fill="#9E9E9E" d="M352.755,161.653h11.586v38.989h4.101v6.542h-15.687v-6.542h4.101v-32.415h-4.101V161.653z"/>
		<path fill="#9E9E9E" d="M411.514,180.009h-2.539v20.731h2.539v6.379h-9.797v-2.733c-3.254,2.506-6.932,3.71-11.065,3.71
			c-4.979,0-9.242-1.692-12.79-5.175s-5.306-7.681-5.306-12.595s1.758-9.113,5.306-12.596c3.548-3.481,7.811-5.207,12.79-5.207
			c4.134,0,7.812,1.237,11.065,3.743v-2.702h9.797V180.009z M390.651,200.871c3.027,0,5.598-1.042,7.746-3.092
			c2.115-2.051,3.189-4.557,3.189-7.453s-1.074-5.402-3.189-7.453c-2.148-2.051-4.719-3.092-7.746-3.092
			c-3.026,0-5.598,1.041-7.713,3.092c-2.148,2.051-3.222,4.557-3.222,7.453s1.073,5.402,3.222,7.453
			C385.054,199.829,387.625,200.871,390.651,200.871z"/>
		<path fill="#9E9E9E" d="M440.231,197.616c0.261,2.896-0.521,5.337-2.311,7.29c-2.051,2.213-5.109,3.32-9.211,3.32
			c-2.115,0-5.663-0.977-10.772-2.507l-0.423-0.13v-7.258h6.021v2.506c1.628,0.684,3.287,1.01,4.979,1.01
			c1.79,0,3.06-0.424,3.873-1.303c0.586-0.65,0.847-1.496,0.749-2.506c-0.098-1.041-0.488-1.888-1.172-2.571
			c-0.813-0.813-2.213-1.562-4.231-2.278c-6.313-2.245-9.698-5.695-10.121-10.316c-0.228-2.701,0.456-4.947,2.148-6.802
			c1.984-2.181,4.881-3.287,8.624-3.287c1.855,0,3.58,0.261,5.175,0.684l0.879,0.228c2.669,0.684,4.23,1.236,4.654,1.465
			l0.293,0.162v7.16h-6.021v-2.376c-1.399-0.65-2.962-0.976-4.654-0.976c-1.563,0-2.668,0.39-3.352,1.139
			c-0.521,0.553-0.749,1.204-0.651,2.018c0.098,1.009,0.488,1.79,1.172,2.408c0.813,0.717,2.311,1.497,4.557,2.344
			c3.189,1.204,5.565,2.636,7.127,4.296C439.093,192.995,440.004,195.11,440.231,197.616z"/>
		<path fill="#9E9E9E" d="M456.452,178.316v18.877c0,1.269,0.424,2.083,1.303,2.474c0.357,0.162,1.432,0.357,3.287,0.585v6.835
			c-3.45-0.098-6.281-1.009-8.462-2.799c-2.312-1.888-3.482-4.394-3.482-7.551v-18.421h-3.938v-6.443h3.938v-10.675h7.354v10.675
			h4.524v6.443H456.452z"/>
		<path fill="#9E9E9E" d="M465.188,173.761h11.229v26.915h3.971v6.347h-15.199v-6.347h3.971v-20.569h-3.971V173.761z
			 M472.283,171.124c-1.204,0-2.181-0.455-3.026-1.367c-0.813-0.878-1.27-1.952-1.27-3.222s0.423-2.376,1.27-3.254
			c0.813-0.879,1.822-1.335,3.026-1.335s2.213,0.456,3.06,1.335c0.813,0.878,1.236,1.984,1.236,3.254s-0.423,2.344-1.236,3.222
			C474.496,170.669,473.487,171.124,472.283,171.124z"/>
		<path fill="#9E9E9E" d="M523.459,180.009h-2.538v20.731h2.538v6.379h-9.796v-2.733c-3.255,2.506-6.933,3.71-11.066,3.71
			c-4.979,0-9.242-1.692-12.79-5.175c-3.547-3.482-5.305-7.681-5.305-12.595s1.758-9.113,5.305-12.596
			c3.548-3.481,7.811-5.207,12.79-5.207c4.134,0,7.812,1.237,11.066,3.743v-2.702h9.796V180.009z M502.597,200.871
			c3.027,0,5.598-1.042,7.746-3.092c2.115-2.051,3.189-4.557,3.189-7.453s-1.074-5.402-3.189-7.453
			c-2.148-2.051-4.719-3.092-7.746-3.092c-3.026,0-5.598,1.041-7.713,3.092c-2.148,2.051-3.222,4.557-3.222,7.453
			s1.073,5.402,3.222,7.453C496.999,199.829,499.57,200.871,502.597,200.871z"/>
	</g>
	<g>
		<path fill="#FFFFFF" d="M94.75,183.922c2.734,0.684,4.979,2.213,6.704,4.523c1.79,2.344,2.701,5.012,2.701,8.007
			c0,3.547-1.204,6.606-3.645,9.145c-2.441,2.507-5.337,3.743-8.754,3.743H71.577v-6.899h2.474v-32.969h-2.474v-6.933h17.64v0.098
			c3.027,0.228,5.565,1.432,7.648,3.646c2.115,2.245,3.157,4.882,3.157,7.908c0,1.985-0.488,3.873-1.464,5.598
			C97.614,181.48,96.345,182.848,94.75,183.922z M92.732,175.72c0-1.725-0.586-3.222-1.757-4.426
			c-1.172-1.204-2.604-1.822-4.264-1.822h-5.012v12.465h5.012c1.66,0,3.092-0.618,4.264-1.823
			C92.146,178.91,92.732,177.445,92.732,175.72z M81.699,202.44h8.527c1.595-0.293,2.896-1.042,3.938-2.278
			c1.074-1.27,1.595-2.701,1.595-4.361c0-1.854-0.651-3.45-1.953-4.784c-1.302-1.334-2.864-1.985-4.686-1.985h-7.42V202.44z"/>
		<path fill="#FFFFFF" d="M109.539,163.776h11.586v38.989h4.101v6.542h-15.687v-6.542h4.101v-32.415h-4.101V163.776z"/>
		<path fill="#FFFFFF" d="M147.663,203.384c2.669,0,5.044-0.813,7.095-2.408h9.568c-1.595,2.962-3.873,5.338-6.802,7.128
			c-3.027,1.789-6.314,2.701-9.861,2.701c-5.175,0-9.601-1.758-13.278-5.338c-3.678-3.547-5.5-7.844-5.5-12.888
			c0-5.045,1.823-9.341,5.5-12.889c3.677-3.579,8.104-5.37,13.278-5.37c3.775,0,7.225,1.01,10.382,3.06
			c3.059,1.985,5.37,4.589,6.802,7.844c0.944,2.181,1.465,4.654,1.627,7.355l-29.259,4.198c0.879,1.985,2.246,3.58,4.101,4.784
			C143.237,202.766,145.353,203.384,147.663,203.384z M147.663,181.773c-2.506,0-4.751,0.716-6.737,2.115
			c-1.953,1.4-3.287,3.19-4.036,5.37l20.016-2.896c-1.042-1.399-2.376-2.538-3.971-3.352
			C151.276,182.196,149.518,181.773,147.663,181.773z"/>
		<path fill="#FFFFFF" d="M185.136,170.188c-1.79,0.261-2.864,0.455-3.189,0.618c-0.846,0.391-1.27,1.204-1.27,2.474v0.943h4.426
			v6.412h-4.426v22.131h2.539v6.444h-12.302v-6.444h2.539v-22.131h-2.506v-6.412h2.506v-0.487c0-3.157,1.139-5.663,3.417-7.551
			c2.148-1.79,4.914-2.701,8.267-2.799V170.188z"/>
		<path fill="#FFFFFF" d="M227.915,182.132h-2.539v20.731h2.539v6.379h-9.796v-2.733c-3.254,2.506-6.932,3.71-11.065,3.71
			c-4.979,0-9.243-1.692-12.791-5.175s-5.305-7.681-5.305-12.596c0-4.914,1.758-9.112,5.305-12.595s7.811-5.207,12.791-5.207
			c4.133,0,7.811,1.236,11.065,3.742v-2.701h9.796V182.132z M207.053,202.993c3.027,0,5.598-1.041,7.746-3.092
			c2.116-2.05,3.189-4.557,3.189-7.453c0-2.896-1.074-5.402-3.189-7.452c-2.148-2.051-4.719-3.092-7.746-3.092
			s-5.598,1.041-7.713,3.092c-2.148,2.05-3.222,4.557-3.222,7.452c0,2.896,1.074,5.403,3.222,7.453
			C201.455,201.952,204.026,202.993,207.053,202.993z"/>
		<path fill="#FFFFFF" d="M244.689,175.818v4.816c1.139-1.725,2.571-3.125,4.231-4.166c1.725-1.042,3.45-1.562,5.174-1.529
			c1.855,0.032,3.515,0.684,4.947,1.985c1.595,1.464,2.799,3.58,3.612,6.411c-2.213,0.749-4.523,1.595-6.965,2.506
			c-0.716-2.018-1.692-3.254-2.929-3.678c-1.074-0.391-2.213-0.195-3.482,0.618c-1.106,0.717-2.116,1.758-2.994,3.093
			c-0.846,1.302-1.367,2.506-1.497,3.645l-0.098,0.781v12.921l2.571-0.098v6.086h-12.335v-6.086h2.539v-20.992h-3.841v-6.313h3.841
			H244.689z"/>
		<path fill="#FFFFFF" d="M266.15,192.448c0-5.012,1.822-9.275,5.467-12.822c3.646-3.548,8.039-5.338,13.214-5.338
			c5.142,0,9.535,1.79,13.181,5.338c3.646,3.547,5.468,7.811,5.468,12.822c0,5.013-1.822,9.275-5.468,12.823
			s-8.039,5.305-13.181,5.305c-5.175,0-9.568-1.757-13.214-5.305C267.972,201.724,266.15,197.461,266.15,192.448z M273.537,192.448
			c0,2.962,1.107,5.501,3.32,7.616c2.181,2.083,4.849,3.124,7.974,3.124c3.092,0,5.761-1.041,7.94-3.124
			c2.214-2.115,3.32-4.654,3.32-7.616c0-2.961-1.106-5.5-3.32-7.615c-2.18-2.115-4.849-3.157-7.94-3.157
			c-3.125,0-5.793,1.042-7.974,3.157C274.645,186.948,273.537,189.487,273.537,192.448z"/>
		<path fill="#FFFFFF" d="M346.388,192.416c0,4.85-1.758,8.982-5.305,12.433c-3.516,3.417-7.779,5.109-12.758,5.109
			c-4.102,0-7.778-1.204-11.066-3.645v13.571h-9.764v-6.347h2.571v-31.406h-2.571v-6.313h9.764v2.7
			c3.288-2.44,6.965-3.677,11.066-3.677c4.979,0,9.242,1.725,12.758,5.142C344.63,183.434,346.388,187.566,346.388,192.416z
			 M339.228,192.416c0-2.863-1.074-5.305-3.189-7.355c-2.115-2.05-4.687-3.059-7.713-3.059c-3.027,0-5.599,1.009-7.714,3.059
			c-2.115,2.051-3.189,4.492-3.189,7.355c0,2.864,1.074,5.305,3.189,7.355c2.115,2.05,4.687,3.06,7.714,3.06
			c3.026,0,5.598-1.01,7.713-3.06C338.153,197.721,339.228,195.28,339.228,192.416z"/>
		<path fill="#FFFFFF" d="M350.469,163.776h11.586v38.989h4.101v6.542h-15.687v-6.542h4.101v-32.415h-4.101V163.776z"/>
		<path fill="#FFFFFF" d="M409.228,182.132h-2.539v20.731h2.539v6.379h-9.797v-2.733c-3.254,2.506-6.932,3.71-11.065,3.71
			c-4.979,0-9.242-1.692-12.79-5.175s-5.305-7.681-5.305-12.596c0-4.914,1.757-9.112,5.305-12.595s7.811-5.207,12.79-5.207
			c4.134,0,7.812,1.236,11.065,3.742v-2.701h9.797V182.132z M388.365,202.993c3.027,0,5.598-1.041,7.746-3.092
			c2.115-2.05,3.189-4.557,3.189-7.453c0-2.896-1.074-5.402-3.189-7.452c-2.148-2.051-4.719-3.092-7.746-3.092
			c-3.026,0-5.598,1.041-7.713,3.092c-2.148,2.05-3.223,4.557-3.223,7.452c0,2.896,1.074,5.403,3.223,7.453
			C382.768,201.952,385.339,202.993,388.365,202.993z"/>
		<path fill="#FFFFFF" d="M437.945,199.739c0.261,2.896-0.521,5.337-2.311,7.29c-2.051,2.213-5.109,3.319-9.211,3.319
			c-2.115,0-5.663-0.977-10.772-2.506l-0.423-0.13v-7.258h6.021v2.506c1.628,0.684,3.287,1.009,4.979,1.009
			c1.79,0,3.06-0.423,3.873-1.302c0.586-0.651,0.847-1.497,0.749-2.506c-0.098-1.042-0.488-1.888-1.172-2.571
			c-0.813-0.813-2.213-1.563-4.23-2.278c-6.314-2.245-9.699-5.695-10.122-10.316c-0.228-2.701,0.456-4.947,2.148-6.803
			c1.984-2.181,4.882-3.286,8.624-3.286c1.855,0,3.58,0.26,5.175,0.683l0.879,0.229c2.669,0.683,4.23,1.236,4.654,1.464l0.293,0.163
			v7.16h-6.021v-2.376c-1.399-0.651-2.962-0.977-4.654-0.977c-1.562,0-2.668,0.391-3.352,1.139
			c-0.521,0.554-0.749,1.205-0.651,2.019c0.098,1.009,0.488,1.79,1.172,2.408c0.813,0.716,2.311,1.497,4.557,2.344
			c3.189,1.203,5.564,2.636,7.127,4.295C436.807,195.117,437.718,197.233,437.945,199.739z"/>
		<path fill="#FFFFFF" d="M454.167,180.439v18.877c0,1.269,0.423,2.082,1.302,2.473c0.357,0.163,1.432,0.358,3.286,0.586v6.835
			c-3.449-0.098-6.281-1.009-8.461-2.799c-2.312-1.888-3.482-4.395-3.482-7.551v-18.421h-3.938v-6.444h3.938V163.32h7.355v10.675
			h4.523v6.444H454.167z"/>
		<path fill="#FFFFFF" d="M462.902,175.883h11.229v26.915h3.971v6.347h-15.199v-6.347h3.971v-20.568h-3.971V175.883z
			 M469.997,173.247c-1.204,0-2.181-0.456-3.026-1.367c-0.813-0.879-1.27-1.953-1.27-3.222c0-1.27,0.423-2.376,1.27-3.255
			c0.813-0.879,1.822-1.335,3.026-1.335s2.213,0.456,3.06,1.335c0.813,0.879,1.236,1.985,1.236,3.255
			c0,1.269-0.423,2.343-1.236,3.222C472.21,172.791,471.201,173.247,469.997,173.247z"/>
		<path fill="#FFFFFF" d="M521.173,182.132h-2.539v20.731h2.539v6.379h-9.796v-2.733c-3.255,2.506-6.933,3.71-11.065,3.71
			c-4.98,0-9.243-1.692-12.791-5.175s-5.305-7.681-5.305-12.596c0-4.914,1.757-9.112,5.305-12.595s7.811-5.207,12.791-5.207
			c4.133,0,7.811,1.236,11.065,3.742v-2.701h9.796V182.132z M500.312,202.993c3.026,0,5.598-1.041,7.745-3.092
			c2.115-2.05,3.189-4.557,3.189-7.453c0-2.896-1.074-5.402-3.189-7.452c-2.147-2.051-4.719-3.092-7.745-3.092
			c-3.027,0-5.599,1.041-7.714,3.092c-2.148,2.05-3.222,4.557-3.222,7.452c0,2.896,1.073,5.403,3.222,7.453
			C494.713,201.952,497.284,202.993,500.312,202.993z"/>
	</g>
</g>
</svg>
