<?xml version="1.0" encoding="utf-8"?>
<!-- Generator: Adobe Illustrator 16.0.0, SVG Export Plug-In . SVG Version: 6.00 Build 0)  -->
<!DOCTYPE svg PUBLIC "-//W3C//DTD SVG 1.1//EN" "http://www.w3.org/Graphics/SVG/1.1/DTD/svg11.dtd">
<svg version="1.1" id="Capa_1" xmlns="http://www.w3.org/2000/svg" xmlns:xlink="http://www.w3.org/1999/xlink" x="0px" y="0px"
	 width="523.459px" height="312.982px" viewBox="0 0 523.459 312.982" enable-background="new 0 0 523.459 312.982"
	 xml:space="preserve">
<g>
	<g>
		<g>
			<path fill="#2FAC66" d="M19.07,66.154h7.385v9.101c5.294,0.321,11.263,3.052,17.907,8.19l-7.284,10.011
				c-4.418-3.283-7.959-5.192-10.623-5.728v17.681c6.441,1.855,11.221,4.674,14.34,8.456s4.679,8.134,4.679,13.058
				c0,5.28-1.627,9.74-4.881,13.379c-3.255,3.641-7.934,5.993-14.037,7.064v16.167h-7.385v-16.488
				c-4.654-0.464-8.304-1.319-10.951-2.569c-2.648-1.249-5.387-3.159-8.22-5.729l6.525-10.225c4.889,3.498,9.071,5.55,12.545,6.155
				v-16.648c-7.217-3.105-12.056-6.335-14.518-9.69c-2.462-3.354-3.692-7.44-3.692-12.259c0-4.639,1.568-9.163,4.704-13.57
				c3.136-4.406,7.638-6.933,13.506-7.574V66.154z M18.969,102.887V87.193c-1.518,0.286-2.774,1.169-3.769,2.65
				c-0.995,1.482-1.492,2.974-1.492,4.474C13.708,97.996,15.461,100.852,18.969,102.887z M26.658,120.33l-0.102,0.107v14.989
				c3.912-0.75,5.868-3.051,5.868-6.905C32.424,124.881,30.502,122.15,26.658,120.33z"/>
			<path fill="#2FAC66" d="M310.736,138.612c0-2.362,0.792-4.384,2.378-6.067c1.584-1.683,3.488-2.523,5.715-2.523
				s4.131,0.841,5.717,2.523c1.585,1.684,2.377,3.706,2.377,6.067c0,2.327-0.792,4.333-2.377,6.015
				c-1.586,1.683-3.49,2.524-5.717,2.524s-4.131-0.842-5.715-2.524C311.528,142.944,310.736,140.939,310.736,138.612z"/>
			<path fill="#2FAC66" d="M66.591,78.092h20.992v68.202H73.419V90.512h-9.307L66.591,78.092z"/>
			<polygon fill="#FFFFFF" points="74.738,73.586 74.337,75.6 90.842,75.6 90.842,141.789 93.76,141.789 93.76,73.586 			"/>
			<path fill="#2FAC66" d="M133.879,77.985h51.09l-41.136,70.442l-11.471-7.647l29.297-50.375h-27.78V77.985z"/>
			<polygon fill="#FFFFFF" points="141.26,74.054 141.26,75.876 188.791,75.876 149.418,143.3 151.214,144.498 192.35,74.054 			"/>
			<path fill="#2FAC66" d="M103,93.242l7.082-16.007h15.833l-13.86,16.007H103z"/>
			<polygon fill="#FFFFFF" points="117.463,73.688 116.868,75.62 129.628,75.62 117.379,89.695 119.436,89.695 133.296,73.688 			
				"/>
			<path fill="#2FAC66" d="M229.05,110.292c6.305,4.322,9.459,10.001,9.459,17.037c0,5.894-1.99,10.67-5.969,14.33
				c-3.979,3.661-9.173,5.492-15.58,5.492c-6.542,0-11.836-1.813-15.883-5.438c-4.047-3.625-6.07-8.349-6.07-14.171
				c0-7.178,3.169-12.893,9.509-17.144c-2.698-2.46-4.671-4.867-5.918-7.222c-1.248-2.354-1.872-5.045-1.872-8.076
				c0-4.921,1.745-9.184,5.235-12.785c3.49-3.603,8.388-5.403,14.695-5.403c6.137,0,11.035,1.623,14.694,4.868
				c3.659,3.246,5.488,7.56,5.488,12.944C236.839,100.968,234.242,106.156,229.05,110.292z M224.8,125.255
				c0-2.391-0.792-4.434-2.377-6.13c-1.585-1.693-3.507-2.542-5.766-2.542c-2.159,0-4.014,0.883-5.564,2.65
				c-1.551,1.767-2.327,3.881-2.327,6.344c0,2.248,0.8,4.256,2.402,6.022s3.431,2.649,5.489,2.649c2.259,0,4.181-0.874,5.766-2.623
				S224.8,127.754,224.8,125.255z M223.688,97.043c0-2.212-0.649-4.06-1.947-5.541c-1.299-1.48-2.926-2.222-4.881-2.222
				c-1.922,0-3.524,0.688-4.806,2.061c-1.282,1.374-1.922,3.062-1.922,5.06c0,2.069,0.64,3.811,1.922,5.22
				c1.281,1.41,2.883,2.115,4.806,2.115c1.753,0,3.33-0.688,4.729-2.062C222.987,100.3,223.688,98.756,223.688,97.043z"/>
			<path fill="#FFFFFF" d="M212.772,120.179c-1.278,1.454-1.898,3.156-1.898,5.205c0,1.822,0.64,3.413,1.956,4.864
				c1.271,1.402,2.648,2.083,4.21,2.083c1.696,0,3.117-0.623,4.338-1.897c-1.305-0.384-2.503-1.177-3.596-2.383
				c-1.602-1.767-2.403-3.773-2.403-6.021c0-1.39,0.248-2.67,0.743-3.838C214.861,118.4,213.758,119.056,212.772,120.179z"/>
			<path fill="#FFFFFF" d="M213.698,92.327c-0.981,1.052-1.458,2.322-1.458,3.882c0,1.642,0.482,2.969,1.473,4.06
				c0.948,1.043,2.103,1.55,3.529,1.55c1.295,0,2.447-0.513,3.521-1.567c0.151-0.148,0.291-0.299,0.42-0.451
				c-0.944-0.345-1.783-0.92-2.516-1.727c-1.282-1.41-1.922-3.149-1.922-5.22c0-0.72,0.084-1.396,0.25-2.034
				C215.673,90.874,214.593,91.368,213.698,92.327z"/>
			<path fill="#FFFFFF" d="M236.047,106.554c5.192-4.137,7.79-9.325,7.79-15.565c0-5.385-1.83-9.699-5.488-12.945
				c-3.659-3.245-8.557-4.868-14.694-4.868c-3.634,0-6.798,0.603-9.497,1.799c1.049-0.111,2.138-0.167,3.266-0.167
				c6.543,0,11.872,1.783,15.839,5.303c4.027,3.572,6.069,8.361,6.069,14.234c0,6.05-2.272,11.24-6.759,15.462
				c5.595,4.477,8.428,10.232,8.428,17.141c0,5.102-1.411,9.485-4.199,13.076c0.967-0.618,1.881-1.314,2.736-2.102
				c3.979-3.66,5.969-8.437,5.969-14.33C245.506,116.555,242.353,110.876,236.047,106.554z"/>
			<path fill="#2FAC66" d="M274.951,77.021c7.655,0,13.759,3.104,18.312,9.313c4.553,6.21,6.829,14.508,6.829,24.895
				c0,12.135-2.528,21.138-7.588,27.008c-5.06,5.871-10.909,8.807-17.553,8.807c-7.587,0-13.733-3.132-18.438-9.396
				c-4.705-6.265-7.057-14.499-7.057-24.706c0-10.85,2.302-19.548,6.905-26.099c4.603-6.549,10.666-9.822,18.185-9.822H274.951z
				 M286.535,112.514c0-6.924-1.046-12.366-3.138-16.328c-2.09-3.962-4.905-5.942-8.446-5.942c-3.71,0-6.626,1.98-8.751,5.942
				c-2.125,3.961-3.188,9.476-3.188,16.542c0,6.424,1.079,11.563,3.237,15.417c2.158,3.854,4.99,5.781,8.498,5.781
				c3.573,0,6.433-1.927,8.573-5.781C285.464,124.292,286.535,119.081,286.535,112.514z"/>
			<g>
				<path fill="#FFFFFF" d="M272.801,92.177c-2.077,0.621-3.78,2.199-5.165,4.78c-1.986,3.704-2.992,9.01-2.992,15.772
					c0,6.111,1.019,11.031,3.028,14.622c1.864,3.33,4.179,4.947,7.077,4.947c1.814,0,3.395-0.609,4.771-1.845
					c-2.843-0.471-5.188-2.357-7.039-5.663c-2.158-3.854-3.237-8.994-3.237-15.418c0-7.065,1.063-12.581,3.187-16.542
					C272.552,92.606,272.675,92.389,272.801,92.177z"/>
				<path fill="#FFFFFF" d="M299.493,82.98c-4.553-6.209-10.656-9.314-18.311-9.314h-0.406c-3.285,0-6.293,0.625-9.022,1.876
					c0.91-0.099,1.841-0.149,2.793-0.149h0.404c8.167,0,14.771,3.357,19.626,9.979c4.74,6.466,7.145,15.166,7.145,25.857
					c0,12.479-2.687,21.924-7.982,28.07c-0.186,0.217-0.373,0.428-0.563,0.636c1.948-1.331,3.801-3.016,5.559-5.055
					c5.059-5.87,7.588-14.873,7.588-27.008C306.322,97.488,304.046,89.191,299.493,82.98z"/>
			</g>
			<path fill="#2FAC66" d="M367.549,77.021c7.654,0,13.759,3.104,18.313,9.313c4.552,6.21,6.828,14.508,6.828,24.895
				c0,12.135-2.529,21.138-7.588,27.008c-5.059,5.871-10.909,8.807-17.553,8.807c-7.588,0-13.732-3.132-18.438-9.396
				c-4.705-6.265-7.058-14.499-7.058-24.706c0-10.85,2.303-19.548,6.904-26.099c4.604-6.549,10.665-9.822,18.185-9.822H367.549z
				 M379.133,112.514c0-6.924-1.046-12.366-3.137-16.328c-2.092-3.962-4.906-5.942-8.447-5.942c-3.71,0-6.627,1.98-8.751,5.942
				c-2.125,3.961-3.187,9.476-3.187,16.542c0,6.424,1.078,11.563,3.236,15.417c2.157,3.854,4.99,5.781,8.498,5.781
				c3.574,0,6.433-1.927,8.573-5.781C378.06,124.29,379.133,119.081,379.133,112.514z"/>
			<g>
				<path fill="#FFFFFF" d="M365.397,92.177c-2.078,0.621-3.78,2.199-5.164,4.78c-1.986,3.704-2.993,9.01-2.993,15.772
					c0,6.111,1.02,11.031,3.028,14.622c1.864,3.33,4.18,4.947,7.077,4.947c1.814,0,3.395-0.609,4.771-1.845
					c-2.843-0.471-5.189-2.357-7.039-5.663c-2.158-3.854-3.237-8.994-3.237-15.418c0-7.065,1.063-12.581,3.188-16.542
					C365.149,92.606,365.272,92.389,365.397,92.177z"/>
				<path fill="#FFFFFF" d="M392.091,82.98c-4.553-6.209-10.656-9.314-18.312-9.314h-0.404c-3.286,0-6.294,0.625-9.023,1.876
					c0.91-0.099,1.842-0.149,2.792-0.149h0.405c8.167,0,14.771,3.357,19.625,9.979c4.741,6.466,7.146,15.166,7.146,25.857
					c0,12.479-2.687,21.924-7.982,28.07c-0.187,0.217-0.373,0.428-0.562,0.636c1.947-1.331,3.801-3.016,5.558-5.055
					c5.059-5.87,7.588-14.873,7.588-27.008C398.92,97.488,396.644,89.191,392.091,82.98z"/>
			</g>
			<path fill="#2FAC66" d="M430.239,77.021c7.653,0,13.759,3.104,18.311,9.313c4.554,6.21,6.829,14.508,6.829,24.895
				c0,12.135-2.529,21.138-7.587,27.008c-5.059,5.871-10.91,8.807-17.553,8.807c-7.588,0-13.734-3.132-18.438-9.396
				c-4.704-6.265-7.056-14.499-7.056-24.706c0-10.85,2.301-19.548,6.904-26.099c4.604-6.549,10.664-9.822,18.185-9.822H430.239z
				 M441.822,112.514c0-6.924-1.045-12.366-3.137-16.328s-4.905-5.942-8.446-5.942c-3.71,0-6.627,1.98-8.751,5.942
				c-2.125,3.961-3.188,9.476-3.188,16.542c0,6.424,1.079,11.563,3.237,15.417c2.158,3.854,4.991,5.781,8.499,5.781
				c3.573,0,6.432-1.927,8.573-5.781C440.75,124.29,441.822,119.081,441.822,112.514z"/>
			<g>
				<path fill="#FFFFFF" d="M428.088,92.177c-2.078,0.621-3.78,2.199-5.164,4.78c-1.985,3.704-2.993,9.01-2.993,15.772
					c0,6.111,1.021,11.031,3.029,14.622c1.864,3.33,4.179,4.947,7.077,4.947c1.813,0,3.394-0.609,4.771-1.845
					c-2.843-0.471-5.188-2.357-7.039-5.663c-2.158-3.854-3.236-8.994-3.236-15.418c0-7.065,1.062-12.581,3.187-16.542
					C427.839,92.606,427.963,92.389,428.088,92.177z"/>
				<path fill="#FFFFFF" d="M454.781,82.98c-4.554-6.209-10.657-9.314-18.313-9.314h-0.403c-3.287,0-6.294,0.625-9.023,1.876
					c0.91-0.099,1.841-0.149,2.792-0.149h0.405c8.167,0,14.77,3.357,19.625,9.979c4.739,6.466,7.145,15.166,7.145,25.857
					c0,12.479-2.686,21.924-7.981,28.07c-0.188,0.217-0.373,0.428-0.563,0.636c1.948-1.331,3.801-3.016,5.559-5.055
					c5.059-5.87,7.588-14.873,7.588-27.008C461.61,97.488,459.334,89.191,454.781,82.98z"/>
			</g>
			<path fill="#2FAC66" d="M491.971,77.021c7.654,0,13.76,3.104,18.313,9.313c4.553,6.21,6.828,14.508,6.828,24.895
				c0,12.135-2.528,21.138-7.587,27.008c-5.06,5.871-10.91,8.807-17.554,8.807c-7.588,0-13.732-3.132-18.438-9.396
				c-4.705-6.265-7.058-14.499-7.058-24.706c0-10.85,2.303-19.548,6.904-26.099c4.604-6.549,10.665-9.822,18.186-9.822H491.971z
				 M503.555,112.514c0-6.924-1.046-12.366-3.137-16.328s-4.906-5.942-8.447-5.942c-3.71,0-6.627,1.98-8.751,5.942
				c-2.125,3.961-3.187,9.476-3.187,16.542c0,6.424,1.078,11.563,3.236,15.417c2.157,3.854,4.99,5.781,8.498,5.781
				c3.574,0,6.433-1.927,8.574-5.781C502.483,124.292,503.555,119.081,503.555,112.514z"/>
			<g>
				<path fill="#FFFFFF" d="M489.82,92.177c-2.079,0.621-3.781,2.199-5.165,4.78c-1.986,3.704-2.993,9.01-2.993,15.772
					c0,6.111,1.02,11.031,3.03,14.622c1.862,3.33,4.178,4.947,7.075,4.947c1.814,0,3.396-0.609,4.771-1.845
					c-2.842-0.471-5.189-2.357-7.039-5.663c-2.158-3.854-3.237-8.994-3.237-15.418c0-7.065,1.063-12.581,3.188-16.542
					C489.571,92.606,489.694,92.389,489.82,92.177z"/>
				<path fill="#FFFFFF" d="M516.513,82.98c-4.553-6.209-10.655-9.314-18.312-9.314h-0.404c-3.286,0-6.294,0.625-9.022,1.876
					c0.909-0.099,1.841-0.149,2.792-0.149h0.404c8.167,0,14.771,3.357,19.625,9.979c4.741,6.466,7.146,15.166,7.146,25.857
					c0,12.479-2.687,21.924-7.982,28.07c-0.187,0.217-0.373,0.428-0.562,0.636c1.947-1.331,3.801-3.016,5.558-5.055
					c5.06-5.87,7.588-14.873,7.588-27.008C523.342,97.488,521.065,89.191,516.513,82.98z"/>
			</g>
			<path fill="#FFFFFF" d="M330.776,129.189c-1.585-1.684-3.49-2.524-5.717-2.524c-1.883,0-3.534,0.604-4.96,1.81
				c2.149,0.275,4.04,1.264,5.632,2.952c1.872,1.988,2.82,4.405,2.82,7.186c0,1.763-0.394,3.382-1.169,4.842
				c1.259-0.391,2.391-1.118,3.394-2.182c1.585-1.684,2.378-3.688,2.378-6.016C333.154,132.895,332.361,130.872,330.776,129.189z"/>
			<path fill="#FFFFFF" d="M10.57,128.592c2.3,1.456,4.408,2.532,6.296,3.209v-3.938c-1.31-0.776-2.678-1.672-4.109-2.696
				L10.57,128.592z"/>
			<path fill="#FFFFFF" d="M28.66,63.949v9.337c5.184,0.841,10.916,3.669,17.051,8.415l1.693,1.31l-4.789,6.582
				c0.229,0.166,0.459,0.334,0.693,0.509l7.284-10.012c-6.644-5.139-12.612-7.87-17.906-8.189v-9.102h-7.385v1.151L28.66,63.949
				L28.66,63.949z"/>
			<path fill="#FFFFFF" d="M15.913,94.317c0,1.316,0.28,2.479,0.852,3.507v-6.33C16.192,92.461,15.913,93.389,15.913,94.317z"/>
			<path fill="#FFFFFF" d="M47.027,110.509c-3.12-3.78-7.9-6.601-14.34-8.456v-8.979c-1.484-0.967-2.83-1.729-4.026-2.274v12.98
				c6.061,1.977,10.713,4.896,13.836,8.683c3.439,4.17,5.183,9.035,5.183,14.46c0,4.78-1.24,9.005-3.687,12.602
				c1.04-0.773,1.985-1.63,2.832-2.578c3.254-3.638,4.881-8.099,4.881-13.379C51.706,118.643,50.146,114.291,47.027,110.509z"/>
			<path fill="#FFFFFF" d="M28.761,124.492v7.702c1-0.788,1.458-1.967,1.458-3.672C30.22,126.94,29.74,125.609,28.761,124.492z"/>
		</g>
		<path fill="#C1C1C1" d="M28.761,149.17v11.006h4.026v-12.188C31.519,148.455,30.176,148.85,28.761,149.17z"/>
	</g>
	<g enable-background="new    ">
		<path fill="#FFFFFF" d="M326.646,239.301v-13.696h2.913c3.014,0,4.358,2.913,4.358,6.873s-1.345,6.823-4.358,6.823H326.646z
			 M332.075,232.477c0-3.138-0.771-5.304-2.516-5.304h-1.145v10.559h1.145C331.304,237.732,332.075,235.565,332.075,232.477z"/>
		<path fill="#FFFFFF" d="M336.258,239.301v-13.696h5.479v1.569h-3.71v4.332h3.561v1.545h-3.561v4.682h3.71v1.568H336.258z"/>
		<path fill="#FFFFFF" d="M348.31,239.301v-13.696h2.889c2.365,0,3.436,1.917,3.436,4.134c0,2.241-1.07,4.158-3.436,4.158h-1.121
			v5.404H348.31z M352.816,229.738c0-1.469-0.573-2.564-1.793-2.564h-0.946v5.154h0.946
			C352.269,232.328,352.816,231.232,352.816,229.738z"/>
		<path fill="#FFFFFF" d="M360.137,225.604l2.765,13.696h-1.844l-0.522-3.088h-2.839l-0.523,3.088h-1.842l2.789-13.696H360.137z
			 M359.116,227.796l-1.195,6.849h2.391L359.116,227.796z"/>
		<path fill="#FFFFFF" d="M368.977,239.301l-1.769-5.404h-1.021v5.404h-1.769v-13.696h2.914c2.217,0,3.412,1.793,3.412,4.134
			c0,2.191-0.972,3.437-1.943,3.785l2.117,5.777H368.977z M368.927,229.738c0-1.469-0.572-2.564-1.793-2.564h-0.946v5.154h0.946
			C368.354,232.328,368.927,231.232,368.927,229.738z"/>
		<path fill="#FFFFFF" d="M373.134,239.301v-13.696h2.889c2.366,0,3.438,1.917,3.438,4.134c0,2.241-1.071,4.158-3.438,4.158h-1.12
			v5.404H373.134z M377.642,229.738c0-1.469-0.572-2.564-1.793-2.564h-0.946v5.154h0.946
			C377.094,232.328,377.642,231.232,377.642,229.738z"/>
		<path fill="#FFFFFF" d="M384.962,225.604l2.765,13.696h-1.843l-0.523-3.088h-2.838l-0.523,3.088h-1.843l2.789-13.696H384.962z
			 M383.941,227.796l-1.195,6.849h2.391L383.941,227.796z"/>
		<path fill="#FFFFFF" d="M389.245,239.301v-13.696h2.913c3.013,0,4.358,2.913,4.358,6.873s-1.346,6.823-4.358,6.823H389.245z
			 M394.673,232.477c0-3.138-0.771-5.304-2.515-5.304h-1.146v10.559h1.146C393.901,237.732,394.673,235.565,394.673,232.477z"/>
		<path fill="#FFFFFF" d="M398.433,232.453c0-3.91,1.021-7.147,3.91-7.147s3.934,3.237,3.934,7.147c0,3.909-1.045,7.146-3.934,7.146
			S398.433,236.362,398.433,232.453z M404.435,232.453c0-2.988-0.449-5.578-2.092-5.578c-1.645,0-2.092,2.59-2.092,5.578
			c0,2.963,0.447,5.578,2.092,5.578C403.985,238.031,404.435,235.416,404.435,232.453z"/>
		<path fill="#FFFFFF" d="M407.695,238.205l0.872-1.32c0.622,0.772,1.419,1.171,2.24,1.171c0.872,0,1.669-0.747,1.669-2.042
			c0-3.014-4.308-3.361-4.308-7.321c0-1.992,1.344-3.387,3.262-3.387c1.121,0,1.893,0.299,2.689,1.046l-0.771,1.345
			c-0.573-0.598-1.146-0.847-1.818-0.847c-0.822,0-1.52,0.697-1.52,1.843c0,2.64,4.309,3.188,4.309,7.296
			c0,2.092-1.369,3.611-3.412,3.611C409.588,239.599,408.667,239.201,407.695,238.205z"/>
		<path fill="#FFFFFF" d="M419.647,238.205l0.871-1.32c0.623,0.772,1.42,1.171,2.242,1.171c0.871,0,1.668-0.747,1.668-2.042
			c0-3.014-4.309-3.361-4.309-7.321c0-1.992,1.346-3.387,3.263-3.387c1.12,0,1.893,0.299,2.689,1.046l-0.772,1.345
			c-0.572-0.598-1.145-0.847-1.817-0.847c-0.821,0-1.519,0.697-1.519,1.843c0,2.64,4.308,3.188,4.308,7.296
			c0,2.092-1.37,3.611-3.411,3.611C421.54,239.599,420.618,239.201,419.647,238.205z"/>
		<path fill="#FFFFFF" d="M428.288,234.195v-8.591h1.768v9.837c0,1.768,0.548,2.59,1.693,2.59c1.096,0,1.644-0.848,1.644-2.59
			v-9.837h1.793v8.591c0,3.785-1.021,5.404-3.437,5.404C429.284,239.599,428.288,237.956,428.288,234.195z"/>
		<path fill="#FFFFFF" d="M437.974,239.301v-13.696h2.889c2.365,0,3.437,1.917,3.437,4.134c0,2.241-1.071,4.158-3.437,4.158h-1.121
			v5.404H437.974z M442.481,229.738c0-1.469-0.573-2.564-1.793-2.564h-0.947v5.154h0.947
			C441.933,232.328,442.481,231.232,442.481,229.738z"/>
		<path fill="#FFFFFF" d="M446.266,239.301v-13.696h5.479v1.569h-3.71v4.332h3.561v1.545h-3.561v4.682h3.71v1.568H446.266z"/>
		<path fill="#FFFFFF" d="M458.616,239.301l-1.768-5.404h-1.021v5.404h-1.768v-13.696h2.913c2.216,0,3.411,1.793,3.411,4.134
			c0,2.191-0.971,3.437-1.941,3.785l2.116,5.777H458.616z M458.566,229.738c0-1.469-0.573-2.564-1.793-2.564h-0.946v5.154h0.946
			C457.993,232.328,458.566,231.232,458.566,229.738z"/>
		<path fill="#FFFFFF" d="M462.774,239.301v-13.696h1.768v13.696H462.774z"/>
		<path fill="#FFFFFF" d="M466.907,232.453c0-3.91,1.021-7.147,3.91-7.147s3.935,3.237,3.935,7.147c0,3.909-1.046,7.146-3.935,7.146
			S466.907,236.362,466.907,232.453z M472.909,232.453c0-2.988-0.448-5.578-2.092-5.578s-2.092,2.59-2.092,5.578
			c0,2.963,0.448,5.578,2.092,5.578S472.909,235.416,472.909,232.453z"/>
		<path fill="#FFFFFF" d="M481.674,239.301l-1.769-5.404h-1.021v5.404h-1.769v-13.696h2.914c2.217,0,3.412,1.793,3.412,4.134
			c0,2.191-0.972,3.437-1.943,3.785l2.117,5.777H481.674z M481.624,229.738c0-1.469-0.572-2.564-1.793-2.564h-0.946v5.154h0.946
			C481.052,232.328,481.624,231.232,481.624,229.738z"/>
		<path fill="#FFFFFF" d="M485.831,239.301v-13.696h5.479v1.569h-3.71v4.332h3.562v1.545H487.6v4.682h3.71v1.568H485.831z"/>
		<path fill="#FFFFFF" d="M492.679,238.205l0.871-1.32c0.623,0.772,1.42,1.171,2.242,1.171c0.871,0,1.668-0.747,1.668-2.042
			c0-3.014-4.309-3.361-4.309-7.321c0-1.992,1.346-3.387,3.263-3.387c1.12,0,1.893,0.299,2.689,1.046l-0.772,1.345
			c-0.572-0.598-1.145-0.847-1.817-0.847c-0.821,0-1.519,0.697-1.519,1.843c0,2.64,4.308,3.188,4.308,7.296
			c0,2.092-1.37,3.611-3.411,3.611C494.571,239.599,493.649,239.201,492.679,238.205z"/>
	</g>
	<g>
		<g>
			<path fill="#FFFFFF" d="M217.925,15.953c19.463-8.231,40.133-12.406,61.438-12.406c21.305,0,41.976,4.175,61.438,12.406
				c18.795,7.95,35.673,19.329,50.165,33.821c0.146,0.146,0.292,0.295,0.438,0.441h6.392c-1.464-1.589-2.962-3.153-4.498-4.689
				c-14.271-14.272-30.895-25.479-49.404-33.309C324.725,4.11,304.368,0,283.388,0s-41.337,4.11-60.504,12.217
				c-12.299,5.202-23.763,11.897-34.26,19.99C197.754,25.78,207.546,20.342,217.925,15.953z"/>
		</g>
		<g>
			<path fill="#2FAC66" d="M182.277,56.158c25.542-23.586,59.66-38.016,97.085-38.016c37.425,0,71.543,14.43,97.085,38.016h17.32
				c-1.464-1.589-2.962-3.154-4.498-4.69c-14.271-14.271-30.895-25.479-49.403-33.308c-19.167-8.107-39.523-12.217-60.504-12.217
				c-20.981,0-41.337,4.109-60.504,12.217c-18.51,7.829-35.132,19.036-49.405,33.308c-1.536,1.536-3.034,3.102-4.498,4.69H182.277z"
				/>
		</g>
	</g>
	<g>
		<path fill="#2FAC66" d="M378.461,262.767c-25.543,23.587-59.66,38.017-97.086,38.017c-37.425,0-71.543-14.43-97.085-38.017
			h-17.321c1.464,1.59,2.962,3.153,4.498,4.689c14.273,14.272,30.895,25.479,49.405,33.31c19.167,8.105,39.523,12.217,60.504,12.217
			c20.98,0,41.337-4.11,60.504-12.217c18.51-7.829,35.132-19.036,49.404-33.31c1.536-1.536,3.034-3.101,4.498-4.689H378.461z"/>
	</g>
	<g>
		<path fill="#FFFFFF" d="M396.06,261.138c1.207-1.229,2.394-2.477,3.557-3.738h-17.321c-1.379,1.272-2.784,2.519-4.213,3.738
			H396.06z"/>
		<path fill="#FFFFFF" d="M184.927,261.138l0.468,0.433c26.246,24.235,60.333,37.583,95.98,37.583
			c34.584,0,67.698-12.563,93.609-35.444c-24.577,19.824-55.814,31.706-89.775,31.706c-37.426,0-71.543-14.43-97.086-38.016h-17.321
			c1.163,1.263,2.349,2.509,3.556,3.738H184.927L184.927,261.138z"/>
	</g>
	<g>
		<path fill="#9E9E9E" d="M97.036,181.799c2.733,0.685,4.979,2.213,6.704,4.524c1.79,2.343,2.701,5.012,2.701,8.006
			c0,3.548-1.204,6.606-3.645,9.146c-2.441,2.506-5.337,3.741-8.755,3.741H73.863v-6.898h2.474v-32.969h-2.474v-6.933h17.64v0.099
			c3.027,0.228,5.565,1.432,7.648,3.645c2.115,2.246,3.157,4.882,3.157,7.909c0,1.983-0.488,3.872-1.464,5.598
			C99.9,179.358,98.63,180.726,97.036,181.799z M95.018,173.598c0-1.726-0.586-3.223-1.757-4.427
			c-1.172-1.205-2.604-1.822-4.264-1.822h-5.012v12.465h5.012c1.66,0,3.092-0.618,4.264-1.822
			C94.432,176.787,95.018,175.322,95.018,173.598z M83.985,200.317h8.527c1.595-0.293,2.896-1.041,3.938-2.278
			c1.074-1.269,1.595-2.701,1.595-4.359c0-1.855-0.651-3.45-1.953-4.784c-1.301-1.335-2.864-1.986-4.687-1.986h-7.42V200.317z"/>
		<path fill="#9E9E9E" d="M111.825,161.653h11.586v38.989h4.101v6.542h-15.687v-6.542h4.101v-32.415h-4.101V161.653z"/>
		<path fill="#9E9E9E" d="M149.949,201.261c2.669,0,5.045-0.813,7.095-2.408h9.569c-1.595,2.962-3.873,5.338-6.802,7.128
			c-3.026,1.79-6.314,2.701-9.861,2.701c-5.175,0-9.601-1.759-13.278-5.339c-3.678-3.547-5.5-7.843-5.5-12.888
			c0-5.044,1.823-9.34,5.5-12.888c3.678-3.58,8.104-5.37,13.278-5.37c3.775,0,7.225,1.009,10.382,3.06
			c3.059,1.985,5.37,4.59,6.802,7.844c0.944,2.181,1.465,4.653,1.627,7.354l-29.259,4.198c0.879,1.985,2.246,3.58,4.101,4.784
			C145.523,200.643,147.639,201.261,149.949,201.261z M149.949,179.651c-2.506,0-4.751,0.716-6.737,2.115
			c-1.953,1.398-3.287,3.188-4.036,5.369l20.016-2.896c-1.042-1.399-2.376-2.539-3.971-3.353
			C153.562,180.074,151.804,179.651,149.949,179.651z"/>
		<path fill="#9E9E9E" d="M187.422,168.064c-1.79,0.261-2.864,0.456-3.189,0.618c-0.846,0.392-1.27,1.204-1.27,2.474v0.944h4.426
			v6.41h-4.426v22.132h2.539v6.443H173.2v-6.443h2.539V178.51h-2.506v-6.41h2.506v-0.488c0-3.157,1.139-5.663,3.417-7.551
			c2.148-1.79,4.915-2.701,8.267-2.8L187.422,168.064L187.422,168.064z"/>
		<path fill="#9E9E9E" d="M230.201,180.009h-2.539v20.731h2.539v6.379h-9.796v-2.733c-3.254,2.507-6.933,3.711-11.065,3.711
			c-4.979,0-9.243-1.692-12.791-5.176c-3.548-3.482-5.305-7.681-5.305-12.595s1.758-9.113,5.305-12.596
			c3.547-3.481,7.811-5.207,12.791-5.207c4.133,0,7.811,1.236,11.065,3.743v-2.702h9.796V180.009z M209.339,200.871
			c3.027,0,5.598-1.042,7.746-3.092c2.116-2.051,3.189-4.557,3.189-7.453c0-2.896-1.074-5.402-3.189-7.453
			c-2.148-2.051-4.719-3.092-7.746-3.092c-3.027,0-5.598,1.041-7.713,3.092c-2.148,2.051-3.222,4.558-3.222,7.453
			c0,2.896,1.074,5.402,3.222,7.453C203.742,199.829,206.313,200.871,209.339,200.871z"/>
		<path fill="#9E9E9E" d="M246.975,173.695v4.815c1.139-1.725,2.571-3.123,4.231-4.164c1.725-1.042,3.45-1.563,5.174-1.53
			c1.855,0.032,3.515,0.684,4.947,1.984c1.595,1.466,2.799,3.58,3.611,6.411c-2.213,0.749-4.523,1.596-6.963,2.507
			c-0.716-2.019-1.692-3.255-2.929-3.678c-1.074-0.391-2.213-0.194-3.482,0.618c-1.106,0.716-2.116,1.757-2.994,3.092
			c-0.846,1.302-1.367,2.506-1.497,3.646l-0.098,0.779v12.922l2.571-0.099v6.086h-12.335V201h2.539v-20.992h-3.84v-6.313h3.84
			H246.975z"/>
		<path fill="#9E9E9E" d="M268.437,190.326c0-5.012,1.822-9.275,5.467-12.823c3.646-3.547,8.039-5.337,13.215-5.337
			c5.142,0,9.535,1.79,13.181,5.337c3.646,3.548,5.468,7.813,5.468,12.823s-1.822,9.275-5.468,12.823
			c-3.646,3.547-8.039,5.305-13.181,5.305c-5.176,0-9.568-1.758-13.215-5.305C270.258,199.602,268.437,195.338,268.437,190.326z
			 M275.823,190.326c0,2.962,1.105,5.5,3.32,7.615c2.181,2.083,4.849,3.125,7.974,3.125c3.092,0,5.761-1.042,7.94-3.125
			c2.213-2.115,3.319-4.653,3.319-7.615s-1.106-5.5-3.319-7.615c-2.181-2.116-4.85-3.156-7.94-3.156
			c-3.125,0-5.793,1.04-7.974,3.156C276.931,184.826,275.823,187.364,275.823,190.326z"/>
		<path fill="#9E9E9E" d="M348.674,190.294c0,4.85-1.758,8.982-5.305,12.433c-3.516,3.418-7.779,5.109-12.759,5.109
			c-4.102,0-7.777-1.204-11.065-3.646v13.57h-9.764v-6.347h2.57v-31.406h-2.57v-6.313h9.764v2.701
			c3.288-2.44,6.965-3.679,11.065-3.679c4.979,0,9.243,1.726,12.759,5.144C346.916,181.311,348.674,185.444,348.674,190.294z
			 M341.514,190.294c0-2.863-1.073-5.306-3.188-7.354c-2.115-2.051-4.688-3.061-7.714-3.061s-5.599,1.01-7.713,3.061
			c-2.115,2.05-3.189,4.491-3.189,7.354s1.074,5.306,3.189,7.354c2.114,2.051,4.687,3.06,7.713,3.06s5.599-1.009,7.714-3.06
			C340.439,195.599,341.514,193.157,341.514,190.294z"/>
		<path fill="#9E9E9E" d="M352.755,161.653h11.586v38.989h4.102v6.542h-15.688v-6.542h4.102v-32.415h-4.102V161.653z"/>
		<path fill="#9E9E9E" d="M411.514,180.009h-2.539v20.731h2.539v6.379h-9.797v-2.733c-3.254,2.507-6.932,3.711-11.064,3.711
			c-4.979,0-9.242-1.692-12.79-5.176c-3.548-3.482-5.307-7.681-5.307-12.595s1.759-9.113,5.307-12.596
			c3.548-3.481,7.811-5.207,12.79-5.207c4.134,0,7.812,1.236,11.064,3.743v-2.702h9.797V180.009z M390.651,200.871
			c3.026,0,5.598-1.042,7.746-3.092c2.114-2.051,3.188-4.557,3.188-7.453c0-2.896-1.074-5.402-3.188-7.453
			c-2.148-2.051-4.72-3.092-7.746-3.092s-5.599,1.041-7.714,3.092c-2.147,2.051-3.222,4.558-3.222,7.453
			c0,2.896,1.073,5.402,3.222,7.453C385.054,199.829,387.625,200.871,390.651,200.871z"/>
		<path fill="#9E9E9E" d="M440.231,197.616c0.261,2.896-0.521,5.337-2.312,7.29c-2.051,2.213-5.109,3.32-9.211,3.32
			c-2.115,0-5.663-0.978-10.772-2.508l-0.423-0.13v-7.258h6.021v2.506c1.628,0.685,3.287,1.011,4.979,1.011
			c1.79,0,3.061-0.425,3.873-1.304c0.586-0.649,0.848-1.496,0.749-2.506c-0.098-1.041-0.487-1.888-1.172-2.571
			c-0.813-0.813-2.213-1.562-4.23-2.277c-6.313-2.245-9.698-5.695-10.121-10.316c-0.229-2.701,0.456-4.947,2.147-6.802
			c1.984-2.181,4.881-3.287,8.624-3.287c1.855,0,3.58,0.261,5.175,0.684l0.879,0.229c2.67,0.684,4.23,1.236,4.654,1.465l0.293,0.162
			v7.16h-6.021v-2.376c-1.399-0.65-2.962-0.977-4.654-0.977c-1.563,0-2.668,0.391-3.352,1.14c-0.521,0.553-0.749,1.204-0.651,2.018
			c0.098,1.009,0.488,1.79,1.172,2.408c0.813,0.717,2.312,1.497,4.557,2.344c3.189,1.204,5.565,2.636,7.127,4.296
			C439.093,192.995,440.004,195.11,440.231,197.616z"/>
		<path fill="#9E9E9E" d="M456.452,178.316v18.877c0,1.269,0.424,2.083,1.303,2.474c0.357,0.162,1.433,0.357,3.287,0.585v6.835
			c-3.45-0.098-6.281-1.009-8.462-2.799c-2.313-1.888-3.482-4.394-3.482-7.551v-18.421h-3.938v-6.443h3.938v-10.675h7.354v10.675
			h4.523v6.443H456.452L456.452,178.316z"/>
		<path fill="#9E9E9E" d="M465.188,173.76h11.229v26.915h3.971v6.348h-15.198v-6.348h3.971v-20.568h-3.971v-6.347H465.188z
			 M472.283,171.124c-1.204,0-2.182-0.455-3.026-1.367c-0.813-0.878-1.27-1.951-1.27-3.222c0-1.27,0.423-2.376,1.27-3.254
			c0.813-0.879,1.822-1.335,3.026-1.335s2.213,0.456,3.06,1.335c0.813,0.878,1.236,1.984,1.236,3.254
			c0,1.271-0.423,2.344-1.236,3.222C474.496,170.669,473.487,171.124,472.283,171.124z"/>
		<path fill="#9E9E9E" d="M523.459,180.009h-2.538v20.731h2.538v6.379h-9.796v-2.733c-3.255,2.507-6.934,3.711-11.066,3.711
			c-4.979,0-9.242-1.692-12.79-5.176c-3.547-3.481-5.305-7.681-5.305-12.595s1.758-9.113,5.305-12.596
			c3.548-3.481,7.812-5.207,12.79-5.207c4.134,0,7.813,1.236,11.066,3.743v-2.702h9.796V180.009z M502.597,200.871
			c3.027,0,5.599-1.042,7.746-3.092c2.115-2.051,3.189-4.557,3.189-7.453c0-2.896-1.074-5.402-3.189-7.453
			c-2.147-2.051-4.719-3.092-7.746-3.092c-3.025,0-5.598,1.041-7.713,3.092c-2.147,2.051-3.222,4.558-3.222,7.453
			c0,2.896,1.073,5.402,3.222,7.453C496.999,199.829,499.57,200.871,502.597,200.871z"/>
	</g>
	<g>
		<path fill="#FFFFFF" d="M94.75,183.922c2.734,0.685,4.979,2.213,6.704,4.523c1.79,2.344,2.701,5.012,2.701,8.007
			c0,3.547-1.204,6.606-3.645,9.146c-2.441,2.507-5.337,3.742-8.754,3.742H71.577v-6.898h2.474v-32.969h-2.474v-6.934h17.64v0.098
			c3.027,0.229,5.565,1.433,7.648,3.646c2.115,2.245,3.157,4.882,3.157,7.908c0,1.984-0.488,3.873-1.464,5.598
			C97.614,181.48,96.345,182.848,94.75,183.922z M92.732,175.719c0-1.725-0.586-3.222-1.757-4.426
			c-1.172-1.204-2.604-1.821-4.264-1.821h-5.012v12.465h5.012c1.66,0,3.092-0.618,4.264-1.823
			C92.146,178.91,92.732,177.445,92.732,175.719z M81.699,202.44h8.527c1.595-0.293,2.896-1.042,3.938-2.278
			c1.074-1.27,1.595-2.701,1.595-4.361c0-1.854-0.651-3.449-1.953-4.783c-1.302-1.334-2.864-1.985-4.686-1.985H81.7L81.699,202.44
			L81.699,202.44z"/>
		<path fill="#FFFFFF" d="M109.539,163.776h11.586v38.989h4.101v6.542h-15.687v-6.542h4.101V170.35h-4.101V163.776z"/>
		<path fill="#FFFFFF" d="M147.663,203.384c2.669,0,5.044-0.813,7.095-2.407h9.568c-1.595,2.962-3.873,5.338-6.802,7.128
			c-3.027,1.789-6.314,2.701-9.861,2.701c-5.175,0-9.601-1.759-13.278-5.339c-3.678-3.547-5.5-7.844-5.5-12.888
			c0-5.045,1.823-9.341,5.5-12.889c3.677-3.579,8.104-5.37,13.278-5.37c3.775,0,7.225,1.01,10.382,3.06
			c3.059,1.985,5.37,4.589,6.802,7.845c0.944,2.181,1.465,4.653,1.627,7.354l-29.259,4.198c0.879,1.984,2.246,3.58,4.101,4.784
			C143.237,202.766,145.353,203.384,147.663,203.384z M147.663,181.773c-2.506,0-4.751,0.716-6.737,2.115
			c-1.953,1.399-3.287,3.189-4.036,5.369l20.016-2.896c-1.042-1.399-2.376-2.538-3.971-3.353
			C151.276,182.196,149.518,181.773,147.663,181.773z"/>
		<path fill="#FFFFFF" d="M185.136,170.188c-1.79,0.261-2.864,0.455-3.189,0.618c-0.846,0.391-1.27,1.203-1.27,2.474v0.943h4.426
			v6.411h-4.426v22.132h2.539v6.443h-12.302v-6.443h2.539v-22.132h-2.506v-6.411h2.506v-0.487c0-3.157,1.139-5.663,3.417-7.551
			c2.148-1.79,4.914-2.701,8.267-2.8L185.136,170.188L185.136,170.188z"/>
		<path fill="#FFFFFF" d="M227.915,182.132h-2.539v20.731h2.539v6.379h-9.796v-2.733c-3.254,2.507-6.932,3.71-11.065,3.71
			c-4.979,0-9.243-1.691-12.791-5.175c-3.548-3.482-5.305-7.681-5.305-12.596c0-4.914,1.758-9.112,5.305-12.595
			c3.547-3.483,7.811-5.207,12.791-5.207c4.133,0,7.811,1.235,11.065,3.742v-2.701h9.796V182.132z M207.053,202.993
			c3.027,0,5.598-1.041,7.746-3.092c2.116-2.05,3.189-4.558,3.189-7.453c0-2.896-1.074-5.402-3.189-7.452
			c-2.148-2.051-4.719-3.092-7.746-3.092c-3.027,0-5.598,1.041-7.713,3.092c-2.148,2.05-3.222,4.557-3.222,7.452
			s1.074,5.403,3.222,7.453C201.455,201.952,204.026,202.993,207.053,202.993z"/>
		<path fill="#FFFFFF" d="M244.689,175.818v4.815c1.139-1.725,2.571-3.125,4.231-4.166c1.725-1.042,3.45-1.562,5.174-1.528
			c1.855,0.031,3.515,0.684,4.947,1.984c1.595,1.465,2.799,3.58,3.612,6.411c-2.213,0.749-4.523,1.596-6.965,2.506
			c-0.716-2.018-1.692-3.254-2.929-3.678c-1.074-0.391-2.213-0.195-3.482,0.618c-1.106,0.717-2.116,1.758-2.994,3.093
			c-0.846,1.302-1.367,2.506-1.497,3.646l-0.098,0.78v12.922l2.571-0.099v6.086h-12.335v-6.086h2.539v-20.992h-3.841v-6.313h3.841
			H244.689z"/>
		<path fill="#FFFFFF" d="M266.149,192.448c0-5.012,1.822-9.275,5.468-12.822c3.646-3.548,8.039-5.338,13.214-5.338
			c5.143,0,9.535,1.79,13.182,5.338c3.646,3.547,5.467,7.812,5.467,12.822c0,5.013-1.821,9.275-5.467,12.823
			c-3.646,3.548-8.039,5.305-13.182,5.305c-5.175,0-9.568-1.757-13.214-5.305C267.972,201.724,266.149,197.461,266.149,192.448z
			 M273.537,192.448c0,2.962,1.106,5.501,3.319,7.616c2.182,2.083,4.85,3.124,7.975,3.124c3.092,0,5.761-1.041,7.939-3.124
			c2.215-2.115,3.32-4.654,3.32-7.616c0-2.961-1.105-5.5-3.32-7.615c-2.18-2.115-4.849-3.157-7.939-3.157
			c-3.125,0-5.793,1.042-7.975,3.157C274.646,186.948,273.537,189.487,273.537,192.448z"/>
		<path fill="#FFFFFF" d="M346.388,192.416c0,4.851-1.758,8.982-5.305,12.434c-3.516,3.417-7.779,5.108-12.758,5.108
			c-4.103,0-7.778-1.204-11.066-3.645v13.57h-9.764v-6.347h2.571v-31.406h-2.571v-6.313h9.764v2.7
			c3.288-2.44,6.965-3.678,11.066-3.678c4.979,0,9.242,1.726,12.758,5.143C344.63,183.434,346.388,187.566,346.388,192.416z
			 M339.228,192.416c0-2.863-1.073-5.305-3.188-7.354c-2.115-2.051-4.688-3.06-7.713-3.06c-3.027,0-5.6,1.009-7.714,3.06
			c-2.115,2.051-3.189,4.491-3.189,7.354c0,2.864,1.074,5.306,3.189,7.355c2.114,2.05,4.687,3.06,7.714,3.06
			c3.025,0,5.598-1.01,7.713-3.06C338.153,197.721,339.228,195.28,339.228,192.416z"/>
		<path fill="#FFFFFF" d="M350.469,163.776h11.586v38.989h4.102v6.542h-15.688v-6.542h4.102V170.35h-4.102V163.776z"/>
		<path fill="#FFFFFF" d="M409.228,182.132h-2.538v20.731h2.538v6.379h-9.797v-2.733c-3.254,2.507-6.932,3.71-11.064,3.71
			c-4.979,0-9.242-1.691-12.79-5.175c-3.548-3.482-5.305-7.681-5.305-12.596c0-4.914,1.757-9.112,5.305-12.595
			c3.548-3.483,7.811-5.207,12.79-5.207c4.134,0,7.812,1.235,11.064,3.742v-2.701h9.797V182.132z M388.365,202.993
			c3.026,0,5.598-1.041,7.746-3.092c2.114-2.05,3.188-4.558,3.188-7.453c0-2.896-1.074-5.402-3.188-7.452
			c-2.148-2.051-4.72-3.092-7.746-3.092s-5.599,1.041-7.713,3.092c-2.148,2.05-3.224,4.557-3.224,7.452s1.074,5.403,3.224,7.453
			C382.768,201.952,385.339,202.993,388.365,202.993z"/>
		<path fill="#FFFFFF" d="M437.945,199.739c0.261,2.896-0.521,5.337-2.312,7.29c-2.051,2.213-5.108,3.319-9.211,3.319
			c-2.115,0-5.663-0.978-10.771-2.507l-0.424-0.13v-7.258h6.021v2.506c1.628,0.685,3.287,1.009,4.979,1.009
			c1.79,0,3.061-0.423,3.873-1.302c0.586-0.65,0.848-1.497,0.749-2.506c-0.098-1.042-0.487-1.888-1.172-2.571
			c-0.813-0.813-2.213-1.563-4.229-2.277c-6.314-2.245-9.699-5.695-10.122-10.316c-0.229-2.701,0.456-4.947,2.147-6.803
			c1.984-2.181,4.882-3.286,8.624-3.286c1.855,0,3.58,0.26,5.176,0.683l0.879,0.229c2.669,0.683,4.229,1.236,4.653,1.464
			l0.293,0.163v7.16h-6.021v-2.376c-1.399-0.651-2.962-0.978-4.654-0.978c-1.562,0-2.668,0.392-3.352,1.14
			c-0.521,0.554-0.749,1.205-0.651,2.019c0.098,1.009,0.488,1.79,1.172,2.408c0.813,0.716,2.312,1.497,4.558,2.344
			c3.188,1.203,5.563,2.636,7.127,4.295C436.807,195.117,437.718,197.233,437.945,199.739z"/>
		<path fill="#FFFFFF" d="M454.167,180.439v18.877c0,1.269,0.423,2.082,1.302,2.473c0.357,0.163,1.433,0.358,3.286,0.586v6.835
			c-3.449-0.098-6.281-1.009-8.461-2.799c-2.312-1.888-3.481-4.395-3.481-7.551v-18.421h-3.938v-6.444h3.938V163.32h7.354v10.675
			h4.523v6.444H454.167L454.167,180.439z"/>
		<path fill="#FFFFFF" d="M462.902,175.883h11.229v26.915h3.971v6.348h-15.198v-6.348h3.971V182.23h-3.971L462.902,175.883
			L462.902,175.883z M469.997,173.247c-1.204,0-2.181-0.456-3.026-1.367c-0.813-0.879-1.27-1.953-1.27-3.222
			c0-1.27,0.423-2.376,1.27-3.255c0.813-0.879,1.822-1.335,3.026-1.335s2.213,0.456,3.06,1.335c0.813,0.879,1.236,1.985,1.236,3.255
			c0,1.269-0.423,2.343-1.236,3.222C472.21,172.791,471.201,173.247,469.997,173.247z"/>
		<path fill="#FFFFFF" d="M521.173,182.132h-2.539v20.731h2.539v6.379h-9.796v-2.733c-3.255,2.507-6.933,3.71-11.065,3.71
			c-4.979,0-9.242-1.691-12.79-5.175c-3.549-3.482-5.306-7.681-5.306-12.596c0-4.914,1.757-9.112,5.306-12.595
			c3.548-3.483,7.811-5.207,12.791-5.207c4.133,0,7.811,1.235,11.064,3.742v-2.701h9.796V182.132L521.173,182.132z M500.313,202.993
			c3.025,0,5.598-1.041,7.744-3.092c2.115-2.05,3.189-4.558,3.189-7.453c0-2.896-1.074-5.402-3.189-7.452
			c-2.146-2.051-4.719-3.092-7.744-3.092c-3.027,0-5.6,1.041-7.715,3.092c-2.147,2.05-3.222,4.557-3.222,7.452
			s1.073,5.403,3.222,7.453C494.713,201.952,497.284,202.993,500.313,202.993z"/>
	</g>
</g>
</svg>
