<?xml version="1.0" encoding="utf-8"?>
<!-- Generator: Adobe Illustrator 16.0.0, SVG Export Plug-In . SVG Version: 6.00 Build 0)  -->
<!DOCTYPE svg PUBLIC "-//W3C//DTD SVG 1.1//EN" "http://www.w3.org/Graphics/SVG/1.1/DTD/svg11.dtd">
<svg version="1.1" id="Capa_1" xmlns="http://www.w3.org/2000/svg" xmlns:xlink="http://www.w3.org/1999/xlink" x="0px" y="0px"
	 width="619.605px" height="259.195px" viewBox="0 0 619.605 259.195" enable-background="new 0 0 619.605 259.195"
	 xml:space="preserve">
<g>
	<g>
		<polygon fill="#FF7900" points="216.127,93.347 214.294,96.941 588.867,96.941 588.867,93.347 		"/>
	</g>
	<g>
		<path fill="#FF7900" d="M130.673,229.49c-2.514,1.865-5.184,3.586-8.01,5.167c-2.827,1.579-5.733,2.896-8.717,3.949
			c-2.985,1.054-5.822,1.579-8.515,1.579c-0.856,0-1.657-0.087-2.399-0.262c-0.742-0.177-1.452-0.483-2.127-0.922
			c-0.677-0.438-1.341-1.053-1.993-1.843c-0.653-0.79-1.318-1.777-1.993-2.963c3.912-1.053,7.543-2.522,10.894-4.41
			c3.35-1.887,6.239-4.037,8.667-6.45s4.553-5.31,6.375-8.688c1.821-3.378,2.732-6.428,2.732-9.149c0-2.554-0.45-4.861-1.349-6.924
			c-0.898-2.062-2.145-3.821-3.74-5.278c-1.594-1.456-3.47-2.588-5.626-3.395s-4.492-1.211-7.008-1.211
			c-3.08,0-5.881,0.543-8.403,1.629c-2.522,1.085-4.798,2.546-6.829,4.384c-2.031,1.839-3.806,3.965-5.323,6.379
			c-1.518,2.414-2.779,4.95-3.783,7.606c-1.004,2.658-1.975,5.703-2.912,9.136c-0.938,3.433-1.406,6.389-1.406,8.869
			c0,1.335,0.068,2.647,0.198,3.94c-1.232,0.979-2.439,1.903-3.62,2.77c-1.077,0.77-2.188,1.528-3.332,2.274
			c-1.144,0.748-2.277,1.415-3.399,2.002c-1.122,0.589-2.188,1.052-3.197,1.392c-1.01,0.339-1.941,0.509-2.794,0.509
			c-0.875,0-1.607-0.271-2.196-0.815c-0.59-0.546-1.061-1.282-1.41-2.212c-0.35-0.93-0.602-1.985-0.754-3.165
			c-0.153-1.181-0.229-2.428-0.229-3.745c0-1.043,0.069-2.119,0.209-3.231c0.14-1.112,0.314-2.202,0.525-3.269
			c0.21-1.065,0.432-2.053,0.666-2.96c0.233-0.907,0.466-1.678,0.7-2.313c1.073-2.904,3.569-8.417,7.49-16.541
			c2.566-5.308,4.757-10.675,6.575-16.098c1.816-5.423,3.655-10.908,5.514-16.46c1.86-5.549,2.854-11.546,2.982-17.989
			c0.03-1.69,0.044-3.335,0.044-4.935c0-2.562-0.202-5.045-0.606-7.451c-0.403-2.404-1.066-4.517-1.985-6.339
			c-0.921-1.821-2.12-3.282-3.602-4.383c-1.48-1.101-3.276-1.652-5.385-1.652c-2.889,0-5.688,0.886-8.395,2.659
			c-2.709,1.772-5.259,4.229-7.651,7.37c-2.392,3.14-4.592,6.865-6.601,11.173c-2.009,4.308-3.648,9.02-4.919,14.137
			c-1.272,5.117-2.46,9.896-3.562,14.34c-1.103,4.442-1.722,9.578-1.856,15.409c-3.411,0.319-6.621,1.117-9.626,2.392
			c-3.007,1.274-5.935,3.164-8.784,5.67c-2.851,2.505-5.139,5.285-6.866,8.336c-1.728,3.053-3.299,5.979-4.712,8.78
			c-1.414,2.802-2.49,5.694-3.231,8.677c-0.741,2.983-1.111,5.934-1.111,8.848c0,2.73,0.347,5.375,1.043,7.932
			c0.695,2.557,1.75,4.844,3.164,6.858c1.414,2.016,3.186,3.63,5.318,4.844c2.13,1.214,4.655,1.819,7.572,1.819
			c2.07,0,4.13-0.345,6.179-1.036c2.047-0.689,4.074-1.607,6.076-2.752c2.003-1.143,3.939-2.488,5.807-4.036
			c1.868-1.55,3.634-3.18,5.3-4.896c1.102,2.765,2.399,4.98,3.893,6.648c1.494,1.669,2.986,2.943,4.479,3.824
			c1.494,0.882,2.871,1.465,4.136,1.752c1.263,0.286,2.216,0.428,2.859,0.428c1.092,0,2.294-0.2,3.607-0.605
			c1.313-0.405,2.664-0.929,4.055-1.572c1.391-0.645,2.804-1.383,4.241-2.217c1.436-0.834,2.804-1.681,4.106-2.538
			c2.32-1.536,4.666-3.231,7.036-5.088c0.689,1.232,1.464,2.399,2.335,3.49c2.095,2.626,4.714,4.717,7.856,6.269
			c3.143,1.555,6.81,2.33,11,2.33c2.694,0,5.463,0.036,7.981-0.936c16.518-6.376,24.737-30.137,24.737-30.137
			C135.317,225.86,133.186,227.626,130.673,229.49z M36.47,233.978c-0.54,0.797-1.135,1.563-1.786,2.3
			c-0.651,0.735-1.335,1.394-2.054,1.969c-0.72,0.577-1.472,1.046-2.257,1.403c-0.787,0.357-1.584,0.536-2.392,0.536
			c-1.571,0-2.851-0.175-3.837-0.525c-0.987-0.352-1.75-0.809-2.289-1.371c-0.538-0.561-0.908-1.192-1.111-1.896
			c-0.202-0.702-0.303-1.404-0.303-2.107c0-2.262,0.404-4.795,1.212-7.602c0.808-2.805,1.986-6.153,3.534-10.044
			c1.549-3.893,3.478-7.026,5.789-9.4c2.311-2.375,4.948-4.287,7.91-5.736c0.044-0.044,0.089,0.407,0.135,1.357
			c0.044,0.95,0.078,2.172,0.101,3.665c0.023,1.494,0.057,3.146,0.103,4.956c0.046,1.811,0.091,4.13,0.136,6.956
			c0.046,2.829,0.114,4.933,0.206,6.313c0.09,1.381,0.204,2.387,0.341,3.02C38.873,230.079,37.728,232.147,36.47,233.978z
			 M55.243,205.101v-0.683c0-0.682,0-1.659,0-2.933c0-1.272,0.024-2.762,0.073-4.468c0.049-1.707,0.135-3.594,0.257-5.663
			c0.122-2.069,0.282-4.219,0.477-6.446c0.098-1.093,0.265-2.935,0.5-5.526c0.235-2.592,0.548-5.504,0.939-8.732
			c0.392-3.229,1.01-6.528,1.858-9.898c0.847-3.37,1.63-6.487,2.352-9.357c0.722-2.869,1.674-5.213,2.861-7.03
			s2.51-2.726,3.971-2.726c0.82,0,1.448,0.472,1.881,1.414c0.433,0.943,0.65,2.626,0.65,5.051c0,1.842-0.14,4.334-0.418,7.476
			c-0.233,2.381-0.641,4.895-1.222,7.543c-0.583,2.649-1.295,5.325-2.137,8.027c-0.841,2.703-1.69,5.427-2.546,8.173
			c-0.856,2.745-1.722,5.383-2.597,7.91C60.039,193.167,57.739,199.123,55.243,205.101z M95.497,219.716
			c0.09-1.36,0.507-3.094,1.25-5.2c0.743-2.105,1.396-3.872,1.96-5.299c0.563-1.425,1.306-2.696,2.229-3.816
			c0.923-1.118,2.073-2.028,3.446-2.731c1.373-0.702,3.029-1.054,4.966-1.054c1.081,0,1.993,0.636,2.737,1.908
			c0.743,1.272,1.115,2.897,1.115,4.871c0,1.404-0.789,3.182-2.366,5.332c-1.577,2.149-3.187,3.86-4.831,5.134
			c-1.645,1.272-3.424,2.314-5.338,3.126c-1.914,0.813-3.682,1.218-5.304,1.218C95.362,222.238,95.407,221.077,95.497,219.716z"/>
		<path fill="#FF7900" d="M603.955,196.465c-2.785-2.785-6.742-3.993-10.468-5.316c-3.725-1.324-7.719-1.987-11.981-1.987
			c-4.981,0-9.469,0.91-13.463,2.727c-3.994,1.818-7.371,4.309-10.13,7.473c-2.761,3.163-4.88,6.889-6.362,11.175
			c-1.479,4.285-2.221,9.39-2.221,15.313c0,1.711,0.098,3.412,0.285,5.104c-0.177,0.126-0.352,0.257-0.53,0.382
			c-1.821,1.279-3.663,2.458-5.526,3.534c-1.864,1.077-3.638,2.009-5.322,2.794c-1.686,0.785-3.234,1.402-4.649,1.852
			c-1.416,0.449-2.595,0.672-3.537,0.672c-1.532,0-2.918-0.234-4.157-0.706c-1.238-0.471-2.285-1.233-3.142-2.289
			c-0.855-1.053-1.51-2.412-1.96-4.072s-0.675-3.702-0.675-6.125c0-0.942,0.011-1.975,0.033-3.097
			c0.021-1.121,0.056-2.288,0.102-3.501c0.044-1.211,0.089-2.433,0.134-3.669c0.044-1.233,0.089-2.433,0.135-3.601
			c0.135-2.692,0.291-5.43,0.472-8.212c1.126-1.391,2.354-2.951,3.684-4.68c1.33-1.727,2.648-3.487,3.956-5.283h25.877
			c1.078,0,2.067-0.525,2.965-1.58c0.898-1.054,1.349-2.419,1.349-4.095c0-1.448-0.201-2.648-0.605-3.597
			c-0.403-0.949-1.055-1.449-1.953-1.499c-0.763-0.044-1.728-0.09-2.894-0.134c-1.168-0.045-2.424-0.09-3.771-0.136
			c-1.346-0.043-2.738-0.085-4.173-0.12c-1.437-0.035-2.771-0.072-4.005-0.107c-1.235-0.036-2.323-0.099-3.266-0.19
			c-0.944-0.091-1.618-0.063-2.023,0.086c1.616-2.502,3.153-5.026,4.612-7.572c1.46-2.547,2.727-5.06,3.805-7.539
			c1.077-2.48,1.93-4.918,2.559-7.311c0.629-2.392,0.943-4.664,0.943-6.815c0-2.6-0.304-5.099-0.91-7.499
			c-0.605-2.398-1.469-4.494-2.592-6.288c-1.123-1.793-2.48-3.228-4.076-4.304c-1.595-1.076-3.356-1.614-5.287-1.614
			c-3.002,0-5.869,1.331-8.601,3.994c-2.733,2.663-5.254,6.198-7.56,10.605c-2.308,4.408-4.391,9.442-6.251,15.103
			c-1.858,5.66-3.392,11.512-4.602,17.554c-0.452,0.09-1.275,0.122-2.47,0.1c-1.196-0.021-2.55-0.056-4.061-0.102
			c-1.511-0.044-3.089-0.055-4.737-0.032c-1.646,0.022-3.157,0.126-4.533,0.313c-1.375,0.187-2.503,0.466-3.383,0.838
			c-0.878,0.371-1.319,0.91-1.319,1.619c0,0.45,0.023,0.987,0.067,1.61c0.046,0.626,0.204,1.226,0.475,1.799
			c0.272,0.574,0.702,1.074,1.288,1.5c0.587,0.424,1.424,0.711,2.507,0.859c2.439,0.301,4.303,0.551,5.59,0.751
			c1.287,0.199,2.349,0.387,3.185,0.562s1.627,0.35,2.372,0.524s1.796,0.361,3.151,0.562c-0.4,3.007-0.712,6.036-0.935,9.088
			c-0.223,3.053-0.332,5.924-0.332,8.616c0,6.876,0.431,13.061,1.292,18.559c-2.362,1.549-4.525,2.949-6.477,4.193
			c-2.871,1.84-4.375,2.738-4.51,2.692c-0.09-0.044-1.122,0.697-3.096,2.222c-0.404,0.403-1.347,0.874-2.828,1.413
			c-0.986,0.405-1.75,0.605-2.288,0.605c-1.481,0-2.569-0.896-3.266-2.692c-0.695-1.795-1.043-4.082-1.043-6.865
			c0-1.66,0.101-3.479,0.304-5.453c0.202-1.973,0.459-3.972,0.773-5.99c0.313-2.02,0.662-4.309,1.044-6.866
			c0.38-2.559,0.729-4.645,1.043-6.26c0.313-1.616,0.572-3.006,0.774-4.174c0.202-1.167,0.303-1.996,0.303-2.49
			c0-3.32-0.663-5.925-1.985-7.81c-1.325-1.885-3.109-2.826-5.352-2.826c-2.244,0-4.286,0.448-6.126,1.345
			c-1.841,0.899-3.479,2.559-4.914,4.982c-0.314,0.539-0.786,1.369-1.413,2.49c-0.63,1.122-1.325,2.413-2.088,3.871
			c-0.763,1.459-1.581,2.984-2.456,4.577c-0.876,1.594-1.694,3.422-2.457,5.485c-0.764,2.065-1.438,3.646-2.02,4.746
			c-0.583,1.1-1.01,1.896-1.279,2.39h-1.346c0-0.313,0.066-0.931,0.201-1.851c0.135-0.919,0.303-2.312,0.505-4.174
			c0.203-1.861,0.415-3.523,0.64-4.98c0.225-1.458,0.438-2.872,0.64-4.241s0.371-2.626,0.505-3.771
			c0.135-1.144,0.201-2.053,0.201-2.725c0-2.469-0.47-4.444-1.412-5.925c-0.943-1.481-2.626-2.221-5.05-2.221
			c-2.422,0-4.341,0.695-5.754,2.087c-1.415,1.391-2.368,3.119-2.861,5.183c-0.629,2.648-1.279,5.834-1.952,9.559
			c-0.673,3.726-1.279,7.909-1.817,12.554c-0.38,3.271-0.714,6.351-1.004,9.243c-0.854,0.688-1.762,1.39-2.729,2.106
			c-2.514,1.865-5.183,3.586-8.01,5.167c-2.827,1.579-5.733,2.896-8.718,3.949c-2.984,1.054-5.822,1.579-8.515,1.579
			c-0.856,0-1.657-0.087-2.398-0.262c-0.743-0.177-1.453-0.483-2.129-0.922c-0.677-0.438-1.341-1.053-1.993-1.843
			s-1.317-1.777-1.993-2.963c3.913-1.053,7.544-2.522,10.895-4.41c3.351-1.887,6.24-4.037,8.667-6.45
			c2.43-2.413,4.555-5.31,6.376-8.688c1.821-3.378,2.731-6.428,2.731-9.149c0-2.554-0.45-4.861-1.348-6.924
			c-0.898-2.062-2.146-3.821-3.74-5.278c-1.594-1.456-3.471-2.588-5.627-3.395s-4.492-1.211-7.008-1.211
			c-3.08,0-5.881,0.543-8.402,1.629c-2.523,1.085-4.798,2.546-6.83,4.384c-2.031,1.839-3.805,3.965-5.322,6.379
			s-2.779,4.95-3.782,7.606c-1.005,2.658-1.975,5.703-2.913,9.136c-0.938,3.433-1.406,6.389-1.406,8.869
			c0,2.341,0.201,4.619,0.602,6.83c-0.653,0.595-1.32,1.18-2.015,1.743c-1.032,0.838-2.087,1.574-3.164,2.207
			c-1.076,0.635-2.133,1.155-3.164,1.563c-1.032,0.407-2.019,0.611-2.961,0.611c-0.899,0-1.661-0.771-2.289-2.311
			c-0.629-1.54-0.942-3.533-0.942-5.979c0-3.126,0.156-6.081,0.471-8.866c0.313-2.785,0.785-5.877,1.414-9.274
			c0.628-3.397,1.099-6.5,1.413-9.309c0.313-2.809,0.472-5.774,0.472-8.9c0-2.038-0.73-3.611-2.188-4.721
			c-1.46-1.11-3.242-1.665-5.352-1.665c-1.885,0-3.479,0.624-4.779,1.869c-1.303,1.245-2.604,2.774-3.905,4.585
			c-1.346,1.857-2.793,4.01-4.341,6.455c-1.548,2.446-3.007,4.778-4.375,6.997c-1.369,2.22-2.638,4.45-3.805,6.693
			c-1.167,2.242-1.795,3.431-1.885,3.566l-0.74-0.815c0-0.09,0.022-0.271,0.068-0.543c0.134-0.861,0.269-1.518,0.403-1.971
			c0.808-2.808,1.369-4.96,1.684-6.454c0.403-1.722,0.762-3.17,1.077-4.349c0.269-1.042,0.537-2.582,0.806-4.621
			c0.225-1.584,0.337-3.26,0.337-5.027c0-2.038-0.672-3.611-2.019-4.721c-1.346-1.11-2.962-1.665-4.847-1.665
			c-2.019,0-3.759,0.612-5.217,1.834c-1.459,1.223-2.839,2.763-4.14,4.62c-1.347,1.857-2.76,3.997-4.241,6.42
			c-1.48,2.424-2.86,4.746-4.139,6.966c-1.28,2.219-2.469,4.461-3.568,6.726c-1.101,2.265-1.695,3.465-1.784,3.601l-0.74-0.815
			c0.672-3.805,1.323-7.246,1.952-10.328c0.044-0.09,0.224-1.268,0.539-3.531c0.179-1.178,0.313-2.333,0.404-3.466
			c0.134-1.131,0.235-2.196,0.303-3.193c0.067-0.996,0.101-1.881,0.101-2.649c0-1.403-0.045-2.514-0.134-3.33
			c-0.091-0.815-0.371-1.437-0.842-1.867s-1.189-0.701-2.154-0.815s-2.3-0.17-4.005-0.17c-1.123,0-2.042,0.079-2.76,0.237
			c-0.719,0.159-1.336,0.477-1.852,0.951c-0.516,0.477-0.976,1.144-1.379,2.004c-0.404,0.861-0.832,2.017-1.279,3.467
			c-0.449,1.402-0.942,3.216-1.481,5.435c-0.539,2.22-1.066,4.666-1.582,7.338c-0.517,2.673-1.123,5.805-1.818,9.396
			c-0.696,3.592-1.223,6.788-1.582,9.589c-0.262,2.04-0.486,4.005-0.676,5.9c-0.928,0.666-1.879,1.314-2.861,1.941
			c-1.661,1.057-3.288,2.003-4.88,2.837c-1.594,0.834-3.097,1.499-4.51,1.995c-1.415,0.494-2.615,0.742-3.602,0.742
			c-0.776,0-1.368-0.214-1.776-0.643c-0.408-0.428-0.709-1.036-0.903-1.824s-0.311-1.711-0.349-2.771
			c-0.039-1.059-0.058-2.218-0.058-3.479c0-0.781,0.16-2.031,0.48-3.75c0.319-1.719,0.693-3.727,1.12-6.019
			c0.427-2.293,0.966-5.191,1.618-8.696c0.651-3.504,1.206-6.49,1.666-8.96c0.46-2.469,0.73-4.748,0.811-6.836
			c0.081-2.086,0.121-3.737,0.121-4.949c0-1.256-0.65-2.29-1.95-3.098c-1.3-0.807-3.055-1.212-5.264-1.212
			c-1.95,0-3.695,0.37-5.233,1.11c-1.538,0.741-2.415,1.649-2.631,2.727l-7.421,36.683c-0.361,1.873-0.902,3.519-1.622,4.934
			c-0.721,1.462-1.553,2.651-2.499,3.564c-0.901,1.005-1.87,1.77-2.905,2.296c-1.036,0.526-2.05,0.787-3.04,0.787
			c-0.676,0-1.262-0.184-1.757-0.555c-0.496-0.371-0.9-0.857-1.216-1.459s-0.551-1.286-0.709-2.049
			c-0.158-0.764-0.237-1.563-0.237-2.396c0-0.047,0.116-0.714,0.347-2.006c0.232-1.291,0.535-2.982,0.912-5.076
			c0.377-2.094,0.876-4.874,1.5-8.343c0.623-3.469,1.189-6.62,1.698-9.453c0.509-2.834,1.015-5.647,1.519-8.439
			c0.502-2.79,0.957-5.698,1.361-8.727c0-0.971-0.517-1.784-1.549-2.44c-1.033-0.656-2.738-1.043-5.116-1.157
			c-1.436,0.045-2.726,0.428-3.871,1.145c-1.144,0.718-2.143,1.639-2.995,2.76c-0.853,1.123-1.594,2.38-2.221,3.77
			c-0.629,1.392-1.156,2.761-1.582,4.106c-0.427,1.346-0.745,2.593-0.956,3.741c-0.211,1.149-0.377,2.055-0.5,2.718
			c-1.165,9.071-2.418,15.897-3.761,20.479c-0.126,0.464-0.242,0.964-0.351,1.489c-1.012,1.226-2.019,2.388-3.021,3.483
			c-0.942,1.022-1.941,2.014-2.995,2.971c-1.055,0.956-2.11,1.813-3.164,2.569c-1.056,0.756-2.098,1.366-3.131,1.834
			c-1.032,0.467-2.019,0.701-2.961,0.701c-1.257,0-2.076-0.58-2.457-1.739c-0.381-1.16-0.572-2.768-0.572-4.823
			c0-2.407,0.37-5.366,1.111-8.878c0.741-3.513,1.401-6.641,1.98-9.385c0.578-2.742,1.093-5.423,1.542-8.037
			c0.448-2.614,0.673-4.993,0.673-7.139c0-1.406-0.124-2.518-0.37-3.334c-0.248-0.815-0.595-1.45-1.045-1.904
			c-0.451-0.452-0.969-0.747-1.556-0.885c-0.586-0.136-1.219-0.203-1.896-0.203c-0.497,0-1.004,0.01-1.523,0.033
			c-0.52,0.024-1.027,0.034-1.523,0.034c-0.586,0-1.163-0.034-1.727-0.102c-0.564-0.068-1.118-0.216-1.658-0.442
			c-0.543-0.228-0.994-0.59-1.355-1.089c-0.362-0.498-0.734-1.008-1.117-1.529c-0.384-0.522-0.869-0.987-1.455-1.396
			c-0.587-0.407-1.401-0.612-2.438-0.612c-3.116,0-6.174,0.661-9.176,1.98c-3.002,1.318-5.857,3.096-8.566,5.333
			c-2.709,2.235-5.203,4.851-7.482,7.847c-2.28,2.996-4.413,6.552-6.398,10.666c-1.987,4.115-3.454,7.938-4.402,11.47
			c-0.948,3.533-1.422,6.976-1.422,10.33c0,2.987,0.472,5.67,1.415,8.046c0.942,2.377,2.198,4.394,3.769,6.046
			c1.57,1.652,3.376,2.92,5.419,3.802c2.042,0.884,4.14,1.324,6.294,1.324c2.035,0,4.07-0.332,6.107-0.999
			c2.036-0.666,3.992-1.521,5.87-2.564c1.876-1.043,3.607-2.21,5.19-3.498c1.584-1.288,2.918-2.554,4.005-3.797
			c1.447,3.598,3.166,6.341,5.157,8.229c1.99,1.887,4.476,2.831,7.458,2.831c2.467,0,4.936-0.612,7.405-1.838
			c2.467-1.226,4.779-2.723,6.933-4.494c0.966-0.792,1.882-1.606,2.762-2.437c0.063,0.249,0.13,0.492,0.202,0.728
			c0.58,1.906,1.375,3.444,2.38,4.609c1.006,1.167,2.157,1.997,3.453,2.49c1.296,0.493,2.682,0.739,4.156,0.739
			c1.797,0,3.65-0.364,5.56-1.096c1.91-0.73,3.797-1.738,5.662-3.022c1.865-1.284,3.696-2.801,5.494-4.55
			c1.796-1.749,3.505-3.664,5.122-5.745c0.441,2.036,0.959,3.883,1.554,5.541c0.596,1.659,1.324,3.086,2.184,4.281
			c0.861,1.194,1.886,2.125,3.077,2.788c1.19,0.663,2.625,0.994,4.302,0.994c1.646,0,3.433-0.232,5.36-0.696
			c1.927-0.465,3.899-1.085,5.919-1.86c2.019-0.774,4.027-1.672,6.024-2.689c1.687-0.86,3.288-1.755,4.815-2.679
			c0,0.003,0,0.005,0.001,0.007c0.202,1.634,0.605,3.092,1.211,4.377c0.606,1.286,1.47,2.311,2.592,3.071
			c1.121,0.764,2.602,1.144,4.443,1.144c1.436,0,2.748-0.316,3.938-0.947c1.188-0.631,2.232-1.841,3.13-3.628
			c3.097-6.053,5.621-11.169,7.573-15.347c1.952-4.177,3.556-7.575,4.813-10.193c1.256-2.62,2.232-4.606,2.929-5.961
			c0.694-1.354,1.313-2.37,1.851-3.048h1.011c-0.719,4.146-1.325,8.021-1.818,11.627c-0.225,1.533-0.449,3.077-0.673,4.632
			c-0.225,1.555-0.427,3.03-0.606,4.427c-0.18,1.398-0.314,2.638-0.403,3.719c-0.09,1.082-0.135,1.916-0.135,2.501
			c0,1.351,0.078,2.746,0.235,4.183c0.157,1.438,0.472,2.755,0.942,3.953c0.472,1.198,1.133,2.179,1.985,2.939
			c0.853,0.764,1.997,1.144,3.434,1.144c1.885,0,3.545-0.322,4.981-0.97c1.436-0.646,2.736-1.905,3.904-3.778l13.665-34.581h1.009
			c-0.359,3.262-0.639,6.489-0.842,9.682c-0.2,3.194-0.303,6.218-0.303,9.07c0,2.945,0.146,5.672,0.438,8.18
			c0.293,2.506,0.775,4.682,1.449,6.528c0.672,1.847,1.558,3.287,2.658,4.319c1.099,1.034,2.456,1.55,4.072,1.55
			c3.274,0,6.215-0.425,8.817-1.274s4.992-1.938,7.17-3.267c2.176-1.328,4.24-2.809,6.192-4.442
			c0.558-0.466,1.117-0.918,1.676-1.376c0.403,0.605,0.826,1.194,1.278,1.761c2.095,2.626,4.714,4.717,7.856,6.269
			c3.142,1.555,6.81,2.33,10.999,2.33c2.695,0,5.356-0.311,7.981-0.936c2.626-0.624,5.16-1.456,7.606-2.496
			c2.445-1.039,4.779-2.229,7.001-3.569c2.026-1.222,3.925-2.466,5.709-3.728c0.047,0.632,0.103,1.26,0.176,1.877
			c0.202,1.682,0.607,3.187,1.213,4.509c0.605,1.325,1.47,2.38,2.592,3.164c1.12,0.787,2.602,1.179,4.442,1.179
			c1.48,0,2.781-0.337,3.904-1.009c1.076-0.629,2.087-1.885,3.029-3.771l17.637-35.004h1.076c-0.539,3.592-0.987,6.945-1.347,10.064
			c-0.36,3.119-0.537,6.024-0.537,8.717c0,6.865,0.84,12.084,2.523,15.65c1.683,3.567,3.758,5.352,6.226,5.352
			c2.469,0,4.824-0.359,7.069-1.077c0.851-0.225,3.029-1.121,6.529-2.692c1.435-0.628,5.003-2.468,10.703-5.52
			c3.947-2.109,6.059-3.276,6.327-3.5l0.493-0.375c0.159,0.388,0.32,0.775,0.487,1.148c1.74,3.883,3.904,6.856,6.494,8.92
			c2.588,2.064,5.579,3.096,8.972,3.096c1.663,0,3.517-0.313,5.562-0.942c2.044-0.628,4.38-1.57,7.01-2.827
			c2.629-1.256,5.628-2.827,8.999-4.712c1.806-1.01,3.751-2.112,5.826-3.302c0.427,0.837,0.889,1.647,1.392,2.427
			c1.795,2.782,4.096,5.037,6.9,6.765c2.804,1.729,6.182,2.592,10.131,2.592c2.735,0,5.317-0.472,7.741-1.414
			s4.655-2.221,6.698-3.837c2.041-1.614,3.857-3.521,5.451-5.722c1.594-2.198,2.939-4.554,4.04-7.067
			c1.099-2.513,1.94-5.116,2.523-7.809c0.582-2.693,0.875-5.362,0.875-8.01c0-3.636-0.325-6.9-0.976-9.795
			c-0.651-2.895-1.627-5.643-2.929-8.245l0.539-0.742c1.615,1.078,3.544,2.414,5.789,4.006c2.243,1.594,4.521,3.534,6.832,5.822
			c2.312,2.289,4.499,4.376,6.563,6.261c2.063,1.885,3.702,3.635,4.913,5.251C619.605,223.964,615.272,207.782,603.955,196.465z
			 M523.595,171.169c0.968-3.832,2.004-7.342,3.109-10.527c1.103-3.185,2.251-5.802,3.445-7.851
			c1.194-2.049,2.377-3.074,3.549-3.074c0.854,0,1.521,0.179,1.993,0.536c0.474,0.358,0.823,0.805,1.048,1.341
			c0.225,0.536,0.371,1.105,0.438,1.709c0.068,0.604,0.102,1.15,0.102,1.641c0,1.419-0.384,3.237-1.149,5.455
			c-0.765,2.217-1.733,4.6-2.905,7.149s-2.489,5.144-3.953,7.781c-1.465,2.638-2.872,5.088-4.224,7.349
			c-0.722-0.065-1.42-0.124-2.095-0.175c-0.677-0.05-1.353-0.108-2.027-0.175C521.737,178.721,522.627,174.999,523.595,171.169z
			 M198.987,223.363c-0.179,1.446-0.573,3.254-1.18,5.423c-0.607,2.168-1.406,4.27-2.395,6.302
			c-0.989,2.033-2.158,3.773-3.506,5.218c-1.349,1.446-2.854,2.17-4.517,2.17c-1.034,0-1.889-0.267-2.563-0.799
			c-0.674-0.533-1.213-1.226-1.617-2.082c-0.405-0.856-0.686-1.829-0.844-2.916c-0.158-1.088-0.236-2.211-0.236-3.368
			c0-1.957,0.258-4.048,0.774-6.272c0.516-2.224,1.402-4.804,2.66-7.74c1.255-2.937,2.534-5.404,3.836-7.408
			c1.301-2.001,2.727-3.781,4.274-5.337c1.548-1.557,3.198-2.792,4.948-3.704c1.75-0.912,3.544-1.369,5.385-1.369L198.987,223.363z
			 M400.565,219.716c0.092-1.36,0.508-3.094,1.25-5.2c0.743-2.105,1.396-3.872,1.961-5.299c0.563-1.425,1.307-2.696,2.229-3.816
			c0.924-1.118,2.072-2.028,3.445-2.731c1.374-0.702,3.029-1.054,4.968-1.054c1.08,0,1.991,0.636,2.735,1.908
			c0.742,1.272,1.114,2.897,1.114,4.871c0,1.404-0.788,3.182-2.365,5.332c-1.576,2.149-3.187,3.86-4.83,5.134
			c-1.646,1.272-3.424,2.314-5.338,3.126c-1.915,0.813-3.684,1.218-5.305,1.218C400.43,222.238,400.475,221.077,400.565,219.716z
			 M584.972,225.612c-0.651,3.344-1.514,6.193-2.591,8.549c-1.078,2.355-2.335,4.309-3.771,5.856
			c-1.437,1.549-2.917,2.323-4.442,2.323c-1.751,0-3.254-0.371-4.51-1.11c-1.257-0.74-2.267-1.728-3.029-2.963
			c-0.764-1.233-1.325-2.681-1.683-4.341c-0.359-1.66-0.539-3.433-0.539-5.319c0-3.724,0.359-7.067,1.077-10.028
			c0.718-2.963,1.704-5.666,2.962-8.112c1.256-2.445,2.714-4.453,4.376-6.024c1.658-1.57,3.409-2.355,5.251-2.355
			c1.39,0,2.578,0.381,3.566,1.145c0.986,0.762,1.795,1.795,2.424,3.096c0.628,1.303,1.099,2.839,1.413,4.611
			c0.313,1.773,0.472,3.69,0.472,5.756C585.949,219.297,585.623,222.27,584.972,225.612z"/>
	</g>
	<g>
		<linearGradient id="SVGID_1_" gradientUnits="userSpaceOnUse" x1="143.8335" y1="20.4463" x2="157.3931" y2="20.4463">
			<stop  offset="0" style="stop-color:#FFFFFF"/>
			<stop  offset="0.1467" style="stop-color:#F9F9F9"/>
			<stop  offset="0.5857" style="stop-color:#ECECEC"/>
			<stop  offset="1" style="stop-color:#E8E8E8"/>
		</linearGradient>
		<path fill="url(#SVGID_1_)" d="M143.833,5.381h13.56v7.411c0,4.727-0.583,8.792-1.749,12.193
			c-1.166,3.402-3.13,6.911-5.892,10.527l-5.273-4.128c1.327-1.93,2.304-3.601,2.932-5.012c0.627-1.412,1.246-3.278,1.856-5.602
			h-5.435V5.381z"/>
		<linearGradient id="SVGID_2_" gradientUnits="userSpaceOnUse" x1="371.689" y1="75.4131" x2="388.5845" y2="75.4131">
			<stop  offset="0" style="stop-color:#FFFFFF"/>
			<stop  offset="0.1467" style="stop-color:#F9F9F9"/>
			<stop  offset="0.5857" style="stop-color:#ECECEC"/>
			<stop  offset="1" style="stop-color:#E8E8E8"/>
		</linearGradient>
		<path fill="url(#SVGID_2_)" d="M380.138,66.993c2.33,0,4.321,0.816,5.971,2.448c1.649,1.633,2.476,3.614,2.476,5.945
			c0,2.332-0.826,4.323-2.476,5.972c-1.649,1.65-3.641,2.476-5.971,2.476c-2.333,0-4.324-0.826-5.975-2.476
			c-1.649-1.649-2.475-3.64-2.475-5.972c0-2.331,0.825-4.313,2.475-5.945C375.814,67.809,377.805,66.993,380.138,66.993z"/>
	</g>
	<g>
		<linearGradient id="SVGID_3_" gradientUnits="userSpaceOnUse" x1="0.293" y1="194.2373" x2="133.0742" y2="194.2373">
			<stop  offset="0" style="stop-color:#FFDE00"/>
			<stop  offset="0.2705" style="stop-color:#FFD000"/>
			<stop  offset="0.6458" style="stop-color:#FFC300"/>
			<stop  offset="1" style="stop-color:#FFBF00"/>
		</linearGradient>
		<path fill="url(#SVGID_3_)" d="M126.68,233.084c-2.514,1.865-5.184,3.587-8.01,5.168c-2.827,1.579-5.734,2.896-8.717,3.949
			c-2.985,1.053-5.823,1.579-8.516,1.579c-0.856,0-1.656-0.087-2.399-0.264c-0.743-0.175-1.453-0.481-2.127-0.92
			c-0.677-0.44-1.341-1.054-1.994-1.843c-0.653-0.79-1.317-1.778-1.993-2.963c3.913-1.054,7.544-2.524,10.895-4.41
			c3.35-1.888,6.239-4.037,8.667-6.451c2.428-2.412,4.553-5.31,6.375-8.688c1.822-3.379,2.733-6.428,2.733-9.149
			c0-2.554-0.45-4.863-1.349-6.924c-0.898-2.063-2.146-3.821-3.74-5.278c-1.594-1.456-3.471-2.588-5.627-3.396
			c-2.156-0.806-4.492-1.21-7.008-1.21c-3.08,0-5.88,0.543-8.402,1.627c-2.522,1.086-4.798,2.548-6.829,4.386
			c-2.032,1.839-3.806,3.964-5.323,6.378c-1.518,2.414-2.779,4.949-3.783,7.606c-1.004,2.658-1.975,5.703-2.912,9.136
			c-0.938,3.434-1.406,6.389-1.406,8.869c0,1.336,0.068,2.647,0.198,3.94c-1.232,0.979-2.439,1.904-3.62,2.77
			c-1.077,0.771-2.188,1.528-3.332,2.275c-1.144,0.746-2.278,1.413-3.399,2.002c-1.122,0.589-2.188,1.052-3.197,1.392
			c-1.01,0.339-1.942,0.509-2.793,0.509c-0.875,0-1.607-0.271-2.196-0.817c-0.59-0.544-1.06-1.281-1.409-2.211
			c-0.35-0.931-0.602-1.985-0.754-3.165c-0.153-1.18-0.229-2.428-0.229-3.744c0-1.043,0.069-2.121,0.209-3.231
			c0.14-1.112,0.314-2.202,0.525-3.269c0.21-1.066,0.432-2.053,0.666-2.961c0.233-0.906,0.466-1.679,0.7-2.313
			c1.073-2.905,3.569-8.418,7.489-16.541c2.567-5.309,4.758-10.674,6.576-16.097c1.816-5.423,3.655-10.91,5.514-16.46
			s2.854-11.547,2.982-17.99c0.029-1.689,0.044-3.335,0.044-4.934c0-2.562-0.202-5.046-0.606-7.452
			c-0.403-2.404-1.066-4.517-1.985-6.339c-0.921-1.82-2.121-3.282-3.602-4.383c-1.48-1.101-3.276-1.652-5.385-1.652
			c-2.889,0-5.688,0.886-8.396,2.659c-2.708,1.772-5.258,4.229-7.65,7.37c-2.393,3.141-4.592,6.865-6.602,11.173
			c-2.009,4.309-3.648,9.02-4.919,14.138c-1.271,5.117-2.459,9.896-3.561,14.34c-1.104,4.442-1.722,9.578-1.856,15.408
			c-3.411,0.32-6.62,1.117-9.626,2.392c-3.007,1.274-5.935,3.165-8.784,5.671c-2.851,2.504-5.139,5.283-6.866,8.336
			c-1.729,3.053-3.299,5.978-4.712,8.778c-1.414,2.803-2.491,5.694-3.231,8.679c-0.741,2.983-1.111,5.933-1.111,8.848
			c0,2.73,0.347,5.374,1.043,7.93c0.695,2.559,1.75,4.845,3.164,6.86c1.414,2.015,3.186,3.63,5.318,4.843
			c2.13,1.213,4.655,1.82,7.572,1.82c2.07,0,4.13-0.347,6.178-1.037c2.048-0.69,4.073-1.606,6.076-2.751
			c2.003-1.144,3.939-2.49,5.807-4.038c1.868-1.548,3.634-3.18,5.3-4.895c1.102,2.763,2.399,4.979,3.893,6.648
			c1.493,1.668,2.986,2.942,4.479,3.824c1.494,0.881,2.871,1.465,4.136,1.75c1.263,0.287,2.216,0.43,2.859,0.43
			c1.092,0,2.294-0.201,3.606-0.606c1.313-0.405,2.664-0.929,4.056-1.573c1.391-0.644,2.804-1.381,4.241-2.216
			c1.436-0.833,2.803-1.68,4.106-2.539c2.32-1.534,4.665-3.23,7.036-5.087c0.689,1.233,1.464,2.399,2.335,3.491
			c2.095,2.626,4.713,4.715,7.856,6.269c3.143,1.553,6.81,2.33,11,2.33c2.694,0,5.463,0.035,7.98-0.937
			c16.518-6.377,24.738-30.138,24.738-30.138C131.324,229.453,129.192,231.22,126.68,233.084z M32.477,237.571
			c-0.54,0.798-1.136,1.563-1.786,2.3c-0.651,0.736-1.336,1.393-2.054,1.97c-0.72,0.575-1.472,1.044-2.257,1.401
			c-0.787,0.359-1.584,0.538-2.392,0.538c-1.571,0-2.851-0.176-3.837-0.527c-0.987-0.351-1.75-0.808-2.289-1.369
			c-0.538-0.562-0.909-1.194-1.111-1.896s-0.303-1.405-0.303-2.107c0-2.262,0.404-4.797,1.211-7.602
			c0.808-2.805,1.986-6.154,3.534-10.046c1.548-3.891,3.477-7.024,5.789-9.399c2.311-2.374,4.947-4.286,7.91-5.735
			c0.044-0.046,0.089,0.407,0.134,1.357c0.044,0.95,0.078,2.172,0.101,3.665c0.023,1.493,0.057,3.146,0.103,4.954
			c0.045,1.811,0.091,4.13,0.136,6.957c0.045,2.828,0.114,4.934,0.205,6.313c0.091,1.38,0.204,2.388,0.341,3.021
			C34.88,233.673,33.734,235.742,32.477,237.571z M51.25,208.694v-0.683c0-0.681,0-1.66,0-2.934c0-1.272,0.024-2.762,0.073-4.468
			s0.135-3.593,0.257-5.663c0.122-2.068,0.281-4.217,0.477-6.446c0.098-1.091,0.265-2.933,0.5-5.526
			c0.234-2.59,0.547-5.502,0.939-8.731c0.392-3.229,1.01-6.528,1.858-9.898c0.847-3.368,1.63-6.487,2.352-9.356
			c0.722-2.869,1.674-5.212,2.861-7.03c1.187-1.817,2.51-2.726,3.97-2.726c0.821,0,1.449,0.472,1.882,1.415
			c0.433,0.942,0.65,2.626,0.65,5.051c0,1.841-0.141,4.333-0.419,7.475c-0.233,2.381-0.64,4.896-1.222,7.543
			c-0.583,2.65-1.295,5.325-2.137,8.028c-0.841,2.702-1.69,5.427-2.546,8.171c-0.856,2.746-1.722,5.384-2.597,7.912
			C56.044,196.762,53.746,202.717,51.25,208.694z M91.503,223.31c0.091-1.36,0.507-3.094,1.251-5.199
			c0.743-2.105,1.396-3.872,1.959-5.299c0.563-1.426,1.307-2.698,2.23-3.816c0.923-1.12,2.072-2.029,3.446-2.731
			c1.374-0.704,3.029-1.054,4.967-1.054c1.081,0,1.993,0.636,2.736,1.908c0.743,1.272,1.115,2.897,1.115,4.871
			c0,1.404-0.789,3.182-2.366,5.331c-1.577,2.15-3.187,3.861-4.831,5.134c-1.645,1.272-3.423,2.315-5.337,3.127
			s-3.683,1.218-5.304,1.218C91.369,225.833,91.414,224.67,91.503,223.31z"/>
		<linearGradient id="SVGID_4_" gradientUnits="userSpaceOnUse" x1="160.9043" y1="198.7139" x2="615.6128" y2="198.7139">
			<stop  offset="0" style="stop-color:#FFDE00"/>
			<stop  offset="0.2705" style="stop-color:#FFD000"/>
			<stop  offset="0.6458" style="stop-color:#FFC300"/>
			<stop  offset="1" style="stop-color:#FFBF00"/>
		</linearGradient>
		<path fill="url(#SVGID_4_)" d="M599.962,200.06c-2.787-2.786-6.744-3.993-10.468-5.318c-3.727-1.322-7.719-1.985-11.982-1.985
			c-4.98,0-9.47,0.908-13.463,2.727c-3.994,1.817-7.37,4.309-10.131,7.473c-2.759,3.163-4.88,6.889-6.361,11.173
			c-1.48,4.286-2.222,9.391-2.222,15.313c0,1.713,0.098,3.413,0.287,5.104c-0.179,0.128-0.354,0.257-0.532,0.384
			c-1.819,1.279-3.661,2.456-5.524,3.533c-1.865,1.078-3.64,2.01-5.324,2.794c-1.685,0.786-3.234,1.403-4.649,1.851
			c-1.416,0.449-2.595,0.674-3.537,0.674c-1.532,0-2.917-0.235-4.155-0.707c-1.24-0.472-2.286-1.233-3.143-2.288
			s-1.51-2.412-1.961-4.073c-0.45-1.659-0.675-3.702-0.675-6.126c0-0.942,0.011-1.973,0.034-3.096
			c0.022-1.121,0.055-2.289,0.101-3.5c0.045-1.211,0.09-2.435,0.135-3.669c0.044-1.233,0.09-2.435,0.134-3.601
			c0.136-2.693,0.293-5.43,0.472-8.213c1.128-1.391,2.355-2.95,3.685-4.679c1.33-1.727,2.648-3.488,3.956-5.283h25.877
			c1.078,0,2.066-0.527,2.966-1.581c0.897-1.053,1.347-2.418,1.347-4.096c0-1.447-0.201-2.646-0.605-3.596
			c-0.403-0.948-1.055-1.448-1.951-1.498c-0.764-0.044-1.729-0.09-2.895-0.136c-1.167-0.044-2.424-0.089-3.77-0.135
			c-1.347-0.044-2.738-0.084-4.174-0.121c-1.438-0.035-2.771-0.07-4.006-0.106s-2.323-0.099-3.266-0.191
			c-0.943-0.09-1.617-0.061-2.021,0.087c1.614-2.502,3.153-5.026,4.611-7.573c1.459-2.545,2.728-5.059,3.805-7.538
			c1.076-2.48,1.93-4.917,2.56-7.311c0.627-2.392,0.941-4.663,0.941-6.815c0-2.6-0.303-5.099-0.909-7.498
			c-0.605-2.398-1.47-4.495-2.592-6.289c-1.123-1.792-2.481-3.228-4.076-4.304c-1.594-1.075-3.355-1.614-5.287-1.614
			c-3.002,0-5.868,1.332-8.602,3.995c-2.733,2.663-5.253,6.197-7.56,10.605c-2.308,4.408-4.391,9.442-6.249,15.102
			c-1.859,5.661-3.394,11.513-4.604,17.554c-0.451,0.089-1.275,0.123-2.469,0.1c-1.196-0.022-2.55-0.055-4.06-0.101
			c-1.513-0.045-3.091-0.057-4.737-0.034c-1.647,0.023-3.157,0.128-4.533,0.313c-1.377,0.188-2.503,0.466-3.385,0.839
			c-0.878,0.372-1.317,0.911-1.317,1.62c0,0.449,0.021,0.985,0.066,1.61s0.205,1.225,0.475,1.799
			c0.271,0.574,0.701,1.074,1.287,1.499c0.589,0.425,1.424,0.71,2.507,0.86c2.439,0.301,4.304,0.55,5.591,0.749
			c1.288,0.201,2.349,0.388,3.185,0.563c0.835,0.174,1.626,0.351,2.372,0.525c0.744,0.175,1.795,0.361,3.151,0.561
			c-0.401,3.008-0.712,6.037-0.935,9.088c-0.224,3.052-0.333,5.923-0.333,8.617c0,6.874,0.431,13.06,1.292,18.558
			c-2.361,1.549-4.525,2.95-6.475,4.194c-2.873,1.84-4.377,2.736-4.511,2.692c-0.09-0.045-1.121,0.695-3.096,2.221
			c-0.405,0.403-1.348,0.875-2.827,1.414c-0.988,0.403-1.75,0.605-2.289,0.605c-1.48,0-2.57-0.896-3.265-2.692
			c-0.697-1.795-1.044-4.083-1.044-6.866c0-1.659,0.102-3.478,0.303-5.452c0.202-1.975,0.461-3.972,0.775-5.99
			c0.313-2.021,0.66-4.309,1.043-6.867c0.381-2.558,0.728-4.645,1.042-6.261c0.313-1.614,0.573-3.006,0.775-4.173
			c0.201-1.167,0.303-1.997,0.303-2.491c0-3.32-0.663-5.923-1.986-7.808c-1.324-1.885-3.107-2.827-5.351-2.827
			c-2.245,0-4.286,0.449-6.126,1.346c-1.841,0.898-3.479,2.559-4.913,4.982c-0.316,0.537-0.786,1.369-1.415,2.49
			c-0.628,1.122-1.323,2.413-2.086,3.869c-0.764,1.459-1.582,2.985-2.457,4.579c-0.876,1.594-1.694,3.422-2.457,5.485
			c-0.764,2.064-1.437,3.646-2.021,4.745c-0.583,1.101-1.009,1.896-1.278,2.391h-1.346c0-0.313,0.067-0.931,0.202-1.852
			c0.134-0.92,0.303-2.312,0.504-4.174c0.202-1.861,0.415-3.522,0.64-4.981c0.224-1.458,0.438-2.871,0.639-4.24
			c0.203-1.368,0.371-2.625,0.506-3.77c0.134-1.145,0.202-2.053,0.202-2.727c0-2.468-0.472-4.443-1.414-5.923
			c-0.942-1.481-2.624-2.222-5.048-2.222s-4.343,0.696-5.756,2.087c-1.414,1.392-2.367,3.119-2.861,5.183
			c-0.629,2.648-1.278,5.835-1.951,9.559c-0.673,3.726-1.279,7.909-1.817,12.554c-0.38,3.272-0.715,6.35-1.004,9.243
			c-0.854,0.688-1.763,1.391-2.729,2.106c-2.514,1.865-5.184,3.587-8.011,5.168c-2.827,1.579-5.732,2.896-8.717,3.949
			c-2.984,1.053-5.822,1.579-8.516,1.579c-0.855,0-1.656-0.087-2.398-0.264c-0.743-0.175-1.453-0.481-2.128-0.92
			c-0.676-0.44-1.342-1.054-1.992-1.843c-0.654-0.79-1.318-1.778-1.993-2.963c3.911-1.054,7.542-2.524,10.893-4.41
			c3.351-1.888,6.24-4.037,8.669-6.451c2.428-2.412,4.553-5.31,6.375-8.688c1.821-3.379,2.732-6.428,2.732-9.149
			c0-2.554-0.45-4.863-1.35-6.924c-0.897-2.063-2.145-3.821-3.739-5.278c-1.595-1.456-3.471-2.588-5.626-3.396
			c-2.156-0.806-4.493-1.21-7.009-1.21c-3.079,0-5.882,0.543-8.403,1.627c-2.521,1.086-4.798,2.548-6.828,4.386
			c-2.031,1.839-3.807,3.964-5.324,6.378s-2.778,4.949-3.782,7.606c-1.004,2.658-1.975,5.703-2.912,9.136
			c-0.938,3.434-1.406,6.389-1.406,8.869c0,2.342,0.2,4.618,0.602,6.83c-0.654,0.596-1.321,1.18-2.016,1.742
			c-1.032,0.839-2.087,1.574-3.164,2.209c-1.076,0.634-2.131,1.153-3.163,1.563c-1.032,0.408-2.02,0.61-2.962,0.61
			c-0.897,0-1.661-0.769-2.289-2.309s-0.942-3.533-0.942-5.98c0-3.125,0.158-6.079,0.472-8.864c0.314-2.786,0.784-5.878,1.413-9.275
			c0.629-3.396,1.099-6.499,1.415-9.308c0.313-2.81,0.471-5.774,0.471-8.9c0-2.039-0.73-3.612-2.188-4.722s-3.242-1.666-5.352-1.666
			c-1.885,0-3.478,0.624-4.779,1.869c-1.301,1.245-2.603,2.774-3.903,4.587c-1.348,1.856-2.793,4.008-4.343,6.453
			c-1.548,2.447-3.007,4.78-4.375,6.999c-1.369,2.219-2.637,4.45-3.803,6.692c-1.168,2.242-1.796,3.431-1.885,3.566l-0.741-0.814
			c0-0.092,0.021-0.271,0.067-0.545c0.135-0.859,0.271-1.517,0.403-1.969c0.808-2.81,1.369-4.96,1.684-6.456
			c0.403-1.72,0.763-3.17,1.077-4.348c0.269-1.041,0.537-2.583,0.808-4.62c0.225-1.586,0.337-3.262,0.337-5.027
			c0-2.039-0.674-3.612-2.02-4.722c-1.347-1.109-2.962-1.666-4.847-1.666c-2.02,0-3.759,0.612-5.217,1.835
			c-1.459,1.224-2.839,2.764-4.141,4.621c-1.346,1.856-2.759,3.996-4.24,6.42s-2.861,4.745-4.14,6.964
			c-1.279,2.221-2.468,4.463-3.567,6.728c-1.1,2.264-1.695,3.464-1.784,3.6l-0.741-0.814c0.673-3.805,1.324-7.248,1.953-10.328
			c0.044-0.09,0.224-1.268,0.539-3.533c0.179-1.177,0.313-2.332,0.404-3.464c0.134-1.132,0.235-2.196,0.303-3.193
			s0.101-1.881,0.101-2.651c0-1.403-0.045-2.513-0.135-3.328s-0.37-1.438-0.841-1.867c-0.471-0.431-1.19-0.702-2.154-0.816
			c-0.965-0.113-2.3-0.171-4.005-0.171c-1.123,0-2.042,0.081-2.76,0.239c-0.718,0.158-1.335,0.477-1.851,0.951
			c-0.517,0.476-0.976,1.144-1.38,2.004c-0.404,0.859-0.831,2.016-1.279,3.466c-0.449,1.403-0.942,3.216-1.48,5.435
			c-0.539,2.22-1.066,4.666-1.582,7.338c-0.516,2.672-1.123,5.805-1.817,9.396c-0.696,3.59-1.223,6.788-1.582,9.589
			c-0.262,2.038-0.487,4.004-0.676,5.9c-0.928,0.666-1.879,1.313-2.861,1.939c-1.661,1.059-3.288,2.005-4.88,2.838
			c-1.593,0.834-3.096,1.499-4.51,1.994c-1.414,0.496-2.614,0.742-3.601,0.742c-0.776,0-1.368-0.212-1.776-0.641
			c-0.409-0.428-0.709-1.036-0.903-1.824c-0.194-0.789-0.311-1.713-0.349-2.771c-0.039-1.059-0.058-2.219-0.058-3.48
			c0-0.78,0.16-2.031,0.479-3.75c0.32-1.718,0.693-3.725,1.12-6.018c0.427-2.294,0.966-5.192,1.618-8.696
			c0.651-3.505,1.207-6.491,1.666-8.96c0.46-2.47,0.73-4.747,0.811-6.836c0.08-2.087,0.121-3.736,0.121-4.949
			c0-1.257-0.65-2.289-1.95-3.097c-1.3-0.808-3.055-1.213-5.264-1.213c-1.95,0-3.695,0.371-5.232,1.111
			c-1.538,0.739-2.415,1.649-2.632,2.727l-7.421,36.683c-0.361,1.873-0.901,3.518-1.622,4.934c-0.721,1.462-1.553,2.65-2.5,3.563
			c-0.901,1.006-1.87,1.77-2.905,2.297c-1.036,0.524-2.05,0.787-3.041,0.787c-0.675,0-1.261-0.186-1.756-0.555
			c-0.496-0.371-0.901-0.857-1.216-1.459c-0.316-0.603-0.551-1.286-0.709-2.05c-0.157-0.764-0.236-1.563-0.236-2.396
			c0-0.047,0.116-0.715,0.347-2.006c0.231-1.291,0.535-2.983,0.912-5.075c0.377-2.094,0.876-4.875,1.5-8.343
			c0.623-3.47,1.189-6.62,1.699-9.453c0.509-2.834,1.015-5.648,1.519-8.439c0.502-2.792,0.957-5.7,1.361-8.727
			c0-0.971-0.517-1.785-1.548-2.442c-1.033-0.655-2.738-1.041-5.116-1.156c-1.436,0.046-2.726,0.427-3.871,1.145
			c-1.144,0.718-2.143,1.639-2.995,2.76c-0.853,1.122-1.594,2.379-2.221,3.771c-0.629,1.392-1.156,2.759-1.582,4.105
			c-0.427,1.346-0.746,2.594-0.956,3.742c-0.211,1.148-0.378,2.055-0.5,2.718c-1.165,9.07-2.418,15.896-3.761,20.478
			c-0.126,0.465-0.242,0.964-0.351,1.489c-1.012,1.225-2.019,2.388-3.021,3.482c-0.942,1.024-1.941,2.014-2.995,2.971
			c-1.055,0.958-2.11,1.814-3.164,2.569c-1.056,0.756-2.099,1.368-3.131,1.836c-1.033,0.466-2.019,0.699-2.961,0.699
			c-1.257,0-2.076-0.58-2.458-1.738c-0.382-1.159-0.572-2.768-0.572-4.823c0-2.406,0.37-5.365,1.111-8.879
			c0.741-3.512,1.401-6.64,1.98-9.383c0.578-2.743,1.093-5.423,1.542-8.037c0.448-2.615,0.673-4.993,0.673-7.141
			c0-1.404-0.124-2.517-0.37-3.332c-0.248-0.815-0.596-1.451-1.045-1.905c-0.451-0.453-0.969-0.748-1.556-0.884
			c-0.587-0.136-1.219-0.205-1.896-0.205c-0.497,0-1.004,0.012-1.524,0.035c-0.519,0.023-1.026,0.034-1.522,0.034
			c-0.586,0-1.164-0.034-1.727-0.104c-0.564-0.066-1.118-0.214-1.658-0.44c-0.543-0.228-0.995-0.591-1.355-1.089
			c-0.362-0.499-0.734-1.009-1.117-1.529c-0.384-0.522-0.869-0.987-1.456-1.396c-0.586-0.408-1.4-0.612-2.438-0.612
			c-3.115,0-6.173,0.66-9.175,1.98c-3.002,1.317-5.857,3.096-8.566,5.331c-2.709,2.237-5.203,4.853-7.482,7.848
			c-2.28,2.997-4.414,6.551-6.399,10.666c-1.986,4.115-3.454,7.938-4.401,11.47c-0.948,3.533-1.422,6.977-1.422,10.329
			c0,2.989,0.471,5.671,1.414,8.048s2.199,4.392,3.77,6.044c1.57,1.652,3.376,2.92,5.418,3.804c2.042,0.882,4.14,1.323,6.294,1.323
			c2.035,0,4.07-0.333,6.107-1c2.036-0.665,3.992-1.521,5.869-2.563c1.877-1.045,3.607-2.21,5.19-3.5
			c1.583-1.286,2.918-2.553,4.004-3.796c1.448,3.598,3.167,6.342,5.157,8.229c1.99,1.889,4.476,2.832,7.458,2.832
			c2.467,0,4.936-0.611,7.404-1.837s4.78-2.723,6.934-4.494c0.966-0.794,1.882-1.608,2.762-2.437c0.063,0.249,0.13,0.49,0.202,0.727
			c0.581,1.907,1.375,3.443,2.38,4.61c1.006,1.167,2.157,1.995,3.453,2.488c1.295,0.494,2.682,0.74,4.156,0.74
			c1.796,0,3.65-0.365,5.56-1.096s3.796-1.737,5.662-3.021c1.864-1.285,3.696-2.802,5.494-4.55c1.796-1.749,3.504-3.665,5.122-5.746
			c0.44,2.036,0.959,3.883,1.554,5.541c0.595,1.66,1.324,3.087,2.184,4.28c0.86,1.196,1.886,2.125,3.076,2.79
			c1.191,0.662,2.625,0.994,4.302,0.994c1.646,0,3.433-0.232,5.36-0.697c1.926-0.465,3.899-1.084,5.919-1.859
			s4.027-1.672,6.024-2.69c1.687-0.861,3.289-1.754,4.815-2.678c0,0.002,0,0.004,0,0.006c0.203,1.633,0.606,3.093,1.212,4.378
			c0.606,1.285,1.47,2.311,2.592,3.071c1.122,0.762,2.602,1.144,4.442,1.144c1.436,0,2.749-0.316,3.938-0.948
			c1.188-0.632,2.232-1.842,3.13-3.627c3.097-6.054,5.621-11.17,7.573-15.348c1.952-4.176,3.556-7.575,4.812-10.193
			c1.256-2.619,2.232-4.605,2.929-5.96c0.695-1.355,1.313-2.372,1.851-3.05h1.01c-0.718,4.147-1.324,8.023-1.817,11.628
			c-0.225,1.532-0.449,3.076-0.673,4.633c-0.225,1.553-0.427,3.03-0.605,4.427c-0.18,1.396-0.314,2.637-0.404,3.719
			c-0.09,1.08-0.135,1.914-0.135,2.5c0,1.352,0.078,2.745,0.235,4.182c0.158,1.438,0.472,2.757,0.943,3.954
			c0.471,1.198,1.132,2.18,1.986,2.94c0.852,0.762,1.996,1.144,3.433,1.144c1.885,0,3.545-0.324,4.981-0.97
			c1.436-0.646,2.737-1.906,3.904-3.78l13.665-34.579h1.01c-0.36,3.262-0.641,6.488-0.843,9.682
			c-0.201,3.194-0.302,6.217-0.302,9.069c0,2.946,0.145,5.673,0.438,8.179c0.291,2.507,0.773,4.683,1.447,6.529
			s1.559,3.287,2.658,4.32c1.1,1.032,2.457,1.55,4.072,1.55c3.276,0,6.216-0.425,8.819-1.274c2.602-0.85,4.991-1.938,7.168-3.267
			c2.177-1.329,4.242-2.809,6.193-4.444c0.557-0.466,1.117-0.917,1.676-1.374c0.403,0.604,0.826,1.194,1.277,1.761
			c2.097,2.626,4.715,4.715,7.857,6.269c3.143,1.553,6.809,2.33,11,2.33c2.693,0,5.354-0.313,7.98-0.937
			c2.625-0.624,5.16-1.456,7.605-2.495c2.446-1.039,4.779-2.229,7.001-3.569c2.027-1.224,3.926-2.466,5.71-3.728
			c0.047,0.631,0.103,1.259,0.177,1.876c0.202,1.683,0.605,3.188,1.211,4.51c0.605,1.325,1.47,2.379,2.592,3.164
			c1.121,0.785,2.603,1.179,4.443,1.179c1.479,0,2.782-0.337,3.904-1.011c1.076-0.628,2.086-1.885,3.028-3.77l17.637-35.003h1.077
			c-0.539,3.591-0.988,6.944-1.346,10.063c-0.36,3.121-0.539,6.025-0.539,8.718c0,6.866,0.842,12.083,2.524,15.65
			c1.682,3.568,3.757,5.353,6.227,5.353c2.467,0,4.822-0.359,7.067-1.077c0.853-0.225,3.029-1.122,6.53-2.692
			c1.436-0.628,5.002-2.469,10.702-5.521c3.949-2.107,6.059-3.274,6.327-3.499l0.495-0.376c0.159,0.39,0.318,0.777,0.485,1.15
			c1.741,3.882,3.905,6.854,6.494,8.918c2.59,2.064,5.58,3.098,8.972,3.098c1.663,0,3.517-0.313,5.562-0.942
			c2.045-0.628,4.382-1.57,7.011-2.827c2.628-1.257,5.627-2.828,8.999-4.713c1.805-1.009,3.751-2.112,5.827-3.301
			c0.427,0.835,0.888,1.646,1.392,2.426c1.793,2.783,4.094,5.038,6.898,6.765c2.806,1.729,6.182,2.593,10.131,2.593
			c2.737,0,5.319-0.472,7.742-1.414s4.654-2.222,6.697-3.837c2.041-1.616,3.859-3.522,5.453-5.722
			c1.592-2.198,2.938-4.554,4.038-7.067c1.099-2.515,1.94-5.117,2.524-7.81c0.583-2.692,0.876-5.361,0.876-8.01
			c0-3.635-0.327-6.9-0.977-9.795c-0.651-2.894-1.628-5.643-2.929-8.246l0.539-0.74c1.615,1.077,3.545,2.413,5.788,4.006
			c2.243,1.594,4.521,3.533,6.832,5.822c2.313,2.289,4.499,4.375,6.564,6.26c2.063,1.886,3.702,3.635,4.914,5.25
			C615.613,227.557,611.278,211.376,599.962,200.06z M519.603,174.762c0.967-3.831,2.003-7.34,3.107-10.526
			c1.104-3.185,2.253-5.802,3.447-7.851c1.192-2.048,2.376-3.074,3.549-3.074c0.854,0,1.519,0.179,1.992,0.536
			c0.473,0.358,0.822,0.805,1.047,1.341c0.227,0.536,0.372,1.105,0.438,1.709c0.068,0.604,0.103,1.15,0.103,1.642
			c0,1.418-0.384,3.236-1.148,5.454c-0.767,2.217-1.735,4.601-2.907,7.149c-1.172,2.55-2.489,5.144-3.952,7.781
			c-1.464,2.639-2.872,5.087-4.225,7.349c-0.721-0.066-1.42-0.123-2.095-0.175c-0.675-0.049-1.351-0.108-2.027-0.175
			C517.745,182.314,518.633,178.594,519.603,174.762z M194.994,226.958c-0.18,1.446-0.574,3.254-1.18,5.422
			c-0.606,2.169-1.405,4.269-2.394,6.303c-0.989,2.033-2.158,3.771-3.507,5.218c-1.348,1.446-2.854,2.169-4.517,2.169
			c-1.034,0-1.888-0.266-2.562-0.799c-0.674-0.532-1.214-1.227-1.618-2.083c-0.405-0.855-0.686-1.827-0.843-2.915
			c-0.158-1.088-0.236-2.21-0.236-3.368c0-1.957,0.258-4.048,0.774-6.272c0.516-2.224,1.402-4.803,2.66-7.739
			c1.255-2.937,2.534-5.406,3.836-7.408c1.301-2.002,2.726-3.781,4.274-5.338c1.548-1.558,3.198-2.791,4.947-3.703
			c1.75-0.912,3.545-1.369,5.385-1.369L194.994,226.958z M396.573,223.31c0.09-1.36,0.506-3.094,1.25-5.199
			c0.743-2.105,1.396-3.872,1.959-5.299c0.563-1.426,1.307-2.698,2.229-3.816c0.924-1.12,2.072-2.029,3.447-2.731
			c1.373-0.704,3.029-1.054,4.966-1.054c1.08,0,1.993,0.636,2.737,1.908c0.742,1.272,1.114,2.897,1.114,4.871
			c0,1.404-0.788,3.182-2.366,5.331c-1.575,2.15-3.187,3.861-4.831,5.134s-3.423,2.315-5.338,3.127
			c-1.913,0.812-3.682,1.218-5.304,1.218C396.437,225.833,396.481,224.67,396.573,223.31z M580.978,229.207
			c-0.649,3.344-1.514,6.192-2.59,8.549c-1.077,2.355-2.334,4.309-3.77,5.856c-1.438,1.548-2.919,2.321-4.443,2.321
			c-1.75,0-3.255-0.369-4.511-1.11c-1.257-0.74-2.266-1.727-3.029-2.962c-0.763-1.233-1.324-2.681-1.682-4.341
			c-0.36-1.66-0.539-3.434-0.539-5.318c0-3.724,0.358-7.067,1.078-10.03c0.716-2.961,1.704-5.664,2.961-8.11
			c1.256-2.445,2.715-4.453,4.375-6.024c1.66-1.57,3.41-2.357,5.251-2.357c1.39,0,2.58,0.383,3.568,1.145
			c0.985,0.764,1.793,1.796,2.422,3.098c0.628,1.303,1.101,2.839,1.414,4.611c0.314,1.772,0.471,3.69,0.471,5.754
			C581.955,222.891,581.629,225.864,580.978,229.207z"/>
	</g>
	<g>
		<linearGradient id="SVGID_5_" gradientUnits="userSpaceOnUse" x1="0.293" y1="193.8379" x2="133.0742" y2="193.8379">
			<stop  offset="0" style="stop-color:#FFDE00"/>
			<stop  offset="0.2705" style="stop-color:#FFD000"/>
			<stop  offset="0.6458" style="stop-color:#FFC300"/>
			<stop  offset="1" style="stop-color:#FFBF00"/>
		</linearGradient>
		<path fill="url(#SVGID_5_)" d="M126.68,232.686c-2.514,1.864-5.184,3.586-8.01,5.167c-2.827,1.579-5.734,2.896-8.717,3.949
			c-2.985,1.053-5.823,1.579-8.516,1.579c-0.856,0-1.656-0.087-2.399-0.264c-0.743-0.175-1.453-0.481-2.127-0.92
			c-0.677-0.44-1.341-1.054-1.994-1.843c-0.653-0.79-1.317-1.778-1.993-2.963c3.913-1.054,7.544-2.523,10.895-4.41
			c3.35-1.888,6.239-4.037,8.667-6.451c2.428-2.412,4.553-5.31,6.375-8.688c1.822-3.379,2.733-6.428,2.733-9.149
			c0-2.554-0.45-4.863-1.349-6.924c-0.898-2.063-2.146-3.821-3.74-5.278c-1.594-1.456-3.471-2.588-5.627-3.396
			c-2.156-0.806-4.492-1.21-7.008-1.21c-3.08,0-5.88,0.543-8.402,1.627c-2.522,1.086-4.798,2.548-6.829,4.386
			c-2.032,1.839-3.806,3.964-5.323,6.378c-1.518,2.414-2.779,4.949-3.783,7.606c-1.004,2.658-1.975,5.703-2.912,9.137
			c-0.938,3.433-1.406,6.388-1.406,8.868c0,1.336,0.068,2.647,0.198,3.94c-1.232,0.979-2.439,1.904-3.62,2.77
			c-1.077,0.771-2.188,1.528-3.332,2.275c-1.144,0.746-2.278,1.413-3.399,2.002c-1.122,0.589-2.188,1.052-3.197,1.392
			c-1.01,0.339-1.942,0.509-2.793,0.509c-0.875,0-1.607-0.271-2.196-0.817c-0.59-0.544-1.06-1.281-1.409-2.211
			c-0.35-0.931-0.602-1.985-0.754-3.165c-0.153-1.18-0.229-2.428-0.229-3.744c0-1.043,0.069-2.121,0.209-3.231
			c0.14-1.112,0.314-2.202,0.525-3.269c0.21-1.066,0.432-2.053,0.666-2.961c0.233-0.906,0.466-1.679,0.7-2.313
			c1.073-2.903,3.569-8.418,7.489-16.541c2.567-5.309,4.758-10.674,6.576-16.097c1.816-5.423,3.655-10.909,5.514-16.46
			c1.859-5.55,2.854-11.547,2.982-17.99c0.029-1.69,0.044-3.335,0.044-4.935c0-2.562-0.202-5.046-0.606-7.451
			c-0.403-2.404-1.066-4.518-1.985-6.339c-0.921-1.82-2.121-3.282-3.602-4.382c-1.48-1.102-3.276-1.652-5.385-1.652
			c-2.889,0-5.688,0.886-8.396,2.659c-2.708,1.772-5.258,4.229-7.65,7.37c-2.393,3.141-4.592,6.865-6.602,11.173
			c-2.009,4.309-3.648,9.02-4.919,14.138c-1.271,5.117-2.459,9.896-3.561,14.34c-1.104,4.442-1.722,9.578-1.856,15.408
			c-3.411,0.32-6.62,1.117-9.626,2.392c-3.007,1.274-5.935,3.165-8.784,5.671c-2.851,2.505-5.139,5.283-6.866,8.336
			c-1.729,3.053-3.299,5.978-4.712,8.778c-1.414,2.803-2.491,5.694-3.231,8.679c-0.741,2.983-1.111,5.933-1.111,8.848
			c0,2.73,0.347,5.374,1.043,7.932c0.695,2.557,1.75,4.843,3.164,6.858c1.414,2.015,3.186,3.63,5.318,4.844
			c2.13,1.212,4.655,1.819,7.572,1.819c2.07,0,4.13-0.347,6.178-1.037c2.048-0.69,4.073-1.606,6.076-2.751
			c2.003-1.144,3.939-2.489,5.807-4.038c1.868-1.548,3.634-3.18,5.3-4.895c1.102,2.763,2.399,4.979,3.893,6.648
			c1.493,1.668,2.986,2.942,4.479,3.824c1.494,0.881,2.871,1.465,4.136,1.75c1.263,0.287,2.216,0.43,2.859,0.43
			c1.092,0,2.294-0.201,3.606-0.606c1.313-0.405,2.664-0.929,4.056-1.572c1.391-0.645,2.804-1.382,4.241-2.217
			c1.436-0.833,2.803-1.68,4.106-2.539c2.32-1.534,4.665-3.23,7.036-5.087c0.689,1.233,1.464,2.399,2.335,3.491
			c2.095,2.626,4.713,4.716,7.856,6.269c3.143,1.553,6.81,2.33,11,2.33c2.694,0,5.463,0.035,7.98-0.937
			c16.518-6.377,24.738-30.138,24.738-30.138C131.324,229.054,129.192,230.82,126.68,232.686z M32.477,237.172
			c-0.54,0.798-1.136,1.564-1.786,2.3c-0.651,0.736-1.336,1.393-2.054,1.97c-0.72,0.577-1.472,1.044-2.257,1.401
			c-0.787,0.359-1.584,0.538-2.392,0.538c-1.571,0-2.851-0.176-3.837-0.527c-0.987-0.351-1.75-0.808-2.289-1.369
			c-0.538-0.562-0.909-1.194-1.111-1.896s-0.303-1.404-0.303-2.107c0-2.262,0.404-4.795,1.211-7.602
			c0.808-2.805,1.986-6.154,3.534-10.046c1.548-3.891,3.477-7.024,5.789-9.399c2.311-2.374,4.947-4.286,7.91-5.735
			c0.044-0.046,0.089,0.407,0.134,1.357c0.044,0.95,0.078,2.172,0.101,3.665c0.023,1.493,0.057,3.146,0.103,4.954
			c0.045,1.811,0.091,4.13,0.136,6.957c0.045,2.828,0.114,4.934,0.205,6.313c0.091,1.38,0.204,2.388,0.341,3.021
			C34.88,233.273,33.734,235.343,32.477,237.172z M51.25,208.295v-0.683c0-0.681,0-1.66,0-2.933s0.024-2.763,0.073-4.469
			s0.135-3.592,0.257-5.661c0.122-2.07,0.281-4.219,0.477-6.448c0.098-1.091,0.265-2.933,0.5-5.525
			c0.234-2.591,0.547-5.503,0.939-8.732c0.392-3.229,1.01-6.528,1.858-9.898c0.847-3.368,1.63-6.487,2.352-9.355
			c0.722-2.87,1.674-5.213,2.861-7.031c1.187-1.817,2.51-2.726,3.97-2.726c0.821,0,1.449,0.472,1.882,1.415
			c0.433,0.942,0.65,2.626,0.65,5.051c0,1.841-0.141,4.333-0.419,7.475c-0.233,2.381-0.64,4.896-1.222,7.544
			c-0.583,2.649-1.295,5.324-2.137,8.027c-0.841,2.702-1.69,5.427-2.546,8.171c-0.856,2.746-1.722,5.384-2.597,7.912
			C56.044,196.362,53.746,202.317,51.25,208.295z M91.503,222.911c0.091-1.36,0.507-3.095,1.251-5.2
			c0.743-2.105,1.396-3.872,1.959-5.299c0.563-1.426,1.307-2.698,2.23-3.816c0.923-1.12,2.072-2.029,3.446-2.731
			c1.374-0.704,3.029-1.054,4.967-1.054c1.081,0,1.993,0.636,2.736,1.908c0.743,1.272,1.115,2.897,1.115,4.871
			c0,1.404-0.789,3.182-2.366,5.331c-1.577,2.15-3.187,3.861-4.831,5.134c-1.645,1.272-3.423,2.315-5.337,3.127
			s-3.683,1.218-5.304,1.218C91.369,225.434,91.414,224.271,91.503,222.911z"/>
		<linearGradient id="SVGID_6_" gradientUnits="userSpaceOnUse" x1="160.9043" y1="198.3135" x2="615.6128" y2="198.3135">
			<stop  offset="0" style="stop-color:#FFDE00"/>
			<stop  offset="0.2705" style="stop-color:#FFD000"/>
			<stop  offset="0.6458" style="stop-color:#FFC300"/>
			<stop  offset="1" style="stop-color:#FFBF00"/>
		</linearGradient>
		<path fill="url(#SVGID_6_)" d="M599.962,199.66c-2.787-2.785-6.744-3.993-10.468-5.318c-3.727-1.322-7.719-1.985-11.982-1.985
			c-4.98,0-9.47,0.908-13.463,2.727c-3.994,1.818-7.37,4.309-10.131,7.473c-2.759,3.163-4.88,6.889-6.361,11.173
			c-1.48,4.286-2.222,9.391-2.222,15.313c0,1.713,0.098,3.413,0.287,5.104c-0.179,0.128-0.354,0.257-0.532,0.384
			c-1.819,1.279-3.661,2.456-5.524,3.533c-1.865,1.078-3.64,2.01-5.324,2.794c-1.685,0.786-3.234,1.403-4.649,1.851
			c-1.416,0.449-2.595,0.674-3.537,0.674c-1.532,0-2.917-0.234-4.155-0.707c-1.24-0.472-2.286-1.233-3.143-2.288
			s-1.51-2.412-1.961-4.073c-0.45-1.659-0.675-3.702-0.675-6.126c0-0.941,0.011-1.973,0.034-3.096
			c0.022-1.121,0.055-2.289,0.101-3.5c0.045-1.211,0.09-2.435,0.135-3.669c0.044-1.233,0.09-2.435,0.134-3.601
			c0.136-2.693,0.293-5.43,0.472-8.213c1.128-1.391,2.355-2.95,3.685-4.679c1.33-1.727,2.648-3.488,3.956-5.283h25.877
			c1.078,0,2.066-0.527,2.966-1.581c0.897-1.053,1.347-2.418,1.347-4.096c0-1.447-0.201-2.646-0.605-3.596
			c-0.403-0.948-1.055-1.448-1.951-1.498c-0.764-0.044-1.729-0.09-2.895-0.136c-1.167-0.044-2.424-0.089-3.77-0.134
			c-1.347-0.045-2.738-0.085-4.174-0.122c-1.438-0.035-2.771-0.07-4.006-0.106c-1.234-0.035-2.323-0.099-3.266-0.191
			c-0.943-0.09-1.617-0.061-2.021,0.087c1.614-2.502,3.153-5.026,4.611-7.573c1.459-2.545,2.728-5.059,3.805-7.538
			c1.076-2.48,1.93-4.917,2.56-7.311c0.627-2.391,0.941-4.663,0.941-6.815c0-2.6-0.303-5.099-0.909-7.498
			c-0.605-2.398-1.47-4.495-2.592-6.289c-1.123-1.792-2.481-3.228-4.076-4.304c-1.594-1.075-3.355-1.614-5.287-1.614
			c-3.002,0-5.868,1.332-8.602,3.995c-2.733,2.663-5.253,6.198-7.56,10.605c-2.308,4.408-4.391,9.441-6.249,15.102
			c-1.859,5.661-3.394,11.513-4.604,17.554c-0.451,0.089-1.275,0.123-2.469,0.1c-1.196-0.022-2.55-0.055-4.06-0.101
			c-1.513-0.044-3.091-0.057-4.737-0.034c-1.647,0.023-3.157,0.128-4.533,0.313c-1.377,0.188-2.503,0.466-3.385,0.839
			c-0.878,0.372-1.317,0.911-1.317,1.62c0,0.45,0.021,0.985,0.066,1.61s0.205,1.225,0.475,1.799
			c0.271,0.574,0.701,1.074,1.287,1.499c0.589,0.425,1.424,0.711,2.507,0.86c2.439,0.301,4.304,0.55,5.591,0.749
			c1.288,0.201,2.349,0.388,3.185,0.563c0.835,0.174,1.626,0.351,2.372,0.525c0.744,0.175,1.795,0.361,3.151,0.561
			c-0.401,3.008-0.712,6.037-0.935,9.088c-0.224,3.052-0.333,5.923-0.333,8.617c0,6.876,0.431,13.06,1.292,18.558
			c-2.361,1.55-4.525,2.95-6.475,4.194c-2.873,1.84-4.377,2.736-4.511,2.692c-0.09-0.045-1.121,0.695-3.096,2.222
			c-0.405,0.403-1.348,0.874-2.827,1.413c-0.988,0.403-1.75,0.605-2.289,0.605c-1.48,0-2.57-0.896-3.265-2.692
			c-0.697-1.795-1.044-4.083-1.044-6.866c0-1.659,0.102-3.478,0.303-5.452c0.202-1.975,0.461-3.972,0.775-5.99
			c0.313-2.021,0.66-4.309,1.043-6.867c0.381-2.558,0.728-4.645,1.042-6.261c0.313-1.614,0.573-3.006,0.775-4.173
			c0.201-1.166,0.303-1.996,0.303-2.491c0-3.32-0.663-5.923-1.986-7.808c-1.324-1.885-3.107-2.827-5.351-2.827
			c-2.245,0-4.286,0.449-6.126,1.346c-1.841,0.898-3.479,2.559-4.913,4.982c-0.316,0.537-0.786,1.369-1.415,2.49
			c-0.628,1.122-1.323,2.413-2.086,3.869c-0.764,1.459-1.582,2.985-2.457,4.579c-0.876,1.594-1.694,3.422-2.457,5.485
			c-0.764,2.064-1.437,3.646-2.021,4.745c-0.583,1.101-1.009,1.896-1.278,2.391h-1.346c0-0.313,0.067-0.931,0.202-1.852
			c0.134-0.92,0.303-2.311,0.504-4.174c0.202-1.86,0.415-3.522,0.64-4.981c0.224-1.458,0.438-2.871,0.639-4.24
			c0.203-1.368,0.371-2.625,0.506-3.77c0.134-1.145,0.202-2.053,0.202-2.727c0-2.467-0.472-4.442-1.414-5.923
			c-0.942-1.481-2.624-2.222-5.048-2.222s-4.343,0.696-5.756,2.087c-1.414,1.392-2.367,3.12-2.861,5.184
			c-0.629,2.647-1.278,5.834-1.951,9.558c-0.673,3.726-1.279,7.91-1.817,12.554c-0.38,3.272-0.715,6.35-1.004,9.243
			c-0.854,0.688-1.763,1.391-2.729,2.107c-2.514,1.864-5.184,3.586-8.011,5.167c-2.827,1.579-5.732,2.896-8.717,3.949
			c-2.984,1.053-5.822,1.579-8.516,1.579c-0.855,0-1.656-0.087-2.398-0.264c-0.743-0.175-1.453-0.481-2.128-0.92
			c-0.676-0.44-1.342-1.054-1.992-1.843c-0.654-0.79-1.318-1.778-1.993-2.963c3.911-1.054,7.542-2.523,10.893-4.41
			c3.351-1.888,6.24-4.037,8.669-6.451c2.428-2.412,4.553-5.31,6.375-8.688c1.821-3.379,2.732-6.428,2.732-9.149
			c0-2.554-0.45-4.863-1.35-6.924c-0.897-2.063-2.145-3.821-3.739-5.278c-1.595-1.456-3.471-2.588-5.626-3.396
			c-2.156-0.806-4.493-1.21-7.009-1.21c-3.079,0-5.882,0.543-8.403,1.627c-2.521,1.086-4.798,2.548-6.828,4.386
			c-2.031,1.839-3.807,3.964-5.324,6.378s-2.778,4.949-3.782,7.606c-1.004,2.658-1.975,5.703-2.912,9.137
			c-0.938,3.433-1.406,6.388-1.406,8.868c0,2.342,0.2,4.618,0.602,6.83c-0.654,0.596-1.321,1.18-2.016,1.743
			c-1.032,0.838-2.087,1.573-3.164,2.208c-1.076,0.634-2.131,1.153-3.163,1.563c-1.032,0.408-2.02,0.61-2.962,0.61
			c-0.897,0-1.661-0.769-2.289-2.309s-0.942-3.533-0.942-5.98c0-3.125,0.158-6.079,0.472-8.864c0.314-2.785,0.784-5.878,1.413-9.275
			c0.629-3.396,1.099-6.499,1.415-9.308c0.313-2.81,0.471-5.774,0.471-8.9c0-2.039-0.73-3.612-2.188-4.722s-3.242-1.666-5.352-1.666
			c-1.885,0-3.478,0.624-4.779,1.869c-1.301,1.246-2.603,2.774-3.903,4.587c-1.348,1.856-2.793,4.008-4.343,6.455
			c-1.548,2.445-3.007,4.778-4.375,6.997c-1.369,2.219-2.637,4.45-3.803,6.692c-1.168,2.242-1.796,3.431-1.885,3.566l-0.741-0.814
			c0-0.091,0.021-0.271,0.067-0.545c0.135-0.859,0.271-1.517,0.403-1.969c0.808-2.81,1.369-4.96,1.684-6.456
			c0.403-1.72,0.763-3.17,1.077-4.348c0.269-1.041,0.537-2.583,0.808-4.62c0.225-1.586,0.337-3.262,0.337-5.027
			c0-2.039-0.674-3.612-2.02-4.722c-1.347-1.109-2.962-1.666-4.847-1.666c-2.02,0-3.759,0.612-5.217,1.835
			c-1.459,1.224-2.839,2.764-4.141,4.621c-1.346,1.856-2.759,3.996-4.24,6.42s-2.861,4.745-4.14,6.964
			c-1.279,2.221-2.468,4.463-3.567,6.728c-1.1,2.264-1.695,3.464-1.784,3.6l-0.741-0.814c0.673-3.805,1.324-7.248,1.953-10.328
			c0.044-0.09,0.224-1.268,0.539-3.533c0.179-1.177,0.313-2.332,0.404-3.464c0.134-1.132,0.235-2.196,0.303-3.193
			s0.101-1.881,0.101-2.651c0-1.403-0.045-2.513-0.135-3.328s-0.37-1.438-0.841-1.867c-0.471-0.431-1.19-0.702-2.154-0.816
			c-0.965-0.113-2.3-0.171-4.005-0.171c-1.123,0-2.042,0.081-2.76,0.239c-0.718,0.158-1.335,0.477-1.851,0.951
			c-0.517,0.476-0.976,1.144-1.38,2.004c-0.404,0.859-0.831,2.017-1.279,3.466c-0.449,1.403-0.942,3.216-1.48,5.436
			c-0.539,2.219-1.066,4.665-1.582,7.337c-0.516,2.672-1.123,5.805-1.817,9.396c-0.696,3.59-1.223,6.788-1.582,9.589
			c-0.262,2.039-0.487,4.004-0.676,5.9c-0.928,0.666-1.879,1.314-2.861,1.939c-1.661,1.059-3.288,2.005-4.88,2.838
			c-1.593,0.834-3.096,1.499-4.51,1.994c-1.414,0.496-2.614,0.742-3.601,0.742c-0.776,0-1.368-0.212-1.776-0.641
			c-0.409-0.428-0.709-1.036-0.903-1.824c-0.194-0.788-0.311-1.713-0.349-2.771c-0.039-1.059-0.058-2.219-0.058-3.48
			c0-0.779,0.16-2.031,0.479-3.75c0.32-1.718,0.693-3.725,1.12-6.018c0.427-2.294,0.966-5.192,1.618-8.695
			c0.651-3.506,1.207-6.492,1.666-8.961c0.46-2.47,0.73-4.747,0.811-6.836c0.08-2.087,0.121-3.736,0.121-4.949
			c0-1.257-0.65-2.289-1.95-3.097c-1.3-0.808-3.055-1.213-5.264-1.213c-1.95,0-3.695,0.371-5.232,1.111
			c-1.538,0.739-2.415,1.649-2.632,2.727l-7.421,36.683c-0.361,1.873-0.901,3.518-1.622,4.934c-0.721,1.462-1.553,2.65-2.5,3.563
			c-0.901,1.006-1.87,1.771-2.905,2.297c-1.036,0.524-2.05,0.787-3.041,0.787c-0.675,0-1.261-0.186-1.756-0.555
			c-0.496-0.371-0.901-0.857-1.216-1.459c-0.316-0.603-0.551-1.286-0.709-2.05c-0.157-0.764-0.236-1.563-0.236-2.396
			c0-0.047,0.116-0.715,0.347-2.006c0.231-1.291,0.535-2.983,0.912-5.075c0.377-2.094,0.876-4.875,1.5-8.343
			c0.623-3.47,1.189-6.62,1.699-9.453c0.509-2.834,1.015-5.647,1.519-8.439c0.502-2.792,0.957-5.7,1.361-8.727
			c0-0.971-0.517-1.785-1.548-2.442c-1.033-0.655-2.738-1.041-5.116-1.156c-1.436,0.046-2.726,0.427-3.871,1.145
			c-1.144,0.718-2.143,1.639-2.995,2.76c-0.853,1.122-1.594,2.379-2.221,3.771c-0.629,1.392-1.156,2.759-1.582,4.105
			c-0.427,1.346-0.746,2.594-0.956,3.742c-0.211,1.148-0.378,2.055-0.5,2.718c-1.165,9.07-2.418,15.896-3.761,20.478
			c-0.126,0.465-0.242,0.964-0.351,1.489c-1.012,1.225-2.019,2.388-3.021,3.483c-0.942,1.023-1.941,2.013-2.995,2.97
			c-1.055,0.958-2.11,1.814-3.164,2.569c-1.056,0.758-2.099,1.368-3.131,1.836c-1.033,0.466-2.019,0.699-2.961,0.699
			c-1.257,0-2.076-0.579-2.458-1.738c-0.382-1.159-0.572-2.768-0.572-4.823c0-2.406,0.37-5.365,1.111-8.879
			c0.741-3.512,1.401-6.64,1.98-9.383c0.578-2.743,1.093-5.423,1.542-8.037c0.448-2.615,0.673-4.993,0.673-7.141
			c0-1.404-0.124-2.517-0.37-3.332c-0.248-0.815-0.596-1.451-1.045-1.905c-0.451-0.453-0.969-0.748-1.556-0.884
			c-0.587-0.136-1.219-0.205-1.896-0.205c-0.497,0-1.004,0.012-1.524,0.035c-0.519,0.023-1.026,0.034-1.522,0.034
			c-0.586,0-1.164-0.034-1.727-0.104c-0.564-0.066-1.118-0.214-1.658-0.44c-0.543-0.228-0.995-0.59-1.355-1.089
			c-0.362-0.499-0.734-1.009-1.117-1.529c-0.384-0.522-0.869-0.987-1.456-1.396c-0.586-0.408-1.4-0.612-2.438-0.612
			c-3.115,0-6.173,0.66-9.175,1.98c-3.002,1.317-5.857,3.096-8.566,5.331c-2.709,2.237-5.203,4.853-7.482,7.848
			c-2.28,2.997-4.414,6.553-6.399,10.666c-1.986,4.115-3.454,7.938-4.401,11.47c-0.948,3.533-1.422,6.977-1.422,10.329
			c0,2.989,0.471,5.671,1.414,8.048s2.199,4.393,3.77,6.045c1.57,1.652,3.376,2.919,5.418,3.803c2.042,0.883,4.14,1.323,6.294,1.323
			c2.035,0,4.07-0.333,6.107-1c2.036-0.665,3.992-1.521,5.869-2.563c1.877-1.045,3.607-2.21,5.19-3.5
			c1.583-1.286,2.918-2.553,4.004-3.796c1.448,3.598,3.167,6.342,5.157,8.229c1.99,1.889,4.476,2.832,7.458,2.832
			c2.467,0,4.936-0.611,7.404-1.837s4.78-2.723,6.934-4.494c0.966-0.794,1.882-1.607,2.762-2.437c0.063,0.249,0.13,0.49,0.202,0.727
			c0.581,1.907,1.375,3.443,2.38,4.61c1.006,1.167,2.157,1.995,3.453,2.488c1.295,0.494,2.682,0.74,4.156,0.74
			c1.796,0,3.65-0.365,5.56-1.096s3.796-1.737,5.662-3.021c1.864-1.284,3.696-2.801,5.494-4.55c1.796-1.749,3.504-3.665,5.122-5.746
			c0.44,2.036,0.959,3.883,1.554,5.541c0.595,1.66,1.324,3.087,2.184,4.28c0.86,1.196,1.886,2.125,3.076,2.79
			c1.191,0.662,2.625,0.994,4.302,0.994c1.646,0,3.433-0.232,5.36-0.697c1.926-0.465,3.899-1.084,5.919-1.859
			s4.027-1.672,6.024-2.69c1.687-0.861,3.289-1.754,4.815-2.678c0,0.002,0,0.004,0,0.006c0.203,1.633,0.606,3.093,1.212,4.378
			c0.606,1.286,1.47,2.311,2.592,3.071c1.122,0.762,2.602,1.144,4.442,1.144c1.436,0,2.749-0.316,3.938-0.948
			c1.188-0.632,2.232-1.841,3.13-3.627c3.097-6.053,5.621-11.17,7.573-15.348c1.952-4.176,3.556-7.575,4.812-10.193
			c1.256-2.619,2.232-4.605,2.929-5.96c0.695-1.355,1.313-2.372,1.851-3.049h1.01c-0.718,4.146-1.324,8.022-1.817,11.627
			c-0.225,1.532-0.449,3.076-0.673,4.633c-0.225,1.553-0.427,3.03-0.605,4.427c-0.18,1.396-0.314,2.637-0.404,3.719
			c-0.09,1.08-0.135,1.914-0.135,2.5c0,1.352,0.078,2.745,0.235,4.182c0.158,1.438,0.472,2.757,0.943,3.954
			c0.471,1.198,1.132,2.18,1.986,2.94c0.852,0.762,1.996,1.144,3.433,1.144c1.885,0,3.545-0.324,4.981-0.97
			c1.436-0.646,2.737-1.906,3.904-3.78l13.665-34.579h1.01c-0.36,3.262-0.641,6.488-0.843,9.682
			c-0.201,3.194-0.302,6.218-0.302,9.069c0,2.946,0.145,5.673,0.438,8.179c0.291,2.507,0.773,4.683,1.447,6.529
			c0.674,1.848,1.559,3.288,2.658,4.32s2.457,1.55,4.072,1.55c3.276,0,6.216-0.425,8.819-1.274c2.602-0.85,4.991-1.938,7.168-3.267
			c2.177-1.329,4.242-2.809,6.193-4.444c0.557-0.466,1.117-0.917,1.676-1.374c0.403,0.604,0.826,1.194,1.277,1.761
			c2.097,2.626,4.715,4.716,7.857,6.269s6.809,2.33,11,2.33c2.693,0,5.354-0.313,7.98-0.937c2.625-0.624,5.16-1.456,7.605-2.495
			c2.446-1.039,4.779-2.229,7.001-3.569c2.027-1.222,3.926-2.466,5.71-3.728c0.047,0.631,0.103,1.259,0.177,1.876
			c0.202,1.683,0.605,3.188,1.211,4.51c0.605,1.325,1.47,2.38,2.592,3.164c1.121,0.785,2.603,1.179,4.443,1.179
			c1.479,0,2.782-0.337,3.904-1.011c1.076-0.628,2.086-1.885,3.028-3.77l17.637-35.003h1.077c-0.539,3.591-0.988,6.944-1.346,10.063
			c-0.36,3.121-0.539,6.025-0.539,8.718c0,6.866,0.842,12.083,2.524,15.651c1.682,3.567,3.757,5.352,6.227,5.352
			c2.467,0,4.822-0.359,7.067-1.077c0.853-0.225,3.029-1.121,6.53-2.692c1.436-0.628,5.002-2.469,10.702-5.521
			c3.949-2.107,6.059-3.274,6.327-3.499l0.495-0.376c0.159,0.39,0.318,0.777,0.485,1.15c1.741,3.882,3.905,6.854,6.494,8.918
			c2.59,2.064,5.58,3.098,8.972,3.098c1.663,0,3.517-0.313,5.562-0.942c2.045-0.628,4.382-1.57,7.011-2.827
			c2.628-1.257,5.627-2.828,8.999-4.713c1.805-1.009,3.751-2.112,5.827-3.301c0.427,0.835,0.888,1.646,1.392,2.426
			c1.793,2.783,4.094,5.038,6.898,6.765c2.806,1.729,6.182,2.593,10.131,2.593c2.737,0,5.319-0.472,7.742-1.414
			s4.654-2.222,6.697-3.837c2.041-1.616,3.859-3.522,5.453-5.722c1.592-2.198,2.938-4.554,4.038-7.067
			c1.099-2.515,1.94-5.116,2.524-7.81c0.583-2.692,0.876-5.361,0.876-8.01c0-3.635-0.327-6.9-0.977-9.795
			c-0.651-2.894-1.628-5.643-2.929-8.245l0.539-0.741c1.615,1.077,3.545,2.413,5.788,4.006c2.243,1.594,4.521,3.533,6.832,5.822
			c2.313,2.289,4.499,4.375,6.564,6.26c2.063,1.886,3.702,3.635,4.914,5.25C615.613,227.157,611.278,210.977,599.962,199.66z
			 M519.603,174.363c0.967-3.832,2.003-7.341,3.107-10.527c1.104-3.184,2.253-5.802,3.447-7.851
			c1.192-2.048,2.376-3.074,3.549-3.074c0.854,0,1.519,0.179,1.992,0.536c0.473,0.358,0.822,0.805,1.047,1.341
			c0.227,0.536,0.372,1.105,0.438,1.709c0.068,0.604,0.103,1.15,0.103,1.642c0,1.418-0.384,3.236-1.148,5.454
			c-0.767,2.217-1.735,4.601-2.907,7.149c-1.172,2.55-2.489,5.144-3.952,7.781c-1.464,2.639-2.872,5.087-4.225,7.35
			c-0.721-0.067-1.42-0.124-2.095-0.176c-0.675-0.049-1.351-0.108-2.027-0.175C517.745,181.915,518.633,178.194,519.603,174.363z
			 M194.994,226.559c-0.18,1.446-0.574,3.254-1.18,5.422c-0.606,2.169-1.405,4.269-2.394,6.303
			c-0.989,2.033-2.158,3.771-3.507,5.218c-1.348,1.446-2.854,2.169-4.517,2.169c-1.034,0-1.888-0.266-2.562-0.799
			c-0.674-0.532-1.214-1.227-1.618-2.083c-0.405-0.855-0.686-1.827-0.843-2.915c-0.158-1.088-0.236-2.21-0.236-3.368
			c0-1.957,0.258-4.048,0.774-6.272c0.516-2.224,1.402-4.803,2.66-7.739c1.255-2.937,2.534-5.406,3.836-7.408
			c1.301-2.002,2.726-3.781,4.274-5.338c1.548-1.556,3.198-2.791,4.947-3.703c1.75-0.912,3.545-1.369,5.385-1.369L194.994,226.559z
			 M396.573,222.911c0.09-1.36,0.506-3.095,1.25-5.2c0.743-2.105,1.396-3.872,1.959-5.299c0.563-1.426,1.307-2.698,2.229-3.816
			c0.924-1.12,2.072-2.029,3.447-2.731c1.373-0.704,3.029-1.054,4.966-1.054c1.08,0,1.993,0.636,2.737,1.908
			c0.742,1.272,1.114,2.897,1.114,4.871c0,1.404-0.788,3.182-2.366,5.331c-1.575,2.15-3.187,3.861-4.831,5.134
			s-3.423,2.315-5.338,3.127c-1.913,0.812-3.682,1.218-5.304,1.218C396.437,225.434,396.481,224.271,396.573,222.911z
			 M580.978,228.808c-0.649,3.344-1.514,6.192-2.59,8.549c-1.077,2.355-2.334,4.309-3.77,5.856
			c-1.438,1.548-2.919,2.321-4.443,2.321c-1.75,0-3.255-0.369-4.511-1.11c-1.257-0.74-2.266-1.727-3.029-2.962
			c-0.763-1.233-1.324-2.681-1.682-4.341c-0.36-1.66-0.539-3.434-0.539-5.318c0-3.724,0.358-7.067,1.078-10.03
			c0.716-2.961,1.704-5.664,2.961-8.11c1.256-2.445,2.715-4.453,4.375-6.024c1.66-1.57,3.41-2.357,5.251-2.357
			c1.39,0,2.58,0.383,3.568,1.145c0.985,0.764,1.793,1.796,2.422,3.098c0.628,1.303,1.101,2.839,1.414,4.611
			c0.314,1.772,0.471,3.69,0.471,5.754C581.955,222.492,581.629,225.465,580.978,228.808z"/>
	</g>
	<g>
		<g>
			<linearGradient id="SVGID_7_" gradientUnits="userSpaceOnUse" x1="122.1514" y1="177.5459" x2="122.1514" y2="117.5142">
				<stop  offset="0" style="stop-color:#808080"/>
				<stop  offset="0.262" style="stop-color:#848484"/>
				<stop  offset="0.54" style="stop-color:#919191"/>
				<stop  offset="0.8245" style="stop-color:#A6A6A6"/>
				<stop  offset="0.98" style="stop-color:#B5B5B5"/>
			</linearGradient>
			<path fill="url(#SVGID_7_)" d="M124.081,177.459h-3.945l-12.693-53.084v53.171h-3.516v-60.032h5.661l12.606,53.086l12.521-53.086
				h5.66v60.032h-3.773v-53.343L124.081,177.459z"/>
			<linearGradient id="SVGID_8_" gradientUnits="userSpaceOnUse" x1="165.0742" y1="177.5459" x2="165.0742" y2="117.4282">
				<stop  offset="0" style="stop-color:#808080"/>
				<stop  offset="0.262" style="stop-color:#848484"/>
				<stop  offset="0.54" style="stop-color:#919191"/>
				<stop  offset="0.8245" style="stop-color:#A6A6A6"/>
				<stop  offset="0.98" style="stop-color:#B5B5B5"/>
			</linearGradient>
			<path fill="url(#SVGID_8_)" d="M155.555,164.253l-3.001,13.293h-3.602l13.122-60.118h5.745l13.379,60.118h-3.945l-3.001-13.293
				H155.555z M156.155,160.822h17.496l-8.833-38.849L156.155,160.822z"/>
			<linearGradient id="SVGID_9_" gradientUnits="userSpaceOnUse" x1="207.9961" y1="177.5459" x2="207.9961" y2="117.5142">
				<stop  offset="0" style="stop-color:#808080"/>
				<stop  offset="0.262" style="stop-color:#848484"/>
				<stop  offset="0.54" style="stop-color:#919191"/>
				<stop  offset="0.8245" style="stop-color:#A6A6A6"/>
				<stop  offset="0.98" style="stop-color:#B5B5B5"/>
			</linearGradient>
			<path fill="url(#SVGID_9_)" d="M209.926,177.459h-3.945l-12.692-53.084v53.171h-3.516v-60.032h5.66L208.04,170.6l12.521-53.086
				h5.66v60.032h-3.773v-53.343L209.926,177.459z"/>
			<linearGradient id="SVGID_10_" gradientUnits="userSpaceOnUse" x1="248.6035" y1="178.0596" x2="248.6035" y2="116.9995">
				<stop  offset="0" style="stop-color:#808080"/>
				<stop  offset="0.262" style="stop-color:#848484"/>
				<stop  offset="0.54" style="stop-color:#919191"/>
				<stop  offset="0.8245" style="stop-color:#A6A6A6"/>
				<stop  offset="0.98" style="stop-color:#B5B5B5"/>
			</linearGradient>
			<path fill="url(#SVGID_10_)" d="M235.396,132.179c0-8.748,4.03-15.18,13.122-15.18c9.261,0,13.292,6.432,13.292,15.18v30.702
				c0,8.748-4.031,15.179-13.292,15.179c-9.091,0-13.122-6.431-13.122-15.179V132.179z M239.341,163.138
				c0,6.519,2.573,11.32,9.177,11.32c6.689,0,9.348-4.802,9.348-11.32v-31.216c0-6.518-2.659-11.32-9.348-11.32
				c-6.604,0-9.177,4.802-9.177,11.32V163.138z"/>
			<linearGradient id="SVGID_11_" gradientUnits="userSpaceOnUse" x1="283.5508" y1="177.5459" x2="283.5508" y2="117.5142">
				<stop  offset="0" style="stop-color:#808080"/>
				<stop  offset="0.262" style="stop-color:#848484"/>
				<stop  offset="0.54" style="stop-color:#919191"/>
				<stop  offset="0.8245" style="stop-color:#A6A6A6"/>
				<stop  offset="0.98" style="stop-color:#B5B5B5"/>
			</linearGradient>
			<path fill="url(#SVGID_11_)" d="M283.336,117.514c9.262,0,12.864,5.832,12.864,14.579v6.518c0,9.52-4.374,14.237-13.893,14.237
				h-7.461v24.699h-3.945v-60.032H283.336z M282.308,149.245c6.946,0,9.948-3.087,9.948-10.377v-7.032
				c0-6.518-2.23-10.72-8.919-10.72h-8.49v28.129H282.308z"/>
			<linearGradient id="SVGID_12_" gradientUnits="userSpaceOnUse" x1="316.0967" y1="177.5459" x2="316.0967" y2="117.5142">
				<stop  offset="0" style="stop-color:#808080"/>
				<stop  offset="0.262" style="stop-color:#848484"/>
				<stop  offset="0.54" style="stop-color:#919191"/>
				<stop  offset="0.8245" style="stop-color:#A6A6A6"/>
				<stop  offset="0.98" style="stop-color:#B5B5B5"/>
			</linearGradient>
			<path fill="url(#SVGID_12_)" d="M304.691,177.546v-60.032h3.945v56.43h18.866v3.603H304.691z"/>
			<linearGradient id="SVGID_13_" gradientUnits="userSpaceOnUse" x1="351.2583" y1="177.5459" x2="351.2583" y2="117.4282">
				<stop  offset="0" style="stop-color:#808080"/>
				<stop  offset="0.262" style="stop-color:#848484"/>
				<stop  offset="0.54" style="stop-color:#919191"/>
				<stop  offset="0.8245" style="stop-color:#A6A6A6"/>
				<stop  offset="0.98" style="stop-color:#B5B5B5"/>
			</linearGradient>
			<path fill="url(#SVGID_13_)" d="M341.74,164.253l-3.002,13.293h-3.603l13.121-60.118h5.747l13.378,60.118h-3.944l-3.002-13.293
				H341.74z M342.338,160.822h17.496l-8.833-38.849L342.338,160.822z"/>
			<linearGradient id="SVGID_14_" gradientUnits="userSpaceOnUse" x1="388.3921" y1="178.0596" x2="388.3921" y2="116.9995">
				<stop  offset="0" style="stop-color:#808080"/>
				<stop  offset="0.262" style="stop-color:#848484"/>
				<stop  offset="0.54" style="stop-color:#919191"/>
				<stop  offset="0.8245" style="stop-color:#A6A6A6"/>
				<stop  offset="0.98" style="stop-color:#B5B5B5"/>
			</linearGradient>
			<path fill="url(#SVGID_14_)" d="M401.255,132.007v1.286h-3.773v-1.543c0-6.347-2.401-11.149-8.918-11.149
				c-6.518,0-8.92,4.717-8.92,11.063c0,14.579,21.697,14.836,21.697,31.388c0,8.661-3.773,15.007-12.949,15.007
				c-9.177,0-12.95-6.346-12.95-15.007v-3.088h3.773v3.345c0,6.432,2.487,11.063,9.09,11.063c6.604,0,9.092-4.632,9.092-11.063
				c0-14.407-21.698-14.665-21.698-31.388c0-9.005,3.945-14.836,12.779-14.922C397.568,116.999,401.255,123.345,401.255,132.007z"/>
			<linearGradient id="SVGID_15_" gradientUnits="userSpaceOnUse" x1="422.396" y1="177.5459" x2="422.396" y2="117.5142">
				<stop  offset="0" style="stop-color:#808080"/>
				<stop  offset="0.262" style="stop-color:#848484"/>
				<stop  offset="0.54" style="stop-color:#919191"/>
				<stop  offset="0.8245" style="stop-color:#A6A6A6"/>
				<stop  offset="0.98" style="stop-color:#B5B5B5"/>
			</linearGradient>
			<path fill="url(#SVGID_15_)" d="M420.38,177.546v-56.43h-12.178v-3.602h28.387v3.602h-12.264v56.43H420.38z"/>
			<linearGradient id="SVGID_16_" gradientUnits="userSpaceOnUse" x1="446.0229" y1="177.5459" x2="446.0229" y2="117.5142">
				<stop  offset="0" style="stop-color:#808080"/>
				<stop  offset="0.262" style="stop-color:#848484"/>
				<stop  offset="0.54" style="stop-color:#919191"/>
				<stop  offset="0.8245" style="stop-color:#A6A6A6"/>
				<stop  offset="0.98" style="stop-color:#B5B5B5"/>
			</linearGradient>
			<path fill="url(#SVGID_16_)" d="M447.995,117.514v60.032h-3.944v-60.032H447.995z"/>
			<linearGradient id="SVGID_17_" gradientUnits="userSpaceOnUse" x1="472.6938" y1="177.5459" x2="472.6938" y2="117.4282">
				<stop  offset="0" style="stop-color:#808080"/>
				<stop  offset="0.262" style="stop-color:#848484"/>
				<stop  offset="0.54" style="stop-color:#919191"/>
				<stop  offset="0.8245" style="stop-color:#A6A6A6"/>
				<stop  offset="0.98" style="stop-color:#B5B5B5"/>
			</linearGradient>
			<path fill="url(#SVGID_17_)" d="M463.174,164.253l-3.002,13.293h-3.602l13.121-60.118h5.747l13.378,60.118h-3.946l-3-13.293
				H463.174z M463.774,160.822h17.496l-8.833-38.849L463.774,160.822z"/>
		</g>
	</g>
	<g>
		<g>
			<linearGradient id="SVGID_18_" gradientUnits="userSpaceOnUse" x1="101.9312" y1="149.1274" x2="138.3784" y2="149.1274">
				<stop  offset="0" style="stop-color:#FFFFFF"/>
				<stop  offset="0.1467" style="stop-color:#F9F9F9"/>
				<stop  offset="0.5857" style="stop-color:#ECECEC"/>
				<stop  offset="1" style="stop-color:#E8E8E8"/>
			</linearGradient>
			<path fill="url(#SVGID_18_)" d="M122.085,179.057h-3.946l-12.692-53.085v53.172h-3.516v-60.032h5.66l12.607,53.085l12.521-53.085
				h5.66v60.032h-3.773V125.8L122.085,179.057z"/>
			<linearGradient id="SVGID_19_" gradientUnits="userSpaceOnUse" x1="146.9541" y1="149.084" x2="179.2002" y2="149.084">
				<stop  offset="0" style="stop-color:#FFFFFF"/>
				<stop  offset="0.1467" style="stop-color:#F9F9F9"/>
				<stop  offset="0.5857" style="stop-color:#ECECEC"/>
				<stop  offset="1" style="stop-color:#E8E8E8"/>
			</linearGradient>
			<path fill="url(#SVGID_19_)" d="M153.559,165.85l-3.002,13.294h-3.603l13.122-60.119h5.746l13.378,60.119h-3.945l-3.002-13.294
				H153.559z M154.158,162.419h17.495l-8.833-38.849L154.158,162.419z"/>
			<linearGradient id="SVGID_20_" gradientUnits="userSpaceOnUse" x1="187.7759" y1="149.1274" x2="224.2241" y2="149.1274">
				<stop  offset="0" style="stop-color:#FFFFFF"/>
				<stop  offset="0.1467" style="stop-color:#F9F9F9"/>
				<stop  offset="0.5857" style="stop-color:#ECECEC"/>
				<stop  offset="1" style="stop-color:#E8E8E8"/>
			</linearGradient>
			<path fill="url(#SVGID_20_)" d="M207.929,179.057h-3.944l-12.693-53.085v53.172h-3.516v-60.032h5.66l12.606,53.085l12.521-53.085
				h5.661v60.032h-3.774V125.8L207.929,179.057z"/>
			<linearGradient id="SVGID_21_" gradientUnits="userSpaceOnUse" x1="233.3999" y1="149.127" x2="259.814" y2="149.127">
				<stop  offset="0" style="stop-color:#FFFFFF"/>
				<stop  offset="0.1467" style="stop-color:#F9F9F9"/>
				<stop  offset="0.5857" style="stop-color:#ECECEC"/>
				<stop  offset="1" style="stop-color:#E8E8E8"/>
			</linearGradient>
			<path fill="url(#SVGID_21_)" d="M233.4,133.775c0-8.747,4.03-15.179,13.121-15.179c9.262,0,13.293,6.432,13.293,15.179v30.703
				c0,8.747-4.031,15.179-13.293,15.179c-9.091,0-13.121-6.432-13.121-15.179V133.775z M237.345,164.735
				c0,6.518,2.572,11.319,9.176,11.319c6.689,0,9.348-4.802,9.348-11.319v-31.216c0-6.518-2.659-11.32-9.348-11.32
				c-6.604,0-9.176,4.802-9.176,11.32V164.735z"/>
			<linearGradient id="SVGID_22_" gradientUnits="userSpaceOnUse" x1="268.9048" y1="149.1274" x2="294.2036" y2="149.1274">
				<stop  offset="0" style="stop-color:#FFFFFF"/>
				<stop  offset="0.1467" style="stop-color:#F9F9F9"/>
				<stop  offset="0.5857" style="stop-color:#ECECEC"/>
				<stop  offset="1" style="stop-color:#E8E8E8"/>
			</linearGradient>
			<path fill="url(#SVGID_22_)" d="M281.34,119.111c9.262,0,12.864,5.832,12.864,14.579v6.518c0,9.519-4.373,14.236-13.893,14.236
				h-7.461v24.699h-3.945v-60.032H281.34z M280.311,150.842c6.947,0,9.948-3.087,9.948-10.377v-7.032
				c0-6.518-2.229-10.72-8.918-10.72h-8.49v28.129H280.311z"/>
			<linearGradient id="SVGID_23_" gradientUnits="userSpaceOnUse" x1="302.6943" y1="149.1274" x2="325.5063" y2="149.1274">
				<stop  offset="0" style="stop-color:#FFFFFF"/>
				<stop  offset="0.1467" style="stop-color:#F9F9F9"/>
				<stop  offset="0.5857" style="stop-color:#ECECEC"/>
				<stop  offset="1" style="stop-color:#E8E8E8"/>
			</linearGradient>
			<path fill="url(#SVGID_23_)" d="M302.694,179.144v-60.032h3.945v56.43h18.867v3.603H302.694z"/>
			<linearGradient id="SVGID_24_" gradientUnits="userSpaceOnUse" x1="333.1382" y1="149.084" x2="365.3843" y2="149.084">
				<stop  offset="0" style="stop-color:#FFFFFF"/>
				<stop  offset="0.1467" style="stop-color:#F9F9F9"/>
				<stop  offset="0.5857" style="stop-color:#ECECEC"/>
				<stop  offset="1" style="stop-color:#E8E8E8"/>
			</linearGradient>
			<path fill="url(#SVGID_24_)" d="M339.743,165.85l-3.002,13.294h-3.603l13.121-60.119h5.747l13.378,60.119h-3.944l-3.002-13.294
				H339.743z M340.343,162.419h17.494l-8.833-38.849L340.343,162.419z"/>
			<linearGradient id="SVGID_25_" gradientUnits="userSpaceOnUse" x1="373.4448" y1="149.127" x2="399.3442" y2="149.127">
				<stop  offset="0" style="stop-color:#FFFFFF"/>
				<stop  offset="0.1467" style="stop-color:#F9F9F9"/>
				<stop  offset="0.5857" style="stop-color:#ECECEC"/>
				<stop  offset="1" style="stop-color:#E8E8E8"/>
			</linearGradient>
			<path fill="url(#SVGID_25_)" d="M399.259,133.604v1.286h-3.774v-1.543c0-6.346-2.399-11.148-8.918-11.148
				c-6.518,0-8.919,4.716-8.919,11.063c0,14.58,21.696,14.836,21.696,31.388c0,8.662-3.772,15.008-12.949,15.008
				c-9.176,0-12.95-6.346-12.95-15.008v-3.087h3.774v3.345c0,6.432,2.486,11.063,9.091,11.063c6.603,0,9.09-4.632,9.09-11.063
				c0-14.408-21.696-14.665-21.696-31.388c0-9.005,3.944-14.836,12.777-14.923C395.572,118.596,399.259,124.943,399.259,133.604z"/>
			<linearGradient id="SVGID_26_" gradientUnits="userSpaceOnUse" x1="406.2056" y1="149.1274" x2="434.5923" y2="149.1274">
				<stop  offset="0" style="stop-color:#FFFFFF"/>
				<stop  offset="0.1467" style="stop-color:#F9F9F9"/>
				<stop  offset="0.5857" style="stop-color:#ECECEC"/>
				<stop  offset="1" style="stop-color:#E8E8E8"/>
			</linearGradient>
			<path fill="url(#SVGID_26_)" d="M418.383,179.144v-56.431h-12.178v-3.602h28.387v3.602h-12.264v56.431H418.383z"/>
			<linearGradient id="SVGID_27_" gradientUnits="userSpaceOnUse" x1="442.0532" y1="149.1274" x2="445.9995" y2="149.1274">
				<stop  offset="0" style="stop-color:#FFFFFF"/>
				<stop  offset="0.1467" style="stop-color:#F9F9F9"/>
				<stop  offset="0.5857" style="stop-color:#ECECEC"/>
				<stop  offset="1" style="stop-color:#E8E8E8"/>
			</linearGradient>
			<path fill="url(#SVGID_27_)" d="M446,119.111v60.032h-3.946v-60.032H446z"/>
			<linearGradient id="SVGID_28_" gradientUnits="userSpaceOnUse" x1="454.5737" y1="149.084" x2="486.8198" y2="149.084">
				<stop  offset="0" style="stop-color:#FFFFFF"/>
				<stop  offset="0.1467" style="stop-color:#F9F9F9"/>
				<stop  offset="0.5857" style="stop-color:#ECECEC"/>
				<stop  offset="1" style="stop-color:#E8E8E8"/>
			</linearGradient>
			<path fill="url(#SVGID_28_)" d="M461.177,165.85l-3.001,13.294h-3.603l13.121-60.119h5.747l13.378,60.119h-3.944l-3.002-13.294
				H461.177z M461.779,162.419h17.494l-8.833-38.849L461.779,162.419z"/>
		</g>
	</g>
	<g>
		<polygon fill="#FFDE00" points="212.933,95.344 211.099,98.938 585.671,98.938 585.671,95.344 		"/>
	</g>
	<g>
		<polygon fill="#FFDE00" points="213.333,95.344 211.499,98.938 586.072,98.938 586.072,95.344 		"/>
	</g>
	<linearGradient id="SVGID_29_" gradientUnits="userSpaceOnUse" x1="75.9268" y1="45.9502" x2="132.2617" y2="45.9502">
		<stop  offset="0" style="stop-color:#FFFFFF"/>
		<stop  offset="0.1467" style="stop-color:#F9F9F9"/>
		<stop  offset="0.5857" style="stop-color:#ECECEC"/>
		<stop  offset="1" style="stop-color:#E8E8E8"/>
	</linearGradient>
	<path fill="url(#SVGID_29_)" d="M125.213,56.335V5.381h-15.016L75.927,56.335v13.936h34.543v16.25h14.743v-16.25h7.048V56.335
		H125.213z M110.47,56.335H92.392l18.079-26.527V56.335z M122.708,8.841l-0.175,3.594c-0.069,1.198-0.14,2.396-0.234,3.595
		c-0.095-1.198-0.165-2.396-0.234-3.595l-0.155-3.169l-2.339,0.09c-0.91,0.039-1.819,0.057-2.729,0.084l-2.729,0.075l-2.316,0.039
		c-0.698,1.178-1.398,2.355-2.117,3.521l-2.342,3.839l-2.384,3.813c-0.789,1.275-1.604,2.534-2.411,3.797
		c-0.807,1.264-1.617,2.526-2.445,3.777c-0.821,1.254-1.643,2.51-2.484,3.751c-0.831,1.249-1.678,2.488-2.53,3.724
		c-0.422,0.621-0.86,1.231-1.29,1.847c-0.429,0.616-0.875,1.221-1.312,1.833c0.351-0.664,0.692-1.334,1.051-1.994
		c0.358-0.659,0.708-1.325,1.074-1.98c0.723-1.315,1.451-2.627,2.195-3.931c0.733-1.308,1.487-2.604,2.241-3.901
		c0.748-1.301,1.512-2.591,2.281-3.878c0.768-1.288,1.528-2.581,2.314-3.856l2.342-3.84l2.383-3.814
		c0.789-1.275,1.599-2.537,2.409-3.799l0.224-0.348l0.389,0.006l2.729,0.045l2.729,0.075c0.91,0.027,1.819,0.045,2.729,0.084
		l2.729,0.104l0.429,0.017L122.708,8.841z"/>
	<linearGradient id="SVGID_30_" gradientUnits="userSpaceOnUse" x1="164.2529" y1="56.1309" x2="228.7075" y2="56.1309">
		<stop  offset="0" style="stop-color:#FFFFFF"/>
		<stop  offset="0.1467" style="stop-color:#F9F9F9"/>
		<stop  offset="0.5857" style="stop-color:#ECECEC"/>
		<stop  offset="1" style="stop-color:#E8E8E8"/>
	</linearGradient>
	<path fill="url(#SVGID_30_)" d="M219.455,11.845c-6.169-6.44-13.886-9.66-23.149-9.66c-8.846,0-16.399,3.105-22.66,9.313
		c-6.262,6.208-9.392,13.8-9.392,22.775c0,9.255,3.054,16.999,9.164,23.229c6.109,6.232,13.524,9.347,22.247,9.347l-17.998,34.976
		l16.615,8.25l26.396-51.745c3.445-6.649,5.644-11.566,6.599-14.751c0.953-3.185,1.432-6.358,1.432-9.519
		C228.708,25.69,225.623,18.286,219.455,11.845z M179.516,13.785c-0.254,0.257-0.512,0.486-0.765,0.766l-0.761,0.819
		c-0.23,0.247-0.469,0.549-0.705,0.819c-0.491,0.541-0.924,1.129-1.377,1.697c-0.421,0.59-0.857,1.169-1.235,1.78
		c-0.401,0.596-0.75,1.215-1.118,1.816c-0.329,0.622-0.684,1.222-0.965,1.847c-0.606,1.228-1.089,2.465-1.523,3.649
		c-0.393,1.198-0.75,2.341-1.001,3.418c-0.131,0.538-0.251,1.055-0.343,1.553c-0.1,0.496-0.204,0.966-0.266,1.414
		c-0.07,0.447-0.135,0.865-0.195,1.253c-0.05,0.389-0.095,0.747-0.136,1.069c-0.084,0.647-0.121,1.164-0.161,1.512
		c-0.035,0.35-0.054,0.536-0.054,0.536s-0.011-0.188-0.033-0.538c-0.012-0.351-0.074-0.863-0.069-1.521
		c-0.002-0.33-0.005-0.695-0.007-1.092c-0.002-0.398,0.032-0.826,0.05-1.285c0.013-0.461,0.064-0.947,0.111-1.462
		c0.037-0.517,0.122-1.053,0.207-1.615c0.16-1.126,0.421-2.333,0.763-3.597c0.374-1.251,0.785-2.578,1.384-3.88
		c0.575-1.31,1.24-2.642,2.058-3.908c0.39-0.646,0.838-1.257,1.274-1.883c0.466-0.602,0.914-1.224,1.42-1.797
		c0.256-0.292,0.486-0.572,0.767-0.869l0.771-0.81c0.25-0.271,0.548-0.535,0.818-0.801c0.275-0.267,0.551-0.532,0.839-0.773
		c1.111-1.021,2.338-1.874,3.543-2.652c1.203-0.79,2.469-1.383,3.675-1.901c1.215-0.504,2.403-0.875,3.516-1.137
		c0.552-0.145,1.094-0.229,1.602-0.331c0.513-0.08,1.002-0.132,1.458-0.194c0.459-0.041,0.89-0.071,1.287-0.095
		c0.397-0.028,0.764-0.014,1.093-0.022c0.658-0.021,1.175,0.033,1.526,0.044c0.35,0.021,0.538,0.033,0.538,0.033
		s-0.187,0.02-0.536,0.059c-0.349,0.039-0.861,0.078-1.505,0.181c-0.647,0.078-1.423,0.231-2.306,0.404
		c-0.438,0.109-0.906,0.212-1.392,0.344c-0.481,0.153-0.997,0.27-1.515,0.459c-0.52,0.181-1.063,0.363-1.605,0.602
		c-0.552,0.212-1.104,0.474-1.672,0.74c-1.118,0.568-2.273,1.209-3.393,1.991c-1.124,0.774-2.229,1.652-3.284,2.624
		C180.022,13.284,179.77,13.534,179.516,13.785z M205.872,44.374c-2.468,2.647-5.516,3.97-9.148,3.97
		c-3.817,0-6.995-1.323-9.532-3.97c-2.538-2.647-3.806-5.943-3.806-9.891c0-3.993,1.303-7.325,3.911-9.996
		c2.607-2.67,5.727-4.006,9.357-4.006c3.444,0,6.46,1.348,9.043,4.041c2.584,2.692,3.876,6.037,3.876,10.03
		C209.574,38.453,208.339,41.727,205.872,44.374z"/>
	<linearGradient id="SVGID_31_" gradientUnits="userSpaceOnUse" x1="237.7188" y1="46.9458" x2="293.3003" y2="46.9458">
		<stop  offset="0" style="stop-color:#FFFFFF"/>
		<stop  offset="0.1467" style="stop-color:#F9F9F9"/>
		<stop  offset="0.5857" style="stop-color:#ECECEC"/>
		<stop  offset="1" style="stop-color:#E8E8E8"/>
	</linearGradient>
	<path fill="url(#SVGID_31_)" d="M289.884,22.625c-2.278-5.829-5.506-10.16-9.685-12.994c-4.179-2.833-9.156-4.25-14.931-4.25
		c-8.897,0-15.838,3.587-20.824,10.761c-4.484,6.529-6.726,17.057-6.726,31.584c0,10.403,1.147,18.42,3.444,24.052
		c2.295,5.632,5.47,9.829,9.523,12.59c4.053,2.762,9.057,4.143,15.012,4.143c5.954,0,10.887-1.372,14.797-4.116
		c3.91-2.744,7.022-7.039,9.336-12.887c2.313-5.846,3.47-14.025,3.47-24.535C293.3,36.57,292.162,28.455,289.884,22.625z
		 M274.315,69.087c-2.148,3.624-5.048,5.435-8.698,5.435c-3.795,0-6.882-1.91-9.263-5.73c-2.381-3.82-3.57-10.734-3.57-20.742
		c0-7.676,0.519-13.505,1.557-17.487c1.038-3.982,2.541-6.788,4.51-8.421c1.969-1.631,4.224-2.449,6.766-2.449
		c3.722,0,6.755,1.974,9.1,5.919c2.344,3.946,3.517,11.121,3.517,21.522C278.235,57.394,276.928,64.711,274.315,69.087z
		 M277.475,12.326c-0.422-0.237-0.964-0.472-1.554-0.78c-0.305-0.138-0.64-0.259-0.985-0.399c-0.172-0.071-0.349-0.144-0.53-0.217
		c-0.18-0.073-0.375-0.123-0.569-0.188c-0.392-0.117-0.789-0.262-1.214-0.369c-0.425-0.101-0.865-0.205-1.317-0.313
		c-0.914-0.162-1.884-0.313-2.871-0.378c-0.251-0.018-0.489-0.056-0.756-0.056c-0.265-0.003-0.531-0.006-0.799-0.009
		c-0.269-0.003-0.539-0.005-0.81-0.009c-0.253,0.009-0.508,0.019-0.764,0.027c-1.059,0.025-2.121,0.177-3.172,0.361
		c-1.043,0.213-2.084,0.461-3.061,0.845c-0.988,0.352-1.92,0.801-2.802,1.278c-0.426,0.264-0.853,0.515-1.257,0.781
		c-0.392,0.285-0.804,0.528-1.157,0.829c-0.732,0.57-1.398,1.151-1.989,1.717c-0.29,0.29-0.568,0.569-0.831,0.833
		c-0.255,0.277-0.496,0.539-0.723,0.786c-0.444,0.501-0.811,0.958-1.129,1.327c-0.593,0.776-0.947,1.21-0.947,1.21
		s0.237-0.508,0.679-1.378c0.25-0.42,0.531-0.955,0.912-1.527c0.194-0.285,0.399-0.588,0.616-0.908
		c0.225-0.316,0.489-0.625,0.75-0.962c0.541-0.658,1.164-1.348,1.895-2.007c0.349-0.349,0.762-0.646,1.157-0.984
		c0.403-0.327,0.855-0.609,1.298-0.919c0.928-0.553,1.903-1.124,2.977-1.516c1.057-0.434,2.182-0.725,3.312-0.973
		c1.141-0.186,2.289-0.326,3.42-0.335l0.424-0.008l0.21-0.005l0.105-0.002h0.08l0.051,0.002c0.271,0.017,0.541,0.034,0.808,0.05
		c0.268,0.017,0.534,0.033,0.798,0.05c0.263,0.013,0.545,0.067,0.813,0.099c1.092,0.113,2.099,0.372,3.049,0.624
		c0.467,0.155,0.92,0.307,1.359,0.453c0.432,0.165,0.834,0.366,1.226,0.535c0.193,0.091,0.388,0.166,0.567,0.265
		c0.178,0.1,0.352,0.198,0.521,0.295c0.335,0.198,0.658,0.373,0.947,0.56c0.565,0.4,1.058,0.739,1.438,1.052
		c0.744,0.65,1.148,1.03,1.148,1.03S278.306,12.819,277.475,12.326z"/>
	<linearGradient id="SVGID_32_" gradientUnits="userSpaceOnUse" x1="302.7407" y1="46.9458" x2="358.3218" y2="46.9458">
		<stop  offset="0" style="stop-color:#FFFFFF"/>
		<stop  offset="0.1467" style="stop-color:#F9F9F9"/>
		<stop  offset="0.5857" style="stop-color:#ECECEC"/>
		<stop  offset="1" style="stop-color:#E8E8E8"/>
	</linearGradient>
	<path fill="url(#SVGID_32_)" d="M354.905,22.625c-2.277-5.829-5.507-10.16-9.685-12.994c-4.179-2.833-9.155-4.25-14.932-4.25
		c-8.896,0-15.837,3.587-20.822,10.761c-4.485,6.529-6.726,17.057-6.726,31.584c0,10.403,1.147,18.42,3.443,24.052
		c2.295,5.632,5.469,9.829,9.523,12.59c4.053,2.762,9.057,4.143,15.012,4.143c5.954,0,10.888-1.372,14.798-4.116
		c3.908-2.744,7.021-7.039,9.334-12.887c2.314-5.846,3.471-14.025,3.471-24.535C358.322,36.57,357.182,28.455,354.905,22.625z
		 M315.761,15.446c-0.289,0.29-0.567,0.569-0.831,0.833c-0.254,0.277-0.496,0.539-0.722,0.786c-0.443,0.501-0.81,0.958-1.129,1.327
		c-0.593,0.776-0.947,1.21-0.947,1.21s0.237-0.508,0.68-1.378c0.25-0.42,0.531-0.955,0.913-1.527
		c0.194-0.285,0.398-0.588,0.616-0.908c0.225-0.316,0.489-0.625,0.75-0.962c0.541-0.658,1.163-1.348,1.896-2.007
		c0.348-0.349,0.761-0.646,1.156-0.984c0.404-0.327,0.855-0.609,1.299-0.919c0.928-0.553,1.904-1.124,2.978-1.516
		c1.057-0.434,2.182-0.725,3.312-0.973c1.141-0.186,2.289-0.326,3.42-0.335l0.424-0.008l0.21-0.005l0.106-0.002h0.08l0.05,0.002
		c0.271,0.017,0.541,0.034,0.809,0.05c0.269,0.017,0.534,0.033,0.798,0.05c0.263,0.013,0.545,0.067,0.813,0.099
		c1.092,0.113,2.099,0.372,3.049,0.624c0.467,0.155,0.92,0.307,1.359,0.453c0.433,0.165,0.834,0.366,1.226,0.535
		c0.193,0.091,0.388,0.166,0.568,0.265c0.178,0.1,0.351,0.198,0.521,0.295c0.335,0.198,0.658,0.373,0.947,0.56
		c0.565,0.4,1.059,0.739,1.438,1.052c0.743,0.65,1.148,1.03,1.148,1.03s-0.496-0.273-1.326-0.767
		c-0.423-0.237-0.964-0.472-1.554-0.78c-0.305-0.138-0.642-0.259-0.985-0.399c-0.173-0.071-0.349-0.144-0.53-0.217
		c-0.181-0.073-0.376-0.123-0.569-0.188c-0.392-0.117-0.789-0.262-1.214-0.369c-0.425-0.101-0.865-0.205-1.316-0.313
		c-0.915-0.162-1.885-0.313-2.873-0.378c-0.251-0.018-0.488-0.056-0.754-0.056c-0.266-0.003-0.533-0.006-0.801-0.009
		s-0.538-0.005-0.809-0.009c-0.254,0.009-0.509,0.019-0.764,0.027c-1.06,0.025-2.121,0.177-3.172,0.361
		c-1.044,0.213-2.085,0.461-3.061,0.845c-0.989,0.352-1.92,0.801-2.803,1.278c-0.426,0.264-0.852,0.515-1.256,0.781
		c-0.392,0.285-0.804,0.528-1.158,0.829C317.019,14.299,316.352,14.88,315.761,15.446z M339.336,69.087
		c-2.147,3.624-5.048,5.435-8.697,5.435c-3.796,0-6.883-1.91-9.263-5.73c-2.381-3.82-3.57-10.734-3.57-20.742
		c0-7.676,0.519-13.505,1.557-17.487c1.038-3.982,2.541-6.788,4.509-8.421c1.97-1.631,4.225-2.449,6.767-2.449
		c3.723,0,6.756,1.974,9.101,5.919c2.345,3.946,3.517,11.121,3.517,21.522C343.256,57.394,341.95,64.711,339.336,69.087z"/>
	<linearGradient id="SVGID_33_" gradientUnits="userSpaceOnUse" x1="401.8989" y1="46.9458" x2="457.481" y2="46.9458">
		<stop  offset="0" style="stop-color:#FFFFFF"/>
		<stop  offset="0.1467" style="stop-color:#F9F9F9"/>
		<stop  offset="0.5857" style="stop-color:#ECECEC"/>
		<stop  offset="1" style="stop-color:#E8E8E8"/>
	</linearGradient>
	<path fill="url(#SVGID_33_)" d="M454.064,22.625c-2.279-5.829-5.507-10.16-9.686-12.994c-4.18-2.833-9.156-4.25-14.932-4.25
		c-8.896,0-15.837,3.587-20.822,10.761c-4.484,6.529-6.726,17.057-6.726,31.584c0,10.403,1.147,18.42,3.443,24.052
		c2.295,5.632,5.47,9.829,9.523,12.59s9.057,4.143,15.012,4.143c5.954,0,10.887-1.372,14.797-4.116
		c3.909-2.744,7.021-7.039,9.336-12.887c2.313-5.846,3.471-14.025,3.471-24.535C457.481,36.57,456.341,28.455,454.064,22.625z
		 M438.495,69.087c-2.147,3.624-5.047,5.435-8.698,5.435c-3.795,0-6.882-1.91-9.263-5.73c-2.379-3.82-3.569-10.734-3.569-20.742
		c0-7.676,0.519-13.505,1.557-17.487c1.038-3.982,2.54-6.788,4.51-8.421c1.97-1.631,4.224-2.449,6.766-2.449
		c3.724,0,6.757,1.974,9.102,5.919c2.344,3.946,3.516,11.121,3.516,21.522C442.414,57.394,441.107,64.711,438.495,69.087z
		 M442,12.326c-0.423-0.237-0.965-0.472-1.555-0.78c-0.305-0.138-0.641-0.259-0.985-0.399c-0.173-0.071-0.349-0.144-0.528-0.217
		c-0.182-0.073-0.378-0.123-0.57-0.188c-0.392-0.117-0.789-0.262-1.214-0.369c-0.425-0.101-0.864-0.205-1.317-0.313
		c-0.914-0.162-1.885-0.313-2.871-0.378c-0.252-0.018-0.488-0.056-0.756-0.056c-0.265-0.003-0.531-0.006-0.799-0.009
		c-0.269-0.003-0.539-0.005-0.81-0.009c-0.254,0.009-0.509,0.019-0.763,0.027c-1.061,0.025-2.123,0.177-3.173,0.361
		c-1.045,0.213-2.085,0.461-3.062,0.845c-0.987,0.352-1.921,0.801-2.802,1.278c-0.427,0.264-0.853,0.515-1.257,0.781
		c-0.393,0.285-0.804,0.528-1.158,0.829c-0.731,0.57-1.397,1.151-1.988,1.717c-0.29,0.29-0.566,0.569-0.832,0.833
		c-0.254,0.277-0.496,0.539-0.722,0.786c-0.443,0.501-0.811,0.958-1.129,1.327c-0.594,0.776-0.947,1.21-0.947,1.21
		s0.237-0.508,0.68-1.378c0.249-0.42,0.531-0.955,0.912-1.527c0.193-0.285,0.399-0.588,0.616-0.908
		c0.225-0.316,0.488-0.625,0.751-0.962c0.54-0.658,1.162-1.348,1.895-2.007c0.349-0.349,0.761-0.646,1.155-0.984
		c0.404-0.327,0.856-0.609,1.3-0.919c0.928-0.553,1.903-1.124,2.978-1.516c1.057-0.434,2.182-0.725,3.311-0.973
		c1.142-0.186,2.29-0.326,3.421-0.335l0.423-0.008l0.212-0.005l0.104-0.002h0.081l0.051,0.002c0.27,0.017,0.54,0.034,0.808,0.05
		s0.534,0.033,0.798,0.05c0.262,0.013,0.545,0.067,0.813,0.099c1.092,0.113,2.099,0.372,3.049,0.624
		c0.467,0.155,0.921,0.307,1.359,0.453c0.432,0.165,0.834,0.366,1.226,0.535c0.192,0.091,0.389,0.166,0.567,0.265
		c0.178,0.1,0.353,0.198,0.521,0.295c0.336,0.198,0.659,0.373,0.948,0.56c0.564,0.4,1.058,0.739,1.438,1.052
		c0.744,0.65,1.149,1.03,1.149,1.03S442.831,12.819,442,12.326z"/>
	<linearGradient id="SVGID_34_" gradientUnits="userSpaceOnUse" x1="466.9194" y1="46.9458" x2="522.5015" y2="46.9458">
		<stop  offset="0" style="stop-color:#FFFFFF"/>
		<stop  offset="0.1467" style="stop-color:#F9F9F9"/>
		<stop  offset="0.5857" style="stop-color:#ECECEC"/>
		<stop  offset="1" style="stop-color:#E8E8E8"/>
	</linearGradient>
	<path fill="url(#SVGID_34_)" d="M519.084,22.625c-2.278-5.829-5.506-10.16-9.684-12.994c-4.181-2.833-9.157-4.25-14.932-4.25
		c-8.897,0-15.838,3.587-20.824,10.761c-4.484,6.529-6.726,17.057-6.726,31.584c0,10.403,1.147,18.42,3.444,24.052
		c2.295,5.632,5.471,9.829,9.522,12.59c4.055,2.762,9.059,4.143,15.013,4.143s10.886-1.372,14.797-4.116
		c3.908-2.744,7.021-7.039,9.335-12.887c2.314-5.846,3.471-14.025,3.471-24.535C522.501,36.57,521.362,28.455,519.084,22.625z
		 M503.517,69.087c-2.148,3.624-5.049,5.435-8.699,5.435c-3.794,0-6.881-1.91-9.262-5.73s-3.571-10.734-3.571-20.742
		c0-7.676,0.52-13.505,1.558-17.487c1.037-3.982,2.541-6.788,4.509-8.421c1.97-1.631,4.226-2.449,6.767-2.449
		c3.724,0,6.757,1.974,9.101,5.919c2.345,3.946,3.518,11.121,3.518,21.522C507.436,57.394,506.129,64.711,503.517,69.087z
		 M506.958,12.326c-0.423-0.237-0.965-0.472-1.555-0.78c-0.304-0.138-0.64-0.259-0.985-0.399c-0.172-0.071-0.349-0.144-0.53-0.217
		c-0.18-0.073-0.375-0.123-0.568-0.188c-0.392-0.117-0.788-0.262-1.214-0.369c-0.426-0.101-0.865-0.205-1.317-0.313
		c-0.913-0.162-1.883-0.313-2.871-0.378c-0.251-0.018-0.489-0.056-0.756-0.056c-0.265-0.003-0.531-0.006-0.799-0.009
		c-0.269-0.003-0.539-0.005-0.811-0.009c-0.253,0.009-0.508,0.019-0.764,0.027c-1.058,0.025-2.12,0.177-3.171,0.361
		c-1.044,0.213-2.086,0.461-3.061,0.845c-0.988,0.352-1.92,0.801-2.803,1.278c-0.425,0.264-0.852,0.515-1.258,0.781
		c-0.392,0.285-0.803,0.528-1.156,0.829c-0.732,0.57-1.398,1.151-1.989,1.717c-0.29,0.29-0.567,0.569-0.831,0.833
		c-0.255,0.277-0.496,0.539-0.724,0.786c-0.442,0.501-0.809,0.958-1.128,1.327c-0.592,0.776-0.947,1.21-0.947,1.21
		s0.237-0.508,0.68-1.378c0.25-0.42,0.531-0.955,0.913-1.527c0.192-0.285,0.397-0.588,0.615-0.908
		c0.225-0.316,0.488-0.625,0.751-0.962c0.539-0.658,1.163-1.348,1.894-2.007c0.35-0.349,0.763-0.646,1.158-0.984
		c0.403-0.327,0.854-0.609,1.298-0.919c0.927-0.553,1.903-1.124,2.978-1.516c1.056-0.434,2.183-0.725,3.312-0.973
		c1.141-0.186,2.289-0.326,3.421-0.335l0.423-0.008l0.21-0.005l0.105-0.002h0.081l0.051,0.002c0.271,0.017,0.539,0.034,0.808,0.05
		c0.268,0.017,0.534,0.033,0.798,0.05c0.264,0.013,0.546,0.067,0.813,0.099c1.092,0.113,2.099,0.372,3.047,0.624
		c0.468,0.155,0.922,0.307,1.36,0.453c0.432,0.165,0.834,0.366,1.226,0.535c0.193,0.091,0.388,0.166,0.567,0.265
		c0.179,0.1,0.352,0.198,0.521,0.295c0.335,0.198,0.657,0.373,0.948,0.56c0.564,0.4,1.058,0.739,1.438,1.052
		c0.743,0.65,1.148,1.03,1.148,1.03S507.789,12.819,506.958,12.326z"/>
	<linearGradient id="SVGID_35_" gradientUnits="userSpaceOnUse" x1="531.9409" y1="46.9458" x2="587.5229" y2="46.9458">
		<stop  offset="0" style="stop-color:#FFFFFF"/>
		<stop  offset="0.1467" style="stop-color:#F9F9F9"/>
		<stop  offset="0.5857" style="stop-color:#ECECEC"/>
		<stop  offset="1" style="stop-color:#E8E8E8"/>
	</linearGradient>
	<path fill="url(#SVGID_35_)" d="M584.106,22.625c-2.278-5.829-5.507-10.16-9.685-12.994c-4.18-2.833-9.156-4.25-14.932-4.25
		c-8.896,0-15.837,3.587-20.822,10.761c-4.484,6.529-6.727,17.057-6.727,31.584c0,10.403,1.148,18.42,3.444,24.052
		c2.294,5.632,5.47,9.829,9.523,12.59c4.053,2.762,9.057,4.143,15.013,4.143c5.952,0,10.886-1.372,14.796-4.116
		c3.909-2.744,7.022-7.039,9.335-12.887c2.314-5.846,3.471-14.025,3.471-24.535C587.523,36.57,586.383,28.455,584.106,22.625z
		 M544.179,15.446c-0.29,0.29-0.566,0.569-0.831,0.833c-0.255,0.277-0.495,0.539-0.722,0.786c-0.444,0.501-0.811,0.958-1.129,1.327
		c-0.593,0.776-0.948,1.21-0.948,1.21s0.237-0.508,0.681-1.378c0.249-0.42,0.531-0.955,0.912-1.527
		c0.193-0.285,0.397-0.588,0.616-0.908c0.224-0.316,0.487-0.625,0.75-0.962c0.54-0.658,1.163-1.348,1.896-2.007
		c0.348-0.349,0.761-0.646,1.154-0.984c0.405-0.327,0.856-0.609,1.301-0.919c0.926-0.553,1.902-1.124,2.977-1.516
		c1.058-0.434,2.183-0.725,3.312-0.973c1.141-0.186,2.289-0.326,3.421-0.335l0.423-0.008l0.21-0.005l0.105-0.002h0.081l0.051,0.002
		c0.271,0.017,0.54,0.034,0.808,0.05s0.534,0.033,0.798,0.05c0.264,0.013,0.546,0.067,0.813,0.099
		c1.091,0.113,2.099,0.372,3.047,0.624c0.468,0.155,0.922,0.307,1.361,0.453c0.432,0.165,0.833,0.366,1.225,0.535
		c0.193,0.091,0.388,0.166,0.567,0.265c0.178,0.1,0.352,0.198,0.522,0.295c0.334,0.198,0.656,0.373,0.947,0.56
		c0.564,0.4,1.058,0.739,1.438,1.052c0.744,0.65,1.148,1.03,1.148,1.03s-0.496-0.273-1.326-0.767
		c-0.422-0.237-0.965-0.472-1.555-0.78c-0.304-0.138-0.641-0.259-0.985-0.399c-0.172-0.071-0.349-0.144-0.529-0.217
		c-0.181-0.073-0.376-0.123-0.569-0.188c-0.392-0.117-0.788-0.262-1.214-0.369c-0.424-0.101-0.864-0.205-1.315-0.313
		c-0.915-0.162-1.885-0.313-2.873-0.378c-0.25-0.018-0.488-0.056-0.756-0.056c-0.265-0.003-0.531-0.006-0.799-0.009
		c-0.269-0.003-0.539-0.005-0.811-0.009c-0.253,0.009-0.508,0.019-0.763,0.027c-1.059,0.025-2.121,0.177-3.172,0.361
		c-1.044,0.213-2.085,0.461-3.062,0.845c-0.987,0.352-1.919,0.801-2.803,1.278c-0.426,0.264-0.851,0.515-1.256,0.781
		c-0.392,0.285-0.804,0.528-1.157,0.829C545.436,14.299,544.771,14.88,544.179,15.446z M568.538,69.087
		c-2.148,3.624-5.047,5.435-8.697,5.435c-3.796,0-6.883-1.91-9.263-5.73c-2.381-3.82-3.57-10.734-3.57-20.742
		c0-7.676,0.519-13.505,1.558-17.487c1.036-3.982,2.54-6.788,4.509-8.421c1.969-1.631,4.224-2.449,6.767-2.449
		c3.722,0,6.755,1.974,9.101,5.919c2.344,3.946,3.516,11.121,3.516,21.522C572.457,57.394,571.151,64.711,568.538,69.087z"/>
	<path fill="#FFFFFF" d="M52.838,53.321c-1.579-3.263-3.839-6.062-6.78-8.394c-2.942-2.332-8.394-5.146-16.357-8.447
		c-4.485-1.83-7.462-3.552-8.932-5.166c-1.506-1.578-2.26-3.175-2.26-4.789c0-1.901,0.852-3.578,2.556-5.031
		c1.703-1.453,3.918-2.179,6.645-2.179c4.627,0,9.309,2.44,14.043,7.318l10.385-10.116c-3.301-3.336-6.161-5.704-8.582-7.103
		c-2.421-1.398-5.372-2.51-8.851-3.335V0H24.589v5.381C18.563,5.668,13.577,7.74,9.631,11.595
		c-3.946,3.856-5.919,8.493-5.919,13.909c0,3.265,0.744,6.341,2.233,9.228c1.488,2.888,3.739,5.488,6.752,7.802
		c3.014,2.313,8.789,5.443,17.326,9.389c4.196,1.937,7.03,3.839,8.501,5.703c1.434,1.866,2.152,4.036,2.152,6.511
		c0,2.942-1.122,5.498-3.363,7.667c-2.243,2.171-4.924,3.255-8.044,3.255c-6.134,0-12.483-3.498-19.047-10.492L0,75.06
		c3.875,4.161,8.071,7.497,12.591,10.008c3.3,1.83,7.299,3.013,11.999,3.551v14.043h10.116V88.295
		c4.985-1.041,8.805-2.564,11.461-4.573c2.654-2.009,4.824-4.735,6.51-8.179s2.53-7.191,2.53-11.246
		C55.206,60.245,54.416,56.586,52.838,53.321z M17.053,10.731l-0.309,0.154l-0.294,0.186c-0.198,0.123-0.396,0.248-0.597,0.373
		c-0.398,0.252-0.813,0.492-1.18,0.788c-0.38,0.283-0.763,0.569-1.147,0.856c-0.371,0.335-0.743,0.671-1.116,1.008l-0.283,0.249
		l-0.07,0.062l-0.018,0.016l-0.001,0l-0.028,0.029l-0.126,0.133l-0.503,0.531c-0.328,0.358-0.689,0.688-0.968,1.079
		c-0.294,0.38-0.592,0.75-0.891,1.116c-0.258,0.393-0.514,0.781-0.766,1.163c-0.27,0.373-0.46,0.78-0.669,1.168
		c-0.104,0.194-0.206,0.387-0.308,0.578c-0.105,0.188-0.204,0.378-0.275,0.576c-0.307,0.781-0.65,1.508-0.831,2.226
		c-0.108,0.355-0.212,0.695-0.312,1.018c-0.068,0.33-0.134,0.642-0.195,0.937c-0.063,0.296-0.122,0.573-0.176,0.829
		c-0.053,0.259-0.067,0.504-0.099,0.722C5.783,27.401,5.709,27.9,5.709,27.9s-0.027-0.503-0.054-1.384
		c-0.002-0.22-0.024-0.463-0.01-0.73c0.021-0.267,0.044-0.557,0.068-0.866c0.026-0.311,0.054-0.642,0.083-0.992
		c0.067-0.342,0.139-0.703,0.213-1.078c0.084-0.374,0.13-0.777,0.272-1.167c0.128-0.396,0.261-0.804,0.397-1.224
		c0.061-0.214,0.15-0.419,0.246-0.625c0.093-0.208,0.187-0.418,0.281-0.63c0.187-0.426,0.382-0.862,0.646-1.269
		c0.249-0.414,0.496-0.841,0.759-1.264c0.294-0.4,0.595-0.805,0.905-1.207c0.292-0.419,0.665-0.771,1.006-1.154l0.523-0.566
		l0.131-0.142l0.033-0.036l0.055-0.05l0.07-0.063l0.279-0.252c0.377-0.332,0.754-0.663,1.129-0.994
		c0.42-0.307,0.839-0.611,1.254-0.915c0.211-0.144,0.408-0.316,0.629-0.434c0.219-0.125,0.436-0.248,0.653-0.371
		c0.216-0.123,0.431-0.245,0.644-0.366l0.318-0.181l0.332-0.15c0.441-0.196,0.871-0.396,1.298-0.575
		c0.209-0.1,0.428-0.171,0.644-0.238c0.215-0.069,0.428-0.138,0.637-0.206s0.416-0.135,0.619-0.201
		c0.203-0.066,0.402-0.134,0.607-0.168c0.404-0.085,0.794-0.167,1.169-0.246c0.742-0.189,1.448-0.214,2.06-0.292
		c0.308-0.027,0.592-0.075,0.86-0.08c0.268-0.003,0.513-0.006,0.734-0.009c0.885-0.008,1.387,0,1.387,0s-0.499,0.094-1.363,0.238
		c-0.216,0.035-0.455,0.073-0.715,0.116c-0.259,0.047-0.535,0.122-0.832,0.188c-0.295,0.07-0.609,0.144-0.939,0.22
		c-0.333,0.065-0.674,0.172-1.028,0.287c-0.354,0.111-0.722,0.227-1.103,0.346c-0.384,0.11-0.756,0.293-1.151,0.442
		c-0.197,0.079-0.395,0.158-0.596,0.239c-0.202,0.078-0.404,0.16-0.598,0.27C17.869,10.329,17.462,10.524,17.053,10.731z"/>
</g>
</svg>
