<?xml version="1.0" encoding="utf-8"?>
<!-- Generator: Adobe Illustrator 19.1.0, SVG Export Plug-In . SVG Version: 6.00 Build 0)  -->
<svg version="1.1" id="Capa_7" xmlns="http://www.w3.org/2000/svg" xmlns:xlink="http://www.w3.org/1999/xlink" x="0px" y="0px"
	 viewBox="0 0 2208.1 1375" style="enable-background:new 0 0 2208.1 1375;" xml:space="preserve">
<style type="text/css">
	.st0{fill:#0075A3;}
	.st1{fill:#FFFFFF;}
	.st2{fill:#A06E00;}
	.st3{fill:url(#SVGID_1_);}
	.st4{fill:url(#SVGID_2_);}
	.st5{fill:url(#SVGID_3_);}
	.st6{fill:url(#SVGID_4_);}
	.st7{fill:url(#SVGID_5_);}
	.st8{fill:url(#SVGID_6_);}
	.st9{fill:url(#SVGID_7_);}
	.st10{fill:url(#SVGID_8_);}
	.st11{fill:#A5A5A5;}
	.st12{fill:#36A9E0;}
	.st13{opacity:0.5;}
	.st14{opacity:0.5;fill:url(#SVGID_9_);}
	.st15{opacity:0.5;fill:url(#SVGID_10_);}
	.st16{opacity:0.5;fill:url(#SVGID_11_);}
	.st17{opacity:0.5;fill:url(#SVGID_12_);}
	.st18{fill:url(#SVGID_13_);}
	.st19{opacity:0.5;fill:url(#SVGID_14_);}
	.st20{opacity:0.5;fill:url(#SVGID_15_);}
	.st21{fill:none;}
	.st22{opacity:0.5;fill:url(#SVGID_16_);}
	.st23{opacity:0.5;fill:url(#SVGID_17_);}
	.st24{opacity:0.5;fill:url(#SVGID_18_);}
	.st25{opacity:0.5;fill:url(#SVGID_19_);}
	.st26{opacity:0.5;fill:url(#SVGID_20_);}
	.st27{opacity:0.5;fill:url(#SVGID_21_);}
	.st28{opacity:0.5;fill:url(#SVGID_22_);}
	.st29{opacity:0.5;fill:url(#SVGID_23_);}
</style>
<g>
	<g>
		<g>
			<g>
				<path class="st0" d="M315.2,225.4c-4.2,0.6-7.8,5.1-8.2,14.2c-1,19.1-4.5,47.2-21.3,49.7c-10.9,1.7-13.3-13.9-13.9-17.7
					l-16.1-106.9c-1.5-10.1-11.6-17.2-25.5-15.1c-5.9,0.9-13.2,3.7-12.8,6.7c0.4,2.9,4.8,3.2,6.6,15.4l10.2,67.8
					c-0.6,30.2-9.1,59.5-25.9,62c-12.2,1.8-21.2-9.3-24.6-32c-5.3-35.4-3.5-54.6-0.6-86.9c0.7-6.6,10.4-25.3-10.2-22.1
					c-22.3,3.4-18.1,11.3-20,18.9c0,0-7.6,52.4-0.9,97c0.2,1.3,0.4,2.6,0.6,3.8c-2.1,15.5-7,30.7-19.1,32.7
					c-8.8,1.5-15.3-3.5-17.5-16.9L93.5,162.9c22.3-3.7,47-7.9,80.5-14.4c10.8-2.3,7.8-43.2-1.8-28.6c-28.3,6.1-57.7,11.4-83.3,15.7
					L76.5,62.1c-1.7-10.1-11.9-17-25.8-14.7c-5.9,1-13.2,3.9-12.7,6.9c0.5,2.9,4.8,3.1,6.9,15.2l11.9,71c-22.7,3.4-38,5.1-38,5.1
					c-12.2,2,0.1,28.9,13.6,26.6c0,0,10.6-0.9,29.1-4L84,301.7c5.6,33.2,23.8,43.9,46.5,40.1c17.3-2.9,28.7-13.8,36.1-27.4
					c9.6,12.3,23,18.2,39,15.8c18.5-2.8,30.1-17.5,37.5-36.7c5.5,16.4,20.1,27.5,39,24.7c36.2-5.5,46.9-45.8,50.3-74.8
					c0.2-1.7,0-2.6,0-3C331.3,232.4,321.9,224.4,315.2,225.4z"/>
				<path class="st0" d="M764.7,51.9c14-0.8,25.2-13.4,24.4-27.4C788.3,9.6,775.8-0.8,761.7,0c-14.5,0.8-25.3,12.5-24.4,27.4
					C738.1,41.5,750.3,52.7,764.7,51.9z"/>
				<path class="st0" d="M1122.5,171.3c-4.3,0-8.5,3.9-10.1,12.9c-3.6,18.8-10.5,46.1-30.1,46.3c-11.5,0.1-17.2-10.9-17.3-22.8
					c-0.5-42.6,18.1-93,18-98.2c1.6-9.8-15.6-23.7-20.7-23.6l-22.1,0.3c-4.3,0-8.5,0.1-22.6-1.4c-4.9-17.4-16.9-22.4-27.1-22.2
					c-11.1,0.1-21.2,7.9-21.1,19.8c0.1,12.3,7.9,21.2,18.6,27c-0.1,18.8-1.1,47.7-4.3,66.2c-0.2,0.5-0.3,0.9-0.4,1.4
					c-0.1,1.1-0.3,2.3-0.5,3.4c-0.2,1.1-0.5,2.1-0.7,3.1c-0.1,0.3-0.1,0.6-0.2,0.9c-3.6,13.3-12.6,23.8-28.1,24.3
					c-3,0.1-5.5,0.2-8.5-0.5c3.7-14.6,4.8-30.4,4.2-46.2c-1.5-41.3-18.8-70.9-38.8-70.1c-23,0.9-33.6,24.3-32.6,51.1
					c1.1,30.6,12.8,58.3,33.5,74.6c-5.2,10-12.6,16.7-24.5,17.1c-16.6,0.6-31.3-16.7-32.6-52.5c-1.6-42.1,10.6-58.3,17-68.8
					c10.8-7.6,1.4-29.9-9.6-29.5c-9.4,0.4-42,39.5-39.6,102c0.2,5.3,0.7,10.6,1.5,15.7c-7.1,24.6-18.2,43.5-30.8,59.2l-8.6-149.2
					c-0.6-10.2-10-18.2-24-17.4c-6,0.3-10.9,3.6-10.6,7.9c0.2,3,2,5.4,2.5,13.5l4.1,71.3l0,0c-3.2,26.3-14.7,54.9-47.8,57.4
					c-22.1,1.7-34.4-9.4-41.5-23.4c40.3-15.4,59.1-54.4,56.8-85.8c-1.9-25.5-17.7-41.8-41.4-40c-32.7,2.5-61.9,45.2-57.9,99.1
					c0.5,7.1,1.7,13.7,3.4,19.9c-2.6,17.2-8.4,36-22.2,37.5c-11,1.2-12.7-14.5-13.1-18.3l-9.2-87.7c-2.1-19.5-10.9-42.1-38.4-39.2
					c-19.1,2-32,20.9-40.3,44.5c-2.9-19-12.2-39-37.6-36.3c-19.1,2-32,21.4-40.6,45.4l-1.9-17.8c-1.1-10.2-10.9-17.7-24.8-16.2
					c-5.9,0.6-10.7,4.1-10.3,8.4c0.3,3,2.3,5.3,3.1,13.4l14.1,134.2c1.7,15.7,13.8,17.4,22.3,16.5c12.3-1.3,10.8-11.4,9.9-19.5
					l-6.5-61.8c-1-33.7,19.3-72.7,30.8-73.9c7.2-0.8,9.2,10.2,10.6,23.3L485.2,274c1.6,15.7,13.8,17.4,22.3,16.5
					c12.3-1.3,10.8-11.4,9.9-19.5l-6.5-61.8c-1-33.7,19.3-72.7,30.8-73.9c7.2-0.8,9.2,10.2,10.6,23.3l9,86
					c2.3,21.6,17.3,38.4,39.8,36.1c21.5-2.3,34.7-17.1,42.8-34.7c15.8,19.3,39,28.7,62.1,27c25.2-1.9,42.3-11.6,53.9-24.2l2.6,45.6
					c-26.6,26.3-50,49.4-47.6,92.3c1.6,27.2,19.8,47.9,43.6,46.5c21.7-1.3,43.3-18.3,40.7-62.9l-4.2-73.5
					c15-14.7,30.7-31.9,42.8-57.5c10.7,15.2,27,24.6,49.5,23.8c24.3-0.9,40-13.9,49.9-32.5c6.5,1.9,13.3,2.5,21,2.2
					c28.9-1.1,45.7-20.9,49.9-44.1c0.1-0.8,0.3-1.5,0.3-2.2c5.5-24.1,7.2-54.8,7.4-69.6l4.7-0.1l32.4-0.4
					c-13.2,36.8-20.5,67.1-20.2,94.3c0.4,37.5,24.4,48.3,44.4,48c36.6-0.4,52.8-38.9,60.1-67.1c0-0.9,0.4-1.7,0.4-3
					C1137.6,180.5,1129.4,171.2,1122.5,171.3z M659.2,190.5c-2.2-17.8,0.7-64.9,21.5-66.5c5.5-0.4,9.3,4.9,10,14.2
					c1.9,25.5-10,48.6-30.5,59.9C660,195.6,659.4,193.1,659.2,190.5z M757,406.3c-6.8,0.4-11.6-9.6-12.4-22.7
					c-1.5-25.5,6.9-42.2,19.7-57l2.6,45.5C767.5,380.1,770.6,405.5,757,406.3z M918.7,189.7c-10.3-12.4-17.3-30-18-49.2
					c-0.5-13.2,1.8-20.1,6.5-20.3c8.9-0.3,11,20.9,12.1,49.8C919.5,176.5,919.3,182.9,918.7,189.7z"/>
				<path class="st0" d="M1821.7,97.5c14.8,2,27.3-8.3,29.2-22.3c2-14.8-7.5-27.2-22.3-29.2c-13.9-1.9-26.8,7.5-28.8,22.3
					C1798,82.3,1807.8,95.6,1821.7,97.5z"/>
				<path class="st0" d="M2146.1,280.8c-4.2-0.7-9,2.3-12.2,10.8c-7,17.8-19.2,43.4-35.9,40.5c-10.1-1.7-12.5-12.5-10.9-21.8
					l12-69.2c1.7-10.1-5.6-20-19.5-22.4c-5.9-1-11.4,1.1-12.1,5.2c-0.5,2.9,0.7,5.7-0.6,13.7l-11.2,64.6
					c-6.6,11-15.9,19.7-27.3,17.8c-14.7-2.5-21.7-16.7-18-38.5c10.4-60.4,52.5-81.2,84.4-75.7c4.2,0.7,8.2,2.3,12,2.9
					c4.2,0.7,5.9-1.6,7.1-8.7c1.9-10.9-4.9-19-16.3-21c-51.2-8.8-107.2,25.5-119.4,95.6c-0.1,0.5-0.2,1-0.2,1.5
					c-7.1,7.9-17.4,13.8-31.9,14.7c2-4.4,3.6-9.8,4.4-14.8c6.1-40-17.3-59-31.8-97c0.8-2.5,12.6-14.9,14.4-27.1
					c1.7-11.4-2.2-19.7-12.3-21.2c-11.4-1.7-38.7,13.5-40.8,27.8c-1.1,7.2,0.5,13.9,3.7,20.8c-11,21.2-23.4,43.8-30.5,61.7
					c-0.1,0.3-0.2,0.6-0.3,0.8c-0.5,1.1-1,2.3-1.5,3.7c-1.4,4.1-3.2,8.7-5.1,13.2c-0.7-0.3-1.2-0.4-1.7-0.5
					c-6.8-1-16.6,9.8-14.3,24.7c-4,3.2-8.4,5-13.3,4.3c-11-1.5-8.9-17.1-8.3-20.9l14.5-107.2c1.4-10.1-6.3-19.8-20.3-21.6
					c-5.9-0.8-11.4,1.5-11.9,5.7c-0.4,3,0.9,5.7-0.1,13.7l-9.8,72.7c-0.9,1.5-1.7,3.3-2.4,5.5c-6,18.1-16.4,44.4-35.9,42
					c-11.4-1.4-15.6-13-14.2-24.8c5-42.3,30-89.9,30.6-95c2.8-9.5-12.4-25.5-17.5-26.1l-22-2.6c-4.2-0.5-8.5-1-22.2-4.4
					c-2.6-17.9-13.8-24.4-24-25.6c-11-1.3-22,5.1-23.5,16.9c-1.5,12.3,5.1,22,15,29.2c-3,21.5-8.9,56.4-15.5,72.8
					c-1.3,3.3-1.2,6.9-0.1,10.1c-6,17-15.6,36.3-30.1,34.9c-11-1.1-9.5-16.7-9.2-20.5l8.4-87.7c1.9-19.5-2.7-43.5-31.1-46.2
					c-20.8-2-37.8,14.8-51.5,37.4l1.8-19.1c1-10.2-7.1-19.5-21.1-20.8c-5.9-0.6-11.3,1.9-11.7,6.2c-0.3,3,1.2,5.7,0.4,13.7l-6.8,71
					c-3.7,16.3-14.5,29.5-32.6,28.3c-3-0.2-5.5-0.4-8.4-1.4c5.2-14.1,8-29.7,9.1-45.5c2.8-41.2-11.2-72.5-31.2-73.9
					c-22.9-1.6-36,20.6-37.8,47.3c-2.1,30.6,6.6,59.4,25.4,77.7c-6.2,9.4-14.3,15.2-26.2,14.4c-16.6-1.1-29.4-20-26.9-55.6
					c2.9-42.1,16.7-56.9,24.2-66.6c11.5-6.5,4.6-29.6-6.4-30.3c-9.3-0.6-45.9,34.8-50.2,97.3c-0.3,4.2-0.4,8.4-0.3,12.5
					c-6.1,10.3-16.2,19-32.6,21.7c1.5-4.6,2.6-10.1,2.8-15.2c1.7-40.4-23.5-56.8-42-93c0.5-2.5,10.9-16.1,11.5-28.5
					c0.5-11.5-4.3-19.4-14.5-19.8c-11.5-0.5-37,17.6-37.6,32c-0.3,7.2,2,13.7,5.9,20.3c-8.6,22.2-18.6,46.1-23.7,64.6
					c-4,14.3,18.9,27.2,24.3,9.6c6.4-20.2,11.3-34.5,18.8-50.8c14.2,16,29.2,34.5,28,61.3c-0.5,10.6-5.6,20.2-10.5,25.5
					c-21.3-0.9-58.9-27.3-67.4-27.6c-9.4-0.4-21.8,21.6-1.8,42.5c8.2,8.5,28.2,19.1,46,19.9c17.4,0.8,31.8-5,42.4-13.5
					c25.4-0.5,42.8-7.3,56.2-16.8c8,21.4,24.5,36.6,51,38.4c24.2,1.7,41.2-9.5,53.1-27.1c6.2,2.6,13,3.9,20.6,4.4
					c10,0.7,18.8-1,26.3-4.5l-1.5,15.6c-1.5,15.7,10.1,19.8,18.6,20.6c12.3,1.2,12.8-9,13.6-17.1l5.9-61.9
					c6.2-33.2,35.9-67.1,48.2-66c8.1,0.8,7.8,11.9,6.6,25l-8.2,86c-2.1,21.6,9.3,41.1,31.8,43.2c36.5,3.5,57-33,66.9-60.3
					c0.6-1.7,0.7-2.5,0.7-2.9c0.2-1.7-0.1-3.5-0.5-5.3c8.1-22.8,13.4-51.5,15.5-65.5l4.7,0.6l32.1,3.8c-17.9,34.8-29,63.9-32.3,90.9
					c-4.4,37.2,17.9,51,37.8,53.4c17.6,2.1,31.6-5.3,42.6-16.5c3.5,13.5,13.4,24,29.1,26.1c14.2,1.9,26.1-2.4,36-9.9
					c8.7,8.6,24.8,18.5,40.2,20.8c17.3,2.6,32.1-1.6,43.6-8.9c22.6,1.9,39.3-1.7,52.9-8.2c4.3,20.1,17.1,35,38.9,38.7
					c15.9,2.8,29-2.8,39.1-11c4.6,11.2,14.6,20.2,29.3,22.8c36.1,6.2,59.4-28.6,71.3-55.1c0.7-1.6,0.9-2.4,0.9-2.9
					C2159.2,292.6,2152.8,282,2146.1,280.8z M1435.6,182.7c-0.4,6.4-1.3,12.7-2.6,19.5c-8.9-13.4-14-31.7-12.7-50.8
					c0.9-13.2,3.9-19.8,8.6-19.5C1437.8,132.5,1437.6,153.8,1435.6,182.7z M1921.9,268.6c-1.6,10.5-7.7,19.5-13.2,24.3
					c-11.8-1.8-27.9-12.1-41.2-21c2.8-5.3,5.3-10.5,7.4-15.5c0.2-0.4,0.3-0.8,0.4-1.2c0.4-0.6,0.8-1.3,1.1-2.1
					c8.5-19.4,14.9-33.1,24.1-48.4C1913,222.1,1925.9,242.1,1921.9,268.6z"/>
			</g>
			<g>
				<path class="st1" d="M301.3,248.1c-4.2,0.6-7.8,5.1-8.2,14.2c-1,19.1-4.5,47.2-21.3,49.7c-10.9,1.7-13.3-13.9-13.9-17.7
					l-16.1-106.9c-1.5-10.1-11.6-17.2-25.5-15.1c-5.9,0.9-13.2,3.7-12.8,6.7c0.4,2.9,4.8,3.2,6.6,15.4l10.2,67.8
					c-0.6,30.2-9.1,59.5-25.9,62c-12.2,1.8-21.2-9.3-24.6-32c-5.3-35.4-3.5-54.6-0.6-86.9c0.7-6.6,10.4-25.3-10.2-22.1
					c-22.3,3.4-18.1,11.3-20,18.9c0,0-7.6,52.4-0.9,97c0.2,1.3,0.4,2.6,0.6,3.8c-2.1,15.5-7,30.7-19.1,32.7
					c-8.8,1.5-15.3-3.5-17.5-16.9L79.6,185.6c22.3-3.7,47-7.9,80.5-14.4c10.8-2.3,7.8-43.2-1.8-28.6c-28.3,6.1-57.7,11.4-83.3,15.7
					L62.6,84.8c-1.7-10.1-11.9-17-25.8-14.7c-5.9,1-13.2,3.9-12.7,6.9C24.7,80,29,80.1,31,92.3l11.9,71c-22.7,3.4-38,5.1-38,5.1
					c-12.2,2,0.1,28.9,13.6,26.6c0,0,10.6-0.9,29.1-4l22.5,133.5c5.6,33.2,23.8,43.9,46.5,40.1c17.3-2.9,28.7-13.8,36.1-27.4
					c9.6,12.3,23,18.2,39,15.8c18.5-2.8,30.1-17.5,37.5-36.7c5.5,16.4,20.1,27.5,39,24.7c36.2-5.5,46.9-45.8,50.3-74.8
					c0.2-1.7,0-2.6,0-3C317.4,255.2,308,247.1,301.3,248.1z"/>
				<path class="st1" d="M750.8,74.6c14-0.8,25.2-13.4,24.4-27.4c-0.9-14.9-13.4-25.2-27.4-24.4c-14.5,0.8-25.3,12.5-24.4,27.4
					C724.2,64.2,736.4,75.5,750.8,74.6z"/>
				<path class="st1" d="M1108.6,194c-4.3,0-8.5,3.9-10.1,12.9c-3.6,18.8-10.5,46.1-30.1,46.3c-11.5,0.1-17.2-10.9-17.3-22.8
					c-0.5-42.6,18.1-93,18-98.2c1.6-9.8-15.6-23.7-20.7-23.6l-22.1,0.3c-4.3,0-8.5,0.1-22.6-1.4c-4.9-17.4-16.9-22.4-27.1-22.2
					c-11.1,0.1-21.2,7.9-21.1,19.8c0.1,12.3,7.9,21.2,18.6,27c-0.1,18.8-1.1,47.7-4.3,66.2c-0.2,0.5-0.3,0.9-0.4,1.4
					c-0.1,1.1-0.3,2.3-0.5,3.4c-0.2,1.1-0.5,2.1-0.7,3.1c-0.1,0.3-0.1,0.6-0.2,0.9c-3.6,13.3-12.6,23.8-28.1,24.3
					c-3,0.1-5.5,0.2-8.5-0.5c3.7-14.6,4.8-30.4,4.2-46.2c-1.5-41.3-18.8-70.9-38.8-70.1c-23,0.9-33.6,24.3-32.6,51.1
					c1.1,30.6,12.8,58.3,33.5,74.6c-5.2,10-12.6,16.7-24.5,17.1c-16.6,0.6-31.3-16.7-32.6-52.5c-1.6-42.1,10.6-58.3,17-68.8
					c10.8-7.6,1.4-29.9-9.6-29.5c-9.4,0.4-42,39.5-39.6,102c0.2,5.3,0.7,10.6,1.5,15.7c-7.1,24.6-18.2,43.5-30.8,59.2l-8.6-149.2
					c-0.6-10.2-10-18.2-24-17.4c-6,0.3-10.9,3.6-10.6,7.9c0.2,3,2,5.4,2.5,13.5l4.1,71.3l0,0c-3.2,26.3-14.7,54.9-47.8,57.4
					c-22.1,1.7-34.4-9.4-41.5-23.4c40.3-15.4,59.1-54.4,56.8-85.8c-1.9-25.5-17.7-41.8-41.4-40c-32.7,2.5-61.9,45.2-57.9,99.1
					c0.5,7.1,1.7,13.7,3.4,19.9c-2.6,17.2-8.4,36-22.2,37.5c-11,1.2-12.7-14.5-13.1-18.3l-9.2-87.7c-2.1-19.5-10.9-42.1-38.4-39.2
					c-19.1,2-32,20.9-40.3,44.5c-2.9-19-12.2-39-37.6-36.3c-19.1,2-32,21.4-40.6,45.4l-1.9-17.8c-1.1-10.2-10.9-17.7-24.8-16.2
					c-5.9,0.6-10.7,4.1-10.3,8.4c0.3,3,2.3,5.3,3.1,13.4L393,305c1.7,15.7,13.8,17.4,22.3,16.5c12.3-1.3,10.8-11.4,9.9-19.5
					l-6.5-61.8c-1-33.7,19.3-72.7,30.8-73.9c7.2-0.8,9.2,10.2,10.6,23.3l11.3,107.1c1.6,15.7,13.8,17.4,22.3,16.5
					c12.3-1.3,10.8-11.4,9.9-19.5l-6.5-61.8c-1-33.7,19.3-72.7,30.8-73.9c7.2-0.8,9.2,10.2,10.6,23.3l9,86
					c2.3,21.6,17.3,38.4,39.8,36.1c21.5-2.3,34.7-17.1,42.8-34.7c15.8,19.3,39,28.7,62.1,27c25.2-1.9,42.3-11.6,53.9-24.2l2.6,45.6
					c-26.6,26.3-50,49.4-47.6,92.3c1.6,27.2,19.8,47.9,43.6,46.5c21.7-1.3,43.3-18.3,40.7-62.9l-4.2-73.5
					c15-14.7,30.7-31.9,42.8-57.5c10.7,15.2,27,24.6,49.5,23.8c24.3-0.9,40-13.9,49.9-32.5c6.5,1.9,13.3,2.5,21,2.2
					c28.9-1.1,45.7-20.9,49.9-44.1c0.1-0.8,0.3-1.5,0.3-2.2c5.5-24.1,7.2-54.8,7.4-69.6l4.7-0.1l32.4-0.4
					c-13.2,36.8-20.5,67.1-20.2,94.3c0.4,37.5,24.4,48.3,44.4,48c36.6-0.4,52.8-38.9,60.1-67.1c0-0.9,0.4-1.7,0.4-3
					C1123.7,203.2,1115.5,193.9,1108.6,194z M645.3,213.3c-2.2-17.8,0.7-64.9,21.5-66.5c5.5-0.4,9.3,4.9,10,14.2
					c1.9,25.5-10,48.6-30.5,59.9C646.1,218.3,645.5,215.8,645.3,213.3z M743.1,429.1c-6.8,0.4-11.6-9.6-12.4-22.7
					c-1.5-25.5,6.9-42.2,19.7-57l2.6,45.5C753.6,402.9,756.7,428.3,743.1,429.1z M904.8,212.5c-10.3-12.4-17.3-30-18-49.2
					c-0.5-13.2,1.8-20.1,6.5-20.3c8.9-0.3,11,20.9,12.1,49.8C905.6,199.2,905.4,205.6,904.8,212.5z"/>
				<path class="st1" d="M1807.8,120.3c14.8,2,27.3-8.3,29.2-22.3c2-14.8-7.5-27.2-22.3-29.2c-13.9-1.9-26.8,7.5-28.8,22.3
					C1784.1,105,1793.9,118.4,1807.8,120.3z"/>
				<path class="st1" d="M2132.2,303.5c-4.2-0.7-9,2.3-12.2,10.8c-7,17.8-19.2,43.4-35.9,40.5c-10.1-1.7-12.5-12.5-10.9-21.8
					l12-69.2c1.7-10.1-5.6-20-19.5-22.4c-5.9-1-11.4,1.1-12.1,5.2c-0.5,2.9,0.7,5.7-0.6,13.7l-11.2,64.6
					c-6.6,11-15.9,19.7-27.3,17.8c-14.7-2.5-21.7-16.7-18-38.5c10.4-60.4,52.5-81.2,84.4-75.7c4.2,0.7,8.2,2.3,12,2.9
					c4.2,0.7,5.9-1.6,7.1-8.7c1.9-10.9-4.9-19-16.3-21c-51.2-8.8-107.3,25.5-119.4,95.6c-0.1,0.5-0.2,1-0.2,1.5
					c-7.1,7.9-17.4,13.8-31.9,14.7c2-4.4,3.6-9.8,4.4-14.8c6.1-40-17.3-59-31.8-97c0.8-2.5,12.6-14.9,14.4-27.1
					c1.7-11.4-2.2-19.7-12.3-21.2c-11.4-1.7-38.7,13.5-40.8,27.8c-1.1,7.2,0.5,13.9,3.7,20.8c-11,21.2-23.4,43.8-30.5,61.7
					c-0.1,0.3-0.2,0.6-0.3,0.8c-0.5,1.1-1,2.3-1.5,3.7c-1.4,4.1-3.2,8.7-5.1,13.2c-0.7-0.3-1.2-0.4-1.7-0.5
					c-6.8-1-16.6,9.8-14.3,24.7c-4,3.2-8.4,5-13.3,4.3c-11-1.5-8.9-17.1-8.3-20.9l14.5-107.2c1.4-10.1-6.3-19.8-20.3-21.6
					c-5.9-0.8-11.4,1.5-11.9,5.7c-0.4,3,0.9,5.7-0.1,13.7l-9.8,72.7c-0.9,1.5-1.7,3.3-2.4,5.5c-6,18.1-16.4,44.4-35.9,42
					c-11.4-1.4-15.6-13-14.2-24.8c5-42.3,30-89.9,30.6-95c2.8-9.5-12.4-25.5-17.5-26.1l-22-2.6c-4.2-0.5-8.5-1-22.2-4.4
					c-2.6-17.9-13.8-24.4-24-25.6c-11-1.3-22,5.1-23.5,16.9c-1.5,12.3,5.1,22,15,29.2c-3,21.5-8.9,56.4-15.5,72.8
					c-1.3,3.3-1.2,6.9-0.1,10.1c-6,17-15.6,36.3-30.1,34.9c-11-1.1-9.5-16.7-9.2-20.5l8.4-87.7c1.9-19.5-2.7-43.5-31.1-46.2
					c-20.8-2-37.8,14.8-51.5,37.4l1.8-19.1c1-10.2-7.1-19.5-21.1-20.8c-5.9-0.6-11.3,1.9-11.7,6.2c-0.3,3,1.2,5.7,0.4,13.7l-6.8,71
					c-3.7,16.3-14.5,29.5-32.6,28.3c-3-0.2-5.5-0.4-8.4-1.4c5.2-14.1,8-29.7,9.1-45.5c2.8-41.2-11.2-72.5-31.2-73.9
					c-22.9-1.6-36,20.6-37.8,47.3c-2.1,30.6,6.6,59.4,25.4,77.7c-6.2,9.4-14.3,15.2-26.2,14.4c-16.6-1.1-29.4-20-26.9-55.6
					c2.9-42.1,16.7-56.9,24.2-66.6c11.5-6.5,4.6-29.6-6.4-30.3c-9.3-0.6-45.9,34.8-50.2,97.3c-0.3,4.2-0.4,8.4-0.3,12.5
					c-6.1,10.3-16.2,19-32.6,21.7c1.5-4.6,2.6-10.1,2.8-15.2c1.7-40.4-23.5-56.8-42-93c0.5-2.5,10.9-16.1,11.5-28.5
					c0.5-11.5-4.3-19.4-14.5-19.8c-11.5-0.5-37,17.6-37.6,32c-0.3,7.2,2,13.7,5.9,20.3c-8.6,22.2-18.6,46.1-23.7,64.6
					c-4,14.3,18.9,27.2,24.3,9.6c6.4-20.2,11.3-34.5,18.8-50.8c14.2,16,29.2,34.5,28,61.3c-0.5,10.6-5.6,20.2-10.5,25.5
					c-21.3-0.9-58.9-27.3-67.4-27.6c-9.4-0.4-21.8,21.6-1.8,42.5c8.2,8.5,28.2,19.1,46,19.9c17.4,0.8,31.8-5,42.4-13.5
					c25.4-0.5,42.8-7.3,56.2-16.8c8,21.4,24.5,36.6,51,38.4c24.2,1.7,41.2-9.5,53.1-27.1c6.2,2.6,13,3.9,20.6,4.4
					c10,0.7,18.8-1,26.3-4.5l-1.5,15.6c-1.5,15.7,10.1,19.8,18.6,20.6c12.3,1.2,12.8-9,13.6-17.1l5.9-61.9
					c6.2-33.2,35.9-67.1,48.2-66c8.1,0.8,7.8,11.9,6.6,25l-8.2,86c-2.1,21.6,9.3,41.1,31.8,43.2c36.5,3.5,57-33,66.9-60.3
					c0.6-1.7,0.7-2.5,0.7-2.9c0.2-1.7-0.1-3.5-0.5-5.3c8.1-22.8,13.4-51.5,15.5-65.5l4.7,0.6l32.1,3.8c-17.9,34.8-29,63.9-32.3,90.9
					c-4.4,37.2,17.9,51,37.8,53.4c17.6,2.1,31.6-5.3,42.6-16.5c3.5,13.5,13.4,24,29.1,26.1c14.2,1.9,26.1-2.4,36-9.9
					c8.7,8.6,24.8,18.5,40.2,20.8c17.3,2.6,32.1-1.6,43.6-8.9c22.6,1.9,39.3-1.7,52.9-8.2c4.3,20.1,17.1,35,38.9,38.7
					c15.9,2.8,29-2.8,39.1-11c4.6,11.2,14.6,20.2,29.3,22.8c36.1,6.2,59.4-28.6,71.3-55.1c0.7-1.6,0.9-2.4,0.9-2.9
					C2145.3,315.3,2138.9,304.7,2132.2,303.5z M1421.7,205.4c-0.4,6.4-1.3,12.7-2.6,19.5c-8.9-13.4-14-31.7-12.7-50.8
					c0.9-13.2,3.9-19.8,8.6-19.5C1423.9,155.2,1423.7,176.5,1421.7,205.4z M1908,291.4c-1.6,10.5-7.7,19.5-13.2,24.3
					c-11.8-1.8-27.9-12.1-41.2-21c2.8-5.3,5.3-10.5,7.4-15.5c0.2-0.4,0.3-0.8,0.4-1.2c0.4-0.6,0.8-1.3,1.1-2.1
					c8.5-19.4,14.9-33.1,24.1-48.4C1899.1,244.8,1912,264.8,1908,291.4z"/>
			</g>
		</g>
	</g>
	<g>
		<g>
			<path class="st2" d="M883.8,548.9c14.5,0,26.4-11.2,27.7-25.4l-0.3,0.3c0.7-2.7,0.7-5.4,0.7-7.8c0-16.2-6.8-29.8-19.3-38.5
				l10.1-29.8c10.5-29.8-40.2-42.6-51.7-9.5c-0.7,3-8.8,25-10.1,28.7c-22.7,4.1-40.9,21.6-43.9,46c-1.4,18.6,7.1,32.8,17.6,45.6
				c-4.4-1.4-9.1-2-14.5-2c-29.1,0-52.1,22.7-52.4,50.7c0,18.6,10.8,35.5,27.4,45.6l-10.5,30.4c-9.8,29.8,38.5,43.9,51.1,10.1
				c1-3,10.1-26.4,11.2-29.4c41.6-4.4,67.6-36.2,67.6-67.6c0-21.3-11.2-36.5-22.7-50.7C875,547.9,879.4,548.9,883.8,548.9z
				 M815.9,629.4c-12.5,0-22-8.5-23-19.3c4.7,3.7,10.8,6.1,17.2,6.1c14.9,0,26.7-11.5,27.7-26c1.7,4.4,3,8.8,3,13.9
				C840.9,618.6,829.4,629.4,815.9,629.4z M856.1,521.2c0,2.4,0.3,5.1,1,7.4c-4.7-6.4-7.8-12.2-7.8-18.3c0-7.4,4.7-13.5,11.8-13.5
				c2.4,0,4.7,1,6.4,1.7C861.2,503.6,856.1,512.4,856.1,521.2z"/>
			<path class="st2" d="M1114.4,484.7c0-42.3-36.9-71.3-80.1-71.3c-31.8,0-75.1,12.2-92,56.1L928.1,508c-3.4,9.5-5.1,18.9-5.1,27.7
				c0,41.2,36.2,68.6,74,68.6c7.4,0,15.5-1,23.7-3.7l-9.8,26.4c-7.8,19.3-25.7,28.7-39.2,28.7c-11.8,0-18.9-4.4-21.6-12.9
				c-4.4-40.6-51.7-35.8-50.4,3c1.4,39.2,39.2,59.8,74.7,59.8c32.5,0,72-17.6,88.9-63.6l46.3-130.8
				C1112.7,502.6,1114.4,492.8,1114.4,484.7z M1057.3,499.2l-15.6,42.6l1-1c-8.1,13.5-24.3,23-42.3,21c-12.9-1-24.3-11.2-24.3-26.4
				c0-4.1,0.7-8.8,2.7-13.9l12.5-35.8c7.1-18.9,22.7-30.4,39.9-30.1c16.6,0.3,29.1,11.5,29.1,28.1
				C1060.3,488.1,1059.3,493.5,1057.3,499.2z"/>
			<path class="st2" d="M1317.9,484.7c0-42.3-36.9-71.3-80.1-71.3c-31.8,0-75.1,12.2-92,56.1l-14.2,38.5c-3.4,9.5-5.1,18.9-5.1,27.7
				c0,41.2,36.2,68.6,74,68.6c7.4,0,15.5-1,23.7-3.7l-9.8,26.4c-7.8,19.3-25.7,28.7-39.2,28.7c-11.8,0-18.9-4.4-21.6-12.9
				c-4.4-40.6-51.7-35.8-50.4,3c1.4,39.2,39.2,59.8,74.7,59.8c32.5,0,72-17.6,88.9-63.6l46.3-130.8
				C1316.2,502.6,1317.9,492.8,1317.9,484.7z M1260.8,499.2l-15.6,42.6l1-1c-8.1,13.5-24.3,23-42.3,21c-12.9-1-24.3-11.2-24.3-26.4
				c0-4.1,0.7-8.8,2.7-13.9l12.5-35.8c7.1-18.9,22.7-30.4,39.9-30.1c16.6,0.3,29.1,11.5,29.1,28.1
				C1263.8,488.1,1262.8,493.5,1260.8,499.2z"/>
			<path class="st2" d="M1524.8,479.6c0-40.2-37.9-69-81.8-69c-32.8,0-73.4,15.5-90.9,65.6l-46,131.5c-3.4,10.1-5.7,21-5.7,30.4
				c0,43.6,36.5,67.6,77.4,67.6c35.8,0,78.1-18.6,98-74.7l45-128.1C1523.5,494.8,1524.8,487.4,1524.8,479.6z M1469.4,489.1
				l-48,136.9c-8.1,23.3-24.3,37.2-41.9,37.2c-14.9,0-26.7-10.1-26.7-25c0-3.4,0.7-7.8,2.4-12.2l49.4-140.6
				c8.5-22.3,25-32.1,39.6-32.1c15.2,0,27.4,10.5,27.4,25C1471.4,481.6,1470.7,485,1469.4,489.1z"/>
			<path class="st2" d="M1541.7,650c-15.6,0-27.7,12.2-27.7,27.7c0,15.2,12.2,27.7,27.7,27.7c15.2,0,27.7-12.5,27.7-27.7
				C1569.5,662.2,1557,650,1541.7,650z"/>
			<path class="st2" d="M1797,479.6c0-40.2-37.9-69-81.8-69c-32.8,0-73.4,15.5-90.9,65.6l-46,131.5c-3.4,10.1-5.8,21-5.8,30.4
				c0,43.6,36.5,67.6,77.4,67.6c35.8,0,78.1-18.6,98-74.7l45-128.1C1795.6,494.8,1797,487.4,1797,479.6z M1741.6,489.1l-48,136.9
				c-8.1,23.3-24.3,37.2-41.9,37.2c-14.9,0-26.7-10.1-26.7-25c0-3.4,0.7-7.8,2.4-12.2l49.4-140.6c8.5-22.3,25-32.1,39.6-32.1
				c15.2,0,27.4,10.5,27.4,25C1743.6,481.6,1742.9,485,1741.6,489.1z"/>
			<path class="st2" d="M2001.2,479.6c0-40.2-37.9-69-81.8-69c-32.8,0-73.4,15.5-90.9,65.6l-46,131.5c-3.4,10.1-5.8,21-5.8,30.4
				c0,43.6,36.5,67.6,77.4,67.6c35.8,0,78.1-18.6,98-74.7l45-128.1C1999.8,494.8,2001.2,487.4,2001.2,479.6z M1945.8,489.1
				l-48,136.9c-8.1,23.3-24.3,37.2-41.9,37.2c-14.9,0-26.7-10.1-26.7-25c0-3.4,0.7-7.8,2.4-12.2l49.4-140.6
				c8.5-22.3,25-32.1,39.6-32.1c15.2,0,27.4,10.5,27.4,25C1947.8,481.6,1947.1,485,1945.8,489.1z"/>
			<path class="st2" d="M2123.6,410.6c-32.8,0-73.4,15.5-90.9,65.6l-46,131.5c-3.4,10.1-5.7,21-5.7,30.4c0,43.6,36.5,67.6,77.4,67.6
				c35.8,0,78.1-18.6,98-74.7l45-128.1c2.7-8.1,4.1-15.5,4.1-23.3C2205.4,439.4,2167.5,410.6,2123.6,410.6z M2150,489.1L2102,626
				c-8.1,23.3-24.3,37.2-41.9,37.2c-14.9,0-26.7-10.1-26.7-25c0-3.4,0.7-7.8,2.4-12.2l49.4-140.6c8.5-22.3,25-32.1,39.6-32.1
				c15.2,0,27.4,10.5,27.4,25C2152,481.6,2151.3,485,2150,489.1z"/>
		</g>
		<g>
			<linearGradient id="SVGID_1_" gradientUnits="userSpaceOnUse" x1="734.5644" y1="554.002" x2="898.8759" y2="554.002">
				<stop  offset="0" style="stop-color:#FFCE00"/>
				<stop  offset="0.7622" style="stop-color:#FFC300"/>
				<stop  offset="1" style="stop-color:#FFBF00"/>
			</linearGradient>
			<path class="st3" d="M870.8,536.9c14.5,0,26.4-11.2,27.7-25.4l-0.3,0.3c0.7-2.7,0.7-5.4,0.7-7.8c0-16.2-6.8-29.8-19.3-38.5
				l10.1-29.8c10.5-29.8-40.2-42.6-51.7-9.5c-0.7,3-8.8,25-10.1,28.7c-22.7,4.1-40.9,21.6-43.9,46c-1.4,18.6,7.1,32.8,17.6,45.6
				c-4.4-1.4-9.1-2-14.5-2c-29.1,0-52.1,22.7-52.4,50.7c0,18.6,10.8,35.5,27.4,45.6l-10.5,30.4c-9.8,29.8,38.5,43.9,51.1,10.1
				c1-3,10.1-26.4,11.2-29.4c41.6-4.4,67.6-36.2,67.6-67.6c0-21.3-11.2-36.5-22.7-50.7C862,535.9,866.4,536.9,870.8,536.9z
				 M802.9,617.4c-12.5,0-22-8.5-23-19.3c4.7,3.7,10.8,6.1,17.2,6.1c14.9,0,26.7-11.5,27.7-26c1.7,4.4,3,8.8,3,13.9
				C827.9,606.6,816.4,617.4,802.9,617.4z M843.1,509.2c0,2.4,0.3,5.1,1,7.4c-4.7-6.4-7.8-12.2-7.8-18.3c0-7.4,4.7-13.5,11.8-13.5
				c2.4,0,4.7,1,6.4,1.7C848.2,491.6,843.1,500.4,843.1,509.2z"/>
			<linearGradient id="SVGID_2_" gradientUnits="userSpaceOnUse" x1="886.6747" y1="547.5602" x2="1101.3916" y2="547.5602">
				<stop  offset="0" style="stop-color:#FFCE00"/>
				<stop  offset="0.7622" style="stop-color:#FFC300"/>
				<stop  offset="1" style="stop-color:#FFBF00"/>
			</linearGradient>
			<path class="st4" d="M1101.4,472.7c0-42.3-36.9-71.3-80.1-71.3c-31.8,0-75.1,12.2-92,56.1L915.1,496c-3.4,9.5-5.1,18.9-5.1,27.7
				c0,41.2,36.2,68.6,74,68.6c7.4,0,15.5-1,23.7-3.7l-9.8,26.4c-7.8,19.3-25.7,28.7-39.2,28.7c-11.8,0-18.9-4.4-21.6-12.9
				c-4.4-40.6-51.7-35.8-50.4,3c1.4,39.2,39.2,59.8,74.7,59.8c32.5,0,72-17.6,88.9-63.6l46.3-130.8
				C1099.7,490.6,1101.4,480.8,1101.4,472.7z M1044.3,487.2l-15.6,42.6l1-1c-8.1,13.5-24.3,23-42.3,21c-12.9-1-24.3-11.2-24.3-26.4
				c0-4.1,0.7-8.8,2.7-13.9l12.5-35.8c7.1-18.9,22.7-30.4,39.9-30.1c16.6,0.3,29.1,11.5,29.1,28.1
				C1047.3,476.1,1046.3,481.5,1044.3,487.2z"/>
			<linearGradient id="SVGID_3_" gradientUnits="userSpaceOnUse" x1="1090.2025" y1="547.5602" x2="1304.9194" y2="547.5602">
				<stop  offset="0" style="stop-color:#FFCE00"/>
				<stop  offset="0.7622" style="stop-color:#FFC300"/>
				<stop  offset="1" style="stop-color:#FFBF00"/>
			</linearGradient>
			<path class="st5" d="M1304.9,472.7c0-42.3-36.9-71.3-80.1-71.3c-31.8,0-75.1,12.2-92,56.1l-14.2,38.5c-3.4,9.5-5.1,18.9-5.1,27.7
				c0,41.2,36.2,68.6,74,68.6c7.4,0,15.5-1,23.7-3.7l-9.8,26.4c-7.8,19.3-25.7,28.7-39.2,28.7c-11.8,0-18.9-4.4-21.6-12.9
				c-4.4-40.6-51.7-35.8-50.4,3c1.4,39.2,39.2,59.8,74.7,59.8c32.5,0,72-17.6,88.9-63.6l46.3-130.8
				C1303.2,490.6,1304.9,480.8,1304.9,472.7z M1247.8,487.2l-15.6,42.6l1-1c-8.1,13.5-24.3,23-42.3,21c-12.9-1-24.3-11.2-24.3-26.4
				c0-4.1,0.7-8.8,2.7-13.9l12.5-35.8c7.1-18.9,22.7-30.4,39.9-30.1c16.6,0.3,29.1,11.5,29.1,28.1
				C1250.8,476.1,1249.8,481.5,1247.8,487.2z"/>
			<linearGradient id="SVGID_4_" gradientUnits="userSpaceOnUse" x1="1287.3408" y1="546.2086" x2="1511.833" y2="546.2086">
				<stop  offset="0" style="stop-color:#FFCE00"/>
				<stop  offset="0.7622" style="stop-color:#FFC300"/>
				<stop  offset="1" style="stop-color:#FFBF00"/>
			</linearGradient>
			<path class="st6" d="M1511.8,467.6c0-40.2-37.9-69-81.8-69c-32.8,0-73.4,15.5-90.9,65.6l-46,131.5c-3.4,10.1-5.7,21-5.7,30.4
				c0,43.6,36.5,67.6,77.4,67.6c35.8,0,78.1-18.6,98-74.7l45-128.1C1510.5,482.8,1511.8,475.4,1511.8,467.6z M1456.4,477.1
				l-48,136.9c-8.1,23.3-24.3,37.2-41.9,37.2c-14.9,0-26.7-10.1-26.7-25c0-3.4,0.7-7.8,2.4-12.2l49.4-140.6
				c8.5-22.3,25-32.1,39.6-32.1c15.2,0,27.4,10.5,27.4,25C1458.4,469.6,1457.7,473,1456.4,477.1z"/>
			<linearGradient id="SVGID_5_" gradientUnits="userSpaceOnUse" x1="1501.0117" y1="665.723" x2="1556.4604" y2="665.723">
				<stop  offset="0" style="stop-color:#FFCE00"/>
				<stop  offset="0.7622" style="stop-color:#FFC300"/>
				<stop  offset="1" style="stop-color:#FFBF00"/>
			</linearGradient>
			<path class="st7" d="M1528.7,638c-15.6,0-27.7,12.2-27.7,27.7c0,15.2,12.2,27.7,27.7,27.7c15.2,0,27.7-12.5,27.7-27.7
				C1556.5,650.2,1544,638,1528.7,638z"/>
			<linearGradient id="SVGID_6_" gradientUnits="userSpaceOnUse" x1="1559.5024" y1="546.2086" x2="1783.9951" y2="546.2086">
				<stop  offset="0" style="stop-color:#FFCE00"/>
				<stop  offset="0.7622" style="stop-color:#FFC300"/>
				<stop  offset="1" style="stop-color:#FFBF00"/>
			</linearGradient>
			<path class="st8" d="M1784,467.6c0-40.2-37.9-69-81.8-69c-32.8,0-73.4,15.5-90.9,65.6l-46,131.5c-3.4,10.1-5.8,21-5.8,30.4
				c0,43.6,36.5,67.6,77.4,67.6c35.8,0,78.1-18.6,98-74.7l45-128.1C1782.6,482.8,1784,475.4,1784,467.6z M1728.6,477.1l-48,136.9
				c-8.1,23.3-24.3,37.2-41.9,37.2c-14.9,0-26.7-10.1-26.7-25c0-3.4,0.7-7.8,2.4-12.2l49.4-140.6c8.5-22.3,25-32.1,39.6-32.1
				c15.2,0,27.4,10.5,27.4,25C1730.6,469.6,1729.9,473,1728.6,477.1z"/>
			<linearGradient id="SVGID_7_" gradientUnits="userSpaceOnUse" x1="1763.7085" y1="546.2086" x2="1988.2012" y2="546.2086">
				<stop  offset="0" style="stop-color:#FFCE00"/>
				<stop  offset="0.7622" style="stop-color:#FFC300"/>
				<stop  offset="1" style="stop-color:#FFBF00"/>
			</linearGradient>
			<path class="st9" d="M1988.2,467.6c0-40.2-37.9-69-81.8-69c-32.8,0-73.4,15.5-90.9,65.6l-46,131.5c-3.4,10.1-5.8,21-5.8,30.4
				c0,43.6,36.5,67.6,77.4,67.6c35.8,0,78.1-18.6,98-74.7l45-128.1C1986.8,482.8,1988.2,475.4,1988.2,467.6z M1932.8,477.1
				l-48,136.9c-8.1,23.3-24.3,37.2-41.9,37.2c-14.9,0-26.7-10.1-26.7-25c0-3.4,0.7-7.8,2.4-12.2l49.4-140.6
				c8.5-22.3,25-32.1,39.6-32.1c15.2,0,27.4,10.5,27.4,25C1934.8,469.6,1934.1,473,1932.8,477.1z"/>
			<linearGradient id="SVGID_8_" gradientUnits="userSpaceOnUse" x1="1967.9146" y1="546.2086" x2="2192.4072" y2="546.2086">
				<stop  offset="0" style="stop-color:#FFCE00"/>
				<stop  offset="0.7622" style="stop-color:#FFC300"/>
				<stop  offset="1" style="stop-color:#FFBF00"/>
			</linearGradient>
			<path class="st10" d="M2110.6,398.6c-32.8,0-73.4,15.5-90.9,65.6l-46,131.5c-3.4,10.1-5.7,21-5.7,30.4
				c0,43.6,36.5,67.6,77.4,67.6c35.8,0,78.1-18.6,98-74.7l45-128.1c2.7-8.1,4.1-15.5,4.1-23.3
				C2192.4,427.4,2154.5,398.6,2110.6,398.6z M2137,477.1L2089,614c-8.1,23.3-24.3,37.2-41.9,37.2c-14.9,0-26.7-10.1-26.7-25
				c0-3.4,0.7-7.8,2.4-12.2l49.4-140.6c8.5-22.3,25-32.1,39.6-32.1c15.2,0,27.4,10.5,27.4,25C2139,469.6,2138.3,473,2137,477.1z"/>
		</g>
		<g>
			<circle class="st11" cx="476" cy="590.2" r="203"/>
			<circle class="st1" cx="459.9" cy="574.1" r="203"/>
		</g>
		<g>
			<g>
				<path class="st12" d="M334.9,518.8c18.2,0,26.5,11,26.5,29.1v58.9c0,17.9-8.3,28.9-26.5,28.9h-27.4V518.8H334.9z M334.7,623.9
					c9.4,0,13.9-5.8,13.9-16.5v-60.1c0-10.7-4.5-16.5-14-16.5h-14v93.2H334.7z"/>
				<path class="st12" d="M415.2,570.6v11.7h-28.6v41.6h35.1v11.9h-48.1V518.8h48.1v11.9h-35.1v39.9H415.2z"/>
				<path class="st12" d="M484.3,546.9v3.2H472v-3.8c0-10.5-4-16.7-13.4-16.7c-9.4,0-13.4,6.2-13.4,16.5c0,26.2,39.2,28.7,39.2,61.6
					c0,17.7-8.5,29.2-26.4,29.2c-17.9,0-26.2-11.5-26.2-29.2V601h12.2v7.3c0,10.5,4.3,16.7,13.7,16.7c9.4,0,13.7-6.2,13.7-16.7
					c0-26-39.1-28.6-39.1-61.4c0-18,8.3-29.2,25.9-29.2C476,517.7,484.3,529.2,484.3,546.9z"/>
				<path class="st12" d="M523.3,518.8c18.2,0,26.5,11,26.5,29.1v58.9c0,17.9-8.3,28.9-26.5,28.9h-27.4V518.8H523.3z M523.1,623.9
					c9.4,0,13.9-5.8,13.9-16.5v-60.1c0-10.7-4.5-16.5-14-16.5h-14v93.2H523.1z"/>
				<path class="st12" d="M603.6,570.6v11.7H575v41.6h35.1v11.9H562V518.8h48.1v11.9H575v39.9H603.6z"/>
			</g>
		</g>
	</g>
	<g>
		<g>
			<path class="st12" d="M2190,1263.5c-6.1-10.4-12.2-20.8-13.4-30.2c7.9-3.4,13.4-10.7,15-19.2c1.8-13.1-7.3-26.6-20.8-28.7v0.3
				c-4.3-0.9-8.2-0.3-11.9,0.6c-7,1.5-14.4,6.7-21.4,16.8c-11.9,22.8-24.7,46.6-36.8,69.4c-1.6,0.4-3.1,1-4.5,1.7
				c-14.5,6-23,21.6-25.4,37.1c-15.7,17.1-37.3,24.7-55.7,24.7c-22.3,0-36.4-11.3-36.4-25.4c0-2.8,0.3-5.5,1.5-8.6l2.4-5.8
				c8.9,5.5,19.9,9.2,32.1,9.2c27.8,0,52.2-17.4,60.5-44.9c1.5-5.8,2.4-11.6,2.4-16.8c0-29-22.9-51.3-57.4-51.3
				c-27.2,0-53.8,15.9-64.5,46.4l-18,52.2c-1,3-1.9,6.1-2.5,9.1c-12.3,24.5-26.5,35.2-38.4,35.2c-6.1,0-9.5-3.7-9.5-8.2
				c0-1.2,0.6-3.4,1.2-5.2l61.7-178.1c11.9-32.7-33-42.2-43.7-9.5l-58.1,168.8c-11.8,22.6-24.6,32.3-36.3,32.3
				c-5.2,0-8.2-2.7-8.2-7.6c0-2.4,0.6-5.5,1.5-8.9l34.2-97.8c10.4-30.9-26.9-39.1-41.6-20.8c-6.1-4-18.3-9.5-35.1-9.5
				c-20.2,0-41.6,11.3-50.4,34.5l-28.7,81c-0.8,2.5-1.5,4.9-2,7.4c-10.6,14.4-22.9,21.3-34.6,21.3c-11,0-17.7-6.4-17.7-14.7
				c0-2.1,0.3-4.6,1.2-6.7l29-81.3h19.9c27.8,0,33-36.4,7-36.4h-13.7l20.2-57.4c7.6-23.5-33.9-37.9-43.7-7L1626,1196h-12.8
				c-30.9,0-28.1,36.4-10.1,36.4h10.1c-9.2,26.3-15.6,43.4-24.7,69.7v-0.3c-0.6,1.7-1.1,3.5-1.5,5.1c-11.1,20.1-23.4,28.8-34.2,28.8
				c-5.5,0-8.6-3.1-8.6-8.2c0-2.1,0.6-4.6,1.5-7.6l24.1-68.1l-0.3,0.3c2.1-6.1,3.4-11.6,3.4-16.8c0-24.4-20.8-41.2-45.2-41.2
				c-11.9,0-21.4,2.4-29.3,7c-3.7-11.6-33-13.4-37.6,3.7l-36.8,103.1c-15.9,19.6-39.1,28.2-58.8,28.2c-22.3,0-36.4-11.3-36.4-25.4
				c0-2.8,0.3-5.5,1.5-8.6l2.4-5.8c8.9,5.5,19.9,9.2,32.1,9.2c27.8,0,52.2-17.4,60.5-44.9c1.5-5.8,2.4-11.6,2.4-16.8
				c0-29-22.9-51.3-57.4-51.3c-27.2,0-53.8,15.9-64.5,46.4l-18,52.2c-1.1,3.2-1.9,6.3-2.6,9.5c-12,24.2-25.2,34.8-36.5,34.8
				c-6.1,0-9.5-4.3-9.5-9.2c0-1.8,0.3-3.7,1.2-5.5l60.2-174.2c11.6-32.7-31.5-48.3-43.4-9.5l-24.4,70.6c-9.2-10.1-22.6-16.2-37-16.2
				c-19.9,0-41.6,11.3-49.5,34.5l-28.4,80.4c-2.1,5.8-3.1,11.9-3.1,17.4c0,26.9,21.7,45.2,48,45.2c13.7,0,28.7-4.6,40.9-15.3
				c9.2,11,24.4,18,40.3,18c17.3,0,36-7.1,52.8-24.3c13.9,15.8,37.8,24.9,65.8,24.9c15.6,0,32.1-2.9,47.6-9.5
				c7.3,15.3,36.6,12.2,44.4-11c10.7-29.6,24.7-69.4,35.1-98.7c8.2-15.3,18.9-22.6,27.5-22.6c5.5,0,9.5,3.7,9.5,9.5
				c0,2.1-0.9,4.9-1.5,7.6l-21.7,60.8c-2.8,7-4,13.7-4,20.2c0,28.1,23.2,43.7,49.2,43.7c16,0,32.6-5.7,47.7-19.4
				c11,12.1,28.6,18.8,47.6,18.8c18,0,34.6-6.1,49-17.6c8.5,9.1,20.9,14.9,35,14.9c13.7,0,28.1-5.8,39.1-15.6
				c9.2,15.6,32.4,18.3,41.9,18.3c14.2,0,29.6-4.3,44.1-15.9c9.3,10.4,24,15.9,40,15.9c17,0,36.4-6.2,54-24
				c14,15.6,37.7,24.6,65.5,24.6c23.1,0,47.9-6.3,69-21.5c11.9,13.9,31.6,23,53.2,24c21.4,2.4,73.3-8.2,73.3-62.3
				C2208.1,1294.7,2198.6,1277.8,2190,1263.5z M2001.2,1243.3c3.7-9.2,11-14.7,18-14.7c8.6,0,14.1,7,14.1,15.6
				c0,2.4-0.3,4.9-1.2,7.3c-4.9,16.2-25.7,16.2-37.3,10.1L2001.2,1243.3z M1351.3,1243.3c3.7-9.2,11-14.7,18-14.7
				c8.6,0,14.1,7,14.1,15.6c0,2.4-0.3,4.9-1.2,7.3c-4.9,16.2-25.7,16.2-37.3,10.1L1351.3,1243.3z M1207.1,1269l-11,31.5
				c-9.2,22.6-21.4,25.4-27.2,24.1c-10.1-2.4-7.6-15.3-5.5-21.4l15.9-47.4c9.5-26,22-20.8,22.9-20.2
				C1202.9,1236,1217.2,1239.3,1207.1,1269z M1776.3,1269l-11,31.5c-9.2,22.6-21.4,25.4-27.2,24.1c-10.1-2.4-7.6-15.3-5.5-21.4
				l15.9-47.4c9.5-26,22-20.8,22.9-20.2C1772.1,1236,1786.4,1239.3,1776.3,1269z M2159.8,1321.2c-3.1,11-11.6,16.5-22.3,16.8
				c-10.4,0-19.6-4.6-22.9-12.5c31.2,6.4,44.6-31.2,27.5-48.6l2.8-5.8C2156.1,1284.9,2164.7,1304.4,2159.8,1321.2z"/>
			<path class="st1" d="M2163.3,1240.7c-6.1-10.4-12.2-20.8-13.4-30.2c7.9-3.4,13.4-10.7,15-19.2c1.8-13.1-7.3-26.6-20.8-28.7v0.3
				c-4.3-0.9-8.2-0.3-11.9,0.6c-7,1.5-14.4,6.7-21.4,16.8c-11.9,22.8-24.7,46.6-36.8,69.4c-1.6,0.4-3.1,1-4.5,1.7
				c-14.5,6-23,21.6-25.4,37.1c-15.7,17.1-37.3,24.7-55.7,24.7c-22.3,0-36.4-11.3-36.4-25.4c0-2.8,0.3-5.5,1.5-8.6l2.4-5.8
				c8.9,5.5,19.9,9.2,32.1,9.2c27.8,0,52.2-17.4,60.5-44.9c1.5-5.8,2.4-11.6,2.4-16.8c0-29-22.9-51.3-57.4-51.3
				c-27.2,0-53.8,15.9-64.5,46.4l-18,52.2c-1,3-1.9,6.1-2.5,9.1c-12.3,24.5-26.5,35.2-38.4,35.2c-6.1,0-9.5-3.7-9.5-8.2
				c0-1.2,0.6-3.4,1.2-5.2l61.7-178.1c11.9-32.7-33-42.2-43.7-9.5l-58.1,168.8c-11.8,22.6-24.6,32.3-36.3,32.3
				c-5.2,0-8.2-2.7-8.2-7.6c0-2.4,0.6-5.5,1.5-8.9l34.2-97.8c10.4-30.9-26.9-39.1-41.6-20.8c-6.1-4-18.3-9.5-35.1-9.5
				c-20.2,0-41.6,11.3-50.4,34.5l-28.7,81c-0.8,2.5-1.5,4.9-2,7.4c-10.6,14.4-22.9,21.3-34.6,21.3c-11,0-17.7-6.4-17.7-14.7
				c0-2.1,0.3-4.6,1.2-6.7l29-81.3h19.9c27.8,0,33-36.4,7-36.4H1646l20.2-57.4c7.6-23.5-33.9-37.9-43.7-7l-23.2,64.5h-12.8
				c-30.9,0-28.1,36.4-10.1,36.4h10.1c-9.2,26.3-15.6,43.4-24.7,69.7v-0.3c-0.6,1.7-1.1,3.5-1.5,5.1c-11.1,20.1-23.4,28.8-34.2,28.8
				c-5.5,0-8.6-3.1-8.6-8.2c0-2.1,0.6-4.6,1.5-7.6l24.1-68.1l-0.3,0.3c2.1-6.1,3.4-11.6,3.4-16.8c0-24.4-20.8-41.2-45.2-41.2
				c-11.9,0-21.4,2.4-29.3,7c-3.7-11.6-33-13.4-37.6,3.7l-36.8,103.1c-15.9,19.6-39.1,28.2-58.8,28.2c-22.3,0-36.4-11.3-36.4-25.4
				c0-2.8,0.3-5.5,1.5-8.6l2.4-5.8c8.9,5.5,19.9,9.2,32.1,9.2c27.8,0,52.2-17.4,60.5-44.9c1.5-5.8,2.4-11.6,2.4-16.8
				c0-29-22.9-51.3-57.4-51.3c-27.2,0-53.8,15.9-64.5,46.4l-18,52.2c-1.1,3.2-1.9,6.3-2.6,9.5c-12,24.2-25.2,34.8-36.5,34.8
				c-6.1,0-9.5-4.3-9.5-9.2c0-1.8,0.3-3.7,1.2-5.5l60.2-174.2c11.6-32.7-31.5-48.3-43.4-9.5l-24.4,70.6c-9.2-10.1-22.6-16.2-37-16.2
				c-19.9,0-41.6,11.3-49.5,34.5l-28.4,80.4c-2.1,5.8-3.1,11.9-3.1,17.4c0,26.9,21.7,45.2,48,45.2c13.7,0,28.7-4.6,40.9-15.3
				c9.2,11,24.4,18,40.3,18c17.3,0,36-7.1,52.8-24.3c13.9,15.8,37.8,24.9,65.8,24.9c15.6,0,32.1-2.9,47.6-9.5
				c7.3,15.3,36.6,12.2,44.4-11c10.7-29.6,24.7-69.4,35.1-98.7c8.2-15.3,18.9-22.6,27.5-22.6c5.5,0,9.5,3.7,9.5,9.5
				c0,2.1-0.9,4.9-1.5,7.6l-21.7,60.8c-2.8,7-4,13.7-4,20.2c0,28.1,23.2,43.7,49.2,43.7c16,0,32.6-5.7,47.7-19.4
				c11,12.1,28.6,18.8,47.6,18.8c18,0,34.6-6.1,49-17.6c8.5,9.1,20.9,14.9,35,14.9c13.7,0,28.1-5.8,39.1-15.6
				c9.2,15.6,32.4,18.3,41.9,18.3c14.2,0,29.6-4.3,44.1-15.9c9.3,10.4,24,15.9,40,15.9c17,0,36.4-6.2,54-24
				c14,15.6,37.7,24.6,65.5,24.6c23.1,0,47.9-6.3,69-21.5c11.9,13.9,31.6,23,53.2,24c21.4,2.4,73.3-8.2,73.3-62.3
				C2181.3,1271.8,2171.9,1255,2163.3,1240.7z M1974.5,1220.5c3.7-9.2,11-14.7,18-14.7c8.6,0,14.1,7,14.1,15.6
				c0,2.4-0.3,4.9-1.2,7.3c-4.9,16.2-25.7,16.2-37.3,10.1L1974.5,1220.5z M1324.6,1220.5c3.7-9.2,11-14.7,18-14.7
				c8.6,0,14.1,7,14.1,15.6c0,2.4-0.3,4.9-1.2,7.3c-4.9,16.2-25.7,16.2-37.3,10.1L1324.6,1220.5z M1180.4,1246.2l-11,31.5
				c-9.2,22.6-21.4,25.4-27.2,24.1c-10.1-2.4-7.6-15.3-5.5-21.4l15.9-47.4c9.5-26,22-20.8,22.9-20.2
				C1176.1,1213.2,1190.5,1216.5,1180.4,1246.2z M1749.6,1246.2l-11,31.5c-9.2,22.6-21.4,25.4-27.2,24.1
				c-10.1-2.4-7.6-15.3-5.5-21.4l15.9-47.4c9.5-26,22-20.8,22.9-20.2C1745.3,1213.2,1759.7,1216.5,1749.6,1246.2z M2133.1,1298.4
				c-3.1,11-11.6,16.5-22.3,16.8c-10.4,0-19.6-4.6-22.9-12.5c31.2,6.4,44.6-31.2,27.5-48.6l2.8-5.8
				C2129.4,1262.1,2137.9,1281.6,2133.1,1298.4z"/>
		</g>
		<g>
			<g>
				<path class="st12" d="M473.7,1000.4c-13.4,36.5-30.1,51.8-44.5,51.8c-5.5,0-8.5-3-8.5-8.2c0-2.1,0.6-4.6,1.5-7.6l24.1-67.9
					l-0.3,0.3c2.1-6.1,3.3-11.6,3.3-16.7c0-24.4-20.7-41.1-45.1-41.1c-11.9,0-21.3,2.4-29.2,7c-3.7-11.6-32.9-13.4-37.5,3.7
					l-32.9,92.1c-19.7,24.6-52.7,36.5-79.5,36.8c-35.3-3.3-50.6-23.1-39.9-54.5c9.1-21.6,28-24.1,42.9-24.1
					c56.9,34.7,74.6-43.9,30.5-45.7c-18.3,0-27.7-12.5-27.7-26.8c0-19.8,11.3-34.4,31.4-34.4c9.4,0,18.3,7,20.7,14
					c4.3,30.8,43.9,28.3,45.4,1.5c1.8-32.3-27.1-56.3-65.2-56.3c-31.1,0-65.2,17.7-77.4,54.5l-0.6,1.8c-2.1,7-3.3,14-3.3,20.1
					c0,12.8,4.3,24.1,11.9,33.2c-45.4,8.5-61.8,50.6-61.8,82.8c0,39.9,34.7,70.3,87.7,72.2c23,0.7,45.8-4,66.2-13.6
					c3.6,19.8,37.1,18.2,45.5-6.8c10.7-29.5,24.7-69.1,35-98.4c8.2-15.2,18.9-22.5,27.4-22.5c5.5,0,9.4,3.7,9.4,9.4
					c0,2.1-0.9,4.9-1.5,7.6l-21.6,60.6c-2.7,7-4,13.7-4,20.1c0,28,23.1,43.5,49,43.5c31.1,0,64.3-21.6,85.3-81
					C519.4,983.4,481,977.3,473.7,1000.4z"/>
				<path class="st12" d="M661.9,881.3c13.7,0,25-11.3,25-25.3c0-13.7-11.3-24.7-25-24.7s-25,11-25,24.7
					C636.9,870.1,648.2,881.3,661.9,881.3z"/>
				<path class="st12" d="M1820.1,980.3c-6.1-10.4-12.2-20.7-13.4-30.1c7.9-3.3,13.4-10.7,14.9-19.2c1.8-13.1-7.3-26.5-20.7-28.6
					v0.3c-4.3-0.9-8.2-0.3-11.9,0.6c-7,1.5-14.3,6.7-21.3,16.7c-11.8,22.8-24.6,46.4-36.7,69.2c-1.6,0.4-3.1,1-4.5,1.7
					c-14.5,5.9-22.9,21.5-25.3,37c-15.7,17-37.2,24.6-55.6,24.6c-22.2,0-36.2-11.3-36.2-25.3c0-2.7,0.3-5.5,1.5-8.5l2.4-5.8
					c8.8,5.5,19.8,9.1,32,9.1c27.7,0,52.1-17.4,60.3-44.8c1.5-5.8,2.4-11.6,2.4-16.7c0-28.9-22.8-51.2-57.3-51.2
					c-27.1,0-53.6,15.8-64.3,46.3l-18,52.1c-0.8,2.5-1.6,5-2.2,7.5c-12,24.6-28.3,36.3-43.5,36.3c-11,0-17.7-6.4-17.7-14.6
					c0-2.1,0.3-4.6,1.2-6.7l28.9-81h19.8c27.7,0,32.9-36.2,7-36.2h-13.7l20.1-57.3c7.6-23.4-33.8-37.8-43.5-7l-23.1,64.3H1489
					c-30.8,0-28,36.2-10.1,36.2h10.1c-9.1,26.2-15.5,43.2-24.7,69.4v-0.3c-0.6,1.7-1.1,3.4-1.5,5.1c-11.1,20-23.3,28.7-34.1,28.7
					c-5.5,0-8.5-3-8.5-8.2c0-2.1,0.6-4.6,1.5-7.6l24.1-67.9l-0.3,0.3c2.1-6.1,3.3-11.6,3.3-16.7c0-24.4-20.7-41.1-45.1-41.1
					c-11.9,0-21.3,2.4-29.2,7c-3.7-11.6-32.9-13.4-37.5,3.7l-39.4,110.4c-9.6,13.8-19.6,20-28.8,20c-5.2,0-8.2-2.7-8.2-7.6
					c0-2.4,0.6-5.5,1.5-8.8l34.1-97.5c10.4-30.8-26.8-39-41.4-20.7c-6.1-4-18.3-9.4-35-9.4c-20.1,0-41.4,11.3-50.2,34.4l-28.6,80.7
					c-1,3-1.8,5.9-2.3,8.9c-9.9,13.8-20.3,20.1-29.4,20.1c-6.1,0-9.4-3.7-9.4-8.2c0-1.2,0.6-3.4,1.2-5.2l61.5-177.5
					c11.9-32.6-32.9-42-43.5-9.4l-55.6,161.5c-10.2,17.9-25.2,29.9-42.4,36.2c1.5-3.3,1.8-4.3,2.7-6.4c8.5-23.1,17.4-48.4,25.9-71.9
					c1.8-5.2,2.7-10.4,2.7-15.8c0-24.7-20.4-45.4-44.2-45.4c-8.2,0-18,1.2-24.7,6.7c0.9-14-37.2-22.2-44.8,5.2l-37.2,105.2
					c-10.6,17.7-22,25.4-32.2,25.4c-6.1,0-9.1-3.3-9.1-7.9c0-1.5,0-3,0.6-4.3c8.2-22.8,17.7-48.7,25.9-71.6c1.8-5.8,3-11.9,3-17.1
					c0-24.1-19.8-38.4-44.8-40.8c-10.4-0.9-30.1,0-46.6,13.7c-6.1-6.7-15.2-12.8-31.1-13.7c-14.6-0.6-21.9,3.3-28.3,5.8
					c-8.2-10.7-33.5-8.8-39.6,6.4l-35.7,100.8c-11.3,21-22.9,28.3-32.2,28.3c-7,0-11.6-4.6-11.6-10.4c0-1.5,0.3-3,0.9-4.9l33.5-95.6
					c10.7-35-31.1-44.2-42.6-10.7c-9.7,28.6-22.5,64.9-32.3,93.2c-1.8,6.1-3.7,14.3-3.7,19.5c0,28.6,23.8,45.1,51.8,45.1
					c9.6,0,19.5-1.9,29.3-6.6c11.4,7.6,32.5,4,38-14.4l35-98.7c6.4-13.1,16.1-20.4,25.3-20.4c6.1,0,10.4,3.3,10.4,8.8
					c0,1.5-0.3,3.3-1.2,5.5l-34.7,97.1c-13.1,32.6,31.7,40.8,42.6,10c10.4-29.5,23.8-67.3,34.1-96.8v0.6
					c6.7-15.5,17.1-25.3,27.1-25.3c5.5,0,9.7,3.7,9.7,9.4c0,1.8-0.3,4-1.5,6.4l-21.6,61.2c-2.4,7-3.7,14-3.7,20.4
					c0,27.7,22.8,43.2,49.6,43.2c4.7,0,9.4-0.5,14.2-1.5l-17.2,48.7c-12.5,32.9,34.7,39.6,42.9,12.8c7.3-20.4,17.4-49.6,24.4-70
					c7.9,6.1,17.7,10,29.8,10c7.6,0.9,15.8,1.2,23.1,1.2c31,0,57.9-7,79.3-21.9c8.8,13.1,25.1,20.1,43.1,20.1
					c14.3,0,30.4-4.4,45.6-16.5c8.5,8.5,20.4,13.8,33.9,13.8c13.7,0,28-5.8,39-15.5c9.1,15.5,32.3,18.3,41.7,18.3
					c7.8,0,16-1.3,24.2-4.4c10.3,9.8,34.1,5.1,41-15.4c10.7-29.5,24.7-69.1,35-98.4c8.2-15.2,18.9-22.5,27.4-22.5
					c5.5,0,9.4,3.7,9.4,9.4c0,2.1-0.9,4.9-1.5,7.6l-21.6,60.6c-2.7,7-4,13.7-4,20.1c0,28,23.1,43.5,49,43.5
					c15.9,0,32.5-5.7,47.6-19.3c11,12.1,28.5,18.7,47.4,18.7c21.5,0,41-8.8,57.1-25c13.8,16.2,37.9,25.6,66.2,25.6
					c23,0,47.8-6.3,68.8-21.4c11.8,13.9,31.5,22.9,53.1,23.9c21.3,2.4,73.1-8.2,73.1-62.1C1838,1011.4,1828.6,994.6,1820.1,980.3z
					 M1631.8,960.2c3.7-9.1,11-14.6,18-14.6c8.5,0,14,7,14,15.5c0,2.4-0.3,4.9-1.2,7.3c-4.9,16.1-25.6,16.1-37.2,10L1631.8,960.2z
					 M1001.1,973.3c-7.6,24.1-12.2,35.6-20.4,59.4c-3.3,9.1-11.6,14.6-19.8,14.9c-9.7,0-16.7-6.7-12.8-19.8l21-60l-0.6,0.3
					c5.2-10.7,14.6-16.4,23.1-16.1C1001.1,952.6,1005.1,961.7,1001.1,973.3z M1233.2,985.8l-11,31.4c-9.1,22.5-21.3,25.3-27.1,24.1
					c-10.1-2.4-7.6-15.2-5.5-21.3l15.8-47.2c9.4-25.9,21.9-20.7,22.8-20.1C1228.9,952.9,1243.3,956.3,1233.2,985.8z M1789.9,1037.9
					c-3,11-11.6,16.4-22.2,16.7c-10.4,0-19.5-4.6-22.8-12.5c31.1,6.4,44.5-31.1,27.4-48.4l2.7-5.8
					C1786.2,1001.6,1794.8,1021.1,1789.9,1037.9z"/>
			</g>
			<g>
				<path class="st1" d="M450.2,975.7c-13.4,36.5-30.1,51.8-44.5,51.8c-5.5,0-8.5-3-8.5-8.2c0-2.1,0.6-4.6,1.5-7.6l24.1-67.9
					l-0.3,0.3c2.1-6.1,3.3-11.6,3.3-16.7c0-24.4-20.7-41.1-45.1-41.1c-11.9,0-21.3,2.4-29.2,7c-3.7-11.6-32.9-13.4-37.5,3.7
					l-32.9,92.1c-19.7,24.6-52.7,36.5-79.5,36.8c-35.3-3.3-50.6-23.1-39.9-54.5c9.1-21.6,28-24.1,42.9-24.1
					c56.9,34.7,74.6-43.9,30.5-45.7c-18.3,0-27.7-12.5-27.7-26.8c0-19.8,11.3-34.4,31.4-34.4c9.4,0,18.3,7,20.7,14
					c4.3,30.8,43.9,28.3,45.4,1.5c1.8-32.3-27.1-56.3-65.2-56.3c-31.1,0-65.2,17.7-77.4,54.5l-0.6,1.8c-2.1,7-3.3,14-3.3,20.1
					c0,12.8,4.3,24.1,11.9,33.2c-45.4,8.5-61.8,50.6-61.8,82.8c0,39.9,34.7,70.3,87.7,72.2c23,0.7,45.8-4,66.2-13.6
					c3.6,19.8,37.1,18.2,45.5-6.8c10.7-29.5,24.7-69.1,35-98.4c8.2-15.2,18.9-22.5,27.4-22.5c5.5,0,9.4,3.7,9.4,9.4
					c0,2.1-0.9,4.9-1.5,7.6l-21.6,60.6c-2.7,7-4,13.7-4,20.1c0,28,23.1,43.5,49,43.5c31.1,0,64.3-21.6,85.3-81
					C495.9,958.6,457.5,952.5,450.2,975.7z"/>
				<path class="st1" d="M638.4,856.6c13.7,0,25-11.3,25-25.3c0-13.7-11.3-24.7-25-24.7c-13.7,0-25,11-25,24.7
					C613.5,845.3,624.7,856.6,638.4,856.6z"/>
				<path class="st1" d="M1796.6,955.6c-6.1-10.4-12.2-20.7-13.4-30.1c7.9-3.3,13.4-10.7,14.9-19.2c1.8-13.1-7.3-26.5-20.7-28.6v0.3
					c-4.3-0.9-8.2-0.3-11.9,0.6c-7,1.5-14.3,6.7-21.3,16.7c-11.8,22.8-24.6,46.4-36.7,69.2c-1.6,0.4-3.1,1-4.5,1.7
					c-14.5,5.9-22.9,21.5-25.3,37c-15.7,17-37.2,24.6-55.6,24.6c-22.2,0-36.2-11.3-36.2-25.3c0-2.7,0.3-5.5,1.5-8.5l2.4-5.8
					c8.8,5.5,19.8,9.1,32,9.1c27.7,0,52.1-17.4,60.3-44.8c1.5-5.8,2.4-11.6,2.4-16.7c0-28.9-22.8-51.2-57.3-51.2
					c-27.1,0-53.6,15.8-64.3,46.3l-18,52.1c-0.8,2.5-1.6,5-2.2,7.5c-12,24.6-28.3,36.3-43.5,36.3c-11,0-17.7-6.4-17.7-14.6
					c0-2.1,0.3-4.6,1.2-6.7l28.9-81h19.8c27.7,0,32.9-36.2,7-36.2h-13.7L1545,831c7.6-23.4-33.8-37.8-43.5-7l-23.1,64.3h-12.8
					c-30.8,0-28,36.2-10.1,36.2h10.1c-9.1,26.2-15.5,43.2-24.7,69.4v-0.3c-0.6,1.7-1.1,3.4-1.5,5.1c-11.1,20-23.3,28.7-34.1,28.7
					c-5.5,0-8.5-3-8.5-8.2c0-2.1,0.6-4.6,1.5-7.6l24.1-67.9l-0.3,0.3c2.1-6.1,3.3-11.6,3.3-16.7c0-24.4-20.7-41.1-45.1-41.1
					c-11.9,0-21.3,2.4-29.2,7c-3.7-11.6-32.9-13.4-37.5,3.7l-39.4,110.4c-9.6,13.8-19.6,20-28.8,20c-5.2,0-8.2-2.7-8.2-7.6
					c0-2.4,0.6-5.5,1.5-8.8l34.1-97.5c10.4-30.8-26.8-39-41.4-20.7c-6.1-4-18.3-9.4-35-9.4c-20.1,0-41.4,11.3-50.2,34.4l-28.6,80.7
					c-1,3-1.8,5.9-2.3,8.9c-9.9,13.8-20.3,20.1-29.4,20.1c-6.1,0-9.4-3.7-9.4-8.2c0-1.2,0.6-3.4,1.2-5.2l61.5-177.5
					c11.9-32.6-32.9-42-43.5-9.4l-55.6,161.5c-10.2,17.9-25.2,29.9-42.4,36.2c1.5-3.3,1.8-4.3,2.7-6.4c8.5-23.1,17.4-48.4,25.9-71.9
					c1.8-5.2,2.7-10.4,2.7-15.8c0-24.7-20.4-45.4-44.2-45.4c-8.2,0-18,1.2-24.7,6.7c0.9-14-37.2-22.2-44.8,5.2L878,1002
					c-10.6,17.7-22,25.4-32.2,25.4c-6.1,0-9.1-3.3-9.1-7.9c0-1.5,0-3,0.6-4.3c8.2-22.8,17.7-48.7,25.9-71.6c1.8-5.8,3-11.9,3-17.1
					c0-24.1-19.8-38.4-44.8-40.8c-10.4-0.9-30.1,0-46.6,13.7c-6.1-6.7-15.2-12.8-31.1-13.7c-14.6-0.6-21.9,3.3-28.3,5.8
					c-8.2-10.7-33.5-8.8-39.6,6.4l-35.7,100.8c-11.3,21-22.9,28.3-32.2,28.3c-7,0-11.6-4.6-11.6-10.4c0-1.5,0.3-3,0.9-4.9l33.5-95.6
					c10.7-35-31.1-44.2-42.6-10.7c-9.7,28.6-22.5,64.9-32.3,93.2c-1.8,6.1-3.7,14.3-3.7,19.5c0,28.6,23.8,45.1,51.8,45.1
					c9.6,0,19.5-1.9,29.3-6.6c11.4,7.6,32.5,4,38-14.4l35-98.7c6.4-13.1,16.1-20.4,25.3-20.4c6.1,0,10.4,3.3,10.4,8.8
					c0,1.5-0.3,3.3-1.2,5.5l-34.7,97.1c-13.1,32.6,31.7,40.8,42.6,10c10.4-29.5,23.8-67.3,34.1-96.8v0.6
					c6.7-15.5,17.1-25.3,27.1-25.3c5.5,0,9.7,3.7,9.7,9.4c0,1.8-0.3,4-1.5,6.4l-21.6,61.2c-2.4,7-3.7,14-3.7,20.4
					c0,27.7,22.8,43.2,49.6,43.2c4.7,0,9.4-0.5,14.2-1.5l-17.2,48.7c-12.5,32.9,34.7,39.6,42.9,12.8c7.3-20.4,17.4-49.6,24.4-70
					c7.9,6.1,17.7,10,29.8,10c7.6,0.9,15.8,1.2,23.1,1.2c31,0,57.9-7,79.3-21.9c8.8,13.1,25.1,20.1,43.1,20.1
					c14.3,0,30.4-4.4,45.6-16.5c8.5,8.5,20.4,13.8,33.9,13.8c13.7,0,28-5.8,39-15.5c9.1,15.5,32.3,18.3,41.7,18.3
					c7.8,0,16-1.3,24.2-4.4c10.3,9.8,34.1,5.1,41-15.4c10.7-29.5,24.7-69.1,35-98.4c8.2-15.2,18.9-22.5,27.4-22.5
					c5.5,0,9.4,3.7,9.4,9.4c0,2.1-0.9,4.9-1.5,7.6l-21.6,60.6c-2.7,7-4,13.7-4,20.1c0,28,23.1,43.5,49,43.5
					c15.9,0,32.5-5.7,47.6-19.3c11,12.1,28.5,18.7,47.4,18.7c21.5,0,41-8.8,57.1-25c13.8,16.2,37.9,25.6,66.2,25.6
					c23,0,47.8-6.3,68.8-21.4c11.8,13.9,31.5,22.9,53.1,23.9c21.3,2.4,73.1-8.2,73.1-62.1C1814.6,986.6,1805.1,969.9,1796.6,955.6z
					 M1608.4,935.5c3.7-9.1,11-14.6,18-14.6c8.5,0,14,7,14,15.5c0,2.4-0.3,4.9-1.2,7.3c-4.9,16.1-25.6,16.1-37.2,10L1608.4,935.5z
					 M977.7,948.6c-7.6,24.1-12.2,35.6-20.4,59.4c-3.3,9.1-11.6,14.6-19.8,14.9c-9.7,0-16.7-6.7-12.8-19.8l21-60l-0.6,0.3
					c5.2-10.7,14.6-16.4,23.1-16.1C977.7,927.9,981.7,937,977.7,948.6z M1209.8,961.1l-11,31.4c-9.1,22.5-21.3,25.3-27.1,24.1
					c-10.1-2.4-7.6-15.2-5.5-21.3L1182,948c9.4-25.9,21.9-20.7,22.8-20.1C1205.5,928.2,1219.8,931.5,1209.8,961.1z M1766.4,1013.1
					c-3,11-11.6,16.4-22.2,16.7c-10.4,0-19.5-4.6-22.8-12.5c31.1,6.4,44.5-31.1,27.4-48.4l2.7-5.8
					C1762.8,976.9,1771.3,996.4,1766.4,1013.1z"/>
			</g>
		</g>
		<g>
			<path class="st1" d="M115.5,1163.2h13.7v87.5h-13.7V1163.2z"/>
			<path class="st1" d="M151.5,1187.3v63.4h-12.4v-87.5h17.2l14.1,52.4v-52.4h12.2v87.5h-14.1L151.5,1187.3z"/>
			<path class="st1" d="M192.6,1163.2h13.7v75H229v12.5h-36.4V1163.2z"/>
			<path class="st1" d="M274.9,1218.1v11.6c0,14-7,22-20.5,22c-13.5,0-20.5-8-20.5-22v-45.5c0-14,7-22,20.5-22
				c13.5,0,20.5,8,20.5,22v8.5h-13v-9.4c0-6.2-2.7-8.6-7.1-8.6s-7.1,2.4-7.1,8.6v47.2c0,6.2,2.7,8.5,7.1,8.5s7.1-2.2,7.1-8.5v-12.5
				H274.9z"/>
			<path class="st1" d="M296.3,1163.2v67.5c0,6.2,2.7,8.5,7.1,8.5s7.1-2.3,7.1-8.5v-67.5h13v66.6c0,14-7,22-20.5,22
				c-13.5,0-20.5-8-20.5-22v-66.6H296.3z"/>
			<path class="st1" d="M345.8,1221.7l-17.4-58.5h14.4l10.5,39.9l10.5-39.9h13.1l-17.4,58.5v29h-13.7V1221.7z"/>
			<path class="st1" d="M396.2,1200.1h18.9v12.5h-18.9v25.6h23.7v12.5h-37.5v-87.5h37.5v12.5h-23.7V1200.1z"/>
			<path class="st1" d="M441.7,1189.8v13.2h-13.2v-13.2H441.7z M441.7,1237.4v13.2h-13.2v-13.2H441.7z"/>
			<path class="st1" d="M511.8,1184.8v11.4c0,14-6.7,21.6-20.5,21.6h-6.5v32.9h-13.7v-87.5h20.2
				C505,1163.2,511.8,1170.8,511.8,1184.8z M484.8,1175.7v29.6h6.5c4.4,0,6.7-2,6.7-8.2v-13.1c0-6.2-2.4-8.2-6.7-8.2H484.8z"/>
			<path class="st1" d="M546.9,1250.7c-0.7-2.2-1.2-3.6-1.2-10.7v-13.7c0-8.1-2.7-11.1-9-11.1h-4.7v35.6h-13.7v-87.5h20.7
				c14.2,0,20.4,6.6,20.4,20.1v6.9c0,9-2.9,14.9-9,17.7c6.9,2.9,9.1,9.5,9.1,18.6v13.5c0,4.2,0.1,7.4,1.5,10.6H546.9z M531.9,1175.7
				v26.9h5.4c5.1,0,8.2-2.2,8.2-9.2v-8.6c0-6.2-2.1-9-7-9H531.9z"/>
			<path class="st1" d="M567.3,1184.2c0-14,7.4-22,20.9-22c13.5,0,20.9,8,20.9,22v45.5c0,14-7.4,22-20.9,22c-13.5,0-20.9-8-20.9-22
				V1184.2z M581,1230.6c0,6.2,2.7,8.6,7.1,8.6s7.1-2.4,7.1-8.6v-47.2c0-6.2-2.7-8.6-7.1-8.6s-7.1,2.4-7.1,8.6V1230.6z"/>
			<path class="st1" d="M638.5,1234.6l10.5-71.4h12.6l-13.5,87.5h-20.5l-13.5-87.5H628L638.5,1234.6z"/>
			<path class="st1" d="M668,1163.2h13.7v87.5H668V1163.2z"/>
			<path class="st1" d="M740,1163.2h13.7v87.5H740V1163.2z"/>
			<path class="st1" d="M762.6,1184.2c0-14,7.4-22,20.9-22c13.5,0,20.9,8,20.9,22v45.5c0,14-7.4,22-20.9,22c-13.5,0-20.9-8-20.9-22
				V1184.2z M776.3,1230.6c0,6.2,2.7,8.6,7.1,8.6s7.1-2.4,7.1-8.6v-47.2c0-6.2-2.7-8.6-7.1-8.6s-7.1,2.4-7.1,8.6V1230.6z"/>
			<path class="st1" d="M825.5,1187.3v63.4h-12.4v-87.5h17.2l14.1,52.4v-52.4h12.2v87.5h-14.1L825.5,1187.3z"/>
			<path class="st1" d="M911.1,1250.7h-13.9l-2.4-15.9h-16.9l-2.4,15.9H863l14-87.5h20.1L911.1,1250.7z M879.7,1222.9h13.2
				l-6.6-44.2L879.7,1222.9z"/>
			<path class="st1" d="M917.4,1163.2h13.7v75h22.6v12.5h-36.4V1163.2z"/>
			<path class="st1" d="M992,1221.7l-17.4-58.5H989l10.5,39.9l10.5-39.9h13.1l-17.4,58.5v29H992V1221.7z"/>
			<path class="st1" d="M568.7,1368.1h-13.9l-2.4-15.9h-16.9l-2.4,15.9h-12.6l14-87.5h20.1L568.7,1368.1z M537.3,1340.4h13.2
				l-6.6-44.2L537.3,1340.4z"/>
			<path class="st1" d="M575,1280.7h21.7c13.7,0,20.5,7.6,20.5,21.6v44.2c0,14-6.7,21.6-20.5,21.6H575V1280.7z M588.8,1293.2v62.5
				h7.7c4.4,0,7-2.2,7-8.5v-45.5c0-6.2-2.6-8.5-7-8.5H588.8z"/>
			<path class="st1" d="M626,1280.7h13.7v87.5H626V1280.7z"/>
			<path class="st1" d="M645.8,1280.7h42.5v12.5h-14.4v75h-13.7v-75h-14.4V1280.7z"/>
			<path class="st1" d="M734,1368.1h-13.9l-2.4-15.9h-16.9l-2.4,15.9h-12.6l14-87.5H720L734,1368.1z M702.6,1340.4h13.2l-6.6-44.2
				L702.6,1340.4z"/>
			<path class="st1" d="M769.5,1342.8l9.4-62.1H798v87.5h-13v-62.7l-9.5,62.7h-13l-10.2-61.9v61.9h-12v-87.5h19.1L769.5,1342.8z"/>
			<path class="st1" d="M821.7,1317.5h18.9v12.5h-18.9v25.6h23.7v12.5H808v-87.5h37.5v12.5h-23.7V1317.5z"/>
			<path class="st1" d="M866.2,1304.8v63.4h-12.4v-87.5h17.2l14.1,52.4v-52.4h12.2v87.5h-14.1L866.2,1304.8z"/>
			<path class="st1" d="M903.3,1280.7h42.5v12.5h-14.4v75h-13.7v-75h-14.4V1280.7z"/>
			<path class="st1" d="M950.7,1301.7c0-14,7.4-22,20.9-22c13.5,0,20.9,8,20.9,22v45.5c0,14-7.4,22-20.9,22c-13.5,0-20.9-8-20.9-22
				V1301.7z M964.4,1348c0,6.2,2.7,8.6,7.1,8.6s7.1-2.4,7.1-8.6v-47.2c0-6.2-2.7-8.6-7.1-8.6s-7.1,2.4-7.1,8.6V1348z"/>
			<path class="st1" d="M1019.8,1279.7c13.4,0,20.2,8,20.2,22v2.7h-13v-3.6c0-6.2-2.5-8.6-6.9-8.6c-4.4,0-6.9,2.4-6.9,8.6
				c0,18,26.9,21.4,26.9,46.4c0,14-7,22-20.5,22c-13.5,0-20.5-8-20.5-22v-5.4h13v6.2c0,6.2,2.7,8.5,7.1,8.5c4.4,0,7.1-2.2,7.1-8.5
				c0-18-26.9-21.4-26.9-46.4C999.5,1287.7,1006.4,1279.7,1019.8,1279.7z"/>
			<g>
				<path class="st1" d="M713,1162.6c13.4,0,20.3,8,20.3,22.1v2.8h-13v-3.6c0-6.3-2.5-8.6-6.9-8.6c-4.4,0-6.9,2.4-6.9,8.6
					c0,18.1,26.9,21.4,26.9,46.5c0,14-7,22.1-20.6,22.1s-20.6-8-20.6-22.1v-5.4h13v6.3c0,6.3,2.8,8.5,7.1,8.5s7.1-2.3,7.1-8.5
					c0-18-26.9-21.4-26.9-46.5C692.7,1170.6,699.6,1162.6,713,1162.6z"/>
			</g>
		</g>
	</g>
	<g class="st13">
		<linearGradient id="SVGID_9_" gradientUnits="userSpaceOnUse" x1="5.525390e-005" y1="217.5086" x2="175.5571" y2="217.5086">
			<stop  offset="0" style="stop-color:#36A9E1"/>
			<stop  offset="1" style="stop-color:#36A9E1;stop-opacity:0"/>
		</linearGradient>
		<path class="st14" d="M169.7,292.1c-5.3-35.4-3.5-54.6-0.6-86.9c0.7-6.6,10.4-25.3-10.2-22.1c-22.3,3.4-18.1,11.3-20,18.9
			c0,0-7.6,52.4-0.9,97c0.2,1.3,0.4,2.6,0.6,3.8c-2.1,15.5-7,30.7-19.1,32.7c-8.8,1.5-15.3-3.5-17.5-16.9L79.6,185.6
			c22.3-3.7,47-7.9,80.5-14.4c10.8-2.3,7.8-43.2-1.8-28.6c-28.3,6.1-57.7,11.4-83.3,15.7L62.6,84.8c-1.7-10.1-11.9-17-25.8-14.7
			c-5.9,1-13.2,3.9-12.7,6.9C24.7,80,29,80.1,31,92.3l11.9,71c-22.7,3.4-38,5.1-38,5.1c-12.2,2,0.1,28.9,13.6,26.6
			c0,0,10.6-0.9,29.1-4l22.5,133.5c5.6,33.2,23.8,43.9,46.5,40.1c3.3-0.5,6.3-1.4,9.1-2.4l49.8-49.8
			C172.9,307.2,170.9,300.4,169.7,292.1z"/>
		<linearGradient id="SVGID_10_" gradientUnits="userSpaceOnUse" x1="203.3786" y1="219.8588" x2="249.4182" y2="219.8588">
			<stop  offset="0" style="stop-color:#36A9E1"/>
			<stop  offset="1" style="stop-color:#36A9E1;stop-opacity:0"/>
		</linearGradient>
		<path class="st15" d="M249.4,238.5l-7.7-51.1c-1.5-10.1-11.6-17.2-25.5-15.1c-5.9,0.9-13.2,3.7-12.8,6.7c0.4,2.9,4.8,3.2,6.6,15.4
			l10.2,67.8c0,1.9-0.1,3.8-0.2,5.7L249.4,238.5z"/>
	</g>
	<g class="st13">
		<linearGradient id="SVGID_11_" gradientUnits="userSpaceOnUse" x1="540.1022" y1="269.9958" x2="1065.8064" y2="269.9958">
			<stop  offset="0" style="stop-color:#36A9E1"/>
			<stop  offset="1" style="stop-color:#36A9E1;stop-opacity:0"/>
		</linearGradient>
		<path class="st16" d="M1048.5,108.7l-22.1,0.3c-4.3,0-8.5,0.1-22.6-1.4c-4.9-17.4-16.9-22.4-27.1-22.2
			c-11.1,0.1-21.2,7.9-21.1,19.8c0.1,12.3,7.9,21.2,18.6,27c-0.1,18.8-1.1,47.7-4.3,66.2c-0.2,0.5-0.3,0.9-0.4,1.4
			c-0.1,1.1-0.3,2.3-0.5,3.4c-0.2,1.1-0.5,2.1-0.7,3.1c-0.1,0.3-0.1,0.6-0.2,0.9c-3.6,13.3-12.6,23.8-28.1,24.3
			c-3,0.1-5.5,0.2-8.5-0.5c3.7-14.6,4.8-30.4,4.2-46.2c-1.5-41.3-18.8-70.9-38.8-70.1c-23,0.9-33.6,24.3-32.6,51.1
			c1.1,30.6,12.8,58.3,33.5,74.6c-5.2,10-12.6,16.7-24.5,17.1c-16.6,0.6-31.3-16.7-32.6-52.5c-1.6-42.1,10.6-58.3,17-68.8
			c10.8-7.6,1.4-29.9-9.6-29.5c-9.4,0.4-42,39.5-39.6,102c0.2,5.3,0.7,10.6,1.5,15.7c-7.1,24.6-18.2,43.5-30.8,59.2l-8.6-149.2
			c-0.6-10.2-10-18.2-24-17.4c-6,0.3-10.9,3.6-10.6,7.9c0.2,3,2,5.4,2.5,13.5l4.1,71.3l0,0c-3.2,26.3-14.7,54.9-47.8,57.4
			c-22.1,1.7-34.4-9.4-41.5-23.4c40.3-15.4,59.1-54.4,56.8-85.8c-1.9-25.5-17.7-41.8-41.4-40c-32.7,2.5-61.9,45.2-57.9,99.1
			c0.5,7.1,1.7,13.7,3.4,19.9c-2.6,17.2-8.4,36-22.2,37.5c-11,1.2-12.7-14.5-13.1-18.3l-9.2-87.7c0-0.1,0-0.1,0-0.2l-29.4,29.4
			l7.3,69.4c2.3,21.6,17.3,38.4,39.8,36.1c21.5-2.3,34.7-17.1,42.8-34.8c15.8,19.3,39,28.7,62.1,27c25.2-1.9,42.3-11.6,53.9-24.2
			l2.6,45.6c-26.6,26.3-50,49.4-47.6,92.3c1.3,22.6,14.1,40.7,32.1,45.4l52.4-52.4c0.1-3,0-6.1-0.2-9.4l-4.2-73.5
			c15-14.7,30.7-31.9,42.8-57.5c10.7,15.2,27,24.6,49.5,23.8c24.3-0.9,40-13.9,49.9-32.5c3.1,0.9,6.3,1.5,9.6,1.9l65.1-65.1
			c2.8-19.4,3.8-39.3,3.9-50.3l4.7-0.1l32.4-0.4c-1.8,5.1-3.5,10.1-5.1,14.9l31.9-31.9C1060.8,115,1051.9,108.7,1048.5,108.7z
			 M645.3,213.3c-2.2-17.8,0.7-64.9,21.5-66.5c5.5-0.4,9.3,4.9,10,14.2c1.9,25.5-10,48.6-30.5,59.9
			C646.1,218.3,645.5,215.8,645.3,213.3z M743.1,429.1c-6.8,0.4-11.6-9.6-12.4-22.7c-1.5-25.5,6.9-42.2,19.7-57l2.6,45.5
			C753.6,402.9,756.7,428.3,743.1,429.1z M904.8,212.5c-10.3-12.4-17.3-30-18-49.2c-0.5-13.2,1.8-20.1,6.5-20.3
			c8.9-0.3,11,20.9,12.1,49.8C905.6,199.2,905.4,205.6,904.8,212.5z"/>
		<linearGradient id="SVGID_12_" gradientUnits="userSpaceOnUse" x1="468.4406" y1="276.7468" x2="504.0742" y2="276.7468">
			<stop  offset="0" style="stop-color:#36A9E1"/>
			<stop  offset="1" style="stop-color:#36A9E1;stop-opacity:0"/>
		</linearGradient>
		<path class="st17" d="M471.3,296.7c1.6,15.7,13.8,17.4,22.3,16.5c12.3-1.3,10.8-11.4,9.9-19.5l-5.6-53.6l-29.4,29.4L471.3,296.7z"
			/>
		<linearGradient id="SVGID_13_" gradientUnits="userSpaceOnUse" x1="421.1425" y1="321.22" x2="421.1425" y2="312.47">
			<stop  offset="0" style="stop-color:#FFFFFF;stop-opacity:0"/>
			<stop  offset="1" style="stop-color:#FFFFFF"/>
		</linearGradient>
		<path class="st18" d="M425.5,312.5l-8.7,8.8C422.7,320.1,424.9,316.7,425.5,312.5z"/>
	</g>
	<linearGradient id="SVGID_14_" gradientUnits="userSpaceOnUse" x1="1195.9192" y1="213.813" x2="1745.748" y2="213.813">
		<stop  offset="0" style="stop-color:#36A9E1"/>
		<stop  offset="1" style="stop-color:#36A9E1;stop-opacity:0"/>
	</linearGradient>
	<path class="st19" d="M1745.7,175.1c-2.2-9.2-13.3-20.1-17.4-20.6l-22-2.6c-4.2-0.5-8.5-1-22.2-4.4c-2.6-17.9-13.8-24.4-24-25.6
		c-11-1.3-22,5.1-23.5,16.9c-1.5,12.3,5.1,22,15,29.2c-3,21.5-8.9,56.4-15.5,72.8c-1.3,3.3-1.2,6.9-0.1,10.1
		c-6,17-15.6,36.3-30.1,34.9c-11-1.1-9.5-16.7-9.2-20.5l8.4-87.7c1.9-19.5-2.7-43.5-31.1-46.2c-20.8-2-37.8,14.8-51.5,37.4l1.8-19.1
		c1-10.2-7.1-19.5-21.1-20.8c-5.9-0.6-11.3,1.9-11.7,6.2c-0.3,3,1.2,5.7,0.4,13.7l-6.8,71c-3.7,16.3-14.5,29.5-32.6,28.3
		c-3-0.2-5.5-0.4-8.4-1.4c5.2-14.1,8-29.7,9.1-45.5c2.8-41.2-11.2-72.5-31.2-73.9c-22.9-1.6-36,20.6-37.8,47.3
		c-2.1,30.6,6.6,59.4,25.4,77.7c-6.2,9.4-14.3,15.2-26.2,14.4c-16.6-1.1-29.4-20-26.9-55.6c2.9-42.1,16.7-56.9,24.2-66.6
		c11.5-6.5,4.6-29.6-6.4-30.3c-9.3-0.6-45.9,34.8-50.2,97.3c-0.3,4.2-0.4,8.4-0.3,12.5c-6.1,10.3-16.2,19-32.6,21.7
		c1.5-4.6,2.6-10.1,2.8-15.2c0.8-17.8-3.7-30.9-10.5-43.1L1263,208c1.4,5.7,2.1,11.7,1.8,18.3c-0.5,10.6-5.6,20.2-10.5,25.5
		c-7.6-0.3-17.2-3.9-26.8-8.3l-31.5,31.5c9.7,5.9,22.9,11,35.1,11.6c17.4,0.8,31.8-5,42.4-13.5c25.4-0.5,42.8-7.3,56.2-16.8
		c8,21.4,24.5,36.6,51,38.4c24.2,1.7,41.2-9.5,53.1-27.1c6.2,2.6,13,3.9,20.6,4.4c10,0.7,18.8-1,26.3-4.5l-1.5,15.6
		c-1.5,15.7,10.1,19.8,18.6,20.6c12.3,1.2,12.8-9,13.6-17.1l5.9-61.9c6.2-33.2,35.9-67.1,48.2-66c8.1,0.8,7.8,11.9,6.6,25l-8.2,86
		c-2.1,21.6,9.3,41.1,31.8,43.2c4.4,0.4,8.5,0.3,12.4-0.4l50.9-50.9c1.3-3.1,2.5-6.1,3.5-9c0.6-1.7,0.7-2.5,0.7-2.9
		c0.2-1.7-0.1-3.5-0.5-5.3c8.1-22.8,13.4-51.5,15.5-65.5l4.7,0.6l32.1,3.8c-7.6,14.7-13.9,28.5-19,41.5L1745.7,175.1z M1422.2,205.9
		c-0.4,6.4-1.3,12.7-2.6,19.5c-8.9-13.4-14-31.7-12.7-50.8c0.9-13.2,3.9-19.8,8.6-19.5C1424.4,155.7,1424.2,177,1422.2,205.9z"/>
	<linearGradient id="SVGID_15_" gradientUnits="userSpaceOnUse" x1="1846.0063" y1="291.1944" x2="2144.1184" y2="291.1944">
		<stop  offset="0" style="stop-color:#36A9E1"/>
		<stop  offset="1" style="stop-color:#36A9E1;stop-opacity:0"/>
	</linearGradient>
	<path class="st20" d="M1908,291.4c-1.6,10.5-7.7,19.5-13.2,24.3c-5.3-0.8-11.4-3.3-17.8-6.7l-31,31c6.9,3.7,14.5,6.6,22,7.8
		c17.3,2.6,32.1-1.6,43.6-8.9c22.6,1.9,39.3-1.7,52.9-8.2c4.3,20.1,17.1,35,38.9,38.7c15.9,2.8,29-2.8,39.1-11
		c4.6,11.2,14.6,20.2,29.3,22.8c36.1,6.2,59.4-28.6,71.3-55.1c0.7-1.6,0.9-2.4,0.9-2.9c1.4-8-5-18.6-11.7-19.7
		c-4.2-0.7-9,2.3-12.2,10.8c-7,17.8-19.2,43.4-35.9,40.5c-10.1-1.7-12.5-12.5-10.9-21.8l12-69.2c1.7-10.1-5.6-20-19.5-22.4
		c-5.9-1-11.4,1.1-12.1,5.2c-0.5,2.9,0.7,5.7-0.6,13.7l-11.2,64.6c-6.6,11-15.9,19.7-27.3,17.8c-14.7-2.5-21.7-16.7-18-38.5
		c10.4-60.4,52.5-81.2,84.4-75.7c4.2,0.7,8.2,2.3,12,2.9c4.2,0.7,5.9-1.6,7.1-8.7c1.9-10.9-4.9-19-16.3-21
		c-51.2-8.8-107.3,25.5-119.4,95.6c-0.1,0.5-0.2,1-0.2,1.5c-7.1,7.9-17.4,13.8-31.9,14.7c2-4.4,3.6-9.8,4.4-14.8
		c2.6-17.4-0.3-30.9-5.7-43.6l-22.3,22.3C1908.9,281.9,1908.7,286.5,1908,291.4z"/>
	<path class="st21" d="M1663.6,473.3l-9.2,26.2l57.2-57.2c-2.7-0.7-5.5-1.1-8.4-1.1C1688.7,441.2,1672.1,451,1663.6,473.3z"/>
	<path class="st21" d="M2022.7,614c-1.7,4.4-2.4,8.8-2.4,12.2c0,14.9,11.8,25,26.7,25c17.6,0,33.8-13.9,41.9-37.2l40.5-115.4
		l-102,102L2022.7,614z"/>
	<path class="st21" d="M1342.1,614c-1.7,4.4-2.4,8.8-2.4,12.2c0,14.9,11.8,25,26.7,25c17.6,0,33.8-13.9,41.9-37.2l48-136.9
		c1.4-4.1,2-7.4,2-10.8c0-7.5-3.2-13.8-8.4-18.3l-76.5,76.5L1342.1,614z"/>
	<path class="st21" d="M843.1,509.2c0-8.8,5.1-17.6,11.5-22.6c-1.7-0.7-4.1-1.7-6.4-1.7c-7.1,0-11.8,6.1-11.8,13.5
		c0,6.1,3,11.8,7.8,18.3C843.4,514.3,843.1,511.6,843.1,509.2z"/>
	<path class="st21" d="M1018.2,443.6c-17.2-0.3-32.8,11.2-39.9,30.1l-12.5,35.8c-2,5.1-2.7,9.8-2.7,13.9c0,15.2,11.5,25.4,24.3,26.4
		c17.9,2,34.1-7.4,42.3-21l-1,1l15.6-42.6c2-5.7,3-11.2,3-15.6C1047.3,455.1,1034.8,443.9,1018.2,443.6z"/>
	<path class="st21" d="M827.9,592c0-5.1-1.4-9.5-3-13.9c-1,14.5-12.8,26-27.7,26c-6.4,0-12.5-2.4-17.2-6.1c1,10.8,10.5,19.3,23,19.3
		C816.4,617.4,827.9,606.6,827.9,592z"/>
	<linearGradient id="SVGID_16_" gradientUnits="userSpaceOnUse" x1="1002.0543" y1="693.7869" x2="1002.0543" y2="472.5974">
		<stop  offset="0" style="stop-color:#FFFFFF"/>
		<stop  offset="1" style="stop-color:#FFFFFF;stop-opacity:0"/>
	</linearGradient>
	<path class="st22" d="M961.4,693.8c32.5,0,72-17.6,88.9-63.6l46.3-130.8c3-8.8,4.7-18.6,4.7-26.7c0,0,0,0,0-0.1L981.7,592.3
		c0.8,0,1.6,0.1,2.4,0.1c7.4,0,15.5-1,23.7-3.7l-9.8,26.4c-7.8,19.3-25.7,28.7-39.2,28.7c-9.7,0-16.2-3-19.8-8.7l-36.2,36.2
		C917.3,686.1,939.8,693.8,961.4,693.8z"/>
	<linearGradient id="SVGID_17_" gradientUnits="userSpaceOnUse" x1="1197.561" y1="693.7869" x2="1197.561" y2="401.3338">
		<stop  offset="0" style="stop-color:#FFFFFF"/>
		<stop  offset="1" style="stop-color:#FFFFFF;stop-opacity:0"/>
	</linearGradient>
	<path class="st23" d="M1304.9,472.7c0-42.3-36.9-71.3-80.1-71.3c-31.8,0-75.1,12.2-92,56.1l-14.2,38.5c-3.4,9.5-5.1,18.9-5.1,27.7
		c0,41.2,36.2,68.6,74,68.6c7.4,0,15.5-1,23.7-3.7l-9.8,26.4c-7.8,19.3-25.7,28.7-39.2,28.7c-11.8,0-18.9-4.4-21.6-12.9
		c-4.4-40.6-51.7-35.8-50.4,3c1.4,39.2,39.2,59.8,74.7,59.8c32.5,0,72-17.6,88.9-63.6l46.3-130.8
		C1303.2,490.6,1304.9,480.8,1304.9,472.7z M1247.8,487.2l-15.6,42.6l1-1c-8.1,13.5-24.3,23-42.3,21c-12.9-1-24.3-11.2-24.3-26.4
		c0-4.1,0.7-8.8,2.7-13.9l12.5-35.8c7.1-18.9,22.7-30.4,39.9-30.1c16.6,0.3,29.1,11.5,29.1,28.1
		C1250.8,476.1,1249.8,481.5,1247.8,487.2z"/>
	<linearGradient id="SVGID_18_" gradientUnits="userSpaceOnUse" x1="1386.3522" y1="608.4431" x2="1386.3522" y2="398.6306">
		<stop  offset="0" style="stop-color:#FFFFFF"/>
		<stop  offset="1" style="stop-color:#FFFFFF;stop-opacity:0"/>
	</linearGradient>
	<path class="st24" d="M1391.5,473.3c8.5-22.3,25-32.1,39.6-32.1c7.4,0,14.1,2.5,19,6.7l33.1-33.1c-14.5-10.2-33.2-16.2-53.1-16.2
		c-32.8,0-73.4,15.5-90.9,65.6l-46,131.5c-1.4,4.2-2.6,8.5-3.5,12.7l84-84L1391.5,473.3z"/>
	<linearGradient id="SVGID_19_" gradientUnits="userSpaceOnUse" x1="1528.7361" y1="693.4475" x2="1528.7361" y2="637.9988">
		<stop  offset="0" style="stop-color:#FFFFFF"/>
		<stop  offset="1" style="stop-color:#FFFFFF;stop-opacity:0"/>
	</linearGradient>
	<path class="st25" d="M1528.7,638c-15.6,0-27.7,12.2-27.7,27.7c0,15.2,12.2,27.7,27.7,27.7c15.2,0,27.7-12.5,27.7-27.7
		C1556.5,650.2,1544,638,1528.7,638z"/>
	<linearGradient id="SVGID_20_" gradientUnits="userSpaceOnUse" x1="1671.7488" y1="693.7869" x2="1671.7488" y2="408.7386">
		<stop  offset="0" style="stop-color:#FFFFFF"/>
		<stop  offset="1" style="stop-color:#FFFFFF;stop-opacity:0"/>
	</linearGradient>
	<path class="st26" d="M1559.5,626.2c0,43.6,36.5,67.6,77.4,67.6c35.8,0,78.1-18.6,98-74.7l45-128.1c2.7-8.1,4.1-15.5,4.1-23.3
		c0-25.9-15.8-47.1-38.7-58.9l-33.6,33.6c11,3.1,19,12.2,19,23.9c0,3.4-0.7,6.8-2,10.8l-48,136.9c-8.1,23.3-24.3,37.2-41.9,37.2
		c-14.9,0-26.7-10.1-26.7-25c0-3.4,0.7-7.8,2.4-12.2l40.2-114.4L1569,585l-3.8,10.8C1561.9,605.9,1559.5,616.7,1559.5,626.2z"/>
	<linearGradient id="SVGID_21_" gradientUnits="userSpaceOnUse" x1="1875.9548" y1="693.7869" x2="1875.9548" y2="398.6306">
		<stop  offset="0" style="stop-color:#FFFFFF"/>
		<stop  offset="1" style="stop-color:#FFFFFF;stop-opacity:0"/>
	</linearGradient>
	<path class="st27" d="M1988.2,467.6c0-40.2-37.9-69-81.8-69c-32.8,0-73.4,15.5-90.9,65.6l-46,131.5c-3.4,10.1-5.8,21-5.8,30.4
		c0,43.6,36.5,67.6,77.4,67.6c35.8,0,78.1-18.6,98-74.7l45-128.1C1986.8,482.8,1988.2,475.4,1988.2,467.6z M1932.8,477.1l-48,136.9
		c-8.1,23.3-24.3,37.2-41.9,37.2c-14.9,0-26.7-10.1-26.7-25c0-3.4,0.7-7.8,2.4-12.2l49.4-140.6c8.5-22.3,25-32.1,39.6-32.1
		c15.2,0,27.4,10.5,27.4,25C1934.8,469.6,1934.1,473,1932.8,477.1z"/>
	<linearGradient id="SVGID_22_" gradientUnits="userSpaceOnUse" x1="2077.2332" y1="654.1628" x2="2077.2332" y2="398.6306">
		<stop  offset="0" style="stop-color:#FFFFFF"/>
		<stop  offset="1" style="stop-color:#FFFFFF;stop-opacity:0"/>
	</linearGradient>
	<path class="st28" d="M2072,473.3c8.5-22.3,25-32.1,39.6-32.1c15.2,0,27.4,10.5,27.4,25c0,3.4-0.7,6.8-2,10.8l-7.5,21.5l57.1-57.1
		c-12.3-25.9-42.3-42.8-76-42.8c-32.8,0-73.4,15.5-90.9,65.6l-46,131.5c-3.4,10.1-5.7,21-5.7,30.4c0,10.5,2.1,19.8,5.9,28l53.6-53.6
		L2072,473.3z"/>
	<linearGradient id="SVGID_23_" gradientUnits="userSpaceOnUse" x1="749.3294" y1="74.6811" x2="749.3294" y2="22.7343">
		<stop  offset="0" style="stop-color:#FFFFFF;stop-opacity:0"/>
		<stop  offset="1" style="stop-color:#FFFFFF"/>
	</linearGradient>
	<path class="st29" d="M750.8,74.6c14-0.8,25.2-13.4,24.4-27.4c-0.9-14.9-13.4-25.2-27.4-24.4c-14.5,0.8-25.3,12.5-24.4,27.4
		C724.2,64.2,736.4,75.5,750.8,74.6z"/>
</g>
</svg>
