<?xml version="1.0" encoding="utf-8"?>
<!-- Generator: Adobe Illustrator 16.0.0, SVG Export Plug-In . SVG Version: 6.00 Build 0)  -->
<!DOCTYPE svg PUBLIC "-//W3C//DTD SVG 1.1//EN" "http://www.w3.org/Graphics/SVG/1.1/DTD/svg11.dtd">
<svg version="1.1" id="Capa_1" xmlns="http://www.w3.org/2000/svg" xmlns:xlink="http://www.w3.org/1999/xlink" x="0px" y="0px"
	 width="537.991px" height="377.024px" viewBox="0 0 537.991 377.024" enable-background="new 0 0 537.991 377.024"
	 xml:space="preserve">
<g>
	<g>
		<g>
			<path fill="#FFFFFF" d="M81.205,64.035c0-20.135,7.891-30.344,23.455-30.344c16.221,0,23.455,10.102,23.455,32.756v11.022
				c0,17.89-8.381,27.668-24.144,28.278H83.337v33.691l19.094-0.002c17.763,0.602,25.685,10.173,25.685,31.036v18.6
				c0,13.702-2.709,22.755-8.516,27.729c2.52-0.089,5.048-0.16,7.592-0.188c10.913-0.111,22.093,0.315,33.389,1.254
				c2.639-8.186,3.981-17.568,3.981-28.105v-18.601c0-23.278-8.026-40.451-23.276-49.974c15.05-9.563,23.276-26.981,23.276-49.572
				v-6.2C164.562,23.23,143.533,0,105.349,0C67.387,0,46.48,23.23,46.48,65.413v15.812h34.725V64.035z"/>
			<path fill="#FFFFFF" d="M81.901,220.545c3.614-0.611,7.284-1.151,11-1.623c-7.835-4.095-11.695-13.16-11.695-27.44v-23.045H46.48
				v21.324c0,14.655,2.58,27.093,7.663,37.162C62.942,224.327,72.235,222.187,81.901,220.545z"/>
			<path fill="#FFFFFF" d="M126.129,249.489c-14.145-1.115-28.232-1.382-41.184-0.783c-2.979,0.133-5.934,0.311-8.859,0.535
				c8.228,4.162,18.001,6.274,29.262,6.274c10.543,0,19.785-1.825,27.685-5.418C130.708,249.874,128.4,249.665,126.129,249.489z"/>
		</g>
		<path fill="#FFFFFF" d="M203.735,223.81c9.096,1.724,18,3.68,26.453,5.813c10.686,2.722,18.836,4.981,26.434,7.329
			c4.317,1.352,8.769,2.744,13.119,4.205l7.819,2.605c14.063-10.995,21.678-29.408,21.678-54.002V65.413
			C299.237,23.842,277.277,0,238.99,0c-38.068,0-59.901,23.842-59.901,65.413V189.76c0,11.69,1.711,21.984,5.006,30.753
			C190.39,221.404,196.97,222.507,203.735,223.81z M215.191,64.035c0-20.135,8.007-30.344,23.799-30.344
			c16.015,0,23.8,9.926,23.8,30.344v127.447c0,20.186-7.785,29.999-23.8,29.999c-15.792,0-23.799-10.093-23.799-29.999V64.035z"/>
	</g>
	<path fill="#36A9E0" d="M0,262.212c0,0,0.39-0.404,1.195-1.142c0.808-0.734,2.017-1.821,3.696-3.112
		c3.349-2.585,8.43-6.252,15.418-10.085c6.964-3.873,15.804-7.949,26.34-11.637c10.534-3.677,22.775-6.893,36.354-9.199
		c13.578-2.296,28.487-3.662,44.263-3.84c15.773-0.171,32.408,0.798,49.434,2.979c8.522,1.037,17.133,2.435,25.79,4.102
		c8.663,1.641,17.38,3.533,26.087,5.729c8.699,2.217,17.436,4.559,26.1,7.238c4.326,1.353,8.661,2.708,12.967,4.154
		c4.237,1.411,8.479,2.825,12.721,4.239c16.715,5.689,33.563,11.146,50.085,16.275c4.138,1.263,8.262,2.495,12.369,3.685
		c4.1,1.218,8.181,2.398,12.241,3.53c8.119,2.264,16.164,4.268,24.056,6.113c15.799,3.588,31.109,6.174,45.42,6.607
		c14.313,0.497,27.528-1.425,39.251-5.583c11.752-4.081,22.027-10.134,30.971-15.928c8.942-5.839,16.567-11.475,22.896-16.055
		c6.295-4.631,11.333-8.205,14.726-10.684c1.694-1.241,3.029-2.153,3.916-2.784c0.89-0.625,1.35-0.948,1.35-0.948
		s-1.479,1.69-4.25,4.857c-2.815,3.119-6.854,7.786-12.224,13.522c-5.362,5.75-11.942,12.681-20.184,20.158
		c-8.261,7.404-18.303,15.51-31.218,21.927c-6.434,3.19-13.56,5.858-21.134,7.791c-7.578,1.949-15.585,3.044-23.756,3.576
		c-16.367,0.933-33.296-0.662-50.279-3.519c-8.514-1.38-17.04-3.187-25.598-5.161c-4.276-0.992-8.564-2.024-12.856-3.104
		c-4.279-1.116-8.564-2.276-12.855-3.462c-17.186-4.708-34.288-10.204-51.381-15.878c-4.206-1.443-8.411-2.885-12.612-4.325
		c-4.127-1.427-8.275-2.764-12.415-4.099c-8.299-2.594-16.557-5.193-24.824-7.486c-8.273-2.26-16.498-4.417-24.665-6.356
		c-8.17-1.932-16.283-3.607-24.282-5.136c-16.012-2.968-31.612-5.103-46.476-6.251c-14.861-1.17-28.98-1.397-41.995-0.796
		c-13.016,0.58-24.928,1.985-35.399,3.885c-10.471,1.903-19.501,4.291-26.829,6.678c-7.315,2.415-12.984,4.715-16.729,6.545
		C1.917,261.028,0,262.212,0,262.212z"/>
	<polygon fill="#36A9E0" points="450.92,18.177 439.654,23.964 465.116,23.964 379.385,240.258 389.481,231.039 473.409,18.177 	"/>
	<polygon fill="#FFFFFF" points="437.348,27.557 353.421,240.418 375.91,240.418 459.837,27.557 	"/>
	<g>
		<g>
			<path fill="#FFFFFF" d="M381.988,103.137V59.766c0-15.829-12.143-24.906-33.315-24.906c-21.17,0-33.313,9.077-33.313,24.906
				v43.371c0,15.828,12.143,24.906,33.313,24.906C369.846,128.043,381.988,118.965,381.988,103.137z M359.23,103.922
				c0,8.636-6.025,9.634-10.558,9.634c-4.913,0-10.556-1.094-10.556-9.634V59.177c0-9.831,7.397-9.831,10.556-9.831
				c4.532,0,10.558,1.02,10.558,9.831V103.922z"/>
		</g>
		<g>
			<path fill="#36A9E0" d="M341.71,59.177v44.746c0,4.63,1.626,6.042,6.963,6.042c4.933,0,6.731-1.286,6.942-5.198
				c-0.186,0.004-0.373,0.009-0.555,0.009c-4.915,0-10.558-1.095-10.558-9.634V53.458C342.769,54.134,341.71,55.676,341.71,59.177z"
				/>
			<path fill="#36A9E0" d="M355.061,26.079c-12.646,0-22.067,3.241-27.606,9.222c5.712-2.629,12.851-4.033,21.219-4.033
				c23.11,0,36.907,10.654,36.907,28.498v43.371c0,1.075-0.054,2.122-0.151,3.144c1.935-3.38,2.945-7.372,2.945-11.925V50.985
				C388.374,35.156,376.231,26.079,355.061,26.079z"/>
		</g>
	</g>
	<g>
		<g>
			<path fill="#36A9E0" d="M459.523,172.201v44.746c0,4.629,1.628,6.042,6.965,6.042c4.933,0,6.731-1.286,6.941-5.198
				c-0.186,0.004-0.374,0.009-0.556,0.009c-4.914,0-10.556-1.095-10.556-9.634v-41.684
				C460.583,167.159,459.523,168.701,459.523,172.201z"/>
			<path fill="#36A9E0" d="M472.874,139.104c-12.646,0-22.066,3.241-27.607,9.223c5.714-2.629,12.854-4.033,21.222-4.033
				c23.109,0,36.905,10.653,36.905,28.498v43.371c0,1.075-0.052,2.122-0.152,3.145c1.937-3.381,2.947-7.372,2.947-11.925v-43.372
				C506.188,148.181,494.046,139.104,472.874,139.104z"/>
		</g>
		<path fill="#FFFFFF" d="M499.802,216.161v-43.371c0-15.828-12.143-24.905-33.313-24.905c-21.172,0-33.314,9.077-33.314,24.905
			v43.371c0,15.828,12.143,24.906,33.314,24.906C487.659,241.067,499.802,231.989,499.802,216.161z M477.044,216.947
			c0,8.636-6.025,9.634-10.556,9.634c-4.916,0-10.557-1.094-10.557-9.634v-44.746c0-9.831,7.397-9.831,10.557-9.831
			c4.53,0,10.556,1.019,10.556,9.831V216.947z"/>
	</g>
	<g>
		<path fill="#FFFFFF" d="M30.733,247.045c0,0,1.015-0.41,2.949-1.102c1.939-0.672,4.783-1.676,8.468-2.739
			c3.683-1.066,8.173-2.317,13.381-3.521c2.595-0.646,5.384-1.2,8.314-1.845c2.946-0.56,6.04-1.179,9.292-1.684
			c6.488-1.12,13.567-2.017,21.071-2.818c3.757-0.334,7.615-0.741,11.572-0.959c1.978-0.121,3.976-0.288,5.997-0.357
			c2.021-0.069,4.063-0.139,6.12-0.209c2.058-0.093,4.134-0.099,6.226-0.109c2.092-0.013,4.198-0.025,6.318-0.039
			c2.119,0.045,4.251,0.09,6.394,0.136c2.143,0.041,4.297,0.098,6.455,0.237c4.319,0.23,8.675,0.437,13.033,0.856
			c2.18,0.19,4.368,0.353,6.552,0.567l6.546,0.753c8.728,1.031,17.402,2.479,25.897,4.101c4.255,0.772,8.424,1.805,12.565,2.7
			c2.076,0.431,4.104,1.002,6.131,1.517c2.024,0.523,4.034,1.044,6.027,1.56c7.941,2.175,15.562,4.484,22.676,6.996
			c1.785,0.608,3.545,1.209,5.279,1.8c1.713,0.648,3.401,1.287,5.06,1.915c3.309,1.281,6.533,2.445,9.575,3.695
			c3.028,1.284,5.93,2.516,8.689,3.687c1.374,0.601,2.723,1.159,4.013,1.749c1.282,0.61,2.527,1.202,3.733,1.776
			c2.412,1.147,4.669,2.221,6.756,3.213c1.041,0.502,2.049,0.961,2.994,1.439c0.938,0.489,1.834,0.956,2.685,1.399
			c6.776,3.577,10.649,5.621,10.649,5.621s-3.965-1.853-10.904-5.096c-0.864-0.409-1.775-0.84-2.73-1.292
			c-0.961-0.441-1.985-0.86-3.043-1.32c-2.119-0.909-4.41-1.894-6.858-2.944c-1.224-0.524-2.486-1.066-3.787-1.625
			c-1.308-0.538-2.674-1.043-4.064-1.588c-2.778-1.095-5.699-2.246-8.747-3.447c-3.058-1.173-6.296-2.256-9.617-3.452
			c-1.665-0.586-3.358-1.182-5.077-1.787c-1.738-0.547-3.503-1.103-5.292-1.665c-3.584-1.106-7.232-2.35-11.044-3.34
			c-1.896-0.53-3.812-1.066-5.746-1.607c-1.931-0.552-3.88-1.111-5.873-1.572c-1.985-0.488-3.987-0.98-6.003-1.477
			c-2.019-0.486-4.039-1.029-6.104-1.431c-2.058-0.434-4.129-0.869-6.21-1.308c-2.08-0.441-4.164-0.921-6.281-1.271
			c-8.436-1.577-17.047-2.974-25.708-3.969l-6.49-0.773c-2.166-0.222-4.334-0.391-6.497-0.588
			c-4.321-0.435-8.641-0.655-12.925-0.901c-2.141-0.15-4.277-0.206-6.402-0.268c-2.125-0.07-4.24-0.141-6.342-0.211
			c-2.104-0.012-4.194-0.024-6.27-0.037c-2.076-0.014-4.137-0.033-6.18,0.035c-2.043,0.045-4.07,0.089-6.078,0.134
			c-2.007,0.053-3.993,0.172-5.959,0.244c-3.935,0.124-7.773,0.438-11.515,0.683c-7.472,0.622-14.531,1.348-21.008,2.311
			c-6.482,0.924-12.405,1.926-17.629,2.952c-5.231,0.999-9.75,2.073-13.462,2.996c-3.708,0.938-6.604,1.749-8.571,2.332
			C31.769,246.688,30.733,247.045,30.733,247.045z"/>
	</g>
	<g>
		<g>
			<path fill="#FFFFFF" d="M196.092,271.099c-24.584,0-40.881,17.843-40.881,43.41c0,19.809,11.239,30.205,11.661,30.485
				c0.702,0.562,1.405,0.703,2.107,0.703c3.23,0,6.743-4.637,6.743-8.288c0-1.406-0.563-2.39-2.107-1.968
				c-0.563-0.422-7.446-8.288-7.446-21.774c0-14.892,6.181-31.749,29.501-31.749c18.685,0,26.692,15.592,26.692,34.559
				c0,28.096-12.503,49.731-23.18,49.731c-5.62,0-7.867-4.074-7.867-11.802v-55.21c0-3.372-3.231-6.182-7.867-6.182
				c-1.966,0-3.653,0.984-3.653,2.39c0,0.983,0.563,1.825,0.563,4.495v53.806c0,14.892,4.776,23.319,17.982,23.319
				c15.453,0,35.262-21.774,35.262-61.673C233.602,292.734,222.222,271.099,196.092,271.099z M222.327,291.881
				c-0.467-0.676-1.137-1.423-1.851-2.304c-0.692-0.898-1.592-1.808-2.514-2.827c-0.445-0.527-1.004-0.982-1.534-1.493
				c-0.532-0.512-1.069-1.045-1.688-1.516c-1.179-1.01-2.512-1.945-3.921-2.819c-0.717-0.421-1.431-0.87-2.216-1.201
				c-0.384-0.18-0.77-0.361-1.157-0.544l-1.204-0.458c-1.609-0.615-3.314-1.031-5.042-1.303c-1.729-0.284-3.496-0.367-5.239-0.312
				c-1.74,0.111-3.475,0.213-5.132,0.556c-1.659,0.309-3.266,0.68-4.771,1.126c-1.507,0.439-2.917,0.936-4.22,1.408
				c-2.586,0.996-4.718,1.967-6.198,2.688c-1.476,0.726-2.313,1.183-2.313,1.183s0.646-0.703,1.926-1.779
				c1.281-1.069,3.196-2.519,5.708-3.948c1.262-0.699,2.647-1.448,4.198-2.067c1.538-0.644,3.202-1.265,4.994-1.69
				c1.778-0.468,3.676-0.798,5.628-0.936c1.956-0.106,3.964-0.059,5.957,0.222c1.981,0.328,3.952,0.822,5.773,1.608
				c0.456,0.192,0.909,0.386,1.361,0.576c0.429,0.237,0.855,0.473,1.279,0.706c0.863,0.441,1.638,0.997,2.408,1.524
				c1.534,1.063,2.867,2.279,4.018,3.509c0.604,0.59,1.133,1.212,1.615,1.836c0.478,0.628,0.983,1.195,1.364,1.817
				c0.816,1.202,1.54,2.31,2.057,3.363c0.56,1.026,1.024,1.927,1.327,2.71c0.65,1.54,0.977,2.428,0.977,2.428
				S223.312,293.197,222.327,291.881z"/>
			<path fill="#FFFFFF" d="M531.089,353.153c-0.706,4.586-3.41,8.467-8.467,8.467c-0.822,0-1.529,0-2.353-0.234
				c1.177-4,1.646-8.35,1.646-12.701c0-11.407-4.468-19.756-9.995-19.756c-6.35,0-9.524,6.351-9.524,13.759
				c0,8.467,2.939,16.229,8.467,20.932c-1.529,2.704-3.646,4.469-6.938,4.469c-4.587,0-8.467-4.939-8.467-14.816
				c0-11.643,3.527-15.994,5.41-18.815c3.057-1.999,0.705-8.232-2.354-8.232c-2.586,0-11.994,10.466-11.994,27.753
				c0,11.759,5.292,21.873,17.169,21.873c6.703,0,11.171-3.411,14.11-8.468c1.765,0.588,3.646,0.823,5.763,0.823
				c7.996,0,12.819-5.291,14.229-11.643C539.321,349.979,531.559,350.448,531.089,353.153z M498.063,327.394
				c0.385,0.021,0.842,0.098,1.309,0.294c0.224,0.111,0.473,0.213,0.683,0.389l0.318,0.261l0.278,0.313
				c0.195,0.206,0.286,0.479,0.427,0.713c0.096,0.253,0.158,0.515,0.213,0.759c0.026,0.251,0.034,0.493,0.043,0.718
				c-0.014,0.223-0.051,0.432-0.082,0.623c-0.038,0.382-0.198,0.673-0.267,0.881c-0.081,0.205-0.136,0.317-0.136,0.317
				s-0.019-0.129-0.037-0.346c-0.032-0.218,0-0.522-0.067-0.873c-0.027-0.175-0.048-0.363-0.07-0.56
				c-0.051-0.189-0.105-0.385-0.144-0.588c-0.067-0.193-0.159-0.382-0.23-0.578c-0.119-0.168-0.188-0.375-0.342-0.518l-0.195-0.245
				l-0.235-0.207c-0.154-0.138-0.332-0.254-0.505-0.366c-0.184-0.092-0.354-0.205-0.538-0.276c-0.177-0.087-0.355-0.147-0.519-0.216
				c-0.667-0.233-1.165-0.352-1.165-0.352S497.287,327.354,498.063,327.394z M513.097,355.976
				c-2.704-3.527-4.469-8.467-4.469-13.759c0-3.646,0.706-5.527,1.999-5.527c2.47,0,2.823,5.881,2.823,13.877
				C513.45,352.33,513.332,354.095,513.097,355.976z M536.526,355.934c-0.033,0.317-0.166,0.558-0.223,0.731
				c-0.067,0.169-0.111,0.263-0.111,0.263s-0.017-0.106-0.031-0.287c-0.027-0.181-0.001-0.434-0.056-0.725
				c-0.023-0.145-0.04-0.302-0.059-0.464c-0.042-0.157-0.087-0.319-0.119-0.487c-0.057-0.16-0.134-0.317-0.192-0.479
				c-0.099-0.141-0.154-0.313-0.282-0.431l-0.163-0.202l-0.195-0.172c-0.127-0.115-0.275-0.211-0.418-0.304
				c-0.152-0.076-0.295-0.171-0.447-0.229c-0.146-0.073-0.295-0.123-0.43-0.179c-0.554-0.194-0.967-0.293-0.967-0.293
				s0.402-0.152,1.047-0.119c0.319,0.018,0.698,0.082,1.085,0.244c0.187,0.093,0.394,0.177,0.567,0.323l0.265,0.216l0.231,0.26
				c0.161,0.171,0.236,0.397,0.354,0.592c0.079,0.209,0.131,0.427,0.176,0.631c0.022,0.206,0.029,0.407,0.036,0.594
				C536.581,355.602,536.55,355.774,536.526,355.934z"/>
		</g>
		<path fill="#FFFFFF" d="M62.898,268.942c-25.085,0-41.714,18.205-41.714,44.293c0,20.212,11.467,30.82,11.898,31.106
			c0.716,0.573,1.433,0.717,2.149,0.717c3.297,0,6.881-4.731,6.881-8.457c0-1.434-0.574-2.437-2.15-2.006
			c-0.574-0.431-7.598-8.457-7.598-22.219c0-15.195,6.307-32.396,30.103-32.396c19.065,0,27.236,15.91,27.236,35.262
			c0,28.669-12.758,50.743-23.653,50.743c-5.733,0-8.027-4.155-8.027-12.039v-56.335c0-3.441-3.297-6.308-8.027-6.308
			c-2.007,0-3.727,1.004-3.727,2.438c0,1.004,0.573,1.863,0.573,4.587v54.901c0,15.194,4.874,23.794,18.348,23.794
			c15.768,0,35.979-22.218,35.979-62.928C101.171,291.018,89.561,268.942,62.898,268.942z M89.917,289.785
			c-0.494-0.676-1.204-1.423-1.96-2.304c-0.733-0.897-1.687-1.808-2.663-2.827c-0.472-0.527-1.064-0.982-1.625-1.493
			c-0.563-0.511-1.132-1.045-1.788-1.516c-1.249-1.009-2.66-1.944-4.153-2.819c-0.759-0.421-1.515-0.87-2.347-1.201
			c-0.406-0.18-0.815-0.361-1.225-0.544l-1.275-0.458c-1.704-0.615-3.51-1.031-5.34-1.303c-1.832-0.284-3.703-0.367-5.549-0.311
			c-1.843,0.11-3.681,0.212-5.436,0.555c-1.757,0.309-3.458,0.68-5.052,1.126c-1.596,0.44-3.09,0.936-4.47,1.408
			c-2.739,0.996-4.997,1.967-6.564,2.688c-1.563,0.726-2.45,1.184-2.45,1.184s0.684-0.704,2.04-1.78
			c1.357-1.068,3.385-2.519,6.047-3.947c1.336-0.699,2.804-1.449,4.446-2.067c1.628-0.645,3.391-1.266,5.289-1.691
			c1.883-0.468,3.894-0.798,5.961-0.936c2.07-0.106,4.198-0.059,6.309,0.223c2.099,0.327,4.186,0.821,6.115,1.607
			c0.482,0.193,0.963,0.386,1.441,0.576c0.454,0.238,0.906,0.473,1.355,0.707c0.915,0.44,1.735,0.996,2.551,1.523
			c1.624,1.063,3.037,2.279,4.255,3.509c0.64,0.59,1.2,1.212,1.711,1.836c0.506,0.628,1.041,1.195,1.445,1.817
			c0.864,1.202,1.631,2.31,2.179,3.363c0.593,1.026,1.084,1.927,1.406,2.711c0.688,1.54,1.034,2.427,1.034,2.427
			S90.96,291.103,89.917,289.785z"/>
		<g>
			<path fill="#FFFFFF" d="M114.676,335.354c-0.029,0.008-0.015,0.006,0.003,0.001C114.68,335.354,114.676,335.352,114.676,335.354z
				"/>
			<path fill="#FFFFFF" d="M142.917,353.271c-1.411,7.173-5.174,14.816-14.347,14.816c-6.114,0-9.29-3.293-10.936-7.291
				c11.406-3.411,17.403-13.759,17.403-22.461c0-7.055-3.998-11.877-10.583-11.877c-9.055,0-17.992,11.172-17.992,26.105
				c0,14.7,10.112,23.285,20.814,23.285c17.286,0,21.99-14.229,22.813-21.403C150.561,350.331,143.976,347.979,142.917,353.271z
				 M114.931,335.367c-0.03,0.043-0.065,0.088-0.111,0.141c-0.031,0.023-0.033,0.06-0.141,0.086
				c-0.005,0.031-0.162-0.065-0.144-0.125l0.002-0.061c0.007-0.052,0.012-0.055,0.019-0.083c0.05-0.17,0.124-0.319,0.215-0.493
				c0.359-0.688,0.965-1.608,1.86-2.585c0.445-0.49,0.958-1.001,1.561-1.482c0.601-0.479,1.265-0.976,2.04-1.365
				c0.767-0.398,1.618-0.762,2.557-0.952c0.936-0.199,1.953-0.227,2.947-0.043c0.988,0.201,1.942,0.596,2.731,1.151
				c0.805,0.538,1.447,1.218,1.994,1.892c1.083,1.368,1.726,2.809,2.149,4.053c0.435,1.244,0.639,2.314,0.762,3.061
				c0.109,0.752,0.142,1.185,0.142,1.185s-0.215-0.374-0.592-1.028c-0.373-0.648-0.896-1.571-1.553-2.625
				c-0.668-1.044-1.479-2.224-2.492-3.252c-1.014-1.025-2.245-1.834-3.591-2.084c-1.342-0.269-2.817,0.012-4.163,0.549
				c-1.349,0.538-2.567,1.283-3.589,1.972c-1.012,0.704-1.842,1.353-2.386,1.842c-0.059,0.055-0.098,0.096-0.15,0.146
				C114.976,335.298,114.96,335.322,114.931,335.367z M116.105,352.213c-0.235-4.939,1.529-17.875,7.291-17.875
				c1.528,0,2.469,1.529,2.469,4.116c0,7.056-3.763,13.171-9.643,15.875C116.223,353.623,116.105,352.918,116.105,352.213z"/>
		</g>
		<path fill="#FFFFFF" d="M274.149,353.271c-1.41,7.173-5.174,14.816-14.346,14.816c-6.115,0-9.29-3.293-10.936-7.291
			c11.407-3.411,17.404-13.759,17.404-22.461c0-7.055-3.998-11.877-10.583-11.877c-9.055,0-17.992,11.172-17.992,26.105
			c0,14.7,10.113,23.285,20.814,23.285c17.286,0,21.989-14.229,22.813-21.403C281.794,350.331,275.209,347.979,274.149,353.271z
			 M245.318,335.464c-0.022,0.034-0.038,0.059-0.067,0.104c-0.03,0.043-0.065,0.087-0.111,0.14c-0.032,0.023-0.033,0.06-0.141,0.087
			c-0.004,0.031-0.162-0.065-0.144-0.125l0.002-0.062c0.007-0.051,0.012-0.055,0.019-0.082c0.049-0.17,0.124-0.319,0.215-0.494
			c0.36-0.688,0.965-1.607,1.861-2.584c0.445-0.49,0.958-1.001,1.56-1.482c0.601-0.479,1.265-0.976,2.04-1.365
			c0.767-0.398,1.618-0.762,2.557-0.953c0.935-0.198,1.953-0.226,2.947-0.042c0.988,0.201,1.942,0.596,2.731,1.15
			c0.805,0.538,1.446,1.219,1.993,1.893c1.083,1.368,1.726,2.809,2.15,4.053c0.435,1.244,0.639,2.314,0.762,3.061
			c0.109,0.752,0.142,1.185,0.142,1.185s-0.215-0.374-0.592-1.028c-0.373-0.648-0.896-1.571-1.553-2.625
			c-0.668-1.044-1.479-2.224-2.492-3.252c-1.014-1.025-2.245-1.835-3.591-2.084c-1.342-0.269-2.818,0.012-4.163,0.549
			c-1.348,0.538-2.567,1.282-3.589,1.972c-1.012,0.703-1.842,1.353-2.385,1.842C245.41,335.373,245.371,335.414,245.318,335.464z
			 M247.338,352.213c-0.235-4.939,1.529-17.875,7.291-17.875c1.528,0,2.469,1.529,2.469,4.116c0,7.056-3.763,13.171-9.643,15.875
			C247.456,353.623,247.338,352.918,247.338,352.213z"/>
		<path fill="#FFFFFF" d="M424.314,353.271c-1.41,7.173-5.174,14.816-14.346,14.816c-6.116,0-9.291-3.293-10.936-7.291
			c11.405-3.411,17.402-13.759,17.402-22.461c0-7.055-3.997-11.877-10.583-11.877c-9.056,0-17.992,11.172-17.992,26.105
			c0,14.7,10.113,23.285,20.815,23.285c17.285,0,21.988-14.229,22.812-21.403C431.958,350.331,425.374,347.979,424.314,353.271z
			 M396.393,335.264c-0.021,0.034-0.038,0.059-0.067,0.104c-0.028,0.043-0.065,0.088-0.11,0.141
			c-0.032,0.023-0.033,0.06-0.141,0.086c-0.005,0.031-0.162-0.065-0.145-0.125l0.002-0.061c0.007-0.052,0.013-0.055,0.019-0.083
			c0.051-0.17,0.124-0.319,0.215-0.493c0.36-0.688,0.967-1.608,1.862-2.585c0.444-0.49,0.957-1.001,1.56-1.482
			c0.602-0.479,1.266-0.976,2.039-1.365c0.768-0.398,1.619-0.762,2.558-0.952c0.936-0.199,1.953-0.227,2.948-0.043
			c0.987,0.201,1.941,0.596,2.73,1.151c0.806,0.538,1.446,1.218,1.994,1.892c1.082,1.368,1.726,2.809,2.148,4.053
			c0.436,1.244,0.639,2.314,0.763,3.061c0.108,0.752,0.141,1.185,0.141,1.185s-0.216-0.374-0.592-1.028
			c-0.372-0.648-0.896-1.571-1.553-2.625c-0.668-1.044-1.479-2.224-2.491-3.252c-1.015-1.025-2.245-1.834-3.592-2.084
			c-1.343-0.269-2.817,0.012-4.163,0.549c-1.348,0.538-2.565,1.283-3.589,1.972c-1.012,0.704-1.842,1.353-2.386,1.842
			C396.484,335.173,396.446,335.214,396.393,335.264z M397.503,352.213c-0.234-4.939,1.53-17.875,7.291-17.875
			c1.528,0,2.469,1.529,2.469,4.116c0,7.056-3.763,13.171-9.643,15.875C397.62,353.623,397.503,352.918,397.503,352.213z"/>
		<path fill="#FFFFFF" d="M346.586,353.271c-1.411,7.173-5.645,14.816-14.817,14.816c-6.938,0-11.994-5.174-11.994-14.465
			c0-10.583,4.115-19.285,8.468-19.285c3.997,0,4.232,4.352,4.82,6.351c-0.706,4.115,7.408,1.764,7.408-2.704
			c0-4.116-3.057-11.525-11.172-11.525c-11.171,0-19.167,13.642-19.167,27.164c0,14.465,9.878,22.227,20.344,22.227
			c17.286,0,22.461-14.229,23.284-21.403C354.229,350.331,347.644,347.979,346.586,353.271z M315.896,340.725
			c-0.523,0.71-0.823,1.116-0.823,1.116s0.204-0.463,0.628-1.241c0.437-0.767,1.045-1.883,1.922-3.127
			c0.436-0.624,0.926-1.288,1.471-1.975c0.551-0.68,1.137-1.399,1.824-2.074c0.676-0.684,1.408-1.368,2.231-1.977
			c0.807-0.628,1.724-1.16,2.688-1.604c0.974-0.43,2.058-0.667,3.137-0.687c1.09-0.049,2.145,0.316,3.041,0.774
			c0.444,0.251,0.876,0.502,1.226,0.837c0.383,0.295,0.697,0.638,0.993,0.979c0.318,0.323,0.568,0.677,0.808,1.021
			c0.245,0.34,0.482,0.666,0.66,1.009c0.189,0.335,0.371,0.655,0.544,0.959c0.152,0.314,0.273,0.624,0.399,0.906
			c0.255,0.566,0.459,1.063,0.592,1.487c0.29,0.839,0.438,1.319,0.438,1.319s-0.236-0.445-0.65-1.226
			c-0.187-0.396-0.453-0.859-0.773-1.376c-0.3-0.531-0.688-1.094-1.111-1.7c-0.197-0.314-0.449-0.604-0.706-0.905
			c-0.25-0.308-0.513-0.62-0.828-0.89c-0.297-0.29-0.606-0.579-0.968-0.809c-0.337-0.268-0.711-0.479-1.1-0.672
			c-0.783-0.364-1.651-0.604-2.552-0.558c-0.896,0.03-1.814,0.234-2.678,0.63c-0.862,0.385-1.709,0.854-2.475,1.434
			c-0.771,0.564-1.512,1.165-2.183,1.802c-1.349,1.265-2.548,2.539-3.494,3.7C317.208,339.039,316.411,340.013,315.896,340.725z"/>
		<path fill="#FFFFFF" d="M313.779,352.213c-1.06,0-1.882,0.94-2.705,3.175c-1.294,3.763-4.116,7.291-9.644,8.466
			c0.354-1.293,0.59-2.821,0.59-4.232c0-11.171-7.175-15.405-12.701-25.165c0.118-0.706,2.822-4.586,2.822-7.997
			c0-3.175-1.41-5.291-4.233-5.291c-3.175,0-9.995,5.291-9.995,9.29c0,1.999,0.706,3.763,1.881,5.526
			c-2.116,6.232-4.586,12.936-5.762,18.11c-0.94,3.998,5.527,7.291,6.82,2.352c1.529-5.645,2.705-9.643,4.586-14.229
			c4.116,4.233,8.467,9.173,8.467,16.581c0,2.939-1.294,5.645-2.587,7.174c-5.88,0-16.58-6.821-18.933-6.821
			c-2.587,0-5.762,6.233,0,11.76c2.353,2.234,7.996,4.939,12.936,4.939c4.82,0,8.701-1.765,11.524-4.234
			c7.291-0.471,12.111-2.704,15.757-5.644c2.705-2.234,5.41-6.704,5.41-9.056C318.013,355.27,315.779,352.213,313.779,352.213z
			 M288.447,324.163c-0.334-0.106-0.766-0.063-1.203,0.065c-0.893,0.239-1.772,0.792-2.578,1.296
			c-0.803,0.528-1.534,1.072-2.165,1.541c-1.263,0.963-2.104,1.604-2.104,1.604s0.556-0.924,1.643-2.108
			c0.541-0.595,1.211-1.257,2.012-1.89c0.807-0.622,1.724-1.248,2.869-1.595c0.571-0.151,1.234-0.231,1.893-0.01
			c0.66,0.215,1.157,0.775,1.381,1.296c0.261,0.522,0.347,1.044,0.408,1.523c0.042,0.479,0.055,0.928,0.021,1.334
			c-0.043,0.814-0.164,1.475-0.271,1.933c-0.112,0.454-0.176,0.714-0.176,0.714s-0.023-0.267-0.062-0.731
			c-0.027-0.462-0.081-1.122-0.18-1.888c-0.04-0.386-0.128-0.789-0.212-1.208c-0.11-0.409-0.253-0.828-0.459-1.18
			C289.07,324.484,288.771,324.275,288.447,324.163z"/>
		<path fill="#FFFFFF" d="M469.94,351.859c-1.175,0-2.352,1.059-2.821,3.528c-1.059,5.175-3.175,12.7-7.88,12.7
			c-3.058,0-3.058-4.351-3.058-5.409v-24.343c0-5.409-1.88-11.877-9.76-11.877c-5.762,0-9.995,5.058-13.17,11.643v-5.292
			c0-2.823-2.47-5.175-6.351-5.175c-1.646,0-3.057,0.824-3.057,2c0,0.823,0.47,1.528,0.47,3.763v37.277
			c0,4.352,3.293,5.175,5.645,5.175c3.411,0,3.293-2.823,3.293-5.057v-17.17c0.823-9.289,8.114-19.402,11.523-19.402
			c2.235,0,2.47,3.057,2.47,6.703v23.871c0,5.998,3.646,11.055,9.878,11.055c10.114,0,14.817-10.584,16.816-18.346
			c0.117-0.47,0.117-0.705,0.117-0.823C474.057,354.446,471.823,351.859,469.94,351.859z M454.02,336.015
			c-0.292-0.729-0.787-1.743-1.435-2.899c-0.308-0.592-0.726-1.172-1.139-1.794c-0.236-0.285-0.479-0.578-0.727-0.877
			c-0.286-0.253-0.544-0.552-0.851-0.792c-0.607-0.493-1.318-0.84-2.069-1.035c-0.765-0.163-1.575-0.091-2.359,0.137
			c-1.592,0.442-3.024,1.516-4.268,2.57c-1.235,1.088-2.304,2.225-3.186,3.231c-0.874,1.014-1.596,1.878-2.068,2.507
			c-0.479,0.628-0.754,0.986-0.754,0.986s0.181-0.417,0.56-1.112c0.389-0.688,0.939-1.685,1.724-2.802
			c0.775-1.121,1.773-2.378,3.015-3.586c1.247-1.186,2.756-2.379,4.647-2.945c0.94-0.262,1.972-0.34,2.946-0.113
			c0.969,0.246,1.813,0.76,2.493,1.357c0.341,0.3,0.626,0.638,0.917,0.953c0.246,0.347,0.484,0.686,0.718,1.016
			c0.4,0.693,0.768,1.349,1.016,1.992c0.294,0.623,0.478,1.225,0.646,1.754c0.18,0.523,0.302,0.99,0.394,1.376
			c0.192,0.77,0.284,1.212,0.284,1.212S454.329,336.738,454.02,336.015z"/>
		<path fill="#FFFFFF" d="M391.74,351.859c-1.175,0-2.35,1.059-2.821,3.528c-1.059,5.175-3.175,12.7-7.878,12.7
			c-3.058,0-3.058-4.351-3.058-5.409V332.81c0-2.823-2.47-5.175-6.352-5.175c-1.646,0-3.763,0.471-3.763,1.294
			s1.177,1.058,1.177,4.469v18.933c-1.41,8.232-4.939,15.875-9.643,15.875c-3.41,0-5.41-3.41-5.41-9.76
			c0-9.879,1.294-15.052,3.41-23.754c0.471-1.765,3.881-6.468-1.88-6.468c-6.233,0-5.41,2.352-6.233,4.351
			c0,0-4.232,13.994-4.232,26.458c0,10.231,4.586,16.934,12.464,16.934c5.175,0,8.938-3.527,11.759-8.466
			c0.823,4.703,4.352,8.35,9.645,8.35c10.112,0,14.698-10.584,16.815-18.346c0.116-0.47,0.116-0.705,0.116-0.823
			C395.856,354.446,393.623,351.859,391.74,351.859z M352.778,330.065c-0.979,0.061-1.633,0.101-1.633,0.101
			s0.537-0.427,1.496-0.771c0.239-0.095,0.508-0.166,0.795-0.234c0.29-0.058,0.603-0.123,0.938-0.129
			c0.335-0.009,0.693-0.011,1.063,0.085c0.186,0.021,0.371,0.107,0.557,0.188c0.188,0.075,0.373,0.158,0.535,0.311
			c0.361,0.252,0.563,0.636,0.758,1.004c0.093,0.373,0.203,0.774,0.167,1.111c-0.03,0.339-0.03,0.683-0.126,0.965
			c-0.082,0.287-0.176,0.554-0.264,0.795c-0.069,0.248-0.212,0.439-0.305,0.623c-0.098,0.182-0.194,0.334-0.271,0.459
			c-0.157,0.249-0.255,0.383-0.255,0.383s0.005-0.173,0.031-0.464c0.016-0.143,0.036-0.315,0.058-0.515
			c0.017-0.196,0.077-0.411,0.074-0.65c0.009-0.237,0.02-0.489,0.045-0.75c0.032-0.265-0.047-0.52-0.04-0.787
			c0.006-0.276-0.146-0.48-0.183-0.727c-0.131-0.184-0.226-0.391-0.427-0.504c-0.066-0.089-0.179-0.139-0.292-0.188
			c-0.11-0.051-0.212-0.119-0.35-0.137c-0.25-0.071-0.52-0.129-0.797-0.149C353.804,330.037,353.256,330.042,352.778,330.065z
			 M376.338,333.892c-0.022,0.298-0.047,0.465-0.047,0.465s-0.077-0.159-0.189-0.431c-0.131-0.268-0.218-0.673-0.448-1.099
			c-0.107-0.215-0.213-0.449-0.32-0.692c-0.144-0.223-0.296-0.453-0.429-0.699c-0.166-0.222-0.362-0.427-0.536-0.65
			c-0.224-0.167-0.395-0.408-0.654-0.527l-0.353-0.234l-0.389-0.17c-0.255-0.113-0.533-0.19-0.8-0.263
			c-0.276-0.045-0.544-0.121-0.811-0.138c-0.264-0.037-0.519-0.043-0.759-0.063c-0.956-0.027-1.646,0.026-1.646,0.026
			s0.552-0.437,1.566-0.706c0.507-0.131,1.128-0.22,1.811-0.16c0.334,0.052,0.699,0.081,1.041,0.22l0.519,0.205l0.488,0.29
			c0.335,0.185,0.566,0.499,0.843,0.743c0.229,0.286,0.416,0.599,0.589,0.892c0.138,0.311,0.247,0.621,0.352,0.907
			c0.072,0.295,0.112,0.579,0.151,0.837C376.425,333.154,376.337,333.596,376.338,333.892z"/>
		<path fill="#FFFFFF" d="M499.104,317.287c-7.997,0.353-16.229,0.471-23.401,0.471v-17.077c-0.985,0.524-1.983,1.044-3.003,1.55
			c-1.938,0.962-3.921,1.864-5.936,2.718v12.691c-6.35-0.117-10.583-0.353-10.583-0.353c-3.41,0-1.293,7.879,2.47,7.879
			c0,0,2.939,0.234,8.113,0.234v37.396c0,9.29,4.469,13.054,10.818,13.054c10.114,0,14.818-10.584,16.817-18.346
			c0.118-0.47,0.118-0.705,0.118-0.823c0-2.234-2.235-4.821-4.116-4.821c-1.177,0-2.354,1.059-2.823,3.528
			c-1.059,5.175-3.175,12.7-7.879,12.7c-2.469,0-3.997-1.646-3.997-5.409V325.4c6.231,0,13.169,0,22.578-0.234
			C501.338,325.049,502.396,313.76,499.104,317.287z M463.785,319.237c-0.847,0.124-1.973,0.185-3.096,0.15
			c-1.122-0.041-2.241-0.179-3.079-0.358c-0.837-0.17-1.392-0.389-1.392-0.389s0.568-0.182,1.415-0.295
			c0.847-0.124,1.973-0.188,3.096-0.153c1.122,0.041,2.241,0.177,3.079,0.356c0.837,0.171,1.392,0.391,1.392,0.391
			S464.632,319.122,463.785,319.237z M497.783,318.96c-0.62,0.139-1.485,0.245-2.54,0.375c-2.104,0.24-4.914,0.402-7.725,0.46
			c-2.809,0.045-5.62-0.018-7.729-0.146c-1.054-0.056-1.933-0.155-2.548-0.201c-0.615-0.057-0.966-0.107-0.966-0.107
			s0.351-0.055,0.963-0.124c0.615-0.058,1.491-0.173,2.543-0.251c2.104-0.176,4.91-0.312,7.715-0.366
			c2.806-0.05,5.612-0.016,7.716,0.049c1.048,0.006,1.942,0.116,2.54,0.082c0.609-0.003,0.975,0.012,0.975,0.012
			S498.396,318.83,497.783,318.96z"/>
	</g>
</g>
</svg>
