<?xml version="1.0" encoding="utf-8"?>
<!-- Generator: Adobe Illustrator 19.1.0, SVG Export Plug-In . SVG Version: 6.00 Build 0)  -->
<svg version="1.1" id="Capa_1" xmlns="http://www.w3.org/2000/svg" xmlns:xlink="http://www.w3.org/1999/xlink" x="0px" y="0px"
	 viewBox="0 0 1577.2 753.8" style="enable-background:new 0 0 1577.2 753.8;" xml:space="preserve">
<style type="text/css">
	.st0{fill:url(#SVGID_1_);}
	.st1{fill:url(#SVGID_2_);}
	.st2{fill:url(#SVGID_3_);}
	.st3{fill:url(#SVGID_4_);}
	.st4{fill:url(#SVGID_5_);}
	.st5{fill:url(#SVGID_6_);}
	.st6{fill:url(#SVGID_7_);}
	.st7{fill:url(#SVGID_8_);}
	.st8{fill:url(#SVGID_9_);}
	.st9{fill:url(#SVGID_10_);}
	.st10{fill:url(#SVGID_11_);}
	.st11{fill:url(#SVGID_12_);}
	.st12{fill:url(#SVGID_13_);}
	.st13{fill:url(#SVGID_14_);}
	.st14{fill:url(#SVGID_15_);}
	.st15{fill:url(#SVGID_16_);}
	.st16{fill:url(#SVGID_17_);}
	.st17{fill:url(#SVGID_18_);}
	.st18{fill:url(#SVGID_19_);}
	.st19{fill:url(#SVGID_20_);}
	.st20{opacity:0.5;fill:url(#SVGID_21_);}
	.st21{opacity:0.5;fill:url(#SVGID_22_);}
	.st22{opacity:0.5;fill:url(#SVGID_23_);}
	.st23{opacity:0.5;fill:url(#SVGID_24_);}
	.st24{opacity:0.5;}
	.st25{fill:url(#SVGID_25_);}
	.st26{fill:url(#SVGID_26_);}
	.st27{opacity:0.5;fill:url(#SVGID_27_);}
	.st28{opacity:0.5;fill:url(#SVGID_28_);}
	.st29{fill:url(#SVGID_29_);}
	.st30{fill:url(#SVGID_30_);}
	.st31{opacity:0.5;fill:url(#SVGID_31_);}
	.st32{fill:url(#SVGID_32_);}
	.st33{fill:url(#SVGID_33_);}
	.st34{fill:url(#SVGID_34_);}
	.st35{fill:url(#SVGID_35_);}
	.st36{fill:url(#SVGID_36_);}
	.st37{opacity:0.5;fill:url(#SVGID_37_);}
	.st38{opacity:0.5;fill:url(#SVGID_38_);}
	.st39{fill:url(#SVGID_39_);}
	.st40{fill:url(#SVGID_40_);}
	.st41{fill:url(#SVGID_41_);}
	.st42{opacity:0.5;fill:url(#SVGID_42_);}
	.st43{opacity:0.5;fill:url(#SVGID_43_);}
	.st44{opacity:0.5;fill:url(#SVGID_44_);}
	.st45{opacity:0.5;fill:url(#SVGID_45_);}
	.st46{fill:url(#SVGID_46_);}
	.st47{fill:url(#SVGID_47_);}
	.st48{opacity:0.5;fill:url(#SVGID_48_);}
	.st49{fill:url(#SVGID_49_);}
	.st50{fill:url(#SVGID_50_);}
	.st51{opacity:0.5;fill:url(#SVGID_51_);}
	.st52{opacity:0.5;fill:url(#SVGID_52_);}
	.st53{opacity:0.5;fill:url(#SVGID_53_);}
	.st54{opacity:0.5;fill:url(#SVGID_54_);}
	.st55{opacity:0.5;fill:url(#SVGID_55_);}
	.st56{fill:#FFFFFF;}
	.st57{fill:url(#SVGID_56_);}
	.st58{fill:url(#SVGID_57_);}
	.st59{fill:url(#SVGID_58_);}
	.st60{fill:url(#SVGID_59_);}
	.st61{fill:url(#SVGID_60_);}
	.st62{fill:url(#SVGID_61_);}
	.st63{fill:url(#SVGID_62_);}
	.st64{fill:url(#SVGID_63_);}
	.st65{fill:url(#SVGID_64_);}
	.st66{fill:url(#SVGID_65_);}
	.st67{fill:url(#SVGID_66_);}
	.st68{fill:url(#SVGID_67_);}
	.st69{fill:url(#SVGID_68_);}
	.st70{fill:url(#SVGID_69_);}
	.st71{fill:url(#SVGID_70_);}
	.st72{fill:url(#SVGID_71_);}
	.st73{fill:url(#SVGID_72_);}
	.st74{fill:url(#SVGID_73_);}
	.st75{opacity:0.5;fill:url(#SVGID_74_);}
	.st76{opacity:0.5;fill:url(#SVGID_75_);}
	.st77{fill:url(#SVGID_76_);}
	.st78{fill:url(#SVGID_77_);}
	.st79{fill:url(#SVGID_78_);}
	.st80{fill:url(#SVGID_79_);}
	.st81{fill:url(#SVGID_80_);}
	.st82{fill:url(#SVGID_81_);}
	.st83{fill:url(#SVGID_82_);}
	.st84{fill:url(#SVGID_83_);}
	.st85{fill:url(#SVGID_84_);}
	.st86{fill:url(#SVGID_85_);}
	.st87{fill:url(#SVGID_86_);}
	.st88{fill:url(#SVGID_87_);}
	.st89{fill:url(#SVGID_88_);}
	.st90{fill:url(#SVGID_89_);}
	.st91{fill:url(#SVGID_90_);}
	.st92{fill:url(#SVGID_91_);}
	.st93{fill:url(#SVGID_92_);}
	.st94{fill:url(#SVGID_93_);}
	.st95{fill:url(#SVGID_94_);}
	.st96{fill:url(#SVGID_95_);}
	.st97{opacity:0.5;fill:url(#SVGID_96_);}
	.st98{opacity:0.5;fill:url(#SVGID_97_);}
	.st99{opacity:0.5;fill:url(#SVGID_98_);}
	.st100{opacity:0.5;fill:url(#SVGID_99_);}
	.st101{fill:url(#SVGID_100_);}
	.st102{fill:url(#SVGID_101_);}
	.st103{opacity:0.5;fill:url(#SVGID_102_);}
	.st104{fill:url(#SVGID_103_);}
	.st105{fill:url(#SVGID_104_);}
	.st106{opacity:0.5;fill:url(#SVGID_105_);}
	.st107{fill:url(#SVGID_106_);}
	.st108{fill:url(#SVGID_107_);}
	.st109{opacity:0.5;fill:url(#SVGID_108_);}
	.st110{opacity:0.5;fill:url(#SVGID_109_);}
	.st111{opacity:0.5;fill:url(#SVGID_110_);}
	.st112{fill:url(#SVGID_111_);}
	.st113{fill:url(#SVGID_112_);}
	.st114{fill:url(#SVGID_113_);}
	.st115{opacity:0.5;fill:url(#SVGID_114_);}
</style>
<g>
	<linearGradient id="SVGID_1_" gradientUnits="userSpaceOnUse" x1="506.1194" y1="33.2374" x2="591.1194" y2="33.2374">
		<stop  offset="2.739730e-002" style="stop-color:#004252"/>
		<stop  offset="0.2371" style="stop-color:#004A5C"/>
		<stop  offset="0.6296" style="stop-color:#005569"/>
		<stop  offset="1" style="stop-color:#00586D"/>
	</linearGradient>
	<polygon class="st0" points="506.1,62.2 541.1,4.2 591.1,4.2 534.6,62.2 	"/>
	<g>
		<g>
			<linearGradient id="SVGID_2_" gradientUnits="userSpaceOnUse" x1="46.9768" y1="498.9899" x2="47.0974" y2="498.9899">
				<stop  offset="2.739730e-002" style="stop-color:#004252"/>
				<stop  offset="0.2371" style="stop-color:#004A5C"/>
				<stop  offset="0.6296" style="stop-color:#005569"/>
				<stop  offset="1" style="stop-color:#00586D"/>
			</linearGradient>
			<path class="st1" d="M47,499.1c0-0.1,0.1-0.2,0.1-0.2C47.1,498.9,47,499,47,499.1C47,499.1,47,499.1,47,499.1z"/>
			<linearGradient id="SVGID_3_" gradientUnits="userSpaceOnUse" x1="9.094947e-013" y1="309.8578" x2="1577.2159" y2="309.8578">
				<stop  offset="2.739730e-002" style="stop-color:#004252"/>
				<stop  offset="0.2371" style="stop-color:#004A5C"/>
				<stop  offset="0.6296" style="stop-color:#005569"/>
				<stop  offset="1" style="stop-color:#00586D"/>
			</linearGradient>
			<path class="st2" d="M1574.5,188.7c-4.8-28.3-20.6-55.8-46.5-69.7c-2.3-1.2-4.7-2.4-7.2-3.5l-10.7,22.9
				c0.3,0.1,20.2,21.8,23.8,27.8c19.4,31.8,15.2,83.3-0.4,117.3c-40.2,87.4-163.2,90.5-244.6,82c-32.4-3.4-64.7-9.4-96.9-14.1
				c-33-4.8-65.9-9.3-99-13.5c-60-7.7-120.1-14.3-180.4-19.7c-98.5-8.7-197.4-14.1-296.2-13.8c-74.3,0.3-148.7,3.8-222.4,12.9
				c-54.2,6.8-108.2,16.2-160.8,31.3c-36.8,10.5-73.1,23.8-107.2,41.4c-23.2,11.9-45.3,26.2-65.1,43.3
				c-12.3,10.7-23.6,22.8-32.7,36.3c-4.2,6.2-8.8,13.5-10.8,20.8c-0.1,0.3-0.2,0.5-0.3,0.8c-0.8,2.7-17.5,2.6-17.1,4.8
				c0.4,2.2,18,6.6,19.3,8.2h25.3c1-1.4,1.8-3,2.3-4.8c0-0.1,0.1-0.2,0.1-0.3c-0.1,0.2-0.2,0.4-0.3,0.6c0.1-0.2,0.2-0.4,0.3-0.6
				c0.8-2.6,0.9-1.8,0.1-0.2c1.6-2.7,2.7-5.7,4.3-8.4c1.3-2.2,2.7-4.4,4.2-6.5c0.8-1.2,1.7-2.3,2.5-3.5c0.1-0.2,0.3-0.4,0.4-0.5
				c0.1-0.2,0.3-0.3,0.4-0.5c5.1-6.1,10.3-11.9,16.1-17.4c3.5-3.4,7.2-6.6,11-9.8c2-1.7,4-3.3,6-4.9c0.1,0,0.1-0.1,0.1-0.1
				c0.1-0.1,0.3-0.2,0.5-0.3c1.2-0.9,2.4-1.8,3.6-2.7c10.6-7.7,21.7-14.7,33.1-21.1c6.6-3.7,13.4-7.2,20.2-10.6
				c3.8-1.8,7.5-3.6,11.3-5.3c1.9-0.9,3.8-1.7,5.7-2.6c0.9-0.4,1.8-0.8,2.7-1.2c0.3-0.1,1.8-0.8,2.6-1.1c0.5-0.2,1-0.4,1.1-0.5
				c1.1-0.5,2.2-0.9,3.3-1.4c2.3-0.9,4.5-1.8,6.8-2.7c4.4-1.7,8.7-3.4,13.2-5c9.8-3.6,19.7-6.9,29.7-10
				c49.9-15.5,101.3-25.6,153-32.8c68.9-9.6,144.2-13.8,215.9-14.8c98.2-1.3,196.3,3.4,294.1,11.5c59.8,5,119.5,11.2,179,18.6
				c66.6,8.2,132.7,18.9,199.1,28c53.9,7.4,109.5,8.8,163-3.1c43-9.6,85.9-29.4,113.5-64.8C1572.9,288.1,1582.5,235.2,1574.5,188.7z
				"/>
		</g>
		<g>
			<linearGradient id="SVGID_4_" gradientUnits="userSpaceOnUse" x1="305.7761" y1="302.5674" x2="305.7761" y2="92.049">
				<stop  offset="2.739730e-002" style="stop-color:#004252"/>
				<stop  offset="0.2371" style="stop-color:#004A5C"/>
				<stop  offset="0.6296" style="stop-color:#005569"/>
				<stop  offset="1" style="stop-color:#00586D"/>
			</linearGradient>
			<path class="st3" d="M310.1,242.4h-4.5h-43.9v60.1h-47.5V92h91.4c55,0,86.3,26.5,86.3,73.1c0,32.5-13.8,55.9-39.4,68l44.8,69.5
				h-53.8L310.1,242.4z M305.6,202.7c26.2,0,41.2-12,41.2-36.1c0-23.5-15-35.2-41.2-35.2h-43.9v71.3H305.6z"/>
			<linearGradient id="SVGID_5_" gradientUnits="userSpaceOnUse" x1="529.9817" y1="304.6726" x2="529.9817" y2="90.5453">
				<stop  offset="2.739730e-002" style="stop-color:#004252"/>
				<stop  offset="0.2371" style="stop-color:#004A5C"/>
				<stop  offset="0.6296" style="stop-color:#005569"/>
				<stop  offset="1" style="stop-color:#00586D"/>
			</linearGradient>
			<path class="st4" d="M643.1,197.3c0,60.7-48.7,107.4-113.1,107.4c-64.4,0-113.1-46.3-113.1-107.4c0-61.4,48.7-106.8,113.1-106.8
				C594.3,90.5,643.1,136.3,643.1,197.3z M465.6,197.3c0,37,29.8,65.9,65,65.9c35.2,0,63.8-28.9,63.8-65.9S565.8,132,530.6,132
				C495.1,132,465.6,160.3,465.6,197.3z"/>
			<linearGradient id="SVGID_6_" gradientUnits="userSpaceOnUse" x1="735.5453" y1="508.3117" x2="735.5453" y2="92.049">
				<stop  offset="2.739730e-002" style="stop-color:#004252"/>
				<stop  offset="0.2371" style="stop-color:#004A5C"/>
				<stop  offset="0.6296" style="stop-color:#005569"/>
				<stop  offset="1" style="stop-color:#00586D"/>
			</linearGradient>
			<path class="st5" d="M759.2,132.3v376h-47.5v-376h-64.1V92h175.9v40.3H759.2z"/>
			<linearGradient id="SVGID_7_" gradientUnits="userSpaceOnUse" x1="930.8798" y1="302.5674" x2="930.8798" y2="92.049">
				<stop  offset="2.739730e-002" style="stop-color:#004252"/>
				<stop  offset="0.2371" style="stop-color:#004A5C"/>
				<stop  offset="0.6296" style="stop-color:#005569"/>
				<stop  offset="1" style="stop-color:#00586D"/>
			</linearGradient>
			<path class="st6" d="M896.6,131.4v45.7h101.7v39.4H896.6v46.6h116.1v39.4H849.1V92h160.3v39.4H896.6z"/>
			<linearGradient id="SVGID_8_" gradientUnits="userSpaceOnUse" x1="1120.501" y1="304.071" x2="1120.501" y2="89.9438">
				<stop  offset="2.739730e-002" style="stop-color:#004252"/>
				<stop  offset="0.2371" style="stop-color:#004A5C"/>
				<stop  offset="0.6296" style="stop-color:#005569"/>
				<stop  offset="1" style="stop-color:#00586D"/>
			</linearGradient>
			<path class="st7" d="M1207,112.8l-18.3,39.4c-22.3-13.2-48.7-21.7-65.6-21.7c-15.9,0-26.8,5.7-26.8,17.1
				c0,38.8,112.2,17.1,111.9,92.9c0,41.2-35.8,63.5-82.4,63.5c-34.6,0-69.2-13.2-92.9-33.4l18.9-38.8c21.7,19.2,52.3,31.6,74.6,31.6
				c19.5,0,31.3-7.2,31.3-20.1c0-39.7-112.2-16.5-112.2-91.1c0-38.2,32.8-62.3,81.5-62.3C1156.4,89.9,1185.9,99,1207,112.8z"/>
			<linearGradient id="SVGID_9_" gradientUnits="userSpaceOnUse" x1="1265.3082" y1="302.5674" x2="1265.3082" y2="92.049">
				<stop  offset="2.739730e-002" style="stop-color:#004252"/>
				<stop  offset="0.2371" style="stop-color:#004A5C"/>
				<stop  offset="0.6296" style="stop-color:#005569"/>
				<stop  offset="1" style="stop-color:#00586D"/>
			</linearGradient>
			<path class="st8" d="M1241.5,302.6V92h47.5v210.5H1241.5z"/>
			<linearGradient id="SVGID_10_" gradientUnits="userSpaceOnUse" x1="1406.2046" y1="304.071" x2="1406.2046" y2="89.9438">
				<stop  offset="2.739730e-002" style="stop-color:#004252"/>
				<stop  offset="0.2371" style="stop-color:#004A5C"/>
				<stop  offset="0.6296" style="stop-color:#005569"/>
				<stop  offset="1" style="stop-color:#00586D"/>
			</linearGradient>
			<path class="st9" d="M1492.7,112.8l-18.3,39.4c-22.3-13.2-48.7-21.7-65.6-21.7c-15.9,0-26.8,5.7-26.8,17.1
				c0,38.8,112.2,17.1,111.9,92.9c0,41.2-35.8,63.5-82.4,63.5c-34.6,0-69.2-13.2-92.9-33.4l18.9-38.8c21.7,19.2,52.3,31.6,74.6,31.6
				c19.5,0,31.3-7.2,31.3-20.1c0-39.7-112.2-16.5-112.2-91.1c0-38.2,32.8-62.3,81.5-62.3C1442.1,89.9,1471.6,99,1492.7,112.8z"/>
			<linearGradient id="SVGID_11_" gradientUnits="userSpaceOnUse" x1="97.0601" y1="495.965" x2="97.0601" y2="92.0491">
				<stop  offset="2.739730e-002" style="stop-color:#004252"/>
				<stop  offset="0.2371" style="stop-color:#004A5C"/>
				<stop  offset="0.6296" style="stop-color:#005569"/>
				<stop  offset="1" style="stop-color:#00586D"/>
			</linearGradient>
			<path class="st10" d="M19,496c0.1-0.2,0.1-0.4,0.2-0.7c0.1-0.3,0.2-0.5,0.3-0.8c2-7.3,6.6-14.6,10.8-20.8
				c7.9-11.6,17.3-22.2,27.6-31.7V242.4h41.8c53.5,0,84.2-28.3,84.2-77.3c0-46.6-30.7-73.1-84.2-73.1H10.3V496H19z M57.8,131.4h39.4
				c26.5,0,41.5,11.7,41.5,35.2c0,24.1-15,36.1-41.5,36.1H57.8V131.4z"/>
		</g>
		<g>
			<linearGradient id="SVGID_12_" gradientUnits="userSpaceOnUse" x1="295.4873" y1="290.2207" x2="295.4873" y2="79.7024">
				<stop  offset="0" style="stop-color:#D6F4FF"/>
				<stop  offset="1" style="stop-color:#FFFFFF"/>
			</linearGradient>
			<path class="st11" d="M299.8,230.1h-4.5h-43.9v60.1h-47.5V79.7h91.4c55,0,86.3,26.5,86.3,73.1c0,32.5-13.8,55.9-39.4,68
				l44.8,69.5h-53.8L299.8,230.1z M295.3,190.4c26.2,0,41.2-12,41.2-36.1c0-23.5-15-35.2-41.2-35.2h-43.9v71.3H295.3z"/>
			<linearGradient id="SVGID_13_" gradientUnits="userSpaceOnUse" x1="519.6929" y1="292.326" x2="519.6929" y2="78.1987">
				<stop  offset="0" style="stop-color:#D6F4FF"/>
				<stop  offset="1" style="stop-color:#FFFFFF"/>
			</linearGradient>
			<path class="st12" d="M632.8,185c0,60.7-48.7,107.4-113.1,107.4S406.6,246,406.6,185c0-61.4,48.7-106.8,113.1-106.8
				S632.8,123.9,632.8,185z M455.3,185c0,37,29.8,65.9,65,65.9c35.2,0,63.8-28.9,63.8-65.9c0-37-28.6-65.3-63.8-65.3
				C484.8,119.7,455.3,148,455.3,185z"/>
			<linearGradient id="SVGID_14_" gradientUnits="userSpaceOnUse" x1="920.5909" y1="290.2207" x2="920.5909" y2="79.7024">
				<stop  offset="0" style="stop-color:#D6F4FF"/>
				<stop  offset="1" style="stop-color:#FFFFFF"/>
			</linearGradient>
			<path class="st13" d="M886.3,119.1v45.7H988v39.4H886.3v46.6h116.1v39.4H838.8V79.7h160.3v39.4H886.3z"/>
			<linearGradient id="SVGID_15_" gradientUnits="userSpaceOnUse" x1="1110.2122" y1="291.7244" x2="1110.2122" y2="77.5972">
				<stop  offset="0" style="stop-color:#D6F4FF"/>
				<stop  offset="1" style="stop-color:#FFFFFF"/>
			</linearGradient>
			<path class="st14" d="M1196.7,100.5l-18.3,39.4c-22.3-13.2-48.7-21.7-65.6-21.7c-15.9,0-26.8,5.7-26.8,17.1
				c0,38.8,112.2,17.1,111.9,92.9c0,41.2-35.8,63.5-82.4,63.5c-34.6,0-69.2-13.2-92.9-33.4l18.9-38.8c21.7,19.2,52.3,31.6,74.6,31.6
				c19.5,0,31.3-7.2,31.3-20.1c0-39.7-112.2-16.5-112.2-91.1c0-38.2,32.8-62.3,81.5-62.3C1146.2,77.6,1175.6,86.6,1196.7,100.5z"/>
			<linearGradient id="SVGID_16_" gradientUnits="userSpaceOnUse" x1="1255.0194" y1="290.2207" x2="1255.0194" y2="79.7024">
				<stop  offset="0" style="stop-color:#D6F4FF"/>
				<stop  offset="1" style="stop-color:#FFFFFF"/>
			</linearGradient>
			<path class="st15" d="M1231.3,290.2V79.7h47.5v210.5H1231.3z"/>
			<linearGradient id="SVGID_17_" gradientUnits="userSpaceOnUse" x1="1395.9158" y1="291.7244" x2="1395.9158" y2="77.5972">
				<stop  offset="0" style="stop-color:#D6F4FF"/>
				<stop  offset="1" style="stop-color:#FFFFFF"/>
			</linearGradient>
			<path class="st16" d="M1482.4,100.5l-18.3,39.4c-22.3-13.2-48.7-21.7-65.6-21.7c-15.9,0-26.8,5.7-26.8,17.1
				c0,38.8,112.2,17.1,111.9,92.9c0,41.2-35.8,63.5-82.4,63.5c-34.6,0-69.2-13.2-92.9-33.4l18.9-38.8c21.7,19.2,52.3,31.6,74.6,31.6
				c19.5,0,31.3-7.2,31.3-20.1c0-39.7-112.2-16.5-112.2-91.1c0-38.2,32.8-62.3,81.5-62.3C1431.9,77.6,1461.3,86.6,1482.4,100.5z"/>
			<g>
				<linearGradient id="SVGID_18_" gradientUnits="userSpaceOnUse" x1="86.7713" y1="495.965" x2="86.7713" y2="79.7025">
					<stop  offset="0" style="stop-color:#D6F4FF"/>
					<stop  offset="1" style="stop-color:#FFFFFF"/>
				</linearGradient>
				<path class="st17" d="M8.9,482.9c0.1-0.3,0.2-0.5,0.3-0.8c2-7.3,6.6-14.6,10.8-20.8c7.9-11.6,17.3-22.2,27.6-31.7V230.1h41.8
					c53.5,0,84.2-28.3,84.2-77.3c0-46.6-30.7-73.1-84.2-73.1H0V496h11.1C8.5,492.7,7.3,488.2,8.9,482.9z M47.5,119.1h39.4
					c26.5,0,41.5,11.7,41.5,35.2c0,24.1-15,36.1-41.5,36.1H47.5V119.1z"/>
			</g>
			<linearGradient id="SVGID_19_" gradientUnits="userSpaceOnUse" x1="725.2564" y1="299.2872" x2="725.2564" y2="79.7025">
				<stop  offset="0" style="stop-color:#D6F4FF"/>
				<stop  offset="1" style="stop-color:#FFFFFF"/>
			</linearGradient>
			<path class="st18" d="M701.3,297.5c15.8,0.5,31.7,1.1,47.5,1.8V120h64.4V79.7H637.3V120h64.1V297.5z"/>
			<linearGradient id="SVGID_20_" gradientUnits="userSpaceOnUse" x1="725.1062" y1="495.965" x2="725.1062" y2="328.321">
				<stop  offset="0" style="stop-color:#D6F4FF"/>
				<stop  offset="1" style="stop-color:#FFFFFF"/>
			</linearGradient>
			<path class="st19" d="M701.3,328.3V496h47.5V330.1C733,329.4,717.2,328.8,701.3,328.3z"/>
			<linearGradient id="SVGID_21_" gradientUnits="userSpaceOnUse" x1="7.768375e-003" y1="184.1837" x2="173.5348" y2="184.1837">
				<stop  offset="0" style="stop-color:#52CEFF;stop-opacity:0"/>
				<stop  offset="0.9024" style="stop-color:#52CEFF;stop-opacity:0.9024"/>
				<stop  offset="1" style="stop-color:#52CEFF"/>
			</linearGradient>
			<path class="st20" d="M173.5,152.8c0-37.8-20.1-62.3-56.2-70.2L74,119.1h12.9c26.5,0,41.5,11.7,41.5,35.2
				c0,24.1-15,36.1-41.5,36.1H47.5v-49L0,181.5v104.3L47.5,250v-19.9h26.4l99.6-75.1C173.5,154.2,173.5,153.5,173.5,152.8z"/>
			<linearGradient id="SVGID_22_" gradientUnits="userSpaceOnUse" x1="7.768375e-003" y1="428.77" x2="47.5244" y2="428.77">
				<stop  offset="0" style="stop-color:#52CEFF;stop-opacity:0"/>
				<stop  offset="0.9024" style="stop-color:#52CEFF;stop-opacity:0.9024"/>
				<stop  offset="1" style="stop-color:#52CEFF"/>
			</linearGradient>
			<path class="st21" d="M0,401.6V496h11.1c-2.6-3.3-3.8-7.7-2.2-13c0.1-0.3,0.2-0.5,0.3-0.8c2-7.3,6.6-14.6,10.8-20.8
				c7.9-11.6,17.3-22.2,27.6-31.7v-68.1L0,401.6z"/>
			<linearGradient id="SVGID_23_" gradientUnits="userSpaceOnUse" x1="203.912" y1="187.9907" x2="380.8773" y2="187.9907">
				<stop  offset="0" style="stop-color:#52CEFF;stop-opacity:0"/>
				<stop  offset="0.9024" style="stop-color:#52CEFF;stop-opacity:0.9024"/>
				<stop  offset="1" style="stop-color:#52CEFF"/>
			</linearGradient>
			<path class="st22" d="M335.7,85.8l-37,33.4c24,1,37.8,12.7,37.8,35.1c0,24.1-15,36.1-41.2,36.1h-43.9V162l-47.5,43v85.2h15.3
				l32.3-29.8v-30.3h32.8l96.7-89.5C377.3,113.6,361.7,94.8,335.7,85.8z"/>
			<linearGradient id="SVGID_24_" gradientUnits="userSpaceOnUse" x1="317.3607" y1="260.2312" x2="380.0011" y2="260.2312">
				<stop  offset="0" style="stop-color:#52CEFF;stop-opacity:0"/>
				<stop  offset="0.9024" style="stop-color:#52CEFF;stop-opacity:0.9024"/>
				<stop  offset="1" style="stop-color:#52CEFF"/>
			</linearGradient>
			<polygon class="st23" points="348.4,230.2 317.4,261.6 333.2,290.2 370.4,290.2 380,279.3 			"/>
			<g class="st24">
				<linearGradient id="SVGID_25_" gradientUnits="userSpaceOnUse" x1="414.4355" y1="237.4471" x2="535.9727" y2="237.4471">
					<stop  offset="0" style="stop-color:#52CEFF;stop-opacity:0"/>
					<stop  offset="0.9024" style="stop-color:#52CEFF;stop-opacity:0.9024"/>
					<stop  offset="1" style="stop-color:#52CEFF"/>
				</linearGradient>
				<path class="st25" d="M520.3,250.8c-35.2,0-64.9-28.8-65-65.8l-40.9,40.5c13.4,32.8,42.8,56.9,80.2,64.3l41.4-41
					C531,250.1,525.7,250.8,520.3,250.8z"/>
				<linearGradient id="SVGID_26_" gradientUnits="userSpaceOnUse" x1="521.3573" y1="143.8205" x2="629.0386" y2="143.8205">
					<stop  offset="0" style="stop-color:#52CEFF;stop-opacity:0"/>
					<stop  offset="0.9024" style="stop-color:#52CEFF;stop-opacity:0.9024"/>
					<stop  offset="1" style="stop-color:#52CEFF"/>
				</linearGradient>
				<path class="st26" d="M629,156.6c-9.4-34.8-36-61.5-71.5-72.7l-36.2,35.8c34.7,0.6,62.7,28.6,62.7,65.2c0,6.6-0.9,12.8-2.6,18.8
					L629,156.6z"/>
			</g>
			<linearGradient id="SVGID_27_" gradientUnits="userSpaceOnUse" x1="406.6145" y1="134.1204" x2="523.3337" y2="134.1204">
				<stop  offset="0" style="stop-color:#52CEFF;stop-opacity:0"/>
				<stop  offset="0.9024" style="stop-color:#52CEFF;stop-opacity:0.9024"/>
				<stop  offset="1" style="stop-color:#52CEFF"/>
			</linearGradient>
			<path class="st27" d="M477.8,85.2l-42.1,26.7c-18.2,18.7-29,44.1-29,73c0,1.7,0.1,3.4,0.1,5.1L523.3,78.3c-1.2,0-2.4-0.1-3.6-0.1
				C504.7,78.2,490.6,80.7,477.8,85.2z"/>
			<linearGradient id="SVGID_28_" gradientUnits="userSpaceOnUse" x1="701.3479" y1="159.3733" x2="813.2231" y2="159.3733">
				<stop  offset="0" style="stop-color:#52CEFF;stop-opacity:0"/>
				<stop  offset="1" style="stop-color:#52CEFF"/>
			</linearGradient>
			<polygon class="st28" points="748.9,201.4 748.9,120 813.2,120 813.2,79.7 792.3,79.7 701.3,159 701.3,239 			"/>
			<linearGradient id="SVGID_29_" gradientUnits="userSpaceOnUse" x1="725.1062" y1="299.2872" x2="725.1062" y2="274.2852">
				<stop  offset="0" style="stop-color:#52CEFF"/>
				<stop  offset="1" style="stop-color:#52CEFF;stop-opacity:0"/>
			</linearGradient>
			<path class="st29" d="M701.3,275.5v22c15.8,0.5,31.7,1.1,47.5,1.8v-23.2C733,274.2,716,273.4,701.3,275.5z"/>
			<linearGradient id="SVGID_30_" gradientUnits="userSpaceOnUse" x1="725.1062" y1="347.1896" x2="725.1062" y2="328.321">
				<stop  offset="0" style="stop-color:#52CEFF;stop-opacity:0"/>
				<stop  offset="1" style="stop-color:#52CEFF"/>
			</linearGradient>
			<path class="st30" d="M701.3,346.1c13.7-1.1,31.6-1.6,47.5,1.1v-17c-15.8-0.7-31.7-1.3-47.5-1.8V346.1z"/>
			<linearGradient id="SVGID_31_" gradientUnits="userSpaceOnUse" x1="637.2898" y1="99.8522" x2="704.7903" y2="99.8522">
				<stop  offset="0" style="stop-color:#52CEFF;stop-opacity:0"/>
				<stop  offset="0.9024" style="stop-color:#52CEFF;stop-opacity:0.9024"/>
				<stop  offset="1" style="stop-color:#52CEFF"/>
			</linearGradient>
			<polygon class="st31" points="637.3,79.7 637.3,120 659.5,120 704.8,79.7 			"/>
			<g class="st24">
				<linearGradient id="SVGID_32_" gradientUnits="userSpaceOnUse" x1="838.7895" y1="171.1829" x2="899.3812" y2="171.1829">
					<stop  offset="0" style="stop-color:#52CEFF;stop-opacity:0"/>
					<stop  offset="1" style="stop-color:#52CEFF"/>
				</linearGradient>
				<polygon class="st32" points="886.3,121.9 838.8,162.6 838.8,220.4 899.4,164.8 886.3,164.8 				"/>
				<linearGradient id="SVGID_33_" gradientUnits="userSpaceOnUse" x1="889.6269" y1="99.401" x2="992.1136" y2="99.401">
					<stop  offset="0" style="stop-color:#52CEFF;stop-opacity:0"/>
					<stop  offset="1" style="stop-color:#52CEFF"/>
				</linearGradient>
				<polygon class="st33" points="889.6,119.1 949.2,119.1 992.1,79.7 935.6,79.7 				"/>
			</g>
			<g class="st24">
				<linearGradient id="SVGID_34_" gradientUnits="userSpaceOnUse" x1="838.7895" y1="249.4158" x2="900.0966" y2="249.4158">
					<stop  offset="0" style="stop-color:#52CEFF;stop-opacity:0"/>
					<stop  offset="1" style="stop-color:#52CEFF"/>
				</linearGradient>
				<polygon class="st34" points="886.3,250.8 886.3,208.6 838.8,249.3 838.8,290.2 857.2,290.2 900.1,250.8 				"/>
				<linearGradient id="SVGID_35_" gradientUnits="userSpaceOnUse" x1="990.8636" y1="117.3096" x2="999.0847" y2="117.3096">
					<stop  offset="0" style="stop-color:#52CEFF;stop-opacity:0"/>
					<stop  offset="1" style="stop-color:#52CEFF"/>
				</linearGradient>
				<polygon class="st35" points="999.1,115.5 995,115.5 990.9,119.1 999.1,119.1 				"/>
				<linearGradient id="SVGID_36_" gradientUnits="userSpaceOnUse" x1="891.4486" y1="184.5101" x2="987.9568" y2="184.5101">
					<stop  offset="0" style="stop-color:#52CEFF;stop-opacity:0"/>
					<stop  offset="1" style="stop-color:#52CEFF"/>
				</linearGradient>
				<polygon class="st36" points="937.5,164.8 891.4,204.2 950.9,204.2 988,170.2 988,164.8 				"/>
			</g>
			<linearGradient id="SVGID_37_" gradientUnits="userSpaceOnUse" x1="904.8171" y1="270.5226" x2="985.9282" y2="270.5226">
				<stop  offset="0" style="stop-color:#52CEFF;stop-opacity:0"/>
				<stop  offset="1" style="stop-color:#52CEFF"/>
			</linearGradient>
			<polygon class="st37" points="985.9,250.8 950.8,250.8 904.8,290.2 943,290.2 			"/>
			<linearGradient id="SVGID_38_" gradientUnits="userSpaceOnUse" x1="701.3479" y1="440.8524" x2="748.8646" y2="440.8524">
				<stop  offset="0" style="stop-color:#52CEFF;stop-opacity:0"/>
				<stop  offset="1" style="stop-color:#52CEFF"/>
			</linearGradient>
			<polygon class="st38" points="701.3,439.3 701.3,496 748.9,496 748.9,385.7 			"/>
			<g class="st24">
				<linearGradient id="SVGID_39_" gradientUnits="userSpaceOnUse" x1="1022.5461" y1="249.8097" x2="1086.1149" y2="249.8097">
					<stop  offset="0" style="stop-color:#52CEFF;stop-opacity:0"/>
					<stop  offset="1" style="stop-color:#52CEFF"/>
				</linearGradient>
				<path class="st39" d="M1041.5,219.5l-18.9,38.8c10.3,8.7,22.6,16.1,36,21.7l27.6-34.7C1070.5,240,1054.4,231,1041.5,219.5z"/>
				<linearGradient id="SVGID_40_" gradientUnits="userSpaceOnUse" x1="1110.6785" y1="108.4605" x2="1196.6749" y2="108.4605">
					<stop  offset="0" style="stop-color:#52CEFF;stop-opacity:0"/>
					<stop  offset="1" style="stop-color:#52CEFF"/>
				</linearGradient>
				<path class="st40" d="M1145,80.3l-34.3,38c0.7,0,1.4,0,2.1,0c15.4,0,38.9,7.1,59.9,18.4l17.4-21.9l6.7-14.3
					C1182.4,91.1,1164.3,83.9,1145,80.3z"/>
				<linearGradient id="SVGID_41_" gradientUnits="userSpaceOnUse" x1="1053.9792" y1="174.7132" x2="1146.5499" y2="174.7132">
					<stop  offset="0" style="stop-color:#52CEFF;stop-opacity:0"/>
					<stop  offset="1" style="stop-color:#52CEFF"/>
				</linearGradient>
				<path class="st41" d="M1088,143.4l-34,37.6c17.3,13.9,43.3,18.8,63.5,25l29.1-36.6C1121.5,160.9,1095.2,157,1088,143.4z"/>
			</g>
			<linearGradient id="SVGID_42_" gradientUnits="userSpaceOnUse" x1="1035.177" y1="124.0008" x2="1117.7269" y2="124.0008">
				<stop  offset="0" style="stop-color:#52CEFF;stop-opacity:0"/>
				<stop  offset="1" style="stop-color:#52CEFF"/>
			</linearGradient>
			<path class="st42" d="M1116.7,77.6c-16.8,0-31.6,2.8-43.9,8.1l-35.9,39.7c-1.1,4.5-1.7,9.4-1.7,14.4c0,12.8,3.3,22.7,8.8,30.6
				l73.8-92.8C1117.4,77.6,1117,77.6,1116.7,77.6z"/>
			<linearGradient id="SVGID_43_" gradientUnits="userSpaceOnUse" x1="1075.3929" y1="235.9821" x2="1190.6904" y2="235.9821">
				<stop  offset="0" style="stop-color:#52CEFF;stop-opacity:0"/>
				<stop  offset="1" style="stop-color:#52CEFF"/>
			</linearGradient>
			<path class="st43" d="M1170.9,180.2l-31.9,35.3c5.2,3.9,8.4,8.8,8.4,15.4c0,12.9-11.7,20.1-31.3,20.1c-2.8,0-5.7-0.2-8.7-0.6
				l-32,35.4c12.9,3.7,26.5,5.8,40.1,5.8c0.6,0,1.2,0,1.8,0l73.4-92.3C1185.9,191.2,1178.9,185.1,1170.9,180.2z"/>
			<linearGradient id="SVGID_44_" gradientUnits="userSpaceOnUse" x1="1231.2611" y1="110.4108" x2="1273.5117" y2="110.4108">
				<stop  offset="0" style="stop-color:#52CEFF;stop-opacity:0"/>
				<stop  offset="1" style="stop-color:#52CEFF"/>
			</linearGradient>
			<polygon class="st44" points="1273.5,79.7 1231.3,79.7 1231.3,141.1 			"/>
			<linearGradient id="SVGID_45_" gradientUnits="userSpaceOnUse" x1="1231.2611" y1="202.2509" x2="1278.7777" y2="202.2509">
				<stop  offset="0" style="stop-color:#52CEFF;stop-opacity:0"/>
				<stop  offset="1" style="stop-color:#52CEFF"/>
			</linearGradient>
			<polygon class="st45" points="1231.3,279.8 1278.8,210.7 1278.8,124.7 1231.3,196.3 			"/>
			<g class="st24">
				<linearGradient id="SVGID_46_" gradientUnits="userSpaceOnUse" x1="1308.2496" y1="242.1207" x2="1343.3995" y2="242.1207">
					<stop  offset="0" style="stop-color:#52CEFF;stop-opacity:0"/>
					<stop  offset="1" style="stop-color:#52CEFF"/>
				</linearGradient>
				<path class="st46" d="M1343.4,231.7c-5.7-3.6-11.2-7.7-16.2-12.1l-18.9,38.8c2.6,2.2,5.4,4.3,8.2,6.4L1343.4,231.7z"/>
				<linearGradient id="SVGID_47_" gradientUnits="userSpaceOnUse" x1="1332.4214" y1="137.2312" x2="1459.8937" y2="137.2312">
					<stop  offset="0" style="stop-color:#52CEFF;stop-opacity:0"/>
					<stop  offset="1" style="stop-color:#52CEFF"/>
				</linearGradient>
				<path class="st47" d="M1402.3,77.6l-69.9,96.4c9.7,11.4,24.2,18,39.4,22.9l30-36.7c-17.1-5.4-30-11.6-30-24.8
					c0-11.4,10.8-17.1,26.8-17.1c8.8,0,20.2,2.3,32.3,6.4l29.2-35.8C1442.5,81.8,1422.4,77.6,1402.3,77.6
					C1402.4,77.6,1402.3,77.6,1402.3,77.6z"/>
			</g>
			<linearGradient id="SVGID_48_" gradientUnits="userSpaceOnUse" x1="1361.9868" y1="232.6935" x2="1476.0886" y2="232.6935">
				<stop  offset="0" style="stop-color:#52CEFF;stop-opacity:0"/>
				<stop  offset="1" style="stop-color:#52CEFF"/>
			</linearGradient>
			<path class="st48" d="M1476.1,198.9c-7.3-12-19.2-19.6-32.5-25.2l-27,37.3c9.9,4.5,16.5,10.4,16.5,20c0,12.9-11.7,20.1-31.3,20.1
				c-4.2,0-8.7-0.4-13.4-1.3l-26.4,36.4c12.4,3.5,25.4,5.4,38.4,5.5L1476.1,198.9z"/>
		</g>
		<g>
			<linearGradient id="SVGID_49_" gradientUnits="userSpaceOnUse" x1="38.7457" y1="490.7589" x2="38.8663" y2="490.7589">
				<stop  offset="0" style="stop-color:#D6F4FF"/>
				<stop  offset="1" style="stop-color:#FFFFFF"/>
			</linearGradient>
			<path class="st49" d="M38.7,490.9c0-0.1,0.1-0.2,0.1-0.2C38.8,490.7,38.8,490.8,38.7,490.9C38.8,490.9,38.7,490.9,38.7,490.9z"/>
			<linearGradient id="SVGID_50_" gradientUnits="userSpaceOnUse" x1="8.1759" y1="301.6267" x2="1568.9849" y2="301.6267">
				<stop  offset="0" style="stop-color:#D6F4FF"/>
				<stop  offset="1" style="stop-color:#FFFFFF"/>
			</linearGradient>
			<path class="st50" d="M1566.3,180.5c-4.8-28.3-20.6-55.8-46.5-69.7c-2.3-1.2-4.7-2.4-7.2-3.5l-13.1,28c0.3,0.1,0.6,0.2,0.8,0.3
				c0.2,0.1,0.3,0.1,0.5,0.2c0,0,0.1,0,0.1,0.1c1.7,0.9,3.5,1.7,5.2,2.7c1.9,1.1,3.7,2.3,5.5,3.6c0.1,0.1,0.2,0.1,0.3,0.2
				c0.1,0.1,0.1,0.1,0.2,0.2c1.1,0.9,2.1,1.8,3.2,2.8c5.6,5.3,6.8,6.8,10.5,12.7c19.4,31.8,15.2,83.3-0.4,117.3
				c-40.2,87.4-163.2,90.5-244.6,82c-32.4-3.4-64.7-9.4-96.9-14.1c-33-4.8-65.9-9.3-99-13.5c-60-7.7-120.1-14.3-180.4-19.7
				c-98.5-8.7-197.4-14.1-296.2-13.8c-74.3,0.3-148.7,3.8-222.4,12.9c-54.2,6.8-108.2,16.2-160.8,31.3
				c-36.8,10.5-73.1,23.8-107.2,41.4c-23.2,11.9-45.3,26.2-65.1,43.3c-12.3,10.7-23.6,22.8-32.7,36.3c-4.2,6.2-8.8,13.5-10.8,20.8
				c-0.1,0.3-0.2,0.5-0.3,0.8c-1.6,5.3-0.4,9.8,2.2,13h25.3c1-1.4,1.8-3,2.3-4.8c0-0.1,0.1-0.2,0.1-0.3c-0.1,0.2-0.2,0.4-0.3,0.6
				c0.1-0.2,0.2-0.4,0.3-0.6c0.8-2.6,0.9-1.8,0.1-0.2c1.6-2.7,2.7-5.7,4.3-8.4c1.3-2.2,2.7-4.4,4.2-6.5c0.8-1.2,1.7-2.3,2.5-3.5
				c0.1-0.2,0.3-0.4,0.4-0.5c0.1-0.2,0.3-0.3,0.4-0.5c5.1-6.1,10.3-11.9,16.1-17.4c3.5-3.4,7.2-6.6,11-9.8c2-1.7,4-3.3,6-4.9
				c0.1,0,0.1-0.1,0.1-0.1c0.1-0.1,0.3-0.2,0.5-0.3c1.2-0.9,2.4-1.8,3.6-2.7c10.6-7.7,21.7-14.7,33.1-21.1
				c6.6-3.7,13.4-7.2,20.2-10.6c3.8-1.8,7.5-3.6,11.3-5.3c1.9-0.9,3.8-1.7,5.7-2.6c0.9-0.4,1.8-0.8,2.7-1.2c0.3-0.1,1.8-0.8,2.6-1.1
				c0.5-0.2,1-0.4,1.1-0.5c1.1-0.5,2.2-0.9,3.3-1.4c2.3-0.9,4.5-1.8,6.8-2.7c4.4-1.7,8.7-3.4,13.2-5c9.8-3.6,19.7-6.9,29.7-10
				c49.9-15.5,101.3-25.6,153-32.8c68.9-9.6,144.2-13.8,215.9-14.8c98.2-1.3,196.3,3.4,294.1,11.5c59.8,5,119.5,11.2,179,18.6
				c66.6,8.2,132.7,19,199.1,28c53.9,7.4,109.5,8.8,163-3.1c43-9.6,85.9-29.4,113.5-64.8C1564.7,279.8,1574.3,227,1566.3,180.5z"/>
			<linearGradient id="SVGID_51_" gradientUnits="userSpaceOnUse" x1="364.7818" y1="321.0791" x2="496.1144" y2="321.0791">
				<stop  offset="0" style="stop-color:#52CEFF;stop-opacity:0"/>
				<stop  offset="0.9024" style="stop-color:#52CEFF;stop-opacity:0.9024"/>
				<stop  offset="1" style="stop-color:#52CEFF"/>
			</linearGradient>
			<path class="st51" d="M370.7,342c35.8-5,73.3-8.5,111.1-10.9l14.3-31.7c-36.9,2.1-73.7,5.2-110.3,9.8c-0.8,0.1-1.7,0.2-2.5,0.3
				l-18.5,33.4C366.7,342.5,368.7,342.2,370.7,342z"/>
			<linearGradient id="SVGID_52_" gradientUnits="userSpaceOnUse" x1="780.6867" y1="320.7827" x2="915.6043" y2="320.7827">
				<stop  offset="0" style="stop-color:#52CEFF;stop-opacity:0"/>
				<stop  offset="0.9024" style="stop-color:#52CEFF;stop-opacity:0.9024"/>
				<stop  offset="1" style="stop-color:#52CEFF"/>
			</linearGradient>
			<path class="st52" d="M904.5,309.9c-33.7-3-67.5-5.6-101.2-7.7l-22.5,29.5c33.4,1.9,66.7,4.2,100,7c2.2,0.2,4.4,0.4,6.5,0.6
				l28.4-28.4C911.9,310.6,908.2,310.3,904.5,309.9z"/>
			<linearGradient id="SVGID_53_" gradientUnits="userSpaceOnUse" x1="1013.0249" y1="344.0532" x2="1132.1394" y2="344.0532">
				<stop  offset="0" style="stop-color:#52CEFF;stop-opacity:0"/>
				<stop  offset="0.9024" style="stop-color:#52CEFF;stop-opacity:0.9024"/>
				<stop  offset="1" style="stop-color:#52CEFF"/>
			</linearGradient>
			<path class="st53" d="M1084.8,329.6c-14.5-1.9-29-3.6-43.6-5.4l-28.2,27.6c15.6,1.8,31.1,3.6,46.7,5.5c16.7,2,33.4,4.3,50,6.6
				l22.4-28C1116.4,333.7,1100.6,331.6,1084.8,329.6z"/>
			<linearGradient id="SVGID_54_" gradientUnits="userSpaceOnUse" x1="1179.6691" y1="368.4478" x2="1376.1832" y2="368.4478">
				<stop  offset="0" style="stop-color:#52CEFF;stop-opacity:0"/>
				<stop  offset="0.9024" style="stop-color:#52CEFF;stop-opacity:0.9024"/>
				<stop  offset="1" style="stop-color:#52CEFF"/>
			</linearGradient>
			<path class="st54" d="M1280.7,357.2c-26.3-2.8-52.4-7.2-78.6-11.3l-22.5,28.1c26.4,3.9,52.8,7.8,79.2,11.4
				c32.6,4.5,65.8,6.7,98.8,5.2l18.5-31.8C1342.8,361.7,1309.2,360.2,1280.7,357.2z"/>
			<linearGradient id="SVGID_55_" gradientUnits="userSpaceOnUse" x1="1411.6968" y1="353.2946" x2="1490.5499" y2="353.2946">
				<stop  offset="0" style="stop-color:#52CEFF;stop-opacity:0"/>
				<stop  offset="1" style="stop-color:#52CEFF"/>
			</linearGradient>
			<path class="st55" d="M1485.8,323.2c-21.1,15.4-46.8,24.9-74.1,30.5c1.7,8.8,3.3,19.1,4.3,29.8c1.9-0.4,3.9-0.8,5.8-1.2
				c23.3-5.2,46.5-13.4,67.3-25.4C1491.5,342,1491.3,330.2,1485.8,323.2z"/>
		</g>
		<path class="st56" d="M38.7,490.9c0-0.1,0.1-0.2,0.1-0.2C38.8,490.7,38.8,490.8,38.7,490.9C38.8,490.9,38.7,490.9,38.7,490.9z"/>
		<g>
			<g>
				<linearGradient id="SVGID_56_" gradientUnits="userSpaceOnUse" x1="853.0855" y1="553.7422" x2="853.0855" y2="364.6483">
					<stop  offset="2.739730e-002" style="stop-color:#004252"/>
					<stop  offset="0.2371" style="stop-color:#004A5C"/>
					<stop  offset="0.6296" style="stop-color:#005569"/>
					<stop  offset="1" style="stop-color:#00586D"/>
				</linearGradient>
				<path class="st57" d="M829.5,409.6c0,4.4,1.3,8.3,3.9,11.8c2.6,3.5,6,6.7,10.2,9.7c4.2,3,9,5.8,14.4,8.5
					c5.4,2.7,10.9,5.4,16.5,8.3c5.6,2.8,11.1,5.9,16.5,9.1c5.4,3.2,10.2,6.9,14.4,11c4.2,4.1,7.6,8.7,10.2,13.8
					c2.6,5.1,3.9,11,3.9,17.6c0,6-1,11.5-2.9,16.6c-1.9,5-4.6,9.6-8,13.6c-3.4,4-7.4,7.5-12,10.6c-4.6,3.1-9.6,5.6-14.9,7.6
					c-5.3,2-11,3.5-16.8,4.6c-5.9,1-11.8,1.6-17.7,1.6c-8.3,0-16.5-1-24.3-3.1c-7.9-2-14.9-5.1-21-9.2c-6.1-4.1-11.1-9.2-14.8-15.4
					c-3.7-6.2-5.6-13.4-5.6-21.7c0-4.3,0.7-8,2.1-11.3c1.4-3.2,3.1-5.9,5.1-8.1c2-2.2,4.3-3.8,6.7-4.9c2.4-1.1,4.6-1.7,6.7-1.7
					c2.1,0,3.9,0.6,5.4,1.8c1.4,1.2,2.2,3,2.2,5.5c0,1.1-0.1,2.3-0.4,3.6c-0.3,1.3-0.5,2.7-0.8,4.2c-0.3,1.5-0.6,3.2-0.8,5
					c-0.3,1.8-0.4,3.8-0.4,5.9c0,4.7,1.1,8.7,3.2,12.1c2.1,3.4,5,6.2,8.5,8.4c3.5,2.2,7.6,3.8,12.2,4.9c4.6,1.1,9.4,1.6,14.3,1.6
					c5.8,0,11.6-0.7,17.4-2.1c5.8-1.4,11-3.5,15.6-6.2c4.6-2.7,8.3-6.1,11.2-10.1c2.9-4,4.3-8.5,4.3-13.7c0-4.7-1.3-9-3.9-12.7
					c-2.6-3.7-6-7.2-10.2-10.4c-4.2-3.2-9.1-6.2-14.5-9c-5.4-2.8-10.9-5.6-16.5-8.5c-5.6-2.9-11.1-5.9-16.5-9.1
					c-5.4-3.2-10.2-6.7-14.4-10.5c-4.2-3.8-7.6-8.1-10.2-12.8c-2.6-4.7-3.8-10.1-3.8-16.1c0-5.6,1.3-11.2,4-16.6
					c2.7-5.5,6.8-10.3,12.2-14.7c5.4-4.3,12.2-7.8,20.4-10.5c8.1-2.7,17.7-4,28.6-4c6.9,0,13.7,1,20.4,3.1c6.6,2.1,12.6,5,17.8,8.8
					c5.2,3.8,9.4,8.3,12.6,13.6c3.2,5.3,4.8,11.1,4.8,17.5c0,3.8-0.7,7.7-2,11.7c-1.3,4-3.4,8.2-6.3,12.5c-2.8,4.2-5.9,7.3-9.2,9.4
					c-3.3,2-6.3,3.1-9,3.1c-2,0-3.6-0.6-4.9-1.7c-1.3-1.2-1.9-2.9-1.9-5.2c0-1.7,0.4-3.8,1.2-6.1c0.8-2.4,2.2-5.1,4.1-8.1
					c1.8-2.9,3.2-5.7,4-8.2c0.9-2.6,1.3-4.9,1.3-7.1c0-3.4-0.9-6.4-2.8-8.9c-1.8-2.6-4.4-4.7-7.6-6.4c-3.2-1.7-7.1-3-11.7-3.9
					c-4.6-0.9-9.5-1.3-15-1.3c-6,0-11.2,0.7-15.7,2.1c-4.4,1.4-8.1,3.1-11.1,5.3c-3,2.2-5.2,4.6-6.6,7.3
					C830.3,404.4,829.5,407,829.5,409.6z"/>
				<g>
					<linearGradient id="SVGID_57_" gradientUnits="userSpaceOnUse" x1="965.598" y1="455.068" x2="965.598" y2="429.3819">
						<stop  offset="2.739730e-002" style="stop-color:#004252"/>
						<stop  offset="0.2371" style="stop-color:#004A5C"/>
						<stop  offset="0.6296" style="stop-color:#005569"/>
						<stop  offset="1" style="stop-color:#00586D"/>
					</linearGradient>
					<path class="st58" d="M964.7,455.1c2.7,0,5-0.4,7-1.2c1.9-0.8,3.5-1.9,4.8-3.3c1.3-1.3,2.2-2.9,2.8-4.6
						c0.6-1.7,0.9-3.5,0.9-5.3c0-2-0.4-3.7-1.1-5.2c-0.7-1.4-1.7-2.6-2.9-3.5c-1.2-0.9-2.7-1.5-4.3-2c-1.6-0.4-3.4-0.6-5.3-0.6
						c-3,0-5.5,0.5-7.5,1.4c-2,0.9-3.6,2.1-4.8,3.5c-1.2,1.4-2.1,2.8-2.6,4.4c-0.5,1.6-0.8,3-0.8,4.2c0,3.7,1.1,6.7,3.3,8.9
						C956.6,454,960,455.1,964.7,455.1z"/>
					<linearGradient id="SVGID_58_" gradientUnits="userSpaceOnUse" x1="1146.1797" y1="544.2496" x2="1146.1797" y2="400.5849">
						<stop  offset="2.739730e-002" style="stop-color:#004252"/>
						<stop  offset="0.2371" style="stop-color:#004A5C"/>
						<stop  offset="0.6296" style="stop-color:#005569"/>
						<stop  offset="1" style="stop-color:#00586D"/>
					</linearGradient>
					<path class="st59" d="M1356.7,522.2l-1.9-8.5c-0.6-2.9-4.4-3.8-6.3-1.5c-1.1,1.3-2.2,2.6-3.3,3.7c-1.1,1.2-2.3,2.4-3.5,3.5
						c-1.3,1.1-2.5,2.1-3.7,3c-1.2,0.9-2.5,1.6-3.7,2.2c-1.2,0.6-2.4,0.8-3.5,0.8c-1.5,0-2.5-0.7-2.9-2.1c-0.5-1.4-0.7-3.3-0.7-5.7
						c0-2.9,0.4-6.4,1.3-10.5c0.9-4.2,1.7-7.9,2.3-11.1c0.7-3.3,1.3-6.4,1.8-9.5c0.5-3.1,0.8-5.9,0.8-8.5c0-1.7-0.1-3-0.4-3.9
						c-0.3-1-0.7-1.7-1.2-2.3c-0.5-0.5-1.1-0.9-1.8-1c-0.7-0.2-1.4-0.2-2.2-0.2c-0.6,0-1.2,0-1.8,0s-1.2,0-1.8,0c-0.7,0-1.4,0-2-0.1
						c-0.7-0.1-1.3-0.3-2-0.5c-0.6-0.3-1.2-0.7-1.6-1.3c-0.4-0.6-0.9-1.2-1.3-1.8c-0.5-0.6-1-1.2-1.7-1.7c-0.7-0.5-1.7-0.7-2.9-0.7
						c-3.7,0-7.3,0.8-10.9,2.3c-3.6,1.6-6.9,3.7-10.2,6.3c-3.2,2.7-6.2,5.8-8.9,9.3c-2.7,3.6-5.2,7.8-7.6,12.6
						c-2.4,4.9-4.1,9.4-5.2,13.6c-1,3.9-1.6,7.7-1.7,11.4c-1.1,0.9-2.2,1.7-3.4,2.3c-1.3,0.8-2.5,1.4-3.7,1.9
						c-1.2,0.5-2.4,0.7-3.5,0.7c-1.1,0-2-0.9-2.7-2.7c-0.7-1.8-1.1-4.2-1.1-7.1c0-3.7,0.2-7.2,0.6-10.5c0.4-3.3,0.9-7,1.7-11
						c0.7-4,1.3-7.7,1.7-11c0.4-3.3,0.6-6.8,0.6-10.5c0-2.4-0.9-4.3-2.6-5.6c-1.7-1.3-3.8-2-6.3-2c-2.2,0-4.1,0.7-5.7,2.2
						c-1.5,1.5-3.1,3.3-4.6,5.4c-1.6,2.2-3.3,4.7-5.1,7.6c-1.8,2.9-3.6,5.7-5.2,8.3c-1.6,2.6-3.1,5.3-4.5,7.9
						c-1.4,2.7-2.1,4.1-2.2,4.2l-0.9-1c0-0.1,0-0.3,0.1-0.6c0.2-1,0.3-1.8,0.5-2.3c1-3.3,1.6-5.9,2-7.6c0.5-2,0.9-3.8,1.3-5.2
						c0.3-1.2,0.6-3.1,1-5.5c0.3-1.9,0.4-3.9,0.4-6c0-2.4-0.8-4.3-2.4-5.6c-1.6-1.3-3.5-2-5.7-2c-2.4,0-4.5,0.7-6.2,2.2
						c-1.7,1.4-3.4,3.3-4.9,5.5c-1.6,2.2-3.3,4.7-5,7.6c-1.8,2.9-3.4,5.6-4.9,8.3s-2.9,5.3-4.2,8c-1.3,2.7-2,4.1-2.1,4.3l-0.9-1
						c0.8-4.5,1.6-8.6,2.3-12.2c0.1-0.1,0.3-1.5,0.6-4.2c0.2-1.4,0.4-2.8,0.5-4.1c0.2-1.3,0.3-2.6,0.4-3.8c0.1-1.2,0.1-2.2,0.1-3.1
						c0-1.7-0.1-3-0.2-3.9c-0.1-1-0.4-1.7-1-2.2c-0.6-0.5-1.4-0.8-2.6-1c-1.1-0.1-2.7-0.2-4.7-0.2c-1.3,0-2.4,0.1-3.3,0.3
						c-0.8,0.2-1.6,0.6-2.2,1.1c-0.6,0.6-1.2,1.4-1.6,2.4c-0.5,1-1,2.4-1.5,4.1c-0.5,1.7-1.1,3.8-1.8,6.4c-0.6,2.6-1.3,5.5-1.9,8.7
						c-0.6,3.2-1.3,6.9-2.2,11.1c-0.8,4.3-1.4,8-1.9,11.4c-0.1,0.8-0.2,1.5-0.3,2.3c-0.3,0.2-0.5,0.4-0.8,0.6
						c-3,2.2-6.1,4.3-9.5,6.1c-3.3,1.9-6.8,3.4-10.3,4.7c-3.5,1.2-6.9,1.9-10.1,1.9c-1,0-2-0.1-2.8-0.3c-0.9-0.2-1.7-0.6-2.5-1.1
						c-0.8-0.5-1.6-1.2-2.4-2.2c-0.8-0.9-1.6-2.1-2.4-3.5c4.6-1.2,8.9-3,12.9-5.2c4-2.2,7.4-4.8,10.3-7.6c2.9-2.9,5.4-6.3,7.6-10.3
						c2.2-4,3.2-7.6,3.2-10.8c0-3-0.5-5.8-1.6-8.2c-1.1-2.4-2.5-4.5-4.4-6.3c-1.9-1.7-4.1-3.1-6.7-4c-2.6-1-5.3-1.4-8.3-1.4
						c-3.6,0-7,0.6-10,1.9c-3,1.3-5.7,3-8.1,5.2c-2.4,2.2-4.5,4.7-6.3,7.6c-1.8,2.9-3.3,5.9-4.5,9c-1.2,3.2-2.3,6.8-3.5,10.8
						c-1.1,4.1-1.7,7.6-1.7,10.5c0,1.2,0.1,2.4,0.1,3.6c-0.8,0.6-1.7,1.3-2.5,1.9c-2.2,1.5-4.3,2.9-6.5,4.2
						c-2.2,1.3-4.3,2.4-6.3,3.3c-2,0.9-3.8,1.7-5.5,2.2c-1.7,0.5-3.1,0.8-4.2,0.8c-1.8,0-3.5-0.3-4.9-0.8c-1.5-0.6-2.7-1.5-3.7-2.7
						c-1-1.2-1.8-2.9-2.3-4.8c-0.5-2-0.8-4.4-0.8-7.3c0-1.1,0-2.3,0-3.7c0-1.3,0.1-2.7,0.1-4.1c0.1-1.4,0.1-2.9,0.2-4.3
						c0.1-1.5,0.1-2.9,0.2-4.3c0.2-3.2,0.3-6.4,0.6-9.7c1.3-1.6,2.8-3.5,4.4-5.5c1.6-2,3.1-4.1,4.7-6.3h30.7c1.3,0,2.4-0.6,3.5-1.9
						c1.1-1.2,1.6-2.9,1.6-4.9c0-1.7-0.2-3.1-0.7-4.3s-1.3-1.7-2.3-1.8c-0.9-0.1-2-0.1-3.4-0.2c-1.4-0.1-2.9-0.1-4.5-0.2
						c-1.6-0.1-3.2-0.1-4.9-0.1s-3.3-0.1-4.7-0.1c-1.5,0-2.8-0.1-3.9-0.2c-1.1-0.1-1.9-0.1-2.4,0.1c1.9-3,3.7-6,5.5-9
						c1.7-3,3.2-6,4.5-8.9c1.3-2.9,2.3-5.8,3-8.7c0.7-2.8,1.1-5.5,1.1-8.1c0-3.1-0.4-6-1.1-8.9c-0.7-2.8-1.7-5.3-3.1-7.5
						c-1.3-2.1-2.9-3.8-4.8-5.1c-1.9-1.3-4-1.9-6.3-1.9c-3.6,0-7,1.6-10.2,4.7c-3.2,3.2-6.2,7.3-9,12.6c-2.7,5.2-5.2,11.2-7.4,17.9
						c-2.2,6.7-4,13.6-5.5,20.8c-0.5,0.1-1.5,0.1-2.9,0.1c-1.4,0-3-0.1-4.8-0.1c-1.8-0.1-3.7-0.1-5.6,0c-2,0-3.7,0.2-5.4,0.4
						c-1.6,0.2-3,0.6-4,1c-1,0.4-1.6,1.1-1.6,1.9c0,0.5,0,1.2,0.1,1.9c0.1,0.7,0.2,1.4,0.6,2.1c0.3,0.7,0.8,1.3,1.5,1.8
						c0.7,0.5,1.7,0.8,3,1c2.9,0.4,5.1,0.7,6.6,0.9c1.5,0.2,2.8,0.5,3.8,0.7c1,0.2,1.9,0.4,2.8,0.6c0.9,0.2,2.1,0.4,3.7,0.7
						c-0.5,3.6-0.8,7.2-1.1,10.8c-0.3,3.6-0.4,7-0.4,10.2c0,7.6,0.5,14.5,1.4,20.8c-1.1,0.7-2.2,1.4-3.3,2c-2.5,1.4-5,2.6-7.4,3.7
						c-2.4,1.1-4.7,2.2-6.9,3.3c-2.2,1-4.3,2.2-6.2,3.5c0-3.4,0.1-6.9,0.4-10.2c0.3-3.4,0.2-6-0.2-8c-0.4-1.9-0.8-3.6-1.2-5.1
						c-0.4-1.5-0.9-2.9-1.3-4.2c-0.4-1.3-0.7-2.7-1-4c-0.2-1.4-0.4-2.9-0.4-4.6c0.2-0.6,0.8-1.5,1.9-2.7c1.1-1.2,2.2-2.5,3.5-4
						c1.2-1.5,2.3-3,3.3-4.5c1-1.6,1.5-3,1.5-4.3c0-0.6-0.1-1.4-0.2-2.3c-0.1-0.9-0.5-1.7-1.1-2.5c-0.6-0.8-1.6-1.5-3-2.1
						c-1.4-0.6-3.4-0.8-5.9-0.8c-1.5,0-2.9,0.2-4.2,0.7c-1.3,0.5-2.4,1-3.4,1.8c-1,0.7-2,1.5-2.8,2.5c-0.9,0.9-1.6,1.9-2.3,2.8
						c-3.4,4.3-6.2,7.9-8.3,10.8c-2.1,2.9-3.9,5.3-5.4,7.3c-1.5,2-2.8,3.7-3.9,5.2c-1.1,1.5-2.6,3.3-4.4,5.6c-1.9,2.3-3.7,4.3-5.6,6
						c-1.9,1.7-4.3,3.9-7.3,6.5c-0.4,0.4-1.1,0.9-1.9,1.5c-0.9,0.6-1.7,1.4-2.6,2.3c-0.9,0.9-1.6,1.8-2.2,2.9
						c-0.5,0.9-0.8,1.9-0.9,3c-1.6,1.1-3.2,2.2-4.7,3.1c-2.3,1.3-4.5,2-6.4,2c-1.6,0-2.7-0.7-3.3-2.1c-0.5-1.4-0.8-3.3-0.8-5.7
						c0-2.4,0.4-5.2,1.1-8.2c0.8-3,1.4-6,1.9-9c0.5-3,1.4-6.7,2.8-11c1.4-4.3,2.4-7.8,3.1-10.5c0.7-2.7,1.3-5.2,1.9-7.3
						c0.5-2.1,0.8-3.8,0.8-5c0-1.4-0.4-2.5-1.2-3.3c-0.8-0.8-2.3-1.2-4.5-1.2c-1.2,0-2.5,0.1-4,0.4c-1.5,0.3-2.9,0.8-4.3,1.4
						c-1.4,0.6-2.6,1.4-3.7,2.4c-1.2,1.1-1.9,2.3-2.2,3.6c-0.5,1.9-1.7,6.1-3.7,12.4c-2.2,7.8-3.6,12.8-4.3,15.1
						c-0.4,1.1-1.4,6.3-3,15.6c-0.7,4.5-1.1,8.4-1.1,11.7c0,2.4,0.3,4.6,0.8,6.6c0.5,2,1.3,3.7,2.5,5.1c1.2,1.4,2.7,2.5,4.6,3.2
						c1.9,0.8,4.2,1.2,7,1.2c3.1,0,6.3-0.6,9.8-1.7c3.4-1.1,6.8-2.5,10.1-4.2c3.3-1.7,6.4-3.5,9.2-5.5c0.8-0.5,1.5-1.1,2.2-1.6
						c0.4,2.1,1.1,3.9,2.1,5.5c1.3,1.9,2.9,3.5,5,4.7c2,1.2,4.4,2.1,7.1,2.6c2.7,0.6,5.6,0.8,8.8,0.8c4.4,0,9-0.5,13.8-1.4
						c4.9-0.9,9.7-2.2,14.5-3.9s9.3-3.5,13.7-5.7c4.1-2,7.7-4.2,10.9-6.5c0.3,0.9,0.7,1.7,1,2.6c2.1,4.6,4.6,8.1,7.7,10.6
						c3.1,2.4,6.6,3.7,10.6,3.7c2,0,4.2-0.4,6.6-1.1c2.4-0.7,5.2-1.9,8.3-3.3c3.1-1.5,6.7-3.3,10.7-5.6c2.7-1.5,5.6-3.2,8.8-5
						c0.9,1.7,2,3.4,3.2,4.9c2.5,3.1,5.6,5.6,9.3,7.4c3.7,1.8,8.1,2.8,13,2.8c3.2,0,6.3-0.4,9.5-1.1c3.1-0.7,6.1-1.7,9-3
						c2.9-1.2,5.7-2.6,8.3-4.2c1.5-0.9,2.9-1.8,4.3-2.8c0,0.3,0,0.6,0.1,0.9c0.2,1.9,0.7,3.7,1.4,5.2c0.7,1.5,1.7,2.7,3.1,3.6
						c1.3,0.9,3.1,1.4,5.3,1.4c1.7,0,3.3-0.4,4.7-1.1c1.4-0.7,2.6-2.2,3.7-4.3c3.7-7.2,6.7-13.2,9-18.2c2.3-4.9,4.2-9,5.7-12.1
						c1.5-3.1,2.6-5.5,3.5-7.1c0.8-1.6,1.6-2.8,2.2-3.6h1.2c-0.9,4.9-1.6,9.5-2.2,13.8c-0.3,1.8-0.5,3.6-0.8,5.5
						c-0.3,1.8-0.5,3.6-0.7,5.2c-0.2,1.7-0.4,3.1-0.5,4.4c-0.1,1.3-0.2,2.3-0.2,3c0,1.6,0.1,3.3,0.3,5c0.2,1.7,0.6,3.3,1.1,4.7
						c0.6,1.4,1.3,2.6,2.4,3.5c1,0.9,2.4,1.4,4.1,1.4c2.2,0,4.2-0.4,5.9-1.1c1.7-0.8,3.2-2.3,4.6-4.5l16.2-41h1.2
						c-0.4,3.9-0.8,7.7-1,11.5c-0.2,3.8-0.4,7.4-0.4,10.7c0,3.5,0.2,6.7,0.5,9.7c0.3,3,0.9,5.5,1.7,7.7c0.8,2.2,1.8,3.9,3.2,5.1
						c1.3,1.2,2.9,1.8,4.8,1.8c3.9,0,7.4-0.5,10.4-1.5c3.1-1,5.9-2.3,8.5-3.9c1.8-1.1,3.5-2.3,5.1-3.5c0.7,1.1,1.5,2.1,2.3,3
						c1.9,2,4,3.5,6.4,4.5c2.4,1,4.9,1.6,7.5,1.6c2.4,0,4.8-0.4,7.2-1.2c2.4-0.8,4.7-1.8,7-3c2.2-1.2,4.3-2.6,6.2-4.1
						c0.5-0.4,0.9-0.8,1.4-1.1c1.7-1.5,4.3-1,5.4,1c1.2,2.2,2.6,4,4.1,5.4c2.4,2.2,5.3,3.4,8.8,3.4c2.9,0,5.8-0.7,8.8-2.2
						c2.9-1.5,5.7-3.2,8.2-5.3c2.6-2.1,4.9-4.3,6.9-6.6c1.5-1.7,2.9-3.3,3.9-4.7C1356.7,524.3,1356.9,523.2,1356.7,522.2z
						 M1074.4,443.9c1.1-4.5,2.4-8.7,3.7-12.5c1.3-3.8,2.7-6.9,4.1-9.3c1.4-2.4,2.8-3.6,4.2-3.6c1,0,1.8,0.2,2.4,0.6
						c0.6,0.4,1,1,1.2,1.6c0.3,0.6,0.4,1.3,0.5,2c0.1,0.7,0.1,1.4,0.1,1.9c0,1.7-0.5,3.8-1.4,6.5c-0.9,2.6-2.1,5.5-3.4,8.5
						c-1.4,3-2.9,6.1-4.7,9.2c-1.7,3.1-3.4,6-5,8.7c-0.9-0.1-1.7-0.1-2.5-0.2c-0.8-0.1-1.6-0.1-2.4-0.2
						C1072.2,452.8,1073.2,448.4,1074.4,443.9z M1011.6,523.6c-0.3,1.5-0.9,2.9-1.7,4c-0.8,1.2-1.9,2.1-3.2,2.8
						c-1.4,0.7-3.1,1-5.1,1c-1.7,0-3.2-0.4-4.5-1.2c-1.3-0.8-2.5-1.7-3.5-2.7c-1-1-1.9-1.9-2.7-2.7c-0.8-0.8-1.5-1.2-2.1-1.2
						l22.1-23.2c0.3,0.9,0.6,1.9,0.9,3.1c0.3,1.2,0.4,2.9,0.2,5.2c-0.2,2.2-0.3,4.1-0.1,5.6c0.2,1.5,0.3,3,0.3,4.4
						C1012.1,520.5,1011.9,522.1,1011.6,523.6z M1126.3,501.4c0.1-1.6,0.6-3.7,1.5-6.2c0.9-2.5,1.7-4.6,2.3-6.3
						c0.7-1.7,1.5-3.2,2.6-4.5c1.1-1.3,2.5-2.4,4.1-3.2c1.6-0.8,3.6-1.2,5.9-1.2c1.3,0,2.4,0.8,3.2,2.3c0.9,1.5,1.3,3.4,1.3,5.8
						c0,1.7-0.9,3.8-2.8,6.3c-1.9,2.5-3.8,4.6-5.7,6.1c-1.9,1.5-4.1,2.7-6.3,3.7c-2.3,1-4.4,1.4-6.3,1.4
						C1126.1,504.4,1126.1,503,1126.3,501.4z M1313.2,485.4l-4.7,20.3c-0.2,1.7-0.7,3.9-1.4,6.4c-0.7,2.6-1.7,5.1-2.8,7.5
						c-1.2,2.4-2.6,4.5-4.2,6.2c-1.6,1.7-3.4,2.6-5.4,2.6c-1.2,0-2.2-0.3-3-0.9c-0.8-0.6-1.4-1.5-1.9-2.5c-0.5-1-0.8-2.2-1-3.5
						c-0.2-1.3-0.3-2.6-0.3-4c0-2.3,0.3-4.8,0.9-7.4c0.6-2.6,1.7-5.7,3.2-9.2c1.5-3.5,3-6.4,4.5-8.8c1.5-2.4,3.2-4.5,5.1-6.3
						c1.8-1.8,3.8-3.3,5.9-4.4c0,0,0,0,0.1,0C1310.8,480,1313.9,482.5,1313.2,485.4z"/>
				</g>
				<linearGradient id="SVGID_59_" gradientUnits="userSpaceOnUse" x1="770.4257" y1="450.7337" x2="913.4471" y2="450.7337">
					<stop  offset="0" style="stop-color:#FFBF00"/>
					<stop  offset="0.3542" style="stop-color:#FFC300"/>
					<stop  offset="0.7295" style="stop-color:#FFD000"/>
					<stop  offset="1" style="stop-color:#FFDE00"/>
				</linearGradient>
				<path class="st60" d="M896.1,368.1c-5.2-3.8-11.1-6.7-17.8-8.8c-6.6-2.1-13.4-3.1-20.4-3.1c-10.9,0-20.5,1.3-28.6,4
					c-8.1,2.7-14.9,6.2-20.4,10.5c-5.4,4.3-9.5,9.2-12.2,14.7c-2.7,5.5-4,11-4,16.6c0,6,1.3,11.4,3.8,16.1c2.6,4.7,6,9,10.2,12.8
					c4.2,3.8,9,7.3,14.4,10.5c5.4,3.2,10.9,6.2,16.5,9.1c5.6,2.9,11.1,5.7,16.5,8.5c5.4,2.8,10.2,5.8,14.5,9
					c4.2,3.2,7.6,6.6,10.2,10.4c2.6,3.7,3.9,8,3.9,12.7c0,5.1-1.4,9.7-4.3,13.7c-2.9,4-6.6,7.3-11.2,10.1c-4.6,2.7-9.8,4.8-15.6,6.2
					c-5.8,1.4-11.6,2.1-17.4,2.1c-4.9,0-9.7-0.5-14.3-1.6c-4.6-1.1-8.7-2.7-12.2-4.9c-3.5-2.2-6.4-5-8.5-8.4
					c-2.1-3.4-3.2-7.4-3.2-12.1c0-2.1,0.1-4.1,0.4-5.9c0.3-1.8,0.5-3.5,0.8-5c0.3-1.5,0.6-2.9,0.8-4.2c0.3-1.3,0.4-2.5,0.4-3.6
					c0-2.5-0.7-4.3-2.2-5.5s-3.2-1.8-5.4-1.8c-2.1,0-4.3,0.5-6.7,1.7c-2.4,1.1-4.6,2.7-6.7,4.9c-2,2.2-3.7,4.9-5.1,8.1
					c-1.4,3.2-2.1,7-2.1,11.3c0,8.3,1.9,15.5,5.6,21.7c3.7,6.2,8.6,11.3,14.8,15.4c6.1,4.1,13.2,7.2,21,9.2c7.9,2,16,3.1,24.3,3.1
					c5.9,0,11.9-0.5,17.7-1.6c5.9-1,11.5-2.6,16.8-4.6c5.3-2,10.3-4.5,14.9-7.6c4.6-3.1,8.6-6.6,12-10.6c3.4-4,6-8.5,8-13.6
					c1.9-5,2.9-10.6,2.9-16.6c0-6.6-1.3-12.5-3.9-17.6c-2.6-5.1-6-9.7-10.2-13.8c-4.2-4.1-9-7.7-14.4-11c-5.4-3.2-10.9-6.3-16.5-9.1
					c-5.6-2.8-11.2-5.6-16.5-8.3c-5.4-2.7-10.2-5.5-14.4-8.5c-4.2-3-7.6-6.2-10.2-9.7c-2.6-3.5-3.9-7.4-3.9-11.8
					c0-2.6,0.7-5.2,2.2-7.9c1.4-2.7,3.6-5.1,6.6-7.3c3-2.2,6.7-3.9,11.1-5.3c4.4-1.4,9.7-2.1,15.7-2.1c5.4,0,10.4,0.4,15,1.3
					c4.6,0.9,8.5,2.2,11.7,3.9c3.2,1.7,5.8,3.9,7.6,6.4c1.8,2.6,2.8,5.5,2.8,8.9c0,2.2-0.4,4.6-1.3,7.1c-0.9,2.6-2.2,5.3-4,8.2
					c-2,3.1-3.3,5.8-4.1,8.1c-0.8,2.4-1.2,4.4-1.2,6.1c0,2.3,0.6,4.1,1.9,5.2c1.3,1.2,2.9,1.7,4.9,1.7c2.7,0,5.7-1,9-3.1
					c3.3-2,6.4-5.2,9.2-9.4c2.9-4.3,5-8.5,6.3-12.5c1.3-4,2-7.9,2-11.7c0-6.4-1.6-12.3-4.8-17.5
					C905.5,376.5,901.3,371.9,896.1,368.1z"/>
				<linearGradient id="SVGID_60_" gradientUnits="userSpaceOnUse" x1="942.1204" y1="435.4857" x2="971.3159" y2="435.4857">
					<stop  offset="0" style="stop-color:#FFBF00"/>
					<stop  offset="0.3542" style="stop-color:#FFC300"/>
					<stop  offset="0.7295" style="stop-color:#FFD000"/>
					<stop  offset="1" style="stop-color:#FFDE00"/>
				</linearGradient>
				<path class="st61" d="M955.8,448.3c2.7,0,5-0.4,7-1.2c1.9-0.8,3.5-1.9,4.8-3.3c1.3-1.3,2.2-2.9,2.8-4.6c0.6-1.7,0.9-3.5,0.9-5.3
					c0-2-0.4-3.7-1.1-5.2c-0.7-1.4-1.7-2.6-2.9-3.5c-1.2-0.9-2.7-1.5-4.3-2c-1.6-0.4-3.4-0.6-5.3-0.6c-3,0-5.5,0.5-7.5,1.4
					c-2,0.9-3.6,2.1-4.8,3.5c-1.2,1.4-2.1,2.8-2.6,4.4c-0.5,1.6-0.8,3-0.8,4.2c0,3.7,1.1,6.7,3.4,8.9
					C947.7,447.2,951.2,448.3,955.8,448.3z"/>
				<linearGradient id="SVGID_61_" gradientUnits="userSpaceOnUse" x1="926.725" y1="465.678" x2="1347.8759" y2="465.678">
					<stop  offset="0" style="stop-color:#FFBF00"/>
					<stop  offset="0.3542" style="stop-color:#FFC300"/>
					<stop  offset="0.7295" style="stop-color:#FFD000"/>
					<stop  offset="1" style="stop-color:#FFDE00"/>
				</linearGradient>
				<path class="st62" d="M1345.9,506.9c-0.6-2.9-4.4-3.8-6.3-1.5c-1.1,1.3-2.2,2.6-3.3,3.7c-1.1,1.2-2.3,2.4-3.5,3.5
					c-1.3,1.1-2.5,2.1-3.7,3c-1.3,0.9-2.5,1.6-3.7,2.2c-1.2,0.6-2.4,0.8-3.5,0.8c-1.5,0-2.5-0.7-2.9-2.1c-0.5-1.4-0.7-3.3-0.7-5.7
					c0-2.9,0.4-6.4,1.3-10.5c0.9-4.2,1.7-7.9,2.3-11.1c0.7-3.3,1.3-6.4,1.8-9.5c0.5-3.1,0.8-5.9,0.8-8.5c0-1.7-0.1-3-0.4-4
					c-0.3-1-0.7-1.7-1.2-2.3c-0.5-0.5-1.1-0.9-1.8-1c-0.7-0.2-1.4-0.2-2.2-0.2c-0.6,0-1.2,0-1.8,0c-0.6,0-1.2,0-1.8,0
					c-0.7,0-1.4,0-2-0.1c-0.7-0.1-1.3-0.3-2-0.5c-0.6-0.3-1.2-0.7-1.6-1.3c-0.4-0.6-0.9-1.2-1.3-1.8c-0.5-0.6-1-1.2-1.7-1.7
					c-0.7-0.5-1.7-0.7-2.9-0.7c-3.7,0-7.3,0.8-10.9,2.3c-3.6,1.6-6.9,3.7-10.2,6.3c-3.2,2.6-6.2,5.7-8.9,9.3s-5.2,7.8-7.6,12.6
					c-2.4,4.9-4.1,9.4-5.2,13.6c-1,3.9-1.6,7.7-1.7,11.4c-1.1,0.9-2.2,1.7-3.4,2.3c-1.3,0.8-2.5,1.4-3.7,1.9
					c-1.2,0.5-2.4,0.7-3.5,0.7c-1.1,0-2-0.9-2.7-2.7c-0.7-1.8-1.1-4.2-1.1-7.1c0-3.7,0.2-7.2,0.6-10.5s0.9-7,1.7-11
					c0.7-4,1.3-7.7,1.7-11c0.4-3.3,0.6-6.8,0.6-10.5c0-2.4-0.9-4.3-2.6-5.6c-1.7-1.3-3.8-2-6.3-2c-2.2,0-4.1,0.7-5.7,2.2
					c-1.5,1.5-3.1,3.3-4.6,5.4c-1.6,2.2-3.3,4.7-5.1,7.6c-1.8,2.9-3.6,5.7-5.2,8.3c-1.6,2.6-3.1,5.3-4.5,7.9
					c-1.4,2.7-2.1,4.1-2.2,4.2l-0.9-1c0-0.1,0-0.3,0.1-0.6c0.2-1,0.3-1.8,0.5-2.3c1-3.3,1.6-5.9,2-7.6c0.5-2,0.9-3.8,1.3-5.2
					c0.3-1.2,0.6-3.1,1-5.5c0.3-1.9,0.4-3.9,0.4-6c0-2.4-0.8-4.3-2.4-5.6c-1.6-1.3-3.5-2-5.7-2c-2.4,0-4.5,0.7-6.2,2.2
					c-1.7,1.4-3.4,3.3-4.9,5.5c-1.6,2.2-3.3,4.7-5,7.6c-1.8,2.9-3.4,5.6-4.9,8.3c-1.5,2.6-2.9,5.3-4.2,8c-1.3,2.7-2,4.1-2.1,4.3
					l-0.9-1c0.8-4.5,1.6-8.6,2.3-12.2c0.1-0.1,0.3-1.5,0.6-4.2c0.2-1.4,0.4-2.8,0.5-4.1c0.2-1.3,0.3-2.6,0.4-3.8
					c0.1-1.2,0.1-2.2,0.1-3.1c0-1.7-0.1-3-0.2-3.9c-0.1-1-0.4-1.7-1-2.2c-0.6-0.5-1.4-0.8-2.6-1c-1.1-0.1-2.7-0.2-4.7-0.2
					c-1.3,0-2.4,0.1-3.3,0.3c-0.9,0.2-1.6,0.6-2.2,1.1c-0.6,0.6-1.2,1.4-1.6,2.4c-0.5,1-1,2.4-1.5,4.1c-0.5,1.7-1.1,3.8-1.8,6.4
					c-0.6,2.6-1.3,5.5-1.9,8.7c-0.6,3.2-1.3,6.9-2.2,11.1c-0.8,4.3-1.4,8-1.9,11.4c-0.1,0.8-0.2,1.5-0.3,2.3
					c-0.3,0.2-0.5,0.4-0.8,0.6c-3,2.2-6.1,4.3-9.5,6.1c-3.3,1.9-6.8,3.4-10.3,4.7c-3.5,1.2-6.9,1.9-10.1,1.9c-1,0-2-0.1-2.8-0.3
					c-0.9-0.2-1.7-0.6-2.5-1.1c-0.8-0.5-1.6-1.2-2.4-2.2c-0.8-0.9-1.6-2.1-2.4-3.5c4.6-1.2,8.9-3,12.9-5.2c4-2.2,7.4-4.8,10.3-7.6
					c2.9-2.9,5.4-6.3,7.6-10.3c2.2-4,3.2-7.6,3.2-10.8c0-3-0.5-5.8-1.6-8.2c-1.1-2.4-2.5-4.5-4.4-6.3c-1.9-1.7-4.1-3.1-6.7-4
					c-2.6-1-5.3-1.4-8.3-1.4c-3.6,0-7,0.6-10,1.9c-3,1.3-5.7,3-8.1,5.2c-2.4,2.2-4.5,4.7-6.3,7.6c-1.8,2.9-3.3,5.9-4.5,9
					c-1.2,3.2-2.3,6.8-3.5,10.8c-1.1,4.1-1.7,7.6-1.7,10.5c0,1.2,0.1,2.4,0.2,3.6c-0.8,0.6-1.7,1.3-2.5,1.9
					c-2.2,1.5-4.3,2.9-6.5,4.2c-2.2,1.3-4.3,2.4-6.3,3.3c-2,0.9-3.8,1.7-5.5,2.2c-1.7,0.5-3.1,0.8-4.2,0.8c-1.8,0-3.5-0.3-4.9-0.8
					c-1.5-0.6-2.7-1.5-3.7-2.7c-1-1.2-1.8-2.9-2.3-4.8c-0.5-2-0.8-4.4-0.8-7.3c0-1.1,0-2.3,0-3.7c0-1.3,0.1-2.7,0.1-4.1
					c0.1-1.4,0.1-2.9,0.2-4.3c0.1-1.5,0.1-2.9,0.2-4.3c0.2-3.2,0.3-6.4,0.6-9.7c1.3-1.6,2.8-3.5,4.4-5.5c1.6-2,3.1-4.1,4.7-6.3h30.7
					c1.3,0,2.4-0.6,3.5-1.9c1.1-1.2,1.6-2.9,1.6-4.9c0-1.7-0.2-3.1-0.7-4.3c-0.5-1.1-1.3-1.7-2.3-1.8c-0.9-0.1-2-0.1-3.4-0.2
					c-1.4-0.1-2.9-0.1-4.5-0.2c-1.6-0.1-3.2-0.1-4.9-0.1c-1.7,0-3.3-0.1-4.7-0.1c-1.5,0-2.8-0.1-3.9-0.2c-1.1-0.1-1.9-0.1-2.4,0.1
					c1.9-3,3.7-6,5.5-9c1.7-3,3.2-6,4.5-8.9c1.3-2.9,2.3-5.8,3-8.7c0.7-2.8,1.1-5.5,1.1-8.1c0-3.1-0.4-6-1.1-8.9
					c-0.7-2.8-1.7-5.3-3.1-7.5c-1.3-2.1-2.9-3.8-4.8-5.1c-1.9-1.3-4-1.9-6.3-1.9c-3.6,0-7,1.6-10.2,4.7c-3.2,3.2-6.2,7.3-9,12.6
					c-2.7,5.2-5.2,11.2-7.4,17.9c-2.2,6.7-4,13.6-5.5,20.8c-0.5,0.1-1.5,0.1-2.9,0.1c-1.4,0-3-0.1-4.8-0.1c-1.8-0.1-3.7-0.1-5.6,0
					c-2,0-3.7,0.2-5.4,0.4c-1.6,0.2-3,0.6-4,1c-1,0.4-1.6,1.1-1.6,1.9c0,0.5,0,1.2,0.1,1.9c0.1,0.7,0.2,1.4,0.6,2.1
					c0.3,0.7,0.8,1.3,1.5,1.8c0.7,0.5,1.7,0.8,3,1c2.9,0.4,5.1,0.7,6.6,0.9c1.5,0.2,2.8,0.5,3.8,0.7c1,0.2,1.9,0.4,2.8,0.6
					c0.9,0.2,2.1,0.4,3.7,0.7c-0.5,3.6-0.8,7.2-1.1,10.8c-0.3,3.6-0.4,7-0.4,10.2c0,7.6,0.5,14.5,1.4,20.8c-1.1,0.7-2.2,1.4-3.3,2
					c-2.5,1.4-5,2.6-7.4,3.7c-2.4,1.1-4.7,2.2-6.9,3.3c-2.2,1-4.3,2.2-6.2,3.5c0-3.4,0.1-6.9,0.4-10.2c0.3-3.4,0.2-6-0.2-8
					c-0.4-1.9-0.8-3.6-1.2-5.1c-0.4-1.5-0.9-2.9-1.3-4.2c-0.4-1.3-0.7-2.7-1-4c-0.2-1.4-0.4-2.9-0.4-4.6c0.2-0.6,0.8-1.5,1.9-2.7
					c1.1-1.2,2.2-2.5,3.5-4c1.2-1.5,2.3-3,3.4-4.5c1-1.6,1.5-3,1.5-4.3c0-0.6-0.1-1.4-0.2-2.3c-0.1-0.9-0.5-1.7-1.1-2.5
					c-0.6-0.8-1.7-1.5-3-2.1c-1.4-0.6-3.4-0.8-5.9-0.8c-1.5,0-2.9,0.2-4.2,0.7c-1.2,0.5-2.4,1-3.4,1.8c-1,0.7-2,1.5-2.8,2.5
					c-0.9,0.9-1.6,1.9-2.3,2.8c-3.4,4.3-6.2,7.9-8.3,10.8c-2.1,2.9-3.9,5.3-5.4,7.3c-1.5,2-2.8,3.7-3.9,5.2
					c-1.1,1.5-2.6,3.3-4.4,5.6c-1.9,2.3-3.7,4.3-5.6,6c-1.9,1.7-4.3,3.9-7.3,6.4c-0.4,0.4-1.1,0.9-1.9,1.5c-0.9,0.6-1.7,1.4-2.6,2.3
					c-0.9,0.9-1.6,1.8-2.2,2.9c-0.5,0.9-0.8,1.9-0.9,3c-1.6,1.1-3.2,2.2-4.7,3.1c-2.3,1.3-4.5,2-6.4,2c-1.6,0-2.7-0.7-3.3-2.1
					c-0.5-1.4-0.8-3.3-0.8-5.7c0-2.4,0.4-5.2,1.1-8.2c0.8-3,1.4-6,1.9-9c0.5-3,1.4-6.7,2.8-11c1.4-4.3,2.4-7.8,3.1-10.5
					c0.7-2.7,1.3-5.2,1.9-7.3c0.5-2.1,0.8-3.8,0.8-5c0-1.4-0.4-2.5-1.2-3.3c-0.8-0.8-2.3-1.2-4.5-1.2c-1.2,0-2.5,0.1-4,0.4
					c-1.5,0.3-2.9,0.8-4.3,1.4c-1.4,0.6-2.6,1.4-3.7,2.4c-1.2,1.1-1.9,2.3-2.2,3.6c-0.5,1.9-1.7,6.1-3.7,12.4
					c-2.2,7.8-3.6,12.8-4.3,15.1c-0.4,1.1-1.4,6.3-3,15.6c-0.7,4.5-1.1,8.4-1.1,11.7c0,2.4,0.3,4.6,0.8,6.6c0.5,2,1.3,3.7,2.5,5.1
					c1.2,1.4,2.7,2.5,4.6,3.2c1.9,0.8,4.2,1.2,7,1.2c3.1,0,6.3-0.6,9.8-1.7c3.4-1.1,6.8-2.5,10.1-4.2c3.3-1.7,6.4-3.5,9.2-5.5
					c0.8-0.5,1.5-1.1,2.2-1.6c0.4,2.1,1.1,3.9,2.1,5.5c1.3,1.9,2.9,3.5,5,4.7c2,1.2,4.4,2.1,7.1,2.6c2.7,0.6,5.6,0.8,8.8,0.8
					c4.4,0,9-0.5,13.8-1.4c4.9-0.9,9.7-2.2,14.5-3.9c4.8-1.6,9.3-3.5,13.7-5.7c4.1-2,7.7-4.2,10.9-6.5c0.3,0.9,0.7,1.7,1,2.6
					c2.1,4.6,4.6,8.1,7.7,10.6c3.1,2.4,6.6,3.7,10.6,3.7c2,0,4.2-0.4,6.6-1.1c2.4-0.7,5.2-1.9,8.3-3.3c3.1-1.5,6.7-3.3,10.7-5.6
					c2.7-1.5,5.6-3.2,8.8-5c0.9,1.7,2,3.4,3.2,4.9c2.5,3.1,5.6,5.6,9.3,7.4c3.7,1.8,8.1,2.8,13,2.8c3.2,0,6.3-0.4,9.5-1.1
					c3.1-0.7,6.1-1.7,9-3c2.9-1.2,5.7-2.6,8.3-4.2c1.5-0.9,2.9-1.8,4.3-2.8c0,0.3,0,0.6,0.1,0.9c0.2,1.9,0.7,3.7,1.4,5.2
					c0.7,1.5,1.7,2.7,3.1,3.6c1.3,0.9,3.1,1.4,5.3,1.4c1.7,0,3.3-0.4,4.7-1.1c1.4-0.7,2.6-2.2,3.7-4.3c3.7-7.2,6.7-13.2,9-18.2
					c2.3-4.9,4.2-9,5.7-12.1c1.5-3.1,2.6-5.5,3.5-7.1c0.8-1.6,1.6-2.8,2.2-3.6h1.2c-0.9,4.9-1.6,9.5-2.2,13.8
					c-0.3,1.8-0.5,3.6-0.8,5.5c-0.3,1.8-0.5,3.6-0.7,5.2c-0.2,1.7-0.4,3.1-0.5,4.4c-0.1,1.3-0.2,2.3-0.2,3c0,1.6,0.1,3.3,0.3,5
					c0.2,1.7,0.6,3.3,1.1,4.7c0.6,1.4,1.3,2.6,2.4,3.5c1,0.9,2.4,1.4,4.1,1.4c2.2,0,4.2-0.4,5.9-1.1c1.7-0.8,3.2-2.3,4.6-4.5
					l16.2-41h1.2c-0.4,3.9-0.8,7.7-1,11.5c-0.2,3.8-0.4,7.4-0.4,10.7c0,3.5,0.2,6.7,0.5,9.7c0.3,3,0.9,5.5,1.7,7.7
					c0.8,2.2,1.8,3.9,3.2,5.1c1.3,1.2,2.9,1.8,4.8,1.8c3.9,0,7.4-0.5,10.4-1.5c3.1-1,5.9-2.3,8.5-3.9c1.8-1.1,3.5-2.3,5.1-3.5
					c0.7,1.1,1.5,2.1,2.3,3c1.9,2,4,3.5,6.4,4.5c2.4,1,4.9,1.6,7.5,1.6c2.4,0,4.8-0.4,7.2-1.2c2.4-0.8,4.7-1.8,7-3
					c2.2-1.2,4.3-2.6,6.1-4.1c0.5-0.4,0.9-0.8,1.4-1.1c1.7-1.5,4.3-1,5.4,1c1.2,2.2,2.6,4,4.1,5.4c2.4,2.2,5.3,3.4,8.8,3.4
					c2.9,0,5.8-0.7,8.8-2.2c2.9-1.5,5.7-3.2,8.2-5.3c2.6-2.1,4.9-4.3,6.9-6.6c1.5-1.7,2.9-3.3,3.9-4.7c0.6-0.8,0.8-1.9,0.6-2.9
					L1345.9,506.9z M1065.5,437.1c1.1-4.5,2.4-8.7,3.7-12.5c1.3-3.8,2.7-6.9,4.1-9.3c1.4-2.4,2.8-3.6,4.2-3.6c1,0,1.8,0.2,2.4,0.6
					c0.6,0.4,1,1,1.2,1.6c0.3,0.6,0.4,1.3,0.5,2c0.1,0.7,0.1,1.4,0.1,1.9c0,1.7-0.5,3.8-1.4,6.5c-0.9,2.6-2.1,5.5-3.4,8.5
					c-1.4,3-2.9,6.1-4.7,9.2c-1.7,3.1-3.4,6-5,8.7c-0.9-0.1-1.7-0.1-2.5-0.2c-0.8-0.1-1.6-0.1-2.4-0.2
					C1063.3,446.1,1064.4,441.7,1065.5,437.1z M1002.7,516.9c-0.3,1.5-0.9,2.9-1.7,4c-0.8,1.2-1.9,2.1-3.2,2.8c-1.4,0.7-3.1,1-5.1,1
					c-1.7,0-3.2-0.4-4.5-1.2c-1.3-0.8-2.5-1.7-3.5-2.7c-1-1-1.9-1.9-2.7-2.7c-0.8-0.8-1.5-1.2-2.1-1.2l22.1-23.2
					c0.3,0.9,0.6,1.9,0.9,3.1c0.3,1.2,0.4,2.9,0.2,5.2c-0.2,2.2-0.3,4.1-0.1,5.6c0.2,1.5,0.3,3,0.3,4.4
					C1003.2,513.8,1003.1,515.4,1002.7,516.9z M1117.4,494.7c0.1-1.6,0.6-3.7,1.5-6.2c0.9-2.5,1.7-4.6,2.3-6.3
					c0.7-1.7,1.5-3.2,2.6-4.5c1.1-1.3,2.5-2.4,4.1-3.2c1.6-0.8,3.6-1.2,5.9-1.2c1.3,0,2.4,0.8,3.2,2.3c0.9,1.5,1.3,3.4,1.3,5.8
					c0,1.7-0.9,3.8-2.8,6.3c-1.9,2.5-3.8,4.6-5.7,6.1c-1.9,1.5-4.1,2.7-6.3,3.7c-2.3,1-4.4,1.4-6.3,1.4
					C1117.2,497.7,1117.3,496.3,1117.4,494.7z M1304.3,478.7l-4.7,20.3c-0.2,1.7-0.7,3.9-1.4,6.4c-0.7,2.6-1.7,5.1-2.8,7.5
					c-1.2,2.4-2.6,4.5-4.2,6.2c-1.6,1.7-3.4,2.6-5.4,2.6c-1.2,0-2.2-0.3-3-0.9c-0.8-0.6-1.4-1.5-1.9-2.5c-0.5-1-0.8-2.2-1-3.5
					c-0.2-1.3-0.3-2.6-0.3-4c0-2.3,0.3-4.8,0.9-7.4c0.6-2.6,1.7-5.7,3.2-9.2c1.5-3.5,3-6.4,4.5-8.8c1.5-2.4,3.2-4.5,5.1-6.3
					c1.8-1.8,3.8-3.3,5.9-4.4c0,0,0,0,0.1,0C1302,473.3,1305,475.8,1304.3,478.7z"/>
				<g class="st24">
					<linearGradient id="SVGID_62_" gradientUnits="userSpaceOnUse" x1="812.3509" y1="444.351" x2="887.0074" y2="444.351">
						<stop  offset="0" style="stop-color:#FFFFFF"/>
						<stop  offset="1" style="stop-color:#FFFFFF;stop-opacity:0"/>
					</linearGradient>
					<path class="st63" d="M879.9,448.4c-5.4-3.2-10.9-6.3-16.5-9.1c-5.6-2.8-11.2-5.6-16.5-8.3c-5.4-2.7-10.2-5.5-14.4-8.5
						c-2.9-2-5.3-4.1-7.4-6.4l-12.7,19.1c2.8,2.1,5.7,4.1,8.9,5.9c5.4,3.2,10.9,6.2,16.5,9.1c5.6,2.9,11.1,5.7,16.5,8.5
						c5.4,2.8,10.2,5.8,14.5,9c2,1.5,3.8,3.1,5.5,4.7l12.8-19.3C884.8,451.5,882.4,449.9,879.9,448.4z"/>
					<linearGradient id="SVGID_63_" gradientUnits="userSpaceOnUse" x1="770.5477" y1="507.3488" x2="840.8913" y2="507.3488">
						<stop  offset="0" style="stop-color:#FFFFFF"/>
						<stop  offset="1" style="stop-color:#FFFFFF;stop-opacity:0"/>
					</linearGradient>
					<path class="st64" d="M834.2,522.8c-4.9,0-9.7-0.5-14.3-1.6c-4.6-1.1-8.7-2.7-12.2-4.9c-3.5-2.2-6.4-5-8.5-8.4
						c-2.1-3.4-3.2-7.4-3.2-12.1c0-2.1,0.1-4.1,0.4-5.9c0.3-1.8,0.5-3.5,0.8-5c0.3-1.5,0.6-2.9,0.8-4.2c0.3-1.3,0.4-2.5,0.4-3.6
						c0-2.5-0.7-4.3-2.2-5.5s-3.2-1.8-5.4-1.8c-0.6,0-1.2,0.1-1.8,0.1L770.5,498c0.3,7.4,2.1,13.9,5.4,19.6
						c3.7,6.2,8.6,11.3,14.8,15.4c6.1,4.1,13.2,7.2,21,9.2c4.7,1.2,9.5,2,14.3,2.5l14.8-22.2C838.7,522.7,836.4,522.8,834.2,522.8z"
						/>
					<linearGradient id="SVGID_64_" gradientUnits="userSpaceOnUse" x1="850.0536" y1="396.2419" x2="913.4471" y2="396.2419">
						<stop  offset="0" style="stop-color:#FFFFFF"/>
						<stop  offset="1" style="stop-color:#FFFFFF;stop-opacity:0"/>
					</linearGradient>
					<path class="st65" d="M854,378.6c5.4,0,10.4,0.4,15,1.3c4.6,0.9,8.5,2.2,11.7,3.9c3.2,1.7,5.8,3.9,7.6,6.4
						c1.8,2.6,2.8,5.5,2.8,8.9c0,2.2-0.4,4.6-1.3,7.1c-0.9,2.6-2.2,5.3-4,8.2c-2,3.1-3.3,5.8-4.1,8.1c-0.8,2.4-1.2,4.4-1.2,6.1
						c0,2.3,0.6,4.1,1.9,5.2c1.3,1.2,2.9,1.7,4.9,1.7c2.7,0,5.7-1,9-3.1c3.3-2,6.4-5.2,9.2-9.4c2.9-4.3,5-8.5,6.3-12.5
						c1.3-4,2-7.9,2-11.7c0-6.4-1.6-12.3-4.8-17.5c-3.2-5.3-7.4-9.8-12.6-13.6c-5.2-3.8-11.1-6.7-17.8-8.8
						c-4.4-1.4-8.9-2.3-13.5-2.7l-14.8,22.2C851.3,378.7,852.6,378.6,854,378.6z"/>
				</g>
				<g class="st24">
					<linearGradient id="SVGID_65_" gradientUnits="userSpaceOnUse" x1="929.8792" y1="497.2271" x2="1027.5825" y2="497.2271">
						<stop  offset="0" style="stop-color:#FFFFFF"/>
						<stop  offset="1" style="stop-color:#FFFFFF;stop-opacity:0"/>
					</linearGradient>
					<path class="st66" d="M1027.6,463.1c-0.1-0.9-0.5-1.7-1.1-2.5c-0.6-0.8-1.7-1.5-3-2.1c-1.4-0.6-3.4-0.8-5.9-0.8
						c-1.5,0-2.9,0.2-4.2,0.7c-1.2,0.5-2.4,1-3.4,1.8c-1,0.7-2,1.5-2.8,2.5c-0.9,0.9-1.6,1.9-2.3,2.8c-3.4,4.3-6.2,7.9-8.3,10.8
						c-2.1,2.9-3.9,5.3-5.4,7.3c-1.5,2-2.8,3.7-3.9,5.2c-1.1,1.5-2.6,3.3-4.4,5.6c-1.9,2.3-3.7,4.3-5.6,6c-1.9,1.7-4.3,3.9-7.3,6.4
						c-0.4,0.4-1.1,0.9-1.9,1.5c-0.9,0.6-1.7,1.4-2.6,2.3c-0.9,0.9-1.6,1.8-2.2,2.9c-0.5,0.9-0.8,1.9-0.9,3
						c-1.6,1.1-3.2,2.2-4.7,3.1c-2.3,1.3-4.5,2-6.4,2c-1.6,0-2.7-0.7-3.3-2.1c-0.5-1.4-0.8-3.3-0.8-5.7c0-1.8,0.2-3.6,0.6-5.7
						l-17.9,24.2c0,0.1,0.1,0.1,0.1,0.2c1.2,1.4,2.7,2.5,4.6,3.2c1.9,0.8,4.2,1.2,7,1.2c3.1,0,6.3-0.6,9.8-1.7
						c3.4-1.1,6.8-2.5,10.1-4.2c3.3-1.7,6.4-3.5,9.2-5.5c0.8-0.5,1.5-1.1,2.2-1.6c0.4,2.1,1.1,3.9,2.1,5.5c0.8,1.2,1.7,2.2,2.7,3
						l7.8-10.8c-0.3-0.2-0.6-0.5-0.8-0.7c-1-1-1.9-1.9-2.7-2.7c-0.8-0.8-1.5-1.2-2.1-1.2l22.1-23.2c0.3,0.9,0.6,1.9,0.9,3.1
						c0,0.1,0.1,0.3,0.1,0.4l24.6-34.1C1027.6,463.2,1027.6,463.1,1027.6,463.1z"/>
					<linearGradient id="SVGID_66_" gradientUnits="userSpaceOnUse" x1="1053.0801" y1="410.9327" x2="1077.5587" y2="410.9327">
						<stop  offset="0" style="stop-color:#FFFFFF"/>
						<stop  offset="1" style="stop-color:#FFFFFF;stop-opacity:0"/>
					</linearGradient>
					<path class="st67" d="M1077.6,394c-3,0.4-5.8,1.9-8.5,4.6c-3.2,3.2-6.2,7.3-9,12.6c-2.6,4.9-4.9,10.5-7,16.7L1077.6,394z"/>
					<linearGradient id="SVGID_67_" gradientUnits="userSpaceOnUse" x1="1022.9256" y1="454.9702" x2="1037.2407" y2="454.9702">
						<stop  offset="0" style="stop-color:#FFFFFF"/>
						<stop  offset="1" style="stop-color:#FFFFFF;stop-opacity:0"/>
					</linearGradient>
					<path class="st68" d="M1028.5,450.2c-1.6,0.2-3,0.6-4,1c-1,0.4-1.6,1.1-1.6,1.9c0,0.5,0,1.2,0.1,1.9c0.1,0.7,0.2,1.4,0.6,2.1
						c0.3,0.7,0.8,1.3,1.5,1.8c0.7,0.5,1.7,0.8,3,1c0.6,0.1,1.2,0.1,1.7,0.2l7.4-10.3c-1.1,0-2.2,0-3.4,0
						C1031.9,449.8,1030.1,450,1028.5,450.2z"/>
				</g>
				<g class="st24">
					<linearGradient id="SVGID_68_" gradientUnits="userSpaceOnUse" x1="1090.3386" y1="499.4103" x2="1153.0302" y2="499.4103">
						<stop  offset="0" style="stop-color:#FFFFFF"/>
						<stop  offset="1" style="stop-color:#FFFFFF;stop-opacity:0"/>
					</linearGradient>
					<path class="st69" d="M1149.6,512.4c-3.3,1.9-6.8,3.4-10.3,4.7c-3.5,1.2-6.9,1.9-10.1,1.9c-1,0-2-0.1-2.8-0.3
						c-0.9-0.2-1.7-0.6-2.5-1.1c-0.8-0.5-1.6-1.2-2.4-2.2c-0.8-0.9-1.6-2.1-2.4-3.5c4.6-1.2,8.9-3,12.9-5.2c4-2.2,7.4-4.8,10.3-7.6
						c2.9-2.9,5.4-6.3,7.6-10.3c2.2-4,3.2-7.6,3.2-10.8c0-3-0.5-5.8-1.6-8.2c-1.1-2.4-2.5-4.5-4.4-6.3c-0.5-0.5-1.1-0.9-1.6-1.3
						l-9.8,11.8c0.5,0.4,1,0.9,1.4,1.7c0.9,1.5,1.3,3.4,1.3,5.8c0,1.7-0.9,3.8-2.8,6.3c-1.9,2.5-3.8,4.6-5.7,6.1
						c-1.9,1.5-4.1,2.7-6.3,3.7c-2.3,1-4.4,1.4-6.3,1.4c0-0.8,0-1.8,0.1-2.9l-27,32.6c1.1-0.6,2.1-1.2,3.2-1.8
						c2.7-1.5,5.6-3.2,8.8-5c0.9,1.7,2,3.4,3.2,4.9c2.5,3.1,5.6,5.6,9.3,7.4c3.7,1.8,8.1,2.8,13,2.8c1.6,0,3.1-0.1,4.7-0.3
						l19.8-25.8C1151.4,511.3,1150.5,511.8,1149.6,512.4z"/>
					<linearGradient id="SVGID_69_" gradientUnits="userSpaceOnUse" x1="1160.6263" y1="478.8439" x2="1184.8578" y2="478.8439">
						<stop  offset="0" style="stop-color:#FFFFFF"/>
						<stop  offset="1" style="stop-color:#FFFFFF;stop-opacity:0"/>
					</linearGradient>
					<path class="st70" d="M1184.7,468.3c0.1-1.2,0.1-2.2,0.1-3.1c0-1.7-0.1-3-0.2-3.9c-0.1-1-0.4-1.7-1-2.2c-0.6-0.5-1.4-0.8-2.6-1
						c-1.1-0.1-2.7-0.2-4.7-0.2c-1.3,0-2.4,0.1-3.3,0.3c-0.9,0.2-1.6,0.6-2.2,1.1c-0.6,0.6-1.2,1.4-1.6,2.4c-0.5,1-1,2.4-1.5,4.1
						c-0.5,1.7-1.1,3.8-1.8,6.4c-0.6,2.6-1.3,5.5-1.9,8.7c-0.6,3.2-1.3,6.9-2.2,11.1c-0.6,2.8-1,5.5-1.4,7.9l24.1-31.4
						C1184.7,468.4,1184.7,468.3,1184.7,468.3z"/>
				</g>
				<g class="st24">
					<linearGradient id="SVGID_70_" gradientUnits="userSpaceOnUse" x1="1228.8101" y1="500.5716" x2="1249.2571" y2="500.5716">
						<stop  offset="0" style="stop-color:#FFFFFF"/>
						<stop  offset="1" style="stop-color:#FFFFFF;stop-opacity:0"/>
					</linearGradient>
					<path class="st71" d="M1244.8,508.5c0-3.7,0.2-7.2,0.6-10.5s0.9-7,1.7-11c0.7-4,1.3-7.7,1.7-11c0.3-2.7,0.4-5.5,0.5-8.5
						l-19.7,29.5c-0.1,1.6-0.3,3.1-0.4,4.7c-0.2,3.8-0.4,7.4-0.4,10.7c0,3.5,0.2,6.7,0.5,9.7c0.3,3,0.9,5.5,1.7,7.7
						c0.5,1.5,1.2,2.8,2,3.8l12.4-19.6C1245.1,512.5,1244.8,510.6,1244.8,508.5z"/>
					<linearGradient id="SVGID_71_" gradientUnits="userSpaceOnUse" x1="1202.8864" y1="522.7601" x2="1221.6327" y2="522.7601">
						<stop  offset="0" style="stop-color:#FFFFFF"/>
						<stop  offset="1" style="stop-color:#FFFFFF;stop-opacity:0"/>
					</linearGradient>
					<path class="st72" d="M1202.9,536.8c2-0.1,3.7-0.4,5.3-1.1c1.7-0.8,3.2-2.3,4.6-4.5l8.9-22.4L1202.9,536.8z"/>
				</g>
			</g>
			<g>
				<g>
					<linearGradient id="SVGID_72_" gradientUnits="userSpaceOnUse" x1="1454.4546" y1="542.471" x2="1454.4546" y2="414.2552">
						<stop  offset="2.739730e-002" style="stop-color:#004252"/>
						<stop  offset="0.2371" style="stop-color:#004A5C"/>
						<stop  offset="0.6296" style="stop-color:#005569"/>
						<stop  offset="1" style="stop-color:#00586D"/>
					</linearGradient>
					<path class="st73" d="M1523.3,518.5l-4.9-5c-1-1-2.6-1.1-3.7-0.2c-1.3,1.1-2.8,2.3-4.5,3.5c-2.5,1.8-5.1,3.6-7.9,5.1
						c-2.8,1.6-5.7,2.9-8.6,3.9c-3,1-5.8,1.6-8.4,1.6c-0.8,0-1.6-0.1-2.4-0.3c-0.7-0.2-1.4-0.5-2.1-0.9c-0.7-0.4-1.3-1-2-1.8
						c-0.6-0.8-1.3-1.8-2-2.9c3.9-1,7.5-2.5,10.8-4.4c3.3-1.9,6.2-4,8.6-6.4c2.4-2.4,4.5-5.3,6.3-8.6c1.8-3.4,2.7-6.4,2.7-9.1
						c0-2.5-0.4-4.8-1.3-6.9c-0.9-2-2.1-3.8-3.7-5.2c-1.6-1.4-3.4-2.6-5.6-3.4c-2.1-0.8-4.5-1.2-7-1.2c-3.1,0-5.8,0.5-8.3,1.6
						c-2.5,1.1-4.8,2.5-6.8,4.3c-2,1.8-3.8,3.9-5.3,6.3c-1.5,2.4-2.8,4.9-3.8,7.5c-1,2.6-2,5.7-2.9,9.1c-0.9,3.4-1.4,6.3-1.4,8.8
						c0,1.3,0.1,2.6,0.2,3.9c-1.2,1-2.4,1.9-3.6,2.8c-1.1,0.8-2.2,1.5-3.3,2.3c-1.1,0.7-2.3,1.4-3.4,2c-1.1,0.6-2.2,1-3.2,1.4
						c-1,0.3-1.9,0.5-2.8,0.5c-0.9,0-1.6-0.3-2.2-0.8c-0.6-0.5-1.1-1.3-1.4-2.2c-0.3-0.9-0.6-2-0.7-3.1c-0.2-1.2-0.2-2.4-0.2-3.7
						c0-1,0.1-2.1,0.2-3.2c0.1-1.1,0.3-2.2,0.5-3.2c0.2-1.1,0.4-2,0.7-2.9c0.2-0.9,0.5-1.7,0.7-2.3c1.1-2.9,3.5-8.4,7.4-16.4
						c2.5-5.3,4.7-10.6,6.5-16c1.8-5.4,3.6-10.8,5.5-16.3c1.8-5.5,2.8-11.5,3-17.8c0-1.7,0-3.3,0-4.9c0-2.5-0.2-5-0.6-7.4
						c-0.4-2.4-1.1-4.5-2-6.3c-0.9-1.8-2.1-3.3-3.6-4.3c-1.5-1.1-3.3-1.6-5.3-1.6c-2.9,0-5.6,0.9-8.3,2.6c-2.7,1.8-5.2,4.2-7.6,7.3
						c-2.4,3.1-4.6,6.8-6.5,11.1c-2,4.3-3.6,8.9-4.9,14c-1.3,5.1-2.4,9.8-3.5,14.2c-1.1,4.4-1.7,9.5-1.8,15.3
						c-3.4,0.3-6.6,1.1-9.5,2.4c-3,1.3-5.9,3.1-8.7,5.6c-2.8,2.5-5.1,5.2-6.8,8.3c-1.7,3-3.3,5.9-4.7,8.7c-1.4,2.8-2.5,5.6-3.2,8.6
						c-0.7,3-1.1,5.9-1.1,8.8c0,2.7,0.3,5.3,1,7.9c0.7,2.5,1.7,4.8,3.1,6.8c1.4,2,3.2,3.6,5.3,4.8c2.1,1.2,4.6,1.8,7.5,1.8
						c2.1,0,4.1-0.3,6.1-1c2-0.7,4-1.6,6-2.7c2-1.1,3.9-2.5,5.8-4c1.9-1.5,3.6-3.2,5.3-4.9c1.1,2.7,2.4,4.9,3.9,6.6
						c1.5,1.7,3,2.9,4.4,3.8c1.5,0.9,2.8,1.5,4.1,1.7c1.3,0.3,2.2,0.4,2.8,0.4c1.1,0,2.3-0.2,3.6-0.6c1.3-0.4,2.6-0.9,4-1.6
						c1.4-0.6,2.8-1.4,4.2-2.2c1.4-0.8,2.8-1.7,4.1-2.5c2.3-1.5,4.6-3.3,7-5.1c0.7,1.2,1.4,2.4,2.3,3.5c2.1,2.6,4.7,4.7,7.8,6.2
						c3.1,1.5,6.8,2.3,10.9,2.3c2.7,0,5.3-0.3,7.9-0.9c2.6-0.6,5.1-1.4,7.5-2.5c2.4-1,4.7-2.2,6.9-3.5s4.3-2.7,6.2-4.1
						c3.7-2.7,7.2-5.7,10.6-9.1C1524.4,521.3,1524.3,519.5,1523.3,518.5z M1416.8,521.4c-0.5,0.8-1.1,1.6-1.8,2.3
						c-0.6,0.7-1.3,1.4-2,2c-0.7,0.6-1.5,1-2.2,1.4c-0.8,0.4-1.6,0.5-2.4,0.5c-1.6,0-2.8-0.2-3.8-0.5c-1-0.3-1.7-0.8-2.3-1.4
						c-0.5-0.6-0.9-1.2-1.1-1.9c-0.2-0.7-0.3-1.4-0.3-2.1c0-2.2,0.4-4.8,1.2-7.5c0.8-2.8,2-6.1,3.5-10c1.5-3.9,3.4-7,5.7-9.3
						c2.3-2.4,4.9-4.3,7.8-5.7c0,0,0.1,0.4,0.1,1.3c0,0.9,0.1,2.2,0.1,3.6c0,1.5,0.1,3.1,0.1,4.9c0,1.8,0.1,4.1,0.1,6.9
						c0,2.8,0.1,4.9,0.2,6.3c0.1,1.4,0.2,2.4,0.3,3C1419.1,517.5,1418,519.5,1416.8,521.4z M1435.4,492.7V492c0-0.7,0-1.6,0-2.9
						c0-1.3,0-2.7,0.1-4.4c0-1.7,0.1-3.6,0.3-5.6c0.1-2.1,0.3-4.2,0.5-6.4c0.1-1.1,0.3-2.9,0.5-5.5c0.2-2.6,0.5-5.5,0.9-8.7
						c0.4-3.2,1-6.5,1.8-9.8c0.8-3.3,1.6-6.4,2.3-9.3c0.7-2.8,1.7-5.2,2.8-7c1.2-1.8,2.5-2.7,3.9-2.7c0.8,0,1.4,0.5,1.9,1.4
						c0.4,0.9,0.6,2.6,0.6,5c0,1.8-0.1,4.3-0.4,7.4c-0.2,2.4-0.6,4.9-1.2,7.5c-0.6,2.6-1.3,5.3-2.1,8c-0.8,2.7-1.7,5.4-2.5,8.1
						c-0.8,2.7-1.7,5.3-2.6,7.8C1440.1,480.9,1437.9,486.8,1435.4,492.7z M1475.3,507.2C1475.3,507.2,1475.3,507.2,1475.3,507.2
						c0.1-1.4,0.5-3.1,1.2-5.2c0.7-2.1,1.4-3.8,1.9-5.3c0.6-1.4,1.3-2.7,2.2-3.8c0.9-1.1,2.1-2,3.4-2.7c1.4-0.7,3-1,4.9-1
						c1.1,0,2,0.6,2.7,1.9c0.7,1.3,1.1,2.9,1.1,4.8c0,1.4-0.8,3.2-2.3,5.3c-1.6,2.1-3.2,3.8-4.8,5.1c-1.6,1.3-3.4,2.3-5.3,3.1
						c-0.6,0.2-1.1,0.4-1.6,0.6C1477,510.6,1475.2,509.1,1475.3,507.2z"/>
					<linearGradient id="SVGID_73_" gradientUnits="userSpaceOnUse" x1="1377.3965" y1="472.7213" x2="1516.644" y2="472.7213">
						<stop  offset="0" style="stop-color:#FFBF00"/>
						<stop  offset="0.3542" style="stop-color:#FFC300"/>
						<stop  offset="0.7295" style="stop-color:#FFD000"/>
						<stop  offset="1" style="stop-color:#FFDE00"/>
					</linearGradient>
					<path class="st74" d="M1515.8,512.8l-4.9-5c-1-1-2.6-1.1-3.7-0.2c-1.3,1.1-2.8,2.3-4.5,3.5c-2.5,1.8-5.1,3.6-7.9,5.1
						c-2.8,1.6-5.7,2.9-8.6,3.9c-3,1-5.8,1.6-8.4,1.6c-0.9,0-1.6-0.1-2.4-0.3c-0.7-0.2-1.4-0.5-2.1-0.9c-0.7-0.4-1.3-1-2-1.8
						s-1.3-1.8-2-2.9c3.9-1,7.5-2.5,10.8-4.4c3.3-1.9,6.2-4,8.6-6.4c2.4-2.4,4.5-5.3,6.3-8.6c1.8-3.4,2.7-6.4,2.7-9.1
						c0-2.5-0.4-4.8-1.3-6.9c-0.9-2-2.1-3.8-3.7-5.2c-1.6-1.4-3.4-2.6-5.6-3.4c-2.1-0.8-4.5-1.2-7-1.2c-3.1,0-5.8,0.5-8.3,1.6
						c-2.5,1.1-4.8,2.5-6.8,4.3c-2,1.8-3.8,3.9-5.3,6.3c-1.5,2.4-2.8,4.9-3.8,7.5c-1,2.6-2,5.7-2.9,9.1c-0.9,3.4-1.4,6.3-1.4,8.8
						c0,1.3,0.1,2.6,0.2,3.9c-1.2,1-2.4,1.9-3.6,2.8c-1.1,0.8-2.2,1.5-3.3,2.3c-1.1,0.7-2.3,1.4-3.4,2c-1.1,0.6-2.2,1-3.2,1.4
						c-1,0.3-1.9,0.5-2.8,0.5c-0.9,0-1.6-0.3-2.2-0.8c-0.6-0.5-1.1-1.3-1.4-2.2c-0.3-0.9-0.6-2-0.7-3.1c-0.2-1.2-0.2-2.4-0.2-3.7
						c0-1,0.1-2.1,0.2-3.2c0.1-1.1,0.3-2.2,0.5-3.2c0.2-1.1,0.4-2,0.7-2.9c0.2-0.9,0.5-1.7,0.7-2.3c1.1-2.9,3.5-8.4,7.4-16.4
						c2.5-5.3,4.7-10.6,6.5-16c1.8-5.4,3.6-10.8,5.5-16.3c1.8-5.5,2.8-11.5,3-17.8c0-1.7,0-3.3,0-4.9c0-2.5-0.2-5-0.6-7.4
						c-0.4-2.4-1.1-4.5-2-6.3c-0.9-1.8-2.1-3.3-3.6-4.3c-1.5-1.1-3.3-1.6-5.3-1.6c-2.9,0-5.6,0.9-8.3,2.6c-2.7,1.8-5.2,4.2-7.6,7.3
						c-2.4,3.1-4.6,6.8-6.5,11.1c-2,4.3-3.6,8.9-4.9,14c-1.3,5.1-2.4,9.8-3.5,14.2c-1.1,4.4-1.7,9.5-1.8,15.3
						c-3.4,0.3-6.6,1.1-9.5,2.4c-3,1.3-5.9,3.1-8.7,5.6c-2.8,2.5-5.1,5.2-6.8,8.3c-1.7,3-3.3,5.9-4.7,8.7c-1.4,2.8-2.5,5.6-3.2,8.6
						c-0.7,3-1.1,5.9-1.1,8.8c0,2.7,0.3,5.3,1,7.9c0.7,2.5,1.7,4.8,3.1,6.8c1.4,2,3.2,3.6,5.3,4.8c2.1,1.2,4.6,1.8,7.5,1.8
						c2.1,0,4.1-0.3,6.1-1c2-0.7,4-1.6,6-2.7c2-1.1,3.9-2.5,5.8-4c1.9-1.5,3.6-3.2,5.3-4.9c1.1,2.7,2.4,4.9,3.9,6.6
						c1.5,1.7,3,2.9,4.4,3.8c1.5,0.9,2.8,1.5,4.1,1.7c1.3,0.3,2.2,0.4,2.8,0.4c1.1,0,2.3-0.2,3.6-0.6c1.3-0.4,2.6-0.9,4-1.6
						c1.4-0.6,2.8-1.4,4.2-2.2c1.4-0.8,2.8-1.7,4.1-2.5c2.3-1.5,4.6-3.3,7-5.1c0.7,1.2,1.4,2.4,2.3,3.5c2.1,2.6,4.7,4.7,7.8,6.2
						c3.1,1.5,6.8,2.3,10.9,2.3c2.7,0,5.3-0.3,7.9-0.9c2.6-0.6,5.1-1.4,7.5-2.5s4.7-2.2,6.9-3.5c2.2-1.3,4.3-2.7,6.2-4.1
						c3.7-2.7,7.2-5.7,10.6-9.1C1516.9,515.6,1516.9,513.9,1515.8,512.8z M1409.3,515.7c-0.5,0.8-1.1,1.6-1.8,2.3
						c-0.6,0.7-1.3,1.4-2,2c-0.7,0.6-1.5,1-2.2,1.4c-0.8,0.4-1.6,0.5-2.4,0.5c-1.6,0-2.8-0.2-3.8-0.5c-1-0.3-1.7-0.8-2.3-1.4
						c-0.5-0.6-0.9-1.2-1.1-1.9c-0.2-0.7-0.3-1.4-0.3-2.1c0-2.2,0.4-4.8,1.2-7.5c0.8-2.8,2-6.1,3.5-10c1.5-3.9,3.4-7,5.7-9.3
						c2.3-2.4,4.9-4.3,7.8-5.7c0,0,0.1,0.4,0.1,1.3c0,0.9,0.1,2.2,0.1,3.6c0,1.5,0.1,3.1,0.1,4.9c0,1.8,0.1,4.1,0.1,6.9
						c0,2.8,0.1,4.9,0.2,6.3c0.1,1.4,0.2,2.4,0.3,3C1411.7,511.8,1410.6,513.9,1409.3,515.7z M1427.9,487.1v-0.7c0-0.7,0-1.6,0-2.9
						s0-2.7,0.1-4.4c0-1.7,0.1-3.6,0.3-5.6c0.1-2.1,0.3-4.2,0.5-6.4c0.1-1.1,0.3-2.9,0.5-5.5c0.2-2.6,0.5-5.5,0.9-8.7
						c0.4-3.2,1-6.5,1.8-9.8c0.8-3.3,1.6-6.4,2.3-9.3c0.7-2.8,1.7-5.2,2.8-7c1.2-1.8,2.5-2.7,3.9-2.7c0.8,0,1.4,0.5,1.9,1.4
						c0.4,0.9,0.6,2.6,0.6,5c0,1.8-0.1,4.3-0.4,7.4c-0.2,2.4-0.6,4.9-1.2,7.5c-0.6,2.6-1.3,5.3-2.1,8c-0.8,2.7-1.7,5.4-2.5,8.1
						c-0.8,2.7-1.7,5.3-2.6,7.8C1432.7,475.2,1430.4,481.1,1427.9,487.1z M1467.9,501.6C1467.9,501.6,1467.9,501.6,1467.9,501.6
						c0.1-1.4,0.5-3.1,1.2-5.2c0.7-2.1,1.4-3.8,1.9-5.3c0.6-1.4,1.3-2.7,2.2-3.8c0.9-1.1,2.1-2,3.4-2.7c1.4-0.7,3-1,4.9-1
						c1.1,0,2,0.6,2.7,1.9c0.7,1.3,1.1,2.9,1.1,4.8c0,1.4-0.8,3.2-2.3,5.3c-1.6,2.1-3.2,3.8-4.8,5.1c-1.6,1.3-3.4,2.3-5.3,3.1
						c-0.6,0.2-1.1,0.4-1.6,0.6C1469.6,505,1467.8,503.5,1467.9,501.6z"/>
					<linearGradient id="SVGID_74_" gradientUnits="userSpaceOnUse" x1="1438.9286" y1="503.3623" x2="1497.7328" y2="503.3623">
						<stop  offset="0" style="stop-color:#FFFFFF"/>
						<stop  offset="1" style="stop-color:#FFFFFF;stop-opacity:0"/>
					</linearGradient>
					<path class="st75" d="M1477.7,521.9c-0.9,0-1.6-0.1-2.4-0.3c-0.7-0.2-1.4-0.5-2.1-0.9c-0.7-0.4-1.3-1-2-1.8s-1.3-1.8-2-2.9
						c3.9-1,7.5-2.5,10.8-4.4c3.3-1.9,6.2-4,8.6-6.4c2.4-2.4,4.5-5.3,6.3-8.6c1.8-3.4,2.7-6.4,2.7-9.1c0-2.5-0.4-4.8-1.3-6.9
						c-0.9-2-2.1-3.8-3.7-5.2c-1.6-1.4-3.4-2.6-5.6-3.4c-0.7-0.3-1.4-0.5-2.1-0.6l-11.1,15.4c0.8-0.8,1.7-1.6,2.9-2.2
						c1.4-0.7,3-1,4.9-1c1.1,0,2,0.6,2.7,1.9c0.7,1.3,1.1,2.9,1.1,4.8c0,1.4-0.8,3.2-2.3,5.3c-1.6,2.1-3.2,3.8-4.8,5.1
						c-1.6,1.3-3.4,2.3-5.3,3.1c-0.6,0.2-1.1,0.4-1.6,0.6c-1.8,0.6-3.6-0.9-3.5-2.8c0,0,0,0,0,0c0.1-1.3,0.5-3.1,1.2-5.2
						c0.7-2.1,1.4-3.8,1.9-5.3c0.2-0.5,0.5-1,0.7-1.5l-32.9,45.6c0.5-0.2,1-0.4,1.5-0.6c1.4-0.6,2.8-1.4,4.2-2.2
						c1.4-0.8,2.8-1.7,4.1-2.5c2.3-1.5,4.6-3.3,7-5.1c0.7,1.2,1.4,2.4,2.3,3.5c2.1,2.6,4.7,4.7,7.8,6.2c0.7,0.3,1.3,0.6,2,0.9
						l10.8-13.5C1478.3,521.8,1478,521.9,1477.7,521.9z"/>
				</g>
				<linearGradient id="SVGID_75_" gradientUnits="userSpaceOnUse" x1="1379.2472" y1="472.7213" x2="1455.6621" y2="472.7213">
					<stop  offset="0" style="stop-color:#FFFFFF"/>
					<stop  offset="1" style="stop-color:#FFFFFF;stop-opacity:0"/>
				</linearGradient>
				<path class="st76" d="M1440.7,483.3c2.5-5.3,4.7-10.6,6.5-16c1.8-5.4,3.6-10.8,5.5-16.3c1.8-5.5,2.8-11.5,3-17.8
					c0-1.7,0-3.3,0-4.9c0-2.5-0.2-5-0.6-7.4c-0.4-2.4-1.1-4.5-2-6.3c-0.9-1.8-2.1-3.3-3.6-4.3c-1.5-1.1-3.3-1.6-5.3-1.6
					c-1.3,0-2.6,0.2-3.9,0.6l-27.9,53.4c-0.5,3.2-0.8,6.8-0.9,10.6c-1.8,0.2-3.5,0.5-5.1,0.9l-27.1,51.8c0.6,1.6,1.4,3,2.3,4.4
					c1.4,2,3.2,3.6,5.3,4.8c2.1,1.2,4.6,1.8,7.5,1.8c2.1,0,4.1-0.3,6.1-1c2-0.7,4-1.6,6-2.7c2-1.1,3.9-2.5,5.8-4
					c1.9-1.5,3.6-3.2,5.3-4.9c0.1,0.2,0.2,0.4,0.3,0.6l17-29C1436.2,492.8,1438.1,488.6,1440.7,483.3z M1409.3,515.7
					c-0.5,0.8-1.1,1.6-1.8,2.3c-0.6,0.7-1.3,1.4-2,2c-0.7,0.6-1.5,1-2.2,1.4c-0.8,0.4-1.6,0.5-2.4,0.5c-1.6,0-2.8-0.2-3.8-0.5
					c-1-0.3-1.7-0.8-2.3-1.4c-0.5-0.6-0.9-1.2-1.1-1.9c-0.2-0.7-0.3-1.4-0.3-2.1c0-2.2,0.4-4.8,1.2-7.5c0.8-2.8,2-6.1,3.5-10
					c1.5-3.9,3.4-7,5.7-9.3c2.3-2.4,4.9-4.3,7.8-5.7c0,0,0.1,0.4,0.1,1.3c0,0.9,0.1,2.2,0.1,3.6c0,1.5,0.1,3.1,0.1,4.9
					c0,1.8,0.1,4.1,0.1,6.9c0,2.8,0.1,4.9,0.2,6.3c0.1,1.4,0.2,2.4,0.3,3C1411.7,511.8,1410.6,513.9,1409.3,515.7z M1427.9,486.4
					c0-0.7,0-1.6,0-2.9s0-2.7,0.1-4.4c0-1.7,0.1-3.6,0.3-5.6c0.1-2.1,0.3-4.2,0.5-6.4c0.1-1.1,0.3-2.9,0.5-5.5
					c0.2-2.6,0.5-5.5,0.9-8.7c0.4-3.2,1-6.5,1.8-9.8c0.8-3.3,1.6-6.4,2.3-9.3c0.7-2.8,1.7-5.2,2.8-7c1.2-1.8,2.5-2.7,3.9-2.7
					c0.8,0,1.4,0.5,1.9,1.4c0.4,0.9,0.6,2.6,0.6,5c0,1.8-0.1,4.3-0.4,7.4c-0.2,2.4-0.6,4.9-1.2,7.5c-0.6,2.6-1.3,5.3-2.1,8
					c-0.8,2.7-1.7,5.4-2.5,8.1c-0.8,2.7-1.7,5.3-2.6,7.8c-2.1,5.9-4.4,11.8-6.8,17.7V486.4z"/>
			</g>
		</g>
		<g>
			<g>
				<linearGradient id="SVGID_76_" gradientUnits="userSpaceOnUse" x1="403.0143" y1="485.0787" x2="403.0143" y2="372.6867">
					<stop  offset="2.739730e-002" style="stop-color:#004252"/>
					<stop  offset="0.2371" style="stop-color:#004A5C"/>
					<stop  offset="0.6296" style="stop-color:#005569"/>
					<stop  offset="1" style="stop-color:#00586D"/>
				</linearGradient>
				<path class="st77" d="M454,462c-1.9,2.4-3.8,4.7-5.9,6.8c-10.6,10.6-24.7,16.2-39.7,16.2c-15,0-29.4-5.6-40-16.2
					c-10.6-10.8-16.5-24.9-16.5-40c0-15,5.9-29.2,16.5-40c10.6-10.6,24.9-16.2,40-16.2c15,0,29.2,5.6,39.7,16.2
					c2.1,2.1,4,4.2,5.6,6.6l-16.2,12c-6.6-8.9-17.2-15-29.2-15c-20,0-36.2,16.5-36.2,36.4c0,20,16.2,36.4,36.2,36.4
					c12,0,22.6-6.1,29.2-15.3L454,462z"/>
				<linearGradient id="SVGID_77_" gradientUnits="userSpaceOnUse" x1="507.4121" y1="485.3139" x2="507.4121" y2="372.6867">
					<stop  offset="2.739730e-002" style="stop-color:#004252"/>
					<stop  offset="0.2371" style="stop-color:#004A5C"/>
					<stop  offset="0.6296" style="stop-color:#005569"/>
					<stop  offset="1" style="stop-color:#00586D"/>
				</linearGradient>
				<path class="st78" d="M563.8,428.9c0,15-5.9,29.2-16.7,40c-10.6,10.6-24.7,16.5-39.7,16.5s-29.2-5.9-40-16.5
					c-10.6-10.8-16.5-24.9-16.5-40c0-15,5.9-29.2,16.5-40c10.8-10.6,24.9-16.2,40-16.2s29.2,5.6,39.7,16.2
					C558,399.7,563.8,413.8,563.8,428.9z M543.6,428.9c0-20-16.2-36-36.2-36c-20,0-36.2,16-36.2,36c0,20,16.2,36.2,36.2,36.2
					C527.4,465.1,543.6,448.9,543.6,428.9z"/>
				<linearGradient id="SVGID_78_" gradientUnits="userSpaceOnUse" x1="622.155" y1="482.7274" x2="622.155" y2="372.9218">
					<stop  offset="2.739730e-002" style="stop-color:#004252"/>
					<stop  offset="0.2371" style="stop-color:#004A5C"/>
					<stop  offset="0.6296" style="stop-color:#005569"/>
					<stop  offset="1" style="stop-color:#00586D"/>
				</linearGradient>
				<path class="st79" d="M674.1,424.9v57.8h-20.2v-57.8c0-17.6-14.1-32.2-31.7-32.2c-17.4,0-31.7,14.6-31.7,32.2v57.8h-20.2V375
					h20.2v10.3c9.2-7.1,20.2-12.5,31.7-12.5c13.9,0,27,5.2,36.9,15C668.7,397.8,674.1,410.8,674.1,424.9z"/>
			</g>
			<g>
				<linearGradient id="SVGID_79_" gradientUnits="userSpaceOnUse" x1="343.2449" y1="420.1365" x2="445.2914" y2="420.1365">
					<stop  offset="0" style="stop-color:#FFBF00"/>
					<stop  offset="0.3542" style="stop-color:#FFC300"/>
					<stop  offset="0.7295" style="stop-color:#FFD000"/>
					<stop  offset="1" style="stop-color:#FFDE00"/>
				</linearGradient>
				<path class="st80" d="M445.3,453.3c-1.9,2.4-3.8,4.7-5.9,6.8c-10.6,10.6-24.7,16.2-39.7,16.2c-15,0-29.4-5.6-40-16.2
					c-10.6-10.8-16.5-24.9-16.5-40s5.9-29.2,16.5-40c10.6-10.6,24.9-16.2,40-16.2c15,0,29.2,5.6,39.7,16.2c2.1,2.1,4,4.2,5.6,6.6
					l-16.2,12c-6.6-8.9-17.2-15-29.2-15c-20,0-36.2,16.5-36.2,36.4c0,20,16.2,36.4,36.2,36.4c12,0,22.6-6.1,29.2-15.3L445.3,453.3z"
					/>
				<linearGradient id="SVGID_80_" gradientUnits="userSpaceOnUse" x1="442.2348" y1="420.2541" x2="555.0971" y2="420.2541">
					<stop  offset="0" style="stop-color:#FFBF00"/>
					<stop  offset="0.3542" style="stop-color:#FFC300"/>
					<stop  offset="0.7295" style="stop-color:#FFD000"/>
					<stop  offset="1" style="stop-color:#FFDE00"/>
				</linearGradient>
				<path class="st81" d="M555.1,420.1c0,15-5.9,29.2-16.7,40c-10.6,10.6-24.7,16.5-39.7,16.5c-15,0-29.2-5.9-40-16.5
					c-10.6-10.8-16.5-24.9-16.5-40s5.9-29.2,16.5-40c10.8-10.6,24.9-16.2,40-16.2c15,0,29.2,5.6,39.7,16.2
					C549.2,391,555.1,405.1,555.1,420.1z M534.9,420.1c0-20-16.2-36-36.2-36c-20,0-36.2,16-36.2,36c0,20,16.2,36.2,36.2,36.2
					C518.7,456.3,534.9,440.1,534.9,420.1z"/>
				<linearGradient id="SVGID_81_" gradientUnits="userSpaceOnUse" x1="561.4452" y1="419.0784" x2="665.3724" y2="419.0784">
					<stop  offset="0" style="stop-color:#FFBF00"/>
					<stop  offset="0.3542" style="stop-color:#FFC300"/>
					<stop  offset="0.7295" style="stop-color:#FFD000"/>
					<stop  offset="1" style="stop-color:#FFDE00"/>
				</linearGradient>
				<path class="st82" d="M665.4,416.1V474h-20.2v-57.8c0-17.6-14.1-32.2-31.7-32.2c-17.4,0-31.7,14.6-31.7,32.2V474h-20.2V366.3
					h20.2v10.3c9.2-7.1,20.2-12.5,31.7-12.5c13.9,0,27,5.2,36.9,15C660,389.1,665.4,402,665.4,416.1z"/>
			</g>
		</g>
		<g>
			<linearGradient id="SVGID_82_" gradientUnits="userSpaceOnUse" x1="378.8686" y1="664.3439" x2="522.7679" y2="664.3439">
				<stop  offset="2.739730e-002" style="stop-color:#004252"/>
				<stop  offset="0.2371" style="stop-color:#004A5C"/>
				<stop  offset="0.6296" style="stop-color:#005569"/>
				<stop  offset="1" style="stop-color:#00586D"/>
			</linearGradient>
			<path class="st83" d="M378.9,750.7V578h90.8c32.9,0,49.7,21,49.7,44c0,21.7-13.5,36.2-29.8,39.6c18.4,2.8,33.1,20.7,33.1,42.4
				c0,25.9-17.3,46.6-50.2,46.6H378.9z M481.9,628.5c0-10.9-7.8-18.9-20.2-18.9h-46.1v37.5h46.1
				C474.1,647.1,481.9,639.4,481.9,628.5z M485.2,698.9c0-10.9-7.8-20.2-22.3-20.2h-47.4v40.1H463
				C477,718.8,485.2,711.3,485.2,698.9z"/>
			<linearGradient id="SVGID_83_" gradientUnits="userSpaceOnUse" x1="550.4656" y1="664.3439" x2="690.224" y2="664.3439">
				<stop  offset="2.739730e-002" style="stop-color:#004252"/>
				<stop  offset="0.2371" style="stop-color:#004A5C"/>
				<stop  offset="0.6296" style="stop-color:#005569"/>
				<stop  offset="1" style="stop-color:#00586D"/>
			</linearGradient>
			<path class="st84" d="M648,750.7l-33.9-61.3h-26.9v61.3h-36.8V578h80.7c36,0,58,23.6,58,55.6c0,30.5-19.2,46.8-37.8,51.2
				l38.8,65.7H648z M651.7,633.7c0-14.5-11.1-23.3-25.9-23.3h-38.6V657h38.6C640.5,657,651.7,648.2,651.7,633.7z"/>
			<linearGradient id="SVGID_84_" gradientUnits="userSpaceOnUse" x1="708.6026" y1="664.4734" x2="888.9938" y2="664.4734">
				<stop  offset="2.739730e-002" style="stop-color:#004252"/>
				<stop  offset="0.2371" style="stop-color:#004A5C"/>
				<stop  offset="0.6296" style="stop-color:#005569"/>
				<stop  offset="1" style="stop-color:#00586D"/>
			</linearGradient>
			<path class="st85" d="M708.6,664.5c0-52,38-89.3,90.1-89.3c52.3,0,90.3,37.3,90.3,89.3c0,52-38,89.3-90.3,89.3
				C746.6,753.8,708.6,716.5,708.6,664.5z M851.2,664.5c0-32.4-20.7-56.7-52.5-56.7c-31.8,0-52.3,24.3-52.3,56.7
				c0,32.1,20.4,56.7,52.3,56.7C830.5,721.2,851.2,696.6,851.2,664.5z"/>
			<linearGradient id="SVGID_85_" gradientUnits="userSpaceOnUse" x1="906.6007" y1="664.4734" x2="1070.6866" y2="664.4734">
				<stop  offset="2.739730e-002" style="stop-color:#004252"/>
				<stop  offset="0.2371" style="stop-color:#004A5C"/>
				<stop  offset="0.6296" style="stop-color:#005569"/>
				<stop  offset="1" style="stop-color:#00586D"/>
			</linearGradient>
			<path class="st86" d="M906.6,664.5c0-53.1,40.1-89.3,91.9-89.3c38,0,60,20.7,72.2,42.2l-31.6,15.5c-7.2-14-22.8-25.1-40.6-25.1
				c-31.3,0-54.1,24.1-54.1,56.7c0,32.6,22.8,56.7,54.1,56.7c17.9,0,33.4-10.9,40.6-25.1l31.6,15.3c-12.4,21.5-34.2,42.4-72.2,42.4
				C946.7,753.8,906.6,717.5,906.6,664.5z"/>
			<linearGradient id="SVGID_86_" gradientUnits="userSpaceOnUse" x1="1092.6924" y1="664.3439" x2="1247.9791" y2="664.3439">
				<stop  offset="2.739730e-002" style="stop-color:#004252"/>
				<stop  offset="0.2371" style="stop-color:#004A5C"/>
				<stop  offset="0.6296" style="stop-color:#005569"/>
				<stop  offset="1" style="stop-color:#00586D"/>
			</linearGradient>
			<path class="st87" d="M1211,750.7v-72.5h-81.5v72.5h-36.8V578h36.8v67.8h81.5V578h37v172.6H1211z"/>
			<linearGradient id="SVGID_87_" gradientUnits="userSpaceOnUse" x1="1281.887" y1="664.3439" x2="1404.046" y2="664.3439">
				<stop  offset="2.739730e-002" style="stop-color:#004252"/>
				<stop  offset="0.2371" style="stop-color:#004A5C"/>
				<stop  offset="0.6296" style="stop-color:#005569"/>
				<stop  offset="1" style="stop-color:#00586D"/>
			</linearGradient>
			<path class="st88" d="M1281.9,750.7V578H1404v32.4h-85.4v36.5h83.6v32.4h-83.6v39.1h85.4v32.4H1281.9z"/>
			<linearGradient id="SVGID_88_" gradientUnits="userSpaceOnUse" x1="1421.1313" y1="664.6027" x2="1563.2184" y2="664.6027">
				<stop  offset="2.739730e-002" style="stop-color:#004252"/>
				<stop  offset="0.2371" style="stop-color:#004A5C"/>
				<stop  offset="0.6296" style="stop-color:#005569"/>
				<stop  offset="1" style="stop-color:#00586D"/>
			</linearGradient>
			<path class="st89" d="M1421.1,726.3l19.9-28c12.2,12.7,31.1,23.3,54.9,23.3c20.2,0,30-9.3,30-19.2c0-30.5-99.4-9.6-99.4-74.5
				c0-28.7,24.8-52.5,65.5-52.5c27.4,0,50.2,8.3,67.3,24.1l-20.4,26.9c-14-12.9-32.6-18.9-50.2-18.9c-15.8,0-24.6,7-24.6,17.3
				c0,27.4,99.1,9.1,99.1,73.5c0,31.6-22.5,55.4-69.1,55.4C1461,753.8,1437.2,742.6,1421.1,726.3z"/>
		</g>
		<g>
			<linearGradient id="SVGID_89_" gradientUnits="userSpaceOnUse" x1="374.2511" y1="747.6722" x2="475.8717" y2="571.6602">
				<stop  offset="0" style="stop-color:#D6F4FF"/>
				<stop  offset="1" style="stop-color:#FFFFFF"/>
			</linearGradient>
			<path class="st90" d="M364.8,742.2V569.6h90.8c32.9,0,49.7,21,49.7,44c0,21.7-13.5,36.2-29.8,39.6c18.4,2.8,33.1,20.7,33.1,42.4
				c0,25.9-17.3,46.6-50.2,46.6H364.8z M467.8,620c0-10.9-7.8-18.9-20.2-18.9h-46.1v37.5h46.1C460,638.7,467.8,630.9,467.8,620z
				 M471.2,690.4c0-10.9-7.8-20.2-22.3-20.2h-47.4v40.1h47.4C462.9,710.4,471.2,702.9,471.2,690.4z"/>
			<linearGradient id="SVGID_90_" gradientUnits="userSpaceOnUse" x1="551.4141" y1="750.8857" x2="650.9552" y2="578.4755">
				<stop  offset="0" style="stop-color:#D6F4FF"/>
				<stop  offset="1" style="stop-color:#FFFFFF"/>
			</linearGradient>
			<path class="st91" d="M634,742.2L600,680.9h-26.9v61.3h-36.8V569.6h80.7c36,0,58,23.6,58,55.6c0,30.5-19.2,46.8-37.8,51.2
				l38.8,65.7H634z M637.6,625.2c0-14.5-11.1-23.3-25.9-23.3h-38.6v46.6h38.6C626.4,648.5,637.6,639.7,637.6,625.2z"/>
			<linearGradient id="SVGID_91_" gradientUnits="userSpaceOnUse" x1="739.4084" y1="734.4813" x2="829.9899" y2="577.5896">
				<stop  offset="0" style="stop-color:#D6F4FF"/>
				<stop  offset="1" style="stop-color:#FFFFFF"/>
			</linearGradient>
			<path class="st92" d="M694.5,656c0-52,38-89.3,90.1-89.3c52.3,0,90.3,37.3,90.3,89.3c0,52-38,89.3-90.3,89.3
				C732.6,745.3,694.5,708,694.5,656z M837.1,656c0-32.4-20.7-56.7-52.5-56.7c-31.8,0-52.3,24.3-52.3,56.7
				c0,32.1,20.4,56.7,52.3,56.7C816.4,712.7,837.1,688.1,837.1,656z"/>
			<linearGradient id="SVGID_92_" gradientUnits="userSpaceOnUse" x1="936.1866" y1="733.2" x2="1026.2064" y2="577.2812">
				<stop  offset="0" style="stop-color:#D6F4FF"/>
				<stop  offset="1" style="stop-color:#FFFFFF"/>
			</linearGradient>
			<path class="st93" d="M892.5,656c0-53.1,40.1-89.3,91.9-89.3c38,0,60,20.7,72.2,42.2l-31.6,15.5c-7.2-14-22.8-25.1-40.6-25.1
				c-31.3,0-54.1,24.1-54.1,56.7c0,32.6,22.8,56.7,54.1,56.7c17.9,0,33.4-10.9,40.6-25.1l31.6,15.3c-12.4,21.5-34.2,42.4-72.2,42.4
				C932.6,745.3,892.5,709.1,892.5,656z"/>
			<linearGradient id="SVGID_93_" gradientUnits="userSpaceOnUse" x1="1099.464" y1="754.2477" x2="1213.0352" y2="557.5367">
				<stop  offset="0" style="stop-color:#D6F4FF"/>
				<stop  offset="1" style="stop-color:#FFFFFF"/>
			</linearGradient>
			<path class="st94" d="M1196.9,742.2v-72.5h-81.5v72.5h-36.8V569.6h36.8v67.8h81.5v-67.8h37v172.6H1196.9z"/>
			<linearGradient id="SVGID_94_" gradientUnits="userSpaceOnUse" x1="1276.2357" y1="747.0754" x2="1381.5249" y2="564.709">
				<stop  offset="0" style="stop-color:#D6F4FF"/>
				<stop  offset="1" style="stop-color:#FFFFFF"/>
			</linearGradient>
			<path class="st95" d="M1267.8,742.2V569.6H1390v32.4h-85.4v36.5h83.6v32.4h-83.6v39.1h85.4v32.4H1267.8z"/>
			<linearGradient id="SVGID_95_" gradientUnits="userSpaceOnUse" x1="1434.0193" y1="737.0199" x2="1526.0844" y2="577.5586">
				<stop  offset="0" style="stop-color:#D6F4FF"/>
				<stop  offset="1" style="stop-color:#FFFFFF"/>
			</linearGradient>
			<path class="st96" d="M1407,717.9l19.9-28c12.2,12.7,31.1,23.3,54.9,23.3c20.2,0,30-9.3,30-19.2c0-30.5-99.4-9.6-99.4-74.5
				c0-28.7,24.8-52.5,65.5-52.5c27.4,0,50.2,8.3,67.3,24.1l-20.4,26.9c-14-12.9-32.6-18.9-50.2-18.9c-15.8,0-24.6,7-24.6,17.3
				c0,27.4,99.1,9.1,99.1,73.5c0,31.6-22.5,55.4-69.1,55.4C1446.9,745.3,1423.1,734.2,1407,717.9z"/>
			<linearGradient id="SVGID_96_" gradientUnits="userSpaceOnUse" x1="380.8128" y1="751.4608" x2="482.4336" y2="575.4484">
				<stop  offset="0" style="stop-color:#52CEFF"/>
				<stop  offset="9.764850e-002" style="stop-color:#52CEFF;stop-opacity:0.9024"/>
				<stop  offset="1" style="stop-color:#52CEFF;stop-opacity:0"/>
			</linearGradient>
			<path class="st97" d="M475.6,653.2c16.3-3.4,29.8-17.9,29.8-39.6c0-23-16.8-44-49.7-44h-3.1L428,601.2h19.6
				c12.4,0,20.2,8,20.2,18.9c0,10.9-7.8,18.6-20.2,18.6h-46.1v-3.5l-36.8,47.3v59.7h48l29.6-31.8h-40.8v-40.1h47.4
				c10.2,0,17.1,4.7,20.3,11.2L490,659C485.7,656,480.8,654,475.6,653.2z"/>
			<linearGradient id="SVGID_97_" gradientUnits="userSpaceOnUse" x1="533.4036" y1="687.0804" x2="607.2789" y2="559.1248">
				<stop  offset="0" style="stop-color:#52CEFF"/>
				<stop  offset="9.764850e-002" style="stop-color:#52CEFF;stop-opacity:0.9024"/>
				<stop  offset="1" style="stop-color:#52CEFF;stop-opacity:0"/>
			</linearGradient>
			<path class="st98" d="M536.4,688.8l36.8-48.4v-38.5h29.2l24.1-31.7c-3-0.4-6.1-0.6-9.3-0.6h-17l-63.7,68V688.8z"/>
			<linearGradient id="SVGID_98_" gradientUnits="userSpaceOnUse" x1="553.5336" y1="752.1089" x2="653.0393" y2="579.76">
				<stop  offset="0" style="stop-color:#52CEFF"/>
				<stop  offset="9.764850e-002" style="stop-color:#52CEFF;stop-opacity:0.9024"/>
				<stop  offset="1" style="stop-color:#52CEFF;stop-opacity:0"/>
			</linearGradient>
			<path class="st99" d="M644.2,575l-20.8,29.1c8.6,3.4,14.2,10.8,14.2,21.1c0,14.5-11.1,23.3-25.9,23.3h-20.1l-55.2,77.2v16.5h36
				l0.8-1.1v-60.2H600l7.1,12.8l64.3-89.7C666.7,591,657.3,580.8,644.2,575z"/>
			<linearGradient id="SVGID_99_" gradientUnits="userSpaceOnUse" x1="695.6959" y1="692.4122" x2="773.6877" y2="557.3264">
				<stop  offset="0" style="stop-color:#52CEFF"/>
				<stop  offset="9.764850e-002" style="stop-color:#52CEFF;stop-opacity:0.9024"/>
				<stop  offset="1" style="stop-color:#52CEFF;stop-opacity:0"/>
			</linearGradient>
			<path class="st100" d="M743.9,575.4l-49.4,80.8c0,15,3.2,28.8,9,40.8l28.9-43.3c0.8-24.6,13.6-44.2,34.3-51.3l23.6-35.4
				c-1.9-0.1-3.8-0.2-5.7-0.2C769.7,566.7,756,569.8,743.9,575.4z"/>
			<g class="st24">
				<linearGradient id="SVGID_100_" gradientUnits="userSpaceOnUse" x1="816.9083" y1="636.8794" x2="845.8392" y2="586.7696">
					<stop  offset="0" style="stop-color:#52CEFF"/>
					<stop  offset="9.764850e-002" style="stop-color:#52CEFF;stop-opacity:0.9024"/>
					<stop  offset="1" style="stop-color:#52CEFF;stop-opacity:0"/>
				</linearGradient>
				<path class="st101" d="M822.4,574l-21.7,27.6c20.3,6.1,33.6,23.8,36,46.6l29.3-33C857,596.6,841.8,582.1,822.4,574z"/>
				<linearGradient id="SVGID_101_" gradientUnits="userSpaceOnUse" x1="735.2288" y1="732.0378" x2="757.4587" y2="693.5345">
					<stop  offset="0" style="stop-color:#52CEFF"/>
					<stop  offset="9.764850e-002" style="stop-color:#52CEFF;stop-opacity:0.9024"/>
					<stop  offset="1" style="stop-color:#52CEFF;stop-opacity:0"/>
				</linearGradient>
				<path class="st102" d="M737.4,682l-24.1,30.7c10.3,13.1,24.5,22.8,41.2,28.1l25.1-28.3C759.7,710.8,744.8,699.1,737.4,682z"/>
			</g>
			<linearGradient id="SVGID_102_" gradientUnits="userSpaceOnUse" x1="887.8217" y1="674.8466" x2="954.2643" y2="559.7645">
				<stop  offset="0" style="stop-color:#52CEFF"/>
				<stop  offset="9.764850e-002" style="stop-color:#52CEFF;stop-opacity:0.9024"/>
				<stop  offset="1" style="stop-color:#52CEFF;stop-opacity:0"/>
			</linearGradient>
			<path class="st103" d="M923.8,587.3l-26.4,38.2c-3.2,9.3-4.9,19.6-4.9,30.5c0,8.1,0.9,15.8,2.7,23.1l73.2-111.2
				C951.4,570.5,936.1,577.3,923.8,587.3z"/>
			<g class="st24">
				<linearGradient id="SVGID_103_" gradientUnits="userSpaceOnUse" x1="1005.5074" y1="620.0502" x2="1029.1807" y2="579.0469">
					<stop  offset="0" style="stop-color:#52CEFF"/>
					<stop  offset="9.764850e-002" style="stop-color:#52CEFF;stop-opacity:0.9024"/>
					<stop  offset="1" style="stop-color:#52CEFF;stop-opacity:0"/>
				</linearGradient>
				<path class="st104" d="M972,600.7c3.9-0.9,8.1-1.4,12.4-1.4c17.9,0,33.4,11.1,40.6,25.1l31.6-15.5c-11.1-19.7-30.6-38.6-63-41.7
					L972,600.7z"/>
				<linearGradient id="SVGID_104_" gradientUnits="userSpaceOnUse" x1="935.1693" y1="732.5931" x2="963.6304" y2="683.2971">
					<stop  offset="0" style="stop-color:#52CEFF"/>
					<stop  offset="9.764850e-002" style="stop-color:#52CEFF;stop-opacity:0.9024"/>
					<stop  offset="1" style="stop-color:#52CEFF;stop-opacity:0"/>
				</linearGradient>
				<path class="st105" d="M972.9,744.7l20.7-33c-3,0.6-6,1-9.2,1c-28.6,0-50-20-53.5-48.3l-25.4,39.4
					C919.5,726.7,943.9,741.6,972.9,744.7z"/>
			</g>
			<linearGradient id="SVGID_105_" gradientUnits="userSpaceOnUse" x1="1068.453" y1="680.3136" x2="1125.3564" y2="581.7541">
				<stop  offset="0" style="stop-color:#52CEFF"/>
				<stop  offset="9.764850e-002" style="stop-color:#52CEFF;stop-opacity:0.9024"/>
				<stop  offset="1" style="stop-color:#52CEFF;stop-opacity:0"/>
			</linearGradient>
			<polygon class="st106" points="1078.6,626.8 1078.6,686.2 1115.4,635 1115.4,576 			"/>
			<g class="st24">
				<linearGradient id="SVGID_106_" gradientUnits="userSpaceOnUse" x1="1165.3955" y1="684.582" x2="1232.3179" y2="568.6691">
					<stop  offset="0" style="stop-color:#52CEFF"/>
					<stop  offset="9.764850e-002" style="stop-color:#52CEFF;stop-opacity:0.9024"/>
					<stop  offset="1" style="stop-color:#52CEFF;stop-opacity:0"/>
				</linearGradient>
				<polygon class="st107" points="1233.9,625.3 1233.9,569.6 1211.9,569.6 1196.9,590.4 1196.9,637.4 1163,637.4 1139.7,669.7 
					1196.9,669.7 1196.9,671.1 				"/>
				<linearGradient id="SVGID_107_" gradientUnits="userSpaceOnUse" x1="1097.9293" y1="748.2427" x2="1121.6595" y2="707.1407">
					<stop  offset="0" style="stop-color:#52CEFF"/>
					<stop  offset="9.764850e-002" style="stop-color:#52CEFF;stop-opacity:0.9024"/>
					<stop  offset="1" style="stop-color:#52CEFF;stop-opacity:0"/>
				</linearGradient>
				<polygon class="st108" points="1115.4,742.2 1115.4,703.5 1087.5,742.2 				"/>
			</g>
			<linearGradient id="SVGID_108_" gradientUnits="userSpaceOnUse" x1="1416.3059" y1="648.0793" x2="1469.6876" y2="555.6195">
				<stop  offset="0" style="stop-color:#52CEFF"/>
				<stop  offset="9.764850e-002" style="stop-color:#52CEFF;stop-opacity:0.9024"/>
				<stop  offset="1" style="stop-color:#52CEFF;stop-opacity:0"/>
			</linearGradient>
			<path class="st109" d="M1450,616.4c0-9.1,6.8-15.6,19.3-17l21.2-31.8c-4.1-0.4-8.2-0.6-12.5-0.6c-40.6,0-65.5,23.8-65.5,52.5
				c0,18,7.6,29.4,18.6,37.1l22-32.9C1451.1,621.7,1450,619.3,1450,616.4z"/>
			<linearGradient id="SVGID_109_" gradientUnits="userSpaceOnUse" x1="1475.0507" y1="755.2329" x2="1533.4569" y2="654.0705">
				<stop  offset="0" style="stop-color:#52CEFF"/>
				<stop  offset="9.764850e-002" style="stop-color:#52CEFF;stop-opacity:0.9024"/>
				<stop  offset="1" style="stop-color:#52CEFF;stop-opacity:0"/>
			</linearGradient>
			<path class="st110" d="M1511.3,740.8l36.8-61.3c-3.8-19.2-18.1-29.3-34.7-35.7l-20.6,33.7c11.2,3.5,19,8,19,16.6
				c0,9.8-9.8,19.2-30,19.2c-3.6,0-7.1-0.3-10.4-0.7l-18.4,30c8.2,1.8,17.2,2.8,27,2.8C1492.1,745.3,1502.5,743.7,1511.3,740.8z"/>
			<linearGradient id="SVGID_110_" gradientUnits="userSpaceOnUse" x1="1363.0316" y1="751.5334" x2="1387.2117" y2="709.6523">
				<stop  offset="0" style="stop-color:#52CEFF"/>
				<stop  offset="9.764850e-002" style="stop-color:#52CEFF;stop-opacity:0.9024"/>
				<stop  offset="1" style="stop-color:#52CEFF;stop-opacity:0"/>
			</linearGradient>
			<polygon class="st111" points="1390,711.2 1346.9,742.2 1390,742.2 			"/>
			<g class="st24">
				<linearGradient id="SVGID_111_" gradientUnits="userSpaceOnUse" x1="1280.1134" y1="749.3138" x2="1355.1392" y2="619.3652">
					<stop  offset="0" style="stop-color:#52CEFF"/>
					<stop  offset="9.764850e-002" style="stop-color:#52CEFF;stop-opacity:0.9024"/>
					<stop  offset="1" style="stop-color:#52CEFF;stop-opacity:0"/>
				</linearGradient>
				<polygon class="st112" points="1304.6,638.4 1304.6,633.8 1267.8,680.1 1267.8,742.2 1307,742.2 1336.3,709.9 1304.6,709.9 
					1304.6,670.8 1371.8,670.8 1388.1,652.7 1388.1,638.4 				"/>
				<linearGradient id="SVGID_112_" gradientUnits="userSpaceOnUse" x1="1352.3965" y1="614.942" x2="1381.22" y2="565.0182">
					<stop  offset="0" style="stop-color:#52CEFF"/>
					<stop  offset="9.764850e-002" style="stop-color:#52CEFF;stop-opacity:0.9024"/>
					<stop  offset="1" style="stop-color:#52CEFF;stop-opacity:0"/>
				</linearGradient>
				<polygon class="st113" points="1390,570.8 1389.1,569.6 1355.5,569.6 1329.9,601.9 1390,601.9 				"/>
			</g>
		</g>
	</g>
	<linearGradient id="SVGID_113_" gradientUnits="userSpaceOnUse" x1="496.6714" y1="29" x2="581.6714" y2="29">
		<stop  offset="0" style="stop-color:#D6F4FF"/>
		<stop  offset="1" style="stop-color:#FFFFFF"/>
	</linearGradient>
	<polygon class="st114" points="496.7,58 531.7,0 581.7,0 525.1,58 	"/>
	<linearGradient id="SVGID_114_" gradientUnits="userSpaceOnUse" x1="504.2676" y1="22.7061" x2="570.6533" y2="22.7061">
		<stop  offset="0" style="stop-color:#52CEFF;stop-opacity:0"/>
		<stop  offset="1" style="stop-color:#52CEFF"/>
	</linearGradient>
	<polygon class="st115" points="504.3,45.4 570.7,0 531.7,0 	"/>
</g>
</svg>
