<?xml version="1.0" encoding="utf-8"?>
<!-- Generator: Adobe Illustrator 19.1.0, SVG Export Plug-In . SVG Version: 6.00 Build 0)  -->
<svg version="1.1" id="Modo_de_aislamiento" xmlns="http://www.w3.org/2000/svg" xmlns:xlink="http://www.w3.org/1999/xlink"
	 x="0px" y="0px" viewBox="0 0 2161 1902.6" style="enable-background:new 0 0 2161 1902.6;" xml:space="preserve">
<style type="text/css">
	.st0{fill-rule:evenodd;clip-rule:evenodd;fill:url(#SVGID_1_);}
	.st1{fill-rule:evenodd;clip-rule:evenodd;fill:url(#SVGID_2_);}
	.st2{fill-rule:evenodd;clip-rule:evenodd;fill:url(#SVGID_3_);}
	.st3{fill-rule:evenodd;clip-rule:evenodd;fill:url(#SVGID_4_);}
	.st4{fill-rule:evenodd;clip-rule:evenodd;fill:url(#SVGID_5_);}
	.st5{fill-rule:evenodd;clip-rule:evenodd;fill:url(#SVGID_6_);}
	.st6{fill-rule:evenodd;clip-rule:evenodd;fill:url(#SVGID_7_);}
	.st7{fill-rule:evenodd;clip-rule:evenodd;fill:url(#SVGID_8_);}
	.st8{fill-rule:evenodd;clip-rule:evenodd;fill:url(#SVGID_9_);}
	.st9{fill-rule:evenodd;clip-rule:evenodd;fill:url(#SVGID_10_);}
	.st10{fill-rule:evenodd;clip-rule:evenodd;fill:url(#SVGID_11_);}
	.st11{fill:#36A9E0;}
	.st12{fill:#FFFFFF;}
	.st13{fill:url(#SVGID_12_);}
	.st14{fill:url(#SVGID_13_);}
	.st15{fill:url(#SVGID_14_);}
	.st16{fill:url(#SVGID_15_);}
	.st17{fill:url(#SVGID_16_);}
	.st18{fill:url(#SVGID_17_);}
	.st19{fill:url(#SVGID_18_);}
	.st20{fill:url(#SVGID_19_);}
	.st21{fill:url(#SVGID_20_);}
	.st22{fill:url(#SVGID_21_);}
	.st23{opacity:0.5;fill:url(#SVGID_22_);}
	.st24{opacity:0.5;fill:url(#SVGID_23_);}
	.st25{opacity:0.5;fill:url(#SVGID_24_);}
	.st26{opacity:0.5;fill:url(#SVGID_25_);}
	.st27{opacity:0.5;fill:url(#SVGID_26_);}
	.st28{opacity:0.5;fill:url(#SVGID_27_);}
	.st29{fill:#007599;}
	.st30{opacity:0.5;}
	.st31{fill:url(#SVGID_28_);}
	.st32{fill:url(#SVGID_29_);}
	.st33{fill:url(#SVGID_30_);}
	.st34{fill:url(#SVGID_31_);}
	.st35{fill:url(#SVGID_32_);}
	.st36{fill:url(#SVGID_33_);}
</style>
<g>
	<g>
		<linearGradient id="SVGID_1_" gradientUnits="userSpaceOnUse" x1="1199.488" y1="1618.2386" x2="1233.652" y2="1618.2386">
			<stop  offset="0" style="stop-color:#FFCE00"/>
			<stop  offset="0.7622" style="stop-color:#FFC300"/>
			<stop  offset="1" style="stop-color:#FFBF00"/>
		</linearGradient>
		<path class="st0" d="M1233.2,1618c0.5-3,0.6-6.2,0.1-9.5c-0.4-3.3-1.4-6.3-2.8-9c-2.8-5.4-6.5-8.2-11.1-8.2
			c-4.6,0-8.9,2.7-12.9,8.2c-1.9,2.6-3.5,5.6-4.6,8.8c-1.1,3.3-1.9,6.6-2.2,10c-0.4,3.4-0.3,6.8,0.1,10c0.4,3.3,1.4,6.2,2.8,8.8
			c1.9,3.5,4.4,5.8,7.3,7c2.9,1.1,5.8,1.1,8.8-0.1c-1.1-2.5-1.5-5.1-1.5-7.9c0.1-2.8,0.6-5.4,1.5-7.9
			C1221.9,1622.5,1226.7,1619.1,1233.2,1618z"/>
		<linearGradient id="SVGID_2_" gradientUnits="userSpaceOnUse" x1="1547.9878" y1="1615.567" x2="1579.3177" y2="1615.567">
			<stop  offset="0" style="stop-color:#FFCE00"/>
			<stop  offset="0.7622" style="stop-color:#FFC300"/>
			<stop  offset="1" style="stop-color:#FFBF00"/>
		</linearGradient>
		<path class="st1" d="M1573.9,1593.2c-1.7-1.2-3.5-1.9-5.5-2.1c-2-0.2-4.1,0.3-6.2,1.5c-2.1,1.1-4,2.9-5.8,5.1
			c-1.9,2.3-3.5,4.9-4.7,7.9c-1.2,3-2.2,6.1-2.8,9.2c-0.6,3.2-0.9,6.3-0.8,9.4c0.1,3.1,0.6,5.8,1.5,8.3c1.9,4.9,5.1,7.4,9.6,7.5
			c4.5,0.1,8.6-2.2,12.3-7c1.8-2.3,3.3-4.9,4.5-7.8c1.2-2.9,2.2-5.9,2.8-9c0.6-3.1,0.8-6.2,0.7-9.2c-0.2-3.1-0.7-5.8-1.6-8.3
			C1576.8,1596.3,1575.5,1594.5,1573.9,1593.2z"/>
		<linearGradient id="SVGID_3_" gradientUnits="userSpaceOnUse" x1="1900.6949" y1="1615.5181" x2="1914.5643" y2="1615.5181">
			<stop  offset="0" style="stop-color:#FFCE00"/>
			<stop  offset="0.7622" style="stop-color:#FFC300"/>
			<stop  offset="1" style="stop-color:#FFBF00"/>
		</linearGradient>
		<path class="st2" d="M1900.8,1624.4c-0.2,3.9,0,7.1,0.4,9.6c0.4,2.6,1.1,4.7,1.8,6.3c0.8,1.7,1.7,2.9,2.6,3.8c1,0.9,2,1.5,3,1.8
			c2,0.7,4,1,5.9,0.9c-0.1-0.9-0.3-1.8-0.4-2.7c-3.6-23.3-7-45.4-7.5-60.1c0,0.4-0.1,0.8-0.1,1.2L1900.8,1624.4z"/>
		<linearGradient id="SVGID_4_" gradientUnits="userSpaceOnUse" x1="329.0604" y1="1725.7841" x2="1923.3754" y2="1725.7841">
			<stop  offset="0" style="stop-color:#FFCE00"/>
			<stop  offset="0.7622" style="stop-color:#FFC300"/>
			<stop  offset="1" style="stop-color:#FFBF00"/>
		</linearGradient>
		<path class="st3" d="M1916.3,1675.3c-5.8,2.5-11.6,3.7-17.4,3.7c-7.4,0-13.6-1.7-18.6-5c-5-3.3-8.9-7.7-11.7-13.1
			c-1.4-2.7-2.6-5.5-3.5-8.5c-3.2,4.3-6.4,8-9.8,11.2c-5.7,5.4-11.5,9.3-17.4,11.7c-5.9,2.5-11.8,3.7-17.8,3.7
			c-7.6,0-13.9-1.7-19-5.1c-5.1-3.4-9.1-7.9-12-13.3c-1.5-2.9-2.8-6-3.7-9.2c-3,3.7-6.2,7-9.7,10c-6.6,5.6-14.5,10-23.7,13.1
			c-9.2,3.1-20.3,4.6-33.1,4.6c-4.2,0-8.6-0.5-13.1-1.6c-4.5-1.1-8.7-2.6-12.7-4.7c-4-2.1-7.5-4.8-10.7-8c-3.2-3.3-5.5-7.2-7.1-11.7
			c-1.1-3.2-1.5-6.3-1.3-9.5c0.2-3.2,0.9-6.1,2.1-8.8c1.2-2.7,2.9-5.1,5.1-7c2.2-1.9,4.9-3.3,8-4.2c4.4-0.9,8.2-0.5,11.5,1.1
			c3.3,1.6,5.7,3.8,7.4,6.7c1.7,2.9,2.5,6.1,2.5,9.6c0,3.5-1,6.8-2.9,9.8c0.7-0.2,1.8-0.7,3.4-1.5c1.6-0.8,2.8-1.5,3.7-2
			c4.6-3.7,6.5-7.8,5.8-12.3c-0.7-4.5-2.9-9.1-6.5-13.7c-3.6-4.7-8-9.3-13.3-14c-5.3-4.7-10.1-9.1-14.5-13.3
			c-3.3,10.9-6.9,20.3-10.7,28.2c-0.2,0.5-0.5,1-0.8,1.6c-7.3,18-15.5,31.3-24.5,40c-10.8,10.3-22.5,15.4-34.9,15.4
			c-8.6,0-15.5-2-20.7-6.1c-5.2-4-9.1-9.4-11.7-16.1c-1.8,2.6-3.5,4.8-5.3,6.6c-4.9,5.6-10.4,9.7-16.4,12.3c-6,2.6-12,3.6-17.9,3.3
			c-6-0.4-11.6-2.2-16.7-5.5c-5.2-3.3-9.4-8.1-12.5-14.2c-1.3-2.5-2.5-5.1-3.4-7.8c-3.3,4.8-6.6,8.8-10.2,12.2
			c-10.8,10.3-22.6,15.4-35.2,15.4c-7.6,0-13.8-1.7-18.7-5c-4.9-3.3-8.8-7.7-11.7-13.2c-1.7-3.2-3-6.5-4-10.1
			c-3.2,3.7-6.6,6.8-10.1,9.3c-5.6,4-11.7,6.8-18.2,8.3c-6.5,1.5-13.5,2-21.1,1.5c-4,3.3-8.4,5.7-13.2,7.1c-4.7,1.4-9.4,2-13.8,1.8
			c-4.5-0.2-8.6-1.1-12.3-2.8c-3.7-1.7-6.5-3.9-8.4-6.7c-2.5-3.7-3.6-7.7-3.4-12c0.2-4.3,1.4-8.3,3.7-11.9c2.3-3.6,5.3-6.4,9.1-8.3
			c3.8-1.9,8-2.3,12.5-1.1c1.8-2.3,3.2-4.9,4.4-7.9c1.1-3,1.9-6.1,2.4-9.2c0.4-3.2,0.5-6.3,0.1-9.4c-0.4-3.1-1.1-5.8-2.1-8.3
			c-1.1-2.5-2.6-4.4-4.5-5.7c-1.9-1.3-4-2.1-6.1-2.2c-2.1-0.2-4.2,0.4-6.2,1.6c-2,1.2-3.7,3.1-5.1,5.5c-2.5,4.6-4.5,9.7-6.1,15.4
			c-1.6,5.7-2.9,11.5-3.8,17.4c-1,5.9-1.7,11.6-2.2,17.1c-0.5,5.5-1,10.5-1.3,14.9l-2.6,70.2c-0.4,4.2-1.2,8-2.6,11.3
			c-1.4,3.3-3.8,6.1-7.1,8.2c-3.3,2.1-7.9,3.7-13.6,4.7s-13,1.4-21.8,1.1l13.4-103c-0.7,0.5-1.4,1-2.1,1.5
			c-11.6,7.7-25.1,10.9-40.6,9.5c-6,3.9-12.2,6.6-18.7,8.3c-6.5,1.7-13,2.2-19.5,1.7c-6.5-0.5-12.8-2.2-18.7-4.9
			c-6-2.7-11.3-6.6-16.1-11.7c-4-4.1-7.2-8.5-9.6-13.4c-4,5.9-8.2,10.9-12.5,14.8c-11.3,10.3-22.8,15.4-34.6,15.4
			c-7.4,0-13.8-1.1-19.4-3.3c-5.5-2.2-10-5.8-13.3-10.7c-3.3-4.9-5.5-11.4-6.5-19.5c-1-8.1-0.7-18,0.9-29.8l2.9-21.9
			c0.5-3.3,0.4-5.7-0.4-7.1c-0.8-1.4-1.9-1.8-3.4-1.3c-1.5,0.5-3.3,2-5.3,4.4c-2,2.4-3.9,5.5-5.7,9.4c-3,6.5-5.9,15-8.8,25.6
			s-5.1,22.9-6.5,36.9c-0.5,3.3-1.5,6.2-2.8,8.4c-1.3,2.3-3.3,4.1-6.1,5.4c-2.7,1.3-6.3,2.3-10.8,2.9c-4.5,0.6-10.2,0.8-17,0.7
			l2.1-24.4c-2.6,3.4-5.3,6.4-8,9c-5.5,5.4-11.2,9.3-17,11.7c-5.8,2.5-11.6,3.7-17.4,3.7c-7.4,0-13.6-1.7-18.6-5
			c-5-3.3-8.9-7.7-11.7-13.1c-1.5-2.9-2.8-6.1-3.7-9.4c-3.3,4.5-6.6,8.4-10,11.8c-5.5,5.4-11.1,9.3-16.9,11.9
			c-5.8,2.6-11.6,3.8-17.4,3.8c-6.2,0-12-0.7-17.5-2c-5.5-1.3-10.2-4.2-14.1-8.7c-3.9-4.5-6.5-10.9-7.9-19.4
			c-1.4-8.4-1-19.6,1.3-33.5c1.6-8.6,2-15.1,1.3-19.4c-0.7-4.3-1.8-7.2-3.4-8.6c-1.6-1.4-3.3-1.8-5.1-1.1c-1.8,0.7-3.1,1.7-3.8,2.9
			c-2.5,3.9-4.3,8.7-5.4,14.4c-1.1,5.7-2,12.4-2.6,19.9c-0.6,7.6-1.2,16-1.7,25.3c-0.5,9.3-1.4,19.3-2.6,30.1
			c-4.9,0-9.8-0.1-14.6-0.4c-4.8-0.3-9.1-1.1-12.9-2.4c-3.8-1.3-6.7-3.4-8.7-6.2c-2-2.8-2.8-6.8-2.2-11.9l7.4-61.7
			c0.7-7.6-0.2-11.5-2.8-11.9c-2.6-0.4-5.6,2.4-9.2,8.3c-3.6,5.9-7.3,14.7-11.1,26.5c-3.8,11.8-6.6,26-8.6,42.7
			c-0.7,3.3-1.5,6.1-2.4,8.3c-0.9,2.2-2.6,4-5.1,5.3c-2.6,1.3-6.2,2.2-10.8,2.8c-4.7,0.5-11,0.7-19.1,0.5l2.2-25.5
			c-2.2,2.2-4.5,4.1-7,5.7c-11.6,7.7-25.1,10.9-40.6,9.5c-6,3.9-12.2,6.6-18.7,8.3c-6.5,1.7-13,2.2-19.5,1.7
			c-6.5-0.5-12.8-2.2-18.7-4.9c-6-2.7-11.3-6.6-16.1-11.7c-3.8-3.9-6.8-8.1-9.3-12.6c-3.6,5.6-7.5,10.3-11.4,14.1
			c-10.8,10.3-22.5,15.4-34.9,15.4c-8.4,0-15.3-2.1-20.6-6.2c-5.3-4.1-9.2-9.4-11.9-16c-0.9,1.2-1.8,2.4-2.6,3.6
			c-0.9,1.1-1.8,2.2-2.6,3c-4.7,5.6-10.1,9.7-16.1,12.3c-6,2.6-11.9,3.6-17.8,3.3c-5.9-0.4-11.5-2.2-16.7-5.5
			c-5.3-3.3-9.6-8.1-12.9-14.2c-1.6-3-2.9-6.3-3.9-9.7c-3.5,4.2-7.2,7.7-11.1,10.5c-5.6,4-11.7,6.8-18.2,8.3
			c-6.5,1.5-13.5,2-21.1,1.5c-4,3.3-8.4,5.7-13.2,7.1c-4.7,1.4-9.4,2-13.8,1.8c-4.5-0.2-8.6-1.1-12.3-2.8c-3.7-1.7-6.5-3.9-8.4-6.7
			c-2.5-3.7-3.6-7.7-3.4-12c0.2-4.3,1.4-8.3,3.7-11.9c2.3-3.6,5.3-6.4,9.1-8.3c3.8-1.9,8-2.3,12.5-1.1c1.8-2.3,3.2-4.9,4.4-7.9
			c1.1-3,1.9-6.1,2.4-9.2c0.4-3.2,0.5-6.3,0.1-9.4c-0.4-3.1-1.1-5.8-2.1-8.3c-1.1-2.5-2.6-4.3-4.7-5.5c-2.1-1.2-4.4-1.8-6.7-1.7
			c-2.4,0.1-4.7,0.8-7,2.1c-2.3,1.3-4.1,3.2-5.5,5.7c-0.5,0.9-0.9,1.9-1.2,3.2c-0.3,1.2-0.7,3.9-1.2,8c-0.5,4.1-1.4,10.2-2.5,18.2
			c-1.1,8-2.8,19.2-4.9,33.6c-1.8,4-4.2,7.1-7.3,9.1c-3.1,2-6.3,3.4-9.8,4.2c-0.3,0.1-0.6,0.1-0.9,0.2c-2.2,16.2-4,32.4-4,43.8
			c12-12.1,32.3-17.9,61.8-17.9c98.6,0,281.2,67.3,379.3,103.4c24,8.9,43,15.8,53.3,19.1c83,26.1,190.5,40.5,302.7,40.5
			c112.2,0,219.7-14.4,302.6-40.5c10.3-3.2,29.2-10.2,53.2-19c98.1-36.1,280.7-103.4,379.3-103.4c29.7,0,50.2,6,62.1,18.2
			c-0.1-12.2-2.3-30.4-4.8-48.1C1917.9,1674.6,1917.1,1674.9,1916.3,1675.3z"/>
		<linearGradient id="SVGID_5_" gradientUnits="userSpaceOnUse" x1="641.6501" y1="1618.2386" x2="675.8141" y2="1618.2386">
			<stop  offset="0" style="stop-color:#FFCE00"/>
			<stop  offset="0.7622" style="stop-color:#FFC300"/>
			<stop  offset="1" style="stop-color:#FFBF00"/>
		</linearGradient>
		<path class="st4" d="M675.4,1618c0.5-3,0.6-6.2,0.1-9.5c-0.4-3.3-1.4-6.3-2.8-9c-2.8-5.4-6.5-8.2-11.1-8.2
			c-4.6,0-8.9,2.7-12.9,8.2c-1.9,2.6-3.5,5.6-4.6,8.8c-1.1,3.3-1.9,6.6-2.2,10c-0.4,3.4-0.3,6.8,0.1,10c0.4,3.3,1.4,6.2,2.8,8.8
			c1.9,3.5,4.4,5.8,7.3,7c2.9,1.1,5.8,1.1,8.8-0.1c-1.1-2.5-1.5-5.1-1.5-7.9c0.1-2.8,0.6-5.4,1.5-7.9
			C664,1622.5,668.9,1619.1,675.4,1618z"/>
		<linearGradient id="SVGID_6_" gradientUnits="userSpaceOnUse" x1="494.0375" y1="1615.632" x2="525.4521" y2="1615.632">
			<stop  offset="0" style="stop-color:#FFCE00"/>
			<stop  offset="0.7622" style="stop-color:#FFC300"/>
			<stop  offset="1" style="stop-color:#FFBF00"/>
		</linearGradient>
		<path class="st5" d="M519.9,1593.4c-1.7-1.3-3.5-2.1-5.5-2.2c-2-0.2-4.1,0.3-6.2,1.5c-2.1,1.1-4,2.9-5.8,5.1
			c-1.9,2.5-3.5,5.1-4.7,8c-1.2,2.9-2.2,5.9-2.8,9.1c-0.6,3.2-0.9,6.3-0.8,9.4c0.1,3.1,0.6,5.9,1.5,8.6c1.9,4.9,5.1,7.4,9.6,7.4
			c4.5,0,8.6-2.3,12.3-6.9c3.5-4.7,5.9-10.4,7.3-17s1-12.4-0.9-17.3C522.8,1596.6,521.6,1594.7,519.9,1593.4z"/>
		<g>
			<linearGradient id="SVGID_7_" gradientUnits="userSpaceOnUse" x1="335.3276" y1="1773.2982" x2="545.3579" y2="1773.2982">
				<stop  offset="0" style="stop-color:#FFCE00"/>
				<stop  offset="0.7622" style="stop-color:#FFC300"/>
				<stop  offset="1" style="stop-color:#FFBF00"/>
			</linearGradient>
			<path class="st6" d="M411.5,1769c88.6,31.9,112.1,40.5,114.6,41.8l1.4,0.7c6,3,12.5,6.4,17.7,11.1c-0.1-4.3-0.3-8.7-0.7-13.1
				c-0.4-4.8-0.7-8.5-0.4-11.6c1.1-14.9,1.4-29.2,1.3-43.5c-60.4-17.4-118.7-30.3-160.4-30.3c-17.9,0-40.6,2.5-49.6,14.3
				c0.4,1,1.5,2.2,3,3.7c4.9,2.2,11.7,4.6,15.3,5.9C360.8,1750.7,384.2,1759.1,411.5,1769z"/>
			<linearGradient id="SVGID_8_" gradientUnits="userSpaceOnUse" x1="79.2426" y1="1805.7241" x2="534.8235" y2="1805.7241">
				<stop  offset="0" style="stop-color:#FFCE00"/>
				<stop  offset="0.7622" style="stop-color:#FFC300"/>
				<stop  offset="1" style="stop-color:#FFBF00"/>
			</linearGradient>
			<path class="st7" d="M251.1,1739.4c-50.1,0-93.5-13.5-123.2-30.5c12.4,27.3,29.5,43.3,52.6,64.9l13.1,12.3l-5.5,7.2
				c-19.5,25.4-60.1,30.8-90.8,30.8c-6.3,0-12.4-0.2-18-0.6c17.8,14.9,47.1,31.8,65.4,38.6c78.4,28.9,137,40.7,202.3,40.7
				c28.8,0,59.8-2.4,94.8-7.4c24.7-3.5,36.9-8.9,52.2-15.6c6.9-3.1,14.1-6.2,23.2-9.5c0.4-0.4,0.9-0.7,1.4-1.1
				c7.6-5.4,12.2-10,13.6-13.9c5.9-16,2.1-17.9-13.8-25.9l-1.3-0.7c-4.1-1.8-69.3-25.3-112.4-40.8c-27.3-9.9-50.8-18.3-58-21
				c-6.3-2.3-11.5-4.3-15.8-6.2c-5.8-1.1-15.2-6.7-18.2-8.9c-4.6-3.5-7.4-9.2-8.6-17.7C286.8,1737.6,269.1,1739.4,251.1,1739.4
				L251.1,1739.4z"/>
		</g>
		<g>
			<linearGradient id="SVGID_9_" gradientUnits="userSpaceOnUse" x1="1694.8654" y1="1773.2982" x2="1904.8711" y2="1773.2982">
				<stop  offset="0" style="stop-color:#FFCE00"/>
				<stop  offset="0.7622" style="stop-color:#FFC300"/>
				<stop  offset="1" style="stop-color:#FFBF00"/>
			</linearGradient>
			<path class="st8" d="M1714.1,1810.8c2.6-1.3,27.5-10.4,116.1-42.3c26.7-9.6,49.4-17.8,56.5-20.4c3.6-1.3,10.4-3.8,15.3-6
				c1.5-1.5,2.5-2.7,2.9-3.7c-9-11.8-31.6-14.3-49.6-14.3c-41.8,0-100,12.8-160.4,30.3c-0.1,14.3,0.2,28.6,1.2,43.5
				c0.2,3.1,0,6.9-0.4,11.7c-0.3,4.4-0.6,8.7-0.7,13c5.1-4.7,11.7-8,17.6-11L1714.1,1810.8z"/>
			<linearGradient id="SVGID_10_" gradientUnits="userSpaceOnUse" x1="1705.3938" y1="1805.7189" x2="2161.0098" y2="1805.7189">
				<stop  offset="0" style="stop-color:#FFCE00"/>
				<stop  offset="0.7622" style="stop-color:#FFC300"/>
				<stop  offset="1" style="stop-color:#FFBF00"/>
			</linearGradient>
			<path class="st9" d="M1927.6,1751.7c-2.4,1.8-12.1,7.9-18.2,9c-4.3,1.9-9.6,3.9-15.8,6.2c-7.1,2.6-29.8,10.8-56.6,20.4
				c-43.7,15.8-109.7,39.6-114.2,41.5l-1,0.5c-15.8,8.1-19.6,10-13.7,25.9c1.4,3.8,6,8.5,13.6,13.8c0.5,0.4,1,0.7,1.4,1.1
				c9,3.3,16.2,6.4,23.1,9.5c15.4,6.7,27.5,12.1,52.2,15.6c34.9,5,65.9,7.4,94.8,7.4c65.4,0,124-11.8,202.4-40.7
				c18.3-6.8,47.6-23.6,65.4-38.6c-5.7,0.4-11.8,0.6-18.1,0.6c-30.6,0-71.2-5.3-90.7-30.8l-5.5-7.2l13-12.2
				c23.1-21.6,40.2-37.6,52.7-65c-29.7,17-73.1,30.5-123.3,30.5c-18,0-35.7-1.8-53-5.3C1934.9,1742.5,1932.2,1748.2,1927.6,1751.7z"
				/>
		</g>
		<linearGradient id="SVGID_11_" gradientUnits="userSpaceOnUse" x1="329.4792" y1="1526.4204" x2="1922.7546" y2="1526.4204">
			<stop  offset="0" style="stop-color:#FFCE00"/>
			<stop  offset="0.7622" style="stop-color:#FFC300"/>
			<stop  offset="1" style="stop-color:#FFBF00"/>
		</linearGradient>
		<path class="st10" d="M1911.9,1534.1c-2.1,3-4.7,5.5-7.6,7.4c-3,1.9-6.1,3.3-9.4,4c-3.3,0.7-6.6,0.8-10,0.1
			c-3.4-0.6-6.6-2-9.6-4.1c-6.2-4-9.9-9.7-11.2-16.9c-1.3-7.2,0-13.9,4.1-20c2.1-3,4.6-5.4,7.5-7.4c2.9-1.9,6-3.3,9.2-4
			c3.3-0.7,6.6-0.7,10-0.1c3.4,0.6,6.6,2,9.6,4.1c3.2,1.9,5.7,4.4,7.5,7.4c1.8,3,3.1,6.2,3.8,9.5c0.5,2.5,0.7,5,0.5,7.5
			c5.1-21.4,9.4-41.3,3.7-52c-22.7-41.8-96.4-63.9-212.9-63.9c-142.3,0-302.6,32.6-348.5,50.1c-59.5,22.6-144.3,35.5-232.5,35.5
			c-88.2,0-172.9-12.9-232.4-35.5c-46-17.5-206.3-50.1-348.6-50.1c-116.5,0-190.1,22.1-212.9,63.9c-2.9,5.4-3.2,13.2-2.2,22.4
			c4-0.3,7.6-0.3,10.6,0c3.3,0.3,6.9,0.8,10.7,1.7c3.8,0.9,7.2,2.4,10.2,4.6c3,2.2,5.4,5.2,7.1,9c1.8,3.8,2.3,8.7,1.6,14.6
			l-6.6,46.4c4.9-4.2,10.2-7.2,15.7-8.8c5.5-1.7,11-2.1,16.5-1.3c5.4,0.8,10.5,2.8,15.2,6.1c4.7,3.3,8.6,7.8,11.7,13.6
			c2.5,4.7,4.3,9.9,5.5,15.4c1.2,5.5,1.8,11.3,1.8,17.1c0,5.9-0.6,11.8-1.8,17.8c-1.2,6-3,11.7-5.3,17.1c5.8,0,11.2-2.5,16.2-7.5
			c5-5,9.7-11.5,14.3-19.7c0.1-1.1,0.2-2.1,0.4-3.2c1.1-7.8,3.1-15.4,6.2-22.8s7-13.9,11.7-19.5c3.9-4.4,8.3-7.9,13.5-10.6
			c5.1-2.6,10.4-4.1,15.8-4.4c5.4-0.3,10.8,0.8,16,3c5.2,2.3,9.8,6.2,13.8,11.6l2.4-56.7c0.2-2.3,0.9-5,2.2-8
			c1.3-3.1,3.7-5.9,7.1-8.6s8.1-4.7,14-6.1c5.9-1.4,13.5-1.6,22.8-0.5l-16.1,131.6c-0.4,4.2-0.4,7.6,0,10.3c0.3,2.6,0.9,4.7,1.7,6.3
			s1.8,2.8,2.9,3.6c1.1,0.8,2.2,1.4,3.3,1.7c3.9,1.4,7.5,1.3,10.8-0.4c3.3-1.7,6.5-4.3,9.6-7.8c3.1-3.5,6-7.8,8.8-12.8
			c0.2-0.3,0.4-0.7,0.6-1.1c-0.1-1.4-0.1-2.7-0.1-4.1c0.2-7.7,1.8-15.3,5-22.8c3.2-7.5,7.7-14.3,13.7-20.4c6-6,12.7-10.6,20-13.7
			c7.4-3.2,14.8-4.9,22.3-5.1c7.5-0.3,14.8,1,21.9,3.7c7.1,2.7,13.5,7,19.1,12.8c9.3,9.5,14.7,20.4,16.1,32.7
			c1.4,12.3-1,24.4-7.1,36.1c3.7,0.4,8.3-1.4,13.8-5.3c5.5-3.9,10.5-10.5,14.9-19.8h0l5.3-60.4c2.1,0,5.3,0,9.6,0
			c4.3,0,8.6,0.4,12.8,1.2c4.2,0.8,7.9,2.2,10.9,4.2c3.1,2,4.4,5.1,4.1,9.4c4.6-6.2,10.2-10.8,16.9-14c6.7-3.2,13.5-4.7,20.6-4.7
			c5.1,0,9.8,1.5,14,4.4c4.2,2.9,6.9,7.2,8.2,12.8c2.3-2.8,5-5.4,8.2-7.8s6.5-4.4,9.9-5.9s6.9-2.7,10.6-3.3
			c3.6-0.6,7.1-0.7,10.4-0.1c4.9,0.9,9,2.6,12.3,5c3.3,2.5,5.6,6.3,7.1,11.5c1.5,5.2,2.1,12.1,1.7,20.8c-0.4,8.7-1.6,19.7-3.7,33.1
			c-0.7,4.4-0.8,8-0.4,10.8c0.4,2.8,1.1,5.1,2,6.7c0.9,1.7,1.8,2.8,2.9,3.4c1.1,0.6,1.8,1,2.4,1.2c3.9,0.9,7.6,0.4,11.1-1.3
			c3.5-1.8,6.8-4.4,9.9-7.9c3.1-3.5,6.1-7.7,9-12.5c1.2-1.9,2.3-3.9,3.4-5.9l6-60.9c4,0.2,7.6,0.4,10.5,0.8c3,0.4,6.2,1.1,9.6,2.1
			c3.4,1.1,6.5,2.6,9.4,4.6c2.8,2,5,4.7,6.6,7.9c1.6,3.3,2.1,7.3,1.6,12.3l-5.8,39c-0.2,3.9,0,7.1,0.4,9.6c0.4,2.6,1.1,4.7,1.8,6.3
			c0.8,1.7,1.7,2.9,2.6,3.8c1,0.9,2,1.5,3,1.8c3.9,1.4,7.5,1.3,10.8-0.4c3.3-1.7,6.5-4.3,9.5-7.8c3-3.5,5.9-7.8,8.7-12.8
			c2.5-4.5,5-9.2,7.3-14l4.5-53.4c1.2,0,3.9,0,7.9,0c4,0,8.2,0.4,12.4,1.3c4.2,0.9,7.9,2.5,10.9,4.7c3.1,2.3,4.1,5.9,3,10.8
			c2.5-3.3,5.4-6.2,8.7-8.7c3.3-2.5,6.8-4.5,10.3-6.2c3.5-1.7,7-2.9,10.5-3.6c3.5-0.7,6.8-1.1,9.8-1.1c6,0.4,10.7,1.8,14.1,4.4
			c3.4,2.6,6,5.8,7.6,9.8c1.7,4,2.7,8.4,3,13.3c0.3,4.9,0.3,9.9-0.3,14.9c-0.5,5-1.2,9.9-2.1,14.6c-0.9,4.7-1.6,8.9-2.1,12.4
			c-0.7,4-0.9,7.4-0.5,10c0.4,2.6,1,4.8,1.8,6.5c0.9,1.7,1.9,2.9,3,3.7c1.1,0.8,2.2,1.3,3,1.5c3.9,0.9,7.5,0.5,10.9-1.2
			c3.4-1.7,6.7-4.3,9.8-7.8c3.1-3.5,6-7.7,8.8-12.5c0.5-0.9,1.1-1.8,1.6-2.8c0-0.6,0-1.2,0-1.8c0.2-7.7,1.8-15.3,5-22.8
			c3.2-7.5,7.7-14.3,13.7-20.4c6-6,12.7-10.6,20-13.7c7.4-3.2,14.8-4.9,22.3-5.1c7.5-0.3,14.8,1,21.9,3.7c7.1,2.7,13.5,7,19.1,12.8
			c9.3,9.5,14.7,20.4,16.1,32.7c1.4,12.3-1,24.4-7.1,36.1c3.7,0.4,8.3-1.4,13.8-5.3c4-2.8,7.8-7.1,11.2-12.8l8.7-66.8
			c1.1,0,3.2,0,6.3-0.1c3.2-0.1,6.4,0.3,9.8,1.1c3.3,0.8,6.3,2.3,9,4.6c2.6,2.3,4.1,5.9,4.5,10.8c0.2-0.4,0.4-0.6,0.5-0.7
			c0.2-0.1,0.4-0.2,0.5-0.4c4.9-5.6,10.4-9.8,16.4-12.4c6-2.6,12-3.7,17.9-3.3c6,0.4,11.6,2.3,16.9,5.7c5.3,3.3,9.6,8.2,12.9,14.5
			c2.5,4.7,4.3,9.9,5.5,15.4c1.2,5.5,1.8,11.3,1.8,17.1c0,5.9-0.6,11.8-1.8,17.8c-1.2,6-3,11.7-5.3,17.1c5.8,0,11.2-2.5,16.2-7.5
			c5-5,9.7-11.6,14.3-19.7l13.5-126c1.2,0,3.3,0,6.1,0c2.8,0,5.8,0.3,9.1,0.9c3.3,0.6,6.6,1.6,10,3c3.4,1.4,6.5,3.5,9.1,6.2
			c2.6,2.7,4.6,6.2,5.9,10.6c1.3,4.3,1.5,9.7,0.7,16.2l-16.4,95c-0.4,4.2-0.3,7.6,0.1,10.2c0.4,2.6,1.1,4.6,1.8,6.2s1.7,2.8,2.8,3.6
			c1.1,0.8,2.1,1.4,3.2,1.7c3.9,1.4,7.5,1.3,10.8-0.4c3.3-1.7,6.5-4.3,9.5-7.8c3-3.5,5.9-7.8,8.7-12.8c1-1.8,2-3.6,3-5.4
			c0.1-1.5,0.3-3,0.5-4.5c1.1-7.9,3.1-15.6,6.1-22.9c3-7.4,6.9-13.9,11.6-19.5c4.4-4.9,9.3-8.6,14.8-11.1c5.4-2.5,10.9-3.7,16.4-3.7
			c5.4,0,10.7,1.2,15.7,3.7c5,2.5,9.4,6.1,13.1,10.8c0.9-4.7,2.6-8.3,5.1-10.7c2.5-2.4,6.7-4.1,12.4-5.3c5.7-1.1,13.8-0.5,24.4,2
			l-9.8,66.2c-0.5,4-0.6,7.4-0.3,10c0.3,2.6,0.9,4.7,1.7,6.3c0.8,1.6,1.8,2.7,2.9,3.4c1.1,0.7,2.2,1.1,3.3,1.3
			c3.9,1.4,7.5,1.3,10.8-0.3c3.3-1.6,6.5-4.1,9.6-7.6c0.5-0.6,1-1.2,1.5-1.8c1.7-2.4,3.6-5.5,5.7-9.4c3-5.4,5.8-11.2,8.4-17.5
			s4.9-12.9,6.9-19.6c1.9-6.8,2.9-13,2.9-18.6c0-5.8,1.8-10.6,5.3-14.4c3.5-3.8,7.7-6.3,12.7-7.6c4.9-1.3,10-1.3,15.2,0
			c5.2,1.3,9.5,4.3,12.8,8.8c1.4,4.2,3.9,8.4,7.4,12.7c3.5,4.2,7.4,8.6,11.7,13.1c4.3,4.5,8.6,9.1,12.9,13.7
			c4.3,4.7,7.9,9.6,10.8,14.9c2.9,5.3,4.7,10.8,5.3,16.6c0.6,5.8-0.7,12-3.8,18.5c5.4-3.3,10.3-8,14.6-14c2.7-3.7,5.3-8.2,7.8-13.4
			l5.3-57.8h-15.6c-0.3-3.5-0.2-6.6,0.4-9.4c0.6-2.7,1.5-5.1,2.5-7c1.1-1.9,2.2-3.4,3.4-4.5c1.2-1.1,2.3-1.6,3.2-1.6h7.9l4-46.9
			c0.9,0,2.6,0,5.1-0.1c2.5-0.1,5.4,0,8.4,0.3c3.1,0.3,6.3,0.8,9.8,1.6c3.4,0.8,6.5,2.2,9.2,4.1c2.7,1.9,4.8,4.5,6.3,7.8
			c1.5,3.3,2.1,7.4,1.7,12.5l-2.4,20.8h13.5c0,0.9,0,2.5,0,4.9c0,2.4-0.3,4.9-0.9,7.5c-0.6,2.6-1.7,5-3.3,7c-1.6,2-3.9,3-6.9,3h-6.3
			l-8.2,62c-0.5,4.7-0.5,8.6,0,11.6c0.5,3,1.3,5.3,2.4,7c1.1,1.7,2.2,2.8,3.4,3.4c1.2,0.6,2.2,1,2.9,1.2c3.9,0.7,7.6,0.1,11.1-1.7
			c3.5-1.8,6.9-4.6,10-8.2c3.2-3.6,6.2-7.9,9.1-12.9c1.2-2,2.3-4.1,3.5-6.1l5.9-60.2c4,0.2,7.6,0.4,10.5,0.8c3,0.4,6.2,1.1,9.6,2.1
			c3.4,1.1,6.5,2.6,9.4,4.6c2.8,2,5,4.7,6.6,7.9c0.9,1.8,1.4,3.9,1.6,6.2c0.2-16.5,4-33.4,7.9-49.9
			C1913.8,1530.9,1913,1532.6,1911.9,1534.1z M998.9,1524.3c-0.6,3.4-2,6.7-4.1,9.9c-2.1,3-4.7,5.5-7.6,7.4c-3,1.9-6.1,3.3-9.4,4
			c-3.3,0.7-6.6,0.8-10,0.1c-3.4-0.6-6.6-2-9.6-4.1c-6.2-4-9.9-9.7-11.2-16.9c-1.3-7.2,0-13.9,4.1-20c2.1-3,4.6-5.4,7.5-7.4
			c2.9-1.9,6-3.3,9.2-4c3.3-0.7,6.6-0.7,10-0.1c3.4,0.6,6.6,2,9.6,4.1c3.2,1.9,5.7,4.4,7.5,7.4c1.8,3,3.1,6.2,3.8,9.5
			C999.4,1517.4,999.5,1520.8,998.9,1524.3z"/>
	</g>
	<g>
		<g>
			<path class="st11" d="M895,496.7c-4.1-5.5-8.7-10.4-13.7-15c-8.7,0.2-17.3,0.6-25.9,1.1c-19.5,1.1-39,3-58,5.6
				c-9.2,1.2-17.8,2.6-24.3,3.6c-6.5,1.1-12.4,2.2-18.1,3.3l-2.5,0.5c-6,1.2-11.4,2.4-16.5,3.5c-0.4,0.1-0.8,0.2-1.2,0.3
				c2.7,3.9,6.2,6.5,10.6,7.6l-14.9,143.6c-5.2,2.4-9.8,5.9-13.8,10.6c-3.3,4-6.3,9.5-9,16.4c-2.7,7-3.6,16.1-2.7,27.4h89.1
				c21,0,39.3-3.5,55-10.4c15.7-7,28.8-16.2,39.3-27.8c10.5-11.5,18.4-24.6,23.9-39.3c5.4-14.6,8.3-29.6,8.7-45.1
				c0.4-15.4-1.7-30.6-6-45.6C910.6,522.1,904,508.6,895,496.7z M864.3,577.5c-0.9,12.5-4.4,24-10.3,34.5
				c-5.9,10.5-14.1,19.2-24.8,26c-10.6,6.8-23.5,9.9-38.5,9.2l11-138.6c15.1-0.9,27.4,1.9,37,8.7c9.5,6.7,16.4,15.3,20.7,25.8
				C863.5,553.6,865.2,565.1,864.3,577.5z"/>
		</g>
		<path class="st11" d="M1774.5,611.1c-5.2,13.4-10.7,24.2-16.4,32.2c-5.8,8-12.3,14.3-19.6,18.7c4.2-8.7,6-17,5.1-24.8
			c-0.8-7.8-3.2-15.2-7.1-22.3c-3.9-7.1-8.7-13.7-14.5-20c-5.8-6.2-11.6-12.4-17.3-18.4c-5.8-6-11-11.8-15.7-17.5
			c-4.7-5.7-8-11.3-9.9-17c-4.5-6.1-10.2-10.1-17.2-11.8c-7-1.8-13.7-1.8-20.3,0c-6.6,1.8-12.3,5.2-17,10.3
			c-4.7,5.1-7.1,11.5-7.1,19.3c0,7.5-1.3,15.9-3.9,24.9c-2.6,9.1-5.7,17.9-9.2,26.3c-3.5,8.5-7.3,16.3-11.3,23.5
			c-3.5,6.4-6.6,11.3-9.2,14.8c-0.3,0.2-0.6,0.4-0.8,0.6c-7.4,5.2-13.6,7.5-18.6,7.1c8.3-15.8,11.4-31.9,9.5-48.5
			c-1.9-16.5-9.1-31.1-21.6-43.9c-7.5-7.8-16.1-13.5-25.6-17.2c-9.5-3.7-19.3-5.3-29.4-5c-10,0.4-20,2.7-29.9,6.9
			c-9.9,4.2-18.9,10.4-26.9,18.4c-8,8.3-14.1,17.4-18.4,27.4c-4.2,10-6.5,20.2-6.7,30.6c0,2,0,4,0.1,6c-6.1,10.7-12.8,19-20.3,25.1
			c-11.6,9.4-23,14.4-34.3,14.9c-4.2,0-8.4-0.6-12.4-1.8c-4-1.2-7.7-2.9-11-5.3c-3.3-2.4-6.2-5.3-8.6-8.8c-2.4-3.5-3.9-7.5-4.6-12
			c3.3,1.4,7.4,2,12.4,1.8c5-0.2,10.1-1.3,15.6-3.2c5.4-1.9,10.8-4.6,16.1-8.1c5.3-3.5,9.9-8,13.8-13.4c3.9-5.4,6.8-11.6,8.7-18.6
			c1.9-7,2.1-14.9,0.7-23.9c-0.3-2.7-0.9-5.3-1.8-7.9c-3.4,0.4-7,0.8-10.9,1.1c-3.8,0.3-7.6,0.5-11.4,0.7l-0.3,0l-5.6,0.2
			c-1.4,0-2.7,0-4,0l-1.8,0c-8,0-15.9-0.3-23.4-0.9c-13.8-1-28.3-3.1-43.2-6.1c-2.5,2.5-4.9,5.3-7.1,8.2
			c-5.7,7.3-10.1,15.4-13.4,24.2c-2.9,7.9-4.7,16.3-5.2,25.2c-3.6,7.9-7.4,14.5-11.3,19.9c-5.8,8-12.3,14.3-19.6,18.7
			c4.2-8.7,6-17,5.1-24.8c-0.8-7.8-3.2-15.2-7.1-22.3c-3.9-7.1-8.7-13.7-14.5-20c-5.8-6.2-11.6-12.4-17.3-18.4
			c-5.8-6-11-11.8-15.7-17.5c-4.7-5.7-8-11.3-9.9-17c-4.5-6.1-10.2-10.1-17.2-11.8c-7-1.8-13.7-1.8-20.3,0
			c-6.6,1.8-12.3,5.2-17,10.3c-4.7,5.1-7.1,11.5-7.1,19.3c0,7.5-1.3,15.9-3.9,24.9c-2.6,9.1-5.7,17.9-9.2,26.3
			c-3.5,8.5-7.3,16.3-11.3,23.5c-2.5,4.5-4.8,8.3-6.8,11.4c-3.4,4.3-7,8-10.8,11.1c-11.6,9.4-23,14.4-34.3,14.9
			c-4.2,0-8.4-0.6-12.4-1.8c-4-1.2-7.7-2.9-11-5.3c-3.3-2.4-6.2-5.3-8.6-8.8c-2.4-3.5-3.9-7.5-4.6-12c3.3,1.4,7.4,2,12.4,1.8
			c5-0.2,10.1-1.3,15.6-3.2c5.4-1.9,10.8-4.6,16.1-8.1c5.3-3.5,9.9-8,13.8-13.4c3.9-5.4,6.8-11.6,8.7-18.6c1.9-7,2.1-14.9,0.7-23.9
			c-0.5-5-2.1-9.6-4.8-14c-2.7-4.4-6.3-8.2-10.6-11.5c-4.4-3.3-9.4-5.9-15-7.8c-5.7-1.9-11.7-2.8-18-2.8c-5.7,0-12.5,1-20.4,3
			c-7.9,2-15.1,5.4-21.5,10.1c-7.1,5-13.4,11.1-19.1,18.4c-5.7,7.3-10.1,15.4-13.4,24.2c-3.3,8.8-5.1,18.3-5.3,28.5
			c-0.2,10.1,1.4,20.5,5,31.1c2.4,6.1,5.8,12,10.4,17.7c4.6,5.7,10.1,10.7,16.6,15.2c6.5,4.5,13.9,8,22.2,10.6
			c8.3,2.6,17.2,3.9,26.7,3.9c13.7,0,26-2.1,37-6.4c11-4.2,20.7-10.3,29.2-18c8.5-7.8,15.9-17.2,22.3-28.3
			c4.4-7.6,8.3-15.9,11.6-24.8c4.9-10.4,9.5-22.6,13.8-36.7c5.9,5.7,12.4,11.6,19.5,17.9c7.1,6.3,13,12.5,17.9,18.7
			c4.8,6.3,7.7,12.4,8.7,18.4c0.9,6-1.7,11.5-7.8,16.4c-1.2,0.7-2.8,1.6-5,2.7c-2.1,1.1-3.7,1.7-4.6,1.9c2.6-4,3.9-8.4,3.9-13.1
			c0-4.7-1.1-9-3.4-12.9c-2.2-3.9-5.5-6.9-9.9-9c-4.4-2.1-9.5-2.6-15.4-1.4c-4.2,1.2-7.8,3.1-10.8,5.7c-3,2.6-5.3,5.7-6.9,9.4
			c-1.7,3.7-2.6,7.6-2.8,11.8c-0.2,4.2,0.4,8.5,1.8,12.7c2.1,6.1,5.3,11.4,9.5,15.7c4.2,4.4,9,8,14.3,10.8c5.3,2.8,11,5,17,6.4
			c6,1.4,11.8,2.1,17.5,2.1c17.2,0,32-2.1,44.4-6.2c12.4-4.1,23-10,31.8-17.5c6.6-5.7,12.6-12.2,17.8-19.7c2.2,4.7,5.1,9.3,8.7,13.7
			c4.6,5.7,10.1,10.7,16.6,15.2c6.5,4.5,13.9,8,22.2,10.6c8.3,2.6,17.2,3.9,26.7,3.9c13.7,0,26-2.1,37-6.4c11-4.2,20.7-10.3,29.2-18
			c5-4.6,9.6-9.8,13.9-15.5c3.3,6.2,7.5,12,12.6,17.3c6.4,6.8,13.6,12.1,21.6,15.7c8,3.7,16.4,5.8,25.1,6.5
			c8.7,0.7,17.4-0.1,26.2-2.3c8.7-2.2,17.1-6,25.1-11.1c20.7,1.9,38.9-2.4,54.5-12.7c13.2-8.8,23.7-23.4,31.4-43.7
			c1-2.1,2.1-4.1,3-6.2c5.1-10.6,9.8-23.2,14.3-37.8c5.9,5.7,12.4,11.6,19.5,17.9c7.1,6.3,13,12.5,17.9,18.7
			c4.8,6.3,7.7,12.4,8.7,18.4c0.9,6-1.7,11.5-7.8,16.4c-1.2,0.7-2.8,1.6-5,2.7c-2.1,1.1-3.7,1.7-4.6,1.9c2.6-4,3.9-8.4,3.9-13.1
			c0-4.7-1.1-9-3.4-12.9c-2.2-3.9-5.5-6.9-9.9-9c-4.4-2.1-9.5-2.6-15.4-1.4c-4.2,1.2-7.8,3.1-10.8,5.7c-3,2.6-5.3,5.7-6.9,9.4
			c-1.7,3.7-2.6,7.6-2.8,11.8c-0.2,4.2,0.4,8.5,1.8,12.7c2.1,6.1,5.3,11.4,9.5,15.7c4.2,4.4,9,8,14.3,10.8c5.3,2.8,11,5,17,6.4
			c6,1.4,11.8,2.1,17.5,2.1c17.2,0,32-2.1,44.4-6.2c12.4-4.1,23-10,31.8-17.5c8.8-7.5,16.4-16.7,22.8-27.6
			c6.4-10.8,12.3-23,17.7-36.4L1774.5,611.1z M996.2,605.1c0.2-1.9,1.1-4.1,2.5-6.5c1.4-2.5,3-4.8,4.8-6.9c1.8-2.1,3.7-3.8,5.8-5.1
			c2.1-1.3,4.1-1.9,6-1.9c2.6,0.2,4.2,1.5,4.8,3.9c0.6,2.4,0.4,5.1-0.5,8.1c-0.9,3.1-2.5,6.1-4.8,9.2c-2.2,3.1-4.9,5.3-8,6.7
			c-2.8,1.4-5.5,1.7-8.1,0.9C996,612.6,995.2,609.9,996.2,605.1z M1321.9,605.1c0.2-1.9,1.1-4.1,2.5-6.5c1.4-2.5,3-4.8,4.8-6.9
			c1.8-2.1,3.7-3.8,5.8-5.1c2.1-1.3,4.1-1.9,6-1.9c2.6,0.2,4.2,1.5,4.8,3.9c0.6,2.4,0.4,5.1-0.5,8.1c-0.9,3.1-2.5,6.1-4.8,9.2
			c-2.2,3.1-4.9,5.3-8,6.7c-2.8,1.4-5.5,1.7-8.1,0.9C1321.8,612.6,1320.9,609.9,1321.9,605.1z M1515.3,623.5
			c-8.7,1.4-15.2,6-19.5,13.8c-1.2,3.3-1.8,6.8-1.9,10.6c-0.1,3.8,0.5,7.3,1.9,10.6c-4,1.7-8,1.7-11.8,0.2c-3.9-1.5-7.1-4.7-9.7-9.4
			c-1.9-3.5-3.1-7.5-3.7-11.8c-0.6-4.4-0.7-8.8-0.2-13.4c0.5-4.6,1.5-9.1,3-13.4c1.5-4.4,3.6-8.3,6.2-11.8c5.4-7.3,11.2-11,17.3-11
			c6.1,0,11.1,3.7,14.9,11c1.9,3.5,3.1,7.5,3.7,12C1516.1,615.3,1516,619.5,1515.3,623.5z"/>
	</g>
	<g>
		<path class="st12" d="M349.2,535v-20.5h15.3v-18.1l23.1-21.1v39.2h21.7V535h-21.7v57.1c0,9.2,0.5,14.8,1.5,17
			c1,2.1,3.5,3.2,7.6,3.2c4.3,0,8.5-0.8,12.6-2.4v21c-5.9,2.1-11.8,3.2-17.7,3.2c-7,0-12.8-1.6-17.1-4.7c-4.4-3.1-7.1-7-8.3-11.7
			c-1.1-4.7-1.7-12.8-1.7-24.3V535H349.2z"/>
		<path class="st12" d="M554.5,611.6v20.5h-43.4v-13.5c-13.5,10.3-26.5,15.4-38.9,15.4c-7.9,0-14.4-1.7-19.5-5.2
			c-5.1-3.4-8.6-7.9-10.3-13.4c-1.7-5.5-2.6-14.3-2.6-26.4V535h-16.6v-20.5H463v71.7c0,8.7,0.2,14.5,0.7,17.5c0.5,3,1.9,5.5,4.3,7.4
			c2.3,1.9,5.3,2.9,8.9,2.9c10.7,0,22.1-5.1,34.3-15.3V535h-20.8v-20.5h43.9v97.1H554.5z"/>
		<path class="st12" d="M567.1,632.1v-40.3h20.7v3.9c0.7,5.5,3.7,10,8.9,13.6c5.2,3.6,11.4,5.3,18.5,5.3c7.5,0,13.4-1.3,17.9-3.9
			c4.5-2.6,6.7-6.2,6.7-10.8c0-4.5-1.8-7.7-5.5-9.8c-3.7-2.1-11-4-21.9-5.8c-16.2-2.7-27.8-7.2-34.7-13.3
			c-6.9-6.1-10.4-14-10.4-23.8c0-9.8,3.8-18,11.3-24.6c7.5-6.6,17.5-9.9,29.8-9.9c11.1,0,20.7,2.3,28.7,6.9v-5h20.5v39H637v-7.2
			c-6.2-9.6-15.3-14.5-27.2-14.5c-6.1,0-11.1,1.3-15,3.9c-3.9,2.6-5.9,6.1-5.9,10.5c0,4.5,1.8,7.5,5.4,9.2
			c3.6,1.7,11.4,3.4,23.3,5.3c11.4,1.8,20,3.9,25.9,6.2c5.8,2.4,10.7,6.4,14.5,11.9c3.8,5.6,5.8,12,5.8,19.4
			c0,10.9-4.2,19.6-12.6,26.1c-8.4,6.4-19.3,9.7-32.6,9.7c-12.6,0-22.8-2.9-30.7-8.6v6.6H567.1z"/>
	</g>
	<g>
		<path class="st12" d="M949.4,471.3l6.7-51.7c-5.4,0.3-10.8,0.6-16,1c-7.6,2.9-15.4,4.4-23.1,4.4c-4.1,0-8.2-0.2-12.2-0.6
			c-19.7,2.7-38.4,6.3-55.6,10.5c-22.2,5.4-42.1,11.8-59.3,18.3c-4.3,1.6-8.5,3.2-12.4,4.9c-4,1.7-7.8,3.2-11.4,4.9
			c-7.3,3.3-13.9,6.4-19.7,9.4c-2.9,1.5-5.7,2.9-8.3,4.4c-2.6,1.4-5,2.8-7.2,4.1c-2.2,1.3-4.2,2.5-6.1,3.6c-1.8,1.2-3.5,2.2-5,3.2
			c-5.9,3.8-8.9,6.2-8.9,6.2s3.6-1.1,10.3-2.8c3.4-0.8,7.5-1.8,12.4-3c4.9-1.1,10.5-2.3,16.8-3.6c6.3-1.2,13.3-2.6,20.9-3.8
			c7.6-1.2,15.8-2.5,24.6-3.7c17.5-2.3,37.3-4.4,58.8-5.6c21.5-1.3,44.7-1.8,69.2-1.1c3.1,0.1,6.1,0.2,9.2,0.3
			c1.5,0,3.1,0.1,4.7,0.1c1.6,0,3.1,0.2,4.7,0.2C944.8,471.1,947.1,471.2,949.4,471.3z"/>
		<path class="st12" d="M1543,369.8c0,0-1.3,3.6-3.5,10.1c-0.6,1.6-1.3,3.5-2,5.5c-0.7,2-1.5,4.2-2.4,6.5c-0.9,2.3-1.9,4.8-3,7.5
			c-1.1,2.6-2.3,5.4-3.5,8.3c-1.4,2.9-2.7,5.9-4.2,9c-1.6,3.1-3.1,6.4-5,9.6c-0.9,1.6-1.8,3.3-2.8,5c-1,1.7-2,3.3-3,5.1
			c-1,1.7-2.2,3.4-3.3,5.1c-0.6,0.9-1.1,1.7-1.7,2.6c-0.6,0.8-1.2,1.7-1.8,2.6c-4.9,6.9-10.5,13.7-16.9,20.2
			c-6.4,6.5-13.7,12.5-21.7,17.8c-1,0.7-2.1,1.3-3.1,1.9c-1,0.6-2,1.3-3.1,1.9c-2.1,1.2-4.3,2.4-6.5,3.5c-2.2,1.2-4.5,2.1-6.8,3.2
			c-1.1,0.5-2.3,1-3.5,1.5c-1.2,0.5-2.3,1-3.6,1.4c-4.8,1.8-9.8,3.3-14.9,4.6c-5.2,1.3-10.5,2.3-15.9,3.1
			c-21.8,3.2-45.9,2.3-70.7-1.7c-12.4-2-25-4.8-37.5-8.4c-6.3-1.7-12.6-3.7-18.8-5.8c-6.2-2.1-12.4-4.4-18.5-6.8
			c-3-1.2-6-2.5-8.8-3.7l-1.9-0.9l-2.5-1.2l-6-2.5c-7-2.9-14-5.8-21.1-8.7l-2.6-1.1c-0.9-0.4-1.8-0.7-2.7-1l-5.4-2
			c-3.6-1.3-7.2-2.6-10.8-3.9l-10.8-3.9l-11-3.5l-11-3.4l-5.5-1.7c-1.8-0.5-3.7-1-5.5-1.5c-7.4-2-14.8-4-22.2-6
			c-14.9-3.5-29.7-6.9-44.7-9.4c-9.7-1.7-19.5-3.2-29.1-4.4c-3.5,0.5-7,0.6-10.4,0.5c-6.1-0.2-11.9-1.4-17.2-3.5
			c-4.9-0.4-9.9-0.8-14.7-1.1l-2.2,58.2c20.3,2.9,40.9,6.7,61.6,11.2c3.4,0.8,6.8,1.5,10.2,2.3l5.1,1.1l5.1,1.3
			c3.4,0.9,6.8,1.7,10.2,2.6c3.4,0.9,6.8,1.7,10.2,2.6c6.8,1.9,13.5,3.9,20.3,5.8c1.7,0.5,3.4,0.9,5.1,1.4l5,1.6l10.1,3.2l10.1,3.2
			l10,3.5c3.3,1.2,6.7,2.3,10,3.5l5,1.7c0.8,0.3,1.7,0.6,2.5,0.9l2.5,1c6.6,2.6,13.1,5.1,19.7,7.6l2.5,0.9l1.2,0.5l0.6,0.2l0.3,0.1
			c0.6,0.3-0.3-0.1-0.4-0.2l2.5,1.1l3.1,1.3c3.9,1.6,7.6,3,11.4,4.4c7.5,2.7,15,5,22.5,7.2c7.5,2.1,15,3.9,22.6,5.5
			c15.1,3.2,30.1,5.4,45.2,6.6c7.5,0.6,15,0.9,22.5,0.9c1.9,0,3.7,0,5.6,0c1.9-0.1,3.7-0.1,5.6-0.2c3.7-0.2,7.4-0.4,11.1-0.7
			c7.4-0.6,14.7-1.5,21.8-2.8c7.2-1.3,14.2-2.8,21.1-4.9c6.9-2,13.6-4.3,20.1-7c1.6-0.6,3.2-1.4,4.8-2.1c1.6-0.7,3.2-1.4,4.7-2.2
			c1.6-0.8,3.1-1.5,4.6-2.3c1.5-0.8,3-1.7,4.5-2.5c5.9-3.4,11.6-6.9,16.9-10.9c5.3-3.9,10.2-8.1,14.7-12.4c9-8.7,16.5-18,22.6-27.4
			c6.1-9.3,10.7-18.7,14.3-27.6c0.5-1.1,0.9-2.2,1.4-3.3c0.4-1.1,0.8-2.2,1.2-3.3c0.8-2.2,1.6-4.3,2.2-6.5c0.6-2.1,1.3-4.2,1.9-6.3
			c0.6-2.1,1.1-4.1,1.6-6.1c1.1-3.9,1.7-7.8,2.5-11.4c0.7-3.6,1.2-7.1,1.7-10.4c0.4-3.3,0.8-6.4,1.1-9.4c0.3-2.9,0.4-5.7,0.6-8.3
			c0.4-5.1,0.4-9.5,0.5-13C1543.1,373.5,1543,369.8,1543,369.8z"/>
	</g>
	<g>
		<path class="st12" d="M270.9,1504.4c-3.3-9.3-7-16.6-11.1-21.8c-4-5.2-8.4-8.7-12.9-10.6c-4.6-1.8-9-2.8-13.2-2.8
			c-8.4,0-16,1.7-22.6,5.1c-6.6,3.4-12.5,8-17.8,13.6c-5.3,5.6-9.8,12.1-13.7,19.4c-3.9,7.3-7.3,14.8-10.3,22.6
			c-3,7.7-5.6,15.4-7.8,22.9c-2.2,7.6-4.1,14.5-5.7,20.8l-11.3,1.1c-1.2,4.2-2,8-2.4,11.3c-0.4,3-0.1,5.8,0.7,8.6
			c0.8,2.7,2.5,4.6,5.1,5.7c-2.1,10.9-4.7,22.1-7.6,33.6c-3,11.5-6,23.2-9,34.9c0.7,0,2.4,0,5.1,0.1c2.7,0.1,5.8,0.1,9.4,0.1
			s7.3-0.2,11.3-0.5c4-0.4,7.8-1.1,11.3-2.4c3.5-1.2,6.5-2.9,9.1-5.1c2.5-2.2,4.2-5.1,4.9-8.8l9-51.2l47.2,1.1l-5.3,47.5
			c-0.7,4.7,0.3,8.5,3.2,11.2c2.8,2.7,6.5,4.7,11.2,6.1c4.7,1.3,9.7,2.1,15,2.4c5.4,0.3,10.3,0.2,14.9-0.1
			c2.5-28.8,3.7-53.8,3.7-74.9s-0.9-39-2.8-53.8C276.9,1525.7,274.3,1513.7,270.9,1504.4z M241.9,1564.5l-44.3,4.2
			c1.4-8.8,3.3-16.8,5.5-24c2.3-7.2,4.8-13.4,7.5-18.6c2.7-5.2,5.7-9.2,8.8-12c3.2-2.8,6.2-4.2,9.2-4.2c3.3,0,6,2.1,7.9,6.2
			c1.9,4.1,3.4,9.1,4.4,14.9c1,5.8,1.5,11.8,1.6,18.1C242.7,1555.3,242.4,1560.5,241.9,1564.5z"/>
		<path class="st12" d="M941.1,1531.5c3,2.1,6.2,3.5,9.6,4.1c3.4,0.6,6.8,0.6,10-0.1c3.3-0.7,6.4-2,9.4-4c3-1.9,5.5-4.4,7.6-7.4
			c2.1-3.2,3.5-6.5,4.1-9.9c0.6-3.4,0.6-6.8-0.1-10.2c-0.7-3.3-2-6.5-3.8-9.5c-1.8-3-4.4-5.4-7.5-7.4c-3-2.1-6.2-3.5-9.6-4.1
			c-3.4-0.6-6.8-0.6-10,0.1c-3.3,0.7-6.3,2-9.2,4c-2.9,1.9-5.4,4.4-7.5,7.4c-4,6.2-5.4,12.8-4.1,20
			C931.2,1521.9,935,1527.5,941.1,1531.5z"/>
		<path class="st12" d="M1864.3,1531.5c3,2.1,6.2,3.5,9.6,4.1c3.4,0.6,6.8,0.6,10-0.1c3.3-0.7,6.4-2,9.4-4c3-1.9,5.5-4.4,7.6-7.4
			c2.1-3.2,3.5-6.5,4.1-9.9c0.6-3.4,0.6-6.8-0.1-10.2c-0.7-3.3-2-6.5-3.8-9.5c-1.8-3-4.4-5.4-7.5-7.4c-3-2.1-6.2-3.5-9.6-4.1
			c-3.4-0.6-6.8-0.6-10,0.1c-3.3,0.7-6.3,2-9.2,4c-2.9,1.9-5.4,4.4-7.5,7.4c-4,6.2-5.4,12.8-4.1,20
			C1854.4,1521.9,1858.1,1527.5,1864.3,1531.5z"/>
		<path class="st12" d="M2079.5,1599.3c-2.6,5.5-5.4,10.6-8.2,15.6c-2.8,4.9-5.8,9.1-8.8,12.7c-3.1,3.5-6.3,6.1-9.6,7.6
			c-3.3,1.6-6.9,1.7-10.8,0.3c-1.1-0.2-2.2-0.6-3.3-1.3c-1.1-0.7-2.1-1.8-2.9-3.4c-0.8-1.6-1.4-3.7-1.7-6.3c-0.4-2.6-0.3-6,0.3-10
			l9.8-66.2c-10.5-2.5-18.7-3.1-24.4-2c-5.7,1.1-9.8,2.9-12.4,5.3c-2.6,2.4-4.3,5.9-5.1,10.7c-3.7-4.7-8-8.3-13.1-10.8
			c-5-2.5-10.2-3.7-15.7-3.7c-5.5,0-10.9,1.2-16.4,3.7c-5.5,2.5-10.4,6.2-14.8,11.1c-4.7,5.6-8.6,12.1-11.6,19.5
			c-3,7.4-5,15-6.1,22.9c-0.2,1.2-0.3,2.4-0.4,3.6c-1.2,2.2-2.4,4.4-3.6,6.6c-2.8,5-5.7,9.3-8.7,12.8c-3,3.5-6.2,6.1-9.5,7.8
			c-3.3,1.7-6.9,1.8-10.8,0.4c-1.1-0.4-2.1-1-3-1.8c-1-0.9-1.8-2.2-2.6-3.8c-0.8-1.7-1.4-3.8-1.8-6.3c-0.4-2.5-0.6-5.8-0.4-9.6
			l5.8-39c0.5-4.9,0-9-1.6-12.3c-1.6-3.3-3.8-5.9-6.6-7.9c-2.8-2-5.9-3.6-9.4-4.6c-3.4-1.1-6.6-1.8-9.6-2.1c-3-0.4-6.5-0.6-10.5-0.8
			l-5.9,60.2c-1.1,2.1-2.3,4.1-3.5,6.1c-2.9,5-5.9,9.3-9.1,12.9c-3.2,3.6-6.5,6.3-10,8.2c-3.5,1.8-7.2,2.4-11.1,1.7
			c-0.7-0.2-1.7-0.6-2.9-1.2c-1.2-0.6-2.4-1.8-3.4-3.4c-1.1-1.7-1.8-4-2.4-7c-0.5-3-0.5-6.9,0-11.6l8.2-62h6.3c3,0,5.3-1,6.9-3
			c1.6-2,2.7-4.4,3.3-7c0.6-2.6,0.9-5.1,0.9-7.5c0-2.4,0-4,0-4.9h-13.5l2.4-20.8c0.3-5.1-0.2-9.3-1.7-12.5c-1.5-3.3-3.6-5.8-6.3-7.8
			c-2.7-1.9-5.8-3.3-9.2-4.1c-3.4-0.8-6.7-1.3-9.8-1.6c-3.1-0.3-5.9-0.4-8.4-0.3c-2.6,0.1-4.3,0.1-5.1,0.1l-4,46.9h-7.9
			c-0.9,0-1.9,0.5-3.2,1.6c-1.2,1.1-2.4,2.6-3.4,4.5c-1.1,1.9-1.9,4.3-2.5,7c-0.6,2.7-0.7,5.8-0.4,9.4h15.6l-5.3,57.8
			c-2.5,5.3-5.1,9.7-7.8,13.4c-4.3,6-9.2,10.6-14.6,14c3.2-6.5,4.4-12.7,3.8-18.5c-0.6-5.8-2.4-11.3-5.3-16.6
			c-2.9-5.3-6.5-10.2-10.8-14.9c-4.3-4.7-8.6-9.2-12.9-13.7c-4.3-4.5-8.2-8.8-11.7-13.1c-3.5-4.2-6-8.4-7.4-12.7
			c-3.3-4.6-7.6-7.5-12.8-8.8c-5.2-1.3-10.2-1.3-15.2,0c-4.9,1.3-9.1,3.9-12.7,7.6c-3.5,3.8-5.3,8.6-5.3,14.4c0,5.6-1,11.8-2.9,18.6
			c-1.9,6.8-4.2,13.3-6.9,19.6s-5.4,12.2-8.4,17.5c-2.1,3.8-4,6.9-5.7,9.4c-0.5,0.6-1,1.3-1.5,1.8c-3.1,3.5-6.3,6.1-9.6,7.6
			c-3.3,1.6-6.9,1.7-10.8,0.3c-1.1-0.2-2.2-0.6-3.3-1.3c-1.1-0.7-2.1-1.8-2.9-3.4c-0.8-1.6-1.4-3.7-1.7-6.3c-0.4-2.6-0.3-6,0.3-10
			l9.8-66.2c-10.5-2.5-18.7-3.1-24.4-2c-5.7,1.1-9.8,2.9-12.4,5.3c-2.6,2.4-4.3,5.9-5.1,10.7c-3.7-4.7-8-8.3-13.1-10.8
			c-5-2.5-10.2-3.7-15.7-3.7c-5.5,0-10.9,1.2-16.4,3.7c-5.5,2.5-10.4,6.2-14.8,11.1c-4.7,5.6-8.6,12.1-11.6,19.5
			c-3,7.4-5,15-6.1,22.9c-0.2,1.5-0.3,3-0.5,4.5c-1,1.8-2,3.6-3,5.4c-2.8,5-5.7,9.3-8.7,12.8c-3,3.5-6.2,6.1-9.5,7.8
			c-3.3,1.7-6.9,1.8-10.8,0.4c-1.1-0.4-2.1-0.9-3.2-1.7c-1.1-0.8-2-2-2.8-3.6s-1.4-3.6-1.8-6.2c-0.4-2.5-0.5-5.9-0.1-10.2l16.4-95
			c0.9-6.5,0.7-11.9-0.7-16.2c-1.3-4.3-3.3-7.8-5.9-10.6c-2.6-2.7-5.7-4.8-9.1-6.2c-3.4-1.4-6.8-2.4-10-3c-3.3-0.6-6.3-0.9-9.1-0.9
			c-2.8,0-4.8,0-6.1,0l-13.5,126c-4.5,8.2-9.3,14.8-14.3,19.7c-5,5-10.4,7.5-16.2,7.5c2.3-5.4,4-11.2,5.3-17.1
			c1.2-6,1.8-11.9,1.8-17.8c0-5.9-0.6-11.6-1.8-17.1c-1.2-5.5-3.1-10.7-5.5-15.4c-3.3-6.3-7.6-11.2-12.9-14.5
			c-5.3-3.3-10.9-5.2-16.9-5.7c-6-0.4-12,0.7-17.9,3.3c-6,2.6-11.4,6.8-16.4,12.4c-0.2,0.2-0.4,0.3-0.5,0.4
			c-0.2,0.1-0.4,0.3-0.5,0.7c-0.4-4.9-1.8-8.5-4.5-10.8c-2.6-2.3-5.6-3.8-9-4.6c-3.3-0.8-6.6-1.1-9.8-1.1c-3.2,0.1-5.3,0.1-6.3,0.1
			l-8.7,66.8c-3.4,5.7-7.2,10-11.2,12.8c-5.5,3.9-10.2,5.6-13.8,5.3c6.2-11.8,8.5-23.8,7.1-36.1c-1.4-12.3-6.8-23.2-16.1-32.7
			c-5.6-5.8-12-10.1-19.1-12.8c-7.1-2.7-14.4-4-21.9-3.7c-7.5,0.3-14.9,2-22.3,5.1c-7.4,3.2-14.1,7.7-20,13.7
			c-6,6.2-10.5,13-13.7,20.4c-3.2,7.5-4.8,15.1-5,22.8c0,0.6,0,1.2,0,1.8c-0.5,0.9-1.1,1.9-1.6,2.8c-2.8,4.8-5.8,9-8.8,12.5
			c-3.1,3.5-6.3,6.1-9.8,7.8c-3.4,1.7-7.1,2.1-10.9,1.2c-0.9-0.2-1.9-0.7-3-1.5c-1.1-0.8-2.2-2-3-3.7c-0.9-1.7-1.5-3.8-1.8-6.5
			c-0.4-2.6-0.2-6,0.5-10c0.5-3.5,1.2-7.6,2.1-12.4c0.9-4.7,1.6-9.6,2.1-14.6c0.5-5,0.6-10,0.3-14.9c-0.4-4.9-1.4-9.4-3-13.3
			c-1.7-4-4.2-7.2-7.6-9.8c-3.4-2.5-8.1-4-14.1-4.4c-3,0-6.2,0.4-9.8,1.1c-3.5,0.7-7,1.9-10.5,3.6c-3.5,1.7-6.9,3.7-10.3,6.2
			c-3.3,2.5-6.2,5.4-8.7,8.7c1.1-4.9,0-8.5-3-10.8c-3.1-2.3-6.7-3.9-10.9-4.7c-4.2-0.9-8.4-1.3-12.4-1.3c-4,0-6.7,0-7.9,0l-4.5,53.4
			c-2.4,4.8-4.8,9.5-7.3,14c-2.8,5-5.7,9.3-8.7,12.8c-3,3.5-6.2,6.1-9.5,7.8c-3.3,1.7-6.9,1.8-10.8,0.4c-1.1-0.4-2.1-1-3-1.8
			c-1-0.9-1.8-2.2-2.6-3.8c-0.8-1.7-1.4-3.8-1.8-6.3c-0.4-2.5-0.6-5.8-0.4-9.6l5.8-39c0.5-4.9,0-9-1.6-12.3
			c-1.6-3.3-3.8-5.9-6.6-7.9c-2.8-2-5.9-3.6-9.4-4.6c-3.4-1.1-6.6-1.8-9.6-2.1c-3-0.4-6.5-0.6-10.5-0.8l-6,60.9
			c-1.1,2-2.2,4-3.4,5.9c-2.9,4.8-5.9,9-9,12.5c-3.1,3.5-6.4,6.2-9.9,7.9c-3.5,1.8-7.2,2.2-11.1,1.3c-0.5-0.2-1.3-0.6-2.4-1.2
			c-1.1-0.6-2-1.8-2.9-3.4c-0.9-1.7-1.5-3.9-2-6.7c-0.4-2.8-0.3-6.4,0.4-10.8c2.1-13.4,3.3-24.4,3.7-33.1c0.4-8.7-0.2-15.6-1.7-20.8
			c-1.5-5.2-3.9-9-7.1-11.5c-3.3-2.5-7.3-4.1-12.3-5c-3.3-0.5-6.8-0.5-10.4,0.1c-3.6,0.6-7.1,1.7-10.6,3.3s-6.7,3.6-9.9,5.9
			s-5.9,5-8.2,7.8c-1.2-5.6-4-9.9-8.2-12.8c-4.2-2.9-8.9-4.4-14-4.4c-7,0-13.9,1.6-20.6,4.7c-6.7,3.2-12.3,7.8-16.9,14
			c0.4-4.2-1-7.3-4.1-9.4c-3.1-2-6.7-3.4-10.9-4.2c-4.2-0.8-8.5-1.2-12.8-1.2c-4.3,0-7.5,0-9.6,0l-5.3,60.4h0
			c-4.4,9.3-9.4,15.9-14.9,19.8c-5.5,3.9-10.2,5.6-13.8,5.3c6.2-11.8,8.5-23.8,7.1-36.1c-1.4-12.3-6.8-23.2-16.1-32.7
			c-5.6-5.8-12-10.1-19.1-12.8c-7.1-2.7-14.4-4-21.9-3.7c-7.5,0.3-14.9,2-22.3,5.1c-7.4,3.2-14.1,7.7-20,13.7
			c-6,6.2-10.5,13-13.7,20.4c-3.2,7.5-4.8,15.1-5,22.8c0,1.4,0,2.7,0.1,4.1c-0.2,0.3-0.4,0.7-0.6,1.1c-2.8,5-5.8,9.3-8.8,12.8
			c-3.1,3.5-6.3,6.1-9.6,7.8c-3.3,1.7-6.9,1.8-10.8,0.4c-1.1-0.4-2.2-0.9-3.3-1.7c-1.1-0.8-2.1-2-2.9-3.6s-1.4-3.7-1.7-6.3
			c-0.4-2.6-0.4-6.1,0-10.3l16.1-131.6c-9.3-1.1-16.9-0.9-22.8,0.5c-5.9,1.4-10.5,3.4-14,6.1s-5.8,5.5-7.1,8.6
			c-1.3,3.1-2.1,5.8-2.2,8l-2.4,56.7c-4-5.4-8.7-9.3-13.8-11.6c-5.2-2.3-10.5-3.3-16-3c-5.5,0.3-10.7,1.7-15.8,4.4
			c-5.1,2.6-9.6,6.2-13.5,10.6c-4.7,5.6-8.7,12.1-11.7,19.5s-5.1,15-6.2,22.8c-0.1,1.1-0.3,2.1-0.4,3.2c-4.5,8.2-9.3,14.8-14.3,19.7
			c-5,5-10.4,7.5-16.2,7.5c2.3-5.4,4-11.2,5.3-17.1c1.2-6,1.8-11.9,1.8-17.8c0-5.9-0.6-11.6-1.8-17.1c-1.2-5.5-3.1-10.7-5.5-15.4
			c-3.2-5.8-7.1-10.3-11.7-13.6c-4.7-3.3-9.7-5.3-15.2-6.1c-5.5-0.8-10.9-0.4-16.5,1.3c-5.5,1.7-10.8,4.6-15.7,8.8l6.6-46.4
			c0.7-6,0.2-10.9-1.6-14.6c-1.8-3.8-4.1-6.8-7.1-9c-3-2.2-6.4-3.7-10.2-4.6c-3.8-0.9-7.3-1.5-10.7-1.7c-3.3-0.3-7.3-0.2-11.9,0.1
			c-1.1,12.7-1.9,24.2-2.6,34.6c-0.7,10.4-1.5,22.2-2.5,35.5c-1,13.3-1.9,26.8-2.9,40.6c-1,13.8-1.9,27.3-2.9,40.6
			c-1,13.3-1.8,25.1-2.5,35.5c2.3,0,5.1,0,8.4,0.1c3.3,0.1,6.7-0.3,10.2-1.1c3.4-0.8,6.7-2.2,9.8-4.2c3.1-2,5.5-5.1,7.3-9.1
			c2.1-14.4,3.7-25.6,4.9-33.6c1.1-8,2-14.1,2.5-18.2c0.5-4.1,0.9-6.8,1.2-8c0.3-1.2,0.7-2.3,1.2-3.2c1.4-2.5,3.3-4.4,5.5-5.7
			c2.3-1.3,4.6-2,7-2.1c2.4-0.1,4.6,0.5,6.7,1.7c2.1,1.2,3.7,3.1,4.7,5.5c1.1,2.5,1.8,5.2,2.1,8.3c0.3,3.1,0.3,6.2-0.1,9.4
			c-0.4,3.2-1.2,6.2-2.4,9.2c-1.1,3-2.6,5.6-4.4,7.9c-4.6-1.2-8.7-0.9-12.5,1.1c-3.8,1.9-6.8,4.7-9.1,8.3c-2.3,3.6-3.5,7.6-3.7,11.9
			c-0.2,4.3,1,8.3,3.4,12c1.9,2.8,4.7,5.1,8.4,6.7c3.7,1.7,7.8,2.6,12.3,2.8c4.5,0.2,9.1-0.4,13.8-1.8c4.7-1.4,9.1-3.8,13.2-7.1
			c7.6,0.5,14.6,0,21.1-1.5c6.5-1.5,12.6-4.3,18.2-8.3c3.9-2.8,7.6-6.3,11.1-10.5c1,3.4,2.4,6.7,3.9,9.7c3.3,6.2,7.6,10.9,12.9,14.2
			c5.3,3.3,10.9,5.2,16.7,5.5c5.9,0.4,11.8-0.7,17.8-3.3c6-2.5,11.3-6.6,16.1-12.3c0.9-0.9,1.8-1.9,2.6-3c0.9-1.1,1.8-2.3,2.6-3.6
			c2.6,6.5,6.6,11.8,11.9,16c5.3,4.1,12.1,6.2,20.6,6.2c12.5,0,24.1-5.1,34.9-15.4c4-3.8,7.8-8.5,11.4-14.1
			c2.4,4.5,5.5,8.8,9.3,12.6c4.7,5.1,10.1,9,16.1,11.7c6,2.7,12.2,4.4,18.7,4.9c6.5,0.5,13,0,19.5-1.7c6.5-1.7,12.7-4.4,18.7-8.3
			c15.5,1.4,29-1.8,40.6-9.5c2.4-1.6,4.8-3.5,7-5.7l-2.2,25.5c8.1,0.2,14.5,0,19.1-0.5c4.7-0.5,8.3-1.5,10.8-2.8
			c2.5-1.3,4.3-3.1,5.1-5.3c0.9-2.2,1.7-5,2.4-8.3c1.9-16.7,4.8-30.9,8.6-42.7c3.8-11.8,7.5-20.6,11.1-26.5c3.6-5.9,6.7-8.7,9.2-8.3
			c2.5,0.4,3.5,4.3,2.8,11.9l-7.4,61.7c-0.5,5.1,0.2,9.1,2.2,11.9c2,2.8,4.9,4.9,8.7,6.2c3.8,1.3,8.1,2.1,12.9,2.4
			c4.8,0.3,9.7,0.4,14.6,0.4c1.2-10.7,2.1-20.7,2.6-30.1c0.5-9.3,1.1-17.8,1.7-25.3c0.6-7.6,1.5-14.2,2.6-19.9
			c1.1-5.7,2.9-10.5,5.4-14.4c0.7-1.2,2-2.2,3.8-2.9c1.8-0.7,3.6-0.4,5.1,1.1c1.6,1.4,2.7,4.3,3.4,8.6c0.7,4.3,0.3,10.8-1.3,19.4
			c-2.3,13.9-2.7,25.1-1.3,33.5c1.4,8.4,4,14.9,7.9,19.4c3.9,4.5,8.6,7.4,14.1,8.7c5.5,1.3,11.4,2,17.5,2c5.8,0,11.6-1.3,17.4-3.8
			c5.8-2.5,11.4-6.5,16.9-11.9c3.4-3.3,6.7-7.3,10-11.8c1,3.3,2.2,6.5,3.7,9.4c2.8,5.4,6.7,9.7,11.7,13.1c5,3.3,11.2,5,18.6,5
			c5.8,0,11.6-1.2,17.4-3.7c5.8-2.5,11.5-6.4,17-11.7c2.7-2.6,5.4-5.6,8-9l-2.1,24.4c6.9,0.2,12.5,0,17-0.7
			c4.5-0.6,8.1-1.6,10.8-2.9c2.7-1.3,4.7-3.1,6.1-5.4c1.3-2.3,2.2-5.1,2.8-8.4c1.4-14.1,3.6-26.4,6.5-36.9s5.8-19.1,8.8-25.6
			c1.8-3.9,3.6-7,5.7-9.4c2-2.4,3.8-3.8,5.3-4.4c1.5-0.5,2.6-0.1,3.4,1.3c0.8,1.4,0.9,3.8,0.4,7.1l-2.9,21.9
			c-1.6,11.8-1.9,21.7-0.9,29.8c1,8.1,3.1,14.6,6.5,19.5c3.3,4.9,7.8,8.5,13.3,10.7c5.5,2.2,12,3.3,19.4,3.3
			c11.8,0,23.3-5.1,34.6-15.4c4.3-4,8.5-8.9,12.5-14.8c2.5,4.8,5.7,9.3,9.6,13.4c4.7,5.1,10.1,9,16.1,11.7c6,2.7,12.2,4.4,18.7,4.9
			c6.5,0.5,13,0,19.5-1.7c6.5-1.7,12.7-4.4,18.7-8.3c15.5,1.4,29-1.8,40.6-9.5c0.7-0.5,1.4-1,2.1-1.5l-13.4,103
			c8.8,0.4,16,0,21.8-1.1s10.2-2.6,13.6-4.7c3.3-2.1,5.7-4.8,7.1-8.2c1.4-3.3,2.3-7.1,2.6-11.3l2.6-70.2c0.4-4.4,0.8-9.4,1.3-14.9
			c0.5-5.5,1.3-11.3,2.2-17.1c1-5.9,2.2-11.7,3.8-17.4c1.6-5.7,3.6-10.9,6.1-15.4c1.4-2.5,3.1-4.3,5.1-5.5c2-1.2,4.1-1.8,6.2-1.6
			c2.1,0.2,4.1,0.9,6.1,2.2c1.9,1.3,3.4,3.2,4.5,5.7c1.1,2.5,1.8,5.2,2.1,8.3c0.3,3.1,0.3,6.2-0.1,9.4c-0.4,3.2-1.2,6.2-2.4,9.2
			c-1.1,3-2.6,5.6-4.4,7.9c-4.6-1.2-8.7-0.9-12.5,1.1c-3.8,1.9-6.8,4.7-9.1,8.3c-2.3,3.6-3.5,7.6-3.7,11.9c-0.2,4.3,1,8.3,3.4,12
			c1.9,2.8,4.7,5.1,8.4,6.7c3.7,1.7,7.8,2.6,12.3,2.8c4.5,0.2,9.1-0.4,13.8-1.8c4.7-1.4,9.1-3.8,13.2-7.1c7.6,0.5,14.6,0,21.1-1.5
			c6.5-1.5,12.6-4.3,18.2-8.3c3.5-2.5,6.9-5.6,10.1-9.3c1,3.6,2.3,6.9,4,10.1c2.9,5.5,6.8,9.8,11.7,13.2c4.9,3.3,11.2,5,18.7,5
			c12.7,0,24.4-5.1,35.2-15.4c3.5-3.4,6.9-7.4,10.2-12.2c1,2.7,2.1,5.3,3.4,7.8c3.2,6.2,7.3,10.9,12.5,14.2
			c5.2,3.3,10.8,5.2,16.7,5.5c6,0.4,12-0.7,17.9-3.3c6-2.5,11.4-6.6,16.4-12.3c1.8-1.8,3.5-4,5.3-6.6c2.6,6.7,6.5,12,11.7,16.1
			c5.2,4,12.1,6.1,20.7,6.1c12.5,0,24.1-5.1,34.9-15.4c9.1-8.6,17.3-22,24.5-40c0.3-0.5,0.5-1,0.8-1.6c3.8-7.9,7.3-17.3,10.7-28.2
			c4.4,4.2,9.2,8.7,14.5,13.3c5.3,4.7,9.7,9.3,13.3,14c3.6,4.7,5.8,9.2,6.5,13.7c0.7,4.5-1.2,8.6-5.8,12.3c-0.9,0.5-2.1,1.2-3.7,2
			c-1.6,0.8-2.7,1.3-3.4,1.5c1.9-3,2.9-6.2,2.9-9.8c0-3.5-0.8-6.7-2.5-9.6c-1.7-2.9-4.1-5.1-7.4-6.7c-3.3-1.6-7.1-1.9-11.5-1.1
			c-3.2,0.9-5.8,2.3-8,4.2c-2.2,1.9-3.9,4.3-5.1,7c-1.2,2.7-1.9,5.7-2.1,8.8c-0.2,3.2,0.3,6.3,1.3,9.5c1.6,4.6,4,8.5,7.1,11.7
			c3.2,3.3,6.7,5.9,10.7,8c4,2.1,8.2,3.7,12.7,4.7c4.5,1.1,8.8,1.6,13.1,1.6c12.8,0,23.9-1.5,33.1-4.6c9.2-3.1,17.1-7.4,23.7-13.1
			c3.5-3,6.7-6.3,9.7-10c1,3.3,2.2,6.3,3.7,9.2c2.9,5.5,6.9,9.9,12,13.3c5.1,3.4,11.4,5.1,19,5.1c6,0,11.9-1.2,17.8-3.7
			c5.9-2.5,11.7-6.4,17.4-11.7c3.4-3.2,6.7-6.9,9.8-11.2c0.9,3,2.1,5.9,3.5,8.5c2.8,5.4,6.7,9.7,11.7,13.1c5,3.3,11.2,5,18.6,5
			c5.8,0,11.6-1.2,17.4-3.7c5.8-2.5,11.5-6.4,17-11.7c3.8-3.7,7.5-8.1,11.1-13.2c1,3.1,2.3,6,3.8,8.9c3.2,6.2,7.3,10.9,12.5,14.2
			c5.2,3.3,10.8,5.2,16.7,5.5c6,0.4,12-0.7,17.9-3.3c6-2.5,11.4-6.6,16.4-12.3c1.8-1.8,3.5-4,5.3-6.6c2.6,6.7,6.5,12,11.7,16.1
			c5.2,4,12.1,6.1,20.7,6.1c12.5,0,24.1-5.1,34.9-15.4c10.8-10.3,20.4-27.2,28.6-50.8L2079.5,1599.3z M507.7,1606.3
			c-1.3,6.6-3.7,12.3-7.3,17c-3.7,4.6-7.8,6.9-12.3,6.9c-4.5,0-7.7-2.5-9.6-7.4c-0.9-2.6-1.4-5.5-1.5-8.6c-0.1-3.1,0.2-6.2,0.8-9.4
			c0.6-3.2,1.5-6.2,2.8-9.1c1.2-2.9,2.8-5.6,4.7-8c1.8-2.3,3.7-4,5.8-5.1c2.1-1.1,4.2-1.6,6.2-1.5c2,0.2,3.9,0.9,5.5,2.2
			c1.7,1.3,2.9,3.2,3.8,5.7C508.7,1594,509,1599.7,507.7,1606.3z M658.4,1608c-6.5,1.1-11.3,4.5-14.5,10.3c-0.9,2.5-1.4,5.1-1.5,7.9
			c-0.1,2.8,0.4,5.5,1.5,7.9c-3,1.2-5.9,1.3-8.8,0.1c-2.9-1.1-5.3-3.5-7.3-7c-1.4-2.6-2.3-5.6-2.8-8.8c-0.4-3.3-0.5-6.6-0.1-10
			c0.4-3.4,1.1-6.8,2.2-10c1.1-3.3,2.7-6.2,4.6-8.8c4-5.4,8.3-8.2,12.9-8.2c4.6,0,8.3,2.7,11.1,8.2c1.4,2.6,2.3,5.6,2.8,9
			C659,1601.9,658.9,1605,658.4,1608z M1216.2,1608c-6.5,1.1-11.3,4.5-14.5,10.3c-0.9,2.5-1.4,5.1-1.5,7.9c-0.1,2.8,0.4,5.5,1.5,7.9
			c-3,1.2-5.9,1.3-8.8,0.1c-2.9-1.1-5.3-3.5-7.3-7c-1.4-2.6-2.3-5.6-2.8-8.8c-0.4-3.3-0.5-6.6-0.1-10c0.4-3.4,1.1-6.8,2.2-10
			c1.1-3.3,2.7-6.2,4.6-8.8c4-5.4,8.3-8.2,12.9-8.2c4.6,0,8.3,2.7,11.1,8.2c1.4,2.6,2.3,5.6,2.8,9
			C1216.8,1601.9,1216.7,1605,1216.2,1608z M1561.6,1606.3c-0.6,3.1-1.5,6.1-2.8,9c-1.2,2.9-2.7,5.5-4.5,7.8
			c-3.7,4.7-7.8,7.1-12.3,7c-4.5-0.1-7.7-2.6-9.6-7.5c-0.9-2.5-1.4-5.2-1.5-8.3c-0.1-3.1,0.2-6.2,0.8-9.4c0.6-3.2,1.5-6.2,2.8-9.2
			c1.2-3,2.8-5.6,4.7-7.9c1.8-2.3,3.7-4,5.8-5.1c2.1-1.1,4.2-1.6,6.2-1.5c2,0.2,3.9,0.9,5.5,2.1c1.7,1.2,2.9,3.1,3.8,5.5
			c0.9,2.5,1.4,5.2,1.6,8.3C1562.4,1600.2,1562.2,1603.2,1561.6,1606.3z M1995.7,1606.3c-0.6,3.1-1.5,6.1-2.8,9
			c-1.2,2.9-2.7,5.5-4.5,7.8c-3.7,4.7-7.8,7.1-12.3,7c-4.5-0.1-7.7-2.6-9.6-7.5c-0.9-2.5-1.4-5.2-1.5-8.3c-0.1-3.1,0.2-6.2,0.8-9.4
			c0.6-3.2,1.5-6.2,2.8-9.2c1.2-3,2.8-5.6,4.7-7.9c1.8-2.3,3.7-4,5.8-5.1c2.1-1.1,4.2-1.6,6.2-1.5c2,0.2,3.9,0.9,5.5,2.1
			c1.7,1.2,2.9,3.1,3.8,5.5c0.9,2.5,1.4,5.2,1.6,8.3C1996.6,1600.2,1996.3,1603.2,1995.7,1606.3z"/>
	</g>
	<g>
		<path class="st11" d="M610.2,1327v-93.2h-25.6v31.7h-15.4v-47.3h100.7v47.3h-15.4v-31.7H629v93.2h16.2v15.5h-50.8V1327H610.2z"/>
		<path class="st11" d="M667.9,1299.3c0-13.3,4.4-24.3,13.2-32.8c8.8-8.5,19.6-12.8,32.2-12.8c12.4,0,23.1,4.2,32.1,12.6
			c8.9,8.4,13.4,19.4,13.4,33c0,13.6-4.5,24.6-13.4,33.1c-8.9,8.5-19.6,12.7-32.1,12.7c-12.9,0-23.7-4.3-32.4-12.9
			C672.3,1323.6,667.9,1312.6,667.9,1299.3z M685.9,1299.2c0,8.5,2.7,15.5,8,21c5.3,5.5,11.8,8.2,19.5,8.2c7.8,0,14.3-2.8,19.6-8.3
			c5.3-5.5,7.9-12.5,7.9-20.9c0-8.5-2.7-15.5-8-20.9c-5.4-5.5-11.9-8.2-19.5-8.2c-8,0-14.6,2.8-19.7,8.4
			C688.5,1284.1,685.9,1291,685.9,1299.2z"/>
		<path class="st11" d="M879.7,1327.4v15.1h-32.5v-12.7c-8.5,9.4-18.8,14.1-30.9,14.1c-11.3,0-21.1-3.8-29.7-11.5
			c-8.5-7.7-12.8-18.6-12.8-32.8c0-14.2,4.4-25.5,13.1-33.7s18.6-12.3,29.7-12.3c11.7,0,21.9,4.6,30.5,13.9v-34.2h-16.6v-15.1h33.6
			v109.2H879.7z M792,1299.2c0,9.5,2.7,16.9,8.1,22c5.4,5.1,11.8,7.7,19.3,7.7c7.3,0,13.7-2.7,19.3-8.1c5.6-5.4,8.4-12.8,8.4-22.4
			c0-9.6-2.9-16.8-8.6-21.7c-5.7-4.9-12.2-7.3-19.3-7.3c-7.7,0-14.1,2.9-19.4,8.6C794.6,1283.7,792,1290.8,792,1299.2z"/>
		<path class="st11" d="M887.1,1299.3c0-13.3,4.4-24.3,13.2-32.8c8.8-8.5,19.6-12.8,32.2-12.8c12.4,0,23.1,4.2,32.1,12.6
			c8.9,8.4,13.4,19.4,13.4,33c0,13.6-4.5,24.6-13.4,33.1c-8.9,8.5-19.6,12.7-32.1,12.7c-12.9,0-23.7-4.3-32.4-12.9
			C891.5,1323.6,887.1,1312.6,887.1,1299.3z M905.1,1299.2c0,8.5,2.7,15.5,8,21c5.3,5.5,11.8,8.2,19.5,8.2c7.8,0,14.3-2.8,19.6-8.3
			c5.3-5.5,7.9-12.5,7.9-20.9c0-8.5-2.7-15.5-8-20.9c-5.4-5.5-11.9-8.2-19.5-8.2c-8,0-14.6,2.8-19.7,8.4
			C907.7,1284.1,905.1,1291,905.1,1299.2z"/>
		<path class="st11" d="M1050.1,1327.4v-56.3h-13.4V1256h30.4v71.4h13.4v15.1h-43.8v-15.1H1050.1z M1047.7,1226.6
			c0-2.7,1-5.1,2.9-7.1c1.9-2,4.4-3,7.4-3c2.8,0,5.2,1,7.2,2.9c2,2,3,4.4,3,7.2s-1,5.3-3,7.3c-2,2-4.4,3-7.2,3c-2.9,0-5.3-1-7.3-3
			C1048.7,1231.9,1047.7,1229.4,1047.7,1226.6z"/>
		<path class="st11" d="M1121.3,1256v10.5c10.9-7.9,20.8-11.8,29.8-11.8c5.6,0,10.2,1.3,13.9,4c3.7,2.7,6.1,5.9,7.2,9.7
			c1.1,3.8,1.7,9.5,1.7,16.8v42.2h14.6v15.1h-31.5V1286c0-6.5-1-10.8-2.9-12.8c-2-2-4.4-3-7.2-3c-7.5,0-16,3.7-25.5,11v46.3h14.9
			v15.1h-47.1v-15.1h15.2v-56.3h-15.2V1256H1121.3z"/>
		<path class="st11" d="M1277.5,1256v32.7h-15.2c-0.8-6.3-3.3-11-7.6-14.4c-4.3-3.3-9.3-5-15.1-5c-7.6,0-13.8,2.7-18.6,8.1
			c-4.8,5.4-7.1,12.5-7.1,21.2c0,8.2,2.3,15.4,6.8,21.6c4.5,6.2,11.1,9.3,19.7,9.3c11.9,0,20.5-5.7,25.9-17l14,6.6
			c-7.7,17.2-21.3,25.8-40.6,25.8c-13.7,0-24.5-4.7-32.3-14c-7.9-9.3-11.8-20.1-11.8-32.3c0-13,4.3-23.8,12.9-32.3
			c8.6-8.5,18.5-12.7,29.7-12.7c9.6,0,17.7,2.8,24.3,8.5v-6.1H1277.5z"/>
		<path class="st11" d="M1303.4,1327.4v-94.1H1288v-15.1h32.3v109.2h13.2v15.1H1288v-15.1H1303.4z"/>
		<path class="st11" d="M1439,1327.4v15.1h-31.9v-9.9c-9.9,7.6-19.5,11.3-28.6,11.3c-5.8,0-10.6-1.3-14.3-3.8
			c-3.8-2.5-6.3-5.8-7.5-9.8c-1.3-4-1.9-10.5-1.9-19.4v-39.7h-12.2V1256h29.2v52.7c0,6.4,0.2,10.7,0.5,12.9c0.4,2.2,1.4,4,3.1,5.4
			c1.7,1.4,3.9,2.1,6.5,2.1c7.9,0,16.3-3.8,25.2-11.3v-46.8h-15.3V1256h32.2v71.4H1439z"/>
		<path class="st11" d="M1460.2,1327.4v-56.3h-13.4V1256h30.4v71.4h13.4v15.1h-43.8v-15.1H1460.2z M1457.7,1226.6
			c0-2.7,1-5.1,2.9-7.1c1.9-2,4.4-3,7.4-3c2.8,0,5.2,1,7.2,2.9c2,2,3,4.4,3,7.2s-1,5.3-3,7.3c-2,2-4.4,3-7.2,3c-2.9,0-5.3-1-7.3-3
			C1458.7,1231.9,1457.7,1229.4,1457.7,1226.6z"/>
		<path class="st11" d="M1608.1,1327.4v15.1h-32.5v-12.7c-8.5,9.4-18.8,14.1-30.9,14.1c-11.3,0-21.1-3.8-29.7-11.5
			c-8.5-7.7-12.8-18.6-12.8-32.8c0-14.2,4.4-25.5,13.1-33.7s18.6-12.3,29.7-12.3c11.7,0,21.9,4.6,30.5,13.9v-34.2h-16.6v-15.1h33.6
			v109.2H1608.1z M1520.4,1299.2c0,9.5,2.7,16.9,8.1,22c5.4,5.1,11.8,7.7,19.3,7.7c7.3,0,13.7-2.7,19.3-8.1
			c5.6-5.4,8.4-12.8,8.4-22.4c0-9.6-2.9-16.8-8.6-21.7c-5.7-4.9-12.2-7.3-19.3-7.3c-7.7,0-14.1,2.9-19.4,8.6
			C1523,1283.7,1520.4,1290.8,1520.4,1299.2z"/>
		<path class="st11" d="M1615.5,1299.3c0-13.3,4.4-24.3,13.2-32.8c8.8-8.5,19.6-12.8,32.2-12.8c12.4,0,23.1,4.2,32.1,12.6
			c8.9,8.4,13.4,19.4,13.4,33c0,13.6-4.5,24.6-13.4,33.1c-8.9,8.5-19.6,12.7-32.1,12.7c-12.9,0-23.7-4.3-32.4-12.9
			C1619.9,1323.6,1615.5,1312.6,1615.5,1299.3z M1633.4,1299.2c0,8.5,2.7,15.5,8,21c5.3,5.5,11.8,8.2,19.5,8.2
			c7.8,0,14.3-2.8,19.6-8.3c5.3-5.5,7.9-12.5,7.9-20.9c0-8.5-2.7-15.5-8-20.9c-5.4-5.5-11.9-8.2-19.5-8.2c-8,0-14.6,2.8-19.7,8.4
			C1636,1284.1,1633.4,1291,1633.4,1299.2z"/>
	</g>
	<g>
		<g>
			<path class="st12" d="M603.2,1321v-93.2h-25.6v31.7h-15.4v-47.3h100.7v47.3h-15.4v-31.7H622v93.2h16.2v15.5h-50.8V1321H603.2z"/>
			<path class="st12" d="M660.9,1293.3c0-13.3,4.4-24.3,13.2-32.8c8.8-8.5,19.6-12.8,32.2-12.8c12.4,0,23.1,4.2,32.1,12.6
				c8.9,8.4,13.4,19.4,13.4,33c0,13.6-4.5,24.6-13.4,33.1c-8.9,8.5-19.6,12.7-32.1,12.7c-12.9,0-23.7-4.3-32.4-12.9
				C665.3,1317.6,660.9,1306.6,660.9,1293.3z M678.9,1293.2c0,8.5,2.7,15.5,8,21c5.3,5.5,11.8,8.2,19.5,8.2c7.8,0,14.3-2.8,19.6-8.3
				c5.3-5.5,7.9-12.5,7.9-20.9c0-8.5-2.7-15.5-8-20.9c-5.4-5.5-11.9-8.2-19.5-8.2c-8,0-14.6,2.8-19.7,8.4
				C681.5,1278.1,678.9,1285,678.9,1293.2z"/>
			<path class="st12" d="M872.7,1321.4v15.1h-32.5v-12.7c-8.5,9.4-18.8,14.1-30.9,14.1c-11.3,0-21.1-3.8-29.7-11.5
				c-8.5-7.7-12.8-18.6-12.8-32.8c0-14.2,4.4-25.5,13.1-33.7s18.6-12.3,29.7-12.3c11.7,0,21.9,4.6,30.5,13.9v-34.2h-16.6v-15.1h33.6
				v109.2H872.7z M785,1293.2c0,9.5,2.7,16.9,8.1,22c5.4,5.1,11.8,7.7,19.3,7.7c7.3,0,13.7-2.7,19.3-8.1c5.6-5.4,8.4-12.8,8.4-22.4
				c0-9.6-2.9-16.8-8.6-21.7c-5.7-4.9-12.2-7.3-19.3-7.3c-7.7,0-14.1,2.9-19.4,8.6C787.6,1277.7,785,1284.8,785,1293.2z"/>
			<path class="st12" d="M880.1,1293.3c0-13.3,4.4-24.3,13.2-32.8c8.8-8.5,19.6-12.8,32.2-12.8c12.4,0,23.1,4.2,32.1,12.6
				c8.9,8.4,13.4,19.4,13.4,33c0,13.6-4.5,24.6-13.4,33.1c-8.9,8.5-19.6,12.7-32.1,12.7c-12.9,0-23.7-4.3-32.4-12.9
				C884.5,1317.6,880.1,1306.6,880.1,1293.3z M898.1,1293.2c0,8.5,2.7,15.5,8,21c5.3,5.5,11.8,8.2,19.5,8.2c7.8,0,14.3-2.8,19.6-8.3
				c5.3-5.5,7.9-12.5,7.9-20.9c0-8.5-2.7-15.5-8-20.9c-5.4-5.5-11.9-8.2-19.5-8.2c-8,0-14.6,2.8-19.7,8.4
				C900.7,1278.1,898.1,1285,898.1,1293.2z"/>
			<path class="st12" d="M1043.1,1321.4v-56.3h-13.4V1250h30.4v71.4h13.4v15.1h-43.8v-15.1H1043.1z M1040.7,1220.6
				c0-2.7,1-5.1,2.9-7.1c1.9-2,4.4-3,7.4-3c2.8,0,5.2,1,7.2,2.9c2,2,3,4.4,3,7.2s-1,5.3-3,7.3c-2,2-4.4,3-7.2,3c-2.9,0-5.3-1-7.3-3
				C1041.7,1225.9,1040.7,1223.4,1040.7,1220.6z"/>
			<path class="st12" d="M1114.3,1250v10.5c10.9-7.9,20.8-11.8,29.8-11.8c5.6,0,10.2,1.3,13.9,4c3.7,2.7,6.1,5.9,7.2,9.7
				c1.1,3.8,1.7,9.5,1.7,16.8v42.2h14.6v15.1h-31.5V1280c0-6.5-1-10.8-2.9-12.8c-2-2-4.4-3-7.2-3c-7.5,0-16,3.7-25.5,11v46.3h14.9
				v15.1h-47.1v-15.1h15.2v-56.3h-15.2V1250H1114.3z"/>
			<path class="st12" d="M1270.5,1250v32.7h-15.2c-0.8-6.3-3.3-11-7.6-14.4c-4.3-3.3-9.3-5-15.1-5c-7.6,0-13.8,2.7-18.6,8.1
				c-4.8,5.4-7.1,12.5-7.1,21.2c0,8.2,2.3,15.4,6.8,21.6c4.5,6.2,11.1,9.3,19.7,9.3c11.9,0,20.5-5.7,25.9-17l14,6.6
				c-7.7,17.2-21.3,25.8-40.6,25.8c-13.7,0-24.5-4.7-32.3-14c-7.9-9.3-11.8-20.1-11.8-32.3c0-13,4.3-23.8,12.9-32.3
				c8.6-8.5,18.5-12.7,29.7-12.7c9.6,0,17.7,2.8,24.3,8.5v-6.1H1270.5z"/>
			<path class="st12" d="M1296.4,1321.4v-94.1H1281v-15.1h32.3v109.2h13.2v15.1H1281v-15.1H1296.4z"/>
			<path class="st12" d="M1432,1321.4v15.1h-31.9v-9.9c-9.9,7.6-19.5,11.3-28.6,11.3c-5.8,0-10.6-1.3-14.3-3.8
				c-3.8-2.5-6.3-5.8-7.5-9.8c-1.3-4-1.9-10.5-1.9-19.4v-39.7h-12.2V1250h29.2v52.7c0,6.4,0.2,10.7,0.5,12.9c0.4,2.2,1.4,4,3.1,5.4
				c1.7,1.4,3.9,2.1,6.5,2.1c7.9,0,16.3-3.8,25.2-11.3v-46.8h-15.3V1250h32.2v71.4H1432z"/>
			<path class="st12" d="M1453.2,1321.4v-56.3h-13.4V1250h30.4v71.4h13.4v15.1h-43.8v-15.1H1453.2z M1450.7,1220.6
				c0-2.7,1-5.1,2.9-7.1c1.9-2,4.4-3,7.4-3c2.8,0,5.2,1,7.2,2.9c2,2,3,4.4,3,7.2s-1,5.3-3,7.3c-2,2-4.4,3-7.2,3c-2.9,0-5.3-1-7.3-3
				C1451.7,1225.9,1450.7,1223.4,1450.7,1220.6z"/>
			<path class="st12" d="M1601.1,1321.4v15.1h-32.5v-12.7c-8.5,9.4-18.8,14.1-30.9,14.1c-11.3,0-21.1-3.8-29.7-11.5
				c-8.5-7.7-12.8-18.6-12.8-32.8c0-14.2,4.4-25.5,13.1-33.7s18.6-12.3,29.7-12.3c11.7,0,21.9,4.6,30.5,13.9v-34.2h-16.6v-15.1h33.6
				v109.2H1601.1z M1513.4,1293.2c0,9.5,2.7,16.9,8.1,22c5.4,5.1,11.8,7.7,19.3,7.7c7.3,0,13.7-2.7,19.3-8.1
				c5.6-5.4,8.4-12.8,8.4-22.4c0-9.6-2.9-16.8-8.6-21.7c-5.7-4.9-12.2-7.3-19.3-7.3c-7.7,0-14.1,2.9-19.4,8.6
				C1516,1277.7,1513.4,1284.8,1513.4,1293.2z"/>
			<path class="st12" d="M1608.5,1293.3c0-13.3,4.4-24.3,13.2-32.8c8.8-8.5,19.6-12.8,32.2-12.8c12.4,0,23.1,4.2,32.1,12.6
				c8.9,8.4,13.4,19.4,13.4,33c0,13.6-4.5,24.6-13.4,33.1c-8.9,8.5-19.6,12.7-32.1,12.7c-12.9,0-23.7-4.3-32.4-12.9
				C1612.9,1317.6,1608.5,1306.6,1608.5,1293.3z M1626.4,1293.2c0,8.5,2.7,15.5,8,21c5.3,5.5,11.8,8.2,19.5,8.2
				c7.8,0,14.3-2.8,19.6-8.3c5.3-5.5,7.9-12.5,7.9-20.9c0-8.5-2.7-15.5-8-20.9c-5.4-5.5-11.9-8.2-19.5-8.2c-8,0-14.6,2.8-19.7,8.4
				C1629,1278.1,1626.4,1285,1626.4,1293.2z"/>
		</g>
	</g>
	<g>
		<linearGradient id="SVGID_12_" gradientUnits="userSpaceOnUse" x1="198.6654" y1="984.3158" x2="360.679" y2="984.3158">
			<stop  offset="0" style="stop-color:#FFCE00"/>
			<stop  offset="0.7622" style="stop-color:#FFC300"/>
			<stop  offset="1" style="stop-color:#FFBF00"/>
		</linearGradient>
		<path class="st13" d="M266.8,1128.5c-29.6-2.8-45.1-18.8-45.1-21.1c0-9.4,10.3-23.9,16.9-23.9c5.6,0,10.8,11.7,28.2,14.6v-69
			c-31-17.4-68.1-38-68.1-87.3c0-38,30.5-78,68.1-96.7v-37.1c0-1.4-2.3-3.8-2.3-6.1c0-3.8,4.7-5.2,13.6-5.2
			c8.9,0,14.6,2.8,14.6,11.7v27.2c5.6-0.9,11.3-1.9,17.4-1.9c31.5,0,50.7,20.7,50.7,52.1c0,28.6-17.4,57.3-35.2,57.3
			c-8,0-16-6.6-18.3-13.6c-2.3-6.6,1.4-9.9,4.2-9.9c11.3,0,14.6-16,14.6-31.5c0-12.7-5.2-20.2-19.7-20.2c-4.2,0-8.9,0.9-13.6,2.3
			V1005c23.9,14.6,47,31.5,47,63.9c0,27.2-21.1,49.8-47,57.3v37.6c0,6.1-2.8,8.5-9.4,8.5c-8.9,0-16.4-4.2-16.4-13.6V1128.5z
			 M266.8,989.5V883.8c-17.8,13.6-32.4,34.3-32.4,57.8C234.4,963.7,248.4,977.3,266.8,989.5z M292.6,1045.4v49.8
			c9.9-4.7,14.1-14.1,14.1-24.9C306.7,1060.4,301,1052.4,292.6,1045.4z"/>
		<linearGradient id="SVGID_13_" gradientUnits="userSpaceOnUse" x1="383.6849" y1="986.4293" x2="526.9134" y2="986.4293">
			<stop  offset="0" style="stop-color:#FFCE00"/>
			<stop  offset="0.7622" style="stop-color:#FFC300"/>
			<stop  offset="1" style="stop-color:#FFBF00"/>
		</linearGradient>
		<path class="st14" d="M406.2,826.5c0.5-3.8,3.3-4.7,5.2-4.7c12.2,0,35.2,0,47.4,0c26.3,0,40.4-0.5,40.4-0.5c7.5,0,8-4.7,11.7-4.7
			s4.7,7.5,4.7,11.7c0,14.6-5.2,28.2-17.8,28.2h-61.5l-5.2,59.2c6.1-4.7,16-8.9,28.2-8.9c26.3,0,67.6,20.7,67.6,116
			c0,97.2-38,133.4-75.1,133.4c-53.5,0-68.1-62.9-68.1-86.9c0-13.6,3.3-21.6,15-21.6s23,7.5,23,11.7c0,2.8-1.9,2.8-1.9,8.5
			c0,10.3,2.8,53.5,32.4,53.5c24.4,0,38-33.8,38-98.6c0-51.2-12.7-82.2-38.5-82.2c-19.3,0-24.9,16.4-36.6,16.4
			c-5.6,0-24.4-7-22.5-18.3L406.2,826.5z"/>
		<linearGradient id="SVGID_14_" gradientUnits="userSpaceOnUse" x1="560.723" y1="861.0448" x2="609.5618" y2="861.0448">
			<stop  offset="0" style="stop-color:#FFCE00"/>
			<stop  offset="0.7622" style="stop-color:#FFC300"/>
			<stop  offset="1" style="stop-color:#FFBF00"/>
		</linearGradient>
		<path class="st15" d="M609.6,849.1c0,17.4-23.5,51.7-35.2,51.7c-8,0-13.6-8.9-13.6-14.6c0-2.3,1.4-2.3,3.3-3.3
			c3.3-0.9,10.3-8.9,16.9-17.8c-9.9-2.3-17.4-10.8-17.4-21.1c0-12.7,10.8-22.5,23-22.5C598.8,821.4,609.6,830.3,609.6,849.1z"/>
		<linearGradient id="SVGID_15_" gradientUnits="userSpaceOnUse" x1="640.0833" y1="986.4293" x2="783.3118" y2="986.4293">
			<stop  offset="0" style="stop-color:#FFCE00"/>
			<stop  offset="0.7622" style="stop-color:#FFC300"/>
			<stop  offset="1" style="stop-color:#FFBF00"/>
		</linearGradient>
		<path class="st16" d="M662.6,826.5c0.5-3.8,3.3-4.7,5.2-4.7c12.2,0,35.2,0,47.4,0c26.3,0,40.4-0.5,40.4-0.5c7.5,0,8-4.7,11.7-4.7
			s4.7,7.5,4.7,11.7c0,14.6-5.2,28.2-17.8,28.2h-61.5l-5.2,59.2c6.1-4.7,16-8.9,28.2-8.9c26.3,0,67.6,20.7,67.6,116
			c0,97.2-38,133.4-75.1,133.4c-53.5,0-68.1-62.9-68.1-86.9c0-13.6,3.3-21.6,15-21.6s23,7.5,23,11.7c0,2.8-1.9,2.8-1.9,8.5
			c0,10.3,2.8,53.5,32.4,53.5c24.4,0,38-33.8,38-98.6c0-51.2-12.7-82.2-38.5-82.2c-19.3,0-24.9,16.4-36.6,16.4
			c-5.6,0-24.4-7-22.5-18.3L662.6,826.5z"/>
		<linearGradient id="SVGID_16_" gradientUnits="userSpaceOnUse" x1="815.7142" y1="985.2552" x2="987.1194" y2="985.2552">
			<stop  offset="0" style="stop-color:#FFCE00"/>
			<stop  offset="0.7622" style="stop-color:#FFC300"/>
			<stop  offset="1" style="stop-color:#FFBF00"/>
		</linearGradient>
		<path class="st17" d="M815.7,985.3c0-42.7,0-170.9,85.9-170.9c76.5,0,85.5,97.2,85.5,170.9c0,141.8-46.5,170.9-85.5,170.9
			C844.4,1156.2,815.7,1098.4,815.7,985.3z M852.3,985.3c0,50.7,5.6,136.2,49.3,136.2c31,0,48.8-51.7,48.8-136.2
			c0-135.2-37.1-136.2-48.8-136.2C868.3,849.1,852.3,895.1,852.3,985.3z"/>
		<linearGradient id="SVGID_17_" gradientUnits="userSpaceOnUse" x1="1019.9905" y1="985.2552" x2="1191.3959" y2="985.2552">
			<stop  offset="0" style="stop-color:#FFCE00"/>
			<stop  offset="0.7622" style="stop-color:#FFC300"/>
			<stop  offset="1" style="stop-color:#FFBF00"/>
		</linearGradient>
		<path class="st18" d="M1020,985.3c0-42.7,0-170.9,85.9-170.9c76.5,0,85.5,97.2,85.5,170.9c0,141.8-46.5,170.9-85.5,170.9
			C1048.6,1156.2,1020,1098.4,1020,985.3z M1056.6,985.3c0,50.7,5.6,136.2,49.3,136.2c31,0,48.8-51.7,48.8-136.2
			c0-135.2-37.1-136.2-48.8-136.2C1072.6,849.1,1056.6,895.1,1056.6,985.3z"/>
		<linearGradient id="SVGID_18_" gradientUnits="userSpaceOnUse" x1="1251.973" y1="1131.0673" x2="1297.5248" y2="1131.0673">
			<stop  offset="0" style="stop-color:#FFCE00"/>
			<stop  offset="0.7622" style="stop-color:#FFC300"/>
			<stop  offset="1" style="stop-color:#FFBF00"/>
		</linearGradient>
		<path class="st19" d="M1297.5,1131.3c0,11.7-10.3,22.1-23,22.1c-12.2,0-22.5-10.3-22.5-22.1c0-12.7,10.3-22.5,22.5-22.5
			C1287.2,1108.8,1297.5,1118.6,1297.5,1131.3z"/>
		<linearGradient id="SVGID_19_" gradientUnits="userSpaceOnUse" x1="1351.0551" y1="985.2552" x2="1522.4603" y2="985.2552">
			<stop  offset="0" style="stop-color:#FFCE00"/>
			<stop  offset="0.7622" style="stop-color:#FFC300"/>
			<stop  offset="1" style="stop-color:#FFBF00"/>
		</linearGradient>
		<path class="st20" d="M1351.1,985.3c0-42.7,0-170.9,85.9-170.9c76.5,0,85.5,97.2,85.5,170.9c0,141.8-46.5,170.9-85.5,170.9
			C1379.7,1156.2,1351.1,1098.4,1351.1,985.3z M1387.7,985.3c0,50.7,5.6,136.2,49.3,136.2c31,0,48.8-51.7,48.8-136.2
			c0-135.2-37.1-136.2-48.8-136.2C1403.7,849.1,1387.7,895.1,1387.7,985.3z"/>
		<linearGradient id="SVGID_20_" gradientUnits="userSpaceOnUse" x1="1555.3304" y1="985.2552" x2="1726.7357" y2="985.2552">
			<stop  offset="0" style="stop-color:#FFCE00"/>
			<stop  offset="0.7622" style="stop-color:#FFC300"/>
			<stop  offset="1" style="stop-color:#FFBF00"/>
		</linearGradient>
		<path class="st21" d="M1555.3,985.3c0-42.7,0-170.9,85.9-170.9c76.5,0,85.5,97.2,85.5,170.9c0,141.8-46.5,170.9-85.5,170.9
			C1584,1156.2,1555.3,1098.4,1555.3,985.3z M1592,985.3c0,50.7,5.6,136.2,49.3,136.2c31,0,48.8-51.7,48.8-136.2
			c0-135.2-37.1-136.2-48.8-136.2C1607.9,849.1,1592,895.1,1592,985.3z"/>
		<linearGradient id="SVGID_21_" gradientUnits="userSpaceOnUse" x1="1759.6078" y1="985.2552" x2="1931.0131" y2="985.2552">
			<stop  offset="0" style="stop-color:#FFCE00"/>
			<stop  offset="0.7622" style="stop-color:#FFC300"/>
			<stop  offset="1" style="stop-color:#FFBF00"/>
		</linearGradient>
		<path class="st22" d="M1759.6,985.3c0-42.7,0-170.9,85.9-170.9c76.5,0,85.5,97.2,85.5,170.9c0,141.8-46.5,170.9-85.5,170.9
			C1788.3,1156.2,1759.6,1098.4,1759.6,985.3z M1796.2,985.3c0,50.7,5.6,136.2,49.3,136.2c31,0,48.8-51.7,48.8-136.2
			c0-135.2-37.1-136.2-48.8-136.2C1812.2,849.1,1796.2,895.1,1796.2,985.3z"/>
	</g>
	<g>
		<path class="st12" d="M252.8,1115.5c-29.6-2.8-45.1-18.8-45.1-21.1c0-9.4,10.3-23.9,16.9-23.9c5.6,0,10.8,11.7,28.2,14.6v-69
			c-31-17.4-68.1-38-68.1-87.3c0-38,30.5-78,68.1-96.7v-37.1c0-1.4-2.3-3.8-2.3-6.1c0-3.8,4.7-5.2,13.6-5.2
			c8.9,0,14.6,2.8,14.6,11.7v27.2c5.6-0.9,11.3-1.9,17.4-1.9c31.5,0,50.7,20.7,50.7,52.1c0,28.6-17.4,57.3-35.2,57.3
			c-8,0-16-6.6-18.3-13.6c-2.3-6.6,1.4-9.9,4.2-9.9c11.3,0,14.6-16,14.6-31.5c0-12.7-5.2-20.2-19.7-20.2c-4.2,0-8.9,0.9-13.6,2.3
			V992c23.9,14.6,47,31.5,47,63.9c0,27.2-21.1,49.8-47,57.3v37.6c0,6.1-2.8,8.5-9.4,8.5c-8.9,0-16.4-4.2-16.4-13.6V1115.5z
			 M252.8,976.5V870.8c-17.8,13.6-32.4,34.3-32.4,57.8C220.4,950.7,234.4,964.3,252.8,976.5z M278.6,1032.4v49.8
			c9.9-4.7,14.1-14.1,14.1-24.9C292.7,1047.4,287,1039.4,278.6,1032.4z"/>
		<path class="st12" d="M392.2,813.5c0.5-3.8,3.3-4.7,5.2-4.7c12.2,0,35.2,0,47.4,0c26.3,0,40.4-0.5,40.4-0.5c7.5,0,8-4.7,11.7-4.7
			s4.7,7.5,4.7,11.7c0,14.6-5.2,28.2-17.8,28.2h-61.5l-5.2,59.2c6.1-4.7,16-8.9,28.2-8.9c26.3,0,67.6,20.7,67.6,116
			c0,97.2-38,133.4-75.1,133.4c-53.5,0-68.1-62.9-68.1-86.9c0-13.6,3.3-21.6,15-21.6s23,7.5,23,11.7c0,2.8-1.9,2.8-1.9,8.5
			c0,10.3,2.8,53.5,32.4,53.5c24.4,0,38-33.8,38-98.6c0-51.2-12.7-82.2-38.5-82.2c-19.3,0-24.9,16.4-36.6,16.4
			c-5.6,0-24.4-7-22.5-18.3L392.2,813.5z"/>
		<path class="st12" d="M595.6,836.1c0,17.4-23.5,51.7-35.2,51.7c-8,0-13.6-8.9-13.6-14.6c0-2.3,1.4-2.3,3.3-3.3
			c3.3-0.9,10.3-8.9,16.9-17.8c-9.9-2.3-17.4-10.8-17.4-21.1c0-12.7,10.8-22.5,23-22.5C584.8,808.4,595.6,817.3,595.6,836.1z"/>
		<path class="st12" d="M648.6,813.5c0.5-3.8,3.3-4.7,5.2-4.7c12.2,0,35.2,0,47.4,0c26.3,0,40.4-0.5,40.4-0.5c7.5,0,8-4.7,11.7-4.7
			s4.7,7.5,4.7,11.7c0,14.6-5.2,28.2-17.8,28.2h-61.5l-5.2,59.2c6.1-4.7,16-8.9,28.2-8.9c26.3,0,67.6,20.7,67.6,116
			c0,97.2-38,133.4-75.1,133.4c-53.5,0-68.1-62.9-68.1-86.9c0-13.6,3.3-21.6,15-21.6s23,7.5,23,11.7c0,2.8-1.9,2.8-1.9,8.5
			c0,10.3,2.8,53.5,32.4,53.5c24.4,0,38-33.8,38-98.6c0-51.2-12.7-82.2-38.5-82.2c-19.3,0-24.9,16.4-36.6,16.4
			c-5.6,0-24.4-7-22.5-18.3L648.6,813.5z"/>
		<path class="st12" d="M801.7,972.3c0-42.7,0-170.9,85.9-170.9c76.5,0,85.5,97.2,85.5,170.9c0,141.8-46.5,170.9-85.5,170.9
			C830.4,1143.2,801.7,1085.4,801.7,972.3z M838.3,972.3c0,50.7,5.6,136.2,49.3,136.2c31,0,48.8-51.7,48.8-136.2
			c0-135.2-37.1-136.2-48.8-136.2C854.3,836.1,838.3,882.1,838.3,972.3z"/>
		<path class="st12" d="M1006,972.3c0-42.7,0-170.9,85.9-170.9c76.5,0,85.5,97.2,85.5,170.9c0,141.8-46.5,170.9-85.5,170.9
			C1034.6,1143.2,1006,1085.4,1006,972.3z M1042.6,972.3c0,50.7,5.6,136.2,49.3,136.2c31,0,48.8-51.7,48.8-136.2
			c0-135.2-37.1-136.2-48.8-136.2C1058.6,836.1,1042.6,882.1,1042.6,972.3z"/>
		<path class="st12" d="M1283.5,1118.3c0,11.7-10.3,22.1-23,22.1c-12.2,0-22.5-10.3-22.5-22.1c0-12.7,10.3-22.5,22.5-22.5
			C1273.2,1095.8,1283.5,1105.6,1283.5,1118.3z"/>
		<path class="st12" d="M1337.1,972.3c0-42.7,0-170.9,85.9-170.9c76.5,0,85.5,97.2,85.5,170.9c0,141.8-46.5,170.9-85.5,170.9
			C1365.7,1143.2,1337.1,1085.4,1337.1,972.3z M1373.7,972.3c0,50.7,5.6,136.2,49.3,136.2c31,0,48.8-51.7,48.8-136.2
			c0-135.2-37.1-136.2-48.8-136.2C1389.7,836.1,1373.7,882.1,1373.7,972.3z"/>
		<path class="st12" d="M1541.3,972.3c0-42.7,0-170.9,85.9-170.9c76.5,0,85.5,97.2,85.5,170.9c0,141.8-46.5,170.9-85.5,170.9
			C1570,1143.2,1541.3,1085.4,1541.3,972.3z M1578,972.3c0,50.7,5.6,136.2,49.3,136.2c31,0,48.8-51.7,48.8-136.2
			c0-135.2-37.1-136.2-48.8-136.2C1593.9,836.1,1578,882.1,1578,972.3z"/>
		<path class="st12" d="M1745.6,972.3c0-42.7,0-170.9,85.9-170.9c76.5,0,85.5,97.2,85.5,170.9c0,141.8-46.5,170.9-85.5,170.9
			C1774.3,1143.2,1745.6,1085.4,1745.6,972.3z M1782.2,972.3c0,50.7,5.6,136.2,49.3,136.2c31,0,48.8-51.7,48.8-136.2
			c0-135.2-37.1-136.2-48.8-136.2C1798.2,836.1,1782.2,882.1,1782.2,972.3z"/>
	</g>
	<g>
		<g>
			<path class="st12" d="M906,508.7c-4.1-5.5-8.7-10.4-13.7-15c-8.7,0.2-17.3,0.6-25.9,1.1c-19.5,1.1-39,3-58,5.6
				c-9.2,1.2-17.8,2.6-24.3,3.6c-6.5,1.1-12.4,2.2-18.1,3.3l-2.5,0.5c-6,1.2-11.4,2.4-16.5,3.5c-0.4,0.1-0.8,0.2-1.2,0.3
				c2.7,3.9,6.2,6.5,10.6,7.6l-14.9,143.6c-5.2,2.4-9.8,5.9-13.8,10.6c-3.3,4-6.3,9.5-9,16.4c-2.7,7-3.6,16.1-2.7,27.4h89.1
				c21,0,39.3-3.5,55-10.4c15.7-7,28.8-16.2,39.3-27.8c10.5-11.5,18.4-24.6,23.9-39.3c5.4-14.6,8.3-29.6,8.7-45.1
				c0.4-15.4-1.7-30.6-6-45.6C921.6,534.1,915,520.6,906,508.7z M875.3,589.5c-0.9,12.5-4.4,24-10.3,34.5
				c-5.9,10.5-14.1,19.2-24.8,26c-10.6,6.8-23.5,9.9-38.5,9.2l11-138.6c15.1-0.9,27.4,1.9,37,8.7c9.5,6.7,16.4,15.3,20.7,25.8
				C874.5,565.6,876.2,577.1,875.3,589.5z"/>
		</g>
		<path class="st12" d="M1785.5,623.1c-5.2,13.4-10.7,24.2-16.4,32.2c-5.8,8-12.3,14.3-19.6,18.7c4.2-8.7,6-17,5.1-24.8
			c-0.8-7.8-3.2-15.2-7.1-22.3c-3.9-7.1-8.7-13.7-14.5-20c-5.8-6.2-11.6-12.4-17.3-18.4c-5.8-6-11-11.8-15.7-17.5
			c-4.7-5.7-8-11.3-9.9-17c-4.5-6.1-10.2-10.1-17.2-11.8c-7-1.8-13.7-1.8-20.3,0c-6.6,1.8-12.3,5.2-17,10.3
			c-4.7,5.1-7.1,11.5-7.1,19.3c0,7.5-1.3,15.9-3.9,24.9c-2.6,9.1-5.7,17.9-9.2,26.3c-3.5,8.5-7.3,16.3-11.3,23.5
			c-3.5,6.4-6.6,11.3-9.2,14.8c-0.3,0.2-0.6,0.4-0.8,0.6c-7.4,5.2-13.6,7.5-18.6,7.1c8.3-15.8,11.4-31.9,9.5-48.5
			c-1.9-16.5-9.1-31.1-21.6-43.9c-7.5-7.8-16.1-13.5-25.6-17.2c-9.5-3.7-19.3-5.3-29.4-5c-10,0.4-20,2.7-29.9,6.9
			c-9.9,4.2-18.9,10.4-26.9,18.4c-8,8.3-14.1,17.4-18.4,27.4c-4.2,10-6.5,20.2-6.7,30.6c0,2,0,4,0.1,6c-6.1,10.7-12.8,19-20.3,25.1
			c-11.6,9.4-23,14.4-34.3,14.9c-4.2,0-8.4-0.6-12.4-1.8c-4-1.2-7.7-2.9-11-5.3c-3.3-2.4-6.2-5.3-8.6-8.8c-2.4-3.5-3.9-7.5-4.6-12
			c3.3,1.4,7.4,2,12.4,1.8c5-0.2,10.1-1.3,15.6-3.2c5.4-1.9,10.8-4.6,16.1-8.1c5.3-3.5,9.9-8,13.8-13.4c3.9-5.4,6.8-11.6,8.7-18.6
			c1.9-7,2.1-14.9,0.7-23.9c-0.3-2.7-0.9-5.3-1.8-7.9c-3.4,0.4-7,0.8-10.9,1.1c-3.8,0.3-7.6,0.5-11.4,0.7l-0.3,0l-5.6,0.2
			c-1.4,0-2.7,0-4,0l-1.8,0c-8,0-15.9-0.3-23.4-0.9c-13.8-1-28.3-3.1-43.2-6.1c-2.5,2.5-4.9,5.3-7.1,8.2
			c-5.7,7.3-10.1,15.4-13.4,24.2c-2.9,7.9-4.7,16.3-5.2,25.2c-3.6,7.9-7.4,14.5-11.3,19.9c-5.8,8-12.3,14.3-19.6,18.7
			c4.2-8.7,6-17,5.1-24.8c-0.8-7.8-3.2-15.2-7.1-22.3c-3.9-7.1-8.7-13.7-14.5-20c-5.8-6.2-11.6-12.4-17.3-18.4
			c-5.8-6-11-11.8-15.7-17.5c-4.7-5.7-8-11.3-9.9-17c-4.5-6.1-10.2-10.1-17.2-11.8c-7-1.8-13.7-1.8-20.3,0
			c-6.6,1.8-12.3,5.2-17,10.3c-4.7,5.1-7.1,11.5-7.1,19.3c0,7.5-1.3,15.9-3.9,24.9c-2.6,9.1-5.7,17.9-9.2,26.3
			c-3.5,8.5-7.3,16.3-11.3,23.5c-2.5,4.5-4.8,8.3-6.8,11.4c-3.4,4.3-7,8-10.8,11.1c-11.6,9.4-23,14.4-34.3,14.9
			c-4.2,0-8.4-0.6-12.4-1.8c-4-1.2-7.7-2.9-11-5.3c-3.3-2.4-6.2-5.3-8.6-8.8c-2.4-3.5-3.9-7.5-4.6-12c3.3,1.4,7.4,2,12.4,1.8
			c5-0.2,10.1-1.3,15.6-3.2c5.4-1.9,10.8-4.6,16.1-8.1c5.3-3.5,9.9-8,13.8-13.4c3.9-5.4,6.8-11.6,8.7-18.6c1.9-7,2.1-14.9,0.7-23.9
			c-0.5-5-2.1-9.6-4.8-14c-2.7-4.4-6.3-8.2-10.6-11.5c-4.4-3.3-9.4-5.9-15-7.8c-5.7-1.9-11.7-2.8-18-2.8c-5.7,0-12.5,1-20.4,3
			c-7.9,2-15.1,5.4-21.5,10.1c-7.1,5-13.4,11.1-19.1,18.4c-5.7,7.3-10.1,15.4-13.4,24.2c-3.3,8.8-5.1,18.3-5.3,28.5
			c-0.2,10.1,1.4,20.5,5,31.1c2.4,6.1,5.8,12,10.4,17.7c4.6,5.7,10.1,10.7,16.6,15.2c6.5,4.5,13.9,8,22.2,10.6
			c8.3,2.6,17.2,3.9,26.7,3.9c13.7,0,26-2.1,37-6.4c11-4.2,20.7-10.3,29.2-18c8.5-7.8,15.9-17.2,22.3-28.3
			c4.4-7.6,8.3-15.9,11.6-24.8c4.9-10.4,9.5-22.6,13.8-36.7c5.9,5.7,12.4,11.6,19.5,17.9c7.1,6.3,13,12.5,17.9,18.7
			c4.8,6.3,7.7,12.4,8.7,18.4c0.9,6-1.7,11.5-7.8,16.4c-1.2,0.7-2.8,1.6-5,2.7c-2.1,1.1-3.7,1.7-4.6,1.9c2.6-4,3.9-8.4,3.9-13.1
			c0-4.7-1.1-9-3.4-12.9c-2.2-3.9-5.5-6.9-9.9-9c-4.4-2.1-9.5-2.6-15.4-1.4c-4.2,1.2-7.8,3.1-10.8,5.7c-3,2.6-5.3,5.7-6.9,9.4
			c-1.7,3.7-2.6,7.6-2.8,11.8c-0.2,4.2,0.4,8.5,1.8,12.7c2.1,6.1,5.3,11.4,9.5,15.7c4.2,4.4,9,8,14.3,10.8c5.3,2.8,11,5,17,6.4
			c6,1.4,11.8,2.1,17.5,2.1c17.2,0,32-2.1,44.4-6.2c12.4-4.1,23-10,31.8-17.5c6.6-5.7,12.6-12.2,17.8-19.7c2.2,4.7,5.1,9.3,8.7,13.7
			c4.6,5.7,10.1,10.7,16.6,15.2c6.5,4.5,13.9,8,22.2,10.6c8.3,2.6,17.2,3.9,26.7,3.9c13.7,0,26-2.1,37-6.4c11-4.2,20.7-10.3,29.2-18
			c5-4.6,9.6-9.8,13.9-15.5c3.3,6.2,7.5,12,12.6,17.3c6.4,6.8,13.6,12.1,21.6,15.7c8,3.7,16.4,5.8,25.1,6.5
			c8.7,0.7,17.4-0.1,26.2-2.3c8.7-2.2,17.1-6,25.1-11.1c20.7,1.9,38.9-2.4,54.5-12.7c13.2-8.8,23.7-23.4,31.4-43.7
			c1-2.1,2.1-4.1,3-6.2c5.1-10.6,9.8-23.2,14.3-37.8c5.9,5.7,12.4,11.6,19.5,17.9c7.1,6.3,13,12.5,17.9,18.7
			c4.8,6.3,7.7,12.4,8.7,18.4c0.9,6-1.7,11.5-7.8,16.4c-1.2,0.7-2.8,1.6-5,2.7c-2.1,1.1-3.7,1.7-4.6,1.9c2.6-4,3.9-8.4,3.9-13.1
			c0-4.7-1.1-9-3.4-12.9c-2.2-3.9-5.5-6.9-9.9-9c-4.4-2.1-9.5-2.6-15.4-1.4c-4.2,1.2-7.8,3.1-10.8,5.7c-3,2.6-5.3,5.7-6.9,9.4
			c-1.7,3.7-2.6,7.6-2.8,11.8c-0.2,4.2,0.4,8.5,1.8,12.7c2.1,6.1,5.3,11.4,9.5,15.7c4.2,4.4,9,8,14.3,10.8c5.3,2.8,11,5,17,6.4
			c6,1.4,11.8,2.1,17.5,2.1c17.2,0,32-2.1,44.4-6.2c12.4-4.1,23-10,31.8-17.5c8.8-7.5,16.4-16.7,22.8-27.6
			c6.4-10.8,12.3-23,17.7-36.4L1785.5,623.1z M1007.2,617.1c0.2-1.9,1.1-4.1,2.5-6.5c1.4-2.5,3-4.8,4.8-6.9c1.8-2.1,3.7-3.8,5.8-5.1
			c2.1-1.3,4.1-1.9,6-1.9c2.6,0.2,4.2,1.5,4.8,3.9c0.6,2.4,0.4,5.1-0.5,8.1c-0.9,3.1-2.5,6.1-4.8,9.2c-2.2,3.1-4.9,5.3-8,6.7
			c-2.8,1.4-5.5,1.7-8.1,0.9C1007,624.6,1006.2,621.9,1007.2,617.1z M1332.9,617.1c0.2-1.9,1.1-4.1,2.5-6.5c1.4-2.5,3-4.8,4.8-6.9
			c1.8-2.1,3.7-3.8,5.8-5.1c2.1-1.3,4.1-1.9,6-1.9c2.6,0.2,4.2,1.5,4.8,3.9c0.6,2.4,0.4,5.1-0.5,8.1c-0.9,3.1-2.5,6.1-4.8,9.2
			c-2.2,3.1-4.9,5.3-8,6.7c-2.8,1.4-5.5,1.7-8.1,0.9C1332.8,624.6,1331.9,621.9,1332.9,617.1z M1526.3,635.5
			c-8.7,1.4-15.2,6-19.5,13.8c-1.2,3.3-1.8,6.8-1.9,10.6c-0.1,3.8,0.5,7.3,1.9,10.6c-4,1.7-8,1.7-11.8,0.2c-3.9-1.5-7.1-4.7-9.7-9.4
			c-1.9-3.5-3.1-7.5-3.7-11.8c-0.6-4.4-0.7-8.8-0.2-13.4c0.5-4.6,1.5-9.1,3-13.4c1.5-4.4,3.6-8.3,6.2-11.8c5.4-7.3,11.2-11,17.3-11
			c6.1,0,11.1,3.7,14.9,11c1.9,3.5,3.1,7.5,3.7,12C1527.1,627.3,1527,631.5,1526.3,635.5z"/>
	</g>
	<linearGradient id="SVGID_22_" gradientUnits="userSpaceOnUse" x1="823.9891" y1="588.3785" x2="906.8544" y2="588.3785">
		<stop  offset="0" style="stop-color:#FFFFFF;stop-opacity:0"/>
		<stop  offset="1" style="stop-color:#FFFFFF"/>
	</linearGradient>
	<path class="st23" d="M867,494.8c0,0,0.7,0.5,2,1.6c1.3,1.1,3.1,2.7,5.3,4.9c4.4,4.4,10.2,11.2,15.9,20.3c1.4,2.3,2.8,4.8,4.2,7.3
		c1.3,2.6,2.6,5.3,3.9,8.2c1.2,2.9,2.4,5.9,3.4,9c1.1,3.1,1.9,6.4,2.7,9.8c0.8,3.4,1.3,6.9,1.8,10.4c0.4,3.6,0.6,7.2,0.6,10.9
		c0,7.4-0.8,14.9-2.5,22.2c-1.8,7.3-4.2,14.4-7.5,21c-1.6,3.3-3.3,6.5-5.3,9.5c-0.5,0.8-0.9,1.5-1.4,2.3c-0.5,0.7-1,1.5-1.5,2.2
		c-0.5,0.7-1,1.4-1.5,2.1c-0.5,0.7-1,1.4-1.6,2.1c-4.1,5.5-8.6,10.3-13.1,14.7c-4.5,4.3-9,8-13.3,11.2c-2.2,1.6-4.3,3.1-6.3,4.4
		c-2.1,1.3-4,2.6-5.8,3.7c-1.9,1.1-3.6,2.1-5.2,3c-1.6,0.9-3.2,1.7-4.5,2.4c-0.7,0.4-1.3,0.7-1.9,1c-0.6,0.3-1.2,0.6-1.8,0.8
		c-1.1,0.5-2,0.9-2.8,1.3c-1.5,0.7-2.3,1-2.3,1s0.6-0.6,1.8-1.8c1.2-1.2,3-2.8,5.1-4.9c1.1-1.1,2.3-2.2,3.6-3.5
		c1.3-1.3,2.7-2.7,4.2-4.2c1.5-1.5,3-3.1,4.7-4.8c1.6-1.7,3.3-3.5,5-5.4c1.7-1.9,3.5-3.8,5.2-5.9c1.8-2.1,3.5-4.2,5.4-6.5
		c3.5-4.5,7-9.4,10.3-14.6c0.4-0.7,0.8-1.3,1.2-2c0.4-0.7,0.8-1.3,1.2-2c0.4-0.7,0.8-1.3,1.2-2c0.4-0.7,0.7-1.4,1.1-2.1
		c0.8-1.4,1.4-2.8,2.1-4.2c0.7-1.4,1.3-2.9,2-4.3c2.5-5.8,4.6-11.9,6-18.1c0.4-1.5,0.7-3.1,1-4.7c0.2-1.6,0.6-3.1,0.7-4.7
		c0.4-3.1,0.7-6.3,0.9-9.4c0-1.6,0.1-3.1,0.1-4.7c0-1.6,0-3.1-0.1-4.7c-0.2-3.1-0.4-6.2-0.8-9.2c-0.8-6-2-11.9-3.5-17.4
		c-1.5-5.5-3.2-10.7-5-15.4c-1.8-4.7-3.6-9-5.4-12.8c-1.7-3.8-3.4-7.1-4.8-9.7C868.8,497.8,867,494.8,867,494.8z"/>
	<linearGradient id="SVGID_23_" gradientUnits="userSpaceOnUse" x1="992.6373" y1="573.0754" x2="1059.4468" y2="573.0754">
		<stop  offset="0" style="stop-color:#FFFFFF;stop-opacity:0"/>
		<stop  offset="1" style="stop-color:#FFFFFF"/>
	</linearGradient>
	<path class="st24" d="M995,560.8c0,0,0.2-0.3,0.8-0.7c0.5-0.4,1.3-1,2.3-1.7c2-1.4,5-3.2,9-4.8c2-0.8,4.2-1.5,6.6-2.1
		c2.4-0.6,5-1,7.8-1.1c0.7,0,1.4-0.1,2.1-0.1c0.7,0,1.4,0.1,2.2,0.1c1.5,0,2.9,0.3,4.4,0.6c3,0.6,6,1.7,8.8,3.1
		c0.7,0.4,1.4,0.8,2,1.3l1,0.6c0.3,0.2,0.6,0.5,1,0.7c0.6,0.5,1.3,1,1.9,1.5c0.6,0.6,1.1,1.1,1.7,1.7c1.1,1.1,2,2.4,2.9,3.6
		c0.9,1.2,1.6,2.5,2.3,3.8c0.6,1.3,1.1,2.6,1.6,3.8c0.4,1.3,0.8,2.5,1.1,3.8c0.3,1.2,0.5,2.4,0.7,3.6c0.2,1.2,0.3,2.3,0.3,3.3
		c0,1.1,0.1,2.1,0.1,3c0,1-0.1,1.9-0.1,2.7c-0.1,0.9-0.1,1.6-0.2,2.4c-0.1,0.7-0.2,1.4-0.3,2c-0.2,1.2-0.4,2.1-0.6,2.8
		c-0.1,0.6-0.2,1-0.2,1s-0.2-0.3-0.4-0.9c-0.2-0.6-0.6-1.5-1-2.6c-0.2-0.6-0.4-1.2-0.6-1.8c-0.3-0.7-0.5-1.4-0.8-2.1
		c-0.3-0.8-0.6-1.6-0.9-2.4c-0.4-0.8-0.7-1.7-1.1-2.6c-0.2-0.4-0.4-0.9-0.6-1.4c-0.2-0.5-0.4-0.9-0.7-1.4c-0.5-0.9-0.8-1.9-1.4-2.8
		c-0.5-0.9-1-1.8-1.6-2.8c-0.6-0.9-1.2-1.8-1.8-2.7c-0.7-0.8-1.3-1.7-2-2.5c-0.4-0.4-0.7-0.8-1.1-1.2c-0.3-0.4-0.7-0.8-1.1-1.1
		l-1.2-1.1c-0.4-0.3-0.9-0.6-1.3-0.9c-0.2-0.2-0.4-0.3-0.6-0.5l-0.7-0.4c-0.5-0.3-0.9-0.6-1.4-0.8c-1-0.5-1.9-1-2.9-1.3
		c-1-0.4-2.1-0.7-3.1-1.1c-2.2-0.5-4.3-1-6.6-1.3c-2.2-0.2-4.4-0.4-6.6-0.4c-2.1-0.1-4.2,0-6.2,0.1c-1.9,0.1-3.7,0.2-5.4,0.3
		c-1.6,0.1-3,0.2-4.2,0.3C996.3,560.6,995,560.8,995,560.8z"/>
	<linearGradient id="SVGID_24_" gradientUnits="userSpaceOnUse" x1="1139.5482" y1="612.9911" x2="1228.3295" y2="612.9911">
		<stop  offset="0" style="stop-color:#FFFFFF;stop-opacity:0"/>
		<stop  offset="1" style="stop-color:#FFFFFF"/>
	</linearGradient>
	<path class="st25" d="M1143.4,539.5c0,0,0.7,0.3,2,1c1.3,0.7,3.1,1.6,5.4,3c4.6,2.7,11,6.7,18.3,12.2c7.3,5.5,15.5,12.3,23.6,20.4
		c2,2,4.1,4.2,6,6.4c2,2.2,4,4.5,5.9,6.8c3.9,4.7,7.5,9.8,10.8,15.2c3.2,5.4,6.2,11.1,8.3,17.1c2.2,6,3.6,12.3,3.8,18.7
		c0.1,3.2-0.1,6.3-0.6,9.3c-0.5,3-1.4,5.9-2.5,8.6c-2.3,5.4-5.5,9.8-9,13.3c-3.4,3.5-7,6-10.3,8c-3.3,1.9-6.3,3.3-8.8,4.3
		c-1.3,0.5-2.4,0.9-3.3,1.3c-1,0.3-1.8,0.6-2.5,0.8c-1.4,0.4-2.1,0.6-2.1,0.6s0.6-0.4,1.8-1.3c0.6-0.4,1.3-0.9,2.1-1.5
		c0.8-0.6,1.7-1.4,2.8-2.1c2.1-1.6,4.5-3.6,7-6c2.5-2.5,5.2-5.4,7.5-8.8c2.4-3.4,4.3-7.4,5.5-11.7c0.2-0.5,0.2-1.1,0.4-1.6
		c0.1-0.6,0.3-1.1,0.3-1.7c0.2-1.1,0.3-2.3,0.4-3.4c0.1-1.2,0.1-2.4,0.1-3.5c0-0.6-0.1-1.2-0.1-1.8c0-0.6-0.1-1.2-0.2-1.8
		c-0.1-0.6-0.2-1.2-0.2-1.8c-0.1-0.6-0.2-1.2-0.4-1.9c-0.1-0.6-0.2-1.2-0.4-1.9c-0.2-0.6-0.3-1.2-0.5-1.9c-0.4-1.2-0.7-2.5-1.2-3.8
		c-0.4-1.3-0.9-2.5-1.4-3.8c-2.1-5-4.7-10-7.6-14.9c-2.9-4.9-6.2-9.6-9.6-14.2c-1.7-2.3-3.4-4.5-5.2-6.7c-1.7-2.2-3.5-4.3-5.3-6.5
		c-3.5-4.2-7-8.2-10.4-12c-3.4-3.8-6.7-7.3-9.7-10.6c-6.1-6.5-11.3-11.9-14.9-15.8C1145.4,541.7,1143.4,539.5,1143.4,539.5z"/>
	<linearGradient id="SVGID_25_" gradientUnits="userSpaceOnUse" x1="1074.5498" y1="605.2088" x2="1140.1595" y2="605.2088">
		<stop  offset="0" style="stop-color:#FFFFFF;stop-opacity:0"/>
		<stop  offset="1" style="stop-color:#FFFFFF"/>
	</linearGradient>
	<path class="st26" d="M1134.7,580c0,0,0.1,0.3,0.2,1c0.1,0.6,0.2,1.6,0.2,2.8c0.1,2.4-0.1,5.9-1,10.1c-0.2,1-0.5,2.1-0.8,3.2
		c-0.3,1.1-0.7,2.2-1.1,3.4c-0.8,2.3-2,4.6-3.3,7c-0.7,1.2-1.4,2.3-2.2,3.5c-0.4,0.6-0.8,1.2-1.2,1.7c-0.5,0.5-0.9,1.1-1.4,1.7
		c-0.4,0.6-0.9,1.1-1.4,1.6c-0.5,0.5-1,1.1-1.5,1.6c-1.1,1-2.1,2-3.3,2.9c-1.2,0.9-2.3,1.8-3.6,2.6c-0.6,0.4-1.2,0.8-1.8,1.2
		c-0.6,0.3-1.3,0.7-1.9,1c-2.5,1.4-5.2,2.4-7.8,3.2c-2.6,0.8-5.1,1.3-7.6,1.6c-1.2,0.2-2.4,0.3-3.5,0.3c-1.1,0-2.2,0.1-3.3,0.1
		c-2.1-0.1-4-0.2-5.7-0.5c-1.7-0.3-3.1-0.5-4.3-0.8c-1.2-0.3-2.1-0.6-2.7-0.8c-0.6-0.2-0.9-0.3-0.9-0.3s0.3-0.1,1-0.3
		c0.6-0.2,1.5-0.5,2.7-0.8c1.1-0.3,2.5-0.7,4-1.2c1.5-0.4,3.2-1,5.1-1.6c0.9-0.3,1.8-0.7,2.8-1c0.5-0.2,1-0.3,1.5-0.5
		c0.5-0.2,1-0.4,1.5-0.6c2-0.8,4-1.7,6-2.7c0.5-0.3,1-0.5,1.5-0.8c0.5-0.2,1-0.5,1.5-0.8c1-0.6,2-1.1,3-1.8c0.5-0.3,1-0.6,1.5-0.9
		c0.5-0.3,1-0.7,1.4-1c0.5-0.3,1-0.7,1.4-1l1.4-1.1c0.5-0.3,0.9-0.7,1.4-1.1l1.3-1.1c0.8-0.8,1.8-1.6,2.5-2.4
		c1.7-1.7,3.2-3.4,4.7-5.1c1.4-1.8,2.8-3.5,4-5.3c1.2-1.7,2.4-3.5,3.4-5.1c1-1.6,1.9-3.2,2.7-4.6c0.8-1.4,1.5-2.6,2-3.7
		c0.5-1,1-1.9,1.3-2.4C1134.5,580.3,1134.7,580,1134.7,580z"/>
	<linearGradient id="SVGID_26_" gradientUnits="userSpaceOnUse" x1="1477.8412" y1="621.477" x2="1564.2762" y2="621.477">
		<stop  offset="0" style="stop-color:#FFFFFF;stop-opacity:0"/>
		<stop  offset="1" style="stop-color:#FFFFFF"/>
	</linearGradient>
	<path class="st27" d="M1504.8,686.5c1.9-0.3,3.8-0.8,5.6-1.4c1.8-0.6,3.6-1.3,5.4-2c1.7-0.8,3.4-1.6,5-2.6c0.8-0.4,1.6-1,2.4-1.4
		l2.3-1.6c0.7-0.6,1.5-1.1,2.2-1.7c0.7-0.6,1.4-1.2,2.1-1.8c0.7-0.6,1.4-1.2,2-1.9l1.9-2l1.8-2c0.6-0.7,1.1-1.4,1.7-2.1
		c0.6-0.7,1.1-1.5,1.6-2.2l0.8-1.1l0.7-1.2c0.5-0.8,1-1.5,1.4-2.3l1.3-2.4c0.4-0.8,0.8-1.6,1.2-2.4c0.4-0.8,0.8-1.6,1.1-2.5l1.1-2.5
		c0.3-0.8,0.6-1.7,1-2.6c0.7-1.7,1.1-3.5,1.7-5.2c0.5-1.7,0.9-3.6,1.4-5.3c0.4-1.8,0.8-3.6,1.1-5.4l0.9-5.5l0.7-5.5l0,0.6l-0.1-3.5
		l-0.2-3.5l-0.3-3.4l-0.5-3.4l-0.6-3.3c-0.3-1.1-0.5-2.2-0.8-3.3c-0.6-2.1-1.3-4.3-2.1-6.3l-0.6-1.5l-0.7-1.5c-0.5-1-1-1.9-1.6-2.9
		c-0.5-1-1.2-1.8-1.7-2.8c-0.7-0.9-1.3-1.8-2-2.6c-0.7-0.8-1.4-1.7-2.2-2.5l-1.1-1.2l-1.2-1.1c-1.6-1.5-3.4-2.8-5.2-4.1
		c-0.9-0.6-1.9-1.2-2.8-1.8c-1-0.6-2-1.1-3-1.7c-1-0.5-2-1.1-3.1-1.5c-1.1-0.5-2.1-1-3.2-1.4l-3.3-1.3l-3.4-1.2l-3.4-1l-3.5-1
		c-2.3-0.6-4.7-1.2-7-1.6c-2.4-0.5-4.8-0.9-7.2-1.4c-2.4-0.4-4.8-0.8-7.3-1.2c-2.4-0.4-4.9-0.7-7.3-1.1c1.2-0.2,2.5-0.3,3.7-0.4
		c1.2-0.1,2.5-0.3,3.7-0.3c2.5-0.2,5-0.3,7.4-0.4c2.5,0,5-0.1,7.5,0.1c2.5,0.1,5,0.3,7.5,0.5l3.8,0.5l3.8,0.6l3.7,0.8
		c1.3,0.3,2.5,0.6,3.7,1c1.2,0.3,2.5,0.8,3.7,1.2c1.2,0.4,2.4,0.9,3.7,1.4c1.2,0.5,2.4,1.1,3.6,1.6c1.2,0.6,2.4,1.2,3.5,1.9
		c2.3,1.3,4.5,2.8,6.6,4.5l1.6,1.3l1.5,1.4c1,0.9,1.9,1.9,2.9,2.9c0.9,1,1.8,2.1,2.6,3.1c0.8,1.1,1.6,2.2,2.4,3.4
		c0.7,1.2,1.5,2.3,2.1,3.5l0.9,1.8l0.8,1.8c1.1,2.5,2,5,2.8,7.6c0.4,1.3,0.7,2.6,1,3.9l0.8,3.9c0.2,1.3,0.4,2.6,0.5,3.9
		c0.1,1.3,0.3,2.6,0.4,3.9l0.2,3.9l0,3.9l0,0.4l0,0.3l-0.9,6l-1.2,6c-0.5,2-1,3.9-1.5,5.9c-0.6,1.9-1.2,3.9-1.9,5.8
		c-0.7,1.9-1.4,3.8-2.3,5.7c-0.4,0.9-0.8,1.9-1.3,2.8l-1.4,2.7c-0.5,0.9-1,1.8-1.5,2.7c-0.5,0.9-1,1.8-1.6,2.6l-1.8,2.5
		c-0.6,0.8-1.3,1.6-1.9,2.5l-1,1.2l-1,1.2c-0.7,0.8-1.3,1.6-2.1,2.3c-0.7,0.7-1.5,1.5-2.2,2.1l-2.3,2l-2.4,1.9
		c-0.8,0.6-1.7,1.2-2.5,1.7c-0.9,0.6-1.7,1.1-2.6,1.6c-0.9,0.5-1.8,0.9-2.7,1.4c-0.9,0.4-1.8,0.9-2.8,1.3c-1,0.4-1.9,0.8-2.8,1.1
		c-1.9,0.7-3.8,1.2-5.8,1.6c-2,0.4-3.9,0.7-5.9,0.9C1508.8,686.7,1506.8,686.7,1504.8,686.5z"/>
	<linearGradient id="SVGID_27_" gradientUnits="userSpaceOnUse" x1="1656.4037" y1="609.9913" x2="1729.239" y2="609.9913">
		<stop  offset="0" style="stop-color:#FFFFFF;stop-opacity:0"/>
		<stop  offset="1" style="stop-color:#FFFFFF"/>
	</linearGradient>
	<path class="st28" d="M1659.3,559c0,0,0.5,0.2,1.4,0.5c0.9,0.4,2.2,0.9,3.9,1.7c3.3,1.5,7.9,3.9,13.2,7.1
		c5.3,3.3,11.3,7.4,17.3,12.5c1.5,1.2,3,2.6,4.5,3.9c1.5,1.4,3,2.8,4.4,4.3c2.9,2.9,5.7,6.1,8.4,9.4c2.6,3.4,5.1,6.9,7.2,10.6
		c1.1,1.9,2.1,3.7,2.9,5.7c0.9,1.9,1.7,3.9,2.4,5.8c1.3,3.9,2.2,8,2.5,11.8c0.3,3.9-0.1,7.6-0.9,10.9c-0.8,3.3-2.1,6.1-3.4,8.4
		c-1.3,2.3-2.8,4.1-4.1,5.5c-1.3,1.4-2.4,2.3-3.1,2.9c-0.8,0.6-1.2,0.9-1.2,0.9s0.2-0.5,0.7-1.3c0.5-0.8,1-2.1,1.8-3.7
		c0.7-1.6,1.4-3.6,2-5.9c0.6-2.3,1-4.9,1-7.7c0-2.8-0.2-5.8-1-8.8c-0.7-3.1-1.9-6.2-3.3-9.4c-0.8-1.6-1.5-3.2-2.5-4.8
		c-0.4-0.8-0.9-1.6-1.4-2.4c-0.5-0.8-1-1.6-1.5-2.4c-2.1-3.1-4.3-6.3-6.7-9.3c-2.4-3.1-5-6-7.5-9c-1.3-1.4-2.6-2.9-3.9-4.3
		c-1.3-1.4-2.6-2.8-3.9-4.1c-5.2-5.4-10.2-10.3-14.6-14.6c-4.4-4.3-8-7.8-10.6-10.3C1660.8,560.5,1659.3,559,1659.3,559z"/>
	<path class="st29" d="M1620,248.2c-11.8,29.3-26,50.8-42.5,64.3c-16.5,13.5-32.9,20.6-49.1,21.3c-6.1,0-12-0.8-17.7-2.5
		c-5.7-1.7-11-4.2-15.8-7.6c-4.8-3.4-8.8-7.6-12.2-12.6c-3.4-5.1-5.6-10.8-6.6-17.2c4.7,2,10.6,2.9,17.7,2.5
		c7.1-0.3,14.5-1.8,22.3-4.6c7.8-2.7,15.4-6.6,23-11.6c7.6-5.1,14.2-11.5,19.7-19.2c5.6-7.8,9.7-16.6,12.4-26.6
		c2.7-9.9,3-21.3,1-34.2c-0.7-7.1-3-13.7-6.8-20c-3.9-6.2-8.9-11.7-15.2-16.4c-6.2-4.7-13.4-8.4-21.5-11.1c-8.1-2.7-16.7-4-25.8-4
		c-8.1,0-17.8,1.4-29.2,4.3c-11.4,2.9-21.6,7.7-30.8,14.4c-10.1,7.1-19.2,15.9-27.3,26.3c-8.1,10.5-14.5,22-19.2,34.7
		c-4.3,11.5-6.7,23.7-7.4,36.6c-2.2,4.2-4.5,8.4-6.7,12.4c-5.4,9.6-11,17.8-16.7,24.5c-5.7,6.8-11.8,11.7-18.2,14.9
		c-6.4,3.2-13.3,3.5-20.7,0.8c-2-0.7-4-1.8-6.1-3.3c-2-1.5-3.8-3.8-5.3-6.8c-1.5-3-2.7-7-3.5-11.9c-0.8-4.9-0.9-11.4-0.3-19.5
		l31.4-182.2c1.7-12.5,1.3-22.8-1.3-31.1c-2.5-8.3-6.3-15-11.4-20.2c-5.1-5.2-10.9-9.2-17.5-11.9c-6.6-2.7-13-4.6-19.2-5.8
		c-6.2-1.2-12.1-1.8-17.5-1.8c-5.4,0-9.3,0-11.6,0l-26,241.7c-8.7,15.7-17.8,28.3-27.4,37.9c-9.6,9.6-20,14.4-31.1,14.4
		c4.4-10.5,7.8-21.4,10.1-32.9c2.4-11.5,3.5-22.8,3.5-34.2c0-11.3-1.2-22.3-3.5-32.9c-2.4-10.6-5.9-20.5-10.6-29.6
		c-6.4-12.1-14.7-21.4-24.8-27.8c-10.1-6.4-20.9-10-32.4-10.9c-11.5-0.8-22.9,1.3-34.4,6.3c-11.5,5.1-21.9,13-31.4,23.8
		c-0.3,0.3-0.7,0.6-1,0.8c-0.3,0.2-0.7,0.6-1,1.3c-0.7-9.4-3.5-16.4-8.6-20.7c-5.1-4.4-10.8-7.3-17.2-8.9c-6.4-1.5-12.7-2.2-18.7-2
		c-6.1,0.2-10.1,0.3-12.1,0.3l-14.5,111.2c-2.9,5.5-5.9,10.9-9,16c-5.6,9.3-11.3,17.3-17.2,24c-5.9,6.8-12.2,11.8-19,15.2
		c-6.8,3.4-13.8,4.2-21.3,2.5c-1-0.3-2.5-1.1-4.6-2.3c-2-1.2-3.9-3.4-5.6-6.6c-1.7-3.2-3-7.5-3.8-12.9c-0.8-5.4-0.6-12.3,0.8-20.7
		c4-25.6,6.4-46.8,7.1-63.5c0.7-16.7-0.4-30-3.3-40c-2.9-9.9-7.4-17.3-13.7-22c-6.2-4.7-14.1-7.9-23.5-9.6c-6.4-1-13.1-0.9-20,0.3
		c-6.9,1.2-13.7,3.3-20.2,6.3s-12.9,6.8-19,11.4c-6.1,4.6-11.3,9.5-15.7,14.9c-2.4-10.8-7.6-19-15.7-24.5c-8.1-5.6-17-8.3-26.8-8.3
		c-13.5,0-26.7,3-39.5,9.1c-12.8,6.1-23.6,15-32.4,26.8c0.7-8.1-1.9-14.1-7.8-18c-5.9-3.9-12.9-6.6-21-8.1
		c-8.1-1.5-16.3-2.3-24.5-2.3c-8.3,0-14.4,0-18.5,0l-8.8,101.1c-4.7,9.6-9.5,18.8-14.5,27.7c-5.4,9.6-11.1,17.8-17,24.5
		c-5.9,6.8-12.1,11.6-18.5,14.7c-6.4,3-13.3,3.2-20.7,0.5c-2-0.7-4-1.8-5.8-3.3c-1.9-1.5-3.5-3.9-4.8-7.1c-1.4-3.2-2.5-7.3-3.3-12.1
		c-0.8-4.9-1.1-11-0.8-18.5l11.6-76.4c1.3-10.8,0.4-19.6-2.8-26.3c-3.2-6.7-7.5-12.1-12.9-15.9c-5.4-3.9-11.5-6.5-18.2-7.8
		c-6.8-1.3-13-2.1-18.7-2.3c-5.7-0.2-12.6,0.1-20.7,0.8c0,1.7-0.3,5.7-0.8,11.9c-0.5,6.2-1.2,13.7-2,22.5
		c-0.8,8.8-1.7,18.1-2.5,28.1c-0.8,10-1.7,19.3-2.5,28.1c-0.8,8.8-1.6,16.4-2.3,22.8c-0.7,6.4-1.2,10.5-1.5,12.1
		c-3.4,18.2-8.8,30.7-16.2,37.4c-7.4,6.8-14.8,8.8-22.3,6.1c-2-0.7-4.2-1.7-6.6-3c-2.4-1.3-4.5-3.5-6.3-6.6c-1.9-3-3.2-7.1-4-12.1
		c-0.8-5.1-0.8-11.6,0.3-19.7l11.1-74.9c1-14.2-1.6-24.8-7.8-31.9c-6.2-7.1-13.7-12.1-22.3-14.9c-8.6-2.9-17.2-4.4-25.8-4.6
		c-8.6-0.2-14.6-0.4-18-0.8l-10.9,116.4c-3.6,7.6-7.4,14.4-11.3,20.5c-6.8,10.3-13.9,18.6-21.5,24.8c-7.6,6.2-15.7,11-24.3,14.2
		c-8.6,3.2-17.6,5.1-27.1,5.8c-20.6,0.3-37.9-2.6-51.9-8.9c-14-6.2-25.3-14.7-33.9-25.3c-8.6-10.6-14.8-22.8-18.5-36.4
		c-3.7-13.7-5.5-27.8-5.3-42.5c0.2-14.7,2-29.3,5.6-44c3.5-14.7,8.3-28.1,14.2-40.2c5.9-12.1,12.7-22.7,20.5-31.6
		c7.8-8.9,15.9-14.9,24.3-18c7.4-2,12.4-0.8,14.9,3.8c2.5,4.6,3,10.7,1.5,18.5c-1.5,7.8-4.6,16.2-9.4,25.3
		c-4.7,9.1-10.6,17.2-17.7,24.3c1.3,1,6,2.6,13.9,4.8c7.9,2.2,16.9,3.5,27.1,4c10.1,0.5,20.2-0.3,30.4-2.5
		c10.1-2.2,18-7.3,23.8-15.4c8.8-15.5,13.2-30.6,13.2-45.3s-3.5-27.7-10.6-39.2c-7.1-11.5-17.2-20.8-30.4-28.1
		c-13.2-7.3-28.3-11.2-45.5-11.9c-25.3-0.3-48.2,4.6-68.6,14.7c-20.4,10.1-38,23.6-52.9,40.5c-14.8,16.9-26.7,36.1-35.4,57.7
		c-8.8,21.6-14,43.7-15.7,66.3c-1.7,22.6,0.3,44.7,5.8,66.3c5.6,21.6,15.3,40.8,29.1,57.7c13.8,16.9,32,30.5,54.6,41
		c22.6,10.5,49.9,15.7,82,15.7c39.5,0,72.9-11.2,100.4-33.6c8.2-6.7,15.8-14.2,22.7-22.5c2.4,7.7,5.5,14.9,9.4,21.5
		c6.1,10.3,14.2,18.6,24.3,25c10.1,6.4,22.4,9.6,36.9,9.6c24.6,0,46.6-11.1,65.8-33.4c5.7,9.8,13.2,17.8,22.5,24
		c9.3,6.2,21,9.4,35.2,9.4c22.6,0,44.5-9.9,65.8-29.6c5.5-5.1,11-11.2,16.3-18.1l-4.1,47.7c15.5,0.3,27.7,0,36.7-1
		c8.9-1,15.9-2.8,20.7-5.3c4.9-2.5,8.2-5.9,9.9-10.1c1.7-4.2,3.2-9.5,4.6-15.9c3.7-32,9.2-59.4,16.4-82
		c7.2-22.6,14.3-39.5,21.3-50.9c6.9-11.3,12.8-16.6,17.7-15.9c4.9,0.7,6.7,8.3,5.3,22.8l-14.2,118.4c-1,9.8,0.4,17.4,4.3,22.8
		c3.9,5.4,9.4,9.4,16.7,11.9c7.2,2.5,15.5,4,24.8,4.6c9.3,0.5,18.6,0.8,28.1,0.8c2.4-20.6,4-39.8,5.1-57.7c1-17.9,2.1-34.1,3.3-48.6
		c1.2-14.5,2.9-27.2,5.1-38.2c2.2-11,5.6-20.2,10.4-27.6c1.3-2.4,3.8-4.2,7.3-5.6c3.5-1.3,6.8-0.7,9.9,2c3,2.7,5.2,8.2,6.6,16.4
		c1.3,8.3,0.5,20.7-2.5,37.2c-4.4,26.7-5.2,48.1-2.5,64.3c2.7,16.2,7.8,28.6,15.2,37.2c7.4,8.6,16.4,14.2,27.1,16.7
		c10.6,2.5,21.8,3.8,33.6,3.8c11.1,0,22.3-2.4,33.4-7.3c11.1-4.9,21.9-12.5,32.4-22.8c2.4-2.3,4.8-4.9,7.1-7.5L947,538.1
		c16.9,0.7,30.8,0,41.7-2c11-2,19.6-5.1,26.1-9.1c6.4-4,11-9.3,13.7-15.7c2.7-6.4,4.4-13.7,5.1-21.8l5.1-134.6
		c0.7-8.4,1.5-18,2.5-28.6c1-10.6,2.4-21.6,4.3-32.9c1.8-11.3,4.3-22.4,7.3-33.4c3-11,6.9-20.8,11.6-29.6c2.7-4.7,6-8.3,9.9-10.6
		c3.9-2.4,7.8-3.4,11.9-3c4,0.3,7.9,1.8,11.6,4.3c3.7,2.5,6.6,6.2,8.6,10.9c2,4.7,3.4,10,4,15.9c0.7,5.9,0.6,11.9-0.3,18
		c-0.8,6.1-2.4,12-4.6,17.7c-2.2,5.7-5,10.8-8.3,15.2c-8.8-2.4-16.8-1.7-24,2c-7.3,3.7-13.1,9-17.5,15.9c-4.4,6.9-6.8,14.5-7.1,22.8
		c-0.3,8.3,1.9,15.9,6.6,23c3.7,5.4,9.1,9.7,16.2,12.9c7.1,3.2,14.9,5,23.5,5.3c8.6,0.3,17.5-0.8,26.6-3.5
		c9.1-2.7,17.5-7.3,25.3-13.7c14.5,1,28,0.1,40.5-2.8c12.5-2.9,24.1-8.2,34.9-15.9c6.8-4.9,13.2-10.8,19.4-17.9
		c1.9,6.8,4.5,13.3,7.7,19.4c5.6,10.5,13.1,18.9,22.5,25.3c9.4,6.4,21.4,9.6,35.9,9.6c24.3,0,46.8-9.9,67.6-29.6
		c8.4-8,16.4-18.1,24-30.3c3,6,6.8,11.8,11.4,17.4c6.6,8.1,14.5,15.4,23.8,21.8c9.3,6.4,19.9,11.5,31.8,15.2
		c11.9,3.7,24.7,5.6,38.3,5.6c19.6,0,37.2-3,52.9-9.1c15.7-6.1,29.6-14.7,41.7-25.8c12.1-11.1,22.8-24.6,31.9-40.5
		c9.1-15.9,16.7-33.6,22.8-53.1L1620,248.2z M1472.2,238c0.3-2.7,1.5-5.8,3.5-9.4c2-3.5,4.3-6.8,6.8-9.9c2.5-3,5.3-5.5,8.3-7.3
		c3-1.9,5.9-2.8,8.6-2.8c3.7,0.3,6,2.2,6.8,5.6c0.8,3.4,0.6,7.3-0.8,11.6c-1.4,4.4-3.6,8.8-6.8,13.2c-3.2,4.4-7,7.6-11.4,9.6
		c-4,2-7.9,2.5-11.6,1.3C1472,248.8,1470.9,244.8,1472.2,238z"/>
	<path class="st11" d="M1598.5,226.7c-11.8,29.3-26,50.8-42.5,64.3c-16.5,13.5-32.9,20.6-49.1,21.3c-6.1,0-12-0.8-17.7-2.5
		c-5.7-1.7-11-4.2-15.8-7.6c-4.8-3.4-8.8-7.6-12.2-12.6c-3.4-5.1-5.6-10.8-6.6-17.2c4.7,2,10.6,2.9,17.7,2.5
		c7.1-0.3,14.5-1.8,22.3-4.6c7.8-2.7,15.4-6.6,23-11.6c7.6-5.1,14.2-11.5,19.7-19.2c5.6-7.8,9.7-16.6,12.4-26.6
		c2.7-9.9,3-21.3,1-34.2c-0.7-7.1-3-13.7-6.8-20c-3.9-6.2-8.9-11.7-15.2-16.4c-6.2-4.7-13.4-8.4-21.5-11.1c-8.1-2.7-16.7-4-25.8-4
		c-8.1,0-17.8,1.4-29.2,4.3c-11.4,2.9-21.6,7.7-30.8,14.4c-10.1,7.1-19.2,15.9-27.3,26.3c-8.1,10.5-14.5,22-19.2,34.7
		c-4.3,11.5-6.7,23.7-7.4,36.6c-2.2,4.2-4.5,8.4-6.7,12.4c-5.4,9.6-11,17.8-16.7,24.5c-5.7,6.8-11.8,11.7-18.2,14.9
		c-6.4,3.2-13.3,3.5-20.7,0.8c-2-0.7-4-1.8-6.1-3.3c-2-1.5-3.8-3.8-5.3-6.8c-1.5-3-2.7-7-3.5-11.9c-0.8-4.9-0.9-11.4-0.3-19.5
		l31.4-182.2c1.7-12.5,1.3-22.8-1.3-31.1c-2.5-8.3-6.3-15-11.4-20.2c-5.1-5.2-10.9-9.2-17.5-11.9c-6.6-2.7-13-4.6-19.2-5.8
		c-6.2-1.2-12.1-1.8-17.5-1.8c-5.4,0-9.3,0-11.6,0l-26,241.7c-8.7,15.7-17.8,28.3-27.4,37.9c-9.6,9.6-20,14.4-31.1,14.4
		c4.4-10.5,7.8-21.4,10.1-32.9c2.4-11.5,3.5-22.8,3.5-34.2c0-11.3-1.2-22.3-3.5-32.9c-2.4-10.6-5.9-20.5-10.6-29.6
		c-6.4-12.1-14.7-21.4-24.8-27.8c-10.1-6.4-20.9-10-32.4-10.9c-11.5-0.8-22.9,1.3-34.4,6.3c-11.5,5.1-21.9,13-31.4,23.8
		c-0.3,0.3-0.7,0.6-1,0.8c-0.3,0.2-0.7,0.6-1,1.3c-0.7-9.4-3.5-16.4-8.6-20.7c-5.1-4.4-10.8-7.3-17.2-8.9c-6.4-1.5-12.7-2.2-18.7-2
		c-6.1,0.2-10.1,0.3-12.1,0.3l-14.5,111.2c-2.9,5.5-5.9,10.9-9,16c-5.6,9.3-11.3,17.3-17.2,24c-5.9,6.8-12.2,11.8-19,15.2
		c-6.8,3.4-13.8,4.2-21.3,2.5c-1-0.3-2.5-1.1-4.6-2.3c-2-1.2-3.9-3.4-5.6-6.6c-1.7-3.2-3-7.5-3.8-12.9c-0.8-5.4-0.6-12.3,0.8-20.7
		c4-25.6,6.4-46.8,7.1-63.5c0.7-16.7-0.4-30-3.3-40c-2.9-9.9-7.4-17.3-13.7-22c-6.2-4.7-14.1-7.9-23.5-9.6c-6.4-1-13.1-0.9-20,0.3
		c-6.9,1.2-13.7,3.3-20.2,6.3c-6.6,3-12.9,6.8-19,11.4s-11.3,9.5-15.7,14.9c-2.4-10.8-7.6-19-15.7-24.5c-8.1-5.6-17-8.3-26.8-8.3
		c-13.5,0-26.7,3-39.5,9.1c-12.8,6.1-23.6,15-32.4,26.8c0.7-8.1-1.9-14.1-7.8-18c-5.9-3.9-12.9-6.6-21-8.1
		c-8.1-1.5-16.3-2.3-24.5-2.3c-8.3,0-14.4,0-18.5,0l-8.8,101.1c-4.7,9.6-9.5,18.8-14.5,27.7c-5.4,9.6-11.1,17.8-17,24.5
		c-5.9,6.8-12.1,11.6-18.5,14.7c-6.4,3-13.3,3.2-20.7,0.5c-2-0.7-4-1.8-5.8-3.3c-1.9-1.5-3.5-3.9-4.8-7.1c-1.4-3.2-2.5-7.3-3.3-12.1
		c-0.8-4.9-1.1-11-0.8-18.5l11.6-76.4c1.3-10.8,0.4-19.6-2.8-26.3c-3.2-6.7-7.5-12.1-12.9-15.9c-5.4-3.9-11.5-6.5-18.2-7.8
		c-6.8-1.3-13-2.1-18.7-2.3c-5.7-0.2-12.6,0.1-20.7,0.8c0,1.7-0.3,5.7-0.8,11.9c-0.5,6.2-1.2,13.7-2,22.5
		c-0.8,8.8-1.7,18.1-2.5,28.1c-0.8,10-1.7,19.3-2.5,28.1c-0.8,8.8-1.6,16.4-2.3,22.8c-0.7,6.4-1.2,10.5-1.5,12.1
		c-3.4,18.2-8.8,30.7-16.2,37.4c-7.4,6.8-14.8,8.8-22.3,6.1c-2-0.7-4.2-1.7-6.6-3c-2.4-1.3-4.5-3.5-6.3-6.6c-1.9-3-3.2-7.1-4-12.1
		c-0.8-5.1-0.8-11.6,0.3-19.7l11.1-74.9c1-14.2-1.6-24.8-7.8-31.9c-6.2-7.1-13.7-12.1-22.3-14.9c-8.6-2.9-17.2-4.4-25.8-4.6
		c-8.6-0.2-14.6-0.4-18-0.8l-10.9,116.4c-3.6,7.6-7.4,14.4-11.3,20.5c-6.8,10.3-13.9,18.6-21.5,24.8c-7.6,6.2-15.7,11-24.3,14.2
		c-8.6,3.2-17.6,5.1-27.1,5.8c-20.6,0.3-37.9-2.6-51.9-8.9c-14-6.2-25.3-14.7-33.9-25.3c-8.6-10.6-14.8-22.8-18.5-36.4
		c-3.7-13.7-5.5-27.8-5.3-42.5c0.2-14.7,2-29.3,5.6-44c3.5-14.7,8.3-28.1,14.2-40.2c5.9-12.1,12.7-22.7,20.5-31.6
		c7.8-8.9,15.9-14.9,24.3-18c7.4-2,12.4-0.8,14.9,3.8c2.5,4.6,3,10.7,1.5,18.5c-1.5,7.8-4.6,16.2-9.4,25.3
		c-4.7,9.1-10.6,17.2-17.7,24.3c1.3,1,6,2.6,13.9,4.8c7.9,2.2,16.9,3.5,27.1,4c10.1,0.5,20.2-0.3,30.4-2.5
		c10.1-2.2,18-7.3,23.8-15.4c8.8-15.5,13.2-30.6,13.2-45.3S256.1,51.5,249,40c-7.1-11.5-17.2-20.8-30.4-28.1
		C205.5,4.7,190.3,0.7,173.1,0c-25.3-0.3-48.2,4.6-68.6,14.7c-20.4,10.1-38,23.6-52.9,40.5C36.8,72,25,91.3,16.3,112.9
		c-8.8,21.6-14,43.7-15.7,66.3c-1.7,22.6,0.3,44.7,5.8,66.3c5.6,21.6,15.3,40.8,29.1,57.7c13.8,16.9,32,30.5,54.6,41
		c22.6,10.5,49.9,15.7,82,15.7c39.5,0,72.9-11.2,100.4-33.6c8.2-6.7,15.8-14.2,22.7-22.5c2.4,7.7,5.5,14.9,9.4,21.5
		c6.1,10.3,14.2,18.6,24.3,25c10.1,6.4,22.4,9.6,36.9,9.6c24.6,0,46.6-11.1,65.8-33.4c5.7,9.8,13.2,17.8,22.5,24
		c9.3,6.2,21,9.4,35.2,9.4c22.6,0,44.5-9.9,65.8-29.6c5.5-5.1,11-11.2,16.3-18.1l-4.1,47.7c15.5,0.3,27.7,0,36.7-1
		c8.9-1,15.9-2.8,20.7-5.3c4.9-2.5,8.2-5.9,9.9-10.1c1.7-4.2,3.2-9.5,4.6-15.9c3.7-32,9.2-59.4,16.4-82
		c7.2-22.6,14.3-39.5,21.3-50.9c6.9-11.3,12.8-16.6,17.7-15.9c4.9,0.7,6.7,8.3,5.3,22.8l-14.2,118.4c-1,9.8,0.4,17.4,4.3,22.8
		c3.9,5.4,9.4,9.4,16.7,11.9c7.2,2.5,15.5,4,24.8,4.6c9.3,0.5,18.6,0.8,28.1,0.8c2.4-20.6,4-39.8,5.1-57.7c1-17.9,2.1-34.1,3.3-48.6
		c1.2-14.5,2.9-27.2,5.1-38.2c2.2-11,5.6-20.2,10.4-27.6c1.3-2.4,3.8-4.2,7.3-5.6c3.5-1.3,6.8-0.7,9.9,2c3,2.7,5.2,8.2,6.6,16.4
		c1.3,8.3,0.5,20.7-2.5,37.2c-4.4,26.7-5.2,48.1-2.5,64.3c2.7,16.2,7.8,28.6,15.2,37.2c7.4,8.6,16.4,14.2,27.1,16.7
		c10.6,2.5,21.8,3.8,33.6,3.8c11.1,0,22.3-2.4,33.4-7.3c11.1-4.9,21.9-12.5,32.4-22.8c2.4-2.3,4.8-4.9,7.1-7.5l-25.3,194.5
		c16.9,0.7,30.8,0,41.7-2c11-2,19.6-5.1,26.1-9.1c6.4-4,11-9.3,13.7-15.7c2.7-6.4,4.4-13.7,5.1-21.8l5.1-134.6
		c0.7-8.4,1.5-18,2.5-28.6c1-10.6,2.4-21.6,4.3-32.9c1.8-11.3,4.3-22.4,7.3-33.4c3-11,6.9-20.8,11.6-29.6c2.7-4.7,6-8.3,9.9-10.6
		c3.9-2.4,7.8-3.4,11.9-3c4,0.3,7.9,1.8,11.6,4.3c3.7,2.5,6.6,6.2,8.6,10.9c2,4.7,3.4,10,4,15.9c0.7,5.9,0.6,11.9-0.3,18
		c-0.8,6.1-2.4,12-4.6,17.7c-2.2,5.7-5,10.8-8.3,15.2c-8.8-2.4-16.8-1.7-24,2c-7.3,3.7-13.1,9-17.5,15.9c-4.4,6.9-6.8,14.5-7.1,22.8
		c-0.3,8.3,1.9,15.9,6.6,23c3.7,5.4,9.1,9.7,16.2,12.9c7.1,3.2,14.9,5,23.5,5.3c8.6,0.3,17.5-0.8,26.6-3.5
		c9.1-2.7,17.5-7.3,25.3-13.7c14.5,1,28,0.1,40.5-2.8c12.5-2.9,24.1-8.2,34.9-15.9c6.8-4.9,13.2-10.8,19.4-17.9
		c1.9,6.8,4.5,13.3,7.7,19.4c5.6,10.5,13.1,18.9,22.5,25.3c9.4,6.4,21.4,9.6,35.9,9.6c24.3,0,46.8-9.9,67.6-29.6
		c8.4-8,16.4-18.1,24-30.3c3,6,6.8,11.8,11.4,17.4c6.6,8.1,14.5,15.4,23.8,21.8c9.3,6.4,19.9,11.5,31.8,15.2
		c11.9,3.7,24.7,5.6,38.3,5.6c19.6,0,37.2-3,52.9-9.1c15.7-6.1,29.6-14.7,41.7-25.8c12.1-11.1,22.8-24.6,31.9-40.5
		c9.1-15.9,16.7-33.6,22.8-53.1L1598.5,226.7z M1450.7,216.6c0.3-2.7,1.5-5.8,3.5-9.4c2-3.5,4.3-6.8,6.8-9.9c2.5-3,5.3-5.5,8.3-7.3
		c3-1.9,5.9-2.8,8.6-2.8c3.7,0.3,6,2.2,6.8,5.6c0.8,3.4,0.6,7.3-0.8,11.6c-1.4,4.4-3.6,8.8-6.8,13.2c-3.2,4.4-7,7.6-11.4,9.6
		c-4,2-7.9,2.5-11.6,1.3C1450.6,227.3,1449.4,223.3,1450.7,216.6z"/>
	<g class="st30">
		<linearGradient id="SVGID_28_" gradientUnits="userSpaceOnUse" x1="5.048455e-005" y1="179.8878" x2="376.2429" y2="179.8878">
			<stop  offset="0" style="stop-color:#FFFFFF;stop-opacity:0"/>
			<stop  offset="1" style="stop-color:#FFFFFF"/>
		</linearGradient>
		<path class="st31" d="M364.6,273.8c-0.8-5.1-0.8-11.6,0.3-19.7l11.1-74.9c1-14.2-1.6-24.8-7.8-31.9c-6.2-7.1-13.7-12.1-22.3-14.9
			c-8.6-2.9-17.2-4.4-25.8-4.6c-8.6-0.2-14.6-0.4-18-0.8l-10.9,116.4c-3.6,7.6-7.4,14.4-11.3,20.5c-6.8,10.3-13.9,18.6-21.5,24.8
			c-7.6,6.2-15.7,11-24.3,14.2c-8.6,3.2-17.6,5.1-27.1,5.8c-20.6,0.3-37.9-2.6-51.9-8.9c-14-6.2-25.3-14.7-33.9-25.3
			c-8.6-10.6-14.8-22.8-18.5-36.4c-3.7-13.7-5.5-27.8-5.3-42.5c0.2-14.7,2-29.3,5.6-44c3.5-14.7,8.3-28.1,14.2-40.2
			c5.9-12.1,12.7-22.7,20.5-31.6c7.8-8.9,15.9-14.9,24.3-18c7.4-2,12.4-0.8,14.9,3.8c2.5,4.6,3,10.7,1.5,18.5
			c-1.5,7.8-4.6,16.2-9.4,25.3c-4.7,9.1-10.6,17.2-17.7,24.3c1.3,1,6,2.6,13.9,4.8c7.9,2.2,16.9,3.5,27.1,4
			c10.1,0.5,20.2-0.3,30.4-2.5c10.1-2.2,18-7.3,23.8-15.4c8.8-15.5,13.2-30.6,13.2-45.3S256.1,51.5,249,40
			c-7.1-11.5-17.2-20.8-30.4-28.1C205.5,4.7,190.3,0.7,173.1,0c-7.5-0.1-14.8,0.3-21.9,1.1L5.5,146.9c-2.5,10.6-4.1,21.4-4.9,32.3
			c-1.7,22.6,0.3,44.7,5.8,66.3c5.6,21.6,15.3,40.8,29.1,57.7c13.8,16.9,32,30.5,54.6,41c22.6,10.5,49.9,15.7,82,15.7
			c39.5,0,72.9-11.2,100.4-33.6c8.2-6.7,15.8-14.2,22.7-22.5c2.4,7.7,5.5,14.9,9.4,21.5c1.5,2.5,3.1,4.9,4.8,7.1l55.7-55.7
			C365,275.6,364.8,274.7,364.6,273.8z"/>
		<linearGradient id="SVGID_29_" gradientUnits="userSpaceOnUse" x1="423.7633" y1="171.8289" x2="497.6358" y2="171.8289">
			<stop  offset="0" style="stop-color:#FFFFFF;stop-opacity:0"/>
			<stop  offset="1" style="stop-color:#FFFFFF"/>
		</linearGradient>
		<path class="st32" d="M489.4,135.9c-5.4-3.9-11.5-6.5-18.2-7.8c-6.8-1.3-13-2.1-18.7-2.3c-5.7-0.2-12.6,0.1-20.7,0.8
			c0,1.7-0.3,5.7-0.8,11.9c-0.5,6.2-1.2,13.7-2,22.5c-0.8,8.8-1.7,18.1-2.5,28.1c-0.8,10-1.7,19.3-2.5,28.1c0,0.3-0.1,0.6-0.1,0.9
			l73.9-73.9C495.2,140.9,492.5,138.1,489.4,135.9z"/>
	</g>
	<g class="st30">
		<linearGradient id="SVGID_30_" gradientUnits="userSpaceOnUse" x1="482.9796" y1="239.315" x2="1140.7334" y2="239.315">
			<stop  offset="0" style="stop-color:#FFFFFF;stop-opacity:0"/>
			<stop  offset="1" style="stop-color:#FFFFFF"/>
		</linearGradient>
		<path class="st33" d="M1133,138.2c-10.1-6.4-20.9-10-32.4-10.9c-11.5-0.8-22.9,1.3-34.4,6.3c-11.5,5.1-21.9,13-31.4,23.8
			c-0.3,0.3-0.7,0.6-1,0.8c-0.3,0.2-0.7,0.6-1,1.3c-0.7-9.4-3.5-16.4-8.6-20.7c-5.1-4.4-10.8-7.3-17.2-8.9c-6.4-1.5-12.7-2.2-18.7-2
			c-6.1,0.2-10.1,0.3-12.1,0.3l-14.5,111.2c-2.9,5.5-5.9,10.9-9,16c-5.6,9.3-11.3,17.3-17.2,24c-5.9,6.8-12.2,11.8-19,15.2
			c-6.8,3.4-13.8,4.2-21.3,2.5c-1-0.3-2.5-1.1-4.6-2.3c-2-1.2-3.9-3.4-5.6-6.6c-1.7-3.2-3-7.5-3.8-12.9c-0.8-5.4-0.6-12.3,0.8-20.7
			c4-25.6,6.4-46.8,7.1-63.5c0.7-16.7-0.4-30-3.3-40c-2.9-9.9-7.4-17.3-13.7-22c-6.2-4.7-14.1-7.9-23.5-9.6c-6.4-1-13.1-0.9-20,0.3
			c-6.9,1.2-13.7,3.3-20.2,6.3c-6.6,3-12.9,6.8-19,11.4c-6.1,4.6-11.3,9.5-15.7,14.9c-2.4-10.8-7.6-19-15.7-24.5
			c-8.1-5.6-17-8.3-26.8-8.3c-2.9,0-5.8,0.2-8.6,0.4L483,359.5c2.1,0.1,4.2,0.3,6.4,0.3c22.6,0,44.5-9.9,65.8-29.6
			c5.5-5.1,11-11.2,16.3-18.1l-4.1,47.7c15.5,0.3,27.7,0,36.7-1c8.9-1,15.9-2.8,20.7-5.3c4.9-2.5,8.2-5.9,9.9-10.1
			c1.7-4.2,3.2-9.5,4.6-15.9c3.7-32,9.2-59.4,16.4-82c7.2-22.6,14.3-39.5,21.3-50.9c6.9-11.3,12.8-16.6,17.7-15.9
			c4.9,0.7,6.7,8.3,5.3,22.8l-14.2,118.4c-1,9.8,0.4,17.4,4.3,22.8c3.9,5.4,9.4,9.4,16.7,11.9c7.2,2.5,15.5,4,24.8,4.6
			c9.3,0.5,18.6,0.8,28.1,0.8c2.4-20.6,4-39.8,5.1-57.7c1-17.9,2.1-34.1,3.3-48.6c1.2-14.5,2.9-27.2,5.1-38.2
			c2.2-11,5.6-20.2,10.4-27.6c1.3-2.4,3.8-4.2,7.3-5.6c3.5-1.3,6.8-0.7,9.9,2c3,2.7,5.2,8.2,6.6,16.4c1.3,8.3,0.5,20.7-2.5,37.2
			c-4.4,26.7-5.2,48.1-2.5,64.3c2.7,16.2,7.8,28.6,15.2,37.2c7.4,8.6,16.4,14.2,27.1,16.7c10.6,2.5,21.8,3.8,33.6,3.8
			c11.1,0,22.3-2.4,33.4-7.3c11.1-4.9,21.9-12.5,32.4-22.8c2.4-2.3,4.8-4.9,7.1-7.5l-1.7,13.4l77.5-77.5c1.4-6.6,2.9-13.1,4.7-19.5
			c3-11,6.9-20.8,11.6-29.6c2.7-4.7,6-8.3,9.9-10.6c3.9-2.4,7.8-3.4,11.9-3c4,0.3,7.9,1.8,11.6,4.3c1.7,1.2,3.2,2.6,4.6,4.2
			l59.9-59.9C1138.3,141.8,1135.7,139.9,1133,138.2z"/>
		<linearGradient id="SVGID_31_" gradientUnits="userSpaceOnUse" x1="1237.9187" y1="24.153" x2="1279.5436" y2="24.153">
			<stop  offset="0" style="stop-color:#FFFFFF;stop-opacity:0"/>
			<stop  offset="1" style="stop-color:#FFFFFF"/>
		</linearGradient>
		<path class="st34" d="M1271.9,3.3c-6.2-1.2-12.1-1.8-17.5-1.8c-5.4,0-9.3,0-11.6,0l-4.9,45.2l41.6-41.6
			C1277,4.4,1274.4,3.8,1271.9,3.3z"/>
	</g>
	<g class="st30">
		<linearGradient id="SVGID_32_" gradientUnits="userSpaceOnUse" x1="1175.5983" y1="243.3973" x2="1551.9904" y2="243.3973">
			<stop  offset="0" style="stop-color:#FFFFFF;stop-opacity:0"/>
			<stop  offset="1" style="stop-color:#FFFFFF"/>
		</linearGradient>
		<path class="st35" d="M1506.9,312.2c-6.1,0-12-0.8-17.7-2.5c-5.7-1.7-11-4.2-15.8-7.6c-4.8-3.4-8.8-7.6-12.2-12.6
			c-3.4-5.1-5.6-10.8-6.6-17.2c4.7,2,10.6,2.9,17.7,2.5c7.1-0.3,14.5-1.8,22.3-4.6c7.8-2.7,15.4-6.6,23-11.6
			c7.6-5.1,14.2-11.5,19.7-19.2c5.6-7.8,9.7-16.6,12.4-26.6c2.7-9.9,3-21.3,1-34.2c-0.7-7.1-3-13.7-6.8-20
			c-3.9-6.2-8.9-11.7-15.2-16.4c-6.2-4.7-13.4-8.4-21.5-11.1c-8.1-2.7-16.7-4-25.8-4c-8.1,0-17.8,1.4-29.2,4.3
			c-11.4,2.9-21.6,7.7-30.8,14.4c-10.1,7.1-19.2,15.9-27.3,26.3c-8.1,10.5-14.5,22-19.2,34.7c-4.3,11.5-6.7,23.7-7.4,36.6
			c-2.2,4.2-4.5,8.4-6.7,12.4c-5.4,9.6-11,17.8-16.7,24.5c-5.7,6.8-11.8,11.7-18.2,14.9c-6.4,3.2-13.3,3.5-20.7,0.8
			c-2-0.7-4-1.8-6.1-3.3c-2-1.5-3.8-3.8-5.3-6.8c-1.5-3-2.7-7-3.5-11.9c-0.8-4.9-0.9-11.4-0.3-19.5l6.7-39l-121,121
			c8.8-3.1,17.3-7.4,25.2-13.1c6.8-4.9,13.2-10.8,19.4-17.9c1.9,6.8,4.5,13.3,7.7,19.4c5.6,10.5,13.1,18.9,22.5,25.3
			c9.4,6.4,21.4,9.6,35.9,9.6c24.3,0,46.8-9.9,67.6-29.6c8.4-8,16.4-18.1,24-30.3c3,6,6.8,11.8,11.4,17.4
			c6.6,8.1,14.5,15.4,23.8,21.8c9.3,6.4,19.9,11.5,31.8,15.2c11.9,3.7,24.7,5.6,38.3,5.6c0.7,0,1.4,0,2.1,0l62.6-62.6
			C1534.1,306.6,1520.4,311.7,1506.9,312.2z M1450.7,216.6c0.3-2.7,1.5-5.8,3.5-9.4c2-3.5,4.3-6.8,6.8-9.9c2.5-3,5.3-5.5,8.3-7.3
			c3-1.9,5.9-2.8,8.6-2.8c3.7,0.3,6,2.2,6.8,5.6c0.8,3.4,0.6,7.3-0.8,11.6c-1.4,4.4-3.6,8.8-6.8,13.2c-3.2,4.4-7,7.6-11.4,9.6
			c-4,2-7.9,2.5-11.6,1.3C1450.6,227.3,1449.4,223.3,1450.7,216.6z"/>
		<linearGradient id="SVGID_33_" gradientUnits="userSpaceOnUse" x1="1576.5471" y1="247.5358" x2="1615.8831" y2="247.5358">
			<stop  offset="0" style="stop-color:#FFFFFF;stop-opacity:0"/>
			<stop  offset="1" style="stop-color:#FFFFFF"/>
		</linearGradient>
		<path class="st36" d="M1598.5,226.7c-6.6,16.4-13.9,30.2-21.9,41.7l39.3-39.3L1598.5,226.7z"/>
	</g>
</g>
</svg>
